<svg enable-background="new 0 0 2000 2000" viewBox="0 0 2000 2000"
    xmlns="http://www.w3.org/2000/svg">
    <path
        d="m987.827 1624.359c-347.979-.51-634.263-286.304-625.228-642.39 8.71-343.291 290.303-607.085 620.371-609.848 348.245-2.914 635.25 281.35 631.52 632.685-3.644 343.201-283.392 619.613-626.663 619.553zm-499.278-627.395c-2.81 271.663 220.499 497.957 493.97 501.257 271.471 3.276 498.446-212.903 505.79-485.833 7.731-287.324-223.478-511.435-493.725-514.286-277.916-2.932-503.142 219.081-506.035 498.862z"
        fill="#14374d" />
    <path
        d="m1378.837 1738.937c3.794 7.589 7.441 14.595 10.835 21.721 14.398 30.227 28.721 60.49 43.041 90.677-291.207 160.809-727.5 162.799-1056.871-110.598 26.489-31.774 52.978-63.549 80.494-96.555 130.473 106.455 279.023 169.641 446.163 186.924 167.561 17.327 326.161-14.297 476.338-92.169z"
        fill="#14374d" />
    <path
        d="m323.059 317.447c26.375 24.424 50.626 46.881 75.943 70.325-143.898 142.543-231.197 313.537-253.795 515.268-22.55 201.305 23.18 387.325 132.893 559.697-28.761 17.375-57.603 34.798-87.997 53.159-114.224-177.607-165.283-371.17-151.36-580.617 16.013-240.882 113.538-445.353 284.316-617.832z"
        fill="#04beec" />
    <path
        d="m1488.405 175.043c-21.792 37.15-42.535 72.511-63.708 108.607-127.647-76.941-264.926-118.373-413.165-122.375-148.278-4.004-287.766 29.4-419.854 99.629-22.89-35.105-45.677-70.053-69.006-105.832 155.133-85.132 320.555-125.303 496.628-119.773 167.988 5.277 323.97 52.134 469.105 139.744z"
        fill="#14374d" />
    <path
        d="m1617.04 1727.629c-29.114-30.698-57.669-60.807-86.354-91.053 191.83-170.718 291.601-383.252 295.922-640.364h125.203c.281 112.065-18.073 220.918-56.111 326.281-57.407 159.014-150.63 293.564-278.66 405.136z"
        fill="#14374d" />
    <path
        d="m1902.782 733.703c-32.468 13.198-63.713 25.899-96.048 39.043-33.886-120.462-90.952-227.375-171.287-322.836 27.5-21.666 53.765-42.36 81.073-63.875 86.371 102.89 148.287 218.229 186.262 347.668z"
        fill="#04beec" />
</svg>