<svg enable-background="new 0 0 500 500" viewBox="0 0 500 500" xmlns="http://www.w3.org/2000/svg">
    <g fill="#4155a4">
        <path
            d="m249.7 499c-137.4 0-248.7-111.6-248.7-249.3s111.3-249.3 248.7-249.3 248.7 111.6 248.7 249.3c-.2 137.6-111.4 249.1-248.7 249.3zm0-475.7c-124.8 0-225.9 101.4-225.9 226.5s101.2 226.5 225.9 226.5 225.9-101.4 225.9-226.5c-.1-125.1-101.2-226.4-225.9-226.5z" />
        <path
            d="m249.7 396.2c-65.3 0-122.7-43.4-140.6-106.3s7.9-130.2 63.4-164.7 127-28.1 175.4 15.9c3.4 2.6 5 6.9 4.2 11.2-.8 4.2-3.9 7.6-8 8.8s-8.5 0-11.5-3.1c-49.3-44.8-125.2-42.3-171.5 5.7s-46.3 124.1 0 172 122.2 50.5 171.5 5.7c3-3.1 7.4-4.3 11.5-3.1s7.2 4.6 8 8.8-.8 8.5-4.2 11.2c-26.9 24.4-61.9 38-98.2 37.9z" />
        <path
            d="m376.1 169.6c-11.8 0-21.3 9.6-21.3 21.4s9.6 21.4 21.3 21.4c11.8 0 21.3-9.6 21.3-21.4s-9.5-21.4-21.3-21.4zm9.5 21.4c0 3.9-2.3 7.4-5.9 8.9s-7.7.7-10.4-2.1-3.5-6.9-2.1-10.4c1.5-3.6 5-5.9 8.8-5.9 5.3 0 9.6 4.2 9.6 9.5z" />
    </g>
</svg>