<svg enable-background="new 453.5 -1000 2500 2500" viewBox="453.5 -1000 2500 2500"
    xmlns="http://www.w3.org/2000/svg">
    <path
        d="m1864.16 1447.793c-1.458 0-2.917-.486-4.375-1.458-.972-.972-1.944-2.431-2.431-3.889l-32.084-126.877c-.486-1.458-.486-2.917 0-3.889.486-1.458.972-2.431 2.431-3.403.972-.972 2.431-1.458 3.403-1.458 1.458 0 2.431 0 3.889.486l202.225 107.918c1.458.486 2.431 1.458 2.917 2.917.486 1.458.972 2.917.486 4.375s-.972 2.917-1.944 3.889-2.431 1.458-3.889 1.944l-170.141 19.445zm-21.389-121.53 27.223 106.46 141.946-16.528zm83.612-297.989c-1.458 0-2.917-.486-4.375-1.458l-292.156-247.92c-.972-.972-1.944-2.431-2.431-3.889-.486-1.458 0-2.917.486-4.375s1.458-2.431 2.917-3.403c1.458-.972 2.917-.972 4.375-.486l381.602 62.223c.972 0 1.944.486 2.917 1.458.972.486 1.458 1.458 1.944 2.431.486.972.972 1.944.972 2.917s-.486 2.431-.972 2.917l-89.445 185.697c-.486.972-.972 1.944-1.944 2.431l-2.917 1.458h-.973zm-268.336-243.059 266.392 226.044 81.668-169.169zm-708.759-643.133c-.972 0-2.431-.486-3.403-.972s-1.944-1.458-2.431-2.431c-.486-.972-.972-2.431-.972-3.403s.486-2.431.972-3.403l136.599-259.587c.486-1.458 1.458-2.431 2.431-2.917.972-.486 2.431-.972 3.889-.486 1.458 0 2.431.486 3.403 1.458s1.944 1.944 2.431 2.917l88.959 243.545c.486.972.486 1.944.486 3.403 0 .972-.486 1.944-.972 2.917-.486.972-1.458 1.458-2.431 2.431-.972.486-1.944.972-2.917.972l-225.558 16.042h-.486zm135.627-249.864-123.474 234.794 204.655-14.584zm1.458-10.209h-1.458l-229.934-45.209c-1.458-.486-2.431-.972-3.403-1.944s-1.458-2.431-1.458-3.889 0-2.917.972-4.375 1.944-2.431 2.917-2.917l180.349-76.807 33.056-355.838c0-1.944.972-3.403 2.431-4.375 1.458-.972 2.917-1.944 4.375-1.944s3.403.486 4.375 1.944c1.458 1.458 1.944 2.917 1.944 4.375l15.07 197.364v2.431l-48.126 160.419 44.237 121.529c.486.972.486 2.431.486 3.403 0 1.458-.486 2.431-1.458 3.403-.486.972-1.458 1.458-2.431 1.458.001.972-.972.972-1.944.972m-206.114-54.445 195.419 38.403-38.889-105.487zm193.475-357.782-20.417 214.864 29.167-96.737zm-124.446 672.786c-1.458 0-2.917-.486-3.889-1.458s-1.944-1.944-2.431-3.403l-91.876-305.768c-.486-1.458-.486-2.917 0-3.889.486-1.458.972-2.431 1.944-3.403s1.944-1.458 3.403-1.458 2.431 0 3.889.486l178.405 89.932c1.458.972 2.917 1.944 3.403 3.889.486 1.458.486 3.403 0 5.347l-86.043 215.35c-.486 1.458-1.458 2.431-2.917 3.403-.971.486-2.43.972-3.888.972m-81.182-299.448 82.154 271.253 76.32-191.53zm172.086-85.071c-1.458 0-3.403-.486-4.375-1.944-.972-.972-1.458-1.944-1.944-3.403-.486-1.458-.486-2.917 0-3.889l49.584-162.363c0-.972.486-1.944 1.458-2.431.486-.972 1.458-1.458 2.431-1.458l155.071-68.542c1.458-.486 2.917-.972 4.375-.486s2.431.972 3.403 2.431c.972 1.458 1.458 2.431 1.458 4.375 0 1.458-.486 2.917-.972 4.375l-120.071 194.932c-.486 1.458-1.458 1.944-2.917 2.431l-83.612 36.945c-1.458-.973-2.431-.973-3.889-.973zm54.931-164.307-43.264 145.349 69.029-30.139 106.946-173.544zm-59.792 332.99c-.972 0-1.944 0-2.917-.486l-178.405-89.932c-1.458-.972-2.431-1.944-3.403-3.403-.486-1.458-.972-3.403 0-4.861.486-1.458 1.458-2.917 2.917-3.889 1.458-.972 2.917-1.458 4.375-.972l229.933 45.209c1.458 0 2.431.972 3.403 1.944s1.458 1.944 1.944 3.403c.486 1.458.486 2.431 0 3.889s-.972 2.431-1.944 3.403l-51.042 45.209c-1.458 0-3.403.972-4.861.486m-130.28-80.209 129.307 65.14 36.945-32.57zm752.024 1359.669h-2.431l-249.864-98.196c-.972-.486-1.944-.972-2.431-1.944-.972-.972-1.458-1.458-1.458-2.917-.486-.972-.486-1.944 0-3.403.486-1.458.486-1.944 1.458-2.917l151.182-213.405c.972-1.458 1.944-1.944 3.403-2.431s2.917-.486 4.375 0l366.532 132.71c.972.486 2.431.972 2.917 1.944.972.972 1.458 2.431 1.458 3.403 0 1.458 0 2.917-.486 3.889s-1.458 1.944-2.431 2.917l-268.337 177.919c-1.457 1.945-2.429 2.431-3.887 2.431m-238.684-108.404 238.197 93.821 252.781-168.197-348.06-125.904zm-56.39-393.268h-1.944l-324.726-95.765c-.972-.486-1.944-.972-2.431-1.944l-.972-.972c-.972-1.458-.972-2.917-.972-4.375s.972-2.917 1.458-3.889l197.85-225.558c.486-.486 1.458-.972 1.944-1.458.972-.486 1.458-.486 2.431-.486l146.321-8.264c.972 0 1.944 0 2.917.486s1.458.972 2.431 1.458c1.458 1.458 1.944 2.917 1.944 4.861v209.516l-19.445 120.557c0 .972-.486 1.944-.972 2.917s-.972 1.458-1.944 1.944c-.973.485-2.431.972-3.89.972m-285.35-98.196 280.49 82.154 17.014-104.029zm161.877-223.128-184.724 210.489 321.81-23.82v-194.447zm-289.24-241.114c-.972 0-1.944 0-2.917-.486-1.458-.972-2.917-1.944-3.403-3.889-.486-1.458-.486-3.403 0-5.347l86.043-215.35c.486-.972.972-1.458 1.458-2.431l51.042-45.209c1.458-.972 2.917-1.458 4.375-1.458s2.917.486 4.375 1.458 1.944 2.431 2.431 3.889c.486 1.458 0 3.403-.486 4.861l-137.085 260.073c-.486.972-1.458 2.431-2.431 2.917-.971.486-2.43.972-3.402.972m91.876-217.294-37.431 93.334 59.792-112.779zm477.367 1469.045c-1.944 0-3.403-.972-4.861-1.944l-207.086-215.35c-.486-.972-.972-1.458-1.458-2.431s-.486-1.944-.486-2.917.486-1.944.972-2.917.972-1.458 1.944-2.431l90.418-67.57c0-1.458 0-2.917.972-4.375s1.944-2.431 3.889-2.917c1.458-.486 2.917-.486 4.375 0l251.809 101.598c.972.486 1.944.972 2.917 1.944.972.972 1.458 1.944 1.458 3.403v3.403c-.486.972-.972 2.431-1.944 2.917l-62.223 62.223-74.376 123.96c-.486.972-1.458 1.458-1.944 2.431-.972.486-1.944.972-2.917.972zm-195.905-221.183 195.419 203.197 67.57-112.779-176.947-154.099zm118.613-53.473 153.127 133.196 51.042-50.556zm315.49 360.699h-2.431l-237.711-86.043c-1.458-.486-2.917-1.458-3.403-2.917-.972-1.458-.972-2.917-.972-4.375s.972-2.917 1.944-4.375c.972-.972 2.431-1.458 3.889-1.944l190.558-17.986c1.458 0 2.917 0 3.889.972 1.458.972 1.944 1.944 2.917 2.917l47.153 104.029c.486 1.458.972 2.917.486 3.889 0 1.458-.972 2.431-1.458 3.403-.486.486-1.458 1.458-2.431 1.458-.972.972-1.458.972-2.43.972m-206.114-88.959 192.988 70.001-38.403-83.612zm313.546 56.876c-1.458 0-2.431-.486-3.403-1.458l-270.281-179.377c-.972-.486-1.458-1.458-1.944-1.944-.486-.972-.972-1.944-.972-2.917s0-1.944.486-2.917l1.458-2.917 63.195-62.709c.972-.972 2.431-1.944 3.889-1.944s2.917.486 4.375.972l174.516 115.21c1.458.972 2.431 2.431 2.917 3.889l32.084 126.877v3.403c0 .972-.486 1.944-1.458 2.917-.486.972-1.458 1.458-2.431 1.944-.487.485-1.945.971-2.431.971zm-258.615-187.155 248.406 164.308-27.223-106.946-168.197-110.349zm-87.015 133.195c-.972 0-2.431-.486-3.403-.972s-1.944-1.458-2.431-2.917c-.486-.972-.972-2.431-.972-3.403 0-1.458.486-2.431.972-3.403l75.348-124.932c.486-.972.972-1.458 1.944-2.431.972-.486 1.458-.972 2.917-.972h2.917c.972.486 1.944.972 2.431 1.458l115.21 107.432c.972.972 1.458 1.944 1.944 3.403.486 1.458 0 2.917 0 3.889-.486 1.458-.972 2.431-1.944 2.917-.972.972-2.431 1.458-3.403 1.458zm76.807-121.529-63.681 105.974 161.877-15.07zm268.822 175.489c-.972 0-1.944 0-2.917-.486l-154.585-71.945c-.486-.486-1.458-.486-1.458-.972l-115.21-107.918c-1.458-.972-1.944-2.917-1.944-4.375 0-1.944.486-3.403 1.458-4.861s2.431-2.431 3.889-2.917 3.403 0 4.861.972l270.281 179.377c1.458.972 1.944 1.944 2.917 3.403.486 1.458.486 2.917 0 4.375s-1.458 2.917-2.431 3.889c-.972.972-2.431 1.458-3.889 1.458zm-151.182-85.071 70.973 33.056-123.474-81.182zm43.751 117.154c-1.458 0-2.431-.486-3.889-.972-.972-.972-1.944-1.944-2.431-2.917l-47.153-104.029c-.486-1.458-.486-2.917-.486-3.889.486-1.458.972-2.917 1.944-3.889s1.944-1.458 3.403-1.944c1.458 0 2.917 0 3.889.486l155.071 71.945c1.458.486 2.431 1.458 2.917 2.917.972 1.458.972 2.917.972 4.375s-.486 2.917-1.458 3.889-1.944 1.944-3.403 2.431l-107.432 31.598h-1.944zm-33.542-96.737 36.945 81.182 84.584-25.278zm-825.427-692.717h-1.944c-.972 0-1.458-.486-2.431-1.458-.486-.486-1.458-1.458-1.458-1.944l-19.445-39.375c-.486-.972-.486-1.944-.486-2.917s0-1.944.486-2.917.972-1.944 1.944-2.431 1.458-1.458 2.917-1.458l158.96-41.806c1.458-.486 3.403 0 4.861.486 1.458.972 2.431 1.944 3.403 3.403.486 1.458.486 3.403 0 4.861s-1.458 2.917-2.917 3.889l-139.516 81.668c-2.43-.001-3.402.485-4.374-.001m-9.723-41.32 12.153 24.792 88.959-52.015c.001.001-101.112 27.223-101.112 27.223zm370.421 229.934c-.972 0-1.944 0-2.917-.486l-361.184-188.614c-.972-.486-1.944-1.458-2.917-2.431-.486-.972-.972-2.431-.972-3.403 0-1.458.486-2.431.972-3.403s1.458-1.944 2.431-2.431l140.002-81.182c1.458-.972 3.403-.972 4.861-.972l325.212 94.793 2.917 1.458c.972.972 1.458 1.458 1.944 2.917.486.972.486 1.944.486 2.917s-.486 1.944-.972 2.917l-103.543 175.488c-.486.972-1.458 1.944-2.431 2.431s-2.916 0-3.889.001m-346.601-195.906 344.171 179.377 95.279-161.877-313.059-91.39zm121.529 394.241h-1.458c-.972 0-1.945-.972-2.917-1.458-.972-.972-1.458-1.944-1.944-2.917l-136.113-387.435c-.486-1.458-.486-2.917 0-4.375s1.458-2.431 2.431-3.403 2.431-1.458 3.889-1.458 2.917.486 3.889 1.458l301.393 234.794c.972.486 1.458 1.458 1.944 2.431s.972 1.944.972 2.917 0 1.944-.486 2.917-.972 1.944-1.458 2.431l-165.766 151.669c-.973 1.457-2.917 2.43-4.376 2.429m-122.015-374.31 124.932 355.352 151.669-139.516zm287.295 222.156c-1.458 0-2.917-.486-3.889-1.458l-301.392-234.795c-1.458-.972-2.431-2.431-2.431-4.375-.486-1.944 0-3.403.972-4.861s2.431-2.431 3.889-2.917 3.403 0 4.861.486l361.185 188.613c.972.486 1.944 1.458 2.431 2.431.486.972.972 1.944.972 3.403 0 1.458 0 2.431-.486 3.403s-1.458 1.944-2.431 2.917l-60.278 46.181c-.972.486-2.431.972-3.403.972m-237.225-200.281 236.739 184.725 47.153-35.973zm350.49 454.52c-1.458 0-2.431-.486-3.403-.972s-1.944-1.944-2.431-2.917l-113.751-253.753c-.486-1.458-.972-2.917-.486-4.861.486-1.458 1.458-2.917 2.431-3.889l60.279-46.181 2.917-1.458c.972 0 2.431 0 3.403.486s1.944.972 2.917 1.944c.486.972.972 1.944 1.458 3.403l53.473 299.934c0 1.458 0 3.403-.972 4.861s-1.944 2.431-3.889 2.917c-.487 0-.973.486-1.946.486m-105.001-259.1 88.959 198.822-41.806-235.281zm624.174 402.018c-1.944 0-3.403-.972-4.861-1.944-.972-.972-1.458-1.944-1.944-3.403-.486-1.458 0-2.431 0-3.889l93.821-294.587c.486-.972.486-1.458 1.458-2.431.486-.486 1.458-1.458 1.944-1.458.972-.486 1.458-.486 2.431-.972.972 0 1.944 0 2.917.486l386.463 125.418c1.458.486 2.43 1.458 3.403 2.431.972.972 1.458 2.431 1.458 4.375 0 1.458-.486 2.917-1.458 3.889-.972 1.458-1.945 1.944-3.403 2.431l-480.284 169.169c-.486-.001-.972.485-1.945.485m98.196-293.128-87.501 275.142 447.714-157.502zm-616.883 149.238h-1.944l-279.031-101.112c-.972-.486-1.944-.972-2.917-1.944-.972-.972-1.458-1.944-1.458-3.403v-3.403c.486-.972.972-2.431 1.944-2.917l164.794-152.155c.972-.972 1.944-1.458 2.917-1.458h2.917c.972 0 1.944.486 2.917 1.458.972.486 1.458 1.458 1.944 2.431l113.265 252.781c.486 1.458.972 2.917.486 3.889 0 1.458-.972 2.431-1.944 3.889-.486.486-1.458 1.458-1.944 1.458-.487.486-.973.486-1.946.486m-265.906-110.835 252.781 91.876-103.543-229.933zm1238.141 286.323c-1.458 0-2.917-.486-3.889-1.458-.972-.486-1.944-1.458-2.431-2.917-.486-.972-.486-2.431-.486-3.889l25.764-194.933-381.116-123.474c-1.458-.486-2.917-1.458-3.403-2.917-.972-1.458-1.458-2.917-.972-4.375 0-1.458.972-2.917 1.944-4.375.972-.972 2.431-1.944 3.889-1.944l298.962-33.542c1.458 0 2.431 0 3.889.486.972.486 1.945 1.458 2.917 2.917l85.557 155.557 341.74-14.097c1.458 0 2.917.486 3.889 1.458 1.458.972 1.945 2.431 2.431 3.889 0 1.458 0 2.917-.486 4.375s-1.458 2.917-2.917 3.403l-372.852 215.35c0 .486-.972.486-2.43.486m33.056-201.252-24.306 181.322 336.393-194.447zm-359.727-128.822 339.31 109.862-77.293-139.516zm76.321 403.964c-1.458 0-2.431-.486-3.403-.972s-1.944-1.458-2.431-2.917c-.486-1.458-.972-2.917-.486-4.375s.972-2.917 2.431-3.889l125.904-105.973c.972-.972 1.458-1.458 2.917-1.458.972-.486 1.945 0 2.917 0l124.932 31.598c1.458.486 2.917.972 3.889 2.431.972.972 1.458 2.917 1.458 4.375s-.486 2.917-1.458 4.375-1.944 1.944-3.403 2.431l-250.836 73.89c-1.459.484-1.946.484-2.431.484m127.362-105.001-97.709 82.154 194.447-57.362zm-330.56 0c-1.458 0-2.431-.486-3.403-1.458l-174.516-116.668c-.972-.486-1.944-1.458-2.431-2.431-.486-.972-.972-2.431-.972-3.403 0-1.458 0-2.431.972-3.403.486-.972 1.458-1.944 2.431-2.431l267.851-177.919c.972-.972 2.431-1.458 3.889-1.458s2.917.486 3.889 1.458 1.944 1.944 2.431 3.403c.486 1.458.486 2.917 0 4.375l-93.821 294.101-1.458 2.917c-.486.972-1.458 1.458-2.431 1.458-.972.486-1.458.486-2.431.486zm-161.39-123.96 157.988 105.974 85.07-266.878zm641.674-45.695c-1.458 0-2.43-.486-3.403-.972-.972-.486-1.944-1.458-2.431-2.431l-87.987-158.96c-.486-1.458-.972-2.917-.972-3.889 0-1.458.486-2.917 1.458-3.889s1.945-1.944 3.403-2.431c1.458-.486 2.917-.486 3.889 0l434.103 143.405c1.458.486 2.917 1.458 3.403 2.917.972 1.458 1.458 2.917.972 4.861 0 1.458-.972 2.917-1.945 4.375-.972.972-2.917 1.944-4.375 1.944l-346.115 14.584zm-73.403-154.099 77.292 139.516 303.823-12.639zm46.667 354.865h-1.458l-124.932-31.598c-1.458 0-2.43-.972-3.403-1.458-.972-.972-1.458-1.944-1.944-3.403-.486-1.458-.486-2.431 0-3.889s.972-2.431 1.944-3.403l151.669-169.169c.972-.972 2.431-1.944 3.889-1.944 1.458-.486 2.917 0 4.375.486s2.431 1.458 2.917 2.917c.486 1.458.972 2.917.486 4.375l-26.736 200.766c0 .972-.486 1.944-.972 2.917s-.972 1.458-1.944 1.944c-.975.973-2.433 1.459-3.891 1.459m-111.807-42.778 106.459 27.223 22.848-171.113zm-138.543 116.668c-.972 0-1.944-.486-2.917-.486l-204.655-105.974c-1.458-.972-2.431-1.944-2.917-3.403-.486-1.458-.972-2.917-.486-4.861.486-1.458.972-2.917 2.431-3.889 1.458-.972 2.431-1.458 4.375-1.458h.972l479.311-168.683c1.458-.486 2.917-.486 4.375 0s2.917 1.458 3.403 2.917c.972 1.458 1.458 2.917.972 4.375 0 1.458-.972 2.917-1.458 4.375l-151.669 169.169-.486.486-126.877 105.974c-1.458.972-2.916 1.458-4.374 1.458m-175.975-105.488 175.488 90.418 107.918-90.418zm14.097-14.097h284.865l131.252-146.807zm54.445-279.518h-2.431l-367.991-133.682c-.972-.486-1.944-.972-2.431-1.944-.972-.972-1.458-1.458-1.458-2.917-.486-.972-.486-1.944 0-3.403 0-.972.486-1.944.972-2.917l75.348-114.724c.486-.972 1.458-1.458 1.944-1.944.972-.486 1.458-.972 2.431-.972h2.917c.972 0 1.458.486 2.431.972l292.156 247.92c.972.972 1.458 1.944 1.944 3.403 0 1.458 0 2.431-.486 3.889s-1.458 2.431-2.431 2.917c-.972.972-2.431 1.458-3.403 1.458zm-356.323-143.89 322.296 117.154-257.156-217.78zm-11.667 10.694c-.972 0-1.458 0-2.431-.486-.972-.486-1.458-.972-1.944-1.458l-197.364-191.53c-.972-.972-1.944-2.431-1.944-3.889s0-2.917.972-4.375c.486-1.458 1.945-2.431 3.403-2.917s2.917-.486 4.375-.486l272.712 77.293 2.917 1.458c.972.972 1.458 1.458 1.944 2.917.486.972.486 2.431.486 3.403s-.486 1.944-.972 2.917l-76.807 114.238c-.486.972-1.458 1.458-1.944 1.944-.972.486-1.944.486-2.917.972zm-172.572-184.238 171.599 166.738 65.626-99.168zm21.389 396.186h-1.944c-1.458-.486-2.431-.972-3.403-2.431-.972-1.458-1.458-2.431-1.458-3.889l-45.695-403.963c0-1.458 0-2.917.486-4.375s1.458-2.431 2.917-2.917 2.917-.972 3.889-.486c1.458 0 2.917.972 3.889 1.944l197.364 192.016c.972 1.458 1.944 2.917 1.944 4.375s-.486 3.403-1.458 4.861l-151.668 211.947c-.486.972-1.458 1.458-2.431 1.944-.487.974-1.459.974-2.432.974m-37.431-393.269 41.806 367.991 137.571-192.989zm37.431 393.269c-.972 0-1.944 0-2.917-.972-.972-.486-1.944-1.458-2.431-2.431l-149.238-228.475c-.486-.972-.972-2.431-.972-3.889s.486-2.917.972-3.889l103.543-175.488c.486-1.458 1.944-2.431 2.917-2.917 1.458-.486 2.917-.486 3.889-.486 1.458.486 2.431.972 3.403 1.944s1.458 2.431 1.458 3.889l46.181 404.449c0 1.458 0 2.917-.972 4.375s-1.944 2.431-3.403 2.917c-.485.972-1.457.972-2.43.973m-140.973-235.767 131.252 200.766-40.834-355.838zm45.208 307.226h-2.431c-.972-.486-1.944-.972-2.917-1.944-.972-.972-1.458-1.944-1.458-2.917l-53.959-299.934v-1.944c0-1.458.486-2.917.972-3.889.972-.972 1.944-1.944 2.917-2.431 1.458-.486 2.917-.486 4.375 0s2.917 1.458 3.403 2.917l149.724 228.475c.972.972.972 2.431.972 3.889 0 .972-.486 2.431-.972 3.403s-.972 1.944-1.944 2.431l-94.307 71.459c-1.458.485-2.916.971-4.375.485m-40.833-275.142 46.181 256.67 81.668-61.251zm-392.783-252.295h-1.944c-.972-.486-1.944-.972-2.431-1.944-.486-.486-.486-.486-.972-1.458v-.972l-129.794-376.256c-.486-1.458-.486-2.917 0-4.375s1.458-2.917 2.431-3.403l128.335-105.001c1.458-.972 2.917-1.458 4.375-1.458s2.917.486 4.375 1.458l192.016 183.752.486.972c.486.486.972 1.458 1.458 2.431v2.917l-32.57 254.725c0 1.458-.972 2.917-1.944 3.889s-1.944 1.944-3.403 2.431l-158.474 42.292zm181.322-275.143-165.766 256.184 138.057-35.973zm-301.879-105.487 122.502 358.268 181.322-280.49-183.753-175.974s-120.071 98.196-120.071 98.196zm279.517 337.851c-.972 0-1.944 0-2.917-.486-1.458-.486-2.431-1.458-2.917-2.917-.486-1.458-.972-2.917-.486-4.375l32.57-254.725c0-.972.486-1.944.972-2.431.486-.972.972-1.458 1.944-1.944 1.458-.972 3.403-1.458 5.347-1.458l165.28 29.653c.972 0 2.431.972 2.917 1.458.972.972 1.458 1.944 1.944 2.917.486 1.458.486 2.431 0 3.889s-.972 2.431-1.458 3.403l-198.336 225.558c-.486.486-1.458.972-1.944 1.458zm38.403-253.753-29.167 225.558 175.002-199.308zm159.933 29.167h-.972l-165.766-29.653c-1.458-.486-2.431-.972-3.403-1.944l-192.016-184.239c-.972-.972-1.944-2.917-1.944-4.375s.486-3.403 1.458-4.861 2.431-2.431 3.889-2.917 3.403 0 4.861.972l357.782 213.406c1.458.972 2.431 1.944 2.917 3.403.486 1.458.486 2.917 0 4.861-.486 1.458-1.458 2.431-2.431 3.403-1.458 1.458-2.917 1.945-4.375 1.944m-162.363-43.264 126.39 22.361-272.711-162.849zm162.363 43.264c-.972 0-2.431-.486-3.403-.972l-357.782-213.405c-.972-.486-1.945-1.458-2.431-2.917-.486-.972-.972-2.431-.972-3.889s.486-2.431 1.458-3.889c.972-.972 1.944-1.944 2.917-2.431l70.487-28.681h1.944l226.044-16.042h2.917l197.363 72.431c.972.486 1.944.972 2.917 1.944.486.972 1.458 1.944 1.458 2.917 0 .972.486 1.944 0 3.403 0 .972-.486 1.944-1.458 2.917l-136.113 185.697c-.486.972-1.458 1.458-2.431 1.944-.971.487-1.943.973-2.915.973m-341.74-219.725 340.282 203.197 127.363-173.544-187.641-68.543-224.1 16.042zm1032.512 864.317c-.972 0-2.431-.486-3.403-.972s-1.944-1.458-2.431-2.431c-.486-.972-.972-1.944-.972-3.403s0-2.431.486-3.403l89.932-185.697c.486-.972.972-1.458 1.944-2.431.972-.486 1.458-.972 2.431-1.458l262.99-66.112c1.458-.486 2.917 0 4.375.486s2.431 1.944 2.917 3.403c.486 1.458.972 2.917.486 4.375s-1.458 2.917-2.431 3.889l-352.921 251.323c-.486 1.944-1.944 2.431-3.403 2.431m94.307-186.669-76.32 158.474 300.906-215.35zm-1142.375-671.814c-1.458 0-2.431-.486-3.403-.972s-1.458-1.458-2.431-2.431c-.486-.972-.972-1.944-.972-2.917l-21.389-332.504c0-1.458.486-3.403 1.458-4.861s2.431-2.431 3.889-2.431c1.458-.486 3.403 0 4.861.972s2.431 2.431 2.917 3.889l92.362 304.309c.486 1.458.486 3.403-.486 5.347-.972 1.458-1.944 2.917-3.889 3.403l-70.487 28.195c-.485.001-1.458.487-2.43.001m-10.695-281.948 17.014 265.42 56.39-23.334s-73.404-242.086-73.404-242.086zm1057.305 1138.972c-1.458 0-2.917-.486-3.889-1.458s-1.944-1.945-2.431-3.403c-.486-1.458-.486-2.917 0-4.375s1.458-2.917 2.431-3.403l353.893-250.35c.972-.972 2.431-.972 3.889-.972s2.917.486 3.889 1.458 1.944 1.944 2.43 3.403c.486 1.458.486 2.917 0 3.889l-55.903 217.78c-.486 1.458-.972 2.431-1.945 3.403s-2.43 1.458-3.889 1.944l-297.504 32.57h-.972zm342.713-241.114-316.462 224.1 266.392-29.167zm-757.371-151.668c-1.458 0-2.431-.486-3.403-.972s-1.944-1.458-2.431-2.917l-128.821-258.614c-.486-1.458-.972-2.917-.486-4.375 0-1.458.972-2.917 1.944-3.889 1.458-.972 2.431-1.458 3.889-1.458s2.917.486 3.889 1.458l171.113 116.668c1.458.972 1.944 1.944 2.917 3.403.486 1.458.486 2.917 0 4.375l-42.778 142.432c-.486 1.458-.972 2.431-2.431 3.403-.972.972-2.431 1.458-3.403 1.458v-.972zm-110.835-245.976 109.376 220.697 36.459-121.043zm153.613 103.543c-1.458 0-2.431-.486-3.889-.972l-171.113-116.668c-.972-.486-1.458-1.458-1.944-1.944-.486-.972-.486-1.944-.972-2.917l-9.236-176.947c0-1.458.486-2.917.972-4.375.972-1.458 1.944-2.431 3.403-2.917s2.917-.486 4.375 0 2.431 1.458 3.403 2.917l180.836 293.615c.972 1.458.972 2.917.972 4.375s-.972 2.917-1.944 4.375c-.972.486-1.458.972-2.431 1.458-.487 0-1.459.486-2.432 0m-164.793-127.363 141.946 96.737-149.724-244.03zm-152.641 18.959c-1.458 0-2.431-.486-3.403-.972s-1.945-1.458-2.431-2.917c-.486-1.458-.972-2.431-.486-3.889 0-1.458.486-2.431 1.458-3.889l136.599-186.183c.972-.972 1.944-1.944 3.403-2.431 1.458-.486 2.917-.486 3.889 0 1.458.486 2.431 1.458 3.403 2.431.972.972 1.458 2.431 1.458 3.889l9.236 177.433c0 .972 0 1.944-.486 2.917-.486.972-.486 1.458-1.458 2.431-.486.486-1.458 1.458-1.944 1.458-.972.486-1.458.486-2.431.486zm131.252-173.544-117.154 159.446 124.932-7.292zm5.833-11.666h-2.431l-198.336-72.918c-1.458-.486-2.431-1.458-2.917-2.431-.972-.972-1.458-2.431-1.458-3.889s.486-2.917.972-3.889c.972-1.458 1.944-1.944 2.917-2.917l233.823-109.376c.972-.486 1.944-.972 3.403-.972s2.431.486 3.403.972 1.458 1.458 2.431 2.431c.486.972.972 1.944.972 3.403v1.458l-35.487 181.808c0 .972-.486 1.944-.972 2.917-.486.972-1.458 1.458-1.944 1.944-1.945.486-3.404 1.458-4.376 1.459m-180.349-80.21 175.002 64.167 31.111-161.391zm179.863 80.696c-.972 0-1.944 0-2.917-.486-1.458-.486-2.431-1.944-2.917-3.403-.486-1.458-.972-2.917-.486-4.375 0 0 6.32-31.598 12.639-62.223l22.847-119.585c0-1.458.972-2.917 1.944-3.889s2.431-1.458 3.889-1.944l117.154-8.264c1.458 0 2.431.486 3.403.972s1.944 1.458 2.431 2.917c.486 1.458.972 2.431.972 3.889s-.486 2.917-1.458 3.889l-152.641 191.53c-1.943.486-3.402.972-4.86.972m41.32-182.78-22.848 114.724-6.806 35 125.418-156.53zm-5.348.486c-.972 0-1.944 0-2.917-.486-.972-.486-1.458-.972-2.431-1.944-.486-.972-1.458-1.944-1.458-2.917v-3.403l31.598-127.363c.486-1.458.972-2.431 1.944-3.403s1.944-1.458 3.403-1.944c1.458 0 2.431 0 3.889.486.972.486 1.944 1.458 2.917 2.431l85.071 118.613c.486.972.972 2.431 1.458 3.403 0 1.458 0 2.431-.486 3.403s-1.458 1.944-2.431 2.917c-.972.486-1.944.972-3.403 1.458zm34.515-118.127-25.764 103.543 95.279-6.806zm-267.364 227.017c-.972 0-2.431 0-3.403-.972-.972-.486-1.944-1.458-2.431-2.431-.972-1.458-1.458-2.917-.972-4.861.486-1.458.972-2.917 2.431-4.375l264.448-236.739c.972-.972 2.431-1.458 3.889-1.458s2.917 0 3.889.972c1.458.972 1.944 1.944 2.917 3.403.486 1.458.486 2.917.486 4.375l-31.598 126.877c0 .972-.486 1.944-1.458 2.917-.486.972-1.458 1.458-2.431 1.944l-232.85 109.376c-.973.486-1.945.972-2.917.972m252.78-223.128-212.919 190.072 187.155-87.987zm-252.78 223.128h-2.431c-.972-.486-1.944-.972-2.917-1.944-.972-.972-1.458-1.944-1.458-3.403l-8.75-49.584v-2.917c0-.972.486-1.944 1.458-2.431l322.296-440.908c.972-.972 2.431-1.458 3.403-1.944 1.458 0 2.917 0 3.889.486 1.458.486 2.431 1.458 2.917 2.917.486 1.458.972 2.917.972 4.375l-49.584 253.753c0 1.458-.972 2.917-1.944 3.889l-262.989 236.253c-.486.486-1.458.972-2.431 1.458zm-1.459-54.931 5.833 34.514 253.753-227.017 43.265-221.183zm336.393 563.896h-2.431l-128.335-51.042c-1.458-.486-2.431-1.458-2.917-2.431-.972-.972-1.458-2.431-1.458-3.889v-208.544c0-1.458.486-2.917 1.458-4.375s2.431-1.944 3.889-2.431 2.917 0 4.375.486 2.431 1.944 2.917 2.917l128.335 259.1c.486 1.458.972 2.917.486 3.889 0 1.458-.972 2.917-1.944 3.889-.486.972-1.458 1.458-1.944 1.944s-1.459.487-2.431.487m-122.015-62.709 107.918 42.778-107.432-217.294v174.516zm136.113-562.438c-.972 0-1.944-.486-2.917-.972-.972-.486-1.944-1.458-2.431-1.944l-84.584-120.557c-.486-.972-.972-1.458-1.458-2.431v-2.917l48.126-249.864c0-.972.972-2.431 1.458-3.403.972-.972 1.944-1.458 2.917-1.944h.486l270.281-83.612c1.458-.486 3.403-.486 4.861.486 1.458.486 2.917 1.944 3.403 3.403.486 1.458.972 3.403 0 4.861-.486 1.458-1.458 2.917-2.917 3.889l-214.864 127.363-16.042 321.323c0 1.458-.486 2.917-1.458 3.889s-1.944 1.944-3.403 2.431c0 .485-.972.485-1.458-.001zm-77.293-128.821 71.459 102.085 15.07-301.879-41.32-35.973zm54.931-245.003 38.889 33.542 162.849-95.765zm-140.002 1068.972c-1.458 0-2.917-.486-4.375-1.458-.972-.972-1.458-1.944-1.944-2.917s-.486-2.431-.486-3.403l19.931-121.043c0-.972.486-1.944.972-2.917s1.458-1.458 1.944-1.944c.972-.486 1.944-.486 2.917-.486s1.944 0 2.917.486l127.849 50.556c1.458.486 2.431 1.458 2.917 2.431.972 1.458.972 2.431.972 3.889s-.486 2.917-.972 3.889-1.944 1.944-2.917 2.431l-148.266 69.029c.486.484-.486.97-1.459 1.457m24.792-118.613-16.042 99.168 122.016-56.876zm247.434 195.419h-1.944l-271.74-77.293c-1.458-.486-2.431-.972-3.403-2.431-.972-.972-1.458-2.431-1.458-3.889s0-2.917.972-4.375c.972-.972 1.944-2.431 2.917-2.917l148.266-69.029c1.458-.486 2.917-.972 4.375-.486s2.917.972 3.889 1.944l123.96 146.807c.972.972 1.458 2.431 1.458 3.889s0 2.917-.972 4.375c-.486.972-1.458 1.458-2.431 2.431-.972.974-2.917.974-3.889.974m-252.295-86.043 232.364 66.112-105.974-125.418zm-215.35-618.827c-.972 0-1.945 0-2.917-.486s-1.458-.972-2.431-1.944l-1.458-2.917v-2.917l84.098-355.352 1.458-2.917c.972-.972 1.945-1.458 2.917-1.944l237.225-81.182c1.458-.486 2.917-.486 4.375 0s2.431 1.458 3.403 2.431c.972.972 1.458 2.917 1.458 4.375s-.486 2.917-1.458 4.375l-321.809 436.048c-.486.972-1.458 1.458-1.944 1.944-.972 0-1.945.486-2.917.486m89.932-356.81-75.348 318.893 288.754-391.324zm-89.932 356.81c-1.458 0-2.917-.972-4.375-1.944-.972-.972-1.944-2.431-1.944-4.375l-41.806-355.352v-2.917c0-.972.972-1.944 1.458-2.431.486-.972 1.458-1.458 2.431-1.458.972-.486 1.944-.486 2.917-.486h125.904c.972 0 1.944 0 2.917.486.972.486 1.458.972 2.431 1.944l1.458 2.917v2.917l-84.098 354.866c-.486 1.458-.972 2.917-2.431 4.375-1.459.486-2.917 1.458-4.862 1.458m-34.514-355.351 36.459 309.657 73.404-309.657zm42.778 404.449c-1.458 0-2.917-.486-3.889-1.458s-1.944-1.944-2.431-3.403l-134.168-367.018c-.486-1.458-.486-3.403 0-5.347.486-1.945 1.944-2.917 3.403-3.889l82.64-35.973 106.946-173.058-135.141 59.792c-1.458.486-3.403.972-4.861 0-1.458-.486-2.917-1.458-3.889-3.403-.972-1.458-.972-3.403-.972-4.861.486-1.458 1.458-3.403 2.431-4.375l302.851-236.253 2.917-1.458h2.917c.972.486 1.944.972 2.431 1.458.972.972 1.458 1.458 1.944 2.431l34.514 85.557c.486.972.486 1.944.486 2.917s0 1.944-.486 2.917c-.486.972-.972 1.458-1.458 2.431-.486.486-1.458.972-2.431 1.458l-177.919 79.237 5.833 189.1c0 1.944-.486 3.889-1.944 5.347s-2.917 1.944-4.861 1.944h-117.154l49.098 396.672c0 1.458 0 3.403-.972 4.861s-2.431 2.431-3.889 2.917zm-125.904-370.907 111.807 305.282-41.32-336.393zm88.473-48.126h106.46l-5.347-164.308zm252.781-342.712-251.809 195.905 280.003-124.446zm-139.515 357.296c-1.458 0-2.917-.486-3.889-1.458-.972-.486-1.458-1.458-1.944-2.431s-.972-1.944-.972-2.917l-6.32-193.961c0-.972 0-2.431.972-3.403.486-.972 1.458-1.944 2.431-2.431.972-.486 1.944-.972 3.403-.972s2.431.486 3.403.972l243.545 113.751c1.458.486 2.431 1.458 2.917 2.917.486 1.458.972 2.431.972 3.889 0 .972-.486 1.944-1.458 2.917-.486.972-1.458 1.458-2.431 1.944l-238.197 80.695c-.974.488-1.46.488-2.432.488m.972-190.558 5.833 174.03 212.433-71.945zm236.739 110.348c-.972 0-1.944 0-2.917-.486l-244.031-113.751c-.972-.486-1.944-1.458-2.917-2.431-.486-.972-.972-2.431-1.458-3.403 0-1.458.486-2.917.972-3.889.972-.972 1.944-1.944 2.917-2.431l175.974-79.237-30.625-78.751c-.486-1.944-.486-3.889 0-5.347l115.21-270.281c.486-1.458 1.944-2.917 3.403-3.403 1.458-.486 3.403-.486 4.861 0s2.917 1.458 3.889 3.403c.972 1.458.972 3.403.486 4.861l-81.182 351.949 61.737 193.961c.486 1.458.486 2.917 0 3.889-.486 1.458-.972 2.431-1.944 3.403-1.458.972-2.917 1.944-4.375 1.944m-227.989-120.557 216.322 100.626-54.931-173.544zm139.516-166.738 24.792 61.737 59.792-259.587zm-325.213 44.723c-1.458 0-2.917-.486-3.889-1.458s-1.944-1.944-2.431-3.403c-.486-1.458-.486-2.917 0-4.375s1.458-2.917 2.917-3.403l433.616-308.198c.972-.972 2.431-.972 3.889-.972s2.917.486 3.889 1.458 1.944 2.431 2.431 3.889c.486 1.458 0 2.917-.486 4.375l-115.696 269.795c-.486.972-.972 1.945-1.944 2.917-.972.486-1.944.972-3.403 1.458l-317.921 37.917zm417.575-295.073-391.324 278.059 287.295-34.028zm-402.505 492.436c-1.944 0-3.403-.486-4.861-1.944-.972-1.458-1.458-2.917-1.458-4.375s.486-3.403 1.458-4.375l85.557-114.238c.486-.972 1.458-1.458 1.944-1.944l216.808-121.529c.486-.486 1.458-.972 2.431-.972h2.431c.972 0 1.458.486 2.431.972l1.944 1.945c.486.972.972 1.458.972 2.431v2.917c0 .972-.486 1.944-.972 2.431-.486.972-.972 1.458-1.944 1.945l-302.851 235.767c-.973.969-2.432.969-3.89.969m90.418-115.209-53.959 71.945 189.586-147.78zm-4.861 1.458c-1.458 0-2.917-.486-4.375-1.458l-100.626-83.612c-.972-.972-1.458-1.944-1.944-3.403-.486-1.458-.486-2.431 0-3.889s.972-2.431 1.944-3.403 1.944-1.458 3.403-1.458l318.407-37.917c1.458 0 2.917.486 4.375 1.458s2.431 1.944 2.917 3.889c.486 1.458.486 3.403 0 4.861s-1.458 2.917-2.917 3.403l-217.781 120.557c-.973.486-2.431.972-3.403.972m-84.099-85.557 84.584 70.001 182.294-101.599zm-1.458 200.767h-1.944c-1.458-.486-2.431-1.458-3.403-2.431-.972-.972-1.458-2.431-1.458-3.889l-15.07-198.336c0-1.458 0-2.917.972-3.889.486-1.458 1.458-2.431 2.917-2.917.972-.486 2.431-.972 3.889-.972s2.431.486 3.403 1.458l100.626 83.612c1.458.972 2.431 2.917 2.431 4.375 0 1.944-.486 3.889-1.458 5.347l-85.557 115.21c-.486.972-1.458 1.458-2.431 1.458-.973.974-1.945.974-2.917.974m-7.292-190.072 12.639 164.308 70.487-95.765zm1133.139 52.501c-1.458 0-2.43-.486-3.889-1.458l-280.49-193.961c-.972-.972-1.944-1.945-2.431-3.403-.486-1.458-.486-2.917-.486-4.375.486-1.458 1.458-2.917 2.431-3.403.972-.972 2.431-1.458 3.889-1.458l392.297-30.139c1.458 0 2.431 0 3.403.486s1.944 1.458 2.431 2.431c.486.972.972 2.431.972 3.403s-.486 2.431-.972 3.403l-111.321 224.586c-.486.972-.972 1.458-1.945 2.431-.486.486-1.458.972-2.43 1.458h-1.459zm-260.559-195.42 258.128 178.405 102.571-206.6zm-19.93 1.459c-1.944 0-3.403-.486-4.861-1.945l-111.321-117.64c-.972-.972-1.458-1.944-1.944-3.403-.486-1.458 0-2.431 0-3.889.486-1.458 1.458-2.431 2.431-2.917.972-.972 2.431-1.458 3.403-1.458l517.229-41.806c.972 0 1.945 0 2.917.486s1.944.972 2.431 1.944c.486.972.972 1.458 1.458 2.431.486.972.486 1.944.486 2.917l-13.611 128.821c0 1.458-.972 2.917-1.944 4.375-.972.972-2.431 1.944-4.375 1.944zm-96.252-118.613 98.682 104.515 383.547-30.139 11.667-114.724c-.001.001-493.896 40.348-493.896 40.348zm338.338 557.09c-1.458 0-2.917-.486-3.889-.972-.972-.972-1.945-1.944-2.431-2.917-.486-1.458-.486-2.917-.486-3.889s.972-2.917 1.944-3.403l243.059-262.989c.972-.972 1.945-1.458 2.917-1.945.972-.486 2.431-.486 3.403-.486s1.945.972 2.917 1.458c.972.972 1.458 1.458 1.945 2.917l75.348 188.127c.486.972.486 1.944.486 2.917s0 1.944-.486 2.917c-.486.972-.972 1.458-1.945 2.431l-2.917 1.458-317.92 74.862zm241.6-257.155-221.183 238.683 288.267-68.056zm-308.198 86.042h-1.458l-202.711-37.431c-1.458-.486-2.917-1.458-4.375-2.917-.972-1.458-1.458-3.403-.972-4.861l27.223-230.419c0-.972.486-2.431 1.458-3.403.486-.972 1.458-1.945 2.431-2.431.972-.486 1.944-.972 3.403-.972.972 0 2.431.486 3.403.972l280.003 193.961c.972.486 1.458 1.458 2.431 2.431.486.972.972 1.944.972 3.403 0 .972-.486 2.431-.972 3.403s-1.458 1.945-2.431 2.431l-105.488 74.862c-.972.486-2.431.972-3.889.486h.972zm-195.419-50.07 193.475 35.973 94.307-66.598-262.503-181.808zm-91.39-334.935c-1.458 0-2.917-.486-3.889-1.458s-1.944-2.431-2.431-3.889c-.486-1.458 0-2.917.486-4.375s1.458-2.431 2.917-3.403l197.363-113.751c.486-.486 1.458-.486 2.431-.972h2.431l319.865 71.945c1.458 0 2.917 1.458 4.375 2.431.972 1.458 1.458 2.917 1.458 4.861 0 1.458-.972 3.403-1.944 4.375s-2.917 1.944-4.375 1.944zm198.822-113.265-168.197 97.223 440.422-35.973zm154.585 669.87c-.972 0-2.431 0-3.403-.972-.972-.486-1.944-1.458-2.43-2.431s-.972-1.944-.972-3.403 0-2.431.486-3.403l234.308-513.826c.486-1.458 1.945-2.431 2.917-3.403 1.458-.486 2.917-.972 4.375-.486s2.917.972 3.889 2.431c.972.972 1.458 2.917 1.458 4.375l9.236 251.809c0 .972 0 1.944-.486 2.917 0 .972-.486 1.458-1.458 2.431l-243.544 262.989c-.973.486-2.432.972-4.376.972m228.475-492.437-204.655 449.658 212.919-229.933zm-228.475 492.437h-1.945c-1.458-.486-2.917-1.458-3.889-2.917-.972-1.458-1.458-2.917-.972-4.861l38.403-245.003c0-.972.486-1.458.486-1.944l111.807-224.586c.486-1.458 1.458-2.431 2.917-2.917l84.098-44.237c.972-.486 2.431-.972 3.889-.486 1.458 0 2.917.972 3.403 1.944.972.972 1.458 2.431 1.945 3.889 0 1.458 0 2.917-.486 4.375l-233.822 512.854c-.486 1.458-1.458 1.944-2.431 2.917-.973.486-2.431.972-3.403.972m44.723-249.865-30.139 195.419 205.627-451.117-65.14 34.514zm-44.723 249.865c-1.458 0-2.917-.486-3.889-.972-.972-.972-1.945-1.944-2.431-2.917l-67.084-172.085c-.486-1.458-.486-2.917-.486-4.861.486-1.458 1.458-2.917 2.917-3.889l105.487-73.89c.972-.972 2.431-.972 3.889-.972s2.431.486 3.889.972c.972.972 1.945 1.944 2.431 2.917.486 1.458.486 2.431.486 3.889l-38.403 245.489c0 1.458-.972 2.917-1.944 3.889s-2.431 1.944-3.889 1.944zm-58.82-175.975 56.39 143.405 32.084-204.655zm-359.241 27.709c-.972 0-2.431-.486-3.403-.972l-158.96-96.251c-1.458-.972-2.431-1.944-2.917-3.403-.486-1.458-.486-2.917 0-4.861.486-1.458 1.458-2.917 2.431-3.889 1.458-.972 2.917-1.458 4.375-.972l307.712 35.973c1.458 0 2.917.972 3.889 1.944s1.458 2.431 1.944 3.889c0 1.458 0 2.917-.972 4.375s-1.944 2.431-3.403 2.917l-148.752 61.251zm-128.335-92.848 128.821 78.265 120.557-49.584zm-142.918 176.46h-.972c-1.458 0-2.431-.486-3.403-1.458s-1.458-1.944-1.944-2.917l-62.223-196.391c-.486-1.458-.486-2.917 0-3.889.486-1.458.972-2.431 1.944-3.403l128.335-113.265c.972-.972 1.944-1.458 2.917-1.458.972-.486 1.944 0 3.403 0l2.917 1.458c.972.486 1.458 1.458 1.944 2.917l45.209 126.877 157.016 95.765c.972.972 1.944 1.944 2.431 2.917.486 1.458.972 2.431.486 3.889 0 1.458-.486 2.431-1.458 3.403s-1.944 1.944-2.917 2.431l-268.823 82.64c-1.945.97-3.404.97-4.862.484m114.237-177.919-98.196 158.474 238.197-72.918zm-169.169-22.847 57.362 177.919 102.085-164.794-40.834-116.182zm1062.653 190.071h-.486c-1.458 0-2.43-.486-3.403-1.458-.972-.486-1.944-1.944-2.431-2.917l-75.348-188.127c-.486-1.458-.486-2.917 0-4.375s1.458-2.917 2.431-3.889c1.458-.972 2.917-1.458 4.375-1.458s2.917.486 4.375 1.458l125.904 109.862c.972.972 1.945 2.917 2.431 4.375s0 3.403-.972 4.861l-51.042 78.751c-.486.972-1.458 1.944-2.43 2.431-.974.486-2.432.486-3.404.486m-58.335-171.599 59.792 150.21 39.862-63.195zm108.891 92.848c-1.458 0-2.917-.486-4.375-1.458l-125.418-109.376c-.972-.972-1.458-1.945-1.945-3.403-.486-1.458-.486-2.431 0-3.889s.972-2.431 1.945-2.917c.972-.972 1.944-1.458 3.403-1.458l197.85-19.445c1.458 0 2.431 0 3.403.972.972.486 1.944 1.458 2.917 2.431.486.972.972 2.431.972 3.403 0 1.458-.486 2.431-.972 3.889l-72.431 128.821c-.486.972-.972 1.458-1.944 2.431-.972.486-1.944.972-2.917.972zm-108.891-110.834 106.946 93.334 61.737-109.862zm-16.527 1.458h-.972c-1.458 0-2.917-.972-3.889-2.431s-1.458-2.917-1.944-4.375l-9.236-251.323c0-.972 0-1.944.486-2.917s.972-1.944 1.944-2.431l2.917-1.458c.972-.486 1.945 0 3.403 0l85.557 26.25c.972.486 1.458.486 2.431 1.458.972.486 1.458 1.458 1.944 2.431.486.972.486 1.945.486 2.917s0 1.945-.486 2.917l-76.32 225.072c-.486 1.458-1.458 2.431-2.431 3.403-.974.001-2.432.487-3.89.487m-1.945-248.406 7.292 205.141 62.223-183.266zm1.945 248.406c-.972 0-1.945 0-2.917-.486s-1.458-.972-2.431-1.944c-.486-.972-.972-1.945-1.458-3.403 0-.972 0-2.431.486-3.403l74.376-217.781-79.237-23.82c-1.458-.486-2.431-.972-3.403-1.945l-70.487-83.612c-.972-1.458-1.458-2.917-1.458-4.375 0-1.944.486-3.403 1.458-4.375.972-1.458 2.431-1.944 4.375-2.431 1.458 0 3.403 0 4.375.972l156.53 110.349c.972.972 1.945 1.944 2.431 3.403l121.043 204.169c.486.972.972 2.431.972 3.403 0 1.458 0 2.431-.486 3.403s-1.458 1.945-2.431 2.431l-2.917 1.458-198.336 19.445zm78.265-215.35-68.543 200.766 176.947-17.5zm-83.613-48.611 42.778 13.125-77.779-54.931zm-87.987 57.847c-1.458 0-2.43-.486-3.889-1.458-.972-.486-1.945-1.458-2.431-2.917-.486-.972-.972-2.431-.486-3.889l13.611-128.821c0-1.458.486-2.917 1.458-3.889s1.945-1.944 2.917-2.431c1.458-.486 2.431-.486 3.889 0s2.431.972 3.403 2.431l70.487 83.612c.486.972 1.458 1.944 1.458 2.917v3.403c0 .972-.486 1.944-.972 2.917-.486.972-1.458 1.458-2.431 1.944l-83.612 45.209c-.971.486-1.944.972-3.402.972m18.472-119.584-10.695 100.14 65.14-34.514zm-437.991 381.115h-.486l-308.198-35.973c-1.458 0-2.431-.486-3.403-1.458s-1.944-1.944-1.944-2.917l-45.695-129.307c-.486-.972-.486-1.944-.486-2.917s0-1.945.486-2.917.972-1.945 1.944-2.431l2.917-1.458 229.933-41.32c1.458 0 2.917 0 3.889.486 1.458.486 2.431 1.458 2.917 2.917l124.446 205.628c.486.972.972 2.431.972 3.403 0 1.458-.486 2.431-.972 3.403s-1.458 1.944-2.431 2.431c-.972.486-1.944.972-3.403.972zm-303.337-50.07 289.726 34.028-114.238-189.1-217.294 38.889zm303.337 50.07c-.972 0-2.431-.486-3.403-.972s-1.944-1.458-2.431-2.431l-123.96-206.114c-.486-.972-.972-1.945-.972-2.917v-2.917l40.348-141.946c.486-1.458.972-2.431 1.944-2.917.972-.972 1.944-1.458 2.917-1.944 1.458-.486 2.431-.486 3.403 0s1.944.972 2.917 1.944l111.807 117.154c.972.972 1.458 1.458 1.458 2.917.486.972.486 1.945.486 2.917l-28.195 230.419c0 1.458-.972 2.917-1.458 3.889-.972.972-1.944 1.944-3.403 1.944zm-117.154-214.377 112.293 186.183 25.278-207.572-101.112-106.46zm-237.225 49.098c-.972 0-1.944 0-2.917-.486-.972-.486-1.944-1.458-2.431-1.944-.486-.972-.972-1.944-.972-2.917s0-1.944.486-3.403l37.431-114.237c0-.972.972-1.945 1.458-2.917.972-.972 1.458-1.458 2.917-1.458l232.85-69.029c1.458-.486 2.431-.486 3.403 0 .972 0 2.431.972 2.917 1.944.972.972 1.458 1.944 1.458 2.917v3.403l-40.348 142.432c-.486 1.458-.972 2.431-1.944 3.403s-1.944 1.458-3.403 1.458l-229.933 40.834zm42.778-115.21-32.57 99.654 214.378-38.403 35.973-125.904zm-5.347 1.458c-.972 0-2.431-.486-2.917-.972-.972-.486-1.944-1.458-2.431-2.431l-82.64-126.877c-.972-.972-.972-2.431-.972-3.889s.486-2.917.972-3.889 1.458-1.944 2.917-2.431c1.458-.486 2.431-.972 3.889-.486l315.976 57.362c1.458.486 2.917.972 3.889 2.431.972 1.458 1.458 2.917 1.944 4.375 0 1.458-.486 2.917-1.458 4.375s-1.944 2.431-3.889 2.431l-233.336 69.029c-.486.972-1.458.972-1.944.972m-68.543-123.96 71.459 108.89 200.28-59.792c.001 0-271.739-49.098-271.739-49.098zm30.625 241.601c-1.458 0-2.917-.486-3.889-1.944-.972-.972-1.944-2.431-2.431-3.889l-44.723-244.517c0-1.458 0-2.917.972-4.375.486-1.458 1.944-2.431 3.403-2.917 1.458-.486 2.917-.486 4.375 0s2.917 1.458 3.403 2.917l83.126 126.877c.486.972.972 1.944.972 2.917s0 1.944-.486 3.403l-38.403 116.668c-.486 1.458-1.458 2.917-2.431 3.403-.971.97-2.429 1.457-3.888 1.457m-32.083-219.725 34.514 185.211 28.681-88.959zm-94.793 328.615c-1.458 0-2.431-.486-3.403-.972-.972-.972-1.944-1.945-2.431-3.403-.486-1.458-.486-2.917 0-4.375l82.154-353.893c.486-1.458.972-2.917 2.431-3.889s2.917-1.458 4.375-1.458 2.917.486 4.375 1.458c.972.972 1.944 2.431 2.431 3.889l43.264 245.003c0 1.458 0 2.431-.486 3.889-.486.972-.972 2.431-1.944 2.917l-126.391 109.376c-.972.972-2.917 1.458-4.375 1.458m81.181-327.157-70 301.879 108.404-93.335zm1150.154 2021.761c-1.458 0-2.917-.486-4.375-1.458l-288.267-236.253c-.486-.486-1.458-1.458-1.944-2.431-.486-.972-.486-1.944-.486-2.917l-9.236-187.641c0-.972 0-1.944.486-2.917.486-.972.972-1.944 1.458-2.431.972-.486 1.458-.972 2.431-1.458.972-.486 1.945-.486 2.917-.486l199.794 28.681c1.458 0 2.431.972 3.403 1.458.972.972 1.945 2.431 1.945 3.403l97.709 395.213c.486 1.458.486 2.917 0 4.375s-1.458 2.431-2.431 3.403c-.488.973-1.946 1.459-3.404 1.459m-281.462-246.947 269.795 221.669-91.39-370.907-187.155-27.223zm-153.127 103.542c-.972 0-1.944 0-2.917-.972-.972-.486-1.458-.972-2.43-1.944l-1.458-2.917v-3.403l56.389-217.78c.486-1.458.972-2.917 2.431-3.889l81.668-62.709c.972-.972 1.944-1.458 3.403-1.458.972 0 2.43 0 3.403.486s1.944 1.458 2.917 2.431c.486.972.972 2.431.972 3.403l9.236 187.641c0 1.458 0 2.431-.486 3.403s-1.458 1.944-2.431 2.917l-146.807 92.848c-1.459 1.458-2.918 1.944-3.89 1.943m61.737-220.696-51.042 198.822 128.821-81.668-8.264-170.627zm372.852 364.101h-1.945l-434.589-143.405c-1.458-.486-2.431-.972-2.917-1.944s-1.458-2.431-1.458-3.889 0-2.917.486-3.889 1.458-1.944 2.431-2.917l146.321-92.362c.972-.972 2.43-.972 3.889-.972 1.458 0 2.917.486 3.889.972l287.781 236.253c1.458.972 1.944 2.431 2.431 3.889.486 1.458 0 3.403-.486 4.861-.486.972-1.458 1.944-2.43 2.431-.973.486-1.945.972-3.403.972m-418.061-153.127 385.005 127.849-255.211-209.516zm320.351-242.086h-.972l-199.794-28.681c-.972 0-1.945-.486-2.917-.972s-1.458-.972-1.945-1.944c-.486-.972-.972-1.944-.972-2.917v-2.917l11.667-47.639c0-.972.486-1.944 1.458-2.917l1.945-1.944c.972-.486 1.944-.486 2.917-.486.972 0 1.945 0 2.917.486l187.641 76.32c1.458.486 2.917 1.944 3.403 3.403.486 1.458.972 3.403.486 4.861s-.972 2.917-2.43 3.403c-.488.972-1.946 1.458-3.404 1.944m-191.044-41.806 135.627 19.445-127.363-51.528zm-89.932 75.834c-.972 0-1.945 0-2.917-.486s-1.458-.972-2.431-1.944c-.972-1.458-1.944-2.917-1.944-4.375 0-1.944.486-3.403 1.944-4.861l93.335-110.349c.972-.972 2.43-1.944 3.889-2.431 1.458 0 2.917 0 4.375.486 1.458.972 2.43 1.944 2.917 3.403.486 1.458.486 2.917.486 4.375l-11.667 48.126c-.486 1.458-1.458 2.917-2.431 3.889l-82.154 62.709c-.485.972-1.943 1.458-3.402 1.458m79.724-90.904-32.57 38.403 28.681-21.875zm-601.813 792.857h-2.431l-237.711-85.557c-.972-.486-1.944-.972-2.431-1.944l-205.628-214.864-278.059-100.626c-.972-.486-1.944-.972-2.431-1.458-.486-.486-1.458-1.458-1.458-2.431l-135.14-386.463-18.959-38.889-129.307-376.255c-.486-1.458-.486-2.917 0-4.375s1.458-2.917 2.431-3.403l125.418-102.571-20.417-330.074c0-1.458.486-2.917.972-4.375s1.944-1.944 2.917-2.917l179.863-76.807 34.028-355.838c0-.972.486-1.945.972-2.917s.972-1.458 1.944-2.431l433.616-307.712c1.458-.972 3.403-1.458 4.861-.972l313.546 57.362 195.419-112.779c1.458-.972 2.917-.972 4.861-.972l319.865 71.945c.972 0 1.458.486 2.43.972l155.56 110.351c.972.486 1.458 1.458 1.944 1.944l121.529 204.655c.486.972.972 2.431.972 3.403 0 1.458-.486 2.431-.972 3.403l-123.473 208.544c-.972 1.458-2.431 2.917-4.375 3.403l-317.921 74.862c-1.458.486-3.403 0-4.861-.486s-2.431-1.944-2.917-3.403l-65.626-167.224-197.364-36.459-147.78 60.765-213.405 125.418-16.041 319.379c0 1.458-.486 2.917-1.458 4.375l-149.724 185.697 179.377 289.24c.486.972.972 1.944.972 2.917v2.917l-41.806 139.516 119.585 141.46 378.685 61.251 258.614-64.654 91.876-107.918c.972-.972 2.431-1.458 3.403-1.944 1.458-.486 2.917 0 3.889 0l187.641 75.834c.972.486 1.945.972 2.431 1.944.972.972 1.458 1.944 1.458 2.917l97.71 394.727c.486 1.458 0 2.917-.486 4.375s-1.458 2.431-2.917 3.403l-372.366 215.836-251.323 74.376-171.599 20.417-106.46 31.598h-1.944v-.488zm-234.309-98.682 234.308 83.612 105.487-30.625 171.599-20.417 248.892-73.404 367.019-212.433-95.279-386.463-179.863-72.918-90.904 106.46c-.972.972-1.944 1.944-3.403 2.431l-262.503 66.112h-2.431l-382.574-62.223c-1.458-.486-2.917-.972-3.889-2.431l-123.474-145.835c-.972-.972-1.458-1.944-1.458-2.917v-3.403l41.806-140.002-178.891-291.184c-.972-.972-1.458-2.431-1.458-3.889s.486-2.917 1.458-4.375l151.183-187.64 16.042-321.323c0-.972.486-2.431.972-3.403s1.458-1.944 2.431-2.431l217.781-128.821 149.724-61.251c.972-.486 2.431-.486 3.403 0l202.711 37.431c.972 0 1.945.972 2.917 1.458.972.972 1.458 1.458 1.944 2.917l65.14 165.766 309.17-72.918 119.585-201.739-117.64-200.28-153.127-108.89-316.462-71.459-195.907 112.779c-1.458.486-2.917.972-4.375.972l-312.573-56.876-428.755 304.309-33.542 356.324c0 1.458-.486 2.431-1.458 3.403s-1.458 1.944-2.917 2.431l-178.891 76.807 20.903 328.615c0 .972 0 2.431-.486 3.403s-.972 1.944-1.944 2.431l-124.447 102.084 126.39 370.907 19.931 38.889 135.141 384.033 276.115 100.14c.972.486 1.944.972 2.431 1.944z"
        fill="#333" />
</svg>