<svg enable-background="new 0 0 2000 2000" viewBox="0 0 2000 2000"
    xmlns="http://www.w3.org/2000/svg">
    <path
        d="m1061.793 1982.406c-41.059 0-82.117 0-123.176 0-2.043-3.703-5.728-2.13-8.611-2.367-66.006-5.412-130.941-16.694-194.564-35.216-166.838-48.571-311.185-134.929-430.813-260.849-165.693-174.409-256.475-382.684-273.758-622.46-8.183-113.535 4.059-225.434 35.705-334.882 71.296-246.578 215.673-438.408 433.944-573.497 131.496-81.384 275.291-126.782 429.479-139.179 2.88-.232 6.57 1.336 8.619-2.362h123.176c1.563 3.03 4.481 1.869 6.833 2.041 32.965 2.414 65.802 6.094 98.299 12.045 228.295 41.807 420.742 148.637 569.943 326.338 200.786 239.139 274.899 515.288 221.84 823.254-34.087 197.846-122.648 369.783-263.51 513.071-172.133 175.098-381.573 272.215-626.574 292.017-2.353.191-5.27-.984-6.832 2.046zm-227.2-582.475c144.34 0 288.679.028 433.019-.07 8.631-.006 17.328-.526 25.881-1.658 41.034-5.432 77.356-23.032 111.055-45.803 57.501-38.852 102.401-88.836 124.423-155.686 39.713-120.552 77.754-241.653 116.797-362.427 8.828-27.31 16.202-54.589 14.834-83.737-4.304-91.763-65.874-135.682-136.038-135.851-294.772-.713-589.547-.276-884.32-.465-6.778-.004-9.335 2.284-11.315 8.473-18.659 58.308-37.647 116.511-56.556 174.739-4.22 12.995-4.25 12.988 9.468 12.988 259.811.001 519.623 0 779.434.003 11.57 0 11.722.065 8.1 11.282-40.084 124.146-80.293 248.253-120.165 372.467-2.491 7.761-6.019 10.077-14.07 10.07-261.094-.224-522.189-.146-783.283-.358-8.379-.007-12.058 2.219-14.705 10.624-18.201 57.78-37.1 115.339-55.791 172.965-4.035 12.44-4.065 12.444 8.666 12.444 148.189.001 296.378 0 444.566 0zm-248.133-301.389c76.644 0 153.289-.072 229.932.132 6.37.017 9.514-1.49 11.664-8.027 18.123-55.097 36.527-110.104 55.313-164.979 2.751-8.035 1.347-9.536-6.822-9.526-152.647.198-305.294.203-457.941-.03-7.395-.011-10.574 2.406-12.877 9.227-18.343 54.347-37.043 108.573-55.627 162.838-3.53 10.307-3.518 10.355 7.385 10.357 76.326.015 152.65.008 228.973.008z"
        fill="#1c75bb" />
</svg>