<svg enable-background="new 0 0 500 500" viewBox="0 0 500 500" xmlns="http://www.w3.org/2000/svg">
    <path
        d="m3.572 249.93c.757-137.196 109.283-246.479 245.927-246.929 136.606-.45 247.559 108.965 246.926 246.886-.639 139.106-110.89 243.727-242.425 245.346-141.114 1.738-248.77-109.391-250.428-245.303zm288.561-37.3c-7.78-6.132-14.103-11.858-21.131-16.523-28.879-19.169-60.509-22.065-91.799-9.384-42.5 17.225-60.913 52.816-64.115 96.735-.86 11.802 1.32 24.271 4.379 35.831 9.878 37.328 33.558 62.513 70.429 74.342 25.381 8.142 51.363 7.991 75.789-2.547 43.72-18.862 66.336-53.778 67.381-100.819 1.318-59.361.494-118.774.077-178.161-.041-5.844-2.56-12.458-5.952-17.297-4.448-6.347-14.902-7.757-21.849-4.85-8.619 3.606-13.19 10.016-13.2 19.419-.034 31.269-.01 62.538-.008 93.807 0 2.827-.001 5.654-.001 9.447z"
        fill="#1a9ed6" />
    <path
        d="m292.133 212.63c0-3.793 0-6.62 0-9.447-.002-31.269-.026-62.538.008-93.807.01-9.403 4.581-15.813 13.2-19.419 6.947-2.906 17.401-1.497 21.849 4.85 3.392 4.839 5.911 11.453 5.952 17.297.418 59.387 1.241 118.8-.077 178.161-1.044 47.04-23.66 81.957-67.381 100.819-24.425 10.538-50.407 10.689-75.789 2.547-36.871-11.828-60.551-37.013-70.429-74.342-3.059-11.561-5.24-24.029-4.379-35.831 3.202-43.919 21.615-79.51 64.115-96.735 31.29-12.682 62.92-9.785 91.799 9.384 7.029 4.665 13.352 10.391 21.132 16.523zm-71.298 150.056c31.75.008 52.449-13.112 65.067-37.9 8.218-16.143 9.904-33.499 6.527-51.882-8.574-46.674-58.803-71.494-101.015-49.468-27.433 14.314-42.697 49.181-35.844 82.117 6.459 31.042 33.67 58.532 65.265 57.133z"
        fill="#fff" />
    <path
        d="m220.835 362.686c-31.594 1.4-58.806-26.091-65.264-57.133-6.853-32.936 8.412-67.803 35.844-82.117 42.211-22.025 92.44 2.795 101.015 49.468 3.377 18.382 1.69 35.738-6.527 51.882-12.619 24.788-33.318 37.908-65.068 37.9z"
        fill="#1a9ed6" />
</svg>