<svg enable-background="new 1000 -1000 2500 2500" viewBox="1000 -1000 2500 2500"
    xmlns="http://www.w3.org/2000/svg">
    <path
        d="m1727.069-72.615h335.63v108.266h-335.63zm841.24 498.029h-787.107v400.595h786.016c109.346 0 204.622-90.946 204.622-201.383-2.16-111.541-92.014-200.316-203.531-199.212"
        fill="#014655" />
    <path
        d="m2250-976.673c-677.761 0-1226.673 548.912-1226.673 1226.673s548.912 1226.673 1226.673 1226.673 1226.673-548.911 1226.673-1226.673c1.08-677.761-548.924-1226.673-1226.673-1226.673zm40.063 546.753h584.645v119.098h-454.728v346.449h335.63v-108.242h-238.196v-119.122h368.112v346.462h-595.464zm-671.26 10.831h368.1v140.736h-368.1zm-10.831 227.364h465.547v-238.195h129.868v584.645h-595.415v-346.462zm987.398 1169.289h-976.567v-703.742h976.579c189.472 0 344.29 159.149 344.29 351.871s-154.842 351.859-344.302 351.859z"
        fill="#014655" />
    <path d="m1618.803-419.089h368.1v140.736h-368.1z" fill="#c39145" />
</svg>