<svg enable-background="new 0 0 500 500" viewBox="0 0 500 500" xmlns="http://www.w3.org/2000/svg">
    <path
        d="m252.5 0c-104.4.4-189 85-189.4 189.4 0 20.9 3.4 41.7 10 61.5 4.9 13.5 19.6 20.8 33.3 16.6 13.3-5.1 20.3-19.6 16.1-33.2-5.6-15.5-8.1-31.9-7.4-48.3 2.3-75.4 65.3-134.7 140.7-132.5 75.4 2.3 134.7 65.3 132.5 140.7-2.1 70.6-57.8 128-128.3 132.3 0 0-26.6 1.6-39.8 3.2-4.9.7-9.7 1.7-14.5 2.9-.7.7-1.8.7-2.5 0-.5-.6-.5-1.5 0-2.1l4.1-22.5 25-112.3c3-14-5.9-27.8-20-30.8-14-3-27.8 5.9-30.8 20 0 0-59.4 274.9-59.4 277.4-3.4 13.4 4.7 26.9 18 30.3.1 0 .3.1.4.1h1.4c13.3 3.5 27-4.6 30.4-17.9.1-.2.1-.4.2-.7 0-.4 0-.8 0-1.2.7-3.2 8.2-39.8 8.2-39.8 5.7-27.6 27.9-48.8 55.8-53 5.7-.9 29.8-2.5 29.8-2.5 104-10.4 180-103.1 169.6-207.2-9.4-94.9-88-167.9-183.4-170.4z"
        fill="#1e1e1e" />
    <path
        d="m264 436.7c-17.1-3.6-33.8 7.4-37.3 24.5 0 .2-.1.3-.1.5-3.7 17 7.1 33.7 24 37.4h.1.9c16.6 4 33.3-6.2 37.3-22.8 0-.1.1-.3.1-.4v-1.7c2.9-17.1-8-33.6-25-37.5z"
        fill="#e6007a" />
</svg>