<svg enable-background="new 0 0 2000 2000" viewBox="0 0 2000 2000"
    xmlns="http://www.w3.org/2000/svg">
    <path
        d="m1550.618 889.431c-181.574-80.491-363.148-160.982-545.247-241.706-190.096 80.063-379.788 159.956-575.677 242.458 193.235-294.146 382.254-581.875 571.064-869.285 13.858.838 15.794 12.421 20.581 19.952 176.764 278.08 353.232 556.348 529.677 834.63 1.728 2.726 2.614 5.986 3.893 8.997-1.609 1.496-3.039 3.147-4.291 4.954zm-542.05-117.004c-199.067 83.825-398.135 167.652-600.798 252.991 202.97 112.669 401.535 222.893 600.824 333.518 193.504-108.184 386.03-215.82 583.889-326.439-198.083-88.223-390.515-173.931-583.915-260.07zm563.052 414.666c-34.535 19.078-69.253 37.833-103.574 57.288-153.577 87.058-307.041 174.316-461.165 261.854-34.015-19.654-67.155-38.868-100.356-57.975-151.164-86.995-302.346-173.96-453.521-260.936-1.73 1.89-3.459 3.78-5.189 5.669 185.63 259.162 371.253 518.328 556.986 777.416 1.68 2.344 4.827 3.637 9.687 7.158 24.815-34.398 49.166-67.964 73.324-101.67 163.297-227.831 326.553-455.691 489.822-683.542-2.005-1.754-4.009-3.508-6.014-5.262zm-1118.618.232c-3.542-5.209-7.881-6.419-14.725-1.738 3.519 2.732 6.528 5.069 9.538 7.406 1.729-1.89 3.459-3.779 5.187-5.668zm1097.621-297.916c2.421.798 4.837 1.619 11.482 3.874-4.245-5.195-5.72-7.001-7.195-8.807-1.61 1.497-3.04 3.148-4.287 4.933zm26.997 302.941c.657-2.591 1.327-5.177 2.776-10.764-4.611 2.893-6.694 4.2-8.777 5.507 2.006 1.754 4.01 3.508 6.001 5.257z"
        fill="#669073" />
</svg>