<svg enable-background="new 0 0 500 500" viewBox="0 0 500 500" xmlns="http://www.w3.org/2000/svg">
    <path
        d="m344.609 226.372c-48.009 0-95.449 0-144.739 0 22.026 36.718 43.299 72.18 64.859 108.122-16.693 27.777-33.331 55.461-49.672 82.653-86.496 21.377-182.442-29.704-205.342-126.524-22.837-96.553 39.602-191.03 137.212-207.644 96.783-16.473 183.529 49.556 197.682 143.393zm-166.678 57.286c4.886.191 9.812-3.485 13.18-9.394 3.676-6.449 2.579-12.639-1.507-18.632-16.365-24.007-32.706-48.032-48.936-72.131-3.652-5.422-8.236-7.809-14.225-4.713-6.129 3.168-6.746 8.566-4.021 14.407 12.582 26.976 25.177 53.947 37.922 80.847 2.963 6.254 8.195 9.531 17.587 9.616zm212.755 138.062h52.25c17.548-29.166 34.986-58.149 52.461-87.195-17.8-29.603-35.351-58.791-52.496-87.306-17.741 0-34.441 0-52.171 0 17.708 29.573 34.925 58.325 52.288 87.321-17.392 28.975-34.627 57.685-52.332 87.18zm-102.015-87.157c-17.414 28.96-34.707 57.72-52.407 87.155h52.248c17.428-28.932 34.902-57.94 52.506-87.163-17.673-29.412-35.228-58.627-52.618-87.57-17.479 0-34.266 0-52.27 0 17.966 29.947 35.255 58.765 52.541 87.578zm24.896 87.044h52.222c17.27-28.717 34.694-57.69 52.391-87.119-17.614-29.302-35.154-58.483-52.56-87.438-17.431 0-34.172 0-52.214 0 17.704 29.53 34.923 58.251 52.442 87.474-17.472 29.105-34.576 57.594-52.281 87.083z"
        fill="#231e38" />
</svg>