<svg enable-background="new 0 0 181.6 181.6" viewBox="0 0 181.6 181.6"
    xmlns="http://www.w3.org/2000/svg">
    <path
        d="m25.2 151.5 4.6 4.6c20.3 8.5 40.6 17.1 61 25.5v-37l-38-15.7-15.7-38 15.7-38-27.6-22.8-25.2 60.7z"
        fill="#598282" />
    <path d="m90.8 0c-20.3 8.4-40.7 17-61 25.5l-4.6 4.6 27.6 22.7 38-15.7z" fill="#fbbb31" />
    <path d="m90.8 52.8-26.9 11.2-11.1 26.8 11.1 26.9 26.9 11.1z" fill="#598282" />
    <path
        d="m90.8 181.6c20.3-8.4 40.6-17 60.9-25.5l4.6-4.6 25.2-60.7-25.2-60.7-27.6 22.7 15.7 38-15.7 38-38 15.7v37.1z"
        fill="#326464" />
    <path d="m156.4 30.1-4.6-4.7c-20.4-8.4-40.7-16.9-61-25.4v37l38 15.7z" fill="#faaa00" />
    <path d="m90.8 128.8 26.9-11.1 11.1-26.9-11.1-26.8-26.9-11.2z" fill="#326464" />
</svg>