<svg enable-background="new -96 -1000 2500 2500" viewBox="-96 -1000 2500 2500"
    xmlns="http://www.w3.org/2000/svg">
    <path d="m887.554 442.398 706.772 751.788-686.569 573.144z" fill="#25968f"
        transform="translate(145.399 -398.705)" />
    <path d="m887.554 429.474 727.685-374.653-20.912 1126.441z" fill="#bddbd5"
        transform="translate(145.399 -403.784)" />
    <path d="m887.554-515.353 727.685 551.169-727.685 374.653z" fill="#edf6f1"
        transform="translate(145.399 -411.253)" />
    <path d="m378.976 35.816 491.622-551.169v925.822l20.204 1324.932-397.338-573.145z"
        fill="#6bb8a0" transform="translate(138.735 -411.253)" />
    <g fill="#fff">
        <path
            d="m903.93 1790.836-411.87-604.691-119.805-1144.163 509.344-570.664 753.914 571.018v10.279l-21.621 1146.645zm-373.945-618.869 381.742 551.169 664.238-553.296 20.205-1107.655-706.063-534.51-473.9 531.32z"
            transform="translate(138.462 -411.616)" />
        <path
            d="m887.596 1735.402-20.204-1323.869v-926.886h38.635v925.822l20.204 1323.869c0 .001-38.635 1.064-38.635 1.064z"
            transform="translate(145.137 -411.253)" />
        <path
            d="m1579.408 1194.816-724.849-771.282 760.294-387.413 17.723 35.445-714.216 363.665 689.05 731.938z"
            transform="translate(144.969 -404.029)" />
    </g>
    <path
        d="m906.851 1858.538c25.52 0 46.433-21.267 46.433-47.142s-20.912-47.142-46.433-47.142-46.433 21.267-46.433 47.142 20.913 47.142 46.433 47.142z"
        fill="#1c2634" transform="translate(145.043 -381.387)" />
    <path
        d="m906.584 1771.426c21.621 0 38.635 17.368 38.635 39.344s-17.014 39.344-38.635 39.344-38.635-17.368-38.635-39.344 17.014-39.344 38.635-39.344zm0-15.596c-30.128 0-54.231 24.457-54.231 54.94 0 30.837 24.103 54.94 54.231 54.94s54.231-24.457 54.231-54.94-24.811-54.94-54.231-54.94z"
        fill="#fff" transform="translate(144.938 -381.494)" />
    <path
        d="m1617.107 1265.627c25.52 0 46.433-21.267 46.433-47.142s-20.912-47.142-46.433-47.142c-25.52 0-46.433 21.267-46.433 47.142s20.913 47.142 46.433 47.142z"
        fill="#1c2634" transform="translate(154.352 -389.155)" />
    <path
        d="m1616.84 1178.869c21.621 0 38.635 17.368 38.635 39.344s-17.014 39.344-38.635 39.344-38.635-17.368-38.635-39.344c0-21.267 17.722-39.344 38.635-39.344zm0-15.95c-30.128 0-54.231 24.457-54.231 54.94 0 30.837 24.103 54.94 54.231 54.94s54.231-24.457 54.231-54.94-23.748-54.94-54.231-54.94z"
        fill="#fff" transform="translate(154.247 -389.262)" />
    <path
        d="m495.811 1265.627c25.52 0 46.433-21.267 46.433-47.142s-20.913-47.142-46.433-47.142-46.433 21.267-46.433 47.142 20.913 47.142 46.433 47.142z"
        fill="#1c2634" transform="translate(139.658 -389.155)" />
    <path
        d="m495.544 1178.869c21.621 0 38.635 17.368 38.635 39.344s-17.014 39.344-38.635 39.344-38.635-17.368-38.635-39.344c0-21.267 17.723-39.344 38.635-39.344zm0-15.95c-30.128 0-54.231 24.457-54.231 54.94 0 30.837 24.103 54.94 54.231 54.94s54.231-24.457 54.231-54.94c0-29.774-24.103-54.94-54.231-54.94z"
        fill="#fff" transform="translate(139.553 -389.262)" />
    <path
        d="m377.372 100.334c25.52 0 46.433-21.267 46.433-47.142s-20.912-47.141-46.433-47.141-46.432 21.267-46.432 47.142 20.912 47.141 46.432 47.141z"
        fill="#1c2634" transform="translate(138.105 -404.424)" />
    <path
        d="m377.105 13.576c21.621 0 38.635 17.368 38.635 39.344s-17.014 39.344-38.635 39.344-38.635-17.368-38.635-39.344 17.014-39.344 38.635-39.344zm0-15.95c-30.128 0-54.231 24.457-54.231 55.294s24.103 54.94 54.231 54.94 54.231-24.457 54.231-54.94c0-30.837-24.102-55.294-54.231-55.294z"
        fill="#fff" transform="translate(138 -404.531)" />
    <path
        d="m885.953 487.911c25.52 0 46.433-21.267 46.433-47.142s-20.913-47.142-46.433-47.142-46.433 21.267-46.433 47.142 20.913 47.142 46.433 47.142z"
        fill="#1c2634" transform="translate(144.77 -399.345)" />
    <path
        d="m885.686 401.153c21.621 0 38.635 17.368 38.635 39.344s-17.014 39.344-38.635 39.344-38.635-17.368-38.635-39.344c0-21.267 17.014-39.344 38.635-39.344zm0-15.596c-30.128 0-54.231 24.457-54.231 54.94 0 30.837 24.103 54.94 54.231 54.94s54.231-24.457 54.231-54.94c0-30.837-24.103-54.94-54.231-54.94z"
        fill="#fff" transform="translate(144.665 -399.452)" />
    <path
        d="m1638.742 100.334c25.52 0 46.433-21.267 46.433-47.142s-20.912-47.142-46.433-47.142-46.433 21.267-46.433 47.142 20.913 47.142 46.433 47.142z"
        fill="#1c2634" transform="translate(154.636 -404.424)" />
    <path
        d="m1638.475 13.576c21.621 0 38.635 17.368 38.635 39.344s-17.014 39.344-38.635 39.344-38.635-17.368-38.635-39.344 17.014-39.344 38.635-39.344zm0-15.95c-30.128 0-54.231 24.457-54.231 54.94 0 30.837 24.103 54.94 54.231 54.94s54.231-24.457 54.231-54.94-23.748-54.94-54.231-54.94z"
        fill="#fff" transform="translate(154.531 -404.531)" />
    <path
        d="m885.953-469.485c25.52 0 46.433-21.267 46.433-47.142s-20.913-47.496-46.433-47.496-46.433 21.267-46.433 47.142c0 25.874 20.913 47.496 46.433 47.496z"
        fill="#1c2634" transform="translate(144.77 -411.893)" />
    <path
        d="m885.686-556.598c21.621 0 38.635 17.368 38.635 39.344s-17.014 39.344-38.635 39.344-38.635-17.368-38.635-39.344 17.014-39.344 38.635-39.344zm0-15.595c-30.128 0-54.231 24.457-54.231 54.94 0 30.837 24.103 54.94 54.231 54.94s54.231-24.457 54.231-54.94-24.103-54.94-54.231-54.94z"
        fill="#fff" transform="translate(144.665 -412)" />
</svg>