<svg enable-background="new 1000 -1000 2500 2500" viewBox="1000 -1000 2500 2500"
    xmlns="http://www.w3.org/2000/svg">
    <g transform="matrix(2.66672 0 0 2.66672 -505.499 -542.37)">
        <path
            d="m1034.291-156.001 392.008 226.345 1.772 456.234-392.893 223.689-392.008-225.017-.886-452.248z"
            fill="#fff" stroke="#000" stroke-miterlimit="10" />
        <path d="m1036.507 749.824.886-452.691-392.894-224.13 392.894 223.688 389.35-223.245"
            fill="none" stroke="#e7e7e9" stroke-width="2" />
        <path
            d="m643.17 525.25-.886-452.248 392.008-229.003 392.008 226.345 1.772 456.234-392.893 223.689z"
            fill="none" stroke="#3fa0f1" stroke-width="5" />
        <g transform="matrix(.17895 .10258 0 .25978 219.278 150.083)">
            <path
                d="m2767.237-832.404-158.132-65.999v-41.194l158.132-65.556v49.61l-96.119 37.208 96.119 37.208z" />
            <path
                d="m3007.313-832.404 158.132-65.999v-41.194l-158.132-65.556v49.61l96.119 37.208-96.119 37.208z" />
            <path
                d="m2811.975-945.798h139.971c8.859 0 15.946 7.087 15.946 15.946v22.147c0 8.859-7.087 15.946-15.946 15.946h-139.971c-8.859 0-15.946-7.087-15.946-15.946v-22.147c0-8.859 7.529-15.946 15.946-15.946z" />
        </g>
        <g fill="#6f9dce">
            <path
                d="m690.122 236.45 225.46 129.34c2.215 1.329 3.987 4.429 3.987 7.087v10.63c0 2.658-1.772 3.543-3.987 2.215l-225.46-129.34c-2.215-1.329-3.987-4.429-3.987-7.087v-10.63c.002-2.658 1.773-3.544 3.987-2.215z" />
            <path
                d="m690.122 269.228 316.264 181.165c2.215 1.329 3.987 4.429 3.987 7.087v10.63c0 2.658-1.772 3.543-3.987 2.215l-316.264-181.164c-2.215-1.329-3.987-4.429-3.987-7.087v-10.63c.001-2.216 1.773-3.102 3.987-2.216z" />
            <path
                d="m690.122 300.677 316.264 181.165c2.215 1.329 3.987 4.429 3.987 7.087v10.63c0 2.658-1.772 3.543-3.987 2.215l-316.264-181.164c-2.215-1.329-3.987-4.429-3.987-7.087v-10.63c.002-2.216 1.773-3.545 3.987-2.216z" />
            <path
                d="m690.122 332.127 136.871 78.402c2.215 1.329 3.987 4.429 3.987 7.087v10.63c0 2.658-1.772 3.543-3.987 2.215l-136.871-78.402c-2.215-1.329-3.987-4.429-3.987-7.087v-10.63c.001-2.659 1.773-3.544 3.987-2.215z" />
            <path
                d="m690.122 363.132 268.425 153.703c2.215 1.329 3.987 4.429 3.987 7.087v10.63c0 2.658-1.771 3.543-3.987 2.215l-268.425-153.702c-2.215-1.329-3.987-4.429-3.987-7.087v-10.63c.001-2.216 1.773-3.101 3.987-2.216z" />
            <path
                d="m690.122 394.581 49.167 27.905c2.215 1.329 3.987 4.429 3.987 7.087v10.63c0 2.658-1.772 3.543-3.987 2.215l-49.167-27.905c-2.215-1.329-3.987-4.429-3.987-7.087v-10.63c.001-2.215 1.773-3.544 3.987-2.215z" />
        </g>
        <g transform="matrix(.17895 .10258 0 .25978 221.119 151.138)">
            <path
                d="m2771.512 278.058-172.75-71.757v-45.181l172.75-71.757v54.04l-104.978 40.308 104.978 40.751z" />
            <path
                d="m2964.636 278.058 172.749-71.757v-45.181l-172.749-71.757v54.04l104.978 40.308-104.978 40.751z" />
            <text font-family="Arial-Black" font-size="215.6262"
                transform="matrix(1.4435 0 0 1.4435 2823.6138 295.1736)">/
            </text>
        </g>
        <g transform="matrix(.4455864044 -.2508483374 .004381295 .466823614 333.4729975 220.80644155)">
            <path
                d="m1869.156 1410.966h309.619c29.678 0 54.04 23.919 54.04 54.04v205.97c0 29.678-23.919 54.04-54.04 54.04h-309.619c-29.678 0-54.04-23.919-54.04-54.04v-205.97c0-30.121 23.919-54.04 54.04-54.04z"
                fill="#3fa0f1" />
            <path
                d="m2009.57 1261.25h28.791c58.912 0 106.75 47.838 106.75 106.75v126.682c0 58.912-47.838 106.749-106.75 106.749h-28.791c-58.912 0-106.751-47.838-106.751-106.749v-126.682c0-58.911 47.839-106.75 106.751-106.75z"
                fill="none" stroke="#3fa0f1" stroke-linejoin="bevel" stroke-width="17" />
            <g fill="#2c6cea">
                <path
                    d="m1992.525 1504.591c21.459-30.965 53.687-45.788 71.985-33.107 18.297 12.68 15.735 48.062-5.724 79.026s-53.687 45.788-71.985 33.107c-18.298-12.68-15.735-48.062 5.724-79.026z" />
                <path
                    d="m2013.556 1529.232h24.362c6.201 0 11.074 4.872 11.074 11.074v70.871c0 6.201-4.872 11.074-11.074 11.074h-24.362c-6.201 0-11.074-4.872-11.074-11.074v-70.871c0-6.201 4.872-11.074 11.074-11.074z" />
            </g>
        </g>
        <g transform="matrix(.85395 .52036 -.9448 .5953 0 6)">
            <path
                d="m585.911-501.058c-7.973 1.772-15.946 2.658-24.362 2.658-24.362 0-36.765-7.973-36.765-23.476v-41.637c0-16.832 12.403-25.248 36.765-25.248 7.972 0 15.946.886 23.919 2.658v9.745c-8.416-2.215-16.389-3.1-23.476-3.1-3.543 0-6.201.443-8.859.886-2.658.444-5.316.886-7.53 2.215-2.658.886-4.429 2.658-5.758 4.872s-2.215 4.872-2.215 8.416v40.751c0 10.188 8.416 15.061 25.248 15.061 7.087 0 15.06-.886 23.476-3.1z" />
            <path
                d="m658.554-499.729h-12.403v-46.953c0-1.772 0-3.1-.443-3.987-.443-.886-.886-2.215-1.772-3.1-.886-1.329-2.215-2.215-4.429-2.658-1.772-.443-4.429-.886-7.53-.886-7.53 0-12.403.886-14.617 2.215-2.215 1.772-3.543 4.429-3.543 8.416v46.952h-11.959v-94.348h11.959v37.208c1.329-6.201 8.416-9.301 21.262-9.301 8.416 0 14.617 1.772 17.717 4.872 3.101 3.1 4.872 7.53 4.872 14.174v47.395z" />
            <path
                d="m730.754-499.729h-11.517v-6.201c-.886 4.872-7.53 7.53-19.49 7.53-8.859 0-15.06-1.329-18.604-3.987-3.543-2.658-5.316-8.416-5.316-16.832 0-7.087 1.772-12.403 4.872-15.061 3.101-2.658 9.302-3.987 18.604-3.987h19.49v-10.188c0-3.543-1.329-6.201-3.543-7.087-2.215-1.329-6.201-1.772-12.403-1.772-6.645 0-14.174.443-22.147 1.772v-8.859c8.859-.886 16.832-1.329 23.919-1.329 11.074 0 18.161 1.329 21.262 3.987 3.1 2.658 4.872 7.973 4.872 16.389zm-11.959-13.288v-17.717h-18.604c-5.758 0-8.859.886-10.63 2.215-1.329 1.329-2.215 4.872-2.215 9.745 0 4.429.886 7.973 2.215 9.745s4.872 2.658 9.302 2.658h7.973c1.772 0 3.543-.443 5.316-.886 1.772-.443 3.543-1.329 4.429-2.215 1.328-.888 2.214-1.773 2.214-3.545z" />
            <path d="m763.975-575.915h-11.959v-12.845h11.959zm0 76.186h-11.959v-65.113h11.959z" />
            <path
                d="m841.048-499.729h-11.959v-46.953c0-1.772 0-3.1-.443-3.987-.443-.886-.886-2.215-1.771-3.1-.886-1.329-2.215-2.215-4.429-2.658-1.772-.443-4.429-.886-7.53-.886-7.087 0-11.959.886-14.174 2.215s-3.543 4.429-3.543 8.416v46.952h-11.959v-65.113h11.959v7.973c1.329-6.201 8.416-9.301 21.262-9.301 8.416 0 14.617 1.772 17.718 4.872 3.1 3.101 4.872 7.53 4.872 14.174z" />
            <path d="m583.253-391.65h-55.811v-87.26h12.845v78.402h42.966z" />
            <path d="m608.501-467.837h-11.959v-12.845h11.959zm0 76.187h-11.959v-65.113h11.959z" />
            <path
                d="m685.574-391.65h-11.959v-46.953c0-1.772 0-3.1-.443-3.987-.443-.886-.886-2.215-1.772-3.1-.886-1.329-2.215-2.215-4.429-2.658-1.772-.443-4.429-.886-7.53-.886-7.087 0-11.959.886-14.174 2.215s-3.543 4.429-3.543 8.416v46.953h-11.962v-65.113h11.959v7.973c1.329-6.201 8.416-9.301 21.262-9.301 8.416 0 14.617 1.772 17.718 4.872 3.1 3.1 4.872 7.53 4.872 14.174z" />
            <path
                d="m764.861-391.65h-15.06l-23.919-28.791-7.53 7.53-1.772-14.617 30.12-30.12 15.946.886-28.349 29.678zm-46.51 0h-11.959v-94.348h11.959z" />
        </g>
    </g>
</svg>