<svg enable-background="new 1000 -1000 2500 2500" viewBox="1000 -1000 2500 2500"
    xmlns="http://www.w3.org/2000/svg">
    <path
        d="m3474.023 250c0 675.832-548.191 1224.023-1224.023 1224.023s-1224.023-548.191-1224.023-1224.023 548.191-1224.023 1224.023-1224.023 1224.023 548.191 1224.023 1224.023z"
        fill="#3c3c3c" />
    <path
        d="m2254.286-591.575c254.33 351.49 506.279 704.885 760.609 1056.851-254.013 208.131-507.231 416.898-759.656 626.3-257.188-208.608-512.947-418.168-770.134-626.3 257.187-351.49 513.581-703.774 769.181-1056.851zm-451.507 1015.891c111.924 90.492 222.896 182.413 335.297 271.952.476-244.328.953-489.133-.476-733.461-110.02 154.789-223.849 307.197-334.821 461.509zm568.194-457.699c-.476 242.9-.476 485.799 0 728.698 108.59-91.921 219.086-180.508 328.153-271.952-109.543-151.931-219.562-303.862-328.153-456.746z"
        fill="#fff" />
</svg>