<svg enable-background="new 0 0 2000 2000" viewBox="0 0 2000 2000"
    xmlns="http://www.w3.org/2000/svg">
    <path
        d="m23.531 1046.938c0-36.536 0-73.071 0-109.607 2.833-2.36 1.929-5.698 2.172-8.678 4.504-55.346 12.536-110.144 26.211-164.002 48.005-189.075 143.404-350.1 286.428-482.807 84.474-78.38 180.166-139.439 286.405-183.868 86.012-35.97 175.408-59.009 268.18-69.067 15.587-1.69 31.521-.962 46.755-5.659h107.539 2.068 6.204c2.284 2.023 5.119 1.704 7.847 1.856 41.309 2.302 82.34 7.217 122.864 15.397 242.257 48.898 440.685 170.093 590.91 366.19 153.414 200.26 217.138 428.052 197.01 679.419-6.049 75.543-21.075 149.298-45.081 221.095-57.139 170.891-153.426 315.988-290.153 433.433-172.07 147.805-372.279 225.86-598.62 236.454-70.352 3.293-140.438-1.622-209.869-14.062-190.263-34.09-356.178-117.274-497.568-248.768-99.193-92.251-175.519-201.056-229.427-325.408-38.901-89.735-63.631-183.224-74.192-280.519-1.922-17.704-1.638-35.656-5.681-53.127 0-2.068 0-4.136 0-6.204-.002-.689-.002-1.378-.002-2.068zm1357.142 429.587c14.173-67.549 28.329-135.013 42.873-204.333-176.103 0-350.205 0-524.955 0 .461-3.914.563-6.291 1.039-8.591 6.599-31.94 13.224-63.875 19.893-95.8 12.494-59.802 25.066-119.588 37.463-179.41 1.178-5.685 3.575-9.996 8.462-13.285 23.004-15.478 45.951-31.042 68.81-46.733 75.651-51.929 151.214-103.988 226.966-155.77 5.649-3.861 8.335-8.425 9.661-14.862 7.681-37.301 15.693-74.535 23.468-111.817 3.32-15.919 6.341-31.901 9.498-47.854-.721-.476-1.441-.952-2.161-1.428-101.474 69.874-202.947 139.748-306.896 211.326 29.635-141.587 58.629-280.113 87.841-419.681-79.737 0-158.097 0-236.248 0-4.426 4.623-3.643 10.505-4.75 15.763-41.072 195.056-82.111 390.119-122.936 585.227-1.471 7.029-4.637 11.557-10.463 15.503-38.51 26.081-76.809 52.476-115.228 78.693-4.397 3.001-7.87 6.104-8.887 11.898-8.693 49.497-17.649 98.948-26.445 148.427-.498 2.8-1.869 5.934 1.588 9.216 39.299-26.737 78.604-53.48 117.91-80.222.811.632 1.622 1.264 2.432 1.896-20.811 100.277-41.622 200.554-62.641 301.836 254.949.001 508.721.001 763.706.001z"
        fill="#b4b4b4" />
</svg>