<svg enable-background="new 0 0 500 500" viewBox="0 0 500 500" xmlns="http://www.w3.org/2000/svg">
    <path
        d="m353.336 104.736c-40.529 0-77.141 16.749-103.311 43.694 25.187 25.934 40.703 61.312 40.703 100.32 0-34.578 28.031-62.608 62.608-62.608 34.578 0 62.608 28.031 62.608 62.608s-28.031 62.608-62.608 62.608c-34.578 0-62.608-28.031-62.608-62.608 0 39.007-15.515 74.386-40.703 100.32 26.17 26.945 62.782 43.694 103.311 43.694 79.537 0 144.014-64.477 144.014-144.014s-64.477-144.014-144.014-144.014z"
        fill="#00a7e7" />
    <path
        d="m146.714 311.359c-34.578 0-62.608-28.031-62.608-62.608s28.031-62.608 62.608-62.608c34.578 0 62.608 28.031 62.608 62.608 0-39.007 15.515-74.386 40.703-100.32-26.17-26.945-62.782-43.694-103.311-43.694-79.537-.001-144.014 64.476-144.014 144.013s64.477 144.014 144.014 144.014c40.529 0 77.141-16.749 103.311-43.694-25.187-25.934-40.703-61.312-40.703-100.32 0 34.578-28.03 62.609-62.608 62.609z"
        fill="#db1157" />
    <path
        d="m250.025 148.43c-25.187 25.934-40.703 61.312-40.703 100.32s15.515 74.386 40.703 100.32c25.187-25.934 40.703-61.312 40.703-100.32s-15.515-74.386-40.703-100.32z"
        fill="#1f3364" />
</svg>