<svg enable-background="new 0 0 500 500" viewBox="0 0 500 500" xmlns="http://www.w3.org/2000/svg">
    <path
        d="m223.1 223.1c17.7 4.3 36.2 4.3 53.8 0 10.1-41 42.1-72.9 83-83 14.8-60.7-22.3-122-83.1-136.8-60.7-14.8-122 22.3-136.8 83.1-4.3 17.7-4.3 36.1 0 53.8 41 9.9 73 41.9 83.1 82.9z"
        fill="#7abdf7" />
    <path
        d="m276.9 276.9c-17.7-4.3-36.2-4.3-53.8 0-10.1 41-42.1 72.9-83 83-14.8 60.7 22.3 122 83.1 136.8 60.7 14.8 122-22.3 136.8-83.1 4.3-17.7 4.3-36.1 0-53.8-41-10-73-41.9-83.1-82.9z"
        fill="#0d74f5" />
    <path
        d="m386.9 136.8c-9.1 0-18.1 1.1-26.9 3.2-10.1 41-42 72.9-83 83-4.3 17.7-4.3 36.2 0 53.8 41 10.1 72.9 42.1 83 83 60.7 14.8 122-22.4 136.8-83.1s-22.4-122-83.1-136.8c-8.8-2-17.8-3.1-26.8-3.1z"
        fill="#4494f7" />
    <path
        d="m223.1 276.9c4.3-17.7 4.3-36.2 0-53.8-41-10.1-72.9-42-83-83-60.7-14.8-122 22.3-136.8 83.1s22.3 122 83.1 136.8c17.7 4.3 36.1 4.3 53.8 0 9.9-41 41.9-73 82.9-83.1z"
        fill="#005cf4" />
    <path d="m276.9 223.1c41-10.1 72.9-42.1 83-83-40.9 10.1-72.9 42-83 83z" fill="#186ef9" />
    <path d="m276.9 276.9c10.1 41 42 72.9 83 83-10-40.9-42-72.9-83-83z" fill="#0246f2" />
    <path d="m223.1 223.1c-10.1-41-42.1-72.9-83-83 10.1 40.9 42 72.9 83 83z" fill="#0046f8" />
    <path d="m223.1 276.9c-41 10.1-72.9 42.1-83 83 40.9-10.1 72.9-42 83-83z" fill="#0729f1" />
    <path
        d="m223.1 223.1c17.7 4.3 36.2 4.3 53.8 0 10.1-41 42.1-72.9 83-83 14.8-60.7-22.3-122-83.1-136.8-60.7-14.8-122 22.3-136.8 83.1-4.3 17.7-4.3 36.1 0 53.8 41 9.9 73 41.9 83.1 82.9z"
        fill="#7abdf7" />
    <path
        d="m276.9 276.9c-17.7-4.3-36.2-4.3-53.8 0-10.1 41-42.1 72.9-83 83-14.8 60.7 22.3 122 83.1 136.8 60.7 14.8 122-22.3 136.8-83.1 4.3-17.7 4.3-36.1 0-53.8-41-10-73-41.9-83.1-82.9z"
        fill="#0d74f5" />
    <path
        d="m386.9 136.8c-9.1 0-18.1 1.1-26.9 3.2-10.1 41-42 72.9-83 83-4.3 17.7-4.3 36.2 0 53.8 41 10.1 72.9 42.1 83 83 60.7 14.8 122-22.4 136.8-83.1s-22.4-122-83.1-136.8c-8.8-2-17.8-3.1-26.8-3.1z"
        fill="#4494f7" />
    <path
        d="m223.1 276.9c4.3-17.7 4.3-36.2 0-53.8-41-10.1-72.9-42-83-83-60.7-14.8-122 22.3-136.8 83.1s22.3 122 83.1 136.8c17.7 4.3 36.1 4.3 53.8 0 9.9-41 41.9-73 82.9-83.1z"
        fill="#005cf4" />
    <path d="m276.9 223.1c41-10.1 72.9-42.1 83-83-40.9 10.1-72.9 42-83 83z" fill="#186ef9" />
    <path d="m276.9 276.9c10.1 41 42 72.9 83 83-10-40.9-42-72.9-83-83z" fill="#0246f2" />
    <path d="m223.1 223.1c-10.1-41-42.1-72.9-83-83 10.1 40.9 42 72.9 83 83z" fill="#0046f8" />
    <path d="m223.1 276.9c-41 10.1-72.9 42.1-83 83 40.9-10.1 72.9-42 83-83z" fill="#0729f1" />
</svg>