<svg enable-background="new 1000 -1000 2500 2500" viewBox="1000 -1000 2500 2500"
    xmlns="http://www.w3.org/2000/svg">
    <circle cx="2250" cy="250" fill="#1a53f0" r="1219.725" />
    <path
        d="m2009.958 415.199c-155.771 0-282.049 126.644-282.049 282.866s126.29 282.866 282.061 282.866 282.061-126.644 282.061-282.866-126.278-282.866-282.061-282.866zm0 480.17c-108.555 0-196.632-88.284-196.632-197.205s88.04-197.205 196.632-197.205 196.644 88.284 196.644 197.205c-.183 108.823-88.113 197.07-196.644 197.205zm602.374-1083.555c-155.771 0-282.061 126.644-282.061 282.866s126.29 282.866 282.061 282.866 282.061-126.644 282.061-282.866-126.266-282.879-282.049-282.879zm0 480.169c-108.555 0-196.632-88.284-196.632-197.205s88.003-197.205 196.644-197.205 196.644 88.284 196.644 197.205c-.183 108.873-88.174 197.01-196.644 197.193zm-602.374-480.181c-134.279-.085-250.044 94.76-276.731 226.747-26.688 131.986 43.068 264.546 166.712 316.958 144.002 60.485 309.772-7.22 370.256-151.222 43.984-104.717 21.053-225.587-58.226-306.919h79.977v-85.564zm196.657 282.866c0 108.909-88.04 197.205-196.644 197.205s-196.632-88.296-196.632-197.205 88.028-197.169 196.62-197.169 196.559 88.32 196.754 197.205h-.097v-.036z"
        fill="#fff" />
</svg>