<svg enable-background="new 0 0 500 500" viewBox="0 0 500 500" xmlns="http://www.w3.org/2000/svg">
    <path
        d="m285.782 7.254c53.234 8.019 99.45 31.444 137.301 69.812 99.598 100.962 94.78 261.786-12.235 355.388-69.501 60.789-150.677 78.354-238.648 48.574-89.134-30.174-144.191-93.692-163.104-185.723-6.837-33.268-5.602-61.972-.588-88.065 19.89-103.508 96.919-172.902 198.649-198.738 21.342-5.421 56.528-4.577 78.625-1.248zm-110.032 158.881c10.686 16.811 181.752 186.336 190.244 189.566.283-2.515.781-4.895.783-7.277.034-35.071 1.434-70.216-.374-105.194-2.271-43.906-24.347-76.742-64.27-95.346-40.301-18.78-79.328-13.865-115.701 11.811-3.652 2.579-7.669 4.639-10.682 6.44zm-42.722-21.472c-.087.47-.869 2.723-.872 4.978-.048 35.886-1.679 71.873.464 107.633 2.596 43.322 24.942 75.683 64.493 93.923 39.904 18.403 78.63 13.746 114.603-11.614 3.78-2.665 6.71-6.535 8.146-7.965-63.024-63.064-125.054-125.134-186.834-186.955z"
        fill="#47a3be" />
    <g fill="#fff">
        <path
            d="m175.75 166.135c3.013-1.801 7.03-3.861 10.682-6.439 36.373-25.676 75.4-30.591 115.701-11.811 39.923 18.604 61.999 51.439 64.27 95.346 1.809 34.978.409 70.123.374 105.194-.002 2.381-.5 4.762-.783 7.277-8.492-3.231-179.558-172.757-190.244-189.567z" />
        <path
            d="m133.028 144.663c61.78 61.82 123.81 123.891 186.832 186.955-1.436 1.43-4.366 5.3-8.146 7.965-35.973 25.359-74.698 30.016-114.603 11.614-39.55-18.24-61.896-50.601-64.493-93.923-2.143-35.76-.512-71.747-.464-107.633.004-2.254.786-4.508.874-4.978z" />
    </g>
</svg>