<svg enable-background="new 0 0 500 500" viewBox="0 0 500 500" xmlns="http://www.w3.org/2000/svg">
    <path
        d="m160.9 269.6c-8.7 0-17.3-.3-26 .1-19 .8-37.8 3-56 8.8-3.7 1.2-7.5 2.6-10.7 4.7-10.9 7.3-11.6 13.9-5.4 24.8 2.5 4.4 6.2 8.1 9.4 12.1 3.3 4.1 4 8.3 1.9 11.5-2.3 3.5-6.7 4.8-11.7 3.7-11.9-2.7-21.7-9-30.3-17.3-15.7-14.9-24.8-33.4-27.5-54.6-2.8-22.1 3.9-42.1 17.6-59.5 10.8-13.6 23.8-24.7 38.4-34.3 22.7-15 47.3-25.9 72.9-34.4 24.9-8.3 50.5-14 76.5-18.2 29.5-4.7 59.2-7.2 89-6.7 13.4.2 26.8 2 40.1 3.4 25 2.6 49 9 71.6 20.2 18.1 9 34.3 20.5 48 35.3 16.8 18.1 27.4 39.4 32.2 63.7 2.7 14 4.1 28.1 3.4 42.2-1.2 21.6-5.4 42.6-18.3 60.5-15.8 21.9-37.1 37-61.8 47.6-19.7 8.5-40.3 13.6-61.7 16-22.1 2.5-44.2 2.1-66.3.9-35.6-2-70.2-9.1-104.1-19.7-24.8-7.8-49-17.5-71.6-30.6-2.2-1.3-4.8-3.2-5.4-5.3-1.6-5.2-.3-9.2 6.8-9.6 13.7-.8 27.4-1.5 41.1-2.8 15.2-1.4 30.4-3 45.5-5.2 22.4-3.4 44.8-7.2 67.1-11.5 8.5-1.6 16.6-5 24.8-7.8 4.2-1.4 8.1-3.4 8.3-8.8.1-5.6-2.6-9.1-7.4-11.8-11.6-6.4-24.2-9.4-37.1-11.1-14.5-1.9-29-4.3-43.6-5-16.5-1-49.7-1-49.7-1.3zm-44.5 68.8c0 .2-.1.4-.1.5 1.2.4 2.4.9 3.7 1.2 17.9 3.6 35.7 7.7 53.7 10.4 15.8 2.4 31.9 4 47.8 4.3 19 .4 38.1-.5 57-1.7 12.3-.7 24.6-2.2 36.7-4.5 23.6-4.5 46.8-10.8 68.8-20.8 28.9-13.1 54.4-30.2 71.6-57.8 6.4-10.3 10.8-21.4 13.1-33.3 2.6-13.4 2.7-27 0-40.4-1-5-1.6-10.9-4.5-14.7-19.8-26-46.3-42.9-76.7-53.7-30.2-10.7-61.8-13.8-93.5-14.1-16.4-.2-32.8.9-49.1 2.6-18.7 1.9-37.4 5-56 7.9-7.8 1.2-15.4 3.5-23.1 5.3 1.6.8 3 .8 4.4.8 17.1-.7 34.1 1.2 51 3.8 21.1 3.2 41.7 8.3 61.7 15.6 24 8.7 46.6 20.1 65.6 37.1 22.6 20.1 30.1 51.5 17.4 79.6-6.6 14.8-17.2 25.9-30.9 34.5-14.7 9.3-30.7 14-47.7 16.2-7.2.9-14.6.9-21.8 2-14.3 2.3-28.4 5.5-42.7 7.6-20.1 3-40.4 5.6-60.6 7.9-15.2 1.7-30.5 2.5-45.8 3.7zm235.4-57.2c1-.9 1.5-1.2 1.8-1.7 9.8-13.2 15-27.8 14-44.6-.8-13.4-5.3-25.2-13.3-35.6-9.4-12.2-22.1-20.6-35.2-28.3-21.8-12.8-45.2-21.7-69.8-27-16.2-3.5-32.8-5.7-49.2-8.2-5.7-.9-11.6-1.4-17.4-1.5-11.8 0-24.1-1.5-35.4 1.2-15.7 3.8-31.2 9.8-45.9 16.8-21.9 10.4-40.2 26-54.5 45.6-14.1 19.4-20 40.9-14.4 64.9 3.8 16.1 12.1 29.8 21.7 42.8 2 2.8 4.6 5.2 6.9 7.7-1.1-3.3-2.9-6.1-4.1-9.2-7.5-18.1-5.2-35.8 9.1-47.9 7.8-6.6 16.9-10.9 26.5-14.1 28.1-9.3 57.3-12.1 86.5-13 33.3-1.1 66.7-.5 99.8 5 17.5 3 34.8 6.8 50.6 15.2 12.4 6.8 21.7 16 22.3 31.9zm-242 60.5c-.2.3-.3.7-.5 1 1.6 1.2 3.1 2.6 4.8 3.4 11.7 5.6 23.2 11.7 35.1 16.6 29.1 12 59.2 20.6 90.3 26.1 19.6 3.5 39.4 5.9 59.2 6.7 22.9.9 45.8.1 68.5-4.2 32.9-6.2 62.8-18.7 88-41.3 9.3-8.3 17.7-17.6 22.9-28.9 8.6-18.8 11.6-38.7 11-59.4-.5-17.8-4-34.8-9.9-51.4-1.4-4-3.3-7.8-5.2-12 0 5.1-.2 9.5 0 14 .9 18.2-2.6 35.6-10.6 52-9.6 19.7-24.3 35-42 47.4-21.9 15.4-46.2 25.7-71.9 33-19.3 5.5-38.8 9.7-58.8 11.4-15.3 1.3-30.5 2.9-45.8 3.4-23 .7-45.9-.9-68.6-4.3-16.3-2.5-32.6-5.7-48.8-8.8-5.9-1.3-11.8-3.2-17.7-4.7zm-52.9-53c8.9-9 11.6-11.1 24.5-14.7 7.6-2.1 15.5-3.4 23.3-4.5 10.2-1.4 20.4-3.2 30.6-3.3 21.2-.3 42.4.4 63.6.7 22.3.3 44.5 2.6 66.3 7.1 10.8 2.2 21.4 5.1 30.7 11.4 9.1 6.3 8.1 19.6-1.8 24.3-1.8.9-3.6 1.6-5.4 2.4.1.4.2.7.3 1 5.9-1.3 11.8-2.5 17.6-4.1 14.2-4 27-10.6 38.1-20.3.9-.8 1.9-2 2.1-3.2 1.6-7.6.4-14.7-4.6-21-5.9-7.5-14-11.9-22.5-15.4-17.9-7.5-36.8-11.3-56-13.1-15.6-1.5-31.2-3-46.8-3.4-27.8-.8-55.6.4-83.2 4.2-15.4 2.1-30.6 5.1-45.1 10.8-10.5 4.1-20.5 9.4-27 19.2-4.1 6.6-6.1 13.7-4.7 21.9zm8.5-117.7c0-.1-.1-.2-.1-.3-4.6 3.2-9.2 6.3-13.7 9.6-16.6 12.6-30.9 27.3-38.8 47.1-6.2 15.4-7.6 31-.9 46.8 9 21 24.6 36.1 43.4 48.2 4.1 2.6 8.9 4.1 13.4 6.1.3-.5.7-1 1-1.5-1.2-1-2.6-1.9-3.6-3.1-7.9-9.3-16.6-18-23.4-28.1-12.5-18.4-18.7-38.8-15.4-61.5 2.3-15.8 9-29.6 18.8-41.9 5.9-7.5 12.8-14.3 19.3-21.4zm3.2 160.5c-21.7-7.7-37.3-22.1-50.7-39.8 5 16.8 33.9 42.8 50.7 39.8z"
        fill="#1d295b" />
</svg>