<svg enable-background="new 0 0 500 500" viewBox="0 0 500 500" xmlns="http://www.w3.org/2000/svg">
    <path
        d="m495.464 247.848c-1.218 2.42-2.792 8.281-6.418 12.285-17.111 18.897-34.725 37.34-52.309 55.803-3.018 3.168-6.545 5.972-10.205 8.384-8.278 5.455-19.12 5.071-26.031-.519-7.402-5.987-10.127-16.991-5.819-26.341 1.982-4.303 4.799-8.465 8.077-11.887 17.058-17.802 34.377-35.353 51.634-52.964 1.851-1.889 3.886-3.596 5.835-5.387 6.544-6.016 14.053-7.31 21.982-3.574 8.688 4.096 13.469 11.078 13.254 24.2zm-273.565-224.457c-.669 7.613 1.942 13.814 7.353 18.986 7.008 6.698 14.062 13.348 21.057 20.059 12.047 11.559 23.986 23.232 36.125 34.693 6.186 5.841 13.185 10.93 22.235 9.379 18.473-3.165 25.613-23.195 13.247-37.327-6.073-6.939-13.097-13.064-19.849-19.389-13.794-12.924-27.672-25.757-41.561-38.577-4.985-4.601-10.613-7.877-17.707-7.689-11.294.317-19.912 8.625-20.9 19.865zm44.999 431.052c-17.819-17.145-35.613-34.318-53.625-51.259-3.469-3.263-7.808-5.634-11.864-8.232-11.825-7.572-30.825 4.854-30.449 18.856.206 7.65 2.868 13.568 8.312 18.72 19.585 18.534 39.047 37.198 58.602 55.764 1.587 1.507 3.464 2.742 5.314 3.936 7.342 4.737 15.098 4.983 22.667 1.005 7.753-4.074 10.326-11.581 11.303-17.231.7-11.031-4.812-16.316-10.26-21.559zm-221.345-187.689c12.936-13.202 26.024-26.268 38.594-39.813 7.16-7.714 14.206-15.758 19.866-24.576 5.675-8.84 2.336-19.281-6.698-26.764-7.458-6.177-15.799-6.502-24.153-.106-6.626 5.072-13.129 10.458-18.907 16.456-13.142 13.64-25.787 27.758-38.679 41.641-2.382 2.566-5.285 4.699-7.405 7.451-5.98 7.761-6.203 16.239-2.067 24.875 3.811 7.958 10.457 11.553 19.078 11.808 8.852.089 14.756-5.243 20.371-10.972zm361.193-207.438c-20.749 21.765-41.821 43.232-62.173 65.361-10.972 11.929-2.848 30.579 10.387 34.041 8.62 2.255 15.696.672 21.757-5.425 19.018-19.131 37.995-38.303 56.761-57.679 2.996-3.094 5.348-7.087 7.104-11.059 6.759-15.292-2.902-30.198-20.133-30.549-5.139-.852-9.773 1.188-13.703 5.31zm-312.468 379.246c19.41-20.558 38.987-40.958 58.444-61.472 1.501-1.582 2.747-3.493 3.764-5.434 3.933-7.51 2.615-19.13-2.67-24.779-8.797-9.402-21.159-10.4-30.415-1.328-19.578 19.189-38.714 38.834-57.878 58.442-2.737 2.801-5.036 6.227-6.814 9.731-7.818 15.4 2.032 31.589 20.153 31.742 5.682.619 10.85-2.067 15.416-6.902zm55.272-282.13c10.48-6.13 13.393-23.522 4.874-32.255-19.72-20.215-39.878-40.014-60.267-59.554-3.632-3.481-8.995-5.797-13.967-7.119-14.748-3.921-26.329 5.708-26.399 20.937-.031 6.692 2.419 11.854 7.2 16.367 20.545 19.396 41.073 38.813 61.404 58.432 4.581 4.421 9.787 5.628 18.797 5.369.849-.205 5.132-.29 8.358-2.177zm197.928 188.619c-10.839 8.401-11.332 22.506-1.466 32.297 18.779 18.638 37.768 37.065 56.801 55.446 3.136 3.028 6.665 5.867 10.479 7.932 9.756 5.284 21.767 2.244 28.224-6.66 6.279-8.658 5.464-20.474-2.968-28.645-20.889-20.246-42.21-40.045-63.14-60.249-3.965-3.827-8.38-4.419-13.751-5.631-4.775 1.772-10.337 2.531-14.179 5.51zm-324.773 47.026c11.675-.59 20.894-9.296 21.121-20.86.238-12.146-9.215-21.949-21.255-22.041-12.195-.093-21.363 9.154-21.436 21.625-1.603 12.379 11.409 21.79 21.57 21.276zm475.589-263.823c-.286-11.65-9.587-20.677-21.416-20.782-12.286-.11-21.668 9.578-21.349 22.047.301 11.801 9.529 20.802 21.288 20.764 12.307-.041 21.777-9.753 21.477-22.029zm-20.66 215.696c-12.431-.403-22.074 8.852-22.131 21.24-.055 11.845 8.884 21.301 20.488 21.671 12.054.384 22.224-9.382 22.297-21.413.071-11.664-9.014-21.121-20.654-21.498zm-343.418 111.671c-12.22-.12-21.764 9.564-21.59 21.906.165 11.664 9.385 20.672 21.271 20.779 12.357.112 21.719-9.353 21.541-21.775-.168-11.649-9.451-20.795-21.222-20.91zm236.207 0c-12.228.022-21.572 9.739-21.304 22.156.26 12.078 10.334 21.14 22.819 20.528 11.594-.569 20.331-10.199 20-22.044-.328-11.703-9.667-20.662-21.515-20.64zm-326.671-321.577c-.003-11.492-9.432-21.001-21.005-21.183-11.91-.188-21.159 8.519-21.609 20.343-.482 12.614 8.491 22.322 20.825 22.531 12.214.208 21.793-9.327 21.789-21.691zm321.001-132.918c-11.829.213-20.954 9.29-21.137 21.029-.19 12.088 9.681 21.858 21.891 21.672 11.668-.178 21.026-9.591 21.015-21.137-.012-12.464-9.423-21.786-21.769-21.564zm-214.956 24.04c.341-11.097-10.326-22.719-21.152-23.045-11.904-.359-21.632 9.368-21.722 21.719-.09 12.437 9.295 22.298 21.132 22.204 10.616-.084 21.423-10.462 21.742-20.878zm136.681 393.144c.124 10.743 10.6 21.036 21.541 21.165 11.676.137 22.174-10.22 22.203-21.904.027-11.261-9.724-20.622-21.599-20.736-12.549-.121-22.286 9.322-22.145 21.475zm-74.604-336.317c.094-12.601-9.21-22.256-21.232-22.03-11.115.209-21.397 10.268-21.548 21.081-.172 12.28 9.188 21.537 21.804 21.563 12.07.026 20.886-8.637 20.976-20.614zm227.623 109.294c.046-11.432-10.491-22.066-21.966-22.168-11.74-.104-21.04 10.118-20.731 22.786.3 12.319 8.673 20.108 21.442 19.947 12.099-.152 21.208-8.965 21.255-20.565zm-336.915 116.257c-.093-11.508-9.242-20.961-20.79-21.481-10.851-.49-21.926 10.699-22.031 21.976-.084 9.074 8.196 21.726 21.095 20.747 13.007.109 21.829-8.517 21.726-21.242z"
        fill="#0ceab3" />
</svg>