<svg enable-background="new 0 0 500 500" viewBox="0 0 500 500" xmlns="http://www.w3.org/2000/svg">
    <path
        d="m167.934 250.18c.097-44.284 36.277-80.416 80.627-80.521 44.801-.106 81.112 36.222 81.051 81.09-.061 45.018-36.286 81.17-81.149 80.987-44.907-.184-80.628-36.36-80.529-81.556zm-162.796.716c0 22.265.117 44.53-.072 66.794-.056 6.637 2.002 9.129 9.196 8.892 17.925-.59 35.897-.623 53.822-.023 9.582.321 13.69-2.853 12.276-12.54-.332-2.271.049-4.642.05-6.967.004-5.883 2.939-8.418 8.769-7.98 2.643.199 5.317.094 7.972.007 34.636-1.128 61.293-28.042 61.296-61.863.003-34.243-26.218-60.877-61.34-61.498-27.241-.481-54.5.127-81.745-.229-8.006-.105-10.455 3.077-10.36 10.608.271 21.597.096 43.199.096 64.799zm477.431 75.42c4.115-.019 9.252 1.684 11.785-3.043 2.289-4.271-1.775-7.379-3.705-10.597-26.296-43.846-52.72-87.616-79.089-131.419-6.451-10.716-9.003-10.853-15.4-.25-26.753 44.348-53.443 88.734-80.122 133.127-5.74 9.552-4.353 12.113 7.055 12.175 26.911.146 53.822.047 80.734.058 26.249.01 52.496.069 78.742-.051z"
        fill="#5a2da3" />
</svg>