<svg enable-background="new -749 751 500 500" viewBox="-749 751 500 500"
    xmlns="http://www.w3.org/2000/svg">
    <path
        d="m-377.86 1205.593c-5.01 1.918-8.999-.314-12.938-1.295-11.772-2.934-23.379-6.524-35.1-9.673-6.984-1.876-14.061-3.402-21.38-5.153-6.217 6.16-12.376 12.227-18.496 18.335-9.115 9.097-18.196 18.228-27.302 27.335-4.669 4.669-6.177 4.744-10.905.045-13.13-13.049-26.452-25.92-39.145-39.384-4.925-5.223-9.713-6.197-16.216-4.351-13.46 3.822-27.043 7.213-40.569 10.807-4.494 1.194-8.933 2.615-13.457 3.671-5.1 1.19-6.408.053-7.727-5.15-1.662-6.555-3.654-13.024-5.429-19.551-3.358-12.347-6.846-24.664-9.879-37.091-.915-3.748-2.64-5.13-6.256-6.213-18.996-5.692-38.185-10.599-57.485-15.109-.677-.158-1.298-.547-1.965-.765-4.727-1.547-5.728-2.797-4.793-7.619.928-4.786 2.336-9.483 3.607-14.199 4.071-15.1 8.064-30.223 12.356-45.26.968-3.393.527-5.643-2.03-8.097-9.066-8.703-17.971-17.574-26.861-26.459-5.106-5.104-10.134-10.29-15.068-15.561-4.122-4.403-4.094-6.109.213-10.612 3.856-4.031 7.936-7.847 11.899-11.776 8.422-8.351 16.829-16.717 25.257-25.062.494-.489 1.182-.78 1.682-1.264 6.1-5.919 6.394-6.487 4.181-14.697-3.766-13.97-7.763-27.878-11.615-41.825-1.302-4.715-2.765-9.418-3.6-14.222-.928-5.34-.047-6.234 5.401-7.638 14.446-3.722 28.912-7.369 43.328-11.203 6.073-1.615 12.011-3.736 18.073-5.4 2.613-.717 2.94-2.655 3.475-4.707 1.645-6.307 3.303-12.611 5.018-18.899 3.497-12.818 7.017-25.629 10.575-38.43.49-1.764 1.253-3.453 2.09-5.721 3.168.326 6.23.246 9.072 1 14.208 3.771 28.352 7.786 42.533 11.659 4.051 1.106 8.133 2.114 12.236 3.002 3.634.787 6.648.074 9.507-2.859 12.265-12.579 24.78-24.914 37.206-37.336 2.153-2.152 4.232-4.389 6.5-6.414 1.992-1.778 4.247-1.819 6.406-.155.738.569 1.403 1.241 2.064 1.903 13.748 13.764 27.486 27.538 41.241 41.295 1.321 1.321 2.631 2.7 4.151 3.758.869.605 2.254 1.048 3.231.818 4.522-1.065 8.976-2.415 13.466-3.62 15.107-4.056 30.207-8.136 45.339-12.094 2.41-.63 4.973-.678 8.141-1.081 6.301 22.62 12.475 44.787 18.742 67.286 11.518 3.111 22.935 6.22 34.367 9.275 10.352 2.766 20.713 5.499 31.084 8.191 2.728.708 4.063 2.402 3.631 5.112-.549 3.446-1.245 6.888-2.16 10.254-4.466 16.429-8.715 32.927-13.726 49.19-1.701 5.521.083 8.904 3.563 12.373 5.625 5.608 11.212 11.254 16.853 16.846 7.771 7.705 15.56 15.391 23.374 23.052 3.911 3.834 3.942 5.724-.181 9.851-12.892 12.904-25.81 25.782-38.713 38.674-1.161 1.16-2.301 2.342-3.431 3.533-2.291 2.414-2.842 5.102-1.921 8.389 2.896 10.344 5.538 20.758 8.371 31.12 2.271 8.306 4.68 16.575 7.022 24.862.316 1.12.717 2.233.876 3.378.634 4.559.026 5.758-4.51 7.151-5.116 1.572-10.322 2.873-15.532 4.113-15.644 3.724-31.154 7.929-46.549 12.578-2.413.728-3.186 2.064-3.785 4.349-3.664 13.962-7.493 27.882-11.342 41.794-1.923 6.944-4.003 13.843-6.065 20.946zm-187.769-206.082c2.762 4.958 5.201 9.481 7.774 13.926 4.802 8.296 9.7 16.536 14.523 24.819 3.051 5.24 6.023 10.526 9.066 15.77 1.657 2.856 3.967 4.124 7.487 4.096 18.751-.148 37.503-.096 56.255.013 3.377.02 5.643-.881 7.362-4.074 3.54-6.574 7.562-12.887 11.313-19.349 5.859-10.096 11.496-20.327 17.568-30.292 2.183-3.583 1.773-6.341-.254-9.66-4.62-7.565-9.014-15.27-13.437-22.954-4.768-8.283-9.511-16.58-14.167-24.926-1.989-3.565-4.387-5.972-8.932-5.226-2.054.337-4.21.043-6.319.045-15.939.015-31.88.183-47.815-.046-4.705-.068-7.838.876-10.045 5.533-2.982 6.294-6.803 12.194-10.33 18.224-6.606 11.294-13.259 22.557-20.049 34.101zm23.96 58.597c-1.787-3.445-2.94-5.943-4.331-8.301-8.42-14.27-16.966-28.466-25.277-42.799-1.348-2.325-2.713-3.54-5.421-3.448-3.981.136-7.971-.038-11.954.063-4.829.122-5.113.387-5.513 5.12-.611 7.223-.966 14.47-1.709 21.678-1.603 15.545-3.561 31.055-5.042 46.611-1.458 15.314-2.508 30.667-3.753 46.202 6.03 5.983 12.085 11.991 18.174 18.034 5.007-5.905 29.985-49.613 31.664-55.181-2.198-3.75-6.222-5.431-9.598-7.841-6.244-4.458-12.677-8.654-18.852-13.203-1.009-.743-1.566-2.768-1.486-4.151.102-1.764 1.609-2.712 3.519-2.706 1.405.005 2.811-.129 4.216-.128 8.674.005 17.347.032 26.02.049 2.765.005 5.528.001 9.343.001zm130.455-200.153c-3.759 6.256-7.114 11.802-10.43 17.371-3.338 5.606-6.677 11.212-9.943 16.86-3.387 5.858-6.735 11.739-9.998 17.666-1.265 2.298-1.142 4.48 1.324 6.098.777.51 1.395 1.258 2.157 1.796 7.607 5.377 15.156 10.839 22.894 16.022 2.027 1.358 3.264 2.706 2.576 5.039-.593 2.01-2.3 2.822-4.357 2.846-1.405.016-2.81.028-4.216.029-9.602.01-19.204-.008-28.806.052-1.481.009-2.96.368-4.89.625.849 1.85 1.328 3.156 2.012 4.345 6.969 12.127 13.678 24.419 21.114 36.254 2.788 4.438 3.992 11.031 9.152 12.712 4.874 1.588 10.657.401 16.039.387.661-.002 1.322-.298 2.299-.534.444-2.233 1.073-4.474 1.307-6.756.69-6.726 1.222-13.468 1.819-20.204.494-5.578.939-11.16 1.499-16.731 1.353-13.458 2.755-26.911 4.149-40.365.697-6.728 1.499-13.446 2.104-20.182.376-4.193.593-8.411.618-12.619.008-1.245-.552-2.811-1.406-3.693-5.355-5.53-10.867-10.906-17.017-17.018zm-131.454 225.625c1.832 1.432 2.875 2.347 4.015 3.12 7.342 4.982 14.788 9.813 22.04 14.922 10.103 7.118 20.025 14.493 30.097 21.657 12.932 9.198 25.98 18.234 38.872 27.488 2.571 1.846 4.953 2.191 7.856 1.252 5.1-1.65 10.266-3.096 15.386-4.689 1.496-.465 2.928-1.137 4.362-1.703-2.219-7.024-25.642-47.523-31.455-54.566-.221 0-.487-.076-.679.011-10.181 4.632-20.387 9.212-30.505 13.979-1.924.907-3.634 1.308-5.151-.149-1.616-1.552-2.096-3.565-.958-5.726.653-1.238 1.2-2.535 1.9-3.745 4.556-7.869 9.158-15.712 13.703-23.588 1.02-1.767 1.872-3.632 3.08-5.997-2.282-.124-3.879-.281-5.477-.287-9.142-.034-18.284-.04-27.427-.04-8.439.001-16.878.037-25.318.022-1.921-.003-3.856-.041-4.976 1.863-3.053 5.192-6.04 10.423-9.365 16.176zm-34.616-229.233c5.652 13.032 27.237 49.744 32.014 54.466 10.564-4.725 21.178-9.51 31.829-14.212 3.251-1.435 5.535.159 5.343 3.729-.072 1.338-.498 2.776-1.157 3.945-3.669 6.503-7.415 12.962-11.223 19.384-2.293 3.866-4.945 7.55-6.004 12.353h61.076c3.555-5.847 7.033-11.568 10.585-17.409-1.574-1.478-2.641-2.746-3.951-3.669-15.263-10.753-30.544-21.481-45.86-32.158-7.079-4.935-14.593-9.315-21.283-14.722-8.001-6.466-16.958-11.476-25.096-17.685-1.841-1.404-3.811-1.501-5.972-.822-5.332 1.676-10.702 3.231-16.029 4.922-1.476.469-2.854 1.245-4.272 1.878zm37.548 83.54c-2.732-5.078-5.43-10.002-8.034-14.975-1.216-2.323-2.938-2.882-5.223-1.816-16.303 7.601-32.579 15.259-48.901 22.817-6.779 3.139-13.685 6.002-20.471 9.125-11.471 5.28-22.893 10.667-34.335 16.011-1.722.804-3.106 1.682-3.59 3.888-1.645 7.487-3.558 14.914-5.477 22.809h64.203c1.061-10.747 2.092-21.192 3.125-31.636.161-1.627.051-3.344.549-4.861 1.2-3.656 5.311-4.367 7.685-1.355 1 1.269 1.548 2.886 2.382 4.297 5.551 9.39 11.125 18.767 17.181 28.974 11.027-17.986 21.376-35.374 30.906-53.278zm113.5 71.969c-5.271 5.827-27.399 43.596-30.928 52.465 2.121 4.061 4.214 8.252 6.476 12.351 2.535 4.595 3.503 4.904 8.336 2.716 11.277-5.103 22.527-10.268 33.785-15.414 9.112-4.166 18.221-8.339 27.33-12.512 12.964-5.939 25.931-11.871 38.884-17.832 2.117-.974 4.516-1.852 5.165-4.386 1.934-7.554 4.486-14.979 5.532-23.248-21.482 0-42.462 0-63.787 0-.628 6.317-1.137 12.339-1.848 18.338-.713 6.01-1.489 12.02-2.561 17.972-.236 1.31-1.67 3.071-2.857 3.358-1.219.294-2.977-.739-4.186-1.619-.858-.625-1.188-1.968-1.769-2.981-4.645-8.102-9.265-16.219-13.968-24.288-.927-1.59-2.176-2.99-3.604-4.92zm31.85-14.243c12.554 1.159 57.285.8 62.829-.513-.501-2.405-.864-4.898-1.547-7.301-3.373-11.862-6.974-23.66-10.214-35.558-2.691-9.882-5.038-19.859-7.442-29.817-.896-3.71-2.375-6.837-5.268-9.594-7.115-6.783-13.851-13.962-20.791-20.93-2.197-2.206-4.555-4.25-7.635-7.106-.974 7.84-1.98 14.496-2.593 21.189-1.194 13.028-2.166 26.076-3.235 39.115-.458 5.584-.891 11.17-1.403 16.75-.873 9.526-1.819 19.046-2.681 28.574-.145 1.602-.02 3.231-.02 5.191zm-271.04 9.051c.423 2.322.626 4.171 1.103 5.948 6.106 22.735 12.225 45.466 18.418 68.176.794 2.911 2.139 5.513 4.441 7.754 8.718 8.486 17.235 17.179 25.854 25.767.71.707 1.626 1.206 3.024 2.222 1.429-13.058 2.899-25.315 4.078-37.599 1.16-12.082 2.262-24.18 2.95-36.295.693-12.202 3.657-24.281 2.761-36.542-12.977-1.223-56.74-.839-62.629.569zm210.239 151.017c-10.309-8.768-21.165-14.721-30.912-22.181-9.615-7.359-19.442-14.525-29.699-20.941-10.408-6.511-19.296-15.274-31.026-20.98-10.696 17.725-21.519 35.004-30.944 53.59 2.184 1.083 3.742 2.173 5.469 2.657 7.626 2.135 15.3 4.101 22.959 6.116 13.961 3.672 27.945 7.258 41.876 11.04 5.506 1.495 10.761 2.112 16.465.393 11.351-3.421 22.883-6.236 35.812-9.694zm44.942-14.462c3.05-3.176 6.051-6.417 9.175-9.536 15.422-15.398 30.934-30.707 46.244-46.214 1.855-1.879 3.193-4.629 3.903-7.214 2.595-9.446 4.849-18.986 7.171-28.506.634-2.599 1.057-5.249 1.632-8.155-9.702 2.611-95.864 42.24-100.044 45.884 7.914 16.871 26.716 48.689 31.919 53.741zm-9.672-287.69c-7.564-2.141-15.125-4.377-22.739-6.417-16.644-4.458-33.324-8.78-49.968-13.238-4.195-1.124-8.195-1.062-12.396.204-6.246 1.882-12.644 3.256-18.953 4.935-5.555 1.478-11.078 3.076-16.863 4.691.494.967.639 1.769 1.113 2.104 28.404 20.07 56.831 40.105 85.275 60.118 1.09.767 2.365 1.272 3.486 1.864 8.863-11.498 29.519-47.548 31.045-54.261zm-235.177 104.682c8.986-2.652 96.198-42.616 100.396-46.011-1.301-2.523-2.55-5.249-4.062-7.818-3.663-6.222-7.535-12.321-11.162-18.564-4.454-7.666-8.706-15.45-13.138-23.129-.873-1.513-2.168-2.782-3.558-4.527-3.968 4.078-7.507 7.798-11.135 11.429-14.555 14.566-29.111 29.131-43.734 43.629-2.589 2.567-4.039 5.487-4.922 9.029-2.481 9.948-5.35 19.798-7.967 29.713-.456 1.733-.429 3.593-.718 6.249zm314.044-41.827c8.754 8.228 16.136 17.209 26.265 24.89 2.074-6.231 3.927-11.425 5.522-16.697 1.617-5.347 3.251-10.715 4.375-16.177 1.087-5.28 3.613-10.358 3.078-16.511-1.792.855-3.068 1.381-4.265 2.048-7.533 4.194-15.218 8.149-22.504 12.737-4.223 2.66-9.453 4.217-12.471 9.71zm36.03 198.979c-14.594-7.236-26.888-16.533-40.946-22.774-3.124 7.7-9.243 31.301-9.371 35.858 6.991-.24 40.354-9.124 50.317-13.084zm-198.28 109.044c1.375-12.315.941-42.689-.568-47.329-6.077 1.479-12.285 2.574-18.2 4.546-5.765 1.923-12.118 2.423-17.808 6.217 12.358 12.354 24.26 24.253 36.576 36.566zm202.347-116.453c-3.719-17.357-8.379-33.309-13.582-49.762-10.155 7.507-17.739 16.914-27.001 25.757 2.566 2.039 4.518 3.989 6.819 5.348 9.403 5.555 18.902 10.948 28.395 16.35 1.325.754 2.812 1.221 5.369 2.307zm-382.001-49.576c-2.374 8.261-4.862 16.249-6.943 24.343-2.055 7.993-4.895 15.846-5.844 25.153 12.576-7.044 24.165-13.482 35.681-20.049 1.524-.869 2.672-2.398 3.974-3.603-7.91-9.557-19.848-21.095-26.868-25.844zm188.735 118.195v46.309c5.922-2.351 8.971-7.18 12.877-10.963 4.198-4.066 8.396-8.135 12.506-12.29 3.872-3.914 7.629-7.942 12.243-12.763-13-3.557-24.856-6.8-37.626-10.293zm-197.015-61.371c1.073.645 1.438.985 1.865 1.103 14.825 4.092 29.648 8.192 44.502 12.178 1.136.305 2.494-.214 4.004-.377-1.868-6.347-3.442-12.203-5.328-17.957-1.893-5.776-1.722-12.217-5.331-17.993-13.371 7.759-26.291 15.257-39.712 23.046zm150.913-302.658c12.93 3.92 24.52 7.925 37.61 9.754-.053-15.589.223-30.455-.874-45.746-12.369 11.488-24.361 23.062-36.736 35.992zm-100.511 58.332c-14.755 1.948-28.102 6.716-41.751 10.121-2.893.722-5.655 1.967-9.926 3.486 15.244 6.792 27.324 16.429 41.645 22.824 3.374-12.252 6.572-23.867 10.032-36.431zm-14.787 44.549c-12.259-9.688-26.657-14.751-39.162-23.688-.772 7.248 8.545 41.889 13.043 49.337 4.295-3.937 8.653-7.725 12.767-11.762 4.299-4.218 8.363-8.676 13.352-13.887zm162.249-139.248c-1.278 6.348-1.516 37.755-.516 46.013 10.477-1.313 30.694-7.127 36.423-10.598-12.054-11.598-23.176-23.989-35.907-35.415zm187.329 108.853c-.038-.502-.075-1.003-.113-1.505-8.275-2.285-16.523-4.67-24.831-6.826-8.18-2.123-16.246-4.882-24.972-5.733 2.117 11.722 7.908 31.365 10.626 35.726 13.751-5.969 25.64-15.431 39.29-21.662zm-371.207 119.114c-14.822-1.508-40.849-.918-44.875.907.164.417.22.942.509 1.234 4.25 4.285 8.537 8.533 12.805 12.801 5.922 5.921 11.822 11.864 17.766 17.763 1.059 1.051 2.284 1.935 3.893 3.282 4.632-12.026 6.781-23.873 9.902-35.987zm366.742-44.266c-3.22 11.833-6.913 23.427-9.033 35.461 8.204 1.335 39.83 1.138 44.589-.203-3.315-5.272-30.541-32.393-35.556-35.258zm-247.475 222.036c-9.518-8.031-16.074-18.535-26.754-26.249-6.57 13.91-15.917 25.217-22.047 39.743 16.915-4.402 33.004-7.613 48.801-13.494zm117.384-365.012c9.847 9.826 18.488 18.449 27.648 27.59 7.729-13.408 15.08-26.161 23.291-40.406-17.519 4.407-33.423 8.408-50.939 12.816zm-186.977 40.586c16.653-2.931 31.96-7.168 35.918-10.103-8.279-12.105-14.195-25.696-22.929-38.149-3.228 7.151-12.986 43.819-12.989 48.252zm222.433 293.36c.509 1.778.633 3.204 1.282 4.327 6.303 10.905 12.68 21.768 19.086 32.614.568.962 1.493 1.713 2.457 2.792.727-1.618 1.482-2.841 1.843-4.171 3.303-12.145 6.569-24.3 9.765-36.474.675-2.572 1.023-5.229 1.617-8.346-12.425 3.191-24.099 6.189-36.05 9.258zm9.617-11.615c10.448-1.549 20.441-4.055 30.15-8.039 2.065-9.786 5.326-19.101 6.591-29.075-12.772 11.924-25.456 23.714-36.741 37.114zm69.298-156.887c.973-1.175 1.635-1.631 1.803-2.226 2.403-8.53 4.812-17.06 7.002-25.646.287-1.125-.237-2.936-1.054-3.786-6.579-6.848-13.319-13.542-20.812-21.091 0 2.426-.244 3.616.037 4.665 4.249 15.847 8.567 31.676 13.024 48.084zm-331.681 87.697c.112-1.832.327-2.546.168-3.164-3.886-15.075-7.774-30.149-11.79-45.189-.372-1.393-1.603-2.556-2.896-4.528-2.397 9.44-4.413 18.03-6.821 26.509-.82 2.888-.375 4.763 1.749 6.817 6.346 6.136 12.51 12.459 19.59 19.555zm26.505-202.242c-2.575 9.83-5.144 19.637-7.7 29.395.676.247.981.434 1.046.372 10.374-9.995 20.766-19.971 31.057-30.05 2.103-2.06 3.824-4.511 6.319-7.498-11.215.946-20.575 5.164-30.722 7.781zm202.729-27.15c-4.324-4.494-8.773-8.876-12.938-13.513-4.661-5.191-9.653-8.716-16.916-5.223-.198.095-.468.029-.69.089-6.9 1.866-13.798 3.738-22.349 6.058 18.512 5.391 35.208 10.774 52.893 12.589zm-140.508 317.763c5.861 5.957 11.845 11.8 17.529 17.921 2.797 3.012 5.716 3.432 9.462 2.407 6.956-1.903 13.994-3.509 20.994-5.255.672-.168 1.337-.408 1.964-.702.632-.297 1.213-.702 2.46-1.442-17.738-5.194-34.563-10.345-52.409-12.929zm131.639 10.309c-4.528-6.132-9.204-7.901-15.681-5.563-6.784 2.449-13.815 4.213-20.732 6.294-1.953.587-3.889 1.234-6.254 1.987 1.102.62 1.668 1.108 2.317 1.278 8.322 2.179 16.645 4.357 24.995 6.424 2.079.515 3.855.238 5.606-1.676 2.796-3.059 6.168-5.591 9.749-8.744zm78.163-270.695c.458-.324.916-.648 1.374-.972-2.309-8.709-4.591-17.426-6.95-26.121-.486-1.792-1.151-3.437-3.393-3.999-4.454-1.116-8.843-2.49-13.588-3.851-1.334 4.348-2.863 8.774.182 12.134 7.145 7.886 14.879 15.24 22.375 22.809zm42.415 149.496c-2.158-5.071-1.333-10.964-4.64-15.544-2.205.585-4.135.805-5.785 1.604-2.304 1.115-4.166 2.626-4.876 5.523-2.1 8.575-4.579 17.057-6.789 25.607-.342 1.323-.048 2.811-.048 4.773 7.689-7.628 14.8-14.682 22.138-21.963zm-358.942-79.079c2.185-.858 3.239-1.344 4.338-1.692 4.411-1.395 6.541-4.132 7.412-8.945 1.44-7.954 3.988-15.706 5.98-23.565.274-1.082.038-2.294.038-4.364-7.049 7.052-13.488 13.386-19.764 19.878-1.007 1.042-2.015 2.933-1.769 4.186.922 4.696 2.363 9.29 3.765 14.502zm158.577-139.917c-.041-.378-.083-.755-.124-1.133-8.991-2.261-17.958-4.629-26.996-6.683-1.605-.365-4.03-.007-5.173 1.022-3.378 3.04-7.179 5.818-9.495 10.045 1.362 1.121 2.6 1.852 3.454 2.895 2.661 3.251 6.07 3.212 9.596 2.268 6.511-1.742 12.985-3.627 19.459-5.507 3.113-.905 6.188-1.935 9.279-2.907zm-97.76 307.197c1.948-8.291 2.083-8.417-3.002-13.908-4.898-5.289-10.128-10.27-15.189-15.41-1.741-1.768-3.412-3.605-5.166-5.464-.388.528-.681.756-.644.9 2.339 9.245 4.663 18.495 7.133 27.705.259.966 1.244 2.139 2.158 2.46 4.783 1.683 9.51 3.732 14.71 3.717zm298.91-117.137c13.447-3.816 27-10.388 30.771-14.96-5.77 0-11.352-.129-16.926.036-5.681.168-11.435-.711-17.464.669 1.235 4.864 2.363 9.308 3.619 14.255zm-361.285-23.573c-.52-2.475-.861-4.513-1.388-6.502-.642-2.422-1.44-4.803-2.161-7.171-9.999 2.265-25.706 9.741-29.723 14.086 7.441 1.101 27.412.954 33.272-.413zm253.635 171.459c7.633 6.822 22.92 17.182 28.463 19.154-5.8-9.992-11.335-19.528-17.039-29.356-5.297 2.357-8.122 6.505-11.424 10.202zm-160.414-322.391c3.041-2.709 5.394-4.564 7.46-6.698 3.673-3.795 3.53-5.215-.802-8.269-6.678-4.708-13.432-9.309-20.177-13.922-.89-.609-1.912-1.023-2.874-1.528 4.793 10.168 10.125 19.804 16.393 30.417zm-25.474 338.651c6.475-11.163 12.172-20.984 18.257-31.476-5.238-1.437-10.004-2.744-15.361-4.213-1.076 11.926-3.225 22.876-2.896 35.689zm222.751-364.963c-2.044 2.374-3.139 3.276-3.765 4.432-3.87 7.149-7.56 14.384-12.454 20.944-1.1 1.474-1.228 3.673-1.899 5.847 5.185 1.241 9.76 2.335 14.524 3.475 1.189-11.476 2.305-22.252 3.594-34.698zm-203.978-7.856c6.572 4.748 13.075 9.595 19.741 14.206 3.968 2.745 5.054 2.524 8.426-.813 1.728-1.711 3.297-3.583 5.486-5.984-11.279-4.158-22.107-6.226-33.653-7.409zm-121.386 174.026c10.256-3.398 20.313-6.691 28.934-13.047-1.358-3.892-1.501-7.914-4.62-11.136-8.294 8.25-16.304 16.216-24.314 24.183zm402.201 57.229c7.976-9.021 16.936-15.634 24.459-25.524-10.838 2.979-19.371 7.879-28.103 12.566 1.137 4.046 2.185 7.771 3.644 12.958zm-96.091 148.765c-6.897-4.972-13.804-9.93-20.684-14.925-1.633-1.185-3.446-2.041-5.113-.589-2.703 2.355-5.866 4.439-7.172 8.569 11.119 2.721 21.615 6.349 32.969 6.945zm-221.923-46.71c2.583 11.068 6.236 21.695 9.948 32.429.881-10.088 1.762-20.176 2.617-29.968-5.984-2.936-5.984-2.936-12.565-2.461zm259.667-285.14c-1.797-6.361-3.303-11.68-4.801-17-1.496-5.314-2.985-10.631-4.476-15.946-.476.058-.952.117-1.429.175-.791 9.822-1.583 19.643-2.383 29.578 4.439 1.082 8.21 2.002 13.089 3.193zm-61.471 75.885c-5.763-4.369-10.469-8.051-15.31-11.546-1.793-1.295-3.675-.759-4.719 1.197-1.706 3.195-3.199 6.503-5.067 10.35 8.419-.001 16.018-.001 25.096-.001zm-118.768 144.596c2.216-4.41 4.235-8.427 6.331-12.597-8.077 0-15.557 0-23.845 0 5.469 5.376 10.703 9.44 17.514 12.597zm26.065-169.996c-.292-.293-.584-.587-.877-.88-5.984 2.945-11.968 5.89-18.205 8.96 2.018 4.343 3.76 8.532 7.329 12.88 4.177-7.448 7.965-14.204 11.753-20.96zm118.183 96.705c-4.814-2.542-9.225-1.862-14.31-.826 3.253 7.555 7.929 13.477 12.385 21.501.736-7.9 1.309-14.054 1.925-20.675zm-173.44-9.515c-4.218-7.596-7.764-14.193-12.787-20.077.16 6.712-2.714 13.108-1.411 20.077zm114.876 74.646c-2.334 4.144-4.562 7.185-5.811 10.587-1.155 3.145-5.435 5.295-3.386 10.222 5.615-2.826 10.894-5.482 16.596-8.352-1.5-4.521-3.896-8.088-7.399-12.457z"
        fill="#00bcaa" />
</svg>