<svg enable-background="new 1000 -1000 2500 2500" viewBox="1000 -1000 2500 2500"
    xmlns="http://www.w3.org/2000/svg">
    <g fill="#2e9ad0">
        <path
            d="m2508.944 1282.893h-670.416l-540.944-396.397-206.18-640.265 205.736-640.265 540.944-396.397h670.859l540.944 396.397 205.736 640.265-205.736 640.265-7.538 7.538zm-655.341-46.114h640.265l518.331-380.878 198.198-609.671-198.198-609.671-518.331-380.878h-640.265l-517.887 380.878-198.198 609.671 198.198 609.671z" />
        <path
            d="m3332.331 1176.034-312.595-282-305.056-114.396-540.944 68.727-548.482-68.727-305.057 114.396-15.075-45.67 312.151-121.934h7.981l548.482 76.264 548.925-76.264 7.538 7.538 320.132 121.934 312.152 289.538z" />
        <path
            d="m2493.868 1305.506-320.133-442.067-335.208 442.067-243.867-540.944 45.67-23.057 213.274 472.661 320.132-434.529 312.595 434.529 213.274-472.661 289.538-579.076 68.727 708.548h-45.67l-53.651-540.944-213.274 434.529z" />
        <path d="m1121.999 223.174h2118.55v45.67h-2118.55z" />
        <path
            d="m2989.142 330.033-266.481-525.869-228.793 495.274-320.132-571.538-327.67 571.538-228.793-495.274-266.481 525.869-61.189-701.01 46.113-7.538 45.67 548.482 235.887-464.68 228.793 495.274 327.67-564.001 312.595 564.001 236.331-495.274 235.887 457.142 38.132-540.944h46.113z" />
        <path
            d="m2699.604-233.968-213.274-480.198-312.594 442.066-320.132-442.067-213.274 480.199-38.132-22.613 236.331-548.925 335.208 449.604 320.133-449.604 251.406 548.925zm312.595 1104.945-53.651-540.944-235.887 472.661-236.33-503.255-312.595 571.538-327.67-571.538-228.793 503.255-235.887-472.661-45.67 540.944h-46.113l61.189-708.548 266.481 533.406 228.793-495.274 327.67 571.538 320.133-571.538 228.793 502.812 266.481-540.944 68.727 708.548z" />
        <path
            d="m2722.661-218.449-556.463-76.264-548.925 76.264-312.151-137.453 15.076-45.67 305.056 129.472 540.944-68.283 556.463 68.283 297.076-129.472 23.057 45.67z" />
        <circle cx="1846.066" cy="1259.836" r="91.34" />
        <circle cx="2486.33" cy="1259.836" r="91.34" />
        <circle cx="1846.066" cy="-759.836" r="91.34" />
        <circle cx="2486.33" cy="-759.836" r="91.34" />
        <circle cx="3019.737" cy="-378.515" r="91.34" />
        <circle cx="1312.659" cy="-378.515" r="91.34" />
        <circle cx="1312.659" cy="878.958" r="91.34" />
        <circle cx="1121.999" cy="246.231" r="91.34" />
        <circle cx="3233.011" cy="246.231" r="91.34" />
        <circle cx="2974.067" cy="246.231" r="91.34" />
        <circle cx="1365.867" cy="246.231" r="91.34" />
        <circle cx="1846.066" cy="246.231" r="91.34" />
        <circle cx="2486.33" cy="246.231" r="91.34" />
        <ellipse cx="2173.757" cy="-317.674" rx="91.34" ry="91.34" />
        <circle cx="1617.273" cy="-241.505" r="91.34" />
        <circle cx="2722.661" cy="-241.505" r="91.34" />
        <circle cx="2173.736" cy="825.307" r="91.34" />
        <circle cx="1617.273" cy="749.043" r="91.34" />
        <circle cx="2722.661" cy="749.043" r="91.34" />
        <circle cx="3347.407" cy="1160.959" r="121.934" />
    </g>
</svg>