<svg enable-background="new 1000 -1000 2500 2500" viewBox="1000 -1000 2500 2500"
    xmlns="http://www.w3.org/2000/svg">
    <linearGradient gradientUnits="userSpaceOnUse" id="a" x1="2250" x2="2250" y1="-944.9902"
        y2="1465.3865">
        <stop offset="0" stop-color="#6cfdcc" />
        <stop offset="1" stop-color="#5a89f9" />
    </linearGradient>
    <path
        d="m1486.636-947.6h776.005c78.439 12.454 158.913 1.317 236.753 17.963 173.404 31.855 330.401 140.95 421.534 291.721 107.779 174.601 121.91 402.253 39.878 589.908-74.247 172.685-229.568 307.887-410.995 356.867-115.203 33.292-236.155 20.837-354.472 23.113 202.624 335.67 404.888 671.7 606.673 1008.088-52.811 36.884-117.479 59.158-161.189 107.539h-6.826c-262.501-439.018-527.636-876.479-791.094-1314.898 187.056-.958 374.231 1.437 561.167-1.198 215.797-5.868 404.529-196.636 409.079-412.432 14.131-186.457-106.821-372.315-283.697-433.629-73.289-28.621-153.165-27.304-230.646-26.466-270.764 0-541.527 0-812.291-.12"
        fill="url(#a)" />
</svg>