<svg enable-background="new 1000 -999.5 2500 2500" viewBox="1000 -999.5 2500 2500"
    xmlns="http://www.w3.org/2000/svg">
    <path
        d="m2564.219-391.047c-7.942 7.942-13.236 21.839-13.236 35.075 0 11.912-5.956 70.812-13.236 131.036-7.28 59.562-19.192 162.14-26.472 227.658-7.941 65.518-18.53 154.86-23.163 198.539-5.294 44.34-9.927 91.328-9.927 105.887 0 13.898-1.324 23.825-3.309 21.839-1.985-1.985-14.56-67.503-27.134-144.933-25.81-156.184-33.09-174.052-64.856-159.493-17.868 7.942-16.545 2.647-53.605 158.169l-24.487 101.255h-633.338c-483.772 0-635.324 1.985-641.28 7.942-9.927 9.927-9.927 33.752 0 43.679 5.956 5.956 162.14 7.942 661.796 7.942h653.854l8.603-15.221c5.294-7.942 13.236-32.428 17.868-54.267s10.589-42.355 13.236-45.002 17.207 74.783 33.09 172.067c30.443 191.921 35.737 206.48 68.827 197.877 10.589-2.647 18.53-10.589 21.177-20.516 1.985-9.265 17.868-142.286 35.075-296.484 35.737-315.676 33.09-313.691 50.297-31.104 35.737 573.777 40.369 635.324 51.62 646.574 13.898 13.898 42.355 5.956 48.311-13.236 2.647-7.942 19.854-132.359 39.046-275.969 35.737-271.336 37.061-275.307 48.973-160.155 6.618 60.885 14.559 75.445 39.708 72.798 14.559-1.985 23.824-14.56 62.209-86.695l45.664-84.048h389.798l16.545 19.854c37.061 43.678 105.887 36.399 132.359-13.898 27.134-52.282-11.912-118.461-70.15-118.461-25.148 0-56.914 15.883-66.179 33.09-6.618 12.574-13.898 13.236-217.069 13.236-158.169 0-213.098 1.985-221.04 7.942-5.956 4.633-20.516 27.134-31.766 50.296-11.912 23.163-21.839 41.031-23.163 39.708-.662-1.324-9.927-73.459-19.854-160.816s-21.177-162.802-24.487-167.434c-11.912-13.898-44.34-9.927-51.62 6.618-3.309 8.603-13.236 76.106-23.163 150.889-9.265 74.783-21.177 166.111-26.472 202.509-5.294 37.061-9.927 76.768-9.927 88.019 0 12.574-2.647 19.854-6.618 17.207-3.309-1.985-6.618-23.825-6.618-48.311s-5.956-129.05-13.236-232.952-17.207-260.086-23.163-347.443c-17.207-269.351-17.207-270.674-28.457-283.248-13.236-14.563-24.487-14.563-41.031 1.981z"
        fill="#8f161d" />
    <path
        d="m1169.153 47.062 1.985 167.434h59.562l1.985-64.856 1.985-64.194h18.53c15.883 0 23.825 8.603 62.87 66.18l43.679 66.18h33.09c18.53 0 33.09-2.647 33.09-5.294 0-3.309-20.516-35.737-45.664-72.798l-46.326-66.841 21.839-13.898c43.017-26.472 56.914-90.666 28.457-133.021-21.177-32.428-63.532-45.002-148.904-45.664h-67.503zm154.199-97.284c21.839 21.839 21.177 46.326-2.647 70.15-16.545 15.883-24.486 19.192-52.944 19.192h-33.752v-105.887h36.399c30.443 0 39.708 2.647 52.944 16.545zm135.668 99.269v168.758h211.775v-52.944h-145.595v-92.651h112.505v-52.943h-112.505v-86.033h145.595v-52.944h-211.775zm257.438-164.125v167.434l.662 162.14h81.401c93.975 0 127.727-9.927 165.449-47.649 34.413-33.752 46.326-70.15 43.678-129.712-3.309-64.856-26.472-103.24-78.754-133.021-35.075-19.854-40.37-20.516-123.756-22.501-48.31-1.323-88.018 0-88.68 3.309zm179.347 63.533c34.413 22.501 48.311 51.62 48.311 100.593 0 46.987-12.574 75.445-43.678 98.608-14.56 10.589-31.104 14.56-71.474 16.545l-52.282 1.985v-232.953h48.973c39.046 0 52.281 2.647 70.15 15.222zm115.814 457.962c-3.309 1.324-12.64 1.324-21.905 3.309-37.722 7.942-71.408 64.856-62.804 106.549 5.956 29.781 29.119 48.973 76.768 64.856 24.486 8.603 48.311 21.177 53.605 27.795 10.589 15.221 6.618 38.384-7.941 50.296-16.545 13.236-60.224 9.927-86.033-5.956l-23.163-13.898-11.912 14.56c-17.869 21.839-15.883 29.781 13.236 45.664 33.09 18.53 78.754 25.148 108.534 15.221 29.781-9.927 62.209-46.326 68.165-76.768 9.265-50.297-11.912-78.754-78.754-102.578-51.62-18.53-57.576-23.825-57.576-46.988 0-32.428 39.708-42.355 84.048-21.177 23.163 10.589 23.824 10.589 35.737-5.294 6.618-8.603 11.25-18.53 10.589-21.839-4.633-15.222-75.181-39.311-100.594-33.752zm-843.789 155.522v152.213h59.562v-105.887h38.384c74.121-.662 120.447-38.384 120.447-99.269 0-70.15-44.34-98.608-150.228-99.269h-68.165zm141.624-91.99c22.501 17.868 23.825 54.267 2.647 76.768-11.25 11.912-21.177 15.221-49.635 15.221h-35.075v-105.886h32.428c22.501 0 37.061 3.97 49.635 13.897zm109.858 48.973c0 95.96 1.324 113.167 13.236 135.006 45.002 88.019 181.332 87.357 224.349-.662 12.574-26.472 13.898-41.031 13.898-136.33v-107.21h-58.9l-1.985 112.505c-1.985 106.549-2.647 113.167-17.207 127.065-21.177 21.177-74.121 21.839-95.299 0-14.559-13.898-15.221-21.177-18.53-125.741l-3.309-110.52-27.795-1.985-28.457-1.985v109.857zm297.808 43.017v152.213h178.685v-46.326h-119.123v-258.1h-59.562zm436.785 0v152.213h191.921v-46.326h-132.359v-86.033h105.887v-39.708h-105.887v-86.033h132.359v-46.326h-191.921z"
        fill="#404040" />
</svg>