<svg enable-background="new 0 0 500 500" viewBox="0 0 500 500" xmlns="http://www.w3.org/2000/svg">
    <g fill="#1e1a32">
        <path
            d="m281.3 219.4c16.9 0 30.6 13.7 30.6 30.6s-13.7 30.6-30.6 30.6h-79.5c-77 0-139.4-62.4-139.4-139.4s62.4-139.4 139.4-139.4h205c16.9 0 30.6 13.7 30.6 30.6s-13.7 30.6-30.6 30.6h-205c-43.2 0-78.2 35-78.2 78.2s35 78.2 78.2 78.2z" />
        <path
            d="m218.6 280.7c-16.9 0-30.6-13.7-30.6-30.6s13.7-30.6 30.6-30.6h79.5c77 0 139.4 62.4 139.4 139.4s-62.4 139.4-139.4 139.4h-205.1c-16.9 0-30.6-13.7-30.6-30.6s13.7-30.6 30.6-30.6h205c43.2 0 78.2-35 78.2-78.2s-35-78.2-78.2-78.2z" />
        <path d="m117.2 485.9-49.7-35.7 313.1-437.1 49.8 35.7z" fill-opacity=".5" />
    </g>
</svg>