<svg enable-background="new 0 0 2000 2000" viewBox="0 0 2000 2000"
    xmlns="http://www.w3.org/2000/svg">
    <g transform="translate(-58)">
        <path
            d="m362 244.9c-84.5 70.9-171.8 158.1-207.3 264.6-40.9 125.5 16.3 253.7 71 365.4 54.5 114.4 114.5 226.3 166.2 343.5 40.9 92.7 98.1 201.7 84.6 305.5-10.9 73.7-35.5 144.5-49.1 218.2-10.9 49.1 35.5 0 51.8-13.6 95.4-81.9 199-174.5 237.2-300 19-62.7 8.2-120-13.6-180-21.7-57.2-46.4-111.7-71-169.1-51.8-114.6-106.3-229-160.9-343.6-21.7-40.9-43.6-84.6-62.7-128.2-19.2-46.9-30.3-96.6-32.8-147.2-2.7-40.9-2.7-79.1 2.7-120 2.7-30.1 10.9-57.2 13.6-87.3 2.9-16.3-10.7-21.9-29.7-8.2m1248.8 0c-84.5 71-171.8 158.2-207.3 264.5-40.9 125.5 16.3 253.7 71 365.4 54.5 114.6 114.6 226.3 166.4 343.7 40.9 92.7 98.1 201.7 84.6 305.5-10.9 73.7-35.5 144.5-49.1 218.2-10.9 49.1 35.5 0 51.8-13.6 95.4-81.9 199-174.5 237.2-300 19-62.7 8.2-120-13.6-180-21.7-57.2-46.4-111.7-71-169.1-51.8-114.6-106.3-229.1-161-343.7-21.7-40.9-43.6-84.6-62.7-128.2-19.2-46.9-30.3-96.6-32.8-147.2-2.7-40.9-2.7-79.1 2.7-120 2.7-30.1 10.9-57.2 13.6-87.3 3-16.3-10.6-21.9-29.8-8.2"
            fill="#165098" />
        <path
            d="m967.3 37.6c-95.4 79.1-199 174.5-256.4 286.3-40.9 79.1-46.4 161-24.6 242.6 27.3 98.1 65.4 196.3 106.3 291.7 79.1 182.7 182.7 354.5 259.1 539.9 27.3 65.4 57.2 139.1 62.7 212.7 5.4 90-24.6 185.4-49.1 270-5.4 24.6-21.7 57.2-19 81.9 2.7 19 13.6 10.9 24.6 2.7 47-36.2 91.7-75.4 133.6-117.3 111.7-106.3 239.9-248.2 229.1-414.5-5.4-68.2-38.2-133.6-65.4-196.3-30.1-73.5-62.7-144.4-95.4-215.3-59.9-133.6-122.8-264.5-188.1-395.4-21.7-46.4-49.1-90-65.4-136.3-24.6-62.7-35.5-128.2-38.2-193.6-2.7-49.1 0-100.9 5.4-149.9 2.7-32.8 13.6-62.7 13.6-95.4 8.2-30.1-8.1-32.8-32.8-13.8z"
            fill="#5c9dd5" />
    </g>
</svg>