<svg enable-background="new 0 0 500 500" viewBox="0 0 500 500" xmlns="http://www.w3.org/2000/svg">
    <path clip-rule="evenodd"
        d="m6.2 45.2c-6.2 14.3-6.2 32.4-6.2 68.8v136 136c0 36.4 0 54.5 6.2 68.8 7.6 17.5 21.5 31.5 39 39 14.3 6.2 32.4 6.2 68.8 6.2h136 136c36.4 0 54.5 0 68.8-6.2 17.5-7.6 31.5-21.5 39-39 6.2-14.3 6.2-32.4 6.2-68.8v-136-136c0-36.4 0-54.5-6.2-68.8-7.6-17.5-21.5-31.5-39-39-14.3-6.2-32.4-6.2-68.8-6.2h-136-136c-36.4 0-55.4 0-68.8 6.2-17.5 7.5-31.5 21.5-39 39zm323.6 170.2c-25 0-45.2-20.2-45.2-45.2 0-24.9 20.2-45.2 45.2-45.2s45.2 20.2 45.2 45.2-20.2 45.2-45.2 45.2zm-114.5-45.2c0 24.9-20.2 45.2-45.2 45.2-24.9 0-45.2-20.2-45.2-45.2s20.2-45.2 45.2-45.2 45.2 20.3 45.2 45.2zm114.5 114.6c-25 0-45.2 20.2-45.2 45.2s20.2 45.2 45.2 45.2c24.9 0 45.2-20.2 45.2-45.2s-20.2-45.2-45.2-45.2zm-159.6 0c24.9 0 45.2 20.2 45.2 45.2 0 24.9-20.2 45.2-45.2 45.2-24.9 0-45.2-20.2-45.2-45.2s20.2-45.2 45.2-45.2z"
        fill="#211f6d" fill-rule="evenodd" />
</svg>