<svg xmlns:xlink="http://www.w3.org/1999/xlink" enable-background="new 0 0 500 500"
    viewBox="0 0 500 500" xmlns="http://www.w3.org/2000/svg">
    <linearGradient id="a">
        <stop offset="0" stop-color="#f37151" />
        <stop offset="1" stop-color="#ffcc4b" />
    </linearGradient>
    <linearGradient gradientUnits="userSpaceOnUse" id="b" x1="40.711" x2="465.7135" y1="122.754"
        y2="368.1293" xlink:href="#a" />
    <linearGradient gradientUnits="userSpaceOnUse" id="c" x1="89.1778" x2="409.615" y1="157.3578"
        y2="342.3622" xlink:href="#a" />
    <linearGradient gradientUnits="userSpaceOnUse" id="d" x1="151.8538" x2="322.4159" y1="200.0036"
        y2="298.4777" xlink:href="#a" />
    <path
        d="m493.6 282.2c-6.3 47.6-24.9 89.7-55.9 126.2-37.2 43.7-84.2 71.5-140.6 82.9-32.4 6.6-64.9 6.1-97.2-.6-5.4-1.1-10.1-3.7-10.5-9.4-.2-3.7 1.3-8.1 3.6-11.2 2.8-3.9 7.6-3.1 12-2.2 50.4 10.2 99.2 4.9 144.9-18.8 69.9-36.2 111.2-94 121.4-172.2 15.4-118.3-69.6-228.9-187.8-246.2-122.1-17.7-234.9 66-253.1 187.8-4.7 31.2-2.5 62.2 6.1 92.6 2.7 9.7-3.3 17.5-12.6 16.3-5.6-.7-8.5-4.3-10-9.5-13.4-47.4-14-95 2.2-141.4 34.5-98.5 104-157 207.6-169.9 120.4-14.9 232.7 63.4 263.7 180.7 4.3 16.3 7.2 36.6 8 54.6.2 1.6.9 26.1-1.8 40.3z"
        fill="url(#b)" />
    <path
        d="m254.4 66.3c59.1 1.9 109.5 27.8 146.7 78.9 5.3 7.3 4.1 14.1-2.9 18.3-5.9 3.5-11.1 2.3-15.4-3.8-16.3-23.4-37.2-41.4-62.8-53.8-71.3-34.6-162.8-11.4-203.6 53.6-64.5 102.7-6.3 227.1 104.1 248.9 83.4 16.4 166.8-37.8 186.3-121.4 2.3-10 9-10.8 16.6-9.2 5.6 1.2 7.8 6.8 6.1 13.9-6 26.1-17.1 49.9-33.7 71-32.5 41.3-75 65.1-127.3 70.9-92.9 10.2-182.4-55.1-198.5-147.6-13.3-76.3 9.5-140.6 73.5-187 31.5-23 68.2-32 110.9-32.7z"
        fill="url(#c)" />
    <path
        d="m188.6 209.2c-7.8 0-15.1.2-22.3 0-9.3-.3-14.9-10.3-9.5-17.5 2.2-2.9 6.7-5.1 10.4-5.5 6.7-.9 13.7-.2 21.5-.2 0-7-.1-13.6 0-20.2.1-7.5 4.7-13 11.4-13.8 8.3-1 15.1 4.6 15.3 13 .2 6.4.3 21 .3 21s54.9.1 79.5.1c5.6 0 9.8 2.4 11.9 7.7 1.8 4.8.3 10.5-4 13.1-2.4 1.5-5.5 2.3-8.4 2.3-24.3.2-79.1.2-79.1.2s-.3 49.4-.1 71.2c.1 17.6 8.1 30.7 24.2 38.1 15.9 7.3 30.6 4.4 44.3-6.5 3.3-2.7 8.1-4.7 12.3-4.9 5.2-.3 9.3 3.3 10.9 8.5 1.7 5.5.5 10.5-3.8 14.7-25.1 24.3-65.9 25-91.9 1.4-15-13.6-22.5-30.6-22.6-50.7-.4-21.9-.3-69.3-.3-72z"
        fill="url(#d)" />
</svg>