<svg enable-background="new 0 0 500 500" viewBox="0 0 500 500" xmlns="http://www.w3.org/2000/svg">
    <path
        d="m375.809 109.014c2.213-1.822 4.144-.726 6.147.453 44.224 26.021 76.044 62.251 93.388 111.085 4.49 12.642 8.247 25.48 9.503 38.478 2.571 26.621 2.727 53.209-6.722 79.203-6.173 16.979-11.951 33.816-21.713 49.284-21.517 34.093-51.242 58.87-86.204 77.766-39.211 21.193-81.403 31.999-125.878 30.468-33.143-1.141-65.256-9.076-95.671-22.945-43.855-19.997-78.494-50.624-105.043-90.65-.714-1.077-1.589-2.076-2.13-3.232-1.715-3.668-3.306-7.393-3.752-12.105 8.41 8.226 16.479 16.84 25.291 24.61 34.185 30.143 74.258 48.071 119.143 54.535 45.455 6.546 89.533 1.011 131.686-18.118 35.185-15.966 65.085-38.698 88.327-69.507 19.443-25.773 30.491-55.093 34.606-87.31 4.61-36.101-1.284-70.238-16.713-102.838-9.914-20.947-22.859-39.817-41.067-54.645-1.416-1.151-3.398-2.105-3.198-4.532z"
        fill="#62cabd" />
    <g fill="#656666">
        <path
            d="m414.335 62.235c9.354 8.16 18.539 16.49 26.284 26.26 1.792 2.952 4.942 5.97 6.217 7.435 2.001 3.579 10.748 12.881 12.516 19.824-4.999 1.573-7.346-1.404-9.736-3.648-33.242-31.219-72.48-50.923-117.031-59.638-35.477-6.94-71.026-5.796-105.891 4.032-58.708 16.55-106.146 48.793-136.848 102.564-19.19 33.61-25.841 70.287-21.774 108.704 4.363 41.226 20.422 77.27 49.1 107.514 1.783 1.881 4.711 3.67 3.704 7.93-12.251-2.873-20.893-11.602-29.714-19.008-25.891-21.737-46.044-48-58.352-79.889-19.252-49.877-18.532-99.671 2.635-148.454 18.347-42.285 49.517-73.851 88.62-97.739 46.032-28.121 96.46-41.868 149.727-35.361 47.948 5.857 86.021 22.983 98.056 29.896 11.414 6.393 26.302 16.785 29.755 19.271 5.503 4.381 9.381 7.34 12.732 10.307z" />
        <path
            d="m226.229 194.102c-28.312 0-54.701 0-82.4 0 3.771-15.915 13.316-25.656 24.686-33.676 13.038-9.195 28.088-13.718 43.865-13.884 47.963-.503 95.933-.346 143.9-.396 1.531-.002 3.063.551 5.966 1.11-15.095 37.142-44.043 48.908-79.884 47.234-3.52 3.901-2.419 7.635-2.427 11.063-.081 34.355-.416 68.716.055 103.065.403 29.414-25.674 54.706-53.761 60.077 0-57.707 0-115.185 0-174.593z" />
    </g>
</svg>