<svg enable-background="new 0 0 500 500" viewBox="0 0 500 500" xmlns="http://www.w3.org/2000/svg">
    <path
        d="m4.535 217.49c16.888-109.076 94.272-183 199.59-210.437 28.532-7.433 75.282-2.429 77.285-2.124 137.39 20.932 228.324 139.021 212.642 276.196-15.284 133.694-144.298 232.571-278.019 213.076-106.459-15.521-187.756-92.766-209.207-198.579-1.329-6.555-6.305-43.747-2.291-78.132zm214.87 65.271v116.537h60.558c0-39.1 0-77.59 0-116.531 7.885-.637 14.937-1.14 21.977-1.789 26.211-2.414 52.296-5.521 77.209-14.733 5.681-2.101 11.175-4.623 15.647-8.809 5.571-5.214 5.604-10.283.124-15.533-4.433-4.246-9.955-6.723-15.611-8.868-19.359-7.342-39.617-10.64-60.043-13.002-12.962-1.499-25.981-2.505-38.769-3.713 0-12.381 0-23.983 0-36.592h82.55c0-18.932 0-36.823 0-54.843-76.13 0-151.588 0-227.289 0v55.296h82.883v36.319c-17.824 1.385-35.279 2.433-52.527 5.237-19.741 3.209-39.628 6.226-57.32 16.362-12.324 7.06-12.287 15.438-.299 22.841 9.919 6.125 21.084 9.051 32.282 11.728 25.386 6.067 51.322 8.082 78.628 10.093z"
        fill="#53ae94" />
    <path
        d="m219.405 282.761c-27.306-2.012-53.243-4.026-78.626-10.093-11.199-2.677-22.363-5.603-32.282-11.728-11.989-7.403-12.025-15.781.299-22.841 17.692-10.136 37.579-13.152 57.32-16.362 17.248-2.804 34.704-3.852 52.527-5.237 0-12.232 0-23.855 0-36.319-27.802 0-55.083 0-82.883 0 0-18.796 0-36.756 0-55.296h227.289v54.843c-27.397 0-54.614 0-82.55 0v36.592c12.788 1.208 25.807 2.214 38.769 3.713 20.425 2.363 40.684 5.66 60.043 13.002 5.656 2.145 11.178 4.622 15.611 8.868 5.481 5.25 5.447 10.319-.124 15.533-4.472 4.186-9.966 6.708-15.647 8.809-24.914 9.212-50.999 12.319-77.209 14.733-7.039.648-14.092 1.151-21.977 1.789v116.531c-20.463 0-40.035 0-60.558 0-.002-38.657-.002-77.136-.002-116.537zm-.275-61.391c-24.653.57-47.72 3.084-70.539 7.814-9.66 2.002-19.303 4.302-27.91 9.367-8.95 5.267-8.843 11.162.169 16.505 6.664 3.951 14.046 6.11 21.532 7.818 48.547 11.079 97.788 11.367 147.136 8.953 24.358-1.192 48.598-3.814 72.211-10.44 6.343-1.78 12.642-3.774 18.057-7.655 6.282-4.503 6.328-9.248.226-13.823-4.212-3.158-9.1-5.08-14.089-6.553-27.25-8.046-55.243-10.96-83.518-11.794-.696-.021-1.411.627-3.032 1.397v39.348c-20.504.737-40.009 1.178-60.242-.359-.001-13.931-.001-26.723-.001-40.578z"
        fill="#fdfefd" />
    <path
        d="m219.13 221.37v40.577c20.234 1.538 39.738 1.096 60.242.359 0-13.641 0-26.642 0-39.348 1.621-.77 2.336-1.418 3.032-1.397 28.275.834 56.268 3.748 83.518 11.794 4.989 1.473 9.877 3.395 14.089 6.553 6.102 4.575 6.057 9.321-.226 13.823-5.415 3.881-11.714 5.875-18.057 7.655-23.613 6.626-47.853 9.248-72.211 10.44-49.348 2.414-98.589 2.126-147.136-8.953-7.486-1.708-14.868-3.867-21.532-7.818-9.012-5.344-9.119-11.239-.169-16.505 8.607-5.065 18.251-7.365 27.91-9.367 22.819-4.729 45.887-7.243 70.54-7.813z"
        fill="#53ae94" />
</svg>