<svg enable-background="new 1000 -1000 2500 2500" viewBox="1000 -1000 2500 2500"
    xmlns="http://www.w3.org/2000/svg">
    <circle cx="2249.764" cy="248" fill="#fff" r="1174.478" />
    <path
        d="m2249.764-959.023c-666.62 0-1207.023 540.403-1207.023 1207.023s540.403 1207.023 1207.023 1207.023 1207.023-540.403 1207.023-1207.023-540.403-1207.023-1207.023-1207.023zm257.583 786.875c51.25 3.75 102.5 17.5 126.25 33.75 18.125 12.5 20 10.625 28.125-24.375 10-40 31.25-92.5 63.75-157.5 24.375-48.125 25-51.875 22.5-97.5-3.125-50.625-11.875-72.5-42.5-105.625-11.25-11.875-18.125-25-16.25-30s3.75-10.625 3.75-11.875 5.625-2.5 11.875-2.5c7.5 0 20.625 11.25 32.5 28.125 33.125 46.25 43.125 37.5 43.125-39.375 0-35 2.5-50 10.625-58.75 12.5-13.75 22.5-14.375 33.125-1.875 6.25 7.5 6.25 15.625.625 36.875-10.625 42.5-8.75 96.875 3.125 101.875 11.875 4.375 41.875-23.125 59.375-55 16.875-29.375 31.875-38.125 52.5-30.625 27.5 10.625 23.125 20-33.125 68.125-46.875 40-56.25 54.375-43.75 66.875 7.5 7.5 13.125 6.25 40-8.125 33.75-17.5 52.5-16.25 52.5 3.75 0 9.375-12.5 16.875-58.125 34.375-32.5 12.5-64.375 28.75-71.875 36.875-15 16.25-41.25 67.5-72.5 143.125-26.875 65.625-52.5 113.75-69.375 132.5-13.75 15-60 24.375-157.5 31.875-45.625 3.75-51.25 3.125-53.75-7.5-3.75-10.625-16.875-81.875-16.875-88.125 0-1.875 23.125-1.25 51.875.625zm-164.375-225c31.875-5 38.75 20.625 38.75 20 16.875 43.125 6.875 96.875 6.875 96.875-22.5-4.375-39.375-31.875-39.375-31.875-13.125-30.625-6.25-85-6.25-85zm-450.625 178.125s48.125 26.25 66.25 54.375c0 0 12.5 29.375 3.125 50.625 0 0-50-23.125-75-61.875 0 .625-16.25-20 5.625-43.125zm-287.5 138.125c64.375 52.5 82.5 60 99.375 43.125 11.875-11.875 8.75-34.375-11.25-73.75-17.5-35-23.75-67.5-14.375-76.875 6.25-6.875 22.5-5 33.75 3.75 13.125 10.625 24.375 45 24.375 76.875 0 31.25 10.625 63.125 18.125 55 3.125-3.125 10-20.625 16.25-38.75 10-31.25 28.125-50 40.625-41.875 10.625 6.875 6.875 43.125-6.875 65.625-18.75 30.625-18.75 88.75.625 127.5 19.375 37.5 59.375 78.75 76.875 78.75 10.625-.625 23.125-15.625 57.5-73.75l43.75-73.125 6.875 43.75c6.875 49.375 3.75 64.375-24.375 112.5-31.25 54.375-66.25 96.875-79.375 96.875-15 0-48.75-33.125-77.5-75.625-11.25-17.5-42.5-51.25-68.75-75.625l-48.125-44.375-29.375 5c-16.25 3.125-40.625 5.625-54.375 5.625-22.5.625-25-.625-26.875-16.25-1.875-13.75 1.25-18.125 14.375-21.25 9.375-2.5 28.75-2.5 43.125-.625 17.5 2.5 30.625 1.25 37.5-3.75 10.625-7.5 10-8.75-.625-21.25-6.25-7.5-25-17.5-42.5-23.125-43.75-13.75-71.875-32.5-71.875-46.875 0-18.75 23.75-23.125 43.125-7.5zm552.5 735.625c-129.375 39.375-192.5 46.875-270.625 31.875-25.625-5-48.75-8.125-51.25-6.875-1.875 1.25 0 15.625 5 31.875 15.625 50.625 11.25 81.875-25.625 193.125-19.375 56.875-37.5 123.125-40 146.875-3.125 23.75-9.375 47.5-13.125 52.5-16.25 19.375-34.375 10.625-63.75-30-36.875-50-95-105-128.75-122.5-14.375-7.5-61.875-21.25-105-31.25-77.5-17.5-102.5-29.375-93.125-44.375 3.125-5.625 16.875-6.25 46.875-3.75 55 5.625 59.375-1.875 22.5-36.25-35.625-32.5-85-62.5-136.25-83.125-46.875-18.75-55-25-55-40 0-11.875 17.5-24.375 34.375-24.375 5.625 0 30.625 16.875 55 38.125 51.25 43.125 86.875 63.75 106.25 60.625 35.625-5-6.875-86.875-73.75-141.875-24.375-20-48.125-44.375-53.125-53.75-8.125-15.625-8.125-17.5 3.125-25.625 6.875-5 22.5-8.75 34.375-7.5 19.375 1.875 23.75 5.625 46.875 45.625 13.75 24.375 33.75 56.875 44.375 71.875 23.125 32.5 76.25 87.5 84.375 87.5s1.25-54.375-13.75-111.25c-13.75-51.875-15-76.875-4.375-87.5 8.125-8.125 35.625-10 46.875-2.5 4.375 2.5 9.375 38.125 13.125 91.875 6.875 98.125 11.875 116.25 36.25 131.875 15.625 10.625 16.875 10.625 24.375.625 3.75-5.625 8.125-28.75 8.75-51.875 1.875-61.875 16.875-89.375 43.75-80.625 20.625 6.25 22.5 31.875 6.875 80.625-18.125 56.875-21.25 98.125-13.125 153.75 11.875 75.625 40.625 143.125 55 128.75 3.125-2.5 5-86.875 5.625-186.875.625-156.25 1.875-187.5 11.25-216.875 17.5-53.75 21.25-56.25 90-56.25 113.125 0 323.125 30 351.25 50 30 21.25 23.75 28.75-35.625 47.5zm248.75-28.125c-80 41.875-162.5 11.25-226.875-83.75-48.125-70.625-65.625-154.375-48.75-235.625 9.375-43.75 14.375-110 10-126.25-1.875-8.125-21.875-33.125-44.375-56.875-70-71.875-143.75-200.625-129.375-223.75 4.375-6.25 7.5-25.625 7.5-42.5 0-34.375-10-48.125-53.75-72.5-28.75-16.25-30.625-32.5-6.875-77.5 13.125-26.25 20.625-31.875 86.25-65 66.875-33.75 96.875-43.125 196.25-60.625 41.25-7.5 71.25-6.875 93.75 2.5 26.25 11.25 33.75 25.625 38.125 74.375 4.375 46.25 13.125 62.5 41.25 72.5 11.25 4.375 26.875 10.625 34.375 13.125 18.125 7.5 23.125 34.375 42.5 209.375 20.625 190 25 216.875 44.375 275.625 29.375 89.375 26.875 193.125-7.5 297.5-17.5 53.75-36.875 78.125-76.875 99.375zm598.75 87.5c12.5 10 25.625 11.875 87.5 11.875 55.625 0 76.25 2.5 85.625 9.375 11.875 9.375 11.25 10-6.25 25.625-11.25 9.375-21.875 14.375-28.125 11.875-27.5-11.25-120.625-28.125-154.375-28.125-60.625 0-65.625 21.875-10.625 43.125 25 10 34.375 21.25 29.375 34.375-5.625 15-20.625 12.5-75-12.5-110-50.625-130-53.125-261.875-36.25-62.5 8.125-80.625 8.75-87.5 2.5-13.75-11.25-11.25-21.875 8.125-38.75 15.625-13.125 136.25-235 130.625-240-3.125-3.125-125 40-213.125 76.25-11.25 4.375-11.25 3.75 0-13.75 41.25-66.875 160.625-141.875 299.375-188.75 71.875-24.375 76.25-25 106.25-24.375 20 1.25 25.625 3.75 26.875 13.75 1.875 15.625-23.125 54.375-61.875 95-15.625 16.25-60.625 68.125-100 115-116.25 138.75-128.125 153.75-123.125 158.75s103.75-38.125 126.25-55c28.125-21.875 79.375-75.625 88.75-93.75 4.375-7.5 10.625-30.625 15-50.625 7.5-37.5 28.125-66.25 46.875-66.25 12.5 0 18.125 14.375 13.125 33.125-1.875 7.5-15.625 35-31.25 60.625s-26.25 48.75-25 51.25c6.25 9.375 29.375 5 56.25-10.625 15.625-8.75 38.125-31.875 55-55.625 33.125-46.25 55.625-66.25 75.625-66.25 16.875 0 36.875 21.25 32.5 33.75-1.875 5-30.625 29.375-63.125 53.75-56.25 41.875-73.75 63.75-63.75 80 5.625 9.375 57.5-3.125 112.5-27.5 93.75-41.875 119.375-44.375 134.375-16.25 12.5 23.125-18.125 37.5-138.125 63.75-33.125 7.5-69.375 19.375-80.625 26.25l-20.625 12.5z"
        fill="#399b32" />
    <g fill="#fff">
        <path
            d="m2388.597-280.273s10-53.75-6.875-96.875c0 .625-6.875-25-38.75-20 0 0-6.875 54.375 6.25 85 0 0 16.875 27.5 39.375 31.875z" />
        <path
            d="m1886.722-175.898c25 38.75 75 61.875 75 61.875 9.375-21.25-3.125-50.625-3.125-50.625-18.125-28.125-66.25-54.375-66.25-54.375-21.875 23.125-5.625 43.75-5.625 43.125z" />
    </g>
</svg>