<svg enable-background="new 0 0 500 500" viewBox="0 0 500 500" xmlns="http://www.w3.org/2000/svg">
    <linearGradient gradientUnits="userSpaceOnUse" id="a" x1="116.6846" x2="428.069" y1="213.3877"
        y2="506.3311">
        <stop offset="0" stop-color="#d72c13" />
        <stop offset=".05612803" stop-color="#df3e19" />
        <stop offset=".1461" stop-color="#e85521" />
        <stop offset=".2514" stop-color="#ef6628" />
        <stop offset=".3797" stop-color="#f4722c" />
        <stop offset=".5556" stop-color="#f7792e" />
        <stop offset="1" stop-color="#f87b2f" />
    </linearGradient>
    <linearGradient gradientUnits="userSpaceOnUse" id="b" x1="246.9787" x2="374.8911" y1="477.5682"
        y2="273.3365">
        <stop offset=".4681" stop-color="#f46111" />
        <stop offset=".5177" stop-color="#ec5910" />
        <stop offset="1" stop-color="#9f0902" />
    </linearGradient>
    <path
        d="m235.4 22.2 164.1 274.7s20.1 34.3 44.8 65.3c28 35 52.4 47.8 52.4 47.8l-23.2 19.9c-67.2 57.4-166.7 55.3-231.4-4.9l-13.8-13c-56.1-52.2-140.7-59-204.3-16.3l-20.7 13.9z"
        fill="url(#a)" />
    <path
        d="m441.9 421c-56 0-112-97.5-112-97.5l-94.7-158.3-121.4 202.6c41.3-.5 82.5 14.5 114.5 44.2l13.8 12.9c64.7 60.2 164.2 62.3 231.4 4.9l23.2-19.9s-21.7 11.1-54.8 11.1z"
        fill="url(#b)" />
</svg>