<svg enable-background="new 1000 -1000 2500 2500" viewBox="1000 -1000 2500 2500"
    xmlns="http://www.w3.org/2000/svg">
    <path
        d="m1877.835 834.022c109.057 77.388 309.024-19.105 450.781-215.403 2-2.601 4.147-5.031 6.024-7.755 77.977-111.425 51.105-265.477-59.89-344.251-110.996-78.774-264.164-52.283-342.031 59.118-1.914 2.736-3.485 5.583-5.264 8.368-135.818 200.544-158.665 422.609-49.62 499.923"
        fill="#ed8117" />
    <path
        d="m1989.395 685.59c75.903 52.553 216.028-14.332 315.858-149.401 1.46-1.791 2.957-3.46 4.319-5.337 54.137-74.845 37.35-179.406-37.495-233.543-.991-.717-1.99-1.423-2.996-2.118-77.302-53.571-184.482-34.81-239.366 41.841-1.399 1.89-2.454 3.841-3.681 5.73-95.744 137.953-112.591 290.238-36.639 342.828"
        fill="#eebb18" />
    <path
        d="m1518.099 47.812c-11.448 14.724-17.092 36.909 14.012 27.227 88.725-27.596 289.87-59.805 523.347 102.149 315.343 218.703 289.735-348.153 289.735-348.153-74.885-51.89-451.677-262.52-827.094 218.777m1198.756 854.579c1.337 32.037 20.246 19.448 30.16 3.963 324.595-507.273 1.423-786.738-72.247-838.886 0 0-538.782 163.978-228.642 383.761 229.637 162.716 266.852 359.811 270.729 451.162"
        fill="#5b6a72" />
    <path
        d="m2389.292 537.207c61.572 45.522 98.812 52.946 143.561-2.331s280.091-331.294 515.211-635.594 91.695-827.941 63.473-848.8l-.368.442.245-.552c-28.221-20.859-546.795 13.853-740.847 348.472s-362.656 659.926-397.197 722.7-15.35 97.155 46.209 142.641c28.05 20.675 107.032 79.032 184.85 136.505s156.813 115.842 184.863 136.517"
        fill="#dcf2f9" />
    <path
        d="m2458.679 604.447h-2.552c-28.099-.761-57.4-13.325-97.965-42.038-28.528-20.172-107.977-76.394-187.206-132.518l-4.663-3.301-124.64-88.173-67.29-47.608c-40.492-28.688-62.148-52.136-72.283-78.431-15.865-41.13 1.227-78.848 15.424-103.646 7.448-12.982 21.08-37.534 39.939-71.51 69.314-124.898 213.501-384.804 372.878-648.048 57.351-94.738 145.046-174.236 260.655-236.409 61.105-32.835 163.193-78.038 302.214-106.934 54.958-11.423 111.29-19.166 158.616-21.829 72.541-4.074 85.413 5.055 91.609 9.448l.577.417c6.356 4.528 19.105 14.871 39.265 83.363 13.497 45.903 25.215 102.051 32.994 158.101 21.35 153.745 32.528 442.192-132.432 646.637-193.083 239.415-388.117 463.382-481.849 570.955-25.522 29.313-43.964 50.479-53.621 61.903-14.062 16.626-27.865 28.651-42.209 36.81-14.426 8.351-30.792 12.768-47.461 12.811m627.557-1520.271c-50.786 0-161.794 10.466-286.987 48.798-135.708 41.51-318.153 125.192-416.56 287.87-158.812 262.25-302.656 521.481-371.786 646.048-18.982 34.209-32.7 58.897-40.369 72.283-16.516 28.786-14.724 42.479-11.411 51.191 5.338 13.828 21.399 29.878 50.553 50.516l67.302 47.608 124.64 88.173 4.675 3.313c79.228 56.075 158.665 112.284 187.193 132.518 60.124 42.541 77.952 38.577 108.161 2.883 9.939-11.755 28.504-33.129 54.197-62.578 93.486-107.327 288.005-330.668 480.315-569.126 119.389-148.003 136.37-348.853 129.61-491.285-7.362-154.285-44.087-277.011-58.762-307.343-6.904-.663-13.838-.97-20.773-.92"
        fill="#5b6a72" />
    <path
        d="m2579.147-213.248c98.247 69.253 234.004 45.706 303.073-52.553s45.633-234.016-52.614-303.269-233.955-45.755-303.073 52.541-45.596 234.016 52.614 303.281"
        fill="#fefefe" />
    <path
        d="m2703.947-142.768c-137.212-.402-248.119-111.96-247.717-249.173.149-50.933 15.949-100.59 45.26-142.245 78.821-112.05 233.553-138.987 345.603-60.166.09.063.179.126.269.189 111.941 78.909 138.861 234.139 60.013 346.018-37.756 53.972-95.551 90.578-160.481 101.646-14.183 2.472-28.551 3.72-42.947 3.731m.773-435.419c-10.837 0-21.654.931-32.332 2.785-48.847 8.347-92.319 35.903-120.714 76.517-59.302 84.271-39.044 201.157 45.167 260.544 84.291 59.438 200.807 39.291 260.245-45 .03-.043.061-.086.091-.129 59.375-84.259 39.093-201.12-45.191-260.532-31.351-22.23-68.833-34.175-107.266-34.185"
        fill="#5b6a72" />
    <path
        d="m1271.837 1459.198 344.653-484.975 25.013 17.777-344.653 484.975zm197.598-61.819 201.617-285.043 25.164 17.799-201.616 285.043z"
        fill="#979797" />
</svg>