<svg enable-background="new 0 0 500 500" viewBox="0 0 500 500" xmlns="http://www.w3.org/2000/svg">
    <path
        d="m378.172 6.799c2.154.223 4.31.426 6.461.673 14.316 1.643 27.694 5.92 39.877 13.807 7.265 4.704 14.025 9.981 19.985 16.25 13.688 14.399 22.415 31.383 26.333 50.848 1.636 8.128 2.19 16.354 1.723 24.611-.997 17.62-6.209 33.93-15.604 48.895-3.912 6.231-8.475 11.956-13.626 17.173-12.855 13.017-28.086 21.889-46.014 25.993-8.138 1.863-16.352 3.008-24.69 3.455-4.213.226-8.445-.078-12.643.597-12.159 1.954-21.624 7.931-27.879 18.649-3.197 5.478-4.863 11.444-5.099 17.794-.191 5.136.162 10.214 1.72 15.151 3.556 11.273 11.08 18.823 21.919 23.195 5.089 2.053 10.403 2.953 15.906 2.986 11.705.071 23.265 1.31 34.579 4.497 13.219 3.723 25.027 10.011 35.474 18.939 11.145 9.524 19.944 20.826 26.239 34.06 4.755 9.996 7.767 20.5 9.128 31.497.714 5.774.892 11.562.586 17.343-.658 12.452-3.537 24.403-8.604 35.814-3.132 7.054-6.981 13.694-11.642 19.839-8.897 11.731-19.791 21.188-32.674 28.333-10.373 5.752-21.401 9.621-33.135 11.432-11.771 1.816-23.484 1.488-35.132-.998-15.339-3.274-29.129-9.909-41.479-19.495-11.165-8.666-20.156-19.235-26.933-31.672-5.977-10.97-9.79-22.651-11.468-35.008-1.943-14.309-.719-28.396 3.33-42.247 2.539-8.687 6.155-16.91 10.383-24.905 2.869-5.426 4.375-11.28 4.626-17.466.324-7.99-1.281-15.506-5.132-22.518-3.909-7.119-9.5-12.514-16.781-16.128-5.931-2.944-12.16-4.575-18.843-4.36-6.406.206-12.248 2.144-17.643 5.498-6.593 4.099-11.723 9.612-15.534 16.365-3.389 6.005-7.235 11.702-11.606 17.035-8.045 9.818-17.555 17.854-28.726 23.966-10.804 5.911-22.184 10.05-34.371 11.892-7.704 1.164-15.433 1.377-23.206.663-13.624-1.251-26.388-5.26-38.378-11.765-7.524-4.082-14.446-9.023-20.765-14.824-9.357-8.589-16.873-18.552-22.487-29.926-5.135-10.404-8.407-21.382-9.773-32.923-2.042-17.257.214-33.949 6.677-50.048 4.616-11.497 11.177-21.782 19.593-30.914 6.929-7.519 14.784-13.862 23.556-19.049 11.489-6.793 23.85-11.188 37.099-13.032 5.593-.778 11.209-1.124 16.842-.896 12.305.498 24.091 3.273 35.443 8.073 9.998 4.228 18.605 10.46 26.59 17.686 9.074 8.212 17.027 17.418 24.426 27.137 1.853 2.434 3.402 5.081 5.393 7.414 6.889 8.07 15.528 12.997 26.056 14.516 8.734 1.26 16.829-.572 24.477-4.909 4.05-2.297 7.936-4.757 11.157-8.15 5.205-5.483 8.093-12.033 8.797-19.536 1.015-10.818-2.072-20.629-7.193-30.021-6.643-12.183-11.757-24.956-13.965-38.752-1.034-6.463-1.091-12.961-.62-19.478.592-8.189 2.195-16.178 4.78-23.956 4.092-12.312 10.286-23.468 18.625-33.431 7.96-9.511 17.39-17.235 28.07-23.502 9.931-5.828 20.688-9.197 31.991-10.987 3.096-.49 6.209-.882 9.348-1.002.313-.012.623-.118.934-.181 4.508.003 9.015.003 13.522.003z"
        fill="#26a2db" />
</svg>