<svg enable-background="new 0 0 500 500" viewBox="0 0 500 500" xmlns="http://www.w3.org/2000/svg">
    <path d="m339.075 2.5 123.761 72.339-123.761 68.853-121.145-70.596z" fill="#244972" />
    <path d="m462.836 74.839v140.32l-122.453 70.596v-142.063z" fill="#1b2f59" />
    <path d="m340.383 285.755-43.142-23.532v-91.513l-79.311-43.577v-54.037l122.453 70.596z"
        fill="#69ffbd" />
    <path d="m464.976 425.356-124.528 71.01 2.252-141.606 121.711-69.618z" fill="#244972" />
    <path d="m340.448 496.366-121.521-70.16.089-141.346 123.031 71.032z" fill="#1b2f59" />
    <path d="m219.016 284.86 41.95-25.596 79.253 45.757 77.395-46.897 46.797 27.018-122.364 70.75z"
        fill="#69ffbd" />
    <path d="m39.814 324.973-1.735-143.341 122.76 70.622 1.882 140.202z" fill="#244972" />
    <path d="m38.079 181.632 120.278-72.27 123.58 68.604-121.771 73.168z" fill="#1b2f59" />
    <path d="m281.937 177.966 2.049 49.099-78.442 47.133 3.495 90.427-46.318 27.831-2.555-141.322z"
        fill="#69ffbd" />
</svg>