<svg enable-background="new 0 0 500 500" viewBox="0 0 500 500" xmlns="http://www.w3.org/2000/svg">
    <linearGradient gradientUnits="userSpaceOnUse" id="a" x1="35.8592" x2="463.5714" y1="249.9523"
        y2="249.9523">
        <stop offset="0" stop-color="#1efcae" />
        <stop offset="1" stop-color="#40fff9" />
    </linearGradient>
    <path
        d="m36.601 126.394c70.516-40.868 141.431-81.968 212.908-123.394 23.886 13.07 189.363 109.104 213.576 123.138.153 2.076.487 4.502.487 6.927.009 65.548-.365 238.316-.553 240.748-71.226 41.111-142.067 81.998-213.261 123.091-71.169-41.237-142.234-82.414-212.942-123.384-1.137-4.821-1.324-240.472-.215-247.126zm203.832-94.712c-2.008.705-173.829 100.958-173.829 100.958l129.098 73.57s29.563-51.583 42.402-73.555c1.519-2.599 2.335-5.102 2.329-8.084-.058-29.137.243-90.617 0-92.889zm-184.449 117.303.694 200.913s68.151-39.166 80.437-45.747c7.163-3.837 4.314-2.93 8.303-10.165 11.718-21.255 38.489-68.428 39.264-70.401-42.853-24.84-128.698-74.6-128.698-74.6zm386.706.782-127.524 75.141s28.764 50.584 41.582 73.015c1.396 2.443 3.201 4.19 5.579 5.557 10.436 5.999 81.099 46.387 81.099 46.387zm-182.316-118.085s-.685 64.045-.543 93.554c.012 2.555.804 5.298 1.932 7.613 2.006 4.115 43.481 73.675 43.481 73.675l127.5-74.528zm-18.424 435.819v-92.93l-93.309-54.025-81.915 47.174zm17.533-92.616-.452 92.616 174.578-100.015s-54.846-32.08-81.655-47.077c-14.884 7.078-92.471 54.476-92.471 54.476zm-17.497-22.873v-85.999s-50.032 28.093-73.204 42.135c.765 1.211 73.204 43.864 73.204 43.864zm88.273-43.32-70.013-42.679.373 85.999zm-91.071-136.131-26.784 43.91 26.784 15.542zm-62.676 108.112 51.927-31.787-24.777-14.389zm146.585-.962-26.997-45.182-26.088 14.912zm-62.683-107.15c-.258 1.434-.039 58.285.502 59.578 7.43-4.253 24.31-14.781 25.939-16.184-8.39-14.602-25.515-43.037-26.441-43.394z"
        fill="url(#a)" />
</svg>