<svg xmlns:xlink="http://www.w3.org/1999/xlink" enable-background="new 0 0 500 500"
    viewBox="0 0 500 500" xmlns="http://www.w3.org/2000/svg">
    <linearGradient id="a">
        <stop offset="0" stop-color="#78f9db" />
        <stop offset="1" stop-color="#5bcadb" />
    </linearGradient>
    <linearGradient gradientUnits="userSpaceOnUse" id="b" x1="4.5027" x2="493.2006" y1="249.7821"
        y2="249.7821" xlink:href="#a" />
    <linearGradient gradientUnits="userSpaceOnUse" id="c" x1="102.0011" x2="393.3741" y1="250.0826"
        y2="250.0826" xlink:href="#a" />
    <linearGradient gradientUnits="userSpaceOnUse" id="d" x1="210.3486" x2="285.7272" y1="249.1875"
        y2="249.1875" xlink:href="#a" />
    <path
        d="m248.9 5.4c-135 0-244.4 109.4-244.4 244.3 0 135 109.4 244.3 244.3 244.3 0 0 31.4 1.4 65.7-5.3 25.9-5.1 53.5-11.4 71.5-11.4 42.4 0 68.5 10.8 83.5 10.8s23.6-9 23.6-20v-218.4c.1-134.9-109.3-244.3-244.2-244.3zm1 451.3c-114.1 0-206.6-92.5-206.6-206.6s92.5-206.6 206.6-206.6 206.6 92.5 206.6 206.6-92.5 206.6-206.6 206.6z"
        fill="url(#b)" />
    <path
        d="m249.9 398c-81.6 0-147.9-66.4-147.9-147.9s66.3-147.9 147.9-147.9c66.9 0 125.6 45.1 142.9 109.6 2.6 9.8-3.2 19.9-13 22.5s-19.9-3.2-22.5-13c-12.9-48.5-57.1-82.3-107.3-82.3-61.3 0-111.1 49.8-111.1 111.1s49.8 111.1 111.1 111.1c47.1 0 89.2-29.8 104.8-74.2 3.4-9.6 13.9-14.6 23.4-11.3 9.6 3.4 14.6 13.9 11.3 23.4-20.9 59.1-76.9 98.9-139.6 98.9z"
        fill="url(#c)" />
    <path
        d="m226 220.2-12-13.1s12-15.7 32.8-15.7 35.3 12.7 35.3 28.8c0 20.4-17.1 27.3-17.1 27.3s20.8 10.2 20.8 29.9c0 18.2-20 29.5-38.2 29.5s-26.9-6.2-30.2-8.7-6.9-6.9-6.9-6.9l14.2-13.1s9.8 9.5 20 9.5 16-6.2 16-14.6-9.1-14.9-14.6-14.9-18.2 0-18.2 0v-18.6h17.8s12.7.4 12.7-13.8-12-13.1-15.7-13.1c-3.6-.1-12 2.8-16.7 7.5z"
        fill="url(#d)" />
</svg>