<svg enable-background="new 0 0 500 500" viewBox="0 0 500 500" xmlns="http://www.w3.org/2000/svg">
    <path
        d="m7.083 350.503c-.59 5.491.739 10.971 4.068 16.502 16.85 27.998 33.665 56.021 50.199 84.206 2.305 3.929 5.015 6.933 8.163 9.101l64.167-109.809z"
        fill="#5a51fa" />
    <path
        d="m364.301 350.503c-.018 0-.035 0-.053 0l64.543 111.377c3.36-1.709 6.268-4.334 8.558-8.214 17.702-30.005 35.472-59.969 53.219-89.947 2.609-4.406 3.9-8.813 3.939-13.217h-130.206z"
        fill="#5564fb" />
    <path
        d="m249.671 152.786c.439-.751.875-1.499 1.314-2.251 37.949 66.968 75.347 132.964 113.316 199.967h130.205c.04-4.604-1.29-9.205-3.955-13.801-38.128-65.75-147.971-254.984-164.624-283.932-3.051-5.304-6.765-9.339-11.144-12.189l-65.339 111.814z"
        fill="#7087fe" />
    <path
        d="m314.783 40.581c-5.433-3.536-11.892-5.242-19.407-5.226-31.387.067-62.775-.071-94.161.071-6.458.029-12.133 1.516-16.984 4.435l65.213 112.533z"
        fill="#6b85fe" />
    <path
        d="m172.573 52.281c-8.411 14.923-135.256 240.178-161.83 287.33-2.056 3.647-3.271 7.272-3.66 10.892h126.597l94.872-162.354-44.32-148.288c-4.67 2.81-8.574 6.947-11.659 12.42z"
        fill="#8186fe" />
    <path d="m184.231 39.861 44.32 148.288 20.893-35.754z" fill="#484ec0" />
    <path
        d="m364.248 350.503c-11.602 0-23.168 0-34.72 0l97.533 112.153c.588-.236 1.167-.489 1.73-.775z"
        fill="#4233c6" />
    <path
        d="m134.261 350.503h-.581l-64.167 109.809c4.329 2.981 9.492 4.373 15.619 4.333 17.375-.116 309.701.005 330.721-.058 4.048-.012 7.825-.572 11.208-1.931l-97.533-112.153c-65.299 0-129.924 0-195.267 0z"
        fill="#6c66fc" />
</svg>