<svg enable-background="new 0 0 500 500" viewBox="0 0 500 500" xmlns="http://www.w3.org/2000/svg">
    <g fill="#ed001b">
        <path
            d="m105.7 194.1c21.8-55.1 75.6-94 138.4-94s116.6 38.9 138.4 94h102c-24.9-109.8-123.1-191.7-240.4-191.7s-215.4 81.9-240.4 191.7z" />
        <path
            d="m485.1 301h-90.5-11c-21.1 56.5-75.6 96.8-139.5 96.8s-118.4-40.3-139.5-96.8h-101.5c23.9 111.1 122.7 194.5 241 194.5 56.7 0 108.8-19.1 150.5-51.3v28.1c0 12.5 10.1 22.6 22.6 22.6h50.5c12.5 0 22.6-10.1 22.6-22.6 0 0 4.4-116.1 5.7-171.3z" />
    </g>
</svg>