<svg enable-background="new 0 0 500 500" viewBox="0 0 500 500" xmlns="http://www.w3.org/2000/svg">
    <ellipse cx="250.8" cy="250" fill="#5fbcd2" rx="246.1" ry="117.8"
        transform="matrix(.3209 -.9471 .9471 .3209 -66.4884 407.2434)" />
    <ellipse cx="250.8" cy="250" fill="#2c89a0" rx="246.1" ry="117.8"
        transform="matrix(.7958 -.6056 .6056 .7958 -100.1825 202.9209)" />
    <ellipse cx="250.8" cy="250" fill="#154450" rx="246.1" ry="117.8"
        transform="matrix(.994 -.1094 .1094 .994 -25.8372 28.9249)" />
    <path
        d="m231.9 231.7c3.9-9.9 1.2-19-12.2-22.1-15.1-3.4-30.2-1.9-45 1.7-7.4 1.8-14.5 4.6-22.4 7.2 2.1-11.1 4.1-21.8 6.3-33.2 6.9-1.4 13.8-3 20.7-4.1 16.4-2.6 32.9-4.3 49.6-2.2 15.7 1.9 28.7 8 37.2 21.9.2.3.7.4 1.4.8 1.6-1.3 3.4-2.7 5.2-4.1 17.4-14 37.1-21.8 59.8-20.8 4.3.2 8.7.7 12.9 1.7 20.5 5 31.1 21.2 28.3 42.6-2.6 20.2-14.2 33.1-32.5 40.5-12.7 5.1-26 7.2-39.5 7.5-10.8.2-21.5 0-32 0-4.1 10.8-1.2 17.7 9 21.1 10.9 3.8 22.1 3 33.3 1.8 11.6-1.2 22.8-4.1 33.5-9 .9-.4 1.9-.5 3.6-1-2.2 11.3-4.2 22-6.3 33.4-7 1.4-13.8 3-20.7 4.1-16.2 2.5-32.5 4.2-49 2.3-15.9-1.9-29.1-7.9-37.8-22-.2-.3-.7-.4-1.5-.9-1.7 1.4-3.6 3-5.5 4.5-20.3 16.1-43.1 23.7-69.1 19.3-22.5-3.8-34.5-21-31.3-43.8 3.2-23.2 17.9-35.5 38.9-42.2 10.9-3.5 22.2-5.1 33.7-5.2 10.2.1 20.7.2 31.4.2zm-5.3 25.7c-12.1.7-23.6 1.1-35.1 2.2-3.7.4-7.6 2.3-10.9 4.2-6.6 3.9-9.1 11.2-7.2 19 1.5 6.3 7.1 10.6 14.7 11.3 21.1 2 38.3-13.8 38.5-36.7zm47.7-14.5c12.2 0 24 1 35.6-1.6 3.6-.8 7.2-2.2 10.3-4.1 6.7-4.1 9.3-11.8 7.2-19.6-1.7-6.2-7.4-10.3-15.1-10.9-21-1.5-37.5 13.9-38 36.2z"
        fill="#fff" />
</svg>