<svg enable-background="new 0 0 500 500" viewBox="0 0 500 500" xmlns="http://www.w3.org/2000/svg">
    <linearGradient gradientUnits="userSpaceOnUse" id="a" x1="222.0431" x2="222.0431" y1="492.958"
        y2="237.8842">
        <stop offset="0" stop-color="#8d8d8d" />
        <stop offset=".9996" stop-color="#504d4f" />
    </linearGradient>
    <linearGradient gradientUnits="userSpaceOnUse" id="b" x1="250.2235" x2="250.2235" y1="495.2887"
        y2="56.7237">
        <stop offset="0" stop-color="#d3d3d3" />
        <stop offset=".9996" stop-color="#3b3a3c" />
    </linearGradient>
    <path
        d="m22.2 493c-.5-5-4-42.8 32.2-92.9 32.3-44.7 110.7-74.2 181.6-98.4l6.3-2.1c47.7-16.3 115.2-46.8 130.8-61.6l49.1 51.8c-32 30.3-124 66.1-156.7 77.3l-6.4 2.2c-34.2 11.7-125.2 42.7-146.8 72.7-20 27.7-19 50.7-19 50.9z"
        fill="url(#a)" />
    <path
        d="m355.4 495.3h-71.4c0-29-9.8-53.4-17.6-73.1-1.1-2.7-2.1-5.3-3.1-7.8-4.3-11.1-22.3-37.9-36.7-59.3-8.1-12.1-16.6-24.6-23.5-35.7-2.3-3.6-4.7-7.3-7.1-11.1-21.4-32.9-50.7-78-50.7-145.6 0-38.6 15.1-77.2 41.5-106l52.6 48.3c-14.2 15.5-22.7 37.1-22.7 57.7 0 46.4 19.9 77.1 39.2 106.7 2.7 4.1 5.3 8.1 7.7 12 6.4 10.2 14.2 21.7 22.4 33.9 18.9 28.2 36.8 54.8 44 73.3.9 2.3 1.8 4.7 2.8 7.2 8.9 22.6 22.6 56.8 22.6 99.5z"
        fill="url(#b)" />
    <path
        d="m422.2 289.7-49.1-51.8c19-18 32.4-33.7 32.4-72.8 0-55.5-45.8-89.8-88.2-89.8-33.8 0-60 10-78 29.6l-52.6-48.3c22.1-24.1 62.7-52.8 130.7-52.8 45.1 0 86.6 18.4 116.8 51.7 27.2 30.1 42.9 70 42.9 109.5-.2 64.1-26.5 97.8-54.9 124.7z"
        fill="#ff36af" />
</svg>