<svg xmlns:xlink="http://www.w3.org/1999/xlink" enable-background="new 0 0 500 500"
    viewBox="0 0 500 500" xmlns="http://www.w3.org/2000/svg">
    <linearGradient gradientUnits="userSpaceOnUse" id="a" x1="292.2639" x2="50.3534" y1="374.9876"
        y2="374.9876">
        <stop offset="0" stop-color="#00aae7" />
        <stop offset=".8002" stop-color="#14418d" />
    </linearGradient>
    <linearGradient id="b">
        <stop offset="0" stop-color="#00aae7" />
        <stop offset="1" stop-color="#02509c" />
    </linearGradient>
    <linearGradient gradientUnits="userSpaceOnUse" id="c" x1="126.0773" x2="126.0773" y1="408.6054"
        y2="88.4357" xlink:href="#b" />
    <linearGradient gradientUnits="userSpaceOnUse" id="d" x1="324.3208" x2="324.3208" y1="88.4357"
        y2="408.6054" xlink:href="#b" />
    <linearGradient gradientUnits="userSpaceOnUse" id="e" x1="443.0663" x2="443.0663" y1="408.6054"
        y2="88.4357">
        <stop offset="0" stop-color="#01aae1" />
        <stop offset="1" stop-color="#005da3" />
    </linearGradient>
    <path d="m50.4 408.6h232.8c7.3 0 11.6-8.1 7.6-14.2l-35.4-53h-205z" fill="url(#a)" />
    <path
        d="m38 408.6s160.9 0 96.2 0c-19.3 0-27.3-12-30.6-24-3.2-11.8-1.4-24.4 4.5-35.2l141.2-261h-66.3c-18.9 0-36.2 10.3-45.2 26.9l-130.6 241.6c-12.6 23.4 4.3 51.7 30.8 51.7z"
        fill="url(#c)" />
    <path
        d="m471.9 408.6h-82.5c-8.8 0-17-4.8-21.2-12.6l-142.1-262.8s-26.5-44.8-42.2-44.8c-37.8 0 85.5 0 85.5 0 18.1 0 34.7 9.9 43.3 25.8z"
        fill="url(#d)" />
    <path
        d="m482.5 408.6h-90.4c21.1 0 20.5-25.3 20.5-25.3l2.8-280.3c0-8.1 6.6-14.7 14.7-14.7h52.5c8.1 0 14.7 6.6 14.7 14.7v290.8c-.1 8.2-6.7 14.8-14.8 14.8z"
        fill="url(#e)" />
</svg>