<svg enable-background="new 0 0 500 500" viewBox="0 0 500 500" xmlns="http://www.w3.org/2000/svg">
    <linearGradient gradientTransform="matrix(1 0 0 -1 0 502.74)" gradientUnits="userSpaceOnUse"
        id="a" x1="25.54" x2="474.46" y1="252.248" y2="252.248">
        <stop offset="0" stop-color="#e168fd" />
        <stop offset="1" stop-color="#7b00fc" />
    </linearGradient>
    <path
        d="m250 498.9c-12.2 0-24.3-3.2-34.9-9.3l-154.7-89.4c-21.6-12.5-34.9-35.5-34.9-60.5v-178.5c0-24.9 13.3-48 34.9-60.5l154.7-89.3c21.6-12.4 48.2-12.4 69.8 0l154.7 89.3c21.6 12.5 34.9 35.5 34.9 60.5v178.6c0 24.9-13.3 48-34.9 60.5l-154.7 89.3c-10.6 6.1-22.7 9.3-34.9 9.3zm0-472.6c-8 0-15.9 2.1-22.8 6l-154.7 89.4c-14.1 8.2-22.8 23.2-22.8 39.5v178.6c.1 16.2 8.7 31.2 22.8 39.3l154.7 89.4c14.1 8.1 31.4 8.1 45.5 0l154.7-89.3c14-8.1 22.7-23.1 22.8-39.3v-178.7c0-16.3-8.7-31.3-22.8-39.5l-154.6-89.3c-7-4-14.8-6.1-22.8-6.1zm0 391.5c-6.6 0-13.1-1.7-18.8-5.1l-112.4-64.7c-11.6-6.8-18.7-19.2-18.7-32.6v-129.8c0-13.4 7.1-25.8 18.7-32.6l112.4-64.8c11.7-6.7 26-6.7 37.7 0l112.3 64.8c11.6 6.7 18.8 19.2 18.8 32.6v129.7c0 13.4-7.2 25.9-18.8 32.6l-112.4 64.8c-5.7 3.4-12.2 5.1-18.8 5.1zm0-316.5c-3.4 0-6.8.9-9.7 2.6l-112.4 64.9c-6 3.5-9.6 10-9.6 16.9v129.7c0 7 3.7 13.4 9.8 16.9l112.3 64.8c6 3.5 13.5 3.5 19.5 0l112.4-64.8c6-3.5 9.7-9.9 9.7-16.9v-129.8c0-7-3.7-13.4-9.8-16.9l-112.5-64.8c-2.9-1.7-6.3-2.6-9.7-2.6zm0 234.3c-3.4 0-6.7-.9-9.6-2.6l-57-32.9c-6-3.5-9.6-9.9-9.6-16.8v-65.8c0-6.9 3.7-13.3 9.6-16.7l57-32.9c6-3.4 13.3-3.4 19.3 0l57 32.9c6 3.4 9.6 9.8 9.6 16.7v65.8c0 6.9-3.7 13.3-9.6 16.7l-57 32.9c-3 1.8-6.3 2.7-9.7 2.7zm0-158.1c-1.3 0-2.5.3-3.6.9l-57 33c-2.2 1.3-3.5 3.5-3.6 6v66c0 2.6 1.4 4.9 3.6 6.2l57 33.1c2.2 1.3 5 1.3 7.2 0l57-32.9c2.3-1.3 3.6-3.8 3.6-6.4v-65.8c-.1-2.5-1.4-4.8-3.6-6l-57-33.1c-1.1-.7-2.3-1-3.6-1z"
        fill="url(#a)" />
</svg>