<svg enable-background="new 0 0 500 500" viewBox="0 0 500 500" xmlns="http://www.w3.org/2000/svg">
    <path
        d="m424.8 75.2c-46.7-46.7-108.8-72.4-174.8-72.4s-128.1 25.7-174.8 72.4c-46.7 46.7-72.4 108.8-72.4 174.8s25.7 128.1 72.4 174.8 108.8 72.4 174.8 72.4 128.1-25.7 174.8-72.4 72.4-108.8 72.4-174.8-25.7-128.1-72.4-174.8zm-264.9 302.4h-64.4l19.4-36.2zm-69.7-69.4v-108.7l154.5 122.9v110zm165 79.9h53.3l-53.3 44zm0-10.5v-57.8c0-1.6-.7-3.1-2-4.1l-84.3-67 81-138.4 155.7 267.3zm89.6-125.3 64.8-51.5v107.9l-21.8 17.4zm-5.4-9.2-84.9-145.8c-.9-1.6-2.7-2.6-4.5-2.6-1.9 0-3.6 1-4.5 2.6l-84.8 144.8-67.3-53.5 156.6-122.8 156.4 124.1zm-326.1 6.9c0-63.2 24.6-122.7 69.3-167.4 43.5-43.5 100.9-67.9 162.1-69.3v43.2l-163 127.9c-1.3 1-2 2.5-2 4.1v122.1c0 1.6.7 3.1 2 4.1l24.8 19.9-24.4 45.7c-.9 1.6-.8 3.6.1 5.2s2.7 2.5 4.5 2.5h86.3l71.8 57.7v40.9c-61.3-1.3-118.7-25.8-162.1-69.3-44.8-44.6-69.4-104.1-69.4-167.3zm404.1 167.4c-43.5 43.5-100.9 67.9-162.1 69.3v-40.9l69.7-57.6h89.8c1.9 0 3.6-1 4.5-2.6s.9-3.6 0-5.2l-26.2-45 25-20c1.2-1 2-2.5 2-4.1v-121.4c0-1.6-.7-3.1-2-4.1l-162.9-129.2v-43.2c61.3 1.3 118.7 25.8 162.1 69.3 44.7 44.7 69.3 104.1 69.3 167.4.1 63.1-24.5 122.6-69.2 167.3z"
        fill="#efc9a9" />
</svg>