<svg enable-background="new 0 0 500 500" viewBox="0 0 500 500" xmlns="http://www.w3.org/2000/svg">
    <path
        d="m378 378c-15.7 15.7-41.2 15.7-56.9 0s-15.7-41.2 0-56.9 41.2-15.7 56.9 0 15.7 41.2 0 56.9zm-170.7 85.3 56.9-56.9c7.9-7.9 20.6-7.9 28.4 0 7.9 7.9 7.9 20.6 0 28.4l-56.9 56.9c-7.9 7.9-20.6 7.9-28.4 0-7.8-7.8-7.8-20.5 0-28.4zm227.6-56.8 56.9 56.9c7.9 7.9 7.9 20.6 0 28.4-7.9 7.9-20.6 7.9-28.4 0l-56.9-56.9c-7.9-7.9-7.9-20.6 0-28.4 7.8-7.9 20.5-7.9 28.4 0zm-256-227.6c-15.7 15.7-41.2 15.7-56.9 0s-15.7-41.2 0-56.9 41.2-15.7 56.9 0 15.7 41.2 0 56.9zm28.4-113.8 56.9-56.9c7.9-7.9 20.6-7.9 28.4 0 7.9 7.9 7.9 20.6 0 28.4l-56.9 56.9c-7.9 7.9-20.6 7.9-28.4 0-7.8-7.8-7.8-20.5 0-28.4zm28.5 142.2 56.9 56.9c7.9 7.9 7.9 20.6 0 28.4s-20.6 7.9-28.4 0l-56.9-56.9c-7.9-7.9-7.9-20.6 0-28.4 7.8-7.8 20.5-7.8 28.4 0zm-199.1-199.1 56.9 56.9c7.9 7.9 7.9 20.6 0 28.4-7.9 7.9-20.6 7.9-28.4 0l-57-56.8c-7.9-7.9-7.9-20.6 0-28.4 7.9-8 20.6-8 28.5-.1z"
        fill="#539bef" />
</svg>