<svg enable-background="new 0 0 500 500" viewBox="0 0 500 500" xmlns="http://www.w3.org/2000/svg">
    <path d="m135.7 473 115-295.4 115.6 295.4h129.7l-186.5-445.1h-119l-186.8 445.1z"
        fill="#848de0" />
    <path d="m309.5 27.9-58.8 149.7 142.6 51.4z" fill="#5b639b" />
    <path d="m250.7 177.6 48.1 122.5 94.5-71.1z" fill="#676fb0" />
    <path d="m393.3 229 102.7 244-197.2-172.9z" fill="#444a74" />
    <path d="m298.8 300.1 67.5 172.9h129.7z" fill="#52578b" />
    <path d="m250.7 177.6-60.2-149.7h119z" fill="#848de0" />
    <path d="m250.7 177.6-60.2-149.7-33.5 80.5z" fill="#7780cb" />
    <path d="m250.7 177.6-93.7-69.2-50 118.8z" fill="#676fb0" />
    <path d="m250.7 177.6-143.7 49.6 96.1 72.7z" fill="#5b639c" />
    <path d="m203.1 299.9-199.4 173.1 103.3-245.8z" fill="#52578b" />
    <path d="m203.1 299.9-67.4 173.1h-132z" fill="#444a74" />
</svg>