<svg enable-background="new 0 0 500 500" viewBox="0 0 500 500" xmlns="http://www.w3.org/2000/svg">
    <linearGradient gradientUnits="userSpaceOnUse" id="a" x1="250.0612" x2="250.0612" y1="4.1429"
        y2="494.8159">
        <stop offset="0" stop-color="#4dc6fb" />
        <stop offset="1" stop-color="#153e71" />
    </linearGradient>
    <circle cx="250.061" cy="249.121" fill="url(#a)" r="245.828" />
    <path
        d="m299.456 191.508 75.347-154.259-7.949-4.414c-21.966-12.204-39.524-17.636-57.868-22.439l-9.126-2.056-45.825 117.656-46.085-119.11-7.165 1.347c-22.653 4.604-41.549 11.375-60.247 20.746l-7 3.635 73.767 158.457-91.28 264.229 8.804 5.404c11.557 6.979 28.372 15.526 49.855 22.473l11.963 3.515 10.612-32.702h105.255l10.661 32.702 8.492-2.334c26.857-8.337 43.495-17.479 54.99-24.468l9.049-5.719zm-80.5 186.159 31.028-100.058 30.232 100.058z"
        fill="#fff" />
</svg>