<svg enable-background="new 0 0 500 500" viewBox="0 0 500 500" xmlns="http://www.w3.org/2000/svg">
    <path
        d="m486.5 226.5-213.2-213.2c-13.3-13.3-34.9-13.3-48.2 0l-213.2 213.2c-13.3 13.3-13.3 34.9 0 48.2l213.2 213.2c13.3 13.3 34.9 13.3 48.2 0l213.2-213.2c13.3-13.3 13.3-34.9 0-48.2zm-367 88.1-47.9-47.9c-8.6-8.6-8.6-22.5 0-31.1l47.9-47.9c8.6-8.6 22.5-8.6 31.1 0l47.9 47.9c8.6 8.6 8.6 22.5 0 31.1l-47.9 47.9c-8.6 8.6-22.5 8.6-31.1 0zm193.8 72.3-47.9 47.9c-8.6 8.6-22.5 8.6-31.1 0l-47.9-47.9c-8.6-8.6-8.6-22.5 0-31.1l47.9-47.9c8.6-8.6 22.5-8.6 31.1 0l47.9 47.9c8.6 8.6 8.6 22.5 0 31.1zm120.3-120.3-47.9 47.9c-8.6 8.6-22.5 8.6-31.1 0l-47.9-47.9c-8.6-8.6-8.6-22.5 0-31.1l47.9-47.9c8.6-8.6 22.5-8.6 31.1 0l47.9 47.9c8.6 8.6 8.6 22.5 0 31.1z"
        fill="#0047bb" />
</svg>