<svg viewBox="0 0 500 500" xmlns="http://www.w3.org/2000/svg">
    <circle cx="249.5" cy="249.5" fill="#d9327c" r="249.5" />
    <path
        d="m239.4 127.5c-2.1 1.5-4.4 4.4-6.3 10-1.7 5.2-10.9 31.9-22.4 65.2h77.6c-11.5-33.3-20.7-60-22.4-65.2-1.9-5.6-4.2-8.5-6.3-10-2-1.5-5-2.7-10.1-2.7s-8.1 1.2-10.1 2.7zm-114.6 75.2h53c13.1-37.9 23.9-69.5 25.8-75.1 3.3-10 8.8-18.8 17.1-25.1 8.4-6.3 18.4-9 28.8-9 10.5 0 20.4 2.7 28.8 9 8.3 6.3 13.8 15.1 17.1 25.1 1.9 5.6 12.7 37.2 25.8 75.1h52.9c8.6 0 15.6 7 15.6 15.6s-7 15.6-15.6 15.6h-42.2-33-99.1-33-42.2c-8.6 0-15.6-7-15.6-15.6s7.1-15.6 15.8-15.6zm0 62.4c-8.6 0-15.6 7-15.6 15.6s7 15.6 15.6 15.6h20.7l-8.3 24.1-8.3 24.1-3.1 9.1c-2.8 8.1 1.5 17 9.6 19.8s17-1.5 19.8-9.6l3.1-9.1 8.3-24.1c3.5-10 7.5-21.7 11.9-34.3h142.2c4.4 12.6 8.4 24.3 11.9 34.3l8.3 24.1 3.1 9.1c2.8 8.1 11.7 12.5 19.8 9.6 8.1-2.8 12.5-11.7 9.6-19.8l-3.1-9.1-8.3-24.1-8.3-24.1h20.6c8.6 0 15.6-7 15.6-15.6s-7-15.6-15.6-15.6h-31.4-33-120.7-33zm233.9 93.6 14.7-5.1s0 0-14.7 5.1zm0 0c-14.7 5.1-14.7 5.1-14.7 5.1zm-218.4 0 14.7 5.1c.1 0 .1 0-14.7-5.1zm0 0c-14.7-5.1-14.7-5.1-14.7-5.1z"
        fill="#fff" fill-rule="evenodd" />
</svg>