<svg enable-background="new 0 0 500 500" viewBox="0 0 500 500" xmlns="http://www.w3.org/2000/svg">
    <path
        d="m250 500c-137.5 0-250-112.5-250-250 0-137.5 112.5-250 250-250 137.5 0 250 112.5 250 250 0 137.5-112.5 250-250 250z"
        fill="#4bdb4b" />
    <path
        d="m395.4 298.9c12.5 22.9 4.2 52.1-16.7 64.6-22.9 12.5-52.1 4.2-64.6-16.7l-100-170.8c-12.5-22.9-4.2-52.1 18.8-64.6 22.9-14.6 50-6.2 64.6 16.7z"
        opacity=".4" />
    <path
        d="m198.9 346.8c-12.5 22.9-41.7 31.2-64.6 16.7-22.9-12.5-31.3-41.7-16.7-64.6l97.9-170.8c12.5-22.9 41.7-31.2 64.6-16.7 22.9 12.5 31.2 41.7 16.7 64.6z"
        opacity=".65" />
    <path
        d="m303.1 152.1c0 27.1-47.9 93.8-47.9 93.8s-45.8-66.7-45.8-93.8 20.8-47.9 47.9-47.9 45.8 22.9 45.8 47.9z" />
</svg>