<svg enable-background="new 0 0 500 500" viewBox="0 0 500 500" xmlns="http://www.w3.org/2000/svg">
    <path d="m461.5 299.8v74l-187.4 109.8v-52.8l141.9-83.1v-47.9z" fill="#2a8bcb" />
    <path d="m230.9 432.2v52.8l-189.8-111.2v-74h45.5v47.9z" fill="#35addd" />
    <path d="m274.1 342v141.6l-22.8 13.3-20.4-11.9v-143z" fill="#35addd" />
    <path
        d="m252.5 196.1c31.3 0 56.6 25.4 56.6 56.6s-25.4 56.6-56.6 56.6-56.6-25.4-56.6-56.6 25.3-56.6 56.6-56.6m0-45.5c-56.3 0-102.2 45.8-102.2 102.2s45.8 102.2 102.2 102.2 102.2-45.8 102.2-102.2-45.9-102.2-102.2-102.2z"
        fill="#2a8bcb" />
    <path d="m86.6 203.9v-50.3l164.7-96.4 164.7 96.4v50.3h45.5v-76.4l-210.2-123.1-210.2 123.1v76.4z"
        fill="#35addd" />
    <path d="m86.6 203.9-45.5-76.4 45.5 26.1z" fill="#2a8bcb" />
    <path d="m251.3 57.2v-52.8l-164.7 149.2z" fill="#2a8bcb" />
    <path d="m416 153.6-164.7-149.2v52.8z" fill="#3d4599" />
    <path d="m461.5 127.5-45.5 76.4h45.5z" fill="#3d4599" />
    <path d="m251.3 4.4 210.2 123.1-45.5 26.1z" fill="#2a8bcb" />
    <path d="m41.1 299.8 45.5 47.9-45.5 26.1z" fill="#2a8bcb" />
    <path d="m416 299.8h45.5l-45.5 47.9z" fill="#3d4599" />
    <path d="m416 347.7-141.9 135.9 187.4-109.8z" fill="#3d4599" />
    <path d="m86.6 347.7 144.3 84.5v52.8z" fill="#2a8bcb" />
    <path d="m461.5 299.8-45.5 47.9 45.5 26.1z" fill="#35addd" />
</svg>