<svg xmlns:xlink="http://www.w3.org/1999/xlink" enable-background="new 0 0 500 500"
    viewBox="0 0 500 500" xmlns="http://www.w3.org/2000/svg">
    <linearGradient gradientTransform="matrix(1 0 0 -1 0 502)" gradientUnits="userSpaceOnUse" id="a"
        x1="250" x2="250" y1="326.4437" y2="-2.5196">
        <stop offset="0" stop-color="#01e8f8" />
        <stop offset="1" stop-color="#01e8f8" stop-opacity="0" />
    </linearGradient>
    <linearGradient id="b">
        <stop offset="0" stop-color="#01e8f7" />
        <stop offset="1" stop-color="#00c2ff" />
    </linearGradient>
    <linearGradient gradientTransform="matrix(1 0 0 -1 0 502)" gradientUnits="userSpaceOnUse" id="c"
        x1="404.6282" x2="414.0749" y1="304.564" y2="183.0667" xlink:href="#b" />
    <linearGradient gradientTransform="matrix(1 0 0 -1 0 502)" gradientUnits="userSpaceOnUse" id="d"
        x1="187.5128" x2="315.4651" y1="383.1892" y2="180.8282">
        <stop offset="0" stop-color="#01e8f7" />
        <stop offset="1" stop-color="#00b3ec" />
    </linearGradient>
    <linearGradient gradientTransform="matrix(1 0 0 -1 0 502)" gradientUnits="userSpaceOnUse" id="e"
        x1="239.4137" x2="250.8601" y1="288.8504" y2="-38.2913" xlink:href="#b" />
    <ellipse cx="250" cy="250" fill="url(#a)" fill-opacity=".05" rx="247.1" ry="248" />
    <path
        d="m443.1 233.6c1.7-35.7-23.2-59.4-51.2-75.7l-18.2 107.6c12.6-.7 18.8 4.1 21.1 6.4 2.8 2.8 9.8 11.3 1.4 24.8 17.5-3 44.9-19.9 46.9-63.1z"
        fill="url(#c)" />
    <g clip-rule="evenodd" fill-rule="evenodd">
        <path
            d="m203.8 108.4-21.8-21.9c32.7-4 119.1 1.1 202.8 53.8 1.4 5.7 0 14.2 0 14.2l7 3.5c6.1 8.7 16.4 33.5 9.1 63s-19.9 42-25.3 44.6c-11.2 0-30.3 6.5-36.5 35.4s-18 35.1-23.2 34.7l-123.5 1.4-81.4-48.1-11.7-100 23.2-31.1 41.4-34 29.5-12zm145.9 41.2c-5.4 5.7-10.5 8.4-12 9.2-31.8-6.8-43.3-23.3-43.3-23.3 30-.2 57.1 7 76.9 19.1 0-.1-10.7-3.5-21.6-5z"
            fill="url(#d)" />
        <path
            d="m338.2 300.9c-21.8 10.7-47.6 16.9-75.4 16.9-77.9 0-141-49.1-141-109.7 0-44.7 34.5-83.2 83.9-100.3-94 5.4-169.5 81.2-169.5 174.6 0 107.9 95.8 197 214 197 88.3 0 161.7-51.3 200.1-120.1-52.8 12-115.4-10.6-112.1-58.4z"
            fill="url(#e)" />
    </g>
</svg>