<svg enable-background="new 750 -750 2000 2000" viewBox="750 -750 2000 2000"
    xmlns="http://www.w3.org/2000/svg">
    <path
        d="m1759.941-736.845c534.48 7.502 973.808 434.797 976.402 985.629 2.539 538.942-444.132 985.417-983.434 983.892-544.463-1.54-980.124-433.97-985.44-972.326-5.494-556.365 436.78-996.631 992.472-997.195zm107.704 1478.773c-247.179 0-492.985 0-745.635 0 201.996 231.621 447.332 335.845 747.017 294.748 207.208-28.416 374.385-130.842 511.428-297.168-96.638 0-185.272 0-274.967 0-38.992-80.026-77.513-159.085-118.519-243.243-40.96 84.329-79.147 162.949-119.324 245.663zm79.75-1264.522c170.777 378.021 340.738 754.233 512.561 1134.569 246.118-481.587-49.219-1028.921-512.561-1134.569zm-425.809 8.255c-221.406 61.465-450.949 251.922-533.85 531.044-60.1 202.355-42.381 398.336 52.745 593.856 161.709-378.102 320.366-749.067 481.105-1124.9zm440.775 827.678c-70.486-145.087-139.283-286.698-211.048-434.42-71.807 148.107-140.297 289.372-210.621 434.42z"
        fill="#59018c" />
</svg>