<svg enable-background="new 1000 -1000 2500 2500" viewBox="1000 -1000 2500 2500"
    xmlns="http://www.w3.org/2000/svg">
    <linearGradient gradientUnits="userSpaceOnUse" id="a" x1="1370.0193" x2="3108.9109"
        y1="-616.1383" y2="1095.3998">
        <stop offset="0" stop-color="#fc9351" />
        <stop offset=".9995" stop-color="#fc6d79" />
    </linearGradient>
    <circle cx="2250" cy="250" fill="url(#a)" r="1223.389" />
    <path
        d="m2091.017 380.853 162.75-495.283 165.764 495.283zm689.93 313.194-134.621-369.704h80.371c32.026-.275 57.881-26.242 58.017-58.269 0-30.516-24.738-55.255-55.254-55.255h-125.579l-20.093-57.515h142.909c31.324.011 56.949-24.946 57.766-56.259.139-31.903-25.611-57.878-57.514-58.017-.168-.001-.335-.001-.503 0h-185.605l-100.463-276.274c-15.009-39.472-39.815-74.477-72.082-101.719-31.879-26.217-72.281-39.804-113.523-38.176-41.35-1.314-81.802 12.23-114.026 38.176-32.286 27.28-57.166 62.266-72.333 101.719l-105.236 278.785h-184.601c-30.696 0-55.619 24.81-55.757 55.506 0 31.903 25.863 57.766 57.766 57.766h140.146l-21.6 56.008h-125.579c-30.794 0-55.757 24.963-55.757 55.757 0 31.528 25.485 57.126 57.013 57.264h80.621l-136.881 370.206c-8.413 20.872-13.089 43.061-13.814 65.552 1.427 31.549 15.127 61.292 38.176 82.882 25.364 21.968 57.868 33.934 91.421 33.655 58.087 3.184 110.469-34.741 125.579-90.919l52.994-157.978h487.497l52.994 161.746c17.072 54.206 68.852 89.83 125.579 86.398 21.107.423 41.935-4.871 60.278-15.321 15.912-11.81 30.038-25.852 41.943-41.692 10.374-17.825 15.672-38.15 15.321-58.771-3.326-21.923-8.536-43.519-15.572-64.548v-1.003z"
        fill="#fefefe" />
</svg>