<svg enable-background="new 0 0 500 500" viewBox="0 0 500 500" xmlns="http://www.w3.org/2000/svg">
    <path
        d="m484.4 112.7c-15.8 29.3-42.2 51.7-73.8 62.9-31.7 11.1-66.4 10.2-97.4-2.6 15.8-29.3 42.2-51.7 73.8-62.9s66.4-10.2 97.4 2.6z"
        fill="#39d86e" />
    <path
        d="m104.9 312.7c10.6 29.2 31.3 53.8 58.5 69.4s59 21.3 90 16 59-21.3 79.3-45c20.2-23.8 31.3-53.8 31.4-84.9v-.8c0-1.9 0-3.9 0-5.7v-.6c-1.2-17.1-9-33.1-21.9-44.6s-29.8-17.5-47.2-16.9c-17.3.6-33.8 7.9-45.7 20.4-12 12.4-18.6 28.9-18.5 46.1 0 17.2-6.8 33.7-18.9 46s-28.7 19.5-46.1 19.9h-3.8c-20.6-.4-40.6-7.1-57.1-19.3z"
        fill="#c336d8" />
    <path
        d="m163.9 314.9c27.3 0 49.5-21.9 49.5-48.9s-22.2-49-49.5-49-49.5 21.9-49.5 48.9 22.1 49 49.5 49z"
        fill="#c336d8" />
    <path
        d="m115.2 465.5c-52.9-30.3-91.5-80.1-107.3-138.4-15.8-58.4-7.6-120.6 22.8-172.9 6.4-10.9 13.6-21.2 21.7-30.9l.4-.4 103.1-119.9c12.8 10.8 20.7 26.1 22 42.6s-4 32.9-14.9 45.5l-61.9 71.8c-14.7 17.7-25.5 38.2-31.8 60.2s-7.8 45.1-4.6 67.8 11.1 44.4 23.3 63.9c12.1 19.5 28.3 36.3 47.3 49.3s40.6 22 63.3 26.4 46.1 4 68.7-1 43.9-14.6 62.5-28.2c18.7-13.6 34.3-30.8 45.8-50.6 4.6-7.9 8.5-16.2 11.8-24.7l32-89c5.7-15.5 17.4-28.1 32.5-35.2 15.1-7 32.4-7.9 48.1-2.4l-53.3 148.6c-11.8 31-30.3 59.1-54.1 82.3-23.9 23.2-52.6 41.1-84.1 52.2-31.5 11.2-65.2 15.4-98.5 12.5s-65.8-12.9-94.8-29.5z"
        fill="#5b41f5" />
</svg>