<svg enable-background="new 0 0 500 500" viewBox="0 0 500 500" xmlns="http://www.w3.org/2000/svg">
    <g fill="#222326">
        <path
            d="m249.5 495.1c-65.5 0-127-25.5-173.3-71.8-46.3-46.3-71.8-107.8-71.8-173.3s25.5-127 71.8-173.3 107.8-71.8 173.3-71.8 127 25.5 173.3 71.8 71.8 107.8 71.8 173.3-25.5 127-71.8 173.3-107.8 71.8-173.3 71.8zm0-451.7c-113.9 0-206.6 92.7-206.6 206.6s92.7 206.6 206.6 206.6 206.6-92.7 206.6-206.6-92.7-206.6-206.6-206.6z" />
        <path
            d="m291.7 331.6c-1.1-2.2-2-4.7-2.8-7.6s-1.4-5.9-2-9c-2.5 2.7-5.4 5.3-8.7 7.7s-7 4.6-11 6.4c-3.9 1.8-8.3 3.1-13.2 4.1-4.8 1.1-10 1.6-15.6 1.6-9.1 0-17.5-1.3-25.2-3.9-7.6-2.6-14.1-6.3-19.6-11s-9.8-10.3-12.8-16.8c-3.1-6.6-4.6-13.7-4.6-21.4 0-18.8 7-33.2 20.9-43.4 14-10.3 34.9-15.5 62.7-15.5h25.5v-10.5c0-8.6-2.8-15.3-8.4-20.2-5.6-5-13.7-7.6-24.2-7.6-9.3 0-16.1 2-20.4 6.1-4.3 3.9-6.4 9.3-6.4 16h-45.7c0-7.6 1.6-14.7 4.9-21.5 3.4-6.8 8.3-12.8 14.6-17.9 6.5-5.2 14.3-9.2 23.5-12.2 9.3-3.1 20-4.6 31.9-4.6 10.7 0 20.7 1.3 29.9 3.9 9.3 2.6 17.4 6.5 24.2 11.7s12.1 11.7 16 19.6c3.8 7.8 5.8 16.8 5.8 27.1v76.3c0 9.5.6 17.4 1.8 23.7s3 11.6 5.3 16.1v2.8zm-43.6-32.1c4.6 0 8.9-.5 12.8-1.6s7.5-2.5 10.7-4.3 5.9-3.7 8.2-5.9c2.3-2.3 4.1-4.6 5.4-6.9v-30.6h-23.4c-7.1 0-13.2.7-18.3 2.1-5 1.3-9.2 3.2-12.3 5.8-3.2 2.4-5.5 5.4-7.1 8.9-1.5 3.4-2.3 7.1-2.3 11.2 0 6.1 2.1 11.2 6.4 15.3 4.5 4 11.1 6 19.9 6z" />
    </g>
</svg>