<svg enable-background="new -749 751 500 500" viewBox="-749 751 500 500"
    xmlns="http://www.w3.org/2000/svg">
    <path
        d="m-499.162 946.35c-80.923 84.039-161.349 167.561-241.774 251.083-.593-.473-1.185-.946-1.778-1.419 80.905-129.508 161.81-259.017 243.567-389.888 81.778 130.888 162.71 260.42 243.641 389.952-.575.482-1.15.963-1.724 1.445-80.422-83.494-160.843-166.987-241.932-251.173zm110.478 172.82c-74.283 0-146.058 0-220.931 0 14.364-14.741 27.154-28.198 40.459-41.124 1.787-1.736 6.177-1.047 9.362-1.051 40.052-.048 129.398-.129 129.398-.129s29.589 29.765 41.712 42.304zm-152.814-70.772c14.842-15.513 28.137-29.41 39.044-40.81 15.069 13.098 29.82 25.92 46.95 40.81-30.128 0-56.589 0-85.994 0z"
        fill="#fc0016" />
</svg>