<svg enable-background="new 0 0 500 500" viewBox="0 0 500 500" xmlns="http://www.w3.org/2000/svg">
    <g fill="#1890ff">
        <path
            d="m257.7 320.8 119.6-93.8c1.6-1.2 2.5-3.1 2.5-5.1v-41.4c0-3.4-3.8-5.2-6.5-3.2l-123.2 96.7-123.3-96.8c-2.6-2.1-6.5-.2-6.5 3.2v41.5c0 2 .9 3.9 2.5 5.1l119.6 93.8c2.2 1.7 4.9 2.5 7.7 2.5 2.6.1 5.4-.8 7.6-2.5z" />
        <path clip-rule="evenodd"
            d="m438.9 65.7-180.3-61.8c-2.4-.8-5.5-1.2-8.5-1.2s-6.1.4-8.5 1.2l-180.3 61.8c-2.6.9-4.8 2.8-6.4 5.1s-2.7 5.1-2.7 7.8v257.6c0 2.7.8 5.6 2.1 8.3s3.1 5.2 5.2 6.8l182.9 143.5c2.2 1.7 4.9 2.5 7.7 2.5 2.7 0 5.5-.8 7.7-2.5l182.9-143.4c2.1-1.6 3.9-4.1 5.2-6.8s2.1-5.6 2.1-8.3v-257.7c.1-2.8-1-5.5-2.6-7.8-1.7-2.3-4-4.2-6.5-5.1zm-32.4 33.1v226.4l-156.4 122.7-156.5-122.7v-226.4l156.5-53.8z"
            fill-rule="evenodd" />
    </g>
</svg>