<svg enable-background="new 0 0 500 500" viewBox="0 0 500 500" xmlns="http://www.w3.org/2000/svg">
    <linearGradient gradientUnits="userSpaceOnUse" id="a" x1="3.2954" x2="449.1676" y1="364.7144"
        y2="364.7144">
        <stop offset="0" stop-color="#0eafe5" />
        <stop offset="1" stop-color="#23469b" />
    </linearGradient>
    <linearGradient gradientUnits="userSpaceOnUse" id="b" x1="145.9017" x2="496.6551" y1="247.1596"
        y2="247.1596">
        <stop offset="0" stop-color="#0eafe5" />
        <stop offset=".8539" stop-color="#273791" />
    </linearGradient>
    <path
        d="m180.6 475.1h-143.7c-24 0-40.2-24.4-30.9-46.5 7.4-17.6 18-36.2 28.6-51.1 59.8-83.7 123.9-123.2 194.1-123.2 115.8 0 219.6 141.6 220.5 143.1l-32.8 22.2c-19-26.5-107.1-124.7-187.8-124.7-56.4 0-110.6 35.7-161.1 106.2-7.9 11-14.4 23-19.4 33.5h113.5l-37.4-52.9 33.1-23.4 48.3 68.4c14.5 20.3-.1 48.4-25 48.4z"
        fill="url(#a)" />
    <path
        d="m227.2 106.1 197.6 327.5h-77.3c-5.7 0-11.1-2.9-14.2-7.7l-144-219.8c-3.2-5-3.7-11.2-1.2-16.6zm-4.4-85.9-32.3 68.7-39.2 83.4c-8.4 18-6.9 39.5 4 56.1l144 219.8c10.7 16.3 28.7 26 48.2 26h77.3 71.8l-37.1-61.5-197.6-327.6z"
        fill="url(#b)" />
</svg>