<svg enable-background="new 0 0 500 500" viewBox="0 0 500 500" xmlns="http://www.w3.org/2000/svg">
    <linearGradient gradientUnits="userSpaceOnUse" id="a" x1="2.1197" x2="496.8803" y1="249.5"
        y2="249.5">
        <stop offset="0" stop-color="#b28e39" />
        <stop offset="1" stop-color="#f0de9e" />
    </linearGradient>
    <circle cx="249.5" cy="249.5" fill="url(#a)" r="247.4" />
    <g fill="#fff">
        <path
            d="m139 386.4v-80.4l62.8-32.3h108.6c9.1 0 16.4-7.3 16.4-16.4v-48.8l49.3-25.2v84.9c0 30.6-24.8 55.4-55.4 55.4h-134.2v48.5c0 8-6.5 14.5-14.5 14.4z" />
        <path
            d="m138.4 260.3v-74c0-30.6 24.8-55.4 55.4-55.4h124.7c16.9 0 32 5.4 41.3 16.2l-64.4 32h-91.9c-9.2 0-16.7 7.5-16.7 16.7v39.4z" />
    </g>
</svg>