<svg xmlns:xlink="http://www.w3.org/1999/xlink" enable-background="new 1000 -981 2500 2463"
    viewBox="1000 -981 2500 2463" xmlns="http://www.w3.org/2000/svg">
    <linearGradient id="a">
        <stop offset="0" stop-color="#0027ff" />
        <stop offset="1" stop-color="#00a2ff" />
    </linearGradient>
    <linearGradient gradientUnits="userSpaceOnUse" id="b" x1="1030.2109" x2="3473" y1="-102.1577"
        y2="-102.1577" xlink:href="#a" />
    <linearGradient gradientUnits="userSpaceOnUse" id="c" x1="1430.108" x2="3114.092" y1="325.979"
        y2="325.979" xlink:href="#a" />
    <linearGradient gradientUnits="userSpaceOnUse" id="d" x1="1889.047" x2="2943.012" y1="1089.483"
        y2="1089.483" xlink:href="#a" />
    <path
        d="m2252.826-953.573-1088.909 1086.259-133.706 133.669 46.975 40.941c10.846 9.637 21.68 19.274 33.723 28.898 37.338 31.317 77.094 61.424 116.839 90.322 150.491 106.047 316.744 187.733 492.649 242.056 172.217 54.193 351.761 80.685 532.406 80.685 142.843.108 285.186-16.872 423.995-50.578 199.954-48.172 389.063-131.263 561.316-245.671 42.163-27.701 84.276-59.006 124.069-90.322 22.889-18.064 44.569-36.129 65.039-55.402l45.778-40.929zm1067.218 1259.672c-38.157 31.034-77.963 59.982-119.245 86.719-164.787 109.448-347.396 189.322-539.624 236.034-133.669 32.633-270.754 49.203-408.349 49.357-352.751 1.39-697.163-107.214-985.311-310.698-38.547-26.492-75.885-56.599-113.223-86.719l-22.889-19.274 1120.202-1117.551 1120.214 1117.576c-15.658 15.658-33.723 30.107-51.799 44.556z"
        fill="url(#b)" />
    <path
        d="m1484.313 248.279-54.205 22.877h66.248c361.796.006 716.548 100.034 1025.055 289.031l3.664 2.443 4.812-1.221c201.557-36.185 394.209-111.023 567.337-220.388l16.868-10.834-16.868-9.637c-261.378-151.734-560.107-231.222-863.648-231.222-257.99 1.242-512.989 55.339-749.263 158.951zm1055.175 240.858c-234.268-141.048-495.022-232.451-766.083-268.536 149.543-40.891 303.894-61.55 458.927-61.424 257.714 0 510.726 59.006 740.788 174.659-134.903 74.664-280.652 126.451-433.595 155.349z"
        fill="url(#c)" />
    <path
        d="m2943.012 726.393s-178.323 110.793-245.72 143.306c-224.244 126.305-474.253 200.014-731.151 215.564l-77.094 4.812 363.78 362.498 516.747-515.428c61.412-67.445 119.232-138.494 173.438-210.752m-897.371 421.503c198.745-20.471 392.678-73.467 573.359-158.964l-366.174 366.101"
        fill="url(#d)" />
</svg>