<svg enable-background="new 0 0 500 500" viewBox="0 0 500 500" xmlns="http://www.w3.org/2000/svg">
    <circle cx="249.785" cy="249.125" fill="#2b9fda" r="245.853" />
    <path
        d="m307.678 322.513c-40.324 0-80.497 0-121.34 0-8.404 15.873-16.964 31.536-25.006 47.461-3.558 7.046-8.497 11.199-16.41 11.947-16.138 1.525-44.542 1.606-49.814-2.468-6.514-5.291 23.613-56.772 23.613-56.772l-22.61.102s-.104-21.343-.104-31.562h40.817c2.389-4.409 7.025-12.963 7.025-12.963l-47.84-.033s0-21.392 0-31.612h65.987c7.694-13.774 14.854-26.484 21.913-39.251 22.502-40.701 45.125-81.338 67.328-122.202 5.245-9.652 12.623-14.621 23.33-14.698 15.615-.112 31.247-.378 46.843.195 15.168.557 17.668 3.745 19.749 18.41 8.679 61.149 17.672 122.253 26.389 183.396 4.449 31.204 8.867 62.42 12.672 93.706 1.507 12.393-2.019 16.389-14.13 17.009-12.642.647-25.35.249-38.022-.026-8.043-.175-12.087-4.337-12.916-12.746-1.434-14.547-3.764-29.006-5.767-43.495-.126-.923-.674-1.787-1.707-4.398zm-8.151-77.15c-4.613-36.828-9.095-72.607-13.577-108.387-.686-.178-1.371-.356-2.057-.535-18.837 35.885-37.675 71.771-57.177 108.922zm-95.951 44.77h101.408c-.744-4.456-1.303-7.801-1.989-11.909-31.37 0-62.001 0-93.222 0-1.897 3.648-3.767 7.241-6.197 11.909z"
        fill="#fff" />
</svg>