<svg enable-background="new 0 0 500 500" viewBox="0 0 500 500" xmlns="http://www.w3.org/2000/svg">
    <path
        d="m500 250c0 138.3-112.2 250.5-250.5 250.5s-250.5-112.2-250.5-250.5 112.2-250.5 250.5-250.5 250.5 112.2 250.5 250.5z"
        fill="#4958c5" />
    <path
        d="m351.6 146.2h-68.5v-19.3c0-21.2 22-37 36.7-38.3 12.9-1.2 19.8-2.8 45.3 5.5v-34.7c-17.4-4.3-38.3-3.7-55.7-2.1-19 1.1-62.2 21.2-62.2 67.8v21.2h-25.2v31.6h25.2v119.1s-16.3-15.5-49.8-15.5c-46.6 0-87.9 35.9-87.9 87.3s38.3 88.3 88.9 88.3 86-43.3 87.1-88.3 0-96.2 0-96.2v-94.8h66v-31.6z"
        fill="#fff" />
    <ellipse cx="198.8" cy="367.4" fill="#4958c5" rx="51.4" ry="51.4" />
</svg>