<svg enable-background="new 0 0 500 500" viewBox="0 0 500 500" xmlns="http://www.w3.org/2000/svg">
    <linearGradient gradientTransform="matrix(1 0 0 -1 0 502)" gradientUnits="userSpaceOnUse" id="a"
        x1="250" x2="250" y1="488.6071" y2="15.3929">
        <stop offset="0" stop-color="#eea7ed" />
        <stop offset="1" stop-color="#0217b0" />
    </linearGradient>
    <path
        d="m250 500c-137.9 0-250-112.1-250-250 0-90.1 48.8-173.6 127.3-217.9 37.3-21 79.7-32.1 122.7-32.1 137.9 0 250 112.1 250 250s-112.1 250-250 250zm-102.7-132.4c0 57.4 46.7 104.2 104.2 104.2 57.4 0 104.2-46.7 104.2-104.2s-46.7-104.2-104.2-104.2c-57.4 0-104.2 46.7-104.2 104.2zm-26.8-299.5c-58.3 41.7-93.7 109.4-93.7 181.9 0 86.8 49.8 162.1 122.3 199.1-17.4-21.8-28-49.3-28.5-79.3v-301.7zm131 168.5c72.2 0 131 58.7 131 131 0 29.6-9.9 56.9-26.5 78.9 69.8-37.8 117.2-111.7 117.2-196.4 0-123.1-100.1-223.2-223.2-223.2-35.8 0-71.1 8.6-102.7 25v236.5c24-31.5 61.8-51.8 104.2-51.8z"
        fill="url(#a)" />
</svg>