<svg enable-background="new 0 0 500 500" viewBox="0 0 500 500" xmlns="http://www.w3.org/2000/svg">
    <path
        d="m353.7 283c-31.2 6.2-66.7 9.5-103.7 9.5s-72.5-3.3-103.7-9.5c-83.7 13.2-141.7 41.9-141.7 75.1 0 45.8 109.9 82.8 245.4 82.8s245.4-37.1 245.4-82.8c0-33.2-58-61.9-141.7-75.1z" />
    <ellipse cx="249.8" cy="88.6" rx="146.4" ry="48" />
    <path
        d="m314.9 147.6c-20.8 3.2-43.2 4.8-65.1 4.8-21.8 0-44.1-1.6-64.9-4.8-75.8 8.9-130.2 33-130.2 61.2 0 35.9 87.4 64.9 195.3 64.9s195.3-29.1 195.3-64.9c0-28.2-54.5-52.3-130.4-61.2z" />
</svg>