<svg enable-background="new 0 0 500 500" viewBox="0 0 500 500" xmlns="http://www.w3.org/2000/svg">
    <circle cx="249.54" cy="248.84" fill="#3200f7" r="247.7" />
    <g fill="#fff">
        <path d="m303.09 177.39h118.16v26.83h-118.16z"
            transform="matrix(.3504 -.9366 .9366 .3504 56.5606 463.1625)" />
        <path d="m206.92 230.47h96.21v26.83h-96.21z"
            transform="matrix(.3504 -.9366 .9366 .3504 -62.7529 397.2844)" />
        <path
            d="m348.86 261.36-34.04 91.04c-.55 1.48-1.97 2.46-3.55 2.46l-20.57-.03c-2.64 0-4.46-2.64-3.54-5.11l36.57-97.76c.73-1.96 2.91-2.95 4.87-2.22l18.04 6.75c1.96.73 2.96 2.91 2.22 4.87z" />
        <path
            d="m165.66 284.92-25.69 67.48c-.55 1.48-1.97 2.46-3.55 2.46l-20.57-.03c-2.64 0-4.46-2.64-3.54-5.11l28.22-74.2c.73-1.96 2.91-2.95 4.87-2.22l18.04 6.75c1.96.73 2.95 2.91 2.22 4.87z" />
        <path
            d="m245.73 305.96-17.22 47.63c-.55 1.48-1.97 2.46-3.55 2.46l-20.57-.03c-2.64 0-4.46-2.64-3.54-5.11l19.75-54.35c.73-1.96 2.91-2.95 4.87-2.22l18.04 6.75c1.96.73 2.95 2.91 2.22 4.87z" />
        <path
            d="m194.47 163.12s15.96 3.55 33.2 20.78 23.57 34.46 23.57 34.46-22.05-9.12-35.22-22.3c-13.19-13.17-21.55-32.94-21.55-32.94z" />
        <path
            d="m203.43 218.49s8.29-5.28 22.94-5.28 24.66 4.63 24.66 4.63-13.25 5.49-24.45 5.49-23.15-4.84-23.15-4.84z" />
    </g>
</svg>