<svg enable-background="new 0 0 500 500" viewBox="0 0 500 500" xmlns="http://www.w3.org/2000/svg">
    <path
        d="m421.5 159.2c0-35.4-17.1-66.7-43.4-85.9l70.9-72-42.4.2-56.4 57.2c-10.5-3.6-21.6-5.5-33.2-5.5h-194v278.8l233.6-237c21 13.4 35.1 37.2 35.1 64.2 0 41.7-33.5 75.7-74.6 75.7h-6.2l-259.9 263.9h42.2l51-51.7h172.8c57.6 0 104.4-47.6 104.4-106 0-38.6-20.4-72.3-50.8-90.8 30.4-18.8 50.9-52.6 50.9-91.1zm-268.6 99.7v-175.5h164.1c2.8 0 5.6.2 8.3.5zm238.8 81.9c0 41.7-33.5 75.7-74.6 75.7h-143.1l148.7-150.9c38.4 3.1 69 35.5 69 75.2z"
        fill="#4520e7" />
</svg>