<svg enable-background="new 0 0 500 500" viewBox="0 0 500 500" xmlns="http://www.w3.org/2000/svg">
    <path
        d="m417 249.5c1.4-1.6 3.1-3.2 4.7-4.9 5.2-5.6 11-11.5 16.4-17.3 21.8-22.7 33.8-52.1 33.8-83.1 0-2.2.4-11 .4-12.2-2.5-70.9-62.8-128.6-134-128.6h-224.3v89.6h-90.3v403.7h318.1c70.7 0 130.4-62.2 130.4-135.9.2-52.7-32.7-89.9-55.2-111.3zm-258-111.5 178.6.2-112.3 112.6 111 111.5h-177.3zm182.8 313.6h-273.1v-313.8h45.3v269.2h222.3c18.3 0 34.7-11 41.7-27.9s3.2-36.1-9.7-49.1l-79.3-79.4 80.6-80.7c12.9-12.9 16.7-32.2 9.7-49.1s-23.4-27.9-41.7-27.9h-178.5v-44.6h179.3c47.5 0 87.4 38.3 89 84.9 0 2-.4 9.7-.4 9.9v.9c0 26.3-13.3 44.1-21.4 52.3-5.6 5.8-11.3 11.9-16.5 17.3-8.8 9.2-16.4 17.1-20 20.7l-16.1 15.8 16 16c2.2 2.2 4.9 4.7 8.1 7.7 18.7 17.3 50.2 46 50.2 86.7.1 48.5-39.8 91.1-85.5 91.1z"
        fill="#6356ab" />
</svg>