<svg enable-background="new 0 0 500 500" viewBox="0 0 500 500" xmlns="http://www.w3.org/2000/svg">
    <g fill="#0597ff">
        <path d="m120.6 132.2v-61.9c-24.7 16.8-45.9 38-61.8 61.8h61.8z" />
        <path
            d="m18.1 263.8v.9c0 128 104.3 232.3 232.3 232.3 129.8 0 234.1-104.2 234.1-233.2 0-128.1-104.2-232.3-234.1-232.3-15 0-29.1.9-42.4 4.4v60.1c14.1-4.4 28.3-6.2 42.4-6.2 97.2 0 174.9 78.6 174.9 174.9s-77.7 174.9-174.9 174.9c-96.3 0-174-78.6-174-174.9 0-15.9-14.1-29.1-30-29.1s-28.3 12.3-28.3 28.2z" />
        <path
            d="m134.7 263.8c0 64.5 53 116.6 116.6 116.6 64.5 0 117.5-52.1 117.5-116.6s-53-116.6-117.5-116.6h-174.9l29.1 58.3h144.9c32.7 0 58.3 25.6 58.3 57.4 0 32.7-25.6 58.3-58.3 58.3-31.8 0-57.4-25.6-57.4-58.3v-44.2h-58.3z" />
        <path
            d="m193 30.6c0-15.9-13.2-28.3-29.1-28.3s-29.1 13.2-29.1 28.3v101.6h58.2s0-100.7 0-101.6z" />
    </g>
</svg>