<svg enable-background="new 0 0 500 500" viewBox="0 0 500 500" xmlns="http://www.w3.org/2000/svg">
    <linearGradient gradientUnits="userSpaceOnUse" id="a" x1="250.235" x2="250.235" y1="496.8972"
        y2="2.9191">
        <stop offset="0" stop-color="#1dade2" />
        <stop offset="1" stop-color="#2155ac" />
    </linearGradient>
    <path
        d="m470.4 261.7-209.3 121.1c-6.9 4-15.4 4-22.3.1l-95.4-53.9c-9.3-5.3-15-15.1-15-25.8v-105.4c0-10.3 5.4-19.8 14.3-25l92.7-54.7c7.7-4.5 17.1-4.6 24.9-.3l48.8 27.2c2.4 1.3 2.4 4.8 0 6.1l-108.5 62.1c-4.2 2.4-6.8 6.8-6.8 11.6v50.7c0 3.6 1.9 7 5 8.9l44.8 26.7c3.9 2.4 8.9 2.4 12.8.1l186-107.4c37.3-21.5 37.2-75.4-.1-96.8l-171.8-98.6c-12.7-7.3-28.3-7.3-41 0l-176.7 101.6c-14.1 8.1-22.8 23.1-22.8 39.4v202.9c0 14.7 7.8 28.3 20.5 35.8l173.7 102c15.4 9 34.4 9.1 49.9.2l173.8-100.5c14-8.1 22.6-23 22.6-39.2v-88.9z"
        fill="url(#a)" />
</svg>