<svg enable-background="new 0 0 500 500" viewBox="0 0 500 500" xmlns="http://www.w3.org/2000/svg">
    <path
        d="m249.6 216.9c18.3 0 33.1 14.8 33.1 33.1s-14.8 33-33.1 33-33.1-14.8-33.1-33.1 14.8-33 33.1-33m0-19.6c-29 0-52.7 23.6-52.7 52.7 0 29 23.6 52.7 52.7 52.7s52.7-23.6 52.7-52.7-23.7-52.7-52.7-52.7z"
        fill="#00fff4" />
    <g fill="#02cec8">
        <path
            d="m249.6 82.7c18.3 0 33.1 14.8 33.1 33.1s-14.8 33.1-33.1 33.1-33.1-14.8-33.1-33.1 14.8-33.1 33.1-33.1m0-19.6c-29 0-52.7 23.6-52.7 52.7s23.6 52.7 52.7 52.7 52.7-23.6 52.7-52.7-23.7-52.7-52.7-52.7z" />
        <path
            d="m249.6 351c18.3 0 33.1 14.8 33.1 33.1s-14.8 33.1-33.1 33.1-33.1-14.8-33.1-33.1 14.8-33.1 33.1-33.1m0-19.5c-29 0-52.7 23.6-52.7 52.7 0 29 23.6 52.7 52.7 52.7s52.7-23.6 52.7-52.7-23.7-52.7-52.7-52.7z" />
        <path
            d="m393.8 166.7c9.3 15.8 4 36-11.7 45.3-15.8 9.3-36 4-45.3-11.7-9.3-15.8-4-36 11.7-45.3s36-4.1 45.3 11.7m16.9-10c-14.7-25-47.1-33.4-72.1-18.7s-33.4 47.1-18.7 72.1 47.1 33.4 72.1 18.7 33.4-47 18.7-72.1z" />
        <path
            d="m161 301.2c9.3 15.8 4 36-11.7 45.3s-36 4-45.3-11.7c-9.3-15.8-4-36 11.7-45.3s36-4.1 45.3 11.7m16.8-9.9c-14.7-25-47.1-33.4-72.1-18.7s-33.4 47.1-18.7 72.1 47.1 33.4 72.1 18.7c25.1-14.8 33.5-47.1 18.7-72.1z" />
        <path
            d="m394.2 334.1c-9 15.9-29.2 21.5-45.1 12.5s-21.5-29.2-12.5-45.1 29.2-21.5 45.1-12.5 21.5 29.1 12.5 45.1m17 9.6c14.3-25.3 5.4-57.5-19.9-71.8s-57.5-5.4-71.8 19.9-5.4 57.5 19.9 71.8 57.5 5.4 71.8-19.9z" />
        <path
            d="m161.1 199.9c-9 15.9-29.2 21.5-45.1 12.5s-21.5-29.2-12.5-45.1 29.2-21.5 45.1-12.5 21.5 29.2 12.5 45.1m17.1 9.7c14.3-25.3 5.4-57.5-19.9-71.8s-57.5-5.4-71.8 19.9-5.4 57.5 19.9 71.8 57.5 5.3 71.8-19.9z" />
    </g>
    <circle cx="249.5" cy="21.4" fill="#007c82" r="18.4" />
    <circle cx="448.1" cy="136.9" fill="#007c82" r="18.4" />
    <circle cx="448.1" cy="363.6" fill="#007c82" r="18.4" />
    <circle cx="249.8" cy="478.8" fill="#007c82" r="18.4" />
    <circle cx="51.3" cy="363.2" fill="#007c82" r="18.4" />
    <circle cx="51.3" cy="136.6" fill="#007c82" r="18.4" />
</svg>