<svg viewBox="0 0 500 500" xmlns="http://www.w3.org/2000/svg">
    <path
        d="m169.2 173h145.8c26.1 0 50.8 6.2 72.7 17.1 1.4-8.6 2.2-17.5 2.2-26.6 0-90.3-73.2-163.5-163.5-163.5h-145.8c-32.7 0-59.1 26.5-59.1 59.1v208.8c0 32.6 26.5 59.1 59.1 59.1h29.5v-94.9c0-32.6 26.4-59.1 59.1-59.1z"
        fill="#00cdaa" />
    <path
        d="m387.8 190.1c-12.7 77.6-80.1 136.9-161.4 136.9h-116.3v113.9c0 32.6 26.5 59.1 59.1 59.1h145.8c90.3 0 163.5-73.2 163.5-163.5 0-64.2-36.9-119.7-90.7-146.4z"
        fill="#00b2f9" />
</svg>