<svg xmlns:xlink="http://www.w3.org/1999/xlink" enable-background="new 0 0 500 500"
    viewBox="0 0 500 500" xmlns="http://www.w3.org/2000/svg">
    <linearGradient id="a">
        <stop offset="0" stop-color="#8077f2" />
        <stop offset="1" stop-color="#ffb29b" />
    </linearGradient>
    <linearGradient gradientTransform="matrix(1 0 0 -1 0 502)" gradientUnits="userSpaceOnUse" id="b"
        x1="101.3677" x2="405.7" y1="203.6633" y2="203.6633" xlink:href="#a" />
    <linearGradient gradientTransform="matrix(1 0 0 -1 0 502)" gradientUnits="userSpaceOnUse" id="c"
        x1="107.1294" x2="367.5262" y1="309.1755" y2="309.1755" xlink:href="#a" />
    <path
        d="m249.5 500c138.1 0 250-111.9 250-250s-111.9-250-250-250-250 111.9-250 250 111.9 250 250 250z"
        fill="#231f20" />
    <path
        d="m336.1 238.9c-2.9-.8-5.2 2.5-3.3 4.9 4.9 6.2 7.5 12.8 7.5 19.6 0 36.2-73.3 65.5-163.7 65.5-25.9 0-50.4-2.4-72.2-6.7-2.7-.5-4.2 3-1.8 4.5 28.8 18.7 80.5 31.2 139.5 31.2 90.4 0 163.7-29.3 163.7-65.5-.1-22.1-27.6-41.7-69.7-53.5z"
        fill="url(#b)" />
    <path
        d="m307.9 141.9c-2.5-.7-4.5 2.2-2.8 4.2 4.2 5.3 6.4 11 6.4 16.8 0 31-62.7 56-140.1 56-22.2 0-43.1-2-61.7-5.8-2.3-.5-3.5 2.6-1.6 3.9 24.7 16 68.9 26.7 119.3 26.7 77.4 0 140.1-25.1 140.1-56 0-18.9-23.5-35.7-59.6-45.8z"
        fill="url(#c)" />
</svg>