<svg enable-background="new 0 0 500 500" viewBox="0 0 500 500" xmlns="http://www.w3.org/2000/svg">
    <linearGradient gradientTransform="matrix(19.6506 0 0 -23.9409 .4763 11995.3857)"
        gradientUnits="userSpaceOnUse" id="a" x1="8.6634" x2="25.838" y1="491.8745" y2="486.9852">
        <stop offset="0" stop-color="#00ffc8" />
        <stop offset="1" stop-color="#00758c" />
    </linearGradient>
    <linearGradient gradientTransform="matrix(39.1355 0 0 -8.7967 -19.0678 4408.1504)"
        gradientUnits="userSpaceOnUse" id="b" x1=".4872" x2="13.2633" y1="481.9495" y2="481.9495">
        <stop offset="0" stop-color="#00ffc8" />
        <stop offset="1" stop-color="#00959a" />
    </linearGradient>
    <linearGradient gradientTransform="matrix(19.6506 0 0 -23.9409 .4763 11995.3857)"
        gradientUnits="userSpaceOnUse" id="c" x1="6.3484" x2="19.1245" y1="489.9593" y2="489.9593">
        <stop offset="0" stop-color="#00ffc8" />
        <stop offset="1" stop-color="#00bbab" />
    </linearGradient>
    <g clip-rule="evenodd" fill-rule="evenodd">
        <path
            d="m316 292.9c0 35.9-29.3 65.1-65.2 65.1-36 0-65.2-29.2-65.2-65.1v-68.2h130.4zm60.3-127.3v-53.2h-60.3v112.4h-130.5v-112.4h-60.3v53.2 59.2 68.2c0 69.1 56.3 125.3 125.5 125.3s125.5-56.2 125.5-125.3v-68.2-59.2z"
            fill="url(#a)" />
        <path
            d="m439.2 112.4c0 29.6-23.9 53.2-53.3 53.2h-11.9-60.3-130.4-60.3-9.2c-29.4 0-53.3-23.9-53.3-53.2h-60.5c0 64.6 49.9 112.4 114.5 112.4h8.4 251.1 12.6c64.7 0 113.3-47.6 113.3-112.4z"
            fill="url(#b)" />
        <path
            d="m316 292.9c0 35.9-29.3 65.1-65.2 65.1-36 0-65.2-29.2-65.2-65.1v-68.2h130.4zm0-68.1h-130.5v-112.4h-60.3v53.2 59.2 68.2c0 69.1 56.3 125.3 125.5 125.3s125.5-56.2 125.5-125.3v-68.2z"
            fill="url(#c)" />
    </g>
</svg>