<svg enable-background="new 0 0 500 500" viewBox="0 0 500 500" xmlns="http://www.w3.org/2000/svg">
    <g fill="#6066f1">
        <path
            d="m496.1 250.2c0 7.3-60.7 75.8-122.6 75.8-41.9 0-75.8-33.9-75.8-75.8s33.9-75.8 75.8-75.8c58.5 0 122.7 67.7 122.6 75.8z" />
        <path
            d="m249.6 4.5c7.3 0 75.8 60.7 75.8 122.6 0 41.9-33.9 75.8-75.8 75.8s-75.8-33.9-75.8-75.8c0-58.5 67.7-122.6 75.8-122.6z" />
        <path
            d="m3.8 250.4c0-7.3 60.7-75.8 122.6-75.8 41.9 0 75.8 33.9 75.8 75.8s-33.9 75.8-75.8 75.8c-58.5 0-122.7-67.7-122.6-75.8z" />
        <path
            d="m250.3 496.1c-7.3 0-75.8-60.7-75.8-122.6 0-41.9 33.9-75.8 75.8-75.8s75.8 33.9 75.8 75.8c0 58.5-67.7 122.6-75.8 122.6z" />
    </g>
</svg>