<svg xmlns:xlink="http://www.w3.org/1999/xlink" enable-background="new 0 0 500 500"
    viewBox="0 0 500 500" xmlns="http://www.w3.org/2000/svg">
    <linearGradient id="a">
        <stop offset="0" stop-color="#0086ff" />
        <stop offset="1" stop-color="#0eacfc" />
    </linearGradient>
    <linearGradient gradientUnits="userSpaceOnUse" id="b" x1="251.1289" x2="251.1289" y1="495.0778"
        y2="13.5466" xlink:href="#a" />
    <linearGradient gradientUnits="userSpaceOnUse" id="c" x1="265.1313" x2="265.1313" y1="495.0778"
        y2="13.5466" xlink:href="#a" />
    <linearGradient gradientUnits="userSpaceOnUse" id="d" x1="259.1521" x2="259.1521" y1="495.0778"
        y2="13.5466" xlink:href="#a" />
    <path
        d="m457.4 191.3c0 22.4-.7 44.9.1 67.2 1.9 49-14.4 91.7-42.7 130.9-21.4 29.6-49.3 51.5-80.2 70-24.4 14.6-50.1 26.7-76.8 36.5-4.6 1.7-8.6 1.8-13.4 0-42-15.9-81.9-35.5-116.7-64.1-40.8-33.7-68.4-76-79.7-128.1-2.4-11-3.2-22.4-3.3-33.7-.3-53.9-.1-107.9-.1-161.8 0-2.4.1-4.9.4-7.3 2.4-18 10.2-26.1 28.2-29.4 20.3-3.6 40.8-6.4 60.8-11 30-6.9 59-16.8 84.5-34.5 8.1-5.7 15.5-12.5 22.9-19.2 7-6.2 13.1-6.8 19.9-.2 21.1 20.3 46.5 33.1 73.5 43.1 28.2 10.3 57.2 16.5 86.7 20.6 3.1.4 6.2.9 9.2 1.5 17.6 3.8 25.9 13.5 26.6 31.5.3 8 .1 16 .1 24zm-286.3-41.7v9.3 151.8c0 7.8.1 15.5-.1 23.3-.2 7.9-3.1 11.1-11.1 12.2-4.1.6-8.2 1.2-12.5 1.8v31c2.6.2 4.6.5 6.6.5 38.2 0 76.3.1 114.5-.1 14.3-.1 28.3-2.7 41.8-7.3 13.2-4.5 24.9-11.5 34-22.4 12.7-15.2 16.3-33.1 15.9-52.2-.5-27.7-15.8-48.8-42.1-57.7-1.9-.7-3.8-1.6-6.7-2.8 2.5-1.8 3.8-2.8 5.3-3.7 20.8-13.3 31.4-31.9 30-56.9-1.5-25.9-13.3-44.5-38.2-54-14.8-5.7-30.1-7.4-45.7-7.6-35.5-.3-71-.1-106.5-.1-2.4 0-4.7.3-7.5.5v33.3c7.7.2 14.6.6 22.3 1.1z"
        fill="url(#b)" />
    <path
        d="m171.1 149.6c-7.7-.5-14.7-.9-22.1-1.3 0-11.3 0-22 0-33.3 2.7-.2 5.1-.5 7.5-.5 35.5 0 71-.2 106.5.1 15.5.1 30.9 1.9 45.7 7.6 24.8 9.6 36.6 28.1 38.2 54 1.5 25-9.2 43.7-30 56.9-1.4.9-2.8 2-5.3 3.7 2.9 1.2 4.7 2.2 6.7 2.8 26.2 8.9 41.6 30.1 42.1 57.7.3 19.2-3.2 37.1-15.9 52.2-9.1 10.9-20.8 17.8-34 22.4-13.5 4.7-27.5 7.2-41.8 7.3-38.2.2-76.3.1-114.5.1-2 0-3.9-.3-6.6-.5 0-10.3 0-20.4 0-31 4.2-.6 8.4-1.2 12.5-1.8 7.9-1.2 10.9-4.3 11.1-12.2.2-7.8.1-15.5.1-23.3 0-50.6 0-101.2 0-151.8-.2-2.6-.2-5.4-.2-9.1zm49.2 193.3c18.7-.7 36.8-1.3 54.9-2 .9 0 1.7-.3 2.6-.5 25.6-6.4 38.2-30 29.3-55.1-5.8-16.5-19.1-23.7-35.1-25.4-14.7-1.5-29.6-1-44.5-1.3-2.3 0-4.7.6-7.2.9zm.3-119.3c8 0 15.1.3 22.2-.1 9.5-.6 19.1-.7 28.3-2.8 17.9-4.1 27.3-18.4 26.7-38.4-.5-16.7-9.1-26.8-28.5-29.2-15.5-1.9-31.3-1-47-1.3-.4 0-.7.4-1.6 1-.1 23-.1 46.3-.1 70.8z"
        fill="#fff" />
    <path
        d="m220.3 342.9c0-28.7 0-55.7 0-83.3 2.6-.3 4.9-1 7.2-.9 14.8.3 29.7-.2 44.5 1.3 16 1.7 29.3 8.8 35.1 25.4 8.9 25.1-3.7 48.7-29.3 55.1-.9.2-1.7.5-2.6.5-18.1.5-36.2 1.2-54.9 1.9z"
        fill="url(#c)" />
    <path
        d="m220.6 223.6c0-24.5 0-47.8 0-70.8.9-.6 1.3-1 1.6-1 15.7.3 31.5-.6 47 1.3 19.4 2.4 28 12.5 28.5 29.2.6 20-8.8 34.3-26.7 38.4-9.2 2.1-18.8 2.2-28.3 2.8-7 .4-14.1.1-22.1.1z"
        fill="url(#d)" />
</svg>