<svg enable-background="new 960 -1000 2420 2500" viewBox="960 -1000 2420 2500"
    xmlns="http://www.w3.org/2000/svg">
    <g fill="#fdba4d">
        <path
            d="m136.852 1219.484c116.919 0 211.494 94.575 211.494 211.494s-94.575 211.494-211.494 211.494-211.494-94.055-211.494-210.974 94.575-212.014 211.494-212.014z"
            transform="matrix(.70710678 -.70710678 .70710678 .70710678 368.612737 13.759869)" />
        <path
            d="m2128.64 1245.498c116.919 0 211.494 94.575 211.494 211.494s-94.575 211.494-211.494 211.494-211.494-94.575-211.494-211.494c.52-116.4 95.094-211.494 211.494-211.494z"
            transform="matrix(.70710678 -.70710678 .70710678 .70710678 387.094111 32.239852)" />
        <path
            d="m442.929 1289.506v315.422h288.92c-20.786-48.327-32.218-101.33-32.218-157.971 0-55.602 11.432-109.125 32.218-157.971z"
            transform="matrix(.70710678 -.70710678 .70710678 .70710678 374.021082 18.114768)" />
        <path
            d="m1537.292 1598.474h288.92v-315.422h-288.92c20.786 48.327 32.218 101.33 32.218 157.971-.001 56.121-11.433 109.124-32.218 157.451z"
            transform="matrix(.70710678 -.70710678 .70710678 .70710678 384.053679 28.147601)" />
    </g>
    <path
        d="m2427.405-930.805c-116.919 0-211.494-94.575-211.494-211.494s94.574-211.494 211.494-211.494c116.919 0 211.494 94.575 211.494 211.494-.001 116.399-95.095 211.494-211.494 211.494z"
        fill="#5da9dd"
        transform="matrix(.70710678 .70710678 -.70710678 .70710678 391.240006 9.613071)" />
    <path
        d="m449.653-931.296c-116.919 0-211.494-94.575-211.494-211.494s94.575-211.494 211.494-211.494 211.494 94.575 211.494 211.494-94.575 211.494-211.494 211.494z"
        fill="#5da9dd"
        transform="matrix(.70710678 .70710678 -.70710678 .70710678 372.760047 28.09364)" />
    <path
        d="m2117.706-963.671v-315.422h-288.92c20.786 48.327 32.218 101.33 32.218 157.971 0 55.602-11.432 109.125-32.218 157.971z"
        fill="#5da9dd"
        transform="matrix(.70710678 .70710678 -.70710678 .70710678 386.884834 15.021386)" />
    <path
        d="m1045.167-1311.529h-288.92v315.422h288.92c-20.786-48.327-32.218-101.33-32.218-157.971.001-55.602 11.433-109.125 32.218-157.451z"
        fill="#5da9dd"
        transform="matrix(.70710678 .70710678 -.70710678 .70710678 376.852237 25.05422)" />
    <path
        d="m2037.593-766.92c0 116.919-94.575 211.494-211.494 211.494s-211.494-94.575-211.494-211.494 94.575-211.494 211.494-211.494 211.494 94.575 211.494 211.494z"
        fill="#18568c" transform="translate(379.068 7)" />
    <path
        d="m2037.593 1226.976c0 116.919-94.575 211.494-211.494 211.494s-211.494-94.575-211.494-211.494 94.575-211.494 211.494-211.494 211.494 94.574 211.494 211.494z"
        fill="#18568c" transform="translate(379.068 33.136)" />
    <path
        d="m1901.04-451.63h-133.028v261.899c21.825-3.637 43.65-5.716 66.514-5.716s44.689 2.079 66.514 5.716z"
        fill="#18568c" transform="translate(381.076 13.903)" />
    <path
        d="m1901.04 659.153c-21.825 3.638-43.65 5.716-66.514 5.716s-44.689-2.079-66.514-5.716v261.899h133.028z"
        fill="#18568c" transform="translate(381.076 28.465)" />
    <path
        d="m383.841-2742.687c0 116.919-94.575 211.494-211.494 211.494s-211.494-94.575-211.494-211.494 94.575-211.494 211.494-211.494 211.494 94.575 211.494 211.494z"
        fill="#18578c" transform="matrix(0 1 -1 0 398 20.068)" />
    <path
        d="m419.697-827.257c0 116.919-94.575 211.494-211.494 211.494s-211.494-94.575-211.494-211.494 94.575-211.494 211.494-211.494 211.494 94.575 211.494 211.494z"
        fill="#18578c" transform="matrix(0 1 -1 0 371.864 20.068)" />
    <path
        d="m272.755-2211.746v-261.899h-133.028v261.899c21.825-3.637 43.65-5.716 66.514-5.716s44.689 2.078 66.514 5.716z"
        fill="#18578c" transform="matrix(0 1 -1 0 391.097 22.077)" />
    <path
        d="m272.75-1412.752c-21.825 3.637-43.65 5.716-66.514 5.716s-44.689-2.078-66.514-5.716v261.899h133.028z"
        fill="#18578c" transform="matrix(0 1 -1 0 376.536 22.076)" />
    <path
        d="m2120.796 224.891c0 165.246-134.068 299.833-299.833 299.833s-299.833-134.067-299.833-299.833 134.067-299.833 299.833-299.833 299.832 134.588 299.833 299.833z"
        fill="#18568b" transform="translate(377.844 18.844)" />
</svg>