<svg enable-background="new 0 0 500 500" viewBox="0 0 500 500" xmlns="http://www.w3.org/2000/svg">
    <path
        d="m250 500c138.1 0 250-111.9 250-250s-111.9-250-250-250-250 111.9-250 250 111.9 250 250 250z"
        fill="#1940b0" />
    <path clip-rule="evenodd"
        d="m251.4 49.6 173.7 102.8v44.7l-86.3 51.9 86.3 51.5v48.7l-165.1 100-47.5-28.5v-95.7l-82.6 49.7-48.7-29.1v-193.5l47.4-28.5 84 50.1v-100.6s38.8-23.5 38.8-23.5zm-38.8 174.7-83.9-50-4 2.4v144.2l5.2 3.1 82.7-49.8zm43.4 74.5 40.6-24.4 84.7 50.5-121.4 73.6-3.9-2.3zm40.5-75.1-40.5-24.1v-96.7l121.7 72s-81.2 48.8-81.2 48.8z"
        fill="#fff" fill-rule="evenodd" />
</svg>