<svg enable-background="new 0 0 500 500" viewBox="0 0 500 500" xmlns="http://www.w3.org/2000/svg">
    <linearGradient gradientUnits="userSpaceOnUse" id="a" x1="33.5965" x2="484.318" y1="32.8509"
        y2="486.6737">
        <stop offset="0" stop-color="#945bf7" />
        <stop offset=".503" stop-color="#009bff" />
        <stop offset="1" stop-color="#00e0de" />
    </linearGradient>
    <path
        d="m250.5 494.3c-134.2 0-243-108.8-243-243v-156.5c0-47.8 38.7-86.5 86.5-86.5h156.5c134.2 0 243 108.8 243 243 0 134.2-108.8 243-243 243z"
        fill="url(#a)" />
    <g fill="#fff">
        <path
            d="m252.3 400.8c-29.6 0-60-9.8-85.7-27.6-23.5-16.3-41.5-38.2-49.3-60-4.6-13 2.1-27.3 15.1-31.9s27.3 2.1 31.9 15.1c8 22.3 43.8 54.5 87.9 54.5 38.5 0 91.9-30.7 91.9-88.5 0-30.5-9.6-56.7-27-73.9-16.4-16.2-39.8-24.6-67.9-24.3-59 .6-84.5 58.4-85.5 60.9-4.6 11-16.3 17.2-27.9 14.8-11.7-2.3-20-12.6-20-24.5v-107.4c0-13.8 11.2-25 25-25s25 11.2 25 25v35.7c20.3-16.1 47.6-29.1 83.1-29.5 41.6-.5 77.5 13 103.5 38.8 26.9 26.7 41.8 65.5 41.8 109.4 0 39.6-16.6 75.8-46.9 102-26.7 23.1-61.3 36.4-95 36.4z" />
        <circle cx="250.7" cy="257.2" r="37.5" />
    </g>
</svg>