<svg enable-background="new 0 0 500 500" viewBox="0 0 500 500" xmlns="http://www.w3.org/2000/svg">
    <linearGradient gradientUnits="userSpaceOnUse" id="a" x1="250.103" x2="250.103" y1="498.3893"
        y2="1.8168">
        <stop offset="0" stop-color="#ef4425" />
        <stop offset="1" stop-color="#fbb769" />
    </linearGradient>
    <circle cx="250.1" cy="250.1" fill="url(#a)" r="248.3" />
    <path
        d="m384.1 163.5-123.7-69.2c-2.8-1.6-6-2.4-9.1-2.4s-6.3.8-9.1 2.4l-123.7 69.2c-5.9 3.3-9.6 9.6-9.6 16.3v137.4c0 6.8 3.7 13 9.6 16.3l123.7 69.2c2.8 1.6 6 2.4 9.1 2.4s6.3-.8 9.1-2.4l123.7-69.2c5.9-3.3 9.6-9.6 9.6-16.3v-137.4c-.1-6.8-3.7-13-9.6-16.3zm-134.9 87.7-68.8-37.2 70.5-37.5 69.8 37.2zm-71.7-22.3 64.4 34.8v62.2l-64.4-34.3zm78.9 34.9 67.7-35.6v63.4l-67.7 36.1zm82.2-43.2 38.5-20.2v99.8l-38.5-21.9zm-212.1-42.7 123.7-69.2c.3-.2.7-.3 1.1-.3s.7.1 1.1.3l123.6 69.2c.7.4 1.1 1.1 1.1 1.9v4.2l-41.6 21.9c-.8-.9-1.8-1.6-2.9-2.2l-76.5-40.8c-1.7-.9-3.5-1.3-5.3-1.3s-3.6.4-5.3 1.3l-76.5 40.8c-3.7 2-6 5.8-6 9.9v65l-37.6 20.5v-119.3c0-.8.5-1.5 1.1-1.9zm-1.1 139.4v-1.7l37.7-20.5c.5 3.6 2.6 6.8 5.9 8.5l72.9 38.8v41.4l-115.4-64.6c-.6-.4-1.1-1.2-1.1-1.9zm250.6 1.9-119.6 66.9v-42l76.2-40.6c3.3-1.8 5.5-5 5.9-8.7l38.4 21.9.2-.3v.9c0 .7-.4 1.5-1.1 1.9z"
        fill="#fff" />
</svg>