<svg enable-background="new 0 0 500 500" viewBox="0 0 500 500" xmlns="http://www.w3.org/2000/svg">
    <path
        d="m249.2 123.1c69.6 0 126.1 56.4 126.1 126.1s-56.4 126.1-126.1 126.1-126.1-56.4-126.1-126.1 56.4-126.1 126.1-126.1m0-62.5c-25.4 0-50.1 5-73.4 14.8-22.5 9.5-42.6 23.1-59.9 40.4s-30.9 37.5-40.4 59.9c-9.9 23.3-14.8 48-14.8 73.4s5 50.1 14.8 73.4c9.5 22.5 23.1 42.6 40.4 59.9s37.5 30.9 59.9 40.4c23.3 9.9 48 14.8 73.4 14.8s50.1-5 73.4-14.8c22.5-9.5 42.6-23.1 59.9-40.4s30.9-37.5 40.4-59.9c9.9-23.3 14.8-48 14.8-73.4s-5-50.1-14.8-73.4c-9.5-22.5-23.1-42.6-40.4-59.9s-37.5-30.9-59.9-40.4c-23.3-9.8-48-14.8-73.4-14.8z"
        fill="#0189fb" />
    <path
        d="m249.2 22.3c125.2 0 226.8 101.6 226.8 226.9s-101.6 226.8-226.8 226.8-226.9-101.6-226.9-226.8 101.6-226.9 226.9-226.9m0-19.5c-33.2 0-65.5 6.5-95.9 19.4-29.4 12.4-55.7 30.1-78.3 52.8s-40.4 49-52.8 78.3c-12.9 30.3-19.4 62.6-19.4 95.9s6.5 65.5 19.4 95.9c12.4 29.3 30.2 55.7 52.8 78.3s49 40.4 78.3 52.8c30.4 12.9 62.6 19.4 95.9 19.4s65.5-6.5 95.9-19.4c29.3-12.4 55.7-30.2 78.3-52.8s40.4-49 52.8-78.3c12.9-30.4 19.4-62.6 19.4-95.9s-6.5-65.5-19.4-95.9c-12.5-29.4-30.2-55.7-52.9-78.3-22.6-22.6-49-40.4-78.3-52.8-30.3-12.9-62.6-19.4-95.8-19.4z"
        fill="#016dc4" />
</svg>