<svg enable-background="new 999 -1000 2498 2500" viewBox="999 -1000 2498 2500"
    xmlns="http://www.w3.org/2000/svg">
    <path
        d="m2254.801-139.814c-46.614-110.949-120.195-208.415-213.423-284.307-93.613-75.892-204.177-127.514-322.06-150.629-118.269-23.114-240.004-16.565-355.191 18.491-115.572 35.057-220.357 97.851-305.495 182.989-103.244 103.244-103.244 270.438 0 373.683s270.438 103.244 373.297 0c18.877-18.877 41.221-33.901 65.491-44.303 25.426-10.787 52.778-16.18 80.13-16.18 27.737 0 54.704 5.393 80.13 16.18 36.983 15.795 68.573 41.991 90.917 75.122 23.114 33.901 35.442 73.966 35.057 115.187 0 146.006 118.269 264.274 263.889 264.274s263.889-118.269 263.889-264.274c1.155-98.621-18.493-195.702-56.631-286.233z"
        fill="#00ffba" transform="translate(204.834 -372)" />
    <path
        d="m2039.622 821.187c-146.006 0-263.889 118.269-263.889 264.274 0 27.737-5.393 54.704-16.18 80.13-15.795 36.983-41.606 68.573-75.122 90.916-16.565 11.172-34.672 20.033-53.548 25.811-36.598 11.557-75.507 12.328-112.49 3.082-36.983-9.631-70.884-29.278-97.08-56.63-18.106-18.877-32.36-40.835-42.376-64.72-20.803-50.852-20.418-107.867.771-158.719 15.795-36.983 41.606-68.573 75.122-90.917 33.901-23.114 73.966-35.057 115.187-35.057 146.006 0 263.889-118.269 263.889-264.274 0-146.006-118.269-264.274-263.889-264.274-144.08 0-285.078 42.376-405.272 121.736-120.195 79.359-214.579 192.62-270.824 325.528-56.245 132.523-72.425 278.914-46.229 420.682s93.613 272.75 193.776 376.379c101.703 105.556 232.3 177.981 375.609 208.8 143.309 30.434 292.397 17.721 428.001-37.368 135.604-54.704 251.947-149.088 334.003-270.438 81.671-121.351 125.588-264.66 125.588-411.051-1.158-145.622-119.426-263.89-265.047-263.89z"
        fill="#00cfab" transform="translate(203.003 -359.5)" />
    <path
        d="m3162.056-189.122c-51.237-99.777-124.818-186.841-214.964-253.873l-.385-.385c-109.408-81.286-238.849-130.596-374.453-142.539-135.604-11.942-271.979 14.254-393.715 75.507s-223.824 154.866-295.479 270.824c-71.263 116.004-108.999 249.481-109.023 385.625 0 146.006 118.269 264.274 263.889 264.274s263.889-118.269 263.889-264.274c0-27.737 5.393-54.704 16.18-80.13 15.795-36.983 41.606-68.573 75.122-90.916 16.565-11.172 34.672-20.033 53.548-25.811 31.204-9.631 63.95-11.942 95.925-6.549s62.409 18.491 88.22 37.753c25.426 18.877 46.229 43.532 60.868 71.655 13.483 26.967 21.188 56.245 22.344 86.294s-4.238 60.097-15.795 87.835c-15.795 36.983-41.606 68.573-75.122 90.916-16.565 11.172-34.672 20.033-53.548 25.811-20.032 6.164-40.45 9.246-61.638 9.246-146.006 0-263.889 118.269-263.889 264.274 0 146.006 118.269 264.274 263.889 264.274 125.973 0 249.635-32.36 359.429-93.999 109.793-61.638 201.865-150.243 267.356-257.725s102.474-229.988 107.097-355.576c5.393-125.589-22.344-250.407-79.745-362.511z"
        fill="#00cfab" transform="translate(215.509 -371.999)" />
    <g fill="#00ffba">
        <path
            d="m3181.318 791.523c-56.245-132.908-150.243-246.553-270.438-326.298s-261.578-122.506-406.043-122.121c-146.006 0-263.889 118.269-263.889 264.274 0 146.006 118.269 264.274 263.889 264.274 27.737 0 54.704 5.393 80.13 16.18 36.983 15.795 68.573 41.991 90.917 75.122 18.877 28.122 30.819 60.868 33.901 94.769 3.467 33.901-1.541 68.188-14.639 99.392-10.016 24.27-24.655 46.229-42.761 64.72-18.877 19.647-41.606 35.057-66.261 45.844-25.426 10.787-53.163 16.565-80.9 16.565s-55.475-5.394-80.9-16.18c-36.983-15.795-68.573-41.991-90.917-75.122-23.115-33.901-35.057-74.351-35.057-115.187 0-146.006-118.269-264.274-263.889-264.274s-263.891 118.269-263.891 264.275c0 146.391 43.532 289.315 124.818 410.666 81.671 121.351 197.628 215.349 333.232 270.438s284.307 68.188 427.231 38.139 273.906-102.089 375.609-207.259c100.548-103.63 168.35-234.611 194.931-376.379 26.581-142.154 10.786-288.931-45.073-421.838z"
            transform="translate(215.509 -359.5)" />
        <path
            d="m1572.703 357.745c-27.737 0-54.704-5.393-80.13-16.18-36.983-15.795-68.573-41.606-90.917-75.122-26.967-39.68-38.909-87.449-34.286-135.219s25.811-92.072 59.712-125.973c103.244-103.244 103.244-270.438 0-373.683-103.244-103.244-270.438-103.244-373.297 0-102.859 102.859-172.973 233.455-201.48 375.994-28.508 142.538-13.869 290.471 41.606 424.534 55.475 134.449 149.858 248.865 270.824 329.765 120.965 80.9 263.119 123.662 408.354 123.662 146.006 0 263.889-118.269 263.889-264.274 0-145.236-118.269-263.504-264.275-263.504z"
            transform="translate(203 -370.169)" />
    </g>
</svg>