<svg enable-background="new 0 0 500 500" viewBox="0 0 500 500" xmlns="http://www.w3.org/2000/svg">
    <linearGradient gradientUnits="userSpaceOnUse" id="a" x1="11.0146" x2="491.1373" y1="250.1713"
        y2="250.1713">
        <stop offset="0" stop-color="#f8a438" />
        <stop offset=".9995" stop-color="#fe4f92" />
    </linearGradient>
    <path
        d="m491.127 249.923c1.235 131.759-109.031 244.164-247.546 240.324-125.113-3.467-236.206-108.232-232.475-247.87 3.232-120.98 105.016-238.169 252.032-232.155 120.222 4.918 228.18 104.93 227.989 239.701zm-175.711-1.775c3.924-1.365 7.428-2.707 11.007-3.808 19.908-6.128 35.003-21.7 34.182-47.2-.813-25.252-16.785-41.114-37.933-47.647-20.214-6.244-41.33-6.616-62.189-7.043-34.969-.716-69.964-.151-104.947-.15-11.44 0-17.156 5.707-17.156 17.282-.002 60.774.005 121.549.004 182.323 0 10.323 6.148 16.116 17.106 16.059 36.765-.192 73.531-.242 110.293-.647 19.156-.211 38.259-1.622 56.643-7.608 22.426-7.302 38.341-20.524 41.183-45.722 2.546-22.582-6.165-39.176-26.697-48.488-6.645-3.013-13.853-4.781-21.496-7.351zm-44.496 63.375c7.376-.167 14.904-2.183 21.985-4.503 7.277-2.384 9.947-8.752 9.807-16.116-.135-7.087-2.659-13.479-9.816-15.559-8.123-2.361-16.624-4.144-25.045-4.588-13.956-.736-27.98-.158-41.975-.219-7.416-.032-10.668-3.172-10.767-10.463-.1-7.395-.058-14.794.076-22.188.137-7.543 3.098-10.469 10.618-10.506 12.995-.064 25.999.252 38.983-.126 7.143-.208 14.366-.978 21.353-2.445 8.954-1.88 13.317-7.815 13.507-16.595.174-8.024-3.666-13.486-12.29-16.077-5.278-1.586-10.848-2.923-16.314-3.033-21.779-.438-43.569-.352-65.354-.456-2.732-.013-5.464-.002-8.548-.002v123.086c25.088-.002 49.444.342 73.78-.21z"
        fill="url(#a)" />
</svg>