<svg enable-background="new 0 0 500 500" viewBox="0 0 500 500" xmlns="http://www.w3.org/2000/svg">
    <path
        d="m443.59 181.12c-1.62 2.25-3.37 4.41-5.06 6.6 2.38 11.9 5.94 23.52 7.56 35.62 5.18 38.88-.44 76.06-17.18 111.49-17.08 36.15-42.95 64.44-77.11 85.19-1.59.96-3.05 2.13-4.58 3.21-.22.83-.59 1.53-1.58 1.59-1.05 5.15-5.26 8.24-8.52 11.56-11.13 11.32-23.91 20.11-38.34 27.37-26.51 13.33-55.26 18.38-83.36 26.01-5.92 1.61-12.04 2.53-17.84 4.55 16.91 3.61 34.44 5.52 52.42 5.52 138.07 0 250-111.93 250-250 0-38.19-8.57-74.36-23.88-106.74-12.29 11.42-22.74 24.44-32.53 38.03z"
        fill="#2bcdfe" />
    <path
        d="m52.39 265.57c-1.19-21.37.41-42.47 5.58-63.3 6.8-27.43 19.13-52.1 36.43-74.34 14.03-18.03 30.98-32.83 50.14-45.19 2.48-1.6 5.67-2.38 7.08-5.42 6.64-13.83 14.55-26.96 22.43-40.08 6.42-10.69 13.64-20.91 20.61-31.27-111.44 25.19-194.66 124.8-194.66 243.85 0 16.56 1.63 32.75 4.7 48.41 16.11-7.72 30.64-17.78 43.66-30.05 1.19-1.12 2.31-2.32 4.03-2.61z"
        fill="#da0c9b" />
    <path
        d="m151.63 77.33c5.98-.77 10.54-4.75 15.86-7.03 63.99-27.45 126.02-23.73 186.18 11.34 1 .58 2.09.99 3.14 1.48 9.95-8.75 21.59-15.08 32.43-22.55 4.4-3.03 8.99-5.8 13.53-8.63-42.25-32.67-95.24-52.12-152.77-52.12-19.02 0-37.53 2.13-55.33 6.16-6.97 10.36-14.19 20.58-20.61 31.27-7.88 13.11-15.8 26.25-22.43 40.08z"
        fill="#a708be" />
    <g fill="#644ede">
        <path
            d="m298.78 463.74c14.43-7.26 27.21-16.05 38.34-27.37 3.26-3.32 7.47-6.41 8.52-11.56-.01 0-.01 0-.02.01 0-.02.01-.03 0-.05-4.2-.08-7.29 2.71-10.81 4.32-44.23 20.28-89.83 24.98-137 12.34-6.93-1.86-14.16-3.19-20.58-6.2-14.69-6.89-29.16-14.31-42.66-23.43-9.16 14.51-18.96 28.5-31.53 40.28 27.74 20.19 59.8 34.82 94.53 42.23 5.8-2.02 11.92-2.94 17.84-4.55 28.11-7.64 56.86-12.7 83.37-26.02z" />
        <path
            d="m356.81 83.11c.85.77 1.62 1.67 2.57 2.3 30.9 20.55 53.96 47.81 70 81.21 3.33 6.93 5.17 14.48 9.15 21.11 1.69-2.2 3.44-4.36 5.06-6.6 9.8-13.59 20.24-26.61 32.53-38.03-16.98-35.9-42.25-67.11-73.35-91.15-4.54 2.83-9.13 5.59-13.53 8.63-10.84 7.45-22.48 13.78-32.43 22.53z" />
        <path
            d="m345.63 424.77c0 .02-.01.03 0 .05.01 0 .01 0 .02-.01.99-.07 1.35-.76 1.58-1.59-.83.22-1.76.35-1.6 1.55z" />
    </g>
    <path
        d="m134.58 411.79c-6.01-6.42-13.86-10.51-20.12-16.87-14.39-14.62-27.29-30.19-37.36-48.07-14.22-25.27-21.98-52.51-24.71-81.28-1.72.28-2.84 1.48-4.03 2.6-13.03 12.27-27.56 22.33-43.66 30.05 12.36 62.96 48.34 117.44 98.35 153.84 12.57-11.77 22.37-25.76 31.53-40.27z"
        fill="#a708be" />
    <circle cx="249.96" cy="252.12" fill="#fff" r="203.33" />
    <path
        d="m160.13 187.15c0-8.34 0-16 0-24.33h46.18c0-12.91 0-25.19 0-37.72h23.23v36.29h18.22c0-11.87 0-23.71 0-36.05h23.26v36.34c4.85 1.98 9.59 1.86 14.1 2.72 8.34 1.6 16.2 4.23 23.8 8.14 23.9 12.28 25.48 53.21 2.08 66.02-.6.33-1.08.86-1.62 1.3.84 2.29 3.09 1.93 4.7 2.54 18.69 7.05 27.01 19.04 26.97 39.07-.05 28.54-14.52 46.12-42.54 51.86-8.71 1.78-17.46 3.11-27.17 3.2v38.41c-7.99.56-15.14.47-22.9.1 0-12.43 0-24.52 0-37-6.25-1.17-12-.39-18.51-.74v37.52c-8.11.85-15.46.38-23.51.39 0-13.06 0-25.58 0-38.8-15.83 0-30.96 0-46.51 0 1.56-9.26 2.98-17.76 4.45-26.5 4.77-1.53 9.7-.55 14.53-.73 8.48-.32 10.91-2.57 10.92-10.98.05-32.6.05-65.2 0-97.79-.01-8.25-3.4-12.04-11.53-13-3.01-.36-6.09-.2-9.13-.24-2.77-.05-5.57-.02-9.02-.02zm70.4 71.46v50.41c14.82.66 29.25.6 43.43-3.09 4.55-1.18 8.87-3.03 12.72-5.81 10.05-7.28 11.26-21.99 2.58-30.86-3.89-3.98-8.68-6.29-13.94-7.76-14.65-4.07-29.56-3.44-44.79-2.89zm-.08-23.6c14.27.26 27.89.89 40.77-4.56 10.47-4.43 14.98-13.14 12.39-23.81-2.06-8.49-8.49-12.66-16.2-14.97-12.03-3.59-24.36-3.41-36.96-2.56z"
        fill="#040404" />
    <path
        d="m147.61 243.09c.68 5.2 1.5 9.53-.83 14.32-7.06 0-14.23 0-22.17 0v23.36c-5.48 1.87-10.24 1.43-15.49.56-1.77-7.69-.01-15.45-1.19-23.78-7.28 0-14.67 0-22.01 0-1.64-5.05-1.1-9.39-.67-13.73 3.51-2.73 7.39-1.25 10.99-1.48 3.7-.23 7.43-.05 11.47-.05 1.8-7.73-.68-15.55 1.63-23.13 5.04-.56 9.81-1.33 14.72.66 1.39 7.25-.08 14.51.92 22.01 7.34 1.37 14.86-.57 22.63 1.26z"
        fill="#040404" />
    <path
        d="m374.3 241.92c1.02-7.63-.44-14.91.97-22.34 4.86-1.74 9.6-.81 14.65-.47 1.87 7.69.1 15.2 1.31 23.21h21.28c3.29 5.03 1.58 9.56 1.61 14.3-7.86 1.84-15.36-.01-23.35 1.28v22.98c-5.47 1.66-10.24 1.42-15.34.44-1.73-7.75-.01-15.51-1.18-23.86-7.34 0-14.73 0-22.35 0-1.23-5.04-.89-9.36-.37-14.29 7.33-2 14.86-.09 22.77-1.25z"
        fill="#040404" />
</svg>