<svg enable-background="new 1500 0 500 500" viewBox="1500 0 500 500"
    xmlns="http://www.w3.org/2000/svg">
    <g transform="translate(0 -115.87)">
        <path
            d="m1776.402 331.938c124.684-37.813 80.178-164.921 0-169.749 20.372 0 37.005-57.386 37.005-128.451 195.754 13.676 287.73 330.918-5.891 430.139 1.878-25.744-8.848-97.612-31.107-131.939"
            stroke="#000" stroke-miterlimit="10" stroke-width=".25" />
        <path
            d="m1504.494 294.386c146.145 0 264.401-116.385 264.401-260.39h-136.489c.267 70.527-56.849 128.184-127.644 128.451h-.268zm178.86-23.867c-36.995 32.717-57.654 49.611-159.016 65.699 59.799 0 108.068 58.997 108.068 131.939h136.492c0-21.989-4.558-132.207-85.541-197.638z"
            fill="#f60" />
    </g>
</svg>