<svg enable-background="new 0 0 500 500" viewBox="0 0 500 500" xmlns="http://www.w3.org/2000/svg">
    <linearGradient gradientUnits="userSpaceOnUse" id="a" x1="95.6694" x2="328.6481" y1="119.6695"
        y2="119.6695">
        <stop offset="0" stop-color="#3e3e3e" />
        <stop offset=".9995" stop-color="#7c7c7c" />
    </linearGradient>
    <circle cx="212.159" cy="119.669" fill="url(#a)" r="116.489" />
    <path
        d="m133.725 34.789c-4.017 17.516-7.645 34.442-6.379 52.137.86 12.014 4.568 22.915 11.014 32.962 10.671 16.633 26.607 26.267 44.768 32.283 42.49 14.077 84.775 28.578 125.809 46.653 26.833 11.819 49.111 28.938 66.295 52.473 15.34 21.01 24.537 44.734 27.809 70.553 5.288 41.721-4.628 79.901-30.229 113.01-32.788 42.403-76.698 63.037-130.536 61.048-37.962-1.402-70.941-15.928-98.466-41.609-26.01-24.268-41.687-54.59-46.911-89.998-.805-5.458-1.503-10.997-1.509-16.499-.079-78.078-.674-156.164.314-234.23.381-30.153 14.147-55.731 35.559-76.98.714-.71 1.637-1.207 2.462-1.803z" />
</svg>