<svg enable-background="new 0 0 500 500" viewBox="0 0 500 500" xmlns="http://www.w3.org/2000/svg">
    <path
        d="m245.535 292.49s-11.627 6.458-15.506 8.645c-41.704-42.181-83.218-84.169-125.832-127.272 0-53.761 0-165.857 0-165.857l43.175 40.827 98.426 98.455s-.103 9.726-.113 13.355c-.106 40.629-.15 131.847-.15 131.847z"
        fill="#0b5079" />
    <path
        d="m210.178 330.58c-34.932 0-70.035 0-105.888 0 0-42.72 0-85.322 0-127.021 36.434 37.053 73.456 74.704 110.478 112.355.865-.745-2.103 8.816-4.59 14.666z"
        fill="#0b5079" />
    <path
        d="m282.441 300.356c-4.355-2.681-9.949-5.676-16.796-7.147 0-35.059 0-70.022 0-104.953 24.729-4.234 74.055 16.297 92.358 36.71-24.932 24.875-49.843 49.729-75.562 75.39z"
        fill="#79c5eb" />
    <path
        d="m410.023 348.373c-2.069 36.286-15.88 66.568-38.687 93.116-25.085-25.369-49.748-50.312-75.206-76.059 2.624-4.211 5.364-10.215 7.321-17.056 35.196-.001 70.216-.001 106.572-.001z"
        fill="#2781ac" />
    <path
        d="m357.331 455.239c-25.854 21.841-56.112 34.376-91.429 36.872 0-35.736 0-70.716 0-105.941 5.572-2.358 11.096-4.696 16.808-7.114 24.57 25.085 49.252 50.284 74.621 76.183z"
        fill="#2781ac" />
    <path
        d="m218.271 365.59c-25.321 25.588-49.979 50.506-75.236 76.028-23.7-26.551-36.431-57.245-39.236-93.135h106.767c1.748 5.564 4.029 11.791 7.705 17.107z"
        fill="#175b8c" />
    <path
        d="m409.412 330.452c-35.469 0-70.233 0-105.452 0-2.46-5.887-4.879-11.676-6.87-16.44 25.217-25.431 49.859-50.283 74.495-75.129 21.085 19.685 37.62 59.312 37.827 91.569z"
        fill="#4fa1d2" />
    <path
        d="m238.325 491.208c-31.081-4.109-58.694-16.119-82.092-36.507 25.061-24.89 50.016-49.674 75.798-75.28 3.345 1.394 8.553 3.563 13.761 5.734-.08 32.454-.221 106.956-.221 106.956s-4.143-.493-7.246-.903z"
        fill="#175b8c" />
</svg>