<svg xmlns:xlink="http://www.w3.org/1999/xlink" enable-background="new 0 0 500 500"
    viewBox="0 0 500 500" xmlns="http://www.w3.org/2000/svg">
    <linearGradient id="a">
        <stop offset="0" stop-color="#00d080" />
        <stop offset="1" stop-color="#0bdd60" />
    </linearGradient>
    <linearGradient gradientTransform="matrix(1 0 0 -1 0 144)" gradientUnits="userSpaceOnUse" id="b"
        x1="120.2327" x2="120.2327" y1="112.1805" y2="-299.8873" xlink:href="#a" />
    <linearGradient gradientTransform="matrix(1 0 0 -1 0 144)" gradientUnits="userSpaceOnUse" id="c"
        x1="180.0021" x2="180.0021" y1="112.1805" y2="-299.8873" xlink:href="#a" />
    <linearGradient gradientTransform="matrix(1 0 0 -1 0 144)" gradientUnits="userSpaceOnUse" id="d"
        x1="379.3903" x2="379.3903" y1="112.1805" y2="-299.8873" xlink:href="#a" />
    <linearGradient gradientTransform="matrix(1 0 0 -1 0 144)" gradientUnits="userSpaceOnUse" id="e"
        x1="120.8602" x2="120.8602" y1="112.1805" y2="-299.8873" xlink:href="#a" />
    <path
        d="m220.6 133v-128c0-1.3-1.3-2.5-2.5-1.3l-197 113-1.3 1.3v128c0 2.5 2.5 2.5 3.8 2.5l195.8-113c0-1.2 1.2-1.2 1.2-2.5z"
        fill="url(#b)" />
    <path
        d="m220.6 293.6v-89.1c0-1.3-1.3-2.5-2.5-1.3l-77.8 45.2c-1.3 1.3-1.3 2.5 0 3.8l76.6 43.9c1.2.1 3.7.1 3.7-2.5z"
        fill="url(#c)" />
    <path
        d="m416.4 84.1v257.3c0 1.3 0 1.3-1.3 1.3l-55.2 32.6c-1.3 1.3-2.5 0-2.5-1.3v-325c0-1.3 0-1.3-1.3-1.3l-74-42.7c-1.3-1.3-2.5 0-2.5 1.3v95.4 297.4 95.4c0 1.3 1.3 2.5 2.5 1.3l195.8-113 1.3-1.3v-262.3c0-1.3 0-1.3-1.3-1.3l-59-33.9c-1.2-1.2-2.5-1.2-2.5.1z"
        fill="url(#d)" />
    <path
        d="m219.4 365.2-195.8-113c-1.3-1.3-2.5 0-2.5 1.3v128c0 1.3 0 1.3 1.3 1.3l195.8 113c1.3 1.3 2.5 0 2.5-1.3v-128c-.1-1.3-1.3-1.3-1.3-1.3z"
        fill="url(#e)" />
</svg>