<svg enable-background="new 0 0 800 800" viewBox="0 0 800 800" xmlns="http://www.w3.org/2000/svg">
    <circle clip-rule="evenodd" cx="400" cy="400" fill="#facfd8" fill-rule="evenodd" r="400" />
    <path
        d="m306.2 518.7c13.9 0 25.5 4.6 34.9 13.8s14.1 20.9 14.1 35.2-4.7 25.9-14.1 34.9-21 13.5-34.9 13.5c-13.5 0-25-4.5-34.6-13.5s-14.4-20.6-14.4-34.9 4.8-26 14.4-35.2c9.6-9.3 21.2-13.8 34.6-13.8zm187.3 0c13.9 0 25.5 4.6 34.9 13.8s14.1 20.9 14.1 35.2-4.7 25.9-14.1 34.9-21 13.5-34.9 13.5c-13.5 0-25-4.5-34.6-13.5s-14.4-20.6-14.4-34.9 4.8-26 14.4-35.2c9.6-9.3 21.2-13.8 34.6-13.8zm-147.5-334.6v113.8 2.5c0 10.4-.2 20.5-.4 30.4 17.6-2.2 35.6-3.2 54-3.2 18.8 0 37.2 1.1 55.2 3.4-.3-10.7-.4-21.7-.4-33.1v-113.8h79v113.8 2.5c0 16.7-.4 32.8-1 48.1 5.1 1.7 10.1 3.5 15.1 5.4 46.2 17.6 87.4 41.5 123.7 71.8l-31.4 47.7-1.6-1.2c-32.9-24.1-69.2-43-108.9-56.6-.6-.2-1.2-.4-1.8-.6-2 20.2-4.3 40.5-6.9 60.9h-52.6l-.7-5c-3.4-24.1-6.1-48.1-8.3-72-19.2-2.7-38.9-4-59.2-4-19.9 0-39.2 1.3-57.9 3.9-2.3 25.6-5.1 51.3-8.5 77.2h-52.6l-.7-5c-2.6-18.8-4.9-37.5-6.8-56.2l-1 .3-1.8.6c-40.2 13.8-77.2 33.1-110.8 57.7l-31.7-47.8 1.5-1.3c35.9-29.7 76.7-53.2 122.2-70.5 5.4-2.1 10.8-4 16.3-5.8-.7-16-1-32.8-1-50.2v-113.7z"
        fill="#ec6998" />
</svg>