<svg enable-background="new 0 0 500 500" viewBox="0 0 500 500" xmlns="http://www.w3.org/2000/svg">
    <path d="m255.057 1 178.736 102.422-26.745 16.192-153.063-85.636z" fill="#205e87" />
    <path d="m255.057 51.876 134.554 74.306-37.587 24.573-98.039-56.739z" fill="#205e87" />
    <path d="m389.611 126.182v36.149l-96.041 64.296-38.513-20.114z" fill="#5b96c4" />
    <path d="m255.057 206.513v94.388l92.349 48.705 28.816-19.25-81.819-40.334.15-64.096z"
        fill="#3b627d" />
    <path d="m376.222 330.356 13.389 6.953v36.921l-134.554 70.597-2.128-42.309z" fill="#1f5e88" />
    <path d="m433.793 103.422v95.434l-92.265 52.897-32.306-18.106 95.853-63.191-.028-51.962"
        fill="#5b96c4" />
    <path d="m309.222 233.647v47.571l85.884 40.812 38.687-22.706z" fill="#3b627d" />
    <path
        d="m433.793 299.324v95.852l-178.736 102.535-2.128-35.683 151.436-78.923v-56.446l-10.651-5.325z"
        fill="#1f5e88" />
    <g fill="#5b96c4">
        <path
            d="m255.057 51.876-141.918 76.314v238.315l141.918 78.322v-43.512l-94.389-53.554.67-200.827 93.719-52.215z" />
        <path
            d="m255.057 1-181.414 103.091v288.521l181.414 105.099v-36.818l-155.976-85.686.67-255.719 155.306-85.017z" />
    </g>
</svg>