<svg enable-background="new 0 0 500 500" viewBox="0 0 500 500" xmlns="http://www.w3.org/2000/svg">
    <linearGradient gradientUnits="userSpaceOnUse" id="a" x1="122.1764" x2="344.1789" y1="251.0833"
        y2="251.0833">
        <stop offset="0" stop-color="#3dbfda" />
        <stop offset=".9995" stop-color="#439cd7" />
    </linearGradient>
    <path
        d="m29.876 493.257s0-325.458 0-489.642c8.233-.386 186.348-1.046 268.59-1.018 58.318.019 103.553 25.186 131.796 75.481 28.481 50.719 24.017 102.248-6.759 151.482-1.319 2.11-2.507 4.301-4.311 7.414 28.769 26.687 47.174 58.517 51.047 98.255 7.838 80.428-56.31 157.451-137.589 159.272-98.255 2.2-302.774-1.244-302.774-1.244zm93.982-129.054h220.321c0-17.915 0-32.897 0-51.753-41.214 0-80.805 0-120.395 0-.399-1.745-.797-3.49-1.195-5.234 40.793-43.273 81.585-86.547 120.793-128.138 0-14.989 0-27.504 0-41.114-73.324 0-144.886 0-217.611 0v52.697h117.486c.791 1.663 1.581 3.327 2.372 4.99-40.927 42.781-81.853 85.562-123.413 129.005 0 9.998-.126 20.231.077 30.458.06 3.085 1.034 6.153 1.565 9.089z"
        fill="#193064" />
    <path
        d="m122.176 364.203s.039-29.55.039-39.548c41.56-43.443 82.486-86.224 123.413-129.005-.791-1.663-1.581-3.327-2.372-4.99-38.633 0-77.266 0-117.486 0 0-18.93 0-35.158 0-52.697h217.611v41.114c-39.207 41.592-80 84.865-120.793 128.138.398 1.745.797 3.49 1.195 5.234h120.395v51.753c-73.322.001-222.002.001-222.002.001z"
        fill="url(#a)" />
</svg>