<svg enable-background="new 0 0 500 500" viewBox="0 0 500 500" xmlns="http://www.w3.org/2000/svg">
    <linearGradient gradientTransform="matrix(1 0 0 -1 0 502)" gradientUnits="userSpaceOnUse" id="a"
        x1="465.76" x2="68.96" y1="36.24" y2="433.04">
        <stop offset=".1594" stop-color="#003cda" />
        <stop offset="1" stop-color="#33dfcc" />
    </linearGradient>
    <path d="m2 250c0-137 111-248 248-248s248 111 248 248-111 248-248 248-248-111-248-248z"
        fill="url(#a)" />
    <g fill="#fff">
        <path d="m146.2 24.7c15.8-7.3 32.4-12.9 49.8-16.8v103.7h-49.7v-86.9z" />
        <path
            d="m7.6 197.4c3.7-17.4 9.3-34.1 16.5-49.9h255.3c37.3 0 67.5 30.3 67.5 67.7v65.9c0 37.4-30.2 67.7-67.5 67.7h-65.7c-37.3 0-67.5-30.3-67.5-67.7v-48.1h49.8v47.7c0 10 7.8 17.8 17.8 17.8h65.7c9.9 0 17.8-7.8 17.8-17.8v-65.5c0-10-7.8-17.8-17.8-17.8z" />
    </g>
</svg>