<svg enable-background="new 0 0 500 500" viewBox="0 0 500 500" xmlns="http://www.w3.org/2000/svg">
    <path
        d="m408.7 4h-317.4c-50.6 0-91.3 39.9-91.3 89.6v311.6c0 49.7 40.7 89.6 91.3 89.6h317.4c49.9 0 91.3-39.9 91.3-89.6v-311.6c0-49.7-40.7-89.6-91.3-89.6zm-77 122.6c37.1 0 67 29.4 67 65.8 0 11.2-2.9 21.7-7.9 31.5-8.6-6.3-17.8-11.9-27.8-15.4 2.8-4.9 4.3-10.5 4.3-16.1 0-18.9-15.7-34.3-35-34.3s-35 15.4-35 34.3c0 5.6 1.4 11.2 4.3 16.1-10 3.5-20 8.4-27.8 15.4-5.7-9.8-7.9-20.3-7.9-31.5-1.3-36.4 28.7-65.8 65.8-65.8zm-163.4 245.8c-37.1 0-67-29.4-67-65.8h32.1c0 18.9 15.7 34.3 35 34.3s35-15.4 35-34.3h32.1c-.1 36.4-30.1 65.8-67.2 65.8zm0-92.5c-42.8 0-77.7-34.3-77.7-76.3s35-77 77.7-77 78.5 34.3 78.5 77c-.7 42-35.7 76.3-78.5 76.3zm163.4 92.5c-42.8 0-78.5-34.3-78.5-76.3 0-42.7 35-77 78.5-77 42.8 0 77.7 34.3 77.7 77 0 41.9-34.9 76.3-77.7 76.3zm46.3-77.1c0 25.2-20.7 44.8-46.4 44.8s-46.4-20.3-46.4-44.8c0-25.2 20.7-45.5 46.4-45.5 25.8.7 46.4 21 46.4 45.5zm-164-91.7c0 25.2-20.7 45.5-46.4 45.5s-46.4-20.3-46.4-45.5 20.7-45.5 46.4-45.5c26.4 0 46.4 20.3 46.4 45.5z"
        fill="#d9b432" />
</svg>