<svg enable-background="new 0 0 500 500" viewBox="0 0 500 500" xmlns="http://www.w3.org/2000/svg">
    <path clip-rule="evenodd"
        d="m90.8 78.2c-7.6-40.7 23.5-78.2 64.9-78.2 36.5 0 66 29.6 66 66v81.4c9.1-.6 18.4-1 27.8-1 9 0 17.9.3 26.7.9v-81.3c0-36.5 29.6-66 66-66 41.3 0 72.5 37.5 64.9 78.2l-17.9 95.7c61.4 26.7 107.8 73.2 107.8 131.7v35.4c0 48.1-31.8 88.3-76.2 115.4-44.9 27.3-105.5 43.6-171.3 43.6-65.9 0-126.4-16.3-171.2-43.6-44.5-27.2-76.3-67.4-76.3-115.5v-35.4c0-58.1 45.9-104.5 106.7-131.3zm275.5 108.2 20.9-112c5.3-28.2-16.4-54.2-45.1-54.2-25.3 0-45.8 20.5-45.8 45.8v103.6c-6.6-.9-13.4-1.5-20.2-2-8.8-.6-17.7-.9-26.7-.9-9.4 0-18.7.3-27.8 1-6.8.5-13.6 1.2-20.2 2.1v-103.8c0-25.3-20.5-45.8-45.8-45.8-28.7 0-50.3 26-45.1 54.2l21 112.3c-65.5 24.4-109.3 68.5-109.3 118.9v35.4c0 76.7 101.8 138.9 227.3 138.9s227.3-62.2 227.3-138.9v-35.4c-.1-50.6-44.3-94.9-110.5-119.2z"
        fill="#633001" fill-rule="evenodd" />
    <path d="m476.7 340.9c0 76.7-101.8 138.9-227.3 138.9s-227.3-62.2-227.3-138.9v-35.4h454.5v35.4z"
        fill="#fedc90" />
    <path clip-rule="evenodd"
        d="m110.6 74.4c-5.3-28.2 16.4-54.2 45.1-54.2 25.3 0 45.8 20.5 45.8 45.8v103.7c15.5-2 31.5-3.1 48-3.1 16.1 0 31.8 1 46.9 3v-103.6c0-25.3 20.5-45.8 45.8-45.8 28.7 0 50.3 26 45.1 54.2l-20.9 112c66.1 24.3 110.4 68.6 110.4 119.1 0 76.7-101.8 138.9-227.3 138.9s-227.3-62.2-227.3-138.9c0-50.3 43.8-94.4 109.4-118.8z"
        fill="#d1884f" fill-rule="evenodd" />
    <g fill="#633001">
        <path
            d="m186.3 295.5c0 20.9-11.3 37.9-25.3 37.9s-25.3-17-25.3-37.9 11.3-37.9 25.3-37.9 25.3 16.9 25.3 37.9z" />
        <path
            d="m360.6 295.5c0 20.9-11.3 37.9-25.3 37.9-13.9 0-25.3-17-25.3-37.9s11.3-37.9 25.3-37.9 25.3 16.9 25.3 37.9z" />
    </g>
</svg>