<svg enable-background="new 0 0 500 500" viewBox="0 0 500 500" xmlns="http://www.w3.org/2000/svg">
    <linearGradient gradientUnits="userSpaceOnUse" id="a" x1="106.3912" x2="391.1112" y1="453.2714"
        y2="45.5703">
        <stop offset="0" stop-color="#ea4397" />
        <stop offset="1" stop-color="#db207e" />
    </linearGradient>
    <path
        d="m290.675 9.361c131.438 21.765 220.736 146.976 199.305 277.941-21.817 133.325-143.005 222.367-277.399 203.486-98.698-13.866-179.316-89.78-201.407-187.268-7.405-32.676-7.853-71.046-2.438-96.183 21.261-98.696 78.459-164.27 174.979-192.67 32.322-9.51 65.409-12.187 106.96-5.306zm88.621 167.342c-44.672-68.529-142.211-83.233-205.88-32.416-47.388 37.822-61.125 102.921-33.06 156.666 28.951 55.442 95.172 85.944 156.273 72.193 22.582-5.082 42.926-14.336 61.676-30.461-12.104-11.051-23.378-21.343-34.757-31.732-31.507 21.161-63.961 23.669-97.457 9.196-36.425-15.739-58.402-54.049-52.188-89.477 8.307-47.358 53.191-77.026 103.443-68.438 24.762 4.232 44.836 16.513 60.967 36.191 13.748-7.287 26.953-14.286 40.983-21.722z"
        fill="url(#a)" />
    <path
        d="m379.296 176.703c-14.03 7.436-27.235 14.435-40.983 21.722-16.132-19.678-36.205-31.959-60.967-36.191-50.251-8.588-95.136 21.08-103.443 68.438-6.215 35.429 15.763 73.738 52.188 89.477 33.495 14.473 65.95 11.965 97.457-9.196 11.379 10.389 22.653 20.682 34.757 31.732-18.75 16.125-39.094 25.379-61.676 30.461-61.1 13.75-127.322-16.752-156.273-72.193-28.065-53.745-14.328-118.844 33.06-156.666 63.668-50.817 161.208-36.112 205.88 32.416z"
        fill="#fff" />
</svg>