<svg enable-background="new 0 0 500 500" viewBox="0 0 500 500" xmlns="http://www.w3.org/2000/svg">
    <linearGradient gradientUnits="userSpaceOnUse" id="a" x1="356.0445" x2="-.8948" y1="53.6953"
        y2="254.7424">
        <stop offset="0" stop-color="#1c7187" />
        <stop offset=".2105" stop-color="#037872" />
        <stop offset=".2202" stop-color="#037974" />
        <stop offset=".3979" stop-color="#0a858d" />
        <stop offset=".5827" stop-color="#0e8e9f" />
        <stop offset=".7777" stop-color="#1193aa" />
        <stop offset=".9995" stop-color="#1295ad" />
    </linearGradient>
    <radialGradient cx="235.3748" cy="208.0376" gradientUnits="userSpaceOnUse" id="b" r="247.7687">
        <stop offset="0" stop-color="#00a19c" />
        <stop offset=".2114" stop-color="#039e9c" />
        <stop offset=".3975" stop-color="#0b939a" />
        <stop offset=".5741" stop-color="#188198" />
        <stop offset=".7448" stop-color="#2c6795" />
        <stop offset=".9099" stop-color="#444791" />
        <stop offset=".9995" stop-color="#54328e" />
    </radialGradient>
    <linearGradient gradientUnits="userSpaceOnUse" id="c" x1="2.2368" x2="373.7093" y1="254.3812"
        y2="464.3439">
        <stop offset="0" stop-color="#14787f" />
        <stop offset=".1882" stop-color="#087876" />
        <stop offset=".3695" stop-color="#037872" />
        <stop offset=".4874" stop-color="#087272" />
        <stop offset=".6496" stop-color="#166071" />
        <stop offset=".8365" stop-color="#2d4370" />
        <stop offset=".9995" stop-color="#46246f" />
    </linearGradient>
    <path d="m126.451 38.824h246.655l-123.106 218.791-247.251-4.14z" fill="url(#a)" />
    <path d="m373.106 38.824 124.453 214.651-124.453 211.935-126.03-208.218z" fill="url(#b)" />
    <path d="m373.106 465.41h-246.655l-123.702-211.935h247.03z" fill="url(#c)" />
    <path
        d="m197.259 166.251c-2.701 4.184-4.979 7.401-6.941 10.8-14.775 25.613-29.488 51.263-44.71 77.752 16.845 29.338 33.661 58.623 50.803 88.478 33.137 0 65.986.003 98.836-.002 7.567-.001 15.158-.423 22.695.036 19.208 1.171 32.492 14.987 32.255 33.067-.235 17.952-14.147 31.295-33.552 31.392-45.409.228-90.82.05-136.23.231-14.581.058-24.987-6.106-32.225-18.737-21.259-37.098-42.375-74.289-64.367-110.952-10.115-16.863-10.068-31.958.097-48.851 21.536-35.789 42.158-72.134 62.697-108.511 7.936-14.056 19.241-20.985 35.228-20.941 44.093.121 88.189-.095 132.279.318 19.254.181 30.544 8.652 35.032 24.455 3.731 13.139-1.087 28.252-13.486 35.114-7.09 3.924-16.109 5.85-24.313 6.016-33.222.672-66.464.312-99.699.332-4.583.006-9.167.003-14.399.003z"
        fill="#fff" />
</svg>