<svg enable-background="new 0 0 500 500" viewBox="0 0 500 500" xmlns="http://www.w3.org/2000/svg">
    <linearGradient gradientTransform="matrix(1 0 0 -1 0 502)" gradientUnits="userSpaceOnUse" id="a"
        x1="179.5249" x2="257.9188" y1="474.5766" y2="39.9416">
        <stop offset="0" stop-color="#27d3a2" />
        <stop offset="1" stop-color="#9388fd" />
    </linearGradient>
    <circle cx="250" cy="249.9" fill="#edf0f2" r="250" />
    <path
        d="m408.7 443.1c-38.2 31.4-84.9 50.7-134.1 55.6-66 6.5-131.9-13.4-183.1-55.4-51.3-42-83.8-102.7-90.3-168.7-4.9-49.2 5-98.8 28.2-142.4 23.3-43.6 59-79.3 102.6-102.7 43.6-23.3 93.1-33.2 142.4-28.4 49.2 4.8 95.9 24.1 134.1 55.5l-50.4 61.5c-26.1-21.4-57.9-34.5-91.5-37.8s-67.3 3.5-97 19.4-54.1 40.3-69.9 70c-15.9 29.7-22.6 63.5-19.2 97.1 4.5 45 26.6 86.4 61.6 115 35 28.7 79.9 42.3 124.9 37.8 33.5-3.3 65.4-16.5 91.4-37.9z"
        fill="url(#a)" />
    <path
        d="m250 469.9c121.5 0 219.9-98.5 219.9-219.9 0-121.5-98.4-220-219.9-220s-219.9 98.5-219.9 219.9c0 121.5 98.4 220 219.9 220z"
        fill="#fff" />
    <path clip-rule="evenodd"
        d="m241.2 204.3-60.2 99.1 24-13.8c.1-.1.1-.2.2-.3l36.1-58.8v-26.2zm67.6 112.8h-116.4l21.7-12.5h72.2.8zm9.4-14.8-59.5-97.9v26.2l35.6 57.9zm-59.7-132c-3.9-6.4-13.2-6.4-17.1 0l-90.6 149.1c-4.1 6.7.7 15.2 8.6 15.2h181.3c7.8 0 12.6-8.5 8.6-15.2zm-8.6 79.5-22.8 37.2h45.8z"
        fill="#283947" fill-rule="evenodd" />
</svg>