<svg enable-background="new 0 0 500 500" viewBox="0 0 500 500" xmlns="http://www.w3.org/2000/svg">
    <linearGradient gradientUnits="userSpaceOnUse" id="a" x1="250" x2="250" y1="12.2072"
        y2="487.1907">
        <stop offset="0" stop-color="#8f6b2e" />
        <stop offset=".3063" stop-color="#cfa249" />
        <stop offset=".3875" stop-color="#ca9c47" />
        <stop offset=".4956" stop-color="#ba8b41" />
        <stop offset=".6186" stop-color="#a27036" />
        <stop offset=".6546" stop-color="#963" />
        <stop offset=".6996" stop-color="#a47235" />
        <stop offset=".7985" stop-color="#b68538" />
        <stop offset=".8984" stop-color="#c09139" />
        <stop offset="1" stop-color="#c4953a" />
    </linearGradient>
    <circle cx="250" cy="250" fill="url(#a)" r="246.052" />
    <g fill="#fff">
        <path
            d="m290.915 47.679h-81.055c-6.541 0-11.893-5.352-11.893-11.893v-19.749c0-6.541 5.352-6.409 11.893-6.409h81.055c6.541 0 11.893.8 11.893 7.34v18.817c-.001 6.543-5.353 11.894-11.893 11.894z" />
        <path
            d="m291.325 451.763h-81.055c-6.541 0-11.893 5.352-11.893 11.893v19.749c0 6.541 5.352 6.409 11.893 6.409h81.055c6.541 0 11.893-.8 11.893-7.34v-18.817c-.001-6.543-5.352-11.894-11.893-11.894z" />
        <path
            d="m47.32 215.55v81.055c0 6.541-5.352 11.893-11.893 11.893h-19.749c-6.541 0-6.409-5.352-6.409-11.893v-81.055c0-6.541.8-11.893 7.34-11.893h18.817c6.542 0 11.894 5.352 11.894 11.893z" />
        <path
            d="m451.404 212.269v81.055c0 6.541 5.352 11.892 11.893 11.892h19.749c6.541 0 6.409-5.352 6.409-11.892v-81.055c0-6.541-.8-11.893-7.34-11.893h-18.818c-6.542.001-11.893 5.352-11.893 11.893z" />
        <path
            d="m83.92 367.754 57.315 57.315c4.625 4.625 4.625 12.193 0 16.819l-13.965 13.965c-4.625 4.625-8.316.747-12.941-3.878l-57.314-57.315c-4.625-4.625-7.844-8.975-3.219-13.6l13.306-13.306c4.625-4.625 12.193-4.625 16.818 0z" />
        <path
            d="m364.05 81.345 57.315 57.315c4.625 4.625 12.193 4.625 16.819 0l13.965-13.965c4.625-4.625.747-8.316-3.878-12.941l-57.315-57.315c-4.625-4.625-8.975-7.844-13.6-3.219l-13.306 13.306c-4.625 4.625-4.625 12.193 0 16.819z" />
        <path
            d="m363.499 421.189 57.315-57.315c4.625-4.625 12.193-4.625 16.819 0l13.965 13.965c4.625 4.625.747 8.316-3.878 12.941l-57.315 57.315c-4.625 4.625-8.975 7.844-13.6 3.219l-13.306-13.306c-4.625-4.626-4.625-12.194 0-16.819z" />
        <path
            d="m77.91 138.189 57.315-57.315c4.625-4.625 4.625-12.193 0-16.819l-13.965-13.964c-4.625-4.625-8.316-.747-12.941 3.878l-57.315 57.315c-4.625 4.625-7.844 8.975-3.219 13.6l13.306 13.306c4.625 4.624 12.194 4.624 16.819-.001z" />
        <circle cx="250.82" cy="249.18" r="150.099" />
    </g>
    <circle cx="250" cy="249.59" fill="#090002" r="138.038" />
    <path
        d="m305.124 221.197h-24.004v-46.379h-52.481s-1.519 6.281 3.458 12.815c3.727 4.892 10.578 5.696 10.578 5.696h17.29v27.461h-16.884s-2.006 8.763 3.486 14.255 12.991 5.069 12.991 5.069v63.669h45.769s36.615-.407 36.615-41.904-36.818-40.682-36.818-40.682zm-7.079 64.848h-16.408v-46.788h17.221s20.145-2.599 20.145 23.394-20.958 23.394-20.958 23.394z"
        fill="#fff" />
    <path
        d="m239.398 286.117v17.961h-47.276s-36.391-1.462-36.391-40.615 29.162-41.874 41.874-41.874h31.348s-.267 17.595-17.011 17.595c-19.559 0-33.44 0-33.44 22.752 0 14.946 7.474 24.181 19.842 24.181z"
        fill="#fff" />
    <path
        d="m250 3.948c-135.891 0-246.052 110.161-246.052 246.052s110.161 246.052 246.052 246.052 246.052-110.161 246.052-246.052-110.161-246.052-246.052-246.052zm0 481.137c-130.06 0-235.495-105.435-235.495-235.495s105.435-235.495 235.495-235.495 235.495 105.435 235.495 235.495-105.435 235.495-235.495 235.495z"
        fill="#000201" />
</svg>