<svg enable-background="new 0 0 500 500" viewBox="0 0 500 500" xmlns="http://www.w3.org/2000/svg">
    <path
        d="m468.2 407.6c-45.5 55.3-114.5 90.5-191.7 90.5-137 0-248.1-111.1-248.1-248.1s111.1-248.1 248.1-248.1c76.6 0 145.1 34.7 190.7 89.3l-32.5 31c-37.3-46.1-94.3-75.6-158.1-75.6-112.2 0-203.5 91.3-203.5 203.4 0 112.2 91.2 203.4 203.4 203.4 64.1 0 121.4-29.8 158.7-76.3z" />
    <path
        d="m414.8 358.3c-32.1 41-82.1 67.3-138.2 67.3-97 0-175.6-78.6-175.6-175.6s78.6-175.6 175.6-175.6c56 0 105.8 26.2 138 67l-32.6 31.1c-23.8-32.4-62.2-53.4-105.4-53.4-72.2 0-130.9 58.7-130.9 130.9s58.7 130.9 130.9 130.9c43 0 81.3-20.9 105.2-53z" />
</svg>