<svg enable-background="new 0 0 500 500" viewBox="0 0 500 500" xmlns="http://www.w3.org/2000/svg">
    <linearGradient gradientTransform="matrix(1 0 0 -1 0 501)" gradientUnits="userSpaceOnUse" id="a"
        x1="179.5323" x2="257.9208" y1="473.5034" y2="38.9039">
        <stop offset="0" stop-color="#27d3a2" />
        <stop offset="1" stop-color="#9388fd" />
    </linearGradient>
    <linearGradient gradientTransform="matrix(1 0 0 -1 0 501)" gradientUnits="userSpaceOnUse" id="b"
        x1="251.9808" x2="251.9808" y1="348.5002" y2="159.071">
        <stop offset="0" stop-color="#283947" />
        <stop offset="1" stop-color="#657786" />
    </linearGradient>
    <circle cx="250" cy="250" fill="#edf0f2" r="250" />
    <path
        d="m408.7 443.1c-38.2 31.4-84.9 50.7-134.1 55.6-66 6.5-131.8-13.4-183.1-55.4s-83.7-102.7-90.3-168.7c-4.9-49.2 4.9-98.7 28.2-142.4 23.3-43.5 59-79.3 102.6-102.6 43.6-23.3 93.2-33.2 142.4-28.4s95.9 24.1 134.1 55.5l-50.4 61.5c-26.1-21.4-57.9-34.5-91.4-37.8s-67.3 3.5-97 19.4-54.1 40.3-69.9 70c-15.9 29.7-22.6 63.5-19.2 97.1 4.5 45 26.6 86.4 61.6 115s79.9 42.3 124.9 37.8c33.5-3.3 65.4-16.5 91.4-37.9z"
        fill="url(#a)" />
    <path
        d="m250 469.9c121.5 0 219.9-98.5 219.9-219.9 0-121.5-98.5-219.9-219.9-219.9-121.5 0-219.9 98.4-219.9 219.9s98.4 219.9 219.9 219.9z"
        fill="#fff" />
    <path
        d="m341 223.3h-19.1c-10.5-29.2-38.9-49.3-76.2-49.3h-61.5v49.3h-21.3v17.7h21.3v18.6h-21.3v17.7h21.3v48.7h61.5c36.9 0 65.1-19.9 75.9-48.7h19.4v-17.7h-15.2c.4-3.1.6-6.3.6-9.6v-.4c0-2.9-.2-5.8-.4-8.5h15.1zm-139.6-33.5h44.3c27.4 0 47.8 13.5 57.2 33.5h-101.5zm44.3 120.3h-44.3v-32.9h101.4c-9.5 19.7-29.8 32.9-57.1 32.9zm62.9-59.7c0 3.1-.2 6.2-.6 9.1h-106.6v-18.5h106.6c.4 2.9.6 5.9.6 9z"
        fill="url(#b)" />
</svg>