<svg enable-background="new 0 0 500 500" viewBox="0 0 500 500" xmlns="http://www.w3.org/2000/svg">
    <g fill="#0380ff">
        <path
            d="m235.2 485.5-184.7-110.9c-5-3-8.1-8.5-8.1-14.3v-214.7l36 21.8v172.6c0 5.9 3.1 11.3 8.1 14.3l148.5 89.3z" />
        <path
            d="m457.1 119.3-104.2-63.4-35.5 20.5 106.6 64.9c6.4 3.9 10.3 10.9 10.3 18.4v119.9l36-20.2v-116.5c.1-9.6-5-18.6-13.2-23.6z" />
        <path
            d="m434.4 338.1c0 6.4-3.4 12.4-8.9 15.7l-121.2 72.2c-4.8 2.8-10.8-.6-10.8-6.1v-194.3l-165.9-97.2c-4.4-2.6-4.3-8.9 0-11.4l118.2-68.7c8-4.6 17.8-4.5 25.7.3l25.5 15.5 35.5-20.5-58.4-35.6c-9.2-5.6-20.6-5.7-29.9-.3l-197.8 114.9 211.1 123.6v249.6l203.9-121.5c5.5-3.3 8.9-9.3 8.9-15.7v-74l-36 19.3v34.2z" />
    </g>
</svg>