<svg enable-background="new 0 0 500 500" viewBox="0 0 500 500" xmlns="http://www.w3.org/2000/svg">
    <circle cx="375" cy="195.2" r="12.5" />
    <path
        d="m250-.1c-138 0-250 112-250 250s112 250 250 250 250-112 250-250-112-250-250-250zm113.5 354.5c-29.5 32.5-71.5 51.3-115 51.3h-.3c-44.3 0-86.5-19-116-52-30-33.5-43.8-76.5-39-121.3 7.8-71.5 65.3-129.3 136.8-137.5 6-.8 12.3-1 18.3-1 34.5 0 67.5 11.3 95 32.5 1.8 1.3 2.8 3.3 2.8 5.5s-.8 4.3-2.5 5.8l-16.6 14.7c-1.8 1.5-4 2.5-6.5 2.5-2 0-4-.5-5.5-1.8-19.8-13.8-43-21-66.8-21-33.5 0-65.5 14.5-87.8 39.5-22.5 25.3-33 58-29 91.8 6 53.8 49.5 97.3 103.5 103.3 4.5.5 9 .8 13.5.8 31.5 0 61-12.5 83.5-35 1.8-1.8 4.3-3 7-3 1.8 0 3.8.5 5.3 1.5l18.3 12c1.8 1.3 3 3 3.3 5.3-.1 2.4-.8 4.6-2.3 6.1zm11.5-121.5c-20.8 0-37.8-17-37.8-37.8s17-37.8 37.8-37.8 37.8 17 37.8 37.8-17.1 37.8-37.8 37.8z" />
</svg>