<svg enable-background="new 0 0 500 500" viewBox="0 0 500 500" xmlns="http://www.w3.org/2000/svg">
    <path
        d="m302.6 342.1c79.9 0 144.7-64.8 144.7-144.7s-64.7-144.8-144.7-144.8-144.7 64.8-144.7 144.7 64.8 144.8 144.7 144.8zm0 52.6c-109 0-197.4-88.4-197.4-197.4.1-108.9 88.4-197.3 197.4-197.3s197.4 88.4 197.4 197.4-88.4 197.3-197.4 197.3z"
        fill="#35d07f" />
    <path
        d="m197.4 447.4c79.9 0 144.7-64.8 144.7-144.7s-64.8-144.7-144.7-144.7-144.8 64.7-144.8 144.6 64.8 144.8 144.8 144.8zm0 52.6c-109 0-197.4-88.4-197.4-197.4s88.4-197.4 197.4-197.4 197.4 88.4 197.4 197.4c-.1 109-88.4 197.4-197.4 197.4z"
        fill="#fbcc5c" />
</svg>