<svg enable-background="new 0 0 500 500" viewBox="0 0 500 500" xmlns="http://www.w3.org/2000/svg">
    <path clip-rule="evenodd"
        d="m460.1 232c4-10.8 20.5-15.9 30.5-15.9h4.5v24c-5.7 0-11.5-.3-17 1.6-3.8 1.2-7.2 3.5-9.7 6.6-4.7 6.3-4.3 10.1-4.6 16-.3 5.7-.2 9.6-.2 15.4v42.5h-26.2v-105h22.7zm-318.6 65.2c-18.8 18.4-35 27.3-61.6 27.3-44.4 0-75.1-31-75.1-74.7 0-44.8 34.8-74.3 75.5-74.3 23.8 0 46.3 10.4 61.8 28.4l-19 18.2c-12.8-13.6-26.9-20.7-43.5-20.7-26.6 0-48.4 20.5-48.4 48.4 0 29.2 20.9 48.8 49 48.8 17.6 0 29.4-7.1 42.9-20.5zm112.4 3.9c-11.3 16-26.1 23.2-48.2 23.2-33.4 0-54.9-24.5-54.9-55.3 0-28.6 20.7-55.1 54.5-55.1 33.2 0 55.7 23.7 55.7 56.9 0 2.4-.2 3.6-.2 5.9h-84.5c2.6 15.6 14.4 24.3 29.4 24.3 11.3 0 18.8-3.2 26.1-10.3zm-19.3-45.2c-3.6-12.2-14.8-19.8-28.9-19.8-13 0-23.1 6.5-28.2 19.8zm39.8-79.8h26.3v145.5h-26.3zm142.6 125c-11.3 16-26.1 23.2-48.2 23.2-33.4 0-54.9-24.5-54.9-55.3 0-28.6 20.7-55.1 54.5-55.1 33.2 0 55.7 23.7 55.7 56.9 0 2.4-.2 3.6-.2 5.9h-84.5c2.6 15.6 14.4 24.3 29.4 24.3 11.3 0 18.8-3.2 26.1-10.3zm-19.3-45.2c-3.6-12.2-14.8-19.8-28.9-19.8-13 0-23.1 6.5-28.2 19.8z"
        fill-rule="evenodd" />
</svg>