<svg enable-background="new 0 0 500 500" viewBox="0 0 500 500" xmlns="http://www.w3.org/2000/svg">
    <linearGradient gradientTransform="matrix(1 0 0 -1 0 502)" gradientUnits="userSpaceOnUse" id="a"
        x1="179.6214" x2="258.0626" y1="474.5034" y2="39.6045">
        <stop offset="0" stop-color="#27d3a2" />
        <stop offset="1" stop-color="#9388fd" />
    </linearGradient>
    <circle cx="250.1" cy="250.2" fill="#edf0f2" r="250.2" />
    <path
        d="m408.9 443.4c-38.2 31.4-84.9 50.8-134.1 55.7-66 6.5-131.9-13.4-183.2-55.5-51.4-42-83.9-102.8-90.4-168.8-4.9-49.2 5-98.8 28.3-142.5 23.3-43.6 59-79.3 102.6-102.7 43.6-23.3 93.2-33.2 142.4-28.4s95.9 24.1 134.2 55.5l-50.5 61.6c-26.1-21.4-57.9-34.6-91.5-37.8s-67.4 3.5-97.1 19.4-54.1 40.3-70 70.1-22.6 63.6-19.3 97.1c4.5 45 26.6 86.4 61.6 115.1s79.9 42.3 124.9 37.8c33.6-3.3 65.4-16.5 91.5-37.9z"
        fill="url(#a)" />
    <path
        d="m250.8 470.9c121.5 0 220.1-98.5 220.1-220.1 0-121.5-98.5-220.1-220.1-220.1-121.5 0-220.1 98.5-220.1 220.1 0 121.5 98.6 220.1 220.1 220.1z"
        fill="#fff" />
    <path d="m252.3 288.9 64.7-37.5-76.9-39.6z" fill="#aab8c1" />
    <path d="m187.6 251.3 64.7 37.5v-69.3z" fill="#aab8c1" />
    <path d="m252.3 145.9-64.7 105.4 84.8-37.7z" fill="#283947" />
    <path d="m252.3 145.9v76.5l64.7 28.9z" fill="#657786" />
    <path d="m252.3 352.9 8.4-47.3-73-42.2z" fill="#283947" />
    <path d="m252.3 300.9v52l64.7-89.5z" fill="#657786" />
</svg>