<svg enable-background="new 0 0 500 500" viewBox="0 0 500 500" xmlns="http://www.w3.org/2000/svg">
    <path
        d="m498.06 376.72h-127.01v-21.84h22v-22.17h22v-222.51h-329.02v33.5h-64.56v13.56h-19.45v131.45h10v12h74v32h21.5v22.5h44.5v21.5h-132v22.5h43.5v21.5h390.03v-21.5h44.5v-22.49zm-476.03-100v-108.64h64v108.63h-64z"
        fill="#a52639" />
    <path
        d="m437.31 110.98h-241.33v200.14h21.51v21.95h22.49v21.82h153.67v-21.82h22.04v-21.95h21.62z"
        fill="#dd3745" />
    <path d="m324.17 91.37h21.81v157.77h-21.81z" fill="#ffaa6e" />
    <path d="m389.98 162.64h21.81v89.88h-21.81z" fill="#ffe091" />
    <path d="m346.13 267.19v-22.05h-21.97v22.05h-22.18v65.62h66.19v-65.62z" fill="#431e66" />
    <path d="m195.53 376.72h302.52v22.25h-302.52z" fill="#dd3745" />
    <path d="m417.46 376.72h22.25v22.25h-22.25z" fill="#ffe091" />
    <path d="m82.24 91.19h360.97v21.78h-360.97z" fill="#cce2e1" />
</svg>