<svg enable-background="new 0 0 500 500" viewBox="0 0 500 500" xmlns="http://www.w3.org/2000/svg">
    <linearGradient gradientTransform="matrix(35 0 0 -34.287 13226 25900.6094)"
        gradientUnits="userSpaceOnUse" id="a" x1="-370.7497" x2="-370.7497" y1="754.5413"
        y2="741.1503">
        <stop offset="0" stop-color="#01c38c" />
        <stop offset="1" stop-color="#23a185" />
    </linearGradient>
    <path
        d="m308.6 8-40.5 22.5v191.1l22.1 12.3v-145.6l75.8 42.2h.1l14.7 8.2 12.3-6.8v-11.5l-102.9-57.2v-19.9l18.4-10.2 106.6 59.3v52.8l-51.2 28.3-1.7-.8c-3.1-1.5-6.3-2.3-9.6-2.3-12.2 0-22.1 9.8-22.1 21.9s9.9 21.9 22.1 21.9c11.3 0 20.7-8.5 21.9-19.7l.2-1.9 51.6-28.6 47.9 26.6v117.9l-48 26.6-194.9-108.3v-196.3l-40.4-22.5-128.7 71.5v65.3l-59.1 32.9v143.6l59.1 32.9v65.4l128.7 71.5 40.5-22.5v-191.4l-22.1-12.3v145.9l-90.6-50.3-12.3 6.8v11.5l102.9 57.2v19.9l-18.4 10.1-106.6-59.3v-52.8l51.2-28.3 1.7.8c3.1 1.5 6.3 2.3 9.6 2.3 12.2 0 22.1-9.8 22.1-21.9s-9.9-21.9-22.1-21.9c-11.3 0-20.7 8.5-21.8 19.7l-.2 1.9-51.7 28.6-47.9-26.6v-118l48-26.6 194.9 108.4v196.3l40.5 22.5 128.7-71.6v-65.3l59.1-32.8v-143.5l-59.2-32.9v-65.5zm-224.2 84.4 106.6-59.3 18.4 10.2v19.9l-125 69.4zm11.4 59 113.5-63v126.2zm194.4 133.2 113.5 63.1-113.5 63zm0 171.2v-19.9l125-69.4v40.2l-106.6 59.3z"
        fill="url(#a)" />
</svg>