<svg enable-background="new 0 0 500 500" viewBox="0 0 500 500" xmlns="http://www.w3.org/2000/svg">
    <path
        d="m447.9 1c-14 0-25.9 8.8-30.6 21.2h-334.6c-4.6-12.4-16.6-21.2-30.6-21.2-18.1 0-32.7 14.6-32.7 32.7s14.7 32.7 32.7 32.7c1 0 2-.1 3-.1l75.7 156.6c-5.8 5.9-9.3 14-9.3 22.9 0 18.1 14.7 32.7 32.7 32.7 1.1 0 2.3-.1 3.4-.2l80 165.4c-5.6 5.9-9 13.8-9 22.6 0 18.1 14.7 32.7 32.7 32.7 18.1 0 32.7-14.7 32.7-32.7 0-9.3-3.9-17.7-10.1-23.6l70.3-164.4c16.5-1.6 29.5-15.6 29.5-32.6 0-7.6-2.6-14.5-6.9-20.1l68.2-159.3c1 .1 2 .1 3 .1 18.1 0 32.7-14.7 32.7-32.7-.1-18.1-14.7-32.7-32.8-32.7zm-97 212c-5.1 0-9.9 1.2-14.2 3.3l-63.1-43.6 145.8-105.3-62.6 146.2c-1.9-.4-3.8-.6-5.9-.6zm-179.3 5c-5-3.2-11-5-17.4-5-.9 0-1.7.1-2.5.1l-70.2-145.1 152.3 105.2zm-82.5-172.8h321.7l-157.3 113.6zm172.1 388.3c-1 0-2 .1-3 .1l-80.1-165.6c5.4-5.8 8.8-13.6 8.8-22.2 0-3.3-.5-6.4-1.4-9.4l68.3-49.4 66.9 46.2c-1.6 3.9-2.5 8.1-2.5 12.5 0 10.9 5.4 20.5 13.6 26.5l-69.1 161.4c-.5 0-1-.1-1.5-.1z"
        fill="#b02728" />
</svg>