<svg enable-background="new 1000 -1000 2500 2500" viewBox="1000 -1000 2500 2500"
    xmlns="http://www.w3.org/2000/svg">
    <g fill="#f13d20">
        <path
            d="m2250-974.172c-675.008 0-1224.172 549.163-1224.172 1224.172s549.164 1224.172 1224.172 1224.172 1224.172-549.164 1224.172-1224.172-549.176-1224.172-1224.172-1224.172zm0 2256.393c-569.166 0-1032.221-463.055-1032.221-1032.209s463.067-1032.233 1032.221-1032.233 1032.221 463.055 1032.221 1032.221-462.981 1032.221-1032.221 1032.221z" />
        <path
            d="m2250-299.518c-303.007 0-549.518 246.511-549.518 549.531 0 164.039 72.3 311.356 186.613 412.117 57.076-29.593 117.704-51.763 180.406-65.971-124.143-65.738-208.942-196.186-208.942-346.134 0-215.846 175.607-391.441 391.441-391.441s391.441 175.582 391.441 391.416c0 149.961-84.786 280.409-208.942 346.135 62.702 14.209 123.329 36.379 180.406 65.971 114.302-100.738 186.626-248.067 186.626-412.106 0-303.019-246.523-549.531-549.531-549.531" />
        <path
            d="m2250-649.534c-496.022 0-899.558 403.511-899.558 899.546 0 256.745 108.29 488.53 281.388 652.569 28.915-51.991 67.085-99.733 112.979-141.698-131.831-130.398-213.704-311.233-213.704-510.883 0-396.399 322.496-718.895 718.895-718.895s718.883 322.496 718.883 718.895c0 199.638-81.873 380.472-213.728 510.883 45.906 41.965 84.089 89.707 113.016 141.698 173.086-164.039 281.376-395.824 281.376-652.569-.014-496.034-403.549-899.545-899.547-899.546" />
    </g>
</svg>