<svg viewBox="0 0 500 500" xmlns="http://www.w3.org/2000/svg">
    <path
        d="m257.8 481.9 153.8-194.3c2.5-3.1.2-7.8-3.8-7.8h-318.1c-4.1 0-6.3 4.8-3.7 7.9l164.3 194.3c2 2.3 5.6 2.3 7.5-.1z"
        fill="#fff" />
    <path
        d="m254 493.3c-4.2 0-8.2-1.8-11-5.1l-164.3-194.2c-3.7-4.3-4.5-10.2-2.1-15.4 2.4-5.1 7.4-8.3 13.1-8.3h318.1c5.6 0 10.5 3.1 13 8.1 2.4 5 1.8 10.8-1.7 15.2l-153.8 194.3c-2.7 3.4-6.7 5.4-11.1 5.5 0-.1-.1-.1-.2-.1zm-154-203.8 153.8 181.9 144-181.9z" />
    <path
        d="m409.6 270.9-156-74.3c-2.7-1.3-5.9-1.2-8.6.1l-153.5 79.8c-6.7 3.5-6.9 13-.4 16.8l153.3 90.3c3.1 1.8 6.9 1.8 9.9-.1l156.3-95.7c6.4-4 5.9-13.6-1-16.9z"
        fill="#fff" />
    <path
        d="m249.2 394.5c-3.4 0-6.7-.9-9.7-2.7l-153.3-90.2c-6-3.5-9.6-10.1-9.5-17.1.2-7 4.1-13.3 10.3-16.5l153.6-79.8c5.3-2.8 11.7-2.9 17.1-.3l156 74.3c6.4 3 10.5 9.3 10.9 16.3s-3.1 13.7-9.1 17.4l-156.3 95.7c-3 1.9-6.5 2.9-10 2.9zm.3-189.3-153.6 79.8 153.3 90.3 156.3-95.7 4.1-8.7-4.1 8.7z" />
    <path
        d="m257.8 301.8 153.8-194.3c2.5-3.1.2-7.8-3.8-7.8h-318.1c-4.1 0-6.3 4.8-3.7 7.9l164.3 194.4c2 2.3 5.6 2.2 7.5-.2z"
        fill="#fff" />
    <path
        d="m254 313.3c-4.2 0-8.2-1.9-11-5.1l-164.3-194.3c-3.7-4.3-4.5-10.2-2.1-15.4 2.4-5.1 7.4-8.3 13.1-8.3h318.1c5.6 0 10.5 3.1 13 8.1 2.4 5 1.8 10.8-1.7 15.2l-153.8 194.3c-2.7 3.4-6.7 5.4-11.1 5.5 0 0-.1 0-.2 0zm-154-203.9 153.8 181.9 144-181.9z" />
    <path
        d="m409.6 90.8-156-74.3c-2.7-1.3-5.9-1.2-8.6.1l-153.5 79.9c-6.7 3.5-6.9 13-.4 16.8l153.3 90.3c3.1 1.8 6.9 1.8 9.9-.1l156.3-95.7c6.4-4.1 5.9-13.7-1-17z"
        fill="#fff" />
    <path
        d="m249.2 214.4c-3.4 0-6.7-.9-9.7-2.7l-153.3-90.2c-6-3.5-9.6-10.1-9.5-17.1.2-7 4.1-13.3 10.3-16.5l153.7-79.8c5.3-2.8 11.7-2.9 17.1-.3l156 74.3c6.4 3 10.5 9.3 10.9 16.3s-3.1 13.7-9.1 17.4l-156.3 95.7c-3.1 2-6.6 2.9-10.1 2.9zm.3-189.2-153.6 79.8 153.3 90.3 156.3-95.7 4.1-8.7-4.1 8.7z" />
</svg>