<svg enable-background="new 0 0 500 500" viewBox="0 0 500 500" xmlns="http://www.w3.org/2000/svg">
    <path
        d="m250.4 27.5c122.6 0 222 99.4 222 222s-99.4 222-222 222-222-99.4-222-222 99.4-222 222-222m0-24.6c-33.3 0-65.6 6.5-96 19.4-29.4 12.4-55.7 30.1-78.4 52.8s-40.4 49-52.8 78.4c-12.9 30.4-19.4 62.7-19.4 96s6.5 65.6 19.4 96c12.4 29.4 30.2 55.7 52.8 78.4 22.6 22.6 49 40.4 78.4 52.8 30.4 12.9 62.7 19.4 96 19.4s65.6-6.5 96-19.4c29.4-12.4 55.7-30.2 78.4-52.8 22.6-22.6 40.4-49 52.8-78.4 12.9-30.4 19.4-62.7 19.4-96s-6.5-65.6-19.4-96c-12.4-29.4-30.2-55.7-52.8-78.4s-49-40.4-78.4-52.8c-30.4-12.9-62.7-19.4-96-19.4z" />
    <circle cx="250.4" cy="250.7" r="21.3" />
</svg>