<svg xmlns:xlink="http://www.w3.org/1999/xlink" enable-background="new 0 0 500 500"
    viewBox="0 0 500 500" xmlns="http://www.w3.org/2000/svg">
    <linearGradient id="a">
        <stop offset="0" stop-color="#537cc1" />
        <stop offset="1" stop-color="#3c3d95" />
    </linearGradient>
    <linearGradient gradientTransform="matrix(-.0059 -1 1 -.0059 -232.0045 400.4341)"
        gradientUnits="userSpaceOnUse" id="b" x1="312.3098" x2="263.3913" y1="567.4713"
        y2="329.6523" xlink:href="#a" />
    <linearGradient gradientTransform="matrix(-1 -.0006205 .0006205 -1 419.1766 561.84)"
        gradientUnits="userSpaceOnUse" id="c" x1="333.9212" x2="285.0028" y1="398.2607"
        y2="160.4417" xlink:href="#a" />
    <linearGradient gradientTransform="matrix(-.00097104 1 -1 -.00097104 548.1599 71.1037)"
        gradientUnits="userSpaceOnUse" id="d" x1="342.3254" x2="293.4069" y1="381.7909"
        y2="143.9719" xlink:href="#a" />
    <linearGradient gradientUnits="userSpaceOnUse" id="e" x1="413.4294" x2="364.5109" y1="334.3057"
        y2="96.4866" xlink:href="#a" />
    <path
        d="m31.504 222.559s5.839-69.103 62.724-127.152c68.089-69.482 130.497-63.404 130.497-63.404l-2.411-29.627s34.863 9.196 68.977 39.265c33.068 29.146 43.444 57.388 43.444 57.388s-23.376 3.886-50.126 15.853c-32.219 14.415-45.167 42.311-45.167 42.311l-4.663-32.131s-39.708-.047-74.162 37.627-35.483 65.407-35.443 72.118c.011 1.935-10.909-13.531-17.84-31.845-6.163-16.285-8.427-35.562-8.427-35.562s-20.345 8.033-36.398 21.519c-19.155 16.095-31.005 33.64-31.005 33.64z"
        fill="url(#b)" />
    <path
        d="m221.3 466.38s-69.063-6.287-126.742-63.548c-69.038-68.54-62.556-130.906-62.556-130.906l-29.642 2.218s9.422-34.803 39.712-68.721c29.36-32.878 57.669-43.07 57.669-43.07s3.734 23.401 15.528 50.228c14.205 32.312 42.017 45.441 42.017 45.441l-32.16 4.454s-.304 39.707 37.145 74.405 65.175 35.906 71.886 35.911c1.935.001-13.602 10.821-31.961 17.633-16.325 6.057-35.615 8.196-35.615 8.196s7.901 20.397 21.283 36.537c15.967 19.258 33.436 31.222 33.436 31.222z"
        fill="url(#c)" />
    <path
        d="m469.092 277.367s-6.311 69.061-63.593 126.719c-68.563 69.014-130.927 62.51-130.927 62.51l2.208 29.643s-34.799-9.435-68.707-39.736c-32.867-29.371-43.05-57.684-43.05-57.684s23.403-3.726 50.234-15.51c32.317-14.194 45.455-42.001 45.455-42.001l4.443 32.162s39.707.318 74.418-37.118 35.929-65.163 35.936-71.874c.002-1.935 10.816 13.606 17.622 31.967 6.052 16.327 8.183 35.618 8.183 35.618s20.4-7.894 36.544-21.27c19.264-15.961 31.234-33.426 31.234-33.426z"
        fill="url(#d)" />
    <path
        d="m277.444 31.383s69.067 6.244 126.781 63.47c69.081 68.496 62.637 130.867 62.637 130.867l29.641-2.237s-9.401 34.808-39.669 68.746c-29.34 32.896-57.642 43.106-57.642 43.106s-3.748-23.399-15.559-50.219c-14.225-32.303-42.045-45.415-42.045-45.415l32.157-4.474s.28-39.707-37.191-74.381-65.198-35.866-71.909-35.866c-1.935 0 13.595-10.83 31.95-17.653 16.321-6.068 35.61-8.218 35.61-8.218s-7.913-20.392-21.305-36.523c-15.98-19.251-33.456-31.203-33.456-31.203z"
        fill="url(#e)" />
</svg>