<svg enable-background="new 0 0 500 500" viewBox="0 0 500 500" xmlns="http://www.w3.org/2000/svg">
    <path
        d="m479.7 286.3-192.6 192.6c-20.5 20.5-53.7 20.5-74.2 0l-192.6-192.6c-20.5-20.5-20.5-53.7 0-74.2l192.6-192.6c20.5-20.5 53.7-20.5 74.2 0l192.6 192.6c20.5 20.5 20.5 53.7 0 74.2z"
        fill="#1765fe" />
    <path
        d="m297.3 241v70.2c0 3.1-2.5 5.6-5.6 5.6h-85.3c-3.1 0-5.6-2.5-5.6-5.6v-123.3c0-3.1 2.5-5.6 5.6-5.6h90.9v32.7l38-21.9v-11c0-20.9-16.9-37.8-37.8-37.8h-91.2c-24 0-43.4 19.4-43.4 43.4v123.6c0 24 19.4 43.4 43.4 43.4h85.6c24 0 43.4-19.4 43.4-43.4v-92.3z"
        fill="#fff" />
</svg>