<svg enable-background="new 0 0 500 500" viewBox="0 0 500 500" xmlns="http://www.w3.org/2000/svg">
    <linearGradient gradientUnits="userSpaceOnUse" id="a" x1="1.5639" x2="498.3682" y1="250.6879"
        y2="250.6879">
        <stop offset="0" stop-color="#d69ac5" />
        <stop offset="1" stop-color="#253e90" />
    </linearGradient>
    <circle cx="250" cy="250.7" fill="url(#a)" r="248.4" />
    <path
        d="m208.5 277.6c7.4 9.9 13.6 18.1 20.1 26.7-1.6 2.4-2.9 4.6-4.5 6.7-10.6 14.5-22 28.6-31.8 43.6-15.8 24.3-13.6 54.4 4.3 76.4 18.3 22.5 47.8 30.9 74.4 21.2 27.2-9.9 44.9-35.4 44.4-64.1-.3-14.2-5.5-26.7-13.8-37.9-30.5-41-61.3-81.9-91.9-122.8-13.2-17.5-26.5-34.9-39.7-52.5-42.6-57.1-15.3-136.6 53.5-155.5 62.5-17 125.9 33.2 123.5 97.9-.7 20.2-6.4 38.6-18.6 54.9-12.3 16.4-24.5 32.8-36.8 49.2-1 1.3-2.2 2.4-3.9 4.3-6.6-8.7-12.9-17-19.5-25.8 9.9-13 19.3-25.9 29.1-38.4 10.5-13.3 18.3-27.5 18.5-45 .3-30-18.1-56.1-46.2-65.3-27.3-9-57.9.9-74.7 24.1-17.6 24.2-17.5 55.8.6 79.9 22.7 30.3 45.7 60.5 68.4 90.8 20.9 27.8 41.6 55.8 62.4 83.6 46.4 62 10.5 139.2-53.1 155.7-37.8 9.8-79.3-4.3-103.1-35.6-24.3-32-28-74.9-7.1-108.4 13.3-21.7 29.5-41.6 45.5-63.7z"
        fill="#fff" />
</svg>