<svg xmlns:xlink="http://www.w3.org/1999/xlink" enable-background="new 0 0 500 500"
    viewBox="0 0 500 500" xmlns="http://www.w3.org/2000/svg">
    <linearGradient id="a">
        <stop offset=".1" stop-color="#194aad" />
        <stop offset=".5" stop-color="#248fcb" />
        <stop offset=".8" stop-color="#2bbfdf" />
    </linearGradient>
    <linearGradient gradientUnits="userSpaceOnUse" id="b" x1="179.4086" x2="126.305" y1="390.902"
        y2="89.9501" xlink:href="#a" />
    <linearGradient gradientTransform="matrix(-1 0 0 -1 1853.29 176.33)"
        gradientUnits="userSpaceOnUse" id="c" x1="1473.0233" x2="1543.2452" y1="112.8413"
        y2="-285.3624" xlink:href="#a" />
    <path
        d="m11.8 208.1c-8.2 0-11.8 3.6-11.8 10.9v187.6c0 8.2 3.6 10.9 11.8 10.9 90.2.9 200.4-79.2 291.5-142.1v-216.7c-90.2 62-203.1 150.3-291.5 149.4z"
        fill="url(#b)" />
    <path
        d="m486.4 292.8c8.2 0 11.8-3.6 11.8-10.9 0 0 0-164 0-187.6 0-8.2-3.6-10.9-11.8-10.9-91.1-.9-200.4 79.2-291.5 142.1v215.9c90.2-62.1 203.2-150.4 291.5-148.6z"
        fill="url(#c)" />
    <path
        d="m303.3 275.5v-123.9c-37.3 23.7-74.7 49.2-109.3 72.9v123.9c38.3-23.7 74.7-49.2 109.3-72.9z"
        fill="#194aad" />
</svg>