<svg enable-background="new 0 0 500 500" viewBox="0 0 500 500" xmlns="http://www.w3.org/2000/svg">
    <path
        d="m469.8 64.9c-.3-3.7-3.4-6.6-7.1-6.6-63.4-1.1-131.7-22-203.4-54.8-5-2.3-10.8-2.2-15.8.2-78.9 38-146.1 55.4-204.4 54.8-3.9 0-7.2 3-7.3 6.9-1.1 25.4-1 49.3 0 71.9h148.4c7.6 0 13.7 6.1 13.7 13.7s-6.1 13.7-13.7 13.7h-146.6c1.9 22.3 4.8 43.2 8.5 62.6h202.6c7.6 0 13.7 6.1 13.7 13.7s-6.1 13.7-13.7 13.7h-196.6c5.1 20.7 11.3 39.7 18.1 57.2h115.9c6.5 0 11.8 5.3 11.8 11.8v3.9c0 6.5-5.3 11.8-11.8 11.8h-103.9c10.3 21.3 21.6 39.8 33.5 55.9h109.3c6.5 0 11.8 5.3 11.8 11.8v3.9c0 6.5-5.3 11.8-11.8 11.8h-86.7c45.2 48.7 92.2 67.7 110.9 73.9 5.2 1.7 10.9 1.6 16.1-.5 228.8-91 212.7-383.5 208.5-431.3z"
        fill="#272727" />
</svg>