<svg enable-background="new 0 0 500 500" viewBox="0 0 500 500" xmlns="http://www.w3.org/2000/svg">
    <path
        d="m270.1 261.8 87.7 87.7c6.5 6.6 6.5 17.1-.1 23.7-.5.5-1 1-1.6 1.4-68.8 54-168.4 42.1-222.4-26.7s-42.1-168.4 26.7-222.4c57.7-45.3 138.8-45.1 196.3.5 7.1 5.8 8.1 16.2 2.3 23.3-.4.5-.8.9-1.2 1.3l-87.7 87.7c-1.5 1.5-2.8 3.4-3.6 5.4-.8 2.1-1.3 4.4-1.3 6.7s.4 4.6 1.3 6.7c.8 2 2 3.9 3.6 5.4zm-20.1-261.8c-138.1 0-250 111.9-250 250s111.9 250 250 250 250-111.9 250-250-111.9-250-250-250z"
        fill="#69e2dc" />
</svg>