<svg enable-background="new 0 0 500 500" viewBox="0 0 500 500" xmlns="http://www.w3.org/2000/svg">
    <linearGradient gradientTransform="matrix(1 0 0 -1 0 502)" gradientUnits="userSpaceOnUse" id="a"
        x1="179.5224" x2="257.917" y1="474.6298" y2="39.9915">
        <stop offset="0" stop-color="#27d3a2" />
        <stop offset="1" stop-color="#9388fd" />
    </linearGradient>
    <mask height="185.8" id="b" maskUnits="userSpaceOnUse" width="155" x="173.2" y="157.1">
        <path d="m171.8 155.6h158.2v189.5h-158.2z" fill="#fff" />
        <path clip-rule="evenodd"
            d="m283.8 252.6c-2-5.8-5.4-11-9.9-15l-1.7-1.5-.1-.1c-.6-.5-1.1-.9-1.7-1.3l-.1-.1c-.6-.4-1.1-.8-1.8-1.2-.1 0-.1-.1-.2-.1-.6-.4-1.2-.7-1.8-1-.1 0-.1-.1-.2-.1-.6-.3-1.2-.6-1.9-.9-.1 0-.1-.1-.2-.1-.6-.2-1.1-.5-1.7-.7-1.5-.6-3.2-1.1-4.8-1.4-1.2 2.4-3 4.6-4.9 6.4 3 .2 5.8 1 8.4 2 1.5.7 3.1 1.5 4.4 2.3.1 0 .2.1.2.1.4.2.7.5 1.1.8.2.1.3.2.5.4.3.2.7.5 1 .8.2.2.4.3.6.5.3.3.6.5.9.8l.6.6.8.8.6.6c.2.3.5.6.7.8s.4.5.6.7l.6.9c.2.3.4.5.5.8l.6.9c.2.3.3.6.5.8.2.3.3.6.5.9s.3.6.5.9c.1.3.3.6.4.9.2.4.3.8.5 1.1.8 1.9 1.3 4 1.6 6.2l.9 3.4c.4 1.5 3.8 13.9 11.8 18.1 9.2 4.9 21.3 10.9 26.1 13.2l-62.9 38.3v-26.3c0-4.2 8.1-9 11.8-10.7l.2-.1c.8-.4 1.5-.8 2.3-1.3l.3-.2c1.6-1 3.2-2.1 4.6-3.4.1-.1.3-.2.4-.4.2-.1.3-.3.5-.4.5-.4.9-.9 1.3-1.3l.2-.2c.5-.5 1-1 1.3-1.6.1-.2.3-.3.4-.5.4-.4.7-.9 1.1-1.4.1-.1.2-.3.3-.4l1.1-1.8c0-.1.1-.1.1-.2.5-.8 1-1.7 1.4-2.4-1.9-2.3-3.3-4.9-4.5-7.2-.5 1.5-1.1 2.9-1.8 4.2-.3.6-.7 1.2-1 1.8-.1.1-.1.2-.2.2-.3.5-.7 1-1 1.4-.1.1-.2.3-.3.4-.3.5-.7.9-1.1 1.3-.1.1-.1.2-.2.2-2.3 2.6-5.1 4.9-8.2 6.4l-.6.3c-1.6.7-15.7 7.2-15.7 17v26.5l-63-38.2c4.1-2.5 15.9-9.7 25.7-12.8 3.8-1.3 11.9 4 16.5 7.8l.3.3c.6.6 1.2 1.2 1.9 1.7l.2.2c1.4 1.2 3 2.3 4.7 3.2l1.1.6c.1 0 .2.1.2.1 1.1.6 2.1 1.1 3.2 1.6.2.1.3.1.5.2.1 0 .2.1.4.1 1.6.6 3.2 1.1 4.9 1.5 1.2-2.4 3.1-4.6 5-6.4-2.8-.2-5.3-.8-7.8-1.8-.1-.1-.3-.1-.4-.2-.3-.1-.6-.2-.9-.4-.1-.1-.3-.1-.4-.2-.3-.1-.6-.3-.8-.4-1.9-1-3.6-2-5.3-3.4l-2.5-2.3c-.1-.1-3.2-2.9-7.4-5.4-6.2-3.6-11.5-4.8-15.5-3.5-8.3 2.7-17.8 7.9-23.5 11.3l62.9-115.2v50.5c0 1.8-2.6 6.4-11.3 10.4l-.6.3c-.9.4-1.6.9-2.5 1.4l-.2.1c-1.6 1-3.2 2.1-4.7 3.4-1 .8-1.8 1.7-2.6 2.5l-.1.1c-.9.9-1.6 1.8-2.3 2.7l-.1.1c-.4.5-.7 1-1.1 1.5 0 .1-.1.1-.1.2-.3.5-.6.9-.9 1.4 0 .1-.1.1-.1.2l-.9 1.5c-.1.1-.1.2-.2.4-.3.5-.5 1-.7 1.4 0 .1-.1.2-.1.2-.2.5-.4.9-.6 1.4-.1.2-.1.3-.2.5l-.6 1.5c-.1.2-.1.3-.2.5-.1.4-.2.7-.4 1.1-.1.2-.1.4-.2.6-.1.5-.3 1-.4 1.4-.1.2-.1.5-.2.7-.1.3-.1.7-.2 1s-.1.6-.2.9c-.1.4-.1.8-.2 1.2 0 .3-.1.5-.1.8 0 .4-.1.7-.1 1.1s0 .7-.1 1.1v1.5c0 1.8.1 3.6.4 5.3 2.5.6 5.1 1.7 7.8 3-.8-2.5-1.1-5.2-1.2-7.9v-1.4c0-.7 0-1.3.1-1.9v-.5c0-.6.1-1.1.2-1.7v-.2c.1-.6.2-1.2.3-1.8 0-.2.1-.3.1-.5.1-.5.3-1 .4-1.5 0-.1.1-.2.1-.3l.6-1.8c.1-.1.1-.3.2-.4.2-.5.4-1 .6-1.4.1-.1.1-.2.2-.4.3-.6.5-1.1.9-1.6.1-.1.1-.2.2-.3.3-.5.5-.9.8-1.4.1-.1.1-.2.2-.3.3-.5.7-1 1.1-1.5 0 0 0-.1.1-.1.4-.5.7-.9 1-1.4.1-.1.1-.2.2-.3 1.7-1.9 3.6-3.6 5.8-5.1l3-1.5c1.6-.7 15.6-7.4 15.6-17.2v-50.2l63.5 116.1c-5.6-2.8-15.7-7.9-23.4-12-4.5-2.3-7.4-10.6-8.3-13.6l-.9-3.5c0-1.4-.5-3.2-1.1-5.1zm43 36.6-70-127.9c-1.2-2.3-3.5-3.7-6.1-3.7s-4.9 1.4-6.1 3.7l-70 127.9c-1.8 3.3-.8 7.6 2.5 9.5l70.1 42.7c1.1.7 2.4 1 3.6 1s2.5-.3 3.6-1l70-42.6c3.2-2 4.3-6.3 2.4-9.6z"
            fill-rule="evenodd" />
    </mask>
    <circle cx="250" cy="249.9" fill="#edf0f2" r="250" />
    <path
        d="m408.7 443.1c-38.2 31.4-84.9 50.7-134.1 55.6-66 6.5-131.9-13.4-183.1-55.4-51.3-42-83.8-102.7-90.3-168.7-4.9-49.2 5-98.8 28.2-142.4 23.3-43.6 59-79.4 102.6-102.7 43.6-23.4 93.1-33.2 142.4-28.4 49.2 4.8 95.9 24.1 134.1 55.5l-50.4 61.5c-26.1-21.4-57.9-34.5-91.5-37.8s-67.3 3.5-97 19.4-54.1 40.3-69.9 70c-15.9 29.7-22.6 63.5-19.2 97.1 4.5 45 26.6 86.4 61.6 115 35 28.7 79.9 42.3 124.9 37.8 33.5-3.3 65.4-16.5 91.4-37.9z"
        fill="url(#a)" />
    <path
        d="m250 469.8c121.5 0 219.9-98.5 219.9-219.9 0-121.5-98.4-219.9-219.9-219.9s-219.9 98.4-219.9 219.9 98.4 219.9 219.9 219.9z"
        fill="#fff" />
    <path clip-rule="evenodd"
        d="m283.8 252.6c-2-5.8-5.4-11-9.9-15l-1.7-1.5-.1-.1c-.6-.5-1.1-.9-1.7-1.3l-.1-.1c-.6-.4-1.1-.8-1.8-1.2-.1 0-.1-.1-.2-.1-.6-.4-1.2-.7-1.8-1-.1 0-.1-.1-.2-.1-.6-.3-1.2-.6-1.9-.9-.1 0-.1-.1-.2-.1-.6-.2-1.1-.5-1.7-.7-1.5-.6-3.2-1.1-4.8-1.4-1.2 2.4-3 4.6-4.9 6.4 3 .2 5.8 1 8.4 2 1.5.7 3.1 1.5 4.4 2.3.1 0 .2.1.2.1.4.2.7.5 1.1.8.2.1.3.2.5.4.3.2.7.5 1 .8.2.2.4.3.6.5.3.3.6.5.9.8l.6.6.8.8.6.6c.2.3.5.6.7.8s.4.5.6.7l.6.9c.2.3.4.5.5.8l.6.9c.2.3.3.6.5.8.2.3.3.6.5.9s.3.6.5.9c.1.3.3.6.4.9.2.4.3.8.5 1.1.8 1.9 1.3 4 1.6 6.2l.9 3.4c.4 1.5 3.8 13.9 11.8 18.1 9.2 4.9 21.3 10.9 26.1 13.2l-62.9 38.3v-26.3c0-4.2 8.1-9 11.8-10.7l.2-.1c.8-.4 1.5-.8 2.3-1.3l.3-.2c1.6-1 3.2-2.1 4.6-3.4.1-.1.3-.2.4-.4.2-.1.3-.3.5-.4.5-.4.9-.9 1.3-1.3l.2-.2c.5-.5 1-1 1.3-1.6.1-.2.3-.3.4-.5.4-.4.7-.9 1.1-1.4.1-.1.2-.3.3-.4l1.1-1.8c0-.1.1-.1.1-.2.5-.8 1-1.7 1.4-2.4-1.9-2.3-3.3-4.9-4.5-7.2-.5 1.5-1.1 2.9-1.8 4.2-.3.6-.7 1.2-1 1.8-.1.1-.1.2-.2.2-.3.5-.7 1-1 1.4-.1.1-.2.3-.3.4-.3.5-.7.9-1.1 1.3-.1.1-.1.2-.2.2-2.3 2.6-5.1 4.9-8.2 6.4l-.6.3c-1.6.7-15.7 7.2-15.7 17v26.5l-63-38.2c4.1-2.5 15.9-9.7 25.7-12.8 3.8-1.3 11.9 4 16.5 7.8l.3.3c.6.6 1.2 1.2 1.9 1.7l.2.2c1.4 1.2 3 2.3 4.7 3.2l1.1.6c.1 0 .2.1.2.1 1.1.6 2.1 1.1 3.2 1.6.2.1.3.1.5.2.1 0 .2.1.4.1 1.6.6 3.2 1.1 4.9 1.5 1.2-2.4 3.1-4.6 5-6.4-2.8-.2-5.3-.8-7.8-1.8-.1-.1-.3-.1-.4-.2-.3-.1-.6-.2-.9-.4-.1-.1-.3-.1-.4-.2-.3-.1-.6-.3-.8-.4-1.9-1-3.6-2-5.3-3.4l-2.5-2.3c-.1-.1-3.2-2.9-7.4-5.4-6.2-3.6-11.5-4.8-15.5-3.5-8.3 2.7-17.8 7.9-23.5 11.3l62.9-115.2v50.5c0 1.8-2.6 6.4-11.3 10.4l-.6.3c-.9.4-1.6.9-2.5 1.4l-.2.1c-1.6 1-3.2 2.1-4.7 3.4-1 .8-1.8 1.7-2.6 2.5l-.1.1c-.9.9-1.6 1.8-2.3 2.7l-.1.1c-.4.5-.7 1-1.1 1.5 0 .1-.1.1-.1.2-.3.5-.6.9-.9 1.4 0 .1-.1.1-.1.2l-.9 1.5c-.1.1-.1.2-.2.4-.3.5-.5 1-.7 1.4 0 .1-.1.2-.1.2-.2.5-.4.9-.6 1.4-.1.2-.1.3-.2.5l-.6 1.5c-.1.2-.1.3-.2.5-.1.4-.2.7-.4 1.1-.1.2-.1.4-.2.6-.1.5-.3 1-.4 1.4-.1.2-.1.5-.2.7-.1.3-.1.7-.2 1s-.1.6-.2.9c-.1.4-.1.8-.2 1.2 0 .3-.1.5-.1.8 0 .4-.1.7-.1 1.1s0 .7-.1 1.1v1.5c0 1.8.1 3.6.4 5.3 2.5.6 5.1 1.7 7.8 3-.8-2.5-1.1-5.2-1.2-7.9v-1.4c0-.7 0-1.3.1-1.9v-.5c0-.6.1-1.1.2-1.7v-.2c.1-.6.2-1.2.3-1.8 0-.2.1-.3.1-.5.1-.5.3-1 .4-1.5 0-.1.1-.2.1-.3l.6-1.8c.1-.1.1-.3.2-.4.2-.5.4-1 .6-1.4.1-.1.1-.2.2-.4.3-.6.5-1.1.9-1.6.1-.1.1-.2.2-.3.3-.5.5-.9.8-1.4.1-.1.1-.2.2-.3.3-.5.7-1 1.1-1.5 0 0 0-.1.1-.1.4-.5.7-.9 1-1.4.1-.1.1-.2.2-.3 1.7-1.9 3.6-3.6 5.8-5.1l3-1.5c1.6-.7 15.6-7.4 15.6-17.2v-50.2l63.5 116.1c-5.6-2.8-15.7-7.9-23.4-12-4.5-2.3-7.4-10.6-8.3-13.6l-.9-3.5c0-1.4-.5-3.2-1.1-5.1zm43 36.6-70-127.9c-1.2-2.3-3.5-3.7-6.1-3.7s-4.9 1.4-6.1 3.7l-70 127.9c-1.8 3.3-.8 7.6 2.5 9.5l70.1 42.7c1.1.7 2.4 1 3.6 1s2.5-.3 3.6-1l70-42.6c3.2-2 4.3-6.3 2.4-9.6z"
        fill="#283947" fill-rule="evenodd" />
    <path
        d="m283.8 252.6c-2-5.8-5.4-11-9.9-15l-1.7-1.5-.1-.1c-.6-.5-1.1-.9-1.7-1.3l-.1-.1c-.6-.4-1.1-.8-1.8-1.2-.1 0-.1-.1-.2-.1-.6-.4-1.2-.7-1.8-1-.1 0-.1-.1-.2-.1-.6-.3-1.2-.6-1.9-.9-.1 0-.1-.1-.2-.1-.6-.2-1.1-.5-1.7-.7-1.5-.6-3.2-1.1-4.8-1.4-1.2 2.4-3 4.6-4.9 6.4 3 .2 5.8 1 8.4 2 1.5.7 3.1 1.5 4.4 2.3.1 0 .2.1.2.1.4.2.7.5 1.1.8.2.1.3.2.5.4.3.2.7.5 1 .8.2.2.4.3.6.5.3.3.6.5.9.8l.6.6.8.8.6.6c.2.3.5.6.7.8s.4.5.6.7l.6.9c.2.3.4.5.5.8l.6.9c.2.3.3.6.5.8.2.3.3.6.5.9s.3.6.5.9c.1.3.3.6.4.9.2.4.3.8.5 1.1.8 1.9 1.3 4 1.6 6.2l.9 3.4c.4 1.5 3.8 13.9 11.8 18.1 9.2 4.9 21.3 10.9 26.1 13.2l-62.9 38.3v-26.3c0-4.2 8.1-9 11.8-10.7l.2-.1c.8-.4 1.5-.8 2.3-1.3l.3-.2c1.6-1 3.2-2.1 4.6-3.4.1-.1.3-.2.4-.4.2-.1.3-.3.5-.4.5-.4.9-.9 1.3-1.3l.2-.2c.5-.5 1-1 1.3-1.6.1-.2.3-.3.4-.5.4-.4.7-.9 1.1-1.4.1-.1.2-.3.3-.4l1.1-1.8c0-.1.1-.1.1-.2.5-.8 1-1.7 1.4-2.4-1.9-2.3-3.3-4.9-4.5-7.2-.5 1.5-1.1 2.9-1.8 4.2-.3.6-.7 1.2-1 1.8-.1.1-.1.2-.2.2-.3.5-.7 1-1 1.4-.1.1-.2.3-.3.4-.3.5-.7.9-1.1 1.3-.1.1-.1.2-.2.2-2.3 2.6-5.1 4.9-8.2 6.4l-.6.3c-1.6.7-15.7 7.2-15.7 17v26.5l-63-38.2c4.1-2.5 15.9-9.7 25.7-12.8 3.8-1.3 11.9 4 16.5 7.8l.3.3c.6.6 1.2 1.2 1.9 1.7l.2.2c1.4 1.2 3 2.3 4.7 3.2l1.1.6c.1 0 .2.1.2.1 1.1.6 2.1 1.1 3.2 1.6.2.1.3.1.5.2.1 0 .2.1.4.1 1.6.6 3.2 1.1 4.9 1.5 1.2-2.4 3.1-4.6 5-6.4-2.8-.2-5.3-.8-7.8-1.8-.1-.1-.3-.1-.4-.2-.3-.1-.6-.2-.9-.4-.1-.1-.3-.1-.4-.2-.3-.1-.6-.3-.8-.4-1.9-1-3.6-2-5.3-3.4l-2.5-2.3c-.1-.1-3.2-2.9-7.4-5.4-6.2-3.6-11.5-4.8-15.5-3.5-8.3 2.7-17.8 7.9-23.5 11.3l62.9-115.2v50.5c0 1.8-2.6 6.4-11.3 10.4l-.6.3c-.9.4-1.6.9-2.5 1.4l-.2.1c-1.6 1-3.2 2.1-4.7 3.4-1 .8-1.8 1.7-2.6 2.5l-.1.1c-.9.9-1.6 1.8-2.3 2.7l-.1.1c-.4.5-.7 1-1.1 1.5 0 .1-.1.1-.1.2-.3.5-.6.9-.9 1.4 0 .1-.1.1-.1.2l-.9 1.5c-.1.1-.1.2-.2.4-.3.5-.5 1-.7 1.4 0 .1-.1.2-.1.2-.2.5-.4.9-.6 1.4-.1.2-.1.3-.2.5l-.6 1.5c-.1.2-.1.3-.2.5-.1.4-.2.7-.4 1.1-.1.2-.1.4-.2.6-.1.5-.3 1-.4 1.4-.1.2-.1.5-.2.7-.1.3-.1.7-.2 1s-.1.6-.2.9c-.1.4-.1.8-.2 1.2 0 .3-.1.5-.1.8 0 .4-.1.7-.1 1.1s0 .7-.1 1.1v1.5c0 1.8.1 3.6.4 5.3 2.5.6 5.1 1.7 7.8 3-.8-2.5-1.1-5.2-1.2-7.9v-1.4c0-.7 0-1.3.1-1.9v-.5c0-.6.1-1.1.2-1.7v-.2c.1-.6.2-1.2.3-1.8 0-.2.1-.3.1-.5.1-.5.3-1 .4-1.5 0-.1.1-.2.1-.3l.6-1.8c.1-.1.1-.3.2-.4.2-.5.4-1 .6-1.4.1-.1.1-.2.2-.4.3-.6.5-1.1.9-1.6.1-.1.1-.2.2-.3.3-.5.5-.9.8-1.4.1-.1.1-.2.2-.3.3-.5.7-1 1.1-1.5 0 0 0-.1.1-.1.4-.5.7-.9 1-1.4.1-.1.1-.2.2-.3 1.7-1.9 3.6-3.6 5.8-5.1l3-1.5c1.6-.7 15.6-7.4 15.6-17.2v-50.2l63.5 116.1c-5.6-2.8-15.7-7.9-23.4-12-4.5-2.3-7.4-10.6-8.3-13.6l-.9-3.5c0-1.4-.5-3.2-1.1-5.1zm43 36.6-70-127.9c-1.2-2.3-3.5-3.7-6.1-3.7s-4.9 1.4-6.1 3.7l-70 127.9c-1.8 3.3-.8 7.6 2.5 9.5l70.1 42.7c1.1.7 2.4 1 3.6 1s2.5-.3 3.6-1l70-42.6c3.2-2 4.3-6.3 2.4-9.6z"
        fill="none" mask="url(#b)" stroke="#283947" />
</svg>