<svg xmlns:xlink="http://www.w3.org/1999/xlink" enable-background="new 0 0 500 500"
    viewBox="0 0 500 500" xmlns="http://www.w3.org/2000/svg">
    <linearGradient id="a">
        <stop offset="0" stop-color="#011e3f" />
        <stop offset="1" stop-color="#002a68" />
    </linearGradient>
    <linearGradient gradientUnits="userSpaceOnUse" id="b" x1="252.6537" x2="252.6537" y1="-1.6371"
        y2="491.0409" xlink:href="#a" />
    <linearGradient gradientUnits="userSpaceOnUse" id="c" x1="252.266" x2="252.266" y1="-1.6371"
        y2="491.0409" xlink:href="#a" />
    <linearGradient gradientUnits="userSpaceOnUse" id="d" x1="251.8809" x2="251.8809" y1="-1.6371"
        y2="491.0409" xlink:href="#a" />
    <linearGradient gradientUnits="userSpaceOnUse" id="e" x1="341.9809" x2="341.9809" y1="-1.6371"
        y2="491.0409" xlink:href="#a" />
    <linearGradient gradientUnits="userSpaceOnUse" id="f" x1="162.1281" x2="162.1281" y1="-1.6371"
        y2="491.0409" xlink:href="#a" />
    <path
        d="m252.7 23.9 197.3 112.9v225.5l-197.3 112.9-197.4-112.9v-225.5zm0-21.5-216.1 123.6v247.1l216 123.6 216-123.6v-247.1z"
        fill="url(#b)" />
    <path d="m357 195h-209.5l18.5-84.7h170.2z" fill="url(#c)" />
    <path d="m196.8 208.1h110.1l-17.7 49.3 5.4 52.3h-85.5l6.2-52.3z" fill="url(#d)" />
    <path d="m356.2 224.3 58.6 42.3-77.1 134h-31.5l-37-33.9v-17.7l38-34.8.5-57.6z" fill="url(#e)" />
    <path d="m147.9 224.3-58.5 42.3 77 134h31.5l37-33.9v-17.7l-38-34.8-.5-57.6z" fill="url(#f)" />
</svg>