<svg enable-background="new 0 0 500 500" viewBox="0 0 500 500" xmlns="http://www.w3.org/2000/svg">
    <g fill="#439dfc">
        <path
            d="m408 93.5c-37.9-30.6-83.1-48.1-129.8-48.1-51.1 0-100.6 19-138.6 55.4s-59.8 83.2-62.7 135.7v5.8h23.3v-4.4c5.8-93.3 84.6-166.3 177.9-166.3 42.3 0 81.7 14.6 113.8 40.8l1.5 1.5 17.5-17.5z" />
        <path
            d="m384.7 325.4c-24.8 33.5-64.2 54-106.5 54-72.9 0-131.3-58.3-131.3-131.3 0-71.5 58.3-129.8 131.3-129.8 42.3 0 81.7 20.4 106.5 54l1.5 2.9 17.5-17.5-1.5-1.5c-29.2-39.3-75.9-61.2-124-61.2-86.1-1.5-154.6 68.6-154.6 153.2 0 86.1 70 154.6 154.6 154.6 48.1 0 94.8-23.3 124-61.3l1.5-1.5-17.5-17.5z" />
        <path
            d="m435.7 122.7c-4.4-4.4-7.3-10.2-11.7-14.6l-1.5-1.5-17.5 17.5 1.5 1.5c4.4 4.4 8.8 8.8 11.7 14.6l1.5 2.9 17.5-17.5z" />
        <path
            d="m391.9 385.2-1.5 1.5c-32.1 26.3-71.5 40.8-113.8 40.8-93.3 0-172.1-72.9-177.9-166.3v-5.8h-23.3v5.8c2.9 51.1 26.3 99.2 62.7 135.6 37.9 35 87.5 55.4 138.6 55.4 48.1 0 93.3-17.5 129.8-48.1l1.5-1.5z" />
        <path
            d="m419.7 356.1-1.5 2.9c-2.9 4.4-7.3 8.8-11.7 14.6l-1.5 1.5 17.5 17.5 1.5-1.5c4.4-4.4 8.8-10.2 11.7-14.6l1.5-1.5z" />
        <path
            d="m450.3 391.1c-42.3 51.1-105 81.7-172.1 81.7-124 0-223.2-100.7-223.2-224.7s99.2-223.1 223.2-223.1c67.1 0 129.8 29.2 172.1 81.7l1.5 2.9 17.5-17.5-1.5-1.5c-46.7-56.9-116.7-89-189.6-89-137.1 0-248 110.9-248 248s110.9 248 248 248c72.9 0 142.9-32.1 189.6-89l1.5-1.5-17.5-17.5z" />
    </g>
</svg>