<svg enable-background="new 0 0 500 500" viewBox="0 0 500 500" xmlns="http://www.w3.org/2000/svg">
    <linearGradient gradientTransform="matrix(1 0 0 -1 0 502)" gradientUnits="userSpaceOnUse" id="a"
        x1="179.5407" x2="257.917" y1="474.5266" y2="39.9893">
        <stop offset="0" stop-color="#27d3a2" />
        <stop offset="1" stop-color="#9388fd" />
    </linearGradient>
    <circle cx="250" cy="249.9" fill="#edf0f2" r="249.9" />
    <path
        d="m408.7 443.1c-38.2 31.4-84.8 50.7-134 55.6-66 6.5-131.8-13.4-183.1-55.4s-83.7-102.7-90.3-168.7c-4.9-49.2 4.9-98.7 28.2-142.3 23.3-43.7 59-79.4 102.5-102.7 43.6-23.3 93.2-33.2 142.4-28.4s95.9 24.1 134.1 55.5l-50.5 61.4c-26.1-21.4-57.9-34.5-91.4-37.8s-67.3 3.5-97 19.4-54 40.3-69.9 70-22.6 63.5-19.2 97c4.5 45 26.6 86.3 61.6 115s79.9 42.2 124.8 37.8c33.5-3.3 65.3-16.5 91.4-37.9z"
        fill="url(#a)" />
    <path
        d="m250 469.8c121.4 0 219.9-98.4 219.9-219.9 0-121.4-98.4-219.9-219.9-219.9-121.4 0-219.9 98.4-219.9 219.9 0 121.5 98.5 219.9 219.9 219.9z"
        fill="#fff" />
    <path d="m247.2 343.7-94.9-97.1 94.2 34.3 94.2-34.3z" fill="#657786" />
    <path clip-rule="evenodd"
        d="m152.3 246.6 94.2-94.2 94.2 94.2-94.2 34.3zm27 .7h40.9l27-27 27 27h40.2l-67.2-67.2z"
        fill="#283947" fill-rule="evenodd" />
</svg>