<svg enable-background="new 0 0 500 500" viewBox="0 0 500 500" xmlns="http://www.w3.org/2000/svg">
    <path
        d="m490.5 226.7h-198.5c-8.1-14.8-23.8-24.9-41.9-24.9-26.3 0-47.7 21.4-47.7 47.7s21.4 47.7 47.7 47.7c17.8 0 33.4-9.8 41.6-24.3h198.8z" />
    <path
        d="m416.2 345.4c-33.2 57.4-95.3 96-166.2 96-105.8 0-191.9-86.1-191.9-191.9s86.1-191.9 191.9-191.9c70.8 0 132.7 38.5 166 95.7l41.6-23.5c-41.5-71.7-119-120-207.6-120-132.1 0-239.6 107.5-239.6 239.7s107.5 239.7 239.7 239.7c88.6 0 166.2-48.3 207.6-120z" />
</svg>