<svg enable-background="new 0 0 500 500" viewBox="0 0 500 500" xmlns="http://www.w3.org/2000/svg">
    <linearGradient gradientTransform="matrix(1 0 0 -1 0 502)" gradientUnits="userSpaceOnUse" id="a"
        x1="179.5407" x2="257.917" y1="474.5266" y2="39.9893">
        <stop offset="0" stop-color="#27d3a2" />
        <stop offset="1" stop-color="#9388fd" />
    </linearGradient>
    <circle cx="250" cy="249.9" fill="#edf0f2" r="249.9" />
    <path
        d="m408.7 443.1c-38.2 31.4-84.8 50.7-134 55.6-66 6.5-131.8-13.4-183.1-55.4s-83.7-102.7-90.3-168.7c-4.9-49.2 4.9-98.7 28.2-142.3 23.3-43.7 59-79.4 102.5-102.7 43.6-23.3 93.2-33.2 142.4-28.4s95.9 24.1 134.1 55.5l-50.5 61.4c-26.1-21.4-57.9-34.5-91.4-37.8s-67.3 3.5-97 19.4-54 40.3-69.9 70-22.6 63.5-19.2 97c4.5 45 26.6 86.3 61.6 115s79.9 42.2 124.8 37.8c33.5-3.3 65.3-16.5 91.4-37.9z"
        fill="url(#a)" />
    <path
        d="m250 469.8c121.4 0 219.9-98.4 219.9-219.9 0-121.4-98.4-219.9-219.9-219.9-121.4 0-219.9 98.4-219.9 219.9 0 121.5 98.5 219.9 219.9 219.9z"
        fill="#fff" />
    <path
        d="m284.9 267.2c0-19.1-11.8-25.5-34.6-28.6-16.9-2.4-20.1-6.3-20.1-14s5.7-12.6 16.6-12.6c10 0 15.7 3.4 18 11.3.2.9.8 1.6 1.5 2.2.7.5 1.6.8 2.5.9h8.7c.6 0 1.1-.1 1.7-.3.5-.2 1-.6 1.4-1s.6-.9.8-1.5c.2-.5.2-1.1.1-1.7-2.8-12.4-11.3-19.9-24.7-22.3v-13.1c0-1.1-.4-2.1-1.2-2.9s-1.8-1.2-2.9-1.2h-8.3c-1.1 0-2.2.4-2.9 1.2-.8.8-1.2 1.8-1.2 2.9v12.7c-16.6 2.3-27.1 13.1-27.1 26.9 0 17.9 11.1 24.8 34.3 27.9 15.8 2.5 20.3 5.9 20.3 14.7s-7.6 14.7-18.4 14.7c-14.5 0-19.4-6.2-21-14.3-.2-.9-.7-1.8-1.4-2.4s-1.7-.9-2.6-1h-9.5c-.6 0-1.1.1-1.6.3s-1 .6-1.3 1c-.4.4-.6.9-.8 1.5-.2.5-.2 1.1-.1 1.6 2.4 13.6 11.3 23.6 29.4 26v12.9c0 1.1.4 2.1 1.2 2.9s1.8 1.2 2.9 1.2h8.3c1.1 0 2.2-.4 2.9-1.2.8-.8 1.2-1.8 1.2-2.9v-12.9c17-2.6 27.9-14.3 27.9-28.9z"
        fill="#283947" />
    <g fill="#657786">
        <path
            d="m221.9 325.8c-15.8-5.7-29.5-16.2-39.2-29.9s-14.9-30-14.9-46.7 5.2-33 14.9-46.7 23.4-24.1 39.2-29.9c1-.4 1.9-1.2 2.5-2.1s1-2 1-3.1v-7.6c.1-.7 0-1.4-.3-2s-.7-1.1-1.3-1.5-1.2-.6-1.9-.7-1.4 0-2 .3c-20 6.3-37.4 18.7-49.7 35.5-12.4 16.8-19 37-19 57.7 0 20.8 6.7 41 19 57.7 12.4 16.8 29.8 29.2 49.7 35.5.6.3 1.3.4 2 .3s1.3-.3 1.9-.7 1-.9 1.3-1.5.4-1.3.3-2v-7.4c0-1.1-.4-2.2-1-3.1s-1.4-1.6-2.5-2.1z" />
        <path
            d="m278.5 156.1c-.6-.3-1.3-.4-2-.3s-1.3.3-1.9.7-1 .9-1.3 1.5-.4 1.3-.3 2v7.6c0 1.1.4 2.2 1 3.1s1.5 1.6 2.5 2.1c15.8 5.7 29.5 16.2 39.2 29.9s14.9 30 14.9 46.7-5.2 33-14.9 46.7-23.4 24.1-39.2 29.9c-1.1.4-2 1.1-2.6 2s-1 2-1 3.1v7.6c-.1.7 0 1.4.3 2s.7 1.1 1.3 1.5 1.2.6 1.9.7 1.4 0 2-.3c20-6.3 37.4-18.7 49.7-35.5 12.4-16.8 19-37 19-57.7 0-20.8-6.7-41-19-57.7-12.2-16.9-29.6-29.3-49.6-35.6z" />
    </g>
</svg>