<svg enable-background="new 0 0 500 500" viewBox="0 0 500 500" xmlns="http://www.w3.org/2000/svg">
    <path
        d="m489.81 198.019c-20.557 0-41.074 0-62.075 0-19.488-57.064-56.427-98.217-113.363-119.919-37.728-14.381-76.248-14.676-114.825-3.096-78.305 23.506-133.118 100.884-128.884 181.727 4.52 86.312 64.902 156.853 147.265 173.048 86.711 17.05 180.336-33.434 209.862-127.698h61.916c-18.534 96.101-112.954 197.352-248.203 191.743-128.274-5.319-230.729-112.188-231.734-241.938-1.005-129.836 98.058-233.413 219.985-244.793 135.5-12.647 239.411 86.512 260.056 190.926zm-179.215 4.198c-7.365-23.87-30.248-40.771-56.287-40.953-26.356-.185-49.78 16.534-57.288 40.466-6.635 21.148-.784 48.069 34.788 67.572v68.977h44.18c0-23.425 0-46.387 0-69.169 34.18-18.621 41.276-45.278 34.607-66.893z"
        fill="#20a549" />
</svg>