<svg enable-background="new 0 0 500 500" viewBox="0 0 500 500" xmlns="http://www.w3.org/2000/svg">
    <path
        d="m495.8 202.5-81.5-141.4c-1.2-2.1-3-3.8-5.1-5.1l-72.1-41.6c-2.1-1.2-4.5-1.9-6.9-1.9l-163.7.5c-2.4 0-4.8.7-6.9 1.9l-70.8 41.3c-2.1 1.2-3.8 2.9-5 5l-82 141c-1.2 2.1-1.9 4.6-1.9 7.1l.7 83.7c0 2.4.7 4.8 1.9 6.8l81.4 140.2c1.2 2.1 3 3.9 5.2 5.1l71.1 39.9c2.1 1.2 4.4 1.8 6.7 1.8l164.1.6c2.5 0 4.9-.7 7-1.9l69.2-41c2-1.2 3.7-2.8 4.8-4.8l83.6-141c1.3-2.1 1.9-4.6 1.9-7v-82.3c.2-2.5-.5-4.8-1.7-6.9zm-163.6 85.5.7-28.3 13.6 23.9-.3 28.3zm-17.1 117.5-23.9-42.9 26.9-44.1 25.3 43.1zm-165.9 8.7 51.7 2.1 24.2 43.1-50.2-.2zm-118.8-121.4 25.7-45.2 24 44.9-25.1 42.7zm73.8-13.9-24.2-45.3 48.6 1.5 25.6 43zm70.4 26.4 24.4 14-27.5.7-24.9-14.2zm.9 42.3 49.2-1.3-23.5 42.4-51.4-2.1zm83.2-5.7 19.6-11.3-13.2 21.7-18.4 11.3zm-10.2-26-56.6-32.5-1-67.2 57.9-32.2 57.5 33.5-1.6 65.9zm48.1-205.1 52.1 3.1-26 39.8-50.2.4zm-57.9 47.2-23.7 13.2 13.6-22.9 23.2-13.7zm85.1 37.8-24.6-14.3 27.3-.2 24.3 13.9zm72-6.8-46-26.3 28.2-43.2 44.9 23.2zm-47.2-102.8-51.6-3-24.5-42.8 49.8-.1zm-78.6 5.4-45.9 27.2-24-46.7 43.7-26.4zm-89.3 3.2 22.1 42.9-25.9 43.5-24.7-41.2zm-17.6 117.3.4 27.8-13.2-22.2-.2-27.3zm-40.8-58.6.4 53.8-52.7-1.7-1.3-52.6zm-21.3 158.1 47.4 27-28.1 42.7-46-24.3zm152.8 142.3-26-46.3 42.3-26.1 25.7 46zm114.8-187.3-24.9-43.6 48.6-1.2 23.7 47.1zm5.4 27.9 51.7 2.5 1.9 51.3-54.2-.1zm66.1-39.2-23.7-47 25.6-43.6 25.7 44.6zm-33.4-152-23.4-12.1-15.6-27.2 24.5 14.2zm-236.4-62.7 28.7-.1-21 12.7-30 .4zm-66.5 41.3 52.8-.7-28.2 44.8-50-.4zm-61.9 106.4.7 27.3-14.7 25.9-.2-28.6zm49.1 208.9 23.9 12.6 15.3 26.8-24.2-13.6zm236.3 62.6-30.7-.1 21.5-13.5 31.9.1zm65.1-41-52.9-.2 27.6-42.8 50.7.1zm61.7-104-1-27.4 17-28.3v28.7z" />
</svg>