<svg enable-background="new 0 0 500 500" viewBox="0 0 500 500" xmlns="http://www.w3.org/2000/svg">
    <linearGradient gradientUnits="userSpaceOnUse" id="a" x1="344.1696" x2="344.1696" y1="284.229"
        y2="366.0831">
        <stop offset=".0004783163" stop-color="#8b008b" />
        <stop offset="1" stop-color="#4b0082" />
    </linearGradient>
    <linearGradient gradientUnits="userSpaceOnUse" id="b" x1="148.1537" x2="186.5181" y1="251.8451"
        y2="331.1315">
        <stop offset="0" stop-color="#1e90ff" />
        <stop offset="1" stop-color="#4b0082" />
    </linearGradient>
    <path
        d="m440.291 190.403c29.637.149 53.92 22.492 56.794 52.257 2.803 29.03-18.883 56.012-49.19 61.204-26.858 4.601-59.63 46.542-56.785 73.155.397 3.715 2.924 7.227 4.578 10.78 11.578 24.886 5.313 53.129-15.513 69.797-20.944 16.761-50.577 16.776-71.516.034-20.927-16.731-26.699-44.611-15.933-69.916 3.004-7.061 4.925-17 2.274-23.574-6.563-16.271-15.301-31.834-24.657-46.745-5.583-8.898-14.526-13.04-26.351-13.604-26.182-1.249-46.317-20.149-51.818-45.677-4.916-22.816 6.084-47.412 26.767-59.848 20.929-12.585 48.167-10.184 66.532 5.864 19.093 16.684 24.434 42.174 15.114 66.458-2.455 6.398-3.419 14.44-1.991 21.064 5.195 24.105 18.547 43.411 37.844 58.761 6.987 5.558 12.821 5.472 19.661-.573 19.336-17.087 31.626-38.087 35.369-63.537.771-5.241-2.003-11.338-4.163-16.623-15.663-38.34 11.739-79.484 52.984-79.277z"
        fill="url(#a)" />
    <path
        d="m97.845 408.215c.704-2.871 1.674-10.335 4.351-17.127 9.943-25.224-10.184-75.592-35.337-86.756-2.979-1.322-6.717-1.061-10.119-1.286-32.929-2.185-55.67-24.978-55.74-55.931-.068-30.537 21.481-52.221 54.276-55.675 5.939-.626 13.603-2.991 16.902-7.291 11.602-15.121 22.645-30.88 31.924-47.5 5.856-10.489 4.601-22.082-.604-34.163-12.925-29.998 2.533-63.018 32.89-73.729 29.544-10.423 62.786 6.094 71.546 35.55 9.54 32.078-8.086 62.92-40.615 71.072-33.346 8.356-60.775 41.151-62.634 75.274-.207 3.797.514 7.972 1.984 11.478 6.863 16.37 7.244 32.424.408 49.048-2.095 5.094-2.446 11.752-1.279 17.197 5.513 25.728 19.324 46.6 40.572 61.914 5.663 4.082 13.592 5.385 20.697 7.038 28.92 6.727 48.503 34.215 44.559 63.073-4.053 29.657-31.674 52.339-60.65 49.806-30.569-2.674-53.282-27.223-53.131-61.992z"
        fill="url(#b)" />
    <path
        d="m399.522 81.778c-.172 31.32-24.691 55.741-55.64 55.418-31.002-.324-54.793-24.859-54.718-56.429.074-31.191 24.682-55.629 55.701-55.317 31.117.312 54.831 24.751 54.657 56.328z"
        fill="#8b008b" />
</svg>