<svg enable-background="new 0 0 500 500" viewBox="0 0 500 500" xmlns="http://www.w3.org/2000/svg">
    <path d="m283.8 97.5h34.8v52.5h-34.8z" fill="#1682fe" />
    <path d="m183.7 0h34.8v52.5h-34.8z" fill="#1682fe" />
    <path d="m83.7 50h34.8v52.5h-34.8z" fill="#60d8a4" />
    <path d="m33.7 250h35.2v150h-35.2z" fill="#f4bb3b" />
    <path d="m33.7 100h35.2v150h-35.2z" fill="#60d8a4" />
    <path d="m333.7 147.5h34.8v52.5h-34.8z" fill="#1682fe" />
    <g fill="#ff5a5a">
        <path d="m333.7 300h34.8v52.5h-34.8z" />
        <path d="m283.7 350h34.8v52.5h-34.8z" />
        <path d="m183.7 447.5h34.8v52.5h-34.8z" />
    </g>
    <path d="m83.7 397.5h34.8v52.5h-34.8z" fill="#f4bb3b" />
    <path
        d="m466.3 200v-100h-50v-50h-100v-50h-100v50h-100v50h-50v300h50v50h100v50h100v-50h100v-50h50v-100h-100v50h-50v50h-100v-50h-50v-200h50v-50h100v50h50v50z"
        fill="#3a3a3a" />
</svg>