<svg enable-background="new 0 0 500 500" viewBox="0 0 500 500" xmlns="http://www.w3.org/2000/svg">
    <linearGradient gradientTransform="matrix(1 0 0 -1 0 502)" gradientUnits="userSpaceOnUse" id="a"
        x1="179.5407" x2="257.917" y1="474.5266" y2="39.9893">
        <stop offset="0" stop-color="#27d3a2" />
        <stop offset="1" stop-color="#9388fd" />
    </linearGradient>
    <circle cx="250" cy="249.9" fill="#edf0f2" r="249.9" />
    <path
        d="m408.7 443.1c-38.2 31.4-84.8 50.7-134 55.6-66 6.5-131.8-13.4-183.1-55.4s-83.7-102.7-90.3-168.7c-4.9-49.2 4.9-98.7 28.2-142.3 23.3-43.7 59-79.4 102.5-102.7 43.6-23.3 93.2-33.2 142.4-28.4s95.9 24.1 134.1 55.5l-50.5 61.4c-26.1-21.4-57.9-34.5-91.4-37.8s-67.3 3.5-97 19.4-54 40.3-69.9 70-22.6 63.5-19.2 97c4.5 45 26.6 86.3 61.6 115s79.9 42.2 124.8 37.8c33.5-3.3 65.3-16.5 91.4-37.9z"
        fill="url(#a)" />
    <path
        d="m250 469.8c121.4 0 219.9-98.4 219.9-219.9 0-121.4-98.4-219.9-219.9-219.9-121.4 0-219.9 98.4-219.9 219.9 0 121.5 98.5 219.9 219.9 219.9z"
        fill="#fff" />
    <path
        d="m250 365.3c63.6 0 115.2-51.6 115.2-115.2s-51.6-115.2-115.2-115.2-115.2 51.6-115.2 115.2 51.6 115.2 115.2 115.2z"
        fill="#fff" />
    <path
        d="m269.1 246.8c4.5-2.4 7.3-6.6 6.6-13.6-.9-9.6-8.8-12.8-18.8-13.7v-13.3h-7.7v13c-2 0-4.1 0-6.2.1v-13.1h-7.7v13.3c-1.7 0-3.3.1-4.9.1h-10.7v8.7s5.7-.1 5.6 0c3.1 0 4.2 1.9 4.5 3.6v15.2 21.3c-.1 1-.7 2.7-2.9 2.7.1.1-5.6 0-5.6 0l-1.5 9.7h10.1 5.5v13.5h7.7v-13.3c2.1 0 4.2.1 6.2.1v13.3h7.7v-13.4c13-.8 22.1-4.2 23.3-17 .8-10.8-3.8-15.4-11.2-17.2zm-25.9-18.1c4.4 0 18.1-1.5 18.1 8.1 0 9.2-13.7 8.1-18.1 8.1zm0 42.2v-17.8c5.2 0 21.7-1.6 21.7 8.9 0 10-16.4 8.9-21.7 8.9z"
        fill="#657786" />
    <g fill="none">
        <circle cx="250" cy="250.1" r="75.8" stroke="#657786" stroke-width="6.2105" />
        <circle cx="250" cy="250.1" r="100" stroke="#283947" stroke-width="6.2105" />
        <path d="m306.5 312.2-26-25.6m-70.4-69.3-22.3-21.8m6 116.7 26-25.6m70.3-69.3 22.1-21.8"
            stroke="#fff" stroke-width="4.6579" />
    </g>
</svg>