<svg enable-background="new 0 0 500 500" viewBox="0 0 500 500" xmlns="http://www.w3.org/2000/svg">
    <linearGradient gradientTransform="matrix(1 0 0 -1 0 502)" gradientUnits="userSpaceOnUse" id="a"
        x1="179.5407" x2="257.917" y1="474.5266" y2="39.9893">
        <stop offset="0" stop-color="#27d3a2" />
        <stop offset="1" stop-color="#9388fd" />
    </linearGradient>
    <circle cx="250" cy="249.9" fill="#edf0f2" r="249.9" />
    <path
        d="m408.7 443.1c-38.2 31.4-84.8 50.7-134 55.6-66 6.5-131.8-13.4-183.1-55.4s-83.7-102.7-90.3-168.7c-4.9-49.2 4.9-98.7 28.2-142.3 23.3-43.7 59-79.4 102.5-102.7 43.6-23.3 93.2-33.2 142.4-28.4s95.9 24.1 134.1 55.5l-50.5 61.4c-26.1-21.4-57.9-34.5-91.4-37.8s-67.3 3.5-97 19.4-54 40.3-69.9 70-22.6 63.5-19.2 97c4.5 45 26.6 86.3 61.6 115s79.9 42.2 124.8 37.8c33.5-3.3 65.3-16.5 91.4-37.9z"
        fill="url(#a)" />
    <path
        d="m250 469.8c121.4 0 219.9-98.4 219.9-219.9 0-121.4-98.4-219.9-219.9-219.9-121.4 0-219.9 98.4-219.9 219.9 0 121.5 98.5 219.9 219.9 219.9z"
        fill="#fff" />
    <g fill="#283947">
        <path
            d="m195.6 274 14-14.7-17.5-23.8-22.1-31.6c-7.9 13.5-12.4 29.2-12.4 46 0 27.8 12.4 52.7 31.8 69.5l28.2-20.1c-9.5-6.1-17.3-14.9-22-25.3z" />
        <path
            d="m226.1 195.7 14.6 14 23.8-17.5 31.7-22.2c-13.5-7.9-29.2-12.4-46-12.4-27.8 0-52.7 12.4-69.5 31.8l20.1 28.2c6-9.5 14.8-17.2 25.3-21.9z" />
        <path
            d="m290.4 240.8 17.5 23.8 22.2 31.7c7.9-13.5 12.4-29.2 12.4-46 0-27.8-12.4-52.7-31.8-69.5l-28.2 20.1c9.6 6 17.3 14.8 22.1 25.3z" />
        <path
            d="m319.3 310.6-20.1-28.2c-6 9.6-14.8 17.3-25.3 22.1l-14.7-14-23.8 17.5-31.7 22.2c13.5 7.9 29.2 12.4 46 12.4 28-.2 52.9-12.5 69.6-32z" />
    </g>
</svg>