<svg enable-background="new 0 0 500 500" viewBox="0 0 500 500" xmlns="http://www.w3.org/2000/svg">
    <path
        d="m128.486 281.514c3.357 1.112 6.988 1.715 10.817 1.722 8.925.018 17.849-.031 26.774-.089l-.837-23.374z"
        fill="#9a3121" />
    <path
        d="m165.239 259.773-1.462-40.831c-8.294.002-16.588 0-24.882.007-8.336.007-15.749 3.041-21.341 7.989l47.197 33.124z"
        fill="#cc3f28" />
    <path
        d="m117.554 226.939c-8.199 7.254-12.485 18.624-10.024 30.606 2.396 11.664 10.272 20.428 20.955 23.969l36.266-21.451z"
        fill="#501c16" />
    <path
        d="m229.076 218.943c-21.766 0-43.533-.005-65.299-.001l1.452 40.549 110.083-40.555c-15.412.002-30.824.007-46.236.007z"
        fill="#501c16" />
    <path d="m166.076 283.147c5.155-.033 10.309-.069 15.464-.098l-16.292-23.027z" fill="#812a1d" />
    <path
        d="m350.382 245.734c-1.916-14.946-15.6-26.767-31.125-26.782-14.648-.015-29.296-.017-43.944-.016l-110.083 40.555.019.531 16.292 23.027c5.05-.029 10.101-.051 15.151-.056 40.441-.043 80.882.007 121.322-.055 2.89-.004 5.848-.31 8.656-.974 16.138-3.815 25.936-18.882 23.712-36.23z"
        fill="#e5462c" />
    <path
        d="m210.672 372.603c-1.985 16.114 8.125 30.675 23.301 35.151 1.798.53 3.933 1.348 5.614 1.348h34.145l-45.089-61.929c-9.63 4.5-16.539 13.807-17.971 25.43z"
        fill="#812a1d" />
    <path
        d="m33.161 92.971c-3.982 0-12.911 3.307-18.068 7.977-1.238 1.121-2.372 2.295-3.412 3.519l18.699 52.59c3.407.529 6.916.561 10.426.526l41.379-64.612c-16.342 0-32.683 0-49.024 0z"
        fill="#501c16" />
    <path
        d="m4.565 120.413c-.425 3.263-.34 8.032.023 10.016 2.417 13.244 11.582 23.943 24.659 26.438.376.072.755.132 1.133.191l-18.699-52.59c-3.843 4.525-6.314 9.778-7.116 15.945z"
        fill="#9a3121" />
    <path
        d="m142.901 97.524c-3.973-2.183-9.36-4.553-13.018-4.553-15.9 0-31.799 0-47.699 0l-41.379 64.612c1.734-.017 3.469-.048 5.19-.044 26.054.057 52.108.046 78.162-.003 3.014-.006 6.087-.094 9.031-.667 12.877-2.507 23.163-13.017 25.076-25.355 2.229-14.379-3.432-27.434-15.363-33.99z"
        fill="#cc3f28" />
    <path
        d="m341.945 344.018c-33.301.607-66.621.171-99.932.212-4.802.006-9.324 1.054-13.369 2.944l45.089 61.929h.908c1.378-.159 2.756-.455 4.134-.457 19.673-.03 39.347-.173 59.019.006 11.452.104 22.531-1.019 33.151-3.21l19.225-77.085c-14.131 9.574-30.793 15.343-48.225 15.661z"
        fill="#e5462c" />
    <path
        d="m363.35 95.223c-6.364-1.065-12.832-1.517-19.251-2.251-2.975 0-5.95 0-8.924 0l97.377 70.007 11.343-28.771c-22.853-20.93-49.815-33.843-80.545-38.985z"
        fill="#371512" />
    <path d="m393.286 175.437c9.184 6.898 17.159 15.738 23.943 26.403l15.322-38.862-1.217-.875z"
        fill="#e5462c" />
    <path
        d="m335.175 92.971c-32.079 0-64.158 0-96.236 0-9.342 0-23.442 10.449-27.05 22.946-3.672 12.718-.774 24.176 9.052 33.478 6.507 6.16 14.502 8.279 23.216 8.282 31.365.011 62.735-.323 94.095.089 21.671.284 39.98 6.363 55.035 17.671l38.048-13.333z"
        fill="#66221d" />
    <path
        d="m446.45 136.561c-.842-.804-1.702-1.571-2.555-2.353l-11.442 29.019 60.204 58.699c-6.012-33.378-21.55-61.817-46.207-85.365z"
        fill="#e5462c" />
    <path
        d="m493.35 226.021c-.306-1.356-.447-2.737-.692-4.094l-60.204-58.699-15.224 38.613c1.438 2.261 2.83 4.594 4.161 7.017 10.335 18.81 12.671 39.172 8.532 60.341-4.754 24.315-19.701 45.573-39.753 59.159l-19.225 77.085c60.091-12.394 105.395-59.215 119.21-114.512 2.212-8.852 3.892-17.95 4.53-27.084.37-5.303 1.275-26.249-1.335-37.826z"
        fill="#b33824" />
</svg>