<svg enable-background="new 0 0 500 500" viewBox="0 0 500 500" xmlns="http://www.w3.org/2000/svg">
    <linearGradient gradientTransform="matrix(1 0 0 -1 0 502)" gradientUnits="userSpaceOnUse" id="a"
        x1="398.9701" x2="135.0128" y1="420.6631" y2="16.7415">
        <stop offset="0" stop-color="#00dffe" />
        <stop offset=".5253" stop-color="#00f5ff" />
        <stop offset="1" stop-color="#23fccf" />
    </linearGradient>
    <radialGradient cx="14.9708" cy="496.2286"
        gradientTransform="matrix(26.795 0 0 -26.795 -1.6571 13435.1982)"
        gradientUnits="userSpaceOnUse" id="b" r="14.0106">
        <stop offset="0" stop-color="#060606" stop-opacity=".4764" />
        <stop offset=".1101" stop-color="#030509" stop-opacity=".2538" />
        <stop offset=".451" stop-color="#00040c" stop-opacity="0" />
        <stop offset=".6591" stop-color="#144a4c" stop-opacity="0" />
        <stop offset="1" stop-color="#2afdc5" stop-opacity="0" />
    </radialGradient>
    <g clip-rule="evenodd" fill-rule="evenodd">
        <path
            d="m379.8 0c-14.6 0-26.5 11.9-26.5 26.5v281.9-160.5s-19-12.6-44.3-21.1c-18.9-6.3-42.6-9-57.1-9-105 0-190.6 85.6-190.6 190.6s85.6 190.6 190.6 190.6 186.8-85.6 186.8-190.6v-281.9c0-14.6-11.9-26.5-26.5-26.5zm-127.2 202.8c58.5 0 100.3 47.1 100.3 105.6 0 27.3-9.1 52.1-24.8 70.8-17.9 21.4-44.3 34.8-75.5 34.8-58.5 0-105.6-47.1-105.6-105.6.1-58.5 47.2-105.6 105.6-105.6z"
            fill="url(#a)" />
        <path
            d="m251.9 117.8c-105 0-190.6 85.6-190.6 190.6s85.6 190.6 190.6 190.6 186.8-85.6 186.8-190.6h-85.4v-160.5c-2.8-1.9-4.2-2.9-8.7-5.4-27.5-15.1-58.7-24.7-92.7-24.7zm.7 85c58.5 0 100.3 47.1 100.3 105.6 0 27.3-9.1 52.1-24.8 70.8-17.9 21.4-44.3 34.8-75.5 34.8-58.5 0-105.6-47.1-105.6-105.6.1-58.5 47.2-105.6 105.6-105.6z"
            fill="url(#b)" />
    </g>
</svg>