<svg enable-background="new 0 0 500 500" viewBox="0 0 500 500" xmlns="http://www.w3.org/2000/svg">
    <path
        d="m465.518 373.765c-71.4 41.038-142.578 81.948-214.503 123.287-71.196-40.931-142.335-81.829-213.881-122.961 0-82.555 0-165.053 0-248.231 70.993-40.814 142.167-81.732 213.944-122.996 71.503 41.141 142.969 82.261 214.439 123.383.001 82.48.001 164.287.001 247.518zm-139.957-239.788c44.169 75.306 87.309 148.858 132.299 225.563 0-77.876 0-151.517 0-225.563-43.855 0-86.805 0-132.299 0zm-281.301 2.384v230.09h130.904c-43.481-76.427-86.142-151.411-130.904-230.09zm9.415 238.779c67.316 38.691 130.673 75.105 195.061 112.112 21.49-37.422 42.548-74.094 64.38-112.112-86.517 0-170.625 0-259.441 0zm402.238-4.324c-22.374-38.071-43.926-74.745-66.587-113.305-43.375 75.441-85.591 148.866-130.129 226.33 67.939-39.036 131.723-75.683 196.716-113.025zm-267.473-246.094h259.762c-66.992-38.485-130.763-75.12-195.271-112.179-21.759 37.848-42.792 74.435-64.491 112.179zm-75.746 116.969c43.149-75.1 85.055-148.036 129.349-225.128-67.248 38.661-130.283 74.902-193.929 111.493 21.506 37.841 42.371 74.555 64.58 113.635zm74.131-107.892v69.499c40.301-22.948 79.178-45.086 122.052-69.499-43.931 0-82.739 0-122.052 0zm84.938 151.102c6.833-12.037 13.671-24.083 20.563-36.224-6.949-12.013-13.508-23.352-19.636-33.947-15.031 0-28.544 0-42.261 0-7.135 12.412-14.052 24.443-20.85 36.269 7.063 12.088 13.499 23.103 19.809 33.902zm44.339 11.167c-41.183 23.45-80.249 45.694-122.986 70.03h122.986c0-23.113 0-45.287 0-70.03zm8.114-78.911v138.544c21.397-37.129 40.416-70.129 59.98-104.078-20.289-11.658-39.317-22.592-59.98-34.466zm-201.351 42.324c21.436 37.66 40.199 70.623 59.402 104.358 20.664-11.886 40.028-23.024 61.173-35.186-40.006-22.951-77.933-44.709-120.575-69.172zm54.816-115.885c-20.972 36.434-40.206 69.847-60.039 104.302 20.096 11.544 39.457 22.666 60.039 34.49 0-46.508 0-90.833 0-138.792zm81.188 27.421c39.867 22.926 78.098 44.91 120.481 69.283-21.888-37.27-41.157-70.081-60.767-103.473-20.107 11.512-38.986 22.322-59.714 34.19zm-23.219 35.251h69.682c-19.866-11.348-35.97-20.548-52.898-30.217-5.878 10.581-11.058 19.906-16.784 30.217zm79.074 82.124c-6.202-10.943-11.672-20.593-18.062-31.867-11.856 20.593-22.75 39.516-35.992 62.517 20.558-11.657 36.83-20.884 54.054-30.65zm-109.142-45.493c11.736-20.458 22.536-39.286 35.524-61.927-20.312 11.566-36.731 20.915-53.82 30.646 6.411 10.961 12.021 20.553 18.296 31.281zm75.808-28.068c11.571 20.135 22.106 38.467 34.557 60.134 0-22.838 0-41.14 0-60.134-11.083 0-21.465 0-34.557 0zm-84.582 78.801c20.469 11.532 36.522 20.576 52.821 29.758 6.144-10.83 11.224-19.784 16.882-29.758-22.813 0-43.689 0-69.703 0zm23.569-8.948c-11.033-19.361-21.365-37.493-33.768-59.258v59.258z"
        fill="#16409b" />
</svg>