<svg enable-background="new 0 0 500 500" viewBox="0 0 500 500" xmlns="http://www.w3.org/2000/svg">
    <linearGradient gradientUnits="userSpaceOnUse" id="a" x1="73.2233" x2="426.7767" y1="73.2233"
        y2="426.7767">
        <stop offset="0" stop-color="#f9af1a" />
        <stop offset="1" stop-color="#fbc349" />
    </linearGradient>
    <circle cx="250" cy="250" fill="url(#a)" r="250" />
    <path
        d="m398.7 209.2h-29.7c-16.6-45-59.8-77.1-110.6-77.1h-103.1v77.1h-32.8v27h32.8v28.9h-32.8v27h32.8v75.8h103.1c50.3 0 93.2-31.5 110.1-75.8h30.2v-27h-23.4c.6-4.9 1-10 1-15.1 0-4.7-.3-9.3-.8-13.8h23.3v-27zm-216.4-51.3h75c35.9 0 66.8 21 81.3 51.3h-156.3zm75 184.2h-75v-50h155.7c-14.7 29.6-45.3 50-80.7 50zm90.1-94.1v4.1c0 4.4-.3 8.8-.9 13h-164.2v-28.9h164.3c.5 3.9.8 7.8.8 11.8z"
        fill="#fff" />
</svg>