<svg enable-background="new 0 0 500 500" viewBox="0 0 500 500" xmlns="http://www.w3.org/2000/svg">
    <g fill="#048ee2">
        <path
            d="m495.799 249.252c-.086 135.906-109.787 245.453-245.977 246.133-134.19.669-249.464-109.19-246.552-251.666 2.735-133.832 112.152-240.732 245.997-240.657 136.224.075 246.618 110.207 246.532 246.19zm-247.457 239.39c127.665.521 239.184-100.612 240.463-238.022 1.202-129.17-101.897-239.757-238.248-240.745-127.769-.925-232.772 98.978-240.065 225.105-8.039 139.015 102.055 252.85 237.85 253.662z" />
        <path
            d="m149.061 364.414c2.996-16.514 5.834-32.156 8.734-48.143 5.164 0 9.622.016 14.08-.003 30.518-.125 61.068.544 91.545-.646 23.279-.909 43.808-8.999 56.075-30.895 6.013-10.733 8.481-22.658 11.14-34.482 2.109-9.378 3.432-18.863 3.058-28.537-.764-19.768-10.896-31.994-30.195-36.633-8.992-2.162-18.088-2.907-27.28-2.909-29.454-.007-58.907.017-88.361.011-1.889 0-3.779-.161-6.729-.295 2.889-16.211 5.699-31.981 8.583-48.161 3.938 0 7.325-.005 10.711.001 35.428.058 70.87-.456 106.281.379 23.31.549 45.704 5.556 63.816 22.018 12.646 11.494 19.13 26.443 20.319 42.857 3.327 45.963-4.944 89.303-34.151 126.482-17.889 22.772-42.556 33.867-70.823 37.784-11.468 1.589-22.984 1.435-34.501 1.451-32.015.043-64.03.026-96.045.013-1.889-.002-3.775-.172-6.257-.292z" />
        <path
            d="m251.674 225.034c-2.83 11.383-4.075 22.286-8.59 32.197-5.035 11.052-14.741 15.845-26.345 15.937-35.848.286-71.699.128-107.549.118-.368 0-.736-.335-1.826-.863 2.55-12.642 3.788-25.939 11.447-37.05 4.86-7.05 12.905-10.135 21.186-10.205 36.879-.31 73.762-.134 111.677-.134z" />
    </g>
</svg>