<svg enable-background="new 0 0 500 500" viewBox="0 0 500 500" xmlns="http://www.w3.org/2000/svg">
    <g fill="#199aff">
        <path
            d="m423.5 60.6c-.3-33-27.3-59.6-60.3-59.4-33.3 0-60.3 26.6-60.3 59.4v59.5h60.1c33.3 0 60.3-26.6 60.3-59.5" />
        <path
            d="m423.5 114v204.8c0 98.4-81.1 178.4-180.9 178.4-100 0-180.9-79.8-180.9-178.4s80.9-178.2 180.9-178.2h120.6c22.9 0 44.8-9.6 60.2-26.6m-241.2 204.8c.2 33 27.2 59.7 60.2 59.5 33.3 0 60.3-26.6 60.3-59.5v-59.5h-60.2c-33.3 0-60.2 26.6-60.2 59.5" />
    </g>
</svg>