<svg enable-background="new 0 0 500 500" viewBox="0 0 500 500" xmlns="http://www.w3.org/2000/svg">
    <g fill="#ff5a07">
        <path
            d="m317.5 127.6h-.5c-2.2 0-3.9 1.8-3.9 3.9v24.1c0 2.2 1.7 3.9 3.9 3.9 80.6 2.1 146.5 67.9 148.5 148.5.1 2.2 1.8 3.9 3.9 3.9h24.1c2.2 0 4-1.8 3.9-4-2.1-99.3-80.1-180.3-179.9-180.3z" />
        <path
            d="m316.3 176.2h-.3c-1.6 0-2.9 1.3-2.9 2.9v24.9c0 1.6 1.3 2.9 2.9 2.9 56.4 0 103.4 48.3 103.4 102.3 0 1.6 1.3 2.9 2.9 2.9h23.7c1.6 0 2.9-1.3 2.9-2.9-1.7-73.3-59.1-133-132.6-133z" />
        <path
            d="m315.2 222.4h-.2c-1.1 0-1.9.9-1.9 1.9v25.1c0 1 .8 1.9 1.9 1.9 26.6 0 57.7 26.9 57.7 58.8 0 1 .9 1.9 1.9 1.9h26.2c1.1 0 1.9-.9 1.9-1.9-1.1-48.3-39-87.7-87.5-87.7z" />
        <path
            d="m372.1 317.7v-.5c0-2.2-1.8-3.9-3.9-3.9h-24.1c-2.2 0-3.9 1.7-3.9 3.9-2.1 80.6-67.9 146.5-148.5 148.5-2.2.1-3.9 1.8-3.9 3.9v24.1c0 2.2 1.8 4 4 3.9 99.3-2.1 180.3-80.1 180.3-179.9z" />
        <path
            d="m323.5 316.5v-.3c0-1.6-1.3-2.9-2.9-2.9h-24.9c-1.6 0-2.9 1.3-2.9 2.9 0 56.4-48.3 103.4-102.3 103.4-1.6 0-2.9 1.3-2.9 2.9v23.7c0 1.6 1.3 2.9 2.9 2.9 73.3-1.7 133-59.1 133-132.6z" />
        <path
            d="m277.3 315.4v-.2c0-1.1-.9-1.9-1.9-1.9h-25.1c-1 0-1.9.8-1.9 1.9 0 26.6-26.9 57.7-58.8 57.7-1 0-1.9.9-1.9 1.9v26.2c0 1.1.9 1.9 1.9 1.9 48.3-1.1 87.7-39 87.7-87.5z" />
        <path
            d="m182.7 372.9h.5c2.2 0 3.9-1.8 3.9-3.9v-24.1c0-2.2-1.7-3.9-3.9-3.9-80.6-2.1-146.5-68-148.6-148.6-.1-2.2-1.8-3.9-3.9-3.9h-24.1c-2.2 0-4 1.8-3.9 4 2.1 99.4 80.1 180.4 180 180.4z" />
        <path
            d="m183.8 324.3h.3c1.6 0 2.9-1.3 2.9-2.9v-24.9c0-1.6-1.3-2.9-2.9-2.9-56.4 0-103.4-48.3-103.4-102.3 0-1.6-1.3-2.9-2.9-2.9h-23.6c-1.6 0-2.9 1.3-2.9 2.9 1.6 73.3 59 133 132.5 133z" />
        <path
            d="m184.9 278.1h.2c1.1 0 1.9-.9 1.9-1.9v-25.1c0-1-.8-1.9-1.9-1.9-26.6 0-57.7-26.9-57.7-58.8 0-1-.9-1.9-1.9-1.9h-26.1c-1.1 0-1.9.9-1.9 1.9 1 48.3 38.9 87.7 87.4 87.7z" />
        <path
            d="m128.6 182.4v.5c0 2.2 1.8 3.9 3.9 3.9h24.1c2.2 0 3.9-1.7 3.9-3.9 2.1-80.6 67.9-146.5 148.5-148.5 2.2-.1 3.9-1.8 3.9-3.9v-24.2c0-2.2-1.8-4-4-3.9-99.3 2.2-180.3 80.2-180.3 180z" />
        <path
            d="m177.2 183.6v.3c0 1.6 1.3 2.9 2.9 2.9h24.9c1.6 0 2.9-1.3 2.9-2.9 0-56.4 48.3-103.4 102.3-103.4 1.6 0 2.9-1.3 2.9-2.9v-23.7c0-1.6-1.3-2.9-2.9-2.9-73.3 1.6-133 59.1-133 132.6z" />
        <path
            d="m223.4 184.7v.2c0 1.1.9 1.9 1.9 1.9h25.1c1 0 1.9-.8 1.9-1.9 0-26.6 26.9-57.7 58.8-57.7 1 0 1.9-.9 1.9-1.9v-26.2c0-1.1-.9-1.9-1.9-1.9-48.3 1-87.7 38.9-87.7 87.5z" />
    </g>
</svg>