<svg enable-background="new 0 0 500 500" viewBox="0 0 500 500" xmlns="http://www.w3.org/2000/svg">
    <path
        d="m58.987 247.297c81.453-81.33 163.366-163.118 244.668-244.297 41.229 41.449 83.209 83.653 127.654 128.335 0 73.962.039 152.129-.133 230.296-.008 3.409-.937 7.813-3.152 10.072-40.509 41.304-81.28 82.351-121.221 122.67-83.637-83.388-165.848-165.353-247.816-247.076zm218.145-184.977c-62.815 62.31-125.534 124.525-184.625 183.141 30.122 31.086 60.848 62.796 92.057 95.004 30.839-92.662 61.841-185.815 92.568-278.145zm-60.483 290.111h189.44c-16.099-48.254-31.653-94.877-47.315-141.823-48.139 48.037-94.581 94.38-142.125 141.823zm132.988-168.832c-14.208-42.73-28.762-86.501-45.279-136.173-31.282 93.869-60.607 181.87-90.556 271.741 46.03-45.941 90.137-89.96 135.835-135.568zm41.539 192.125c-57.953 0-115.446 0-172.938 0 29.377 29.35 58.346 58.293 86.042 85.964 28.209-27.907 57.138-56.525 86.896-85.964zm9.609-242.088c-23.171-24.554-45.789-48.523-70.74-74.963 12.839 38.052 24.648 73.049 36.521 108.237 13.042-12.682 24.997-24.307 34.219-33.274zm8.77 162.827c0-51.669 0-93.689 0-137.443-12.527 12.028-23.56 22.623-34.716 33.335 10.867 32.587 21.369 64.083 34.716 104.108z"
        fill="#282629" />
</svg>