<svg enable-background="new 0 0 500 500" viewBox="0 0 500 500" xmlns="http://www.w3.org/2000/svg">
    <linearGradient gradientUnits="userSpaceOnUse" id="a" x1="3.3434" x2="496.1365" y1="250.1246"
        y2="250.1246">
        <stop offset="0" stop-color="#24c7ff" />
        <stop offset="1" stop-color="#6a5ce3" />
    </linearGradient>
    <path
        d="m150.357 331.444c-4.26 2.653-7.709 4.942-11.287 7.009-35.672 20.606-71.365 41.176-107.054 61.752-.721.416-1.468.788-2.434 1.303-8.717-5.049-17.478-10.123-26.238-15.198 0-90.86 0-181.475 0-272.345 8.701-5.024 17.401-10.049 26.362-15.224 20.035 11.554 40.093 23.073 60.102 34.677 19.974 11.584 40.164 22.811 60.722 35.31 26.536-15.311 54.116-31.224 81.975-47.298 21.824 12.591 43.654 25.185 66.121 38.147-12.175 7.032-23.752 13.719-35.534 20.523-10.207-5.867-20.359-11.703-30.635-17.61-25.401 14.648-50.602 29.18-75.85 43.74v87.79c25.118 14.496 50.311 29.036 75.833 43.766 10.129-5.821 20.277-11.653 30.626-17.6 11.691 6.736 23.285 13.417 35.572 20.497-22.402 12.926-44.206 25.507-66.144 38.165-27.715-15.995-55.297-31.914-82.137-47.404zm-111.523-186.534v210.45c27.701-15.999 54.894-31.704 81.991-47.355 0-38.775 0-77.178 0-115.75-27.217-15.715-54.348-31.383-81.991-47.345zm345.89-23.533c-37.301 21.536-74.406 42.959-111.388 64.311v128.899c37.156 21.454 74.253 42.874 111.377 64.309 37.158-21.439 74.003-42.698 111.424-64.288-12.313-7.106-23.907-13.797-35.649-20.573-25.362 14.627-50.551 29.154-75.805 43.719-25.393-14.653-50.517-29.152-75.628-43.642 0-29.42 0-58.595 0-87.96 25.242-14.559 50.431-29.087 75.65-43.632 25.443 14.68 50.565 29.174 75.784 43.725 11.766-6.795 23.36-13.49 35.636-20.58-37.576-21.685-74.46-42.97-111.401-64.288z"
        fill="url(#a)" />
</svg>