<svg enable-background="new 0 0 500 500" viewBox="0 0 500 500" xmlns="http://www.w3.org/2000/svg">
    <path
        d="m497.2 252c-1 137.3-112.8 247.2-249.2 246.2-67.7 0-128.5-27.5-172.7-72.6-45-45.1-73.5-107.9-72.5-177.6 1-137.3 112.8-247.2 249.2-246.2s246.2 112.8 245.2 250.2" />
    <path
        d="m131.3 334.4-54.9 93.2s22.6 30.4 86.3 54.9l31.4-85.3 21.6-56.9 21.6-63.8 7.8-20.6 1-2s0-1 1-1l1-1h1 1 1l1 2 2 5.9 3.9 11.8 14.7 45.1 12.8 40.2 20.6 61.8 15.7 43.2 6.9 23.5s50-13.7 92.2-55.9l-30.4-46.1-19.6-34.3-20.6-39.2-16.7-34.3-13.7-31.4-10.8-32.4-9.8-30.4-11-34.4-10.8-36.3-9.8-36.3-10.8-40.2-6.9-21.6-11.8 38.3-16.7 54-12.7 40.1-15.7 46.1-12.8 37.3-14.7 35.3-15.7 34.3z"
        fill="#fff" />
</svg>