<svg enable-background="new 0 0 500 500" viewBox="0 0 500 500" xmlns="http://www.w3.org/2000/svg">
    <path
        d="m216.7 253.7v-192.6c0-16.9 13.7-30.6 30.6-30.6s30.6 13.7 30.6 30.6v89.3c10.1-7.3 19.3-15.9 27.4-25.4v-63.9c0-32-26-58-58-58s-58 26-58 58v143.3c0 20.8 10.9 39.1 27.4 49.3z" />
    <path
        d="m227.7 224.7 166.8-96.3c14.6-8.5 33.4-3.4 41.8 11.2s3.4 33.4-11.2 41.8l-77.3 44.6c11.4 5.1 23.4 8.8 35.7 11l55.3-31.9c27.8-16 37.2-51.5 21.2-79.2-16-27.8-51.5-37.2-79.2-21.2l-124.1 71.7c-18 10.4-28.4 29-29 48.3z" />
    <path
        d="m438.8 292.4-124.1-71.7c-18-10.4-39.3-10-56.3-.9l166.8 96.3c14.6 8.5 19.7 27.2 11.2 41.8s-27.2 19.7-41.8 11.2l-77.3-44.6c1.3 12.4 4.1 24.7 8.3 36.4l55.3 31.9c27.8 16 63.2 6.5 79.2-21.2 15.9-27.7 6.5-63.2-21.3-79.2z" />
    <path
        d="m277.9 243.8v192.6c0 16.9-13.7 30.6-30.6 30.6s-30.6-13.7-30.6-30.6v-89.3c-10.1 7.3-19.3 15.9-27.4 25.4v63.8c0 32 26 58 58 58s58-26 58-58v-143.2c0-20.8-10.9-39-27.4-49.3z" />
    <path
        d="m266.9 272.9-166.8 96.3c-14.6 8.5-33.4 3.4-41.8-11.2-8.5-14.6-3.4-33.4 11.2-41.8l77.3-44.6c-11.4-5.1-23.4-8.8-35.7-11l-55.3 31.9c-27.8 16-37.2 51.5-21.2 79.2 16 27.8 51.5 37.2 79.2 21.2l124.1-71.7c18-10.4 28.4-29 29-48.3z" />
    <path
        d="m55.8 205.2 124.2 71.7c18 10.4 39.3 10 56.3.9l-166.8-96.3c-14.6-8.5-19.7-27.2-11.2-41.8s27.2-19.7 41.8-11.2l77.3 44.6c-1.3-12.4-4.1-24.7-8.3-36.4l-55.3-31.9c-27.8-16-63.2-6.5-79.2 21.2-16.1 27.7-6.6 63.1 21.2 79.2z" />
</svg>