<svg enable-background="new 0 0 500 500" viewBox="0 0 500 500" xmlns="http://www.w3.org/2000/svg">
    <linearGradient gradientUnits="userSpaceOnUse" id="a" x1="78.9618" x2="421.0381" y1="154.0853"
        y2="496.1617">
        <stop offset="0" stop-color="#0edaab" />
        <stop offset="1" stop-color="#2c9de1" />
    </linearGradient>
    <path
        d="m498.4 377.4-198.6-344c-2.1-3.7-6-5.9-10.2-5.9h-79.2c-4.2 0-8.1 2.3-10.2 5.9l-198.6 344c-2.1 3.7-2.1 8.2 0 11.8l39.6 68.6c2.1 3.7 6 5.9 10.2 5.9h397.2c4.2 0 8.1-2.3 10.2-5.9l39.6-68.6c2.1-3.6 2.1-8.1 0-11.8zm-281.2-326.2h51.9l-147.5 257.1c-2.1 3.7-2.1 8.2 0 11.8s6 5.9 10.2 5.9h79.4 70.9l26.3 44.7h-275.6zm32.8 219.5 18.3 31.7h-36.7zm-218.2 123.6h297.2c4.2 0 8.2-2.3 10.3-6s2.1-8.2-.1-11.9l-40.2-68.1-35.4-61.3 26.2-45.4 138.3 238.5h-369.9zm416.8 34-148.6-256.3c-2.1-3.6-6-5.9-10.2-5.9-4.2 0-8.1 2.3-10.2 5.9l-39.8 69-35.4 61.3h-52.1l137.3-239.3 184.9 320.3z"
        fill="url(#a)" />
</svg>