<svg enable-background="new 0 0 500 500" viewBox="0 0 500 500" xmlns="http://www.w3.org/2000/svg">
    <path clip-rule="evenodd"
        d="m304.4 432.6v-365.3c78.6 23.5 136.1 96.5 136.1 182.7s-57.4 159.1-136.1 182.6m-54.4-427.7v206.5l-31.1-31.1-4-77.6 32.4-97.7c-20.8.2-40.9 3.2-60.1 8.3l-15.7 47.2-44.5-22.3c-17.6 10.3-33.9 22.5-48.4 36.7l82.4 41.3 2.4 47.3-47.2-2.4-41.3-82.4c-14.1 14.4-26.4 30.7-36.7 48.3l22.3 44.5-47.2 15.7c-5.1 19.2-8.1 39.3-8.3 60.1l97.7-32.4 77.6 4 31.1 31.1-31.1 31.1-77.6 4-97.7-32.5c.2 20.8 3.2 40.9 8.3 60.1l47.2 15.7-22.3 44.5c10.3 17.6 22.5 33.9 36.7 48.4l41.3-82.4 47.2-2.4-2.4 47.2-82.4 41.3c14.5 14.2 30.8 26.4 48.4 36.7l44.5-22.3 15.7 47.2c19.2 5.1 39.3 8.1 60.1 8.3l-32.4-97.7 4-77.6 31.1-31.1v206.5c135.3 0 245-109.7 245-245s-109.7-245.1-245-245.1"
        fill="#ff00af" fill-rule="evenodd" />
</svg>