<svg enable-background="new 0 0 500 500" viewBox="0 0 500 500" xmlns="http://www.w3.org/2000/svg">
    <path
        d="m238.819 1.367c8.518-.436 16.003-.54 24.804 0 6.611.526 12.186 1.716 18.288 2.507 63.379 8.22 116.238 36.533 157.256 85.275 49.665 59.018 67.59 127.355 54.898 203.459-6.681 40.058-22.859 76.183-48.026 107.997-41.706 52.723-95.885 84.074-162.646 93.402-32.342 4.519-64.347 2.507-95.769-5.888-45.742-12.221-85.058-35.602-117.402-70.349-34.118-36.652-55.353-79.68-63.359-129.147-1.441-8.904-2.464-17.877-3.68-26.818-.75-8.481-.638-16.421 0-24.804.42-2.4 2.662-23.663 4.197-31.736 11.244-59.114 39.704-108.31 86.016-146.832 34.345-28.567 73.742-46.4 117.92-53.418 9.13-1.45 18.103-2.892 27.503-3.648zm-40.28 187.473c-29.22 0-57.613 0-86.364 0v206.993c2.357.109 4.196.27 6.036.269 48.137-.002 96.275-.046 144.412-.022 15.028.007 29.601-2.761 43.685-7.687 79.456-27.79 120.362-114.013 89.472-192.355-21.639-54.88-63.368-86.748-122.346-93.078-23.704-2.544-47.864-.84-71.817-1.027-.763-.006-1.53.445-3.079.928.001 28.33.001 56.728.001 85.979zm-87.166-35.817h51.148c0-17.36 0-34.112 0-50.702-17.433 0-34.205 0-51.148 0z"
        fill="#1241f3" />
    <path
        d="m198.539 188.84c0-29.251 0-57.649 0-85.981 1.549-.482 2.316-.934 3.079-.928 23.953.188 48.113-1.517 71.817 1.027 58.977 6.331 100.707 38.198 122.346 93.078 30.89 78.343-10.016 164.566-89.472 192.355-14.084 4.926-28.657 7.694-43.685 7.687-48.137-.023-96.275.02-144.412.022-1.84 0-3.679-.16-6.036-.269 0-68.861 0-137.492 0-206.993 28.751.002 57.144.002 86.363.002zm1.111 118.696c1.035.311 1.811.748 2.586.747 19.839-.011 39.678-.027 59.517-.159 3.083-.021 6.237-.286 9.231-.983 29.354-6.827 49.819-34.424 46.773-62.909-3.418-31.964-27.879-54.148-60.04-54.331-17.155-.097-34.312-.035-51.467 0-2.173.004-4.345.285-6.599.444-.001 39.525-.001 78.317-.001 117.191z"
        fill="#fff" />
    <path d="m111.373 153.023c0-17.151 0-33.607 0-50.702h51.148v50.702c-16.836 0-33.603 0-51.148 0z"
        fill="#fff" />
    <path
        d="m199.65 307.536c0-38.875 0-77.666 0-117.191 2.254-.159 4.426-.439 6.599-.444 17.156-.035 34.312-.097 51.467 0 32.161.182 56.623 22.367 60.04 54.331 3.046 28.485-17.419 56.082-46.773 62.909-2.994.696-6.148.962-9.231.983-19.838.132-39.678.148-59.517.159-.775.001-1.55-.436-2.585-.747z"
        fill="#1241f3" />
</svg>