<svg enable-background="new 1000 -1000 2500 2500" viewBox="1000 -1000 2500 2500"
    xmlns="http://www.w3.org/2000/svg">
    <path
        d="m1251.888-981.518h1996.224c128.906 0 233.406 104.499 233.406 233.406v1996.224c0 128.906-104.499 233.406-233.406 233.406h-1996.224c-128.906 0-233.406-104.499-233.406-233.406v-1996.224c0-128.906 104.5-233.406 233.406-233.406z"
        fill="#322a3f" />
    <path
        d="m2235.022-325.485-473.552 987.378h786.174c22.786-.004 43.378 13.582 52.339 34.532l.832 1.914c5.894 13.742 5.001 29.453-2.413 42.437-13.344 23.25-38.097 37.594-64.904 37.611h-835.518c-12.885-.006-25.481-3.828-36.197-10.984l-4.41-2.912c-18.15-12.123-29.047-32.51-29.041-54.337-.019-9.855 2.2-19.586 6.49-28.458l558.76-1149.888c5.839-12.002 14.147-22.635 24.381-31.204 20.005-16.681 48.993-16.96 69.314-.666 4.417 3.493 7.999 7.928 10.484 12.981l566.749 1157.794c7.687 15.733 9.287 33.751 4.493 50.592-5.405 19.04-22.812 32.163-42.604 32.119h-6.49c-26.435-.001-50.491-15.271-61.742-39.192l-488.779-1039.55c-4.396-9.511-15.669-13.659-25.181-9.263-4.032 1.863-7.283 5.082-9.185 9.096z"
        fill="#f4ae95" />
</svg>