<svg enable-background="new 0 0 500 500" viewBox="0 0 500 500" xmlns="http://www.w3.org/2000/svg">
    <linearGradient gradientTransform="matrix(22.2733 0 0 -53.03 -20.1331 26553.7109)"
        gradientUnits="userSpaceOnUse" id="a" x1="1.1334" x2="9.8754" y1="496.0116" y2="496.0116">
        <stop offset="0" stop-color="#00ba95" />
        <stop offset=".52" stop-color="#00d9ad" />
        <stop offset="1" stop-color="#00f9ab" />
    </linearGradient>
    <linearGradient gradientTransform="matrix(22.2324 0 0 -53.03 -17.7042 26553.7109)"
        gradientUnits="userSpaceOnUse" id="b" x1="1.9513" x2="10.7196" y1="496.0116" y2="496.0116">
        <stop offset="0" stop-color="#00ba95" />
        <stop offset=".52" stop-color="#00d9ad" />
        <stop offset="1" stop-color="#00d9ad" />
    </linearGradient>
    <linearGradient gradientTransform="matrix(23.9487 0 0 -54.44 10.2776 27258.9375)"
        gradientUnits="userSpaceOnUse" id="c" x1="11.4849" x2="20.2532" y1="496.128" y2="496.128">
        <stop offset="0" stop-color="#008d85" />
        <stop offset="1" stop-color="#00ffde" />
    </linearGradient>
    <linearGradient gradientTransform="matrix(46.2199 0 0 -54.5 -35.8709 27288.998)"
        gradientUnits="userSpaceOnUse" id="d" x1="2.2084" x2="10.9679" y1="496.1282" y2="496.1282">
        <stop offset="0" stop-color="#008d95" />
        <stop offset="1" stop-color="#00ffde" />
    </linearGradient>
    <path d="m4 10.6h491.9v478.7h-491.9z" fill="none" />
    <path
        d="m194.6 229.2-56.8-98.3-57.3-99.3c-3.3-5.6-7.9-10.4-13.4-13.9h-.9c-5.9 3.4-10.7 8.3-13.9 14.3l-43 74.4c-6.2 10.6-6.2 23.8 0 34.4l51.6 89.3c3.6 6.2 5.4 13.3 5.3 20.5s-1.9 14.2-5.3 20.5l-51.1 88.5c-6.2 10.6-6.2 23.8 0 34.4l43 74.4c3.2 5.8 7.8 10.7 13.4 14.3h.4c5.7-3.2 10.5-7.9 13.9-13.5l57.3-99.3 56.8-98.4c7.2-13.1 7.2-29.1 0-42.3z"
        fill="url(#a)" />
    <path
        d="m215.3 229.2-57-98.3-57-99.3c-3.3-5.6-7.9-10.4-13.4-13.9h-.4c-5.9 3.4-10.7 8.3-13.9 14.3l-43 74.4c-6.2 10.6-6.2 23.8 0 34.4l51.6 89.3c3.6 6.2 5.4 13.3 5.3 20.5s-1.9 14.2-5.3 20.5l-51.9 88.5c-6.2 10.6-6.2 23.8 0 34.4l43 74.4c3.3 5.9 8.1 10.8 13.9 14.3h.4c5.7-3.2 10.4-7.9 13.7-13.5l57-99.6 57-98.4c7.1-13.1 7.1-28.9 0-42z"
        fill="url(#b)" opacity=".25" />
    <path
        d="m489.1 226.8-56.8-98.8-58.7-102.1c-2.7-4.6-6.3-8.7-10.5-11.9-2.1-1.8-4.8-2.9-7.5-2.9-30.1 0-50.6 1-65.8 1-2.4 0-3.9 2.9-3.3 5.3l14.8 83c.1 1-.1 2-.4 2.9-5.7 10.7-5.3 23.6 1 33.9l52.6 91.6c3.7 6.4 5.7 13.7 5.7 21 0 7.4-2 14.6-5.7 21l-53.5 91.6c-6 10.4-6.4 23.2-1 33.9.4.9.5 1.9.4 2.9l-14.9 82.4c-.4 2.4 1 5.3 3.3 5.3 13.9 0-5.7 1.4 67.8 1.4 1.6-.1 3.2-.4 4.7-1 5.3-1.9 8.8-8.2 11.5-13.3l58.7-102 56.8-98.8c9.1-14.1 9.4-32 .8-46.4z"
        fill="url(#c)" opacity=".25" />
    <path
        d="m466.2 229.2-114.6-197.6c-7.3-12.5-20.6-20.2-35.1-20.5h-228c-7.9 0-15.6 2.1-22.4 6.2v.4c5.6 3.4 10.2 8.1 13.3 13.9l57.3 99.3c5.5-2.5 11.5-3.8 17.5-3.9h94.8c14.6-.1 28 7.8 35.1 20.5l47.3 81.6c7.2 12.7 7.2 28.3 0 41l-46.8 82.1c-7.3 12.5-20.6 20.2-35.1 20.5h-94c-6.1 0-12-1.3-17.5-3.9l-57 99.5c-3.3 5.6-7.9 10.3-13.3 13.9v.4c6.5 4 13.9 6.1 21.5 6.2h228.7c14.6.1 28-7.8 35.1-20.5l113.1-198.1c7.1-12.6 7.2-28.2.1-41z"
        fill="url(#d)" />
</svg>