<svg enable-background="new 956 -1000 2412 2500" viewBox="956 -1000 2412 2500"
    xmlns="http://www.w3.org/2000/svg">
    <path
        d="m3327.161 19.738c-16.491-80.342-45.953-157.463-87.23-228.337-84.664-141.107-269.386-346.354-500.288-507.985 0 0-174.459-112.886-256.558-151.369-300.173-138.541-636.264-166.763-923.609 87.23-482.331 428.452-723.495 1026.233-482.331 1621.448 5.131 12.828 138.541 377.14 939.003 620.871 351.485 10.262 556.731-10.262 782.502-141.107 295.042-169.328 466.936-477.198 528.51-790.199 17.959-94.927 20.525-415.625.001-510.552"
        fill="#04ffcc" />
    <path
        d="m2393.289-824.338v572.125l-661.92-41.049-271.952 343.787-33.353 649.092 225.771 241.165 338.657 169.328 443.845 48.746 482.329-123.148v-1192.995l-92.361-495.157s-259.124-202.681-428.452-251.427"
        fill="#7df8fb" />
    <g fill="#2c398f">
        <path
            d="m3168.094 594.429c-92.361-5.131-41.049-151.369-82.098-318.132-48.746-184.722 23.09-313.001 118.017-307.87 44.58 6.948 86.824 24.55 123.148 51.312-16.491-80.342-45.953-157.463-87.23-228.337-84.664-141.107-269.386-346.354-500.288-507.985v1547.045c.087 86.291-69.795 156.315-156.086 156.402-60.573.061-115.723-34.893-141.521-89.697-285.797 177.133-661.076 89.043-838.208-196.754s-89.043-661.076 196.754-838.208c190.993-118.375 431.661-121.923 626.061-9.229v-600.346c-.86-46.763 19.982-91.289 56.443-120.582-300.173-138.541-636.264-166.763-923.609 87.23-482.331 428.451-723.496 1026.232-482.331 1621.447 5.131 12.828 10.262 25.656 15.394 35.918 7.051-14.4 16.607-27.431 28.221-38.484 125.714-128.279 264.255 133.41 559.297 284.78 187.287 94.926 295.042 220.64 336.091 338.657 274.517 33.353 556.731-10.262 782.502-141.107 295.042-169.328 466.936-477.198 528.51-790.199-44.312 38.64-100.345 61.234-159.067 64.139zm-1005.708-1216.086c69.271-2.566 133.41 79.533 135.976 118.017s-59.008 23.09-125.714 46.18c-74.402 25.656-128.279 2.566-130.844-35.918s48.746-125.713 120.582-128.279z" />
        <path
            d="m2011.017 604.691c148.804 84.664 328.394 51.312 361.747-138.541 17.959-110.32 7.697-282.214-89.795-336.091-323.263-184.722-595.215 289.91-271.952 474.632" />
    </g>
</svg>