<svg enable-background="new 0 0 500 500" viewBox="0 0 500 500" xmlns="http://www.w3.org/2000/svg">
    <linearGradient gradientUnits="userSpaceOnUse" id="a" x1="73.0489" x2="429.049" y1="426.049"
        y2="70.0489">
        <stop offset="0" stop-color="#70b3df" />
        <stop offset="1" stop-color="#7d64bd" />
    </linearGradient>
    <path
        d="m249.288 4c135.639-.157 245.759 109.618 245.795 245.025.036 135.699-109.768 245.991-245.24 245.528-134.624-.46-244.836-109.554-245.31-244.551-.477-135.788 109.283-245.845 244.755-246.002zm-3.92 210.226c-9.445 8.064-16.935 13.723-23.53 20.281-7.755 7.712-9.173 16.891-.756 24.88 8.109 7.696 16.889 5.613 24.281-1.756 16.045-15.996 31.906-32.18 47.703-48.422 7.881-8.104 8.176-16.802.249-24.97-15.778-16.258-31.781-32.299-47.784-48.336-7.716-7.732-16.499-9.966-24.784-1.589-8.26 8.352-5.921 16.967 1.757 24.811 5.745 5.869 11.297 11.927 18.041 19.074-4.056.197-5.801.342-7.548.357-66.803.592-115.195 49.699-114.517 116.222.577 56.625 48.551 106.283 104.985 108.669 60.897 2.574 115.24-41.681 117.783-100.347 2.699-62.269 1.161-124.729 1.076-187.106-.014-10.486-5.945-17.581-17.239-16.873-11.93.748-15.296 9.191-15.306 19.787-.055 57.094-.078 114.188-.243 171.282-.073 25.344-9.716 46.486-29.496 62.401-25.904 20.842-62.657 23.051-90.133 6.026-29.228-18.11-43.548-50.99-36.727-84.326 8.167-39.915 50.213-69.512 92.188-60.065z"
        fill="url(#a)" />
    <path
        d="m245.368 214.226c-41.975-9.447-84.021 20.15-92.188 60.064-6.821 33.336 7.499 66.216 36.727 84.326 27.476 17.025 64.229 14.816 90.133-6.026 19.78-15.915 29.423-37.057 29.496-62.401.165-57.094.188-114.188.243-171.282.01-10.595 3.375-19.038 15.306-19.787 11.295-.708 17.225 6.387 17.239 16.873.085 62.376 1.623 124.836-1.076 187.106-2.543 58.667-56.887 102.922-117.783 100.347-56.433-2.386-104.408-52.044-104.985-108.669-.678-66.522 47.714-115.629 114.517-116.222 1.747-.015 3.492-.161 7.548-.357-6.744-7.147-12.296-13.205-18.041-19.074-7.678-7.844-10.018-16.459-1.757-24.811 8.285-8.377 17.068-6.144 24.784 1.589 16.003 16.037 32.007 32.078 47.784 48.336 7.926 8.168 7.632 16.867-.249 24.97-15.797 16.242-31.658 32.426-47.703 48.422-7.392 7.369-16.173 9.452-24.281 1.756-8.417-7.989-6.998-17.168.756-24.88 6.594-6.557 14.085-12.216 23.53-20.28z"
        fill="#fff" />
</svg>