<svg enable-background="new 0 0 500 500" viewBox="0 0 500 500" xmlns="http://www.w3.org/2000/svg">
    <g clip-rule="evenodd" fill="#fff700" fill-rule="evenodd">
        <path
            d="m308.4 161.4c2.1-3.3 4.1-7.1 5.7-11.1 2.8-6.9 4.3-13.8 4.7-20.1 1.5-13.3-1.7-24-9.2-27.3-7.4-3.2-17.1 1.8-25.4 11.8 0-.7 0-1.3 0-2 0-27.7-12.6-50.1-28-50.1s-28 22.4-28 50.1c0 2 .1 3.9.2 5.8-9.4-12.9-21.8-19.6-30.7-15.3-11.1 5.3-12.4 25.7-3 45.4 1.6 3.3 5.1 9 7 11.8-120.1 19.2-188.5 116.7-197.1 276.6h67.2c7.1-131.7 68.3-206 178.8-203.7 101.5 2.1 179.1 68.7 178 203.7h67.2c1.2-159.2-77-250.9-187.4-275.6z" />
        <path
            d="m194.8 311c-8.1 0-14.7 7.4-14.7 16.4v40.4c0 9.1 6.6 16.4 14.7 16.4s14.7-7.4 14.7-16.4v-40.4c-.1-9-6.6-16.4-14.7-16.4z" />
        <path
            d="m312.1 311c-8.1 0-14.7 7.4-14.7 16.4v40.4c0 9.1 6.6 16.4 14.7 16.4s14.7-7.4 14.7-16.4v-40.4c-.1-9-6.7-16.4-14.7-16.4z" />
    </g>
</svg>