<svg xmlns:xlink="http://www.w3.org/1999/xlink" enable-background="new 1832 0 500 500"
    viewBox="1832 0 500 500" xmlns="http://www.w3.org/2000/svg">
    <linearGradient id="a">
        <stop offset=".33" stop-color="#f3f5f7" />
        <stop offset=".78" stop-color="#8099b9" />
    </linearGradient>
    <linearGradient gradientTransform="matrix(1.8958 0 0 -1.8958 -1641.0707 947.9451)"
        gradientUnits="userSpaceOnUse" id="b" x1="2037.5372" x2="2022.5079" y1="427.5184"
        y2="432.5236" xlink:href="#a" />
    <linearGradient gradientTransform="matrix(1.8958 .0093 .0093 -1.8958 -1640.922 923.2833)"
        gradientUnits="userSpaceOnUse" id="c" x1="2048.8311" x2="2031.5302" y1="421.6908"
        y2="422.4877">
        <stop offset=".33" stop-color="#f3f5f7" />
        <stop offset=".37" stop-color="#e4e9ef" />
        <stop offset=".48" stop-color="#c0ccdc" />
        <stop offset=".59" stop-color="#a4b6cc" />
        <stop offset=".7" stop-color="#90a6c2" />
        <stop offset=".81" stop-color="#849cbb" />
        <stop offset=".91" stop-color="#8099b9" />
    </linearGradient>
    <linearGradient gradientTransform="matrix(1.8958 0 0 -1.8958 -1641.0707 947.9451)"
        gradientUnits="userSpaceOnUse" id="d" x1="2024.4828" x2="2060.845" y1="312.6386"
        y2="292.1522">
        <stop offset=".12" stop-color="#1797e5" />
        <stop offset=".14" stop-color="#1693e1" />
        <stop offset=".33" stop-color="#0a6fba" />
        <stop offset=".48" stop-color="#0358a2" />
        <stop offset=".57" stop-color="#005099" />
        <stop offset=".71" stop-color="#0663ad" />
        <stop offset=".99" stop-color="#1694e2" />
        <stop offset="1" stop-color="#1797e5" />
    </linearGradient>
    <linearGradient gradientTransform="matrix(1.8958 0 0 -1.8958 -1641.0707 947.9451)"
        gradientUnits="userSpaceOnUse" id="e" x1="1910.8047" x2="2039.2893" y1="398.8889"
        y2="279.4413">
        <stop offset=".13" stop-color="#1797e5" />
        <stop offset=".26" stop-color="#1693e1" />
        <stop offset=".4" stop-color="#1287d4" />
        <stop offset=".54" stop-color="#0b73be" />
        <stop offset=".69" stop-color="#0257a0" />
        <stop offset=".72" stop-color="#005099" />
    </linearGradient>
    <linearGradient gradientTransform="matrix(1.8958 0 0 -1.8958 -1641.0707 947.9451)"
        gradientUnits="userSpaceOnUse" id="f" x1="1972.9973" x2="1931.303" y1="307.0501"
        y2="394.2645" xlink:href="#a" />
    <linearGradient id="g">
        <stop offset=".17" stop-color="#f7ae2d" />
        <stop offset=".86" stop-color="#b04211" />
    </linearGradient>
    <linearGradient gradientTransform="matrix(1.8958 0 0 -1.8958 -1641.0707 947.9451)"
        gradientUnits="userSpaceOnUse" id="h" x1="1987.3254" x2="1949.2388" y1="361.8854"
        y2="370.2008" xlink:href="#g" />
    <linearGradient gradientTransform="matrix(1.8958 0 0 -1.8958 -1641.0707 947.9451)"
        gradientUnits="userSpaceOnUse" id="i" x1="1895.4436" x2="1923.855" y1="376.3356"
        y2="373.8519" xlink:href="#g" />
    <linearGradient gradientTransform="matrix(1.8958 0 0 -1.8958 -1641.0707 947.9451)"
        gradientUnits="userSpaceOnUse" id="j" x1="1905.0513" x2="1928.2256" y1="386.4724"
        y2="459.2581">
        <stop offset=".26" stop-color="#1797e5" />
        <stop offset=".4" stop-color="#1694e2" />
        <stop offset=".51" stop-color="#138bd8" />
        <stop offset=".61" stop-color="#0e7cc8" />
        <stop offset=".7" stop-color="#0767b1" />
        <stop offset=".77" stop-color="#005099" />
    </linearGradient>
    <linearGradient id="k">
        <stop offset=".26" stop-color="#1797e5" />
        <stop offset=".77" stop-color="#005099" />
    </linearGradient>
    <linearGradient gradientTransform="matrix(1.8958 0 0 -1.8958 -1641.0707 947.9451)"
        gradientUnits="userSpaceOnUse" id="l" x1="1968.9155" x2="1951.3251" y1="331.3803"
        y2="336.6669" xlink:href="#k" />
    <linearGradient gradientTransform="matrix(1.8958 0 0 -1.8958 -1641.0707 947.9451)"
        gradientUnits="userSpaceOnUse" id="m" x1="1993.3225" x2="1969.2285" y1="341.5409"
        y2="335.9292" xlink:href="#k" />
    <radialGradient cx="1946.2155" cy="514.9413"
        gradientTransform="matrix(1.8829 .2205 .1522 -1.2992 -1532.6603 604.6993)"
        gradientUnits="userSpaceOnUse" id="n" r="80.1339" xlink:href="#k" />
    <linearGradient gradientTransform="matrix(1.8958 0 0 -1.8958 -1641.0707 947.9451)"
        gradientUnits="userSpaceOnUse" id="o" x1="1878.6733" x2="1947.0308" y1="469.4897"
        y2="462.5301" xlink:href="#a" />
    <linearGradient gradientTransform="matrix(1.8958 0 0 -1.8958 -1641.0707 947.9451)"
        gradientUnits="userSpaceOnUse" id="p" x1="1913.4592" x2="1958.4362" y1="457.0481"
        y2="457.0481" xlink:href="#a" />
    <linearGradient gradientTransform="matrix(1.8958 0 0 -1.8958 -1641.0707 947.9451)"
        gradientUnits="userSpaceOnUse" id="q" x1="1938.5742" x2="1961.0647" y1="453.6743"
        y2="453.6743" xlink:href="#a" />
    <linearGradient gradientTransform="matrix(1.8958 0 0 -1.8958 -1641.0707 947.9451)"
        gradientUnits="userSpaceOnUse" id="r" x1="1979.6271" x2="1969.1628" y1="480.7093"
        y2="497.0013" xlink:href="#a" />
    <linearGradient gradientTransform="matrix(-1.6493 -.9289 .9289 -1.6493 7380.5903 3283.0732)"
        gradientUnits="userSpaceOnUse" id="s" x1="3213.522" x2="3222.5688" y1="138.0231"
        y2="124.0543" xlink:href="#a" />
    <linearGradient gradientTransform="matrix(1.3482 -1.3328 -1.3328 -1.3482 -42.7345 4305.1475)"
        gradientUnits="userSpaceOnUse" id="t" x1="2347.7104" x2="2343.8469" y1="661.657"
        y2="680.2543" xlink:href="#a" />
    <linearGradient gradientTransform="matrix(1.346 -1.327 -1.327 -1.346 -35.6664 4242.168)"
        gradientUnits="userSpaceOnUse" id="u" x1="2313.8425" x2="2305.783" y1="675.7491"
        y2="690.8201" xlink:href="#a" />
    <linearGradient gradientTransform="matrix(.9095 -1.6634 -1.6634 -.9095 931.7719 4984.1274)"
        gradientUnits="userSpaceOnUse" id="v" x1="2465.7925" x2="2471.7075" y1="677.7228"
        y2="668.5848" xlink:href="#a" />
    <linearGradient gradientTransform="matrix(1.0931 -1.5489 -1.5489 -1.0931 523.3365 4738.4893)"
        gradientUnits="userSpaceOnUse" id="w" x1="2385.8379" x2="2391.7549" y1="714.4891"
        y2="705.351" xlink:href="#a" />
    <linearGradient gradientTransform="matrix(-.6256 1.782 -1.782 -.6256 4444.9736 -2878.7075)"
        gradientUnits="userSpaceOnUse" id="x" x1="1955.0605" x2="1961.4532" y1="678.7786"
        y2="668.9051" xlink:href="#a" />
    <linearGradient gradientTransform="matrix(-.6256 1.782 -1.782 -.6256 4444.9736 -2878.7075)"
        gradientUnits="userSpaceOnUse" id="y" x1="1950.0454" x2="1956.7889" y1="668.0618"
        y2="657.6452" xlink:href="#a" />
    <linearGradient gradientTransform="matrix(-.6256 1.782 -1.782 -.6256 4444.9736 -2878.7075)"
        gradientUnits="userSpaceOnUse" id="z" x1="1945.3845" x2="1951.458" y1="654.9185"
        y2="645.5386" xlink:href="#a" />
    <linearGradient gradientTransform="matrix(1.0931 -1.5489 -1.5489 -1.0931 523.3365 4738.4893)"
        gradientUnits="userSpaceOnUse" id="A" x1="2376.1084" x2="2382.085" y1="722.8102"
        y2="713.5789" xlink:href="#a" />
    <radialGradient cx="1896.0184" cy="747.7495"
        gradientTransform="matrix(1.8958 0 0 -1.1943 -1641.0707 1236.7484)"
        gradientUnits="userSpaceOnUse" id="B" r="74.6131">
        <stop offset=".17" stop-color="#3fc0e5" />
        <stop offset=".62" stop-color="#20a1e6" />
    </radialGradient>
    <linearGradient gradientTransform="matrix(1.8958 0 0 -1.8958 -1641.0707 947.9451)"
        gradientUnits="userSpaceOnUse" id="C" x1="2003.6117" x2="1992.9532" y1="350.5312"
        y2="355.9586" xlink:href="#k" />
    <linearGradient gradientTransform="matrix(1.8958 0 0 -1.8958 -1641.0707 947.9451)"
        gradientUnits="userSpaceOnUse" id="D" x1="2036.6371" x2="2023.0548" y1="340.7874"
        y2="347.7014" xlink:href="#k" />
    <linearGradient gradientTransform="matrix(1.8958 0 0 -1.8958 -1641.0707 947.9451)"
        gradientUnits="userSpaceOnUse" id="E" x1="1948.7715" x2="1917.3491" y1="336.5576"
        y2="349.7454" xlink:href="#k" />
    <linearGradient gradientTransform="matrix(1.8958 0 0 -1.8958 -1641.0707 947.9451)"
        gradientUnits="userSpaceOnUse" id="F" x1="1959.6586" x2="1925.0527" y1="339.3782"
        y2="352.1914" xlink:href="#k" />
    <linearGradient gradientTransform="matrix(1.8958 0 0 -1.8958 -1641.0707 947.9451)"
        gradientUnits="userSpaceOnUse" id="G" x1="1966.1844" x2="1982.1276" y1="413.3324"
        y2="402.4618" xlink:href="#k" />
    <path
        d="m2173.681 124.119s7.816-7.816 11.371-15.633c0 0-8.531-9.951 0-19.898 0 0 2.131-12.777-7.11-19.898 0 0 16.347-12.777 34.824 9.237 0 0 5.682-4.261 10.657 2.845 0 0 54.719 14.212 36.955 112.992z"
        fill="#1797e5" />
    <path
        d="m2261.665 197.201-90.787-72.93 1.477-1.478c.082-.082 6.967-7.019 10.516-14.093-.803-1.159-2.058-3.251-2.821-5.919-1.071-3.749-1.357-9.35 3.211-14.974.239-2.254.805-12.031-6.464-17.633l-1.913-1.474 1.903-1.487c.185-.145 4.618-3.553 11.508-4.03 4.032-.279 8.074.498 12.017 2.31 4.458 2.048 8.789 5.431 12.889 10.067 1.169-.508 2.904-.991 4.902-.672 2.433.388 4.604 1.823 6.463 4.269 1.278.41 4.266 1.502 8.086 3.766 4.581 2.715 11.323 7.73 17.431 16.206 6.821 9.465 11.485 21.236 13.862 34.987 2.948 17.052 2.369 37.232-1.722 59.979zm-85.222-73.267 82.633 66.379c3.501-20.94 3.911-39.542 1.215-55.334-2.249-13.168-6.65-24.415-13.083-33.427-3.147-4.41-8.523-10.64-16.258-15.279-4.636-2.78-7.968-3.679-8.001-3.688l-.663-.175-.397-.563c-1.326-1.894-2.785-2.988-4.335-3.25-2.013-.339-3.659.828-3.676.839l-1.419 1.065-1.127-1.369c-3.996-4.761-8.188-8.184-12.459-10.175-3.344-1.558-6.752-2.247-10.128-2.046-3.308.196-5.969 1.219-7.653 2.067 7.715 7.833 5.898 19.392 5.811 19.918l-.086.515-.34.397c-7.354 8.575-.3 17.103.004 17.462l.767.906-.488 1.085c-2.751 6.046-7.831 11.97-10.317 14.673z"
        fill="#122a44" />
    <path
        d="m2203.883 113.105s6.388 2.131 9.947-1.42c0 0 12.555 23.923 3.435 47.492l-28.304-19.068c-.001 0 14.922-7.11 14.922-27.004z"
        fill="url(#b)" />
    <path
        d="m2217.264 159.739c-.111 0-.22-.033-.314-.096l-28.304-19.068c-.167-.113-.261-.307-.247-.508s.136-.379.319-.466c.036-.017 3.702-1.799 7.314-5.943 3.325-3.814 7.288-10.476 7.288-20.553 0-.181.087-.35.234-.456.146-.106.334-.134.506-.077.016.005 1.569.514 3.514.594 2.532.105 4.504-.528 5.859-1.879.127-.126.305-.185.482-.158s.33.136.413.295c.032.06 3.197 6.149 5.188 15.046 1.841 8.221 3.035 20.604-1.727 32.91-.062.16-.193.282-.356.334-.055.016-.112.025-.169.025zm-27.221-19.578 26.946 18.153c4.363-11.814 3.204-23.653 1.436-31.566-1.587-7.102-3.928-12.379-4.775-14.153-1.54 1.219-3.648 1.803-6.154 1.694-1.275-.055-2.376-.275-3.059-.444-.189 10.04-4.208 16.725-7.594 20.594-2.743 3.136-5.466 4.944-6.8 5.722z"
        fill="#122a44" />
    <path
        d="m2218.974 108.058s6.388.03 9.973-4.927c0 0 30.439 24.077 15.603 78.367l-20.86-20.83s12.202-24.813-4.716-52.61z"
        fill="url(#c)" />
    <path
        d="m2244.551 182.06c-.147 0-.291-.058-.397-.164l-20.86-20.83c-.17-.17-.213-.43-.107-.646.03-.062 3.028-6.258 3.936-15.736.533-5.559.253-11.145-.831-16.601-1.355-6.82-3.978-13.459-7.797-19.733-.106-.174-.109-.392-.009-.569s.287-.286.49-.286h.003c.093 0 6.157-.051 9.515-4.694.09-.124.226-.206.378-.227s.306.021.426.116c.08.063 1.977 1.576 4.605 4.689 2.415 2.861 5.924 7.672 8.924 14.347 3.368 7.494 5.423 15.764 6.107 24.581.853 11.004-.438 22.894-3.839 35.34-.053.193-.204.344-.398.395-.05.012-.098.018-.146.018zm-20.185-21.511 19.894 19.865c3.174-11.963 4.369-23.387 3.554-33.973-.668-8.68-2.683-16.82-5.987-24.193-4.848-10.817-11.104-16.812-12.793-18.304-2.91 3.606-7.198 4.432-9.101 4.621 3.634 6.161 6.145 12.66 7.467 19.331 1.104 5.57 1.385 11.272.836 16.945-.818 8.461-3.202 14.227-3.87 15.708z"
        fill="#122a44" />
    <path
        d="m1900.648 168.094s-43.911 16.429-37.515 39.882c0 0 1.353 7.719 15.246 5.637-.001 0 30.611-43.475 22.269-45.519z"
        fill="#1797e5" />
    <path
        d="m1873.91 216.034c-4.061 0-7.297-.954-9.656-2.852-2.372-1.909-2.997-4.135-3.127-4.725-1.598-5.929-.436-11.9 3.453-17.748 2.992-4.499 7.614-8.928 13.74-13.164 10.271-7.103 21.148-11.21 21.606-11.382l.596-.223.618.151c1.27.311 2.224 1.162 2.687 2.396.849 2.265.048 5.829-2.598 11.556-1.872 4.052-4.671 9.144-8.321 15.135-6.18 10.144-12.776 19.528-12.842 19.622l-.508.721-.872.131c-1.701.255-3.294.382-4.776.382zm-8.748-8.427c.113.459 1.583 5.383 12.042 4.087 1.675-2.413 7.183-10.434 12.349-18.937 3.591-5.91 6.312-10.884 8.087-14.784 2.001-4.395 2.372-6.493 2.392-7.413-7.139 2.943-40.14 17.699-34.91 36.874z"
        fill="#122a44" />
    <path
        d="m1884.256 327.372s-18.489 21.995-2.206 45.981c1.028 1.527 2.946 2.183 4.694 1.605 5.37-1.796 17.046-7.892 27.557-28.41zm29.112 59.239c-1.503 7.659-3.22 25.027 9.609 35.042.817.642 1.907.819 2.886.47 3.532-1.259 12.224-5.693 19.751-20.199.78-1.492.202-3.333-1.289-4.113-.014-.007-.027-.014-.041-.021l-26.576-13.288c-1.501-.752-3.328-.145-4.08 1.356-.119.239-.206.492-.26.753z"
        fill="#1797e5" />
    <path
        d="m1924.837 424.471c-1.143 0-2.267-.38-3.199-1.112-6.017-4.697-9.714-11.355-10.984-19.787-1.013-6.73-.24-13.165.587-17.378l.003-.017c.091-.447.241-.88.446-1.288 1.287-2.568 4.422-3.61 6.99-2.323l26.658 13.331c1.226.64 2.135 1.728 2.552 3.057s.291 2.741-.354 3.976c-3.386 6.526-7.383 11.81-11.876 15.701-3.735 3.234-6.993 4.795-9.069 5.535-.574.204-1.166.305-1.754.305zm-9.344-37.431c-.76 3.877-1.472 9.776-.552 15.886 1.099 7.297 4.251 13.023 9.369 17.019.238.187.544.237.823.137 3.18-1.133 11.349-5.267 18.556-19.155.15-.287.104-.546.063-.676s-.151-.37-.432-.516l-26.582-13.291c-.432-.217-.957-.042-1.172.388-.032.064-.057.135-.073.208zm-30.025-9.71c-2.05 0-4.031-1.005-5.216-2.767-8.888-13.092-7.776-25.623-5.279-33.828 2.685-8.82 7.423-14.521 7.623-14.759l1.223-1.456 33.309 21.26-.899 1.755c-10.674 20.837-22.625 27.412-28.798 29.477-.645.216-1.308.318-1.963.318zm-.678-47.045c-1.474 2.128-4.063 6.36-5.715 11.864-3.171 10.565-1.567 20.654 4.768 29.986.488.724 1.398 1.035 2.219.764 2.515-.841 6.488-2.698 11.1-6.754 5.25-4.617 10.052-10.95 14.293-18.842z"
        fill="#122a44" />
    <path
        d="m2204.946 114.172s-.53 17.854-11.274 22.784l5.806.609s6.899-8.47 6.899-22.683zm15.637-4.976s13.502 21.318 5.686 42.637l4.261 2.134s9.241-21.318-7.106-45.47z"
        fill="#7da4b7" />
    <path
        d="m1878.946 240.809s-35.358 34.618-19.165 54.26c0 0 4.603 6.791 17.121-1.187-.016 0 10.988-54.723 2.044-53.073z"
        fill="#1797e5" />
    <path
        d="m1866.114 299.938c-1.045 0-2.048-.124-3.008-.371-3.103-.8-4.661-2.659-5.041-3.171-4.08-4.981-5.513-11.192-4.257-18.46.965-5.587 3.534-11.81 7.635-18.496 6.876-11.209 15.617-19.819 15.986-20.18l.473-.463.651-.12c1.36-.251 2.646.154 3.623 1.14 1.936 1.955 3.808 6.972 1.072 28.596-1.292 10.215-3.148 20.321-4.023 24.872l.917 1.103-2.075 1.322c-4.414 2.813-8.42 4.227-11.953 4.228zm-4.546-6.098c.309.393 3.838 4.454 13.385-1.3.872-4.528 2.748-14.73 4.032-24.977.854-6.815 1.291-12.415 1.297-16.645.007-4.634-.504-6.651-.861-7.494-5.588 5.837-31.212 34.2-17.967 50.266z"
        fill="#122a44" />
    <path d="m1962.844 445.392s5.006 17.925 17.392 23.562c0 0 20.101 4.292 7.677-31.641z"
        fill="#122a44" />
    <path
        d="m1892.268 179.548s-25.584 10.661-22.743 29.849c0 0-4.972-.71-2.841-9.237 0 0 1.421-12.082 24.163-23.453l5.686-2.841-3.555 5.682zm-17.768 72.486s-24.87 27.004-10.657 41.216c0 0-.71-27.004 14.923-36.951zm13.502 81.722s-9.947 17.767-.71 34.824c0 0 4.265-1.424 4.975-2.845 0 0-.71 3.555-6.388 5.686 0 0-14.923-14.923-.71-39.082zm30.56 61.829s.71 15.633 7.816 20.608c0 0 .71 0 2.131-.71 0 0-.71 2.131-3.551 2.841 0 0-10.661-7.816-8.53-22.739z"
        fill="#5dc5f9" />
    <path
        d="m2263.93 315.283s34.821-64.669-4.972-119.388l-11.371-21.318s-1.42-3.555-4.975-2.845c0 0-9.947-17.053-22.029-19.898 0 0-9.241-14.212-26.305-14.923 0 0-4.265-19.917-27.004-16.343 0 0-4.976-19.898-25.584-11.371 0 0-3.551-10.661-16.343-7.106 0 0-.71-19.188-49.747-4.265 0 0-147.103-20.608-176.245 68.221 0 0-1.327 3.322 2.431 4.186.124.025.205.145.18.27-.008.039-.026.076-.052.106-4.906 5.673-7.803 12.806-8.245 20.293 0 0-24.873 17.057-12.777 44.771 0 0-8.527 19.917 1.42 33.4 0 0-14.212 18.478 1.424 36.241 0 0-9.951 20.608 11.368 31.98 0 0-8.527 21.318 10.661 28.425 0 0-.71 25.584 22.739 32.694 0 0 .71 14.212 15.636 16.347 0 0-7.106 19.917 18.474 27.004 0 0 12.082 24.159 29.849 12.078 0 0 11.368 15.637 37.661 12.082 0 0 16.347 14.212 42.641 7.106 0 0 17.763 8.53 40.506-4.261 0 0 13.502 6.388 25.584-4.265 0 0 20.608.71 27.715-7.106 0 0 12.082 4.265 22.029-2.845 0 0 22.739-4.972 29.135 4.975 0 0 8.53 16.347-7.816 34.11 0 0 39.796 8.53 42.641-41.216 0 0 2.131-27.004-29.849-34.11z"
        fill="url(#d)" />
    <path
        d="m2216.478 496.082c-3.98 0-6.687-.557-6.953-.614l-3.208-.688 2.222-2.414c6.389-6.943 9.601-14.422 9.545-22.231-.038-5.414-1.72-9.136-1.98-9.68-2.874-4.343-9.883-5.267-15.275-5.274-.021 0-.043 0-.063 0-5.287 0-10.088.867-11.409 1.127-4.826 3.325-10.029 4.244-14.302 4.244-3.531 0-6.427-.627-7.954-1.041-7.392 6.738-23.82 6.928-27.567 6.878-6.551 5.491-13.427 6.363-18.102 6.11-3.721-.202-6.632-1.125-8.04-1.658-11.827 6.431-22.287 7.215-29.038 6.721-6.01-.44-10.184-1.923-11.736-2.558-13.758 3.563-24.794 1.381-31.669-1.104-5.97-2.158-9.879-4.873-11.374-6.02-13.674 1.668-23.332-1.797-29.063-5.037-4.242-2.398-7.003-5.008-8.422-6.549-4.559 2.688-9.172 3.449-13.737 2.259-9.362-2.44-15.444-12.368-17.018-15.21-8.655-2.547-14.599-6.838-17.676-12.764-2.958-5.698-2.44-11.38-1.837-14.35-7.133-1.644-10.855-6.023-12.75-9.564-1.46-2.729-2.052-5.334-2.288-6.841-9.56-3.252-16.529-10.064-20.196-19.766-2.13-5.635-2.587-10.731-2.678-13.063-5.132-2.173-8.75-5.567-10.763-10.101-3.231-7.278-1.358-15.382-.323-18.733-10.625-6.249-13.104-14.844-13.272-21.074-.139-5.154 1.241-9.464 2.008-11.439-7.83-9.485-7.736-19.081-6.225-25.545 1.217-5.207 3.49-9.178 4.696-11.031-3.782-5.786-5.17-13.359-4.018-22.005.718-5.39 2.207-9.688 2.85-11.372-6.132-14.715-2.173-26.466 2.279-33.778 3.944-6.476 8.861-10.595 10.718-12.015.574-6.812 3.118-13.394 7.257-18.825-.677-.493-1.092-1.058-1.345-1.541-.94-1.794-.346-3.68-.186-4.115 6.798-20.689 20.473-37.216 40.648-49.125 16.037-9.466 36.189-16.036 59.898-19.527 11.602-1.708 30.407-3.555 54.098-2.65 12.497.477 21.251 1.54 23.213 1.794 12.398-3.747 22.833-5.645 31.028-5.645.154 0 .308.001.461.002 6.629.058 11.8 1.378 15.369 3.921 2.642 1.883 3.865 4.066 4.432 5.649 6.338-1.207 10.442.939 12.83 3.071 1.484 1.325 2.474 2.792 3.086 3.906 6.209-2.218 11.687-2.165 16.306.162 5.845 2.945 8.585 8.704 9.62 11.519 11.621-1.339 18.436 3.373 22.146 7.676 2.933 3.401 4.381 7.02 5 8.949 6.9.578 13.544 3.351 19.296 8.065 3.558 2.916 5.812 5.775 6.704 7.002 10.76 2.993 19.503 15.799 21.882 19.571 3.127.033 5.026 2.477 5.68 4.012l11.268 21.124c9.205 12.691 15.199 26.962 17.819 42.422 2.097 12.375 2.045 25.526-.154 39.088-3.63 22.385-11.784 38.156-12.584 39.666l-40.378 100.921c6.65 1.739 12.294 4.49 16.801 8.193 4.026 3.308 7.147 7.367 9.279 12.066 3.557 7.842 3.134 14.76 3.095 15.289-.975 16.983-6.275 29.259-15.756 36.484-7.66 5.841-16.316 7.056-22.195 7.056zm-2.87-3.876c4.974.351 14.679.044 22.825-6.183 8.553-6.538 13.349-17.88 14.254-33.71l.003-.04c.004-.06.44-6.492-2.84-13.621-1.906-4.141-4.685-7.719-8.261-10.637-4.51-3.68-10.326-6.329-17.286-7.876l-2.153-.478.819-2.048 41.26-103.125.05-.093c.086-.16 8.635-16.247 12.256-38.707 2.118-13.138 2.161-25.86.126-37.813-2.536-14.899-8.329-28.652-17.22-40.878l-.076-.105-.062-.115-11.429-21.426-.029-.079c-.143-.336-.983-2.078-2.868-1.702l-1.312.262-.674-1.156c-.095-.163-9.691-16.393-20.839-19.018l-.732-.172-.41-.63c-.021-.031-2.267-3.428-6.468-6.847-5.551-4.518-11.723-6.949-18.344-7.225l-1.451-.06-.304-1.42c-.009-.042-1.058-4.677-4.657-8.79-4.733-5.408-11.537-7.459-20.223-6.093l-1.694.266-.416-1.663c-.018-.072-1.999-7.595-8.212-10.708-4.008-2.008-9-1.802-14.837.614l-1.859.769-.636-1.909c-.005-.014-.819-2.325-2.955-4.177-2.783-2.413-6.521-2.991-11.108-1.716l-2.359.656-.016-2.38c-.021-.247-.315-2.837-3.488-5.026-2.971-2.05-7.445-3.102-13.298-3.128-7.936-.033-18.214 1.849-30.542 5.6l-.396.12-.41-.057c-.366-.051-37.042-5.05-76.74.809-23.209 3.425-42.89 9.837-58.494 19.056-19.361 11.438-32.473 27.279-38.97 47.084l-.037.103c-.077.227-.172.758-.001 1.074.184.337.759.517 1.095.596 1.114.245 1.835 1.341 1.612 2.465-.072.362-.239.7-.482.977-4.6 5.32-7.367 12.131-7.782 19.166l-.054.916-.757.519c-.058.04-6.023 4.202-10.453 11.536-5.844 9.674-6.404 20.083-1.666 30.94l.324.743-.319.745c-.08.188-7.975 19.106 1.206 31.55l.838 1.136-.861 1.119c-.032.042-3.379 4.476-4.843 10.874-1.922 8.404.159 16.137 6.188 22.986l.822.934-.541 1.12c-.022.045-2.32 4.928-2.121 10.994.261 7.937 4.528 14.167 12.683 18.517l1.482.79-.624 1.559c-.037.093-3.737 9.609-.263 17.406 1.743 3.912 5.052 6.794 9.834 8.565l1.26.467-.037 1.343c-.001.059-.124 6.216 2.501 13.085 3.45 9.028 9.811 15.005 18.908 17.763l1.262.383.066 1.317c.029.512.864 12.702 14.03 14.585l2.271.325-.771 2.161c-.022.063-2.351 6.908 1.102 13.51 2.677 5.118 8.096 8.839 16.107 11.058l.803.223.373.745c.058.115 5.945 11.651 15.019 14.008 3.945 1.024 8.016.135 12.1-2.641l1.502-1.021 1.068 1.469c.024.033 2.781 3.723 8.552 6.943 5.319 2.967 14.38 6.136 27.343 4.384l.841-.114.64.557c.037.032 4.018 3.424 11.03 5.928 6.444 2.301 16.861 4.305 29.892.783l.672-.182.628.302c.039.018 4.335 2.024 11.234 2.499 6.349.437 16.28-.371 27.542-6.705l.844-.475.876.414c.027.013 3.21 1.476 7.706 1.693 5.921.282 11.247-1.623 15.836-5.669l.559-.493.745.026c.05.002 5.111.162 10.935-.614 7.431-.99 12.731-3.023 15.329-5.88l.837-.921 1.173.414c.109.038 11.311 3.834 20.315-2.602l.313-.224.376-.082c.98-.214 24.092-5.125 31.112 5.793l.085.147c.095.183 2.34 4.558 2.434 11.234.082 5.519-1.353 13.663-8.218 22.309z"
        fill="#122a44" />
    <ellipse cx="2089.823" cy="292.54" fill="url(#e)" rx="166.29" ry="163.445" />
    <path
        d="m2122.573 192.697 11.311 13.153s8.527-29.845-11.371 87.408l-11.371 33.4-141.77-13.153s-19.188-3.555-16.711-25.14z"
        fill="url(#f)" />
    <path
        d="m2111.143 327.97c-.041 0-.081-.002-.122-.006l-141.77-13.152c-.04-.004-.079-.009-.118-.016-.209-.039-5.174-.992-9.865-4.741-4.353-3.479-9.259-10.093-7.911-21.839.048-.418.293-.787.66-.994l169.913-95.668c.545-.307 1.23-.187 1.638.288l9.805 11.401c.4-1.038 1.05-2.354 2.32-2.066 1.409.32 1.416 2.027 1.26 4.802-.157 2.794-.635 7.25-1.422 13.243-1.984 15.115-5.928 40.098-11.725 74.256-.012.069-.029.137-.052.203l-11.371 33.4c-.182.535-.684.889-1.24.889zm-141.581-15.765 140.671 13.05 11.004-32.322c5.414-31.908 9.216-55.832 11.298-71.107 1.021-7.488 1.502-12 1.712-14.717-.027.008-.054.015-.082.021-.472.103-.961-.06-1.276-.426l-10.61-12.337-168.386 94.808c-.774 8.112 1.556 14.423 6.932 18.765 3.942 3.183 8.225 4.158 8.737 4.265z"
        fill="#122a44" />
    <path
        d="m1962.619 212.238 7.106-44.057 153.498 19.898-6.396 45.482-11.368 73.906-153.498-19.188z"
        fill="#c91111" />
    <path
        d="m2107.035 309.552-157.194-19.65 10.927-77.963 7.396-45.851 157.179 20.375-6.663 47.382zm-152.953-22.897 149.803 18.726 11.089-72.094 6.13-43.593-149.817-19.421-6.814 42.245z"
        fill="#122a44" />
    <path
        d="m1961.198 247.062-2.131 13.502 46.902 5.682 71.062 15.637v-7.816l34.603 6.798 1.642-14.618z"
        fill="#750606" />
    <path
        d="m2097.561 195.169-103.672-14.908c-5.22 14.908-19.898 16.343-19.898 16.343l-11.338 70.137c16.399 4.472 17.042 20.826 17.042 20.826l104.469 14.212c5.22-16.403 19.165-13.502 19.165-13.502l10.661-72.486c-19.386-6.71-16.429-20.622-16.429-20.622zm3.622 90.265s-14.212-2.131-19.188 13.502l-99.479-13.502s-.699-15.648-16.343-19.898l9.256-53.298 2.135-12.777s14.212-2.131 19.184-16.343l98.081 14.212s-2.871 14.209 15.603 20.597z"
        fill="#3d0000" />
    <path d="m2072.06 229.295 46.902 7.816 24.16 34.821-21.319 12.082-6.396-14.212-46.192-8.527z"
        fill="url(#h)" />
    <path
        d="m2120.938 286.658-6.837-15.192-46.904-8.658 3.175-35.695 49.678 8.279 25.781 37.158zm-49.705-26.917 45.48 8.395 5.955 13.233 17.743-10.055-22.538-32.484-44.125-7.354z"
        fill="#4f1a00" />
    <path
        d="m1955.16 214.725 51.164 6.388-4.964 31.987-47.612-5.686-1.424 7.106c-.002.001-.719-32.688 2.836-39.795z"
        fill="url(#i)" />
    <path
        d="m1952.323 255.833c-.038 0-.077-.002-.116-.005-.666-.059-1.182-.609-1.196-1.278-.03-1.348-.683-33.099 2.975-40.412.249-.497.783-.785 1.336-.715l51.164 6.388c.352.044.671.229.885.512s.303.641.249.991l-4.964 31.987c-.108.698-.75 1.184-1.452 1.102l-46.409-5.542-1.186 5.918c-.124.618-.666 1.054-1.286 1.054zm1.422-9.73c.052 0 .104.003.157.009l46.355 5.536 4.563-29.4-48.838-6.098c-1.857 5.198-2.356 19.556-2.407 29.964.056-.007.113-.011.17-.011z"
        fill="#4f1a00" />
    <path d="m2002.415 205.132-7.816 60.404 75.327 10.661 8.531-61.115z" fill="#f7ae2d" />
    <path
        d="m2071.522 278.316-79.02-11.184 8.295-64.102 79.776 10.44zm-74.827-14.376 71.634 10.138 8.01-57.382-72.305-9.462z"
        fill="#4f1a00" />
    <path
        d="m2073.48 225.74-2.131 14.216-24.873 27.004-2.845-10.308zm-36.955-12.792-36.684 38.909-1.274 10.661 1.717.177 47.612-48.323zm14.927 2.134-49.037 48.323 5.686-3.551 45.482-44.771h-2.131z"
        fill="#fff" opacity=".63" />
    <path
        d="m2032.974 240.666-7.816 15.633 18.038 1.751-3.13-16.674s5.686-.71 6.388-7.106c0 0 1.421-9.241-7.816-10.661 0 0-7.816-.71-9.951 7.106.022-.011-1.399 7.106 4.287 9.951z"
        fill="#4f1a00" />
    <path
        d="m2040.065 222.189s9.237 1.421 9.237 10.657c0 0 .71 7.82-5.686 10.661l1.439 19.891h2.841l-2.841-18.478s7.94-4.276 5.133-14.528c-.563-2.114-1.767-4.002-3.446-5.404-1.902-1.568-4.224-2.542-6.677-2.799z"
        fill="#4f1a00" />
    <path
        d="m2038.66 222.899s8.545 1.417 8.545 10.661c0 0 0 5.682-6.388 8.527l2.841 22.029h2.845l-3.555-21.318s4.633-1.815 5.468-7.843c.835-5.774-3.168-11.132-8.942-11.967-.089-.013-.179-.025-.269-.035z"
        fill="#fff" />
    <path
        d="m2098.354 291.12s-8.451-.966-13.822 13.731l16.663-1.65zm3.551-102.332s-5.686 18.478 14.212 24.873l3.555-22.743zm-129.335-17.057-3.555 21.322s17.767-.714 19.898-19.188zm-14.923 97.36-2.134 16.343 20.608 2.845s-2.841-15.637-18.474-19.188z"
        fill="#3d0000" />
    <path
        d="m2082.717 105.642s14.923-12.078 37.665 0l-1.402 2.845s14.212-2.131 24.159 18.478c0 0 4.265-28.428 20.608 0 0 0 21.322-2.845 24.163 12.078 0 0-3.555 7.11.71 12.082 0 0-2.841-10.657 4.265-9.947 0 0 12.078.71 20.608 12.082l2.841 2.131s9.24 1.42 21.318 18.478c3.839 5.016 7.305 10.308 10.368 15.832 1.729 3.161 3.619 6.232 5.663 9.199 6.945 10.086 22.213 35.816 16.659 60.243 0 0-2.131 38.376-10.657 49.037 0 0 12.777-22.032 14.923-49.037 0 0 2.841-34.821-19.188-62.535l-12.082-22.739-4.261-2.134s-9.241-14.923-22.769-18.474v-1.424s-7.816-12.078-24.874-12.777l-.71-2.841s-4.972-17.057-26.305-12.082c0 0-2.131-19.898-22.739-11.368 0 0-12.777-7.11-20.608-5.686 0 0 8.527-14.926-24.163-10.661 0 0-13.104 2.255-16.854 3.965z"
        fill="#5dc5f9" />
    <path
        d="m1917.141 140.665s51.149-59.901 112.278-37.154c46.38 17.256 43.351 32.694 43.351 32.694s-31.469 4.93-46.075 24.873c0 0-28.489-31.112-65.011-4.788-.001.008-.707-41.615-44.543-15.625z"
        fill="url(#j)" />
    <path
        d="m2127.489 460.961s-4.679 6.013-17.617-1.62c0 0-11.518 9.44-37.812 3.758 0 0-17.767 11.368-39.082-6.388 0 0-29.139 6.388-36.245-17.057 0 0-17.764 17.057-26.305-7.106 0 0-17.767 2.134-19.917-20.608 0 0 4.261-7.106 0-10.657 0 0-14.216 14.923-14.216-9.951 0 0-36.951-11.371-12.777-29.135 0 0-34.824 0-18.478-27.714 0 0-24.163-10.661-11.371-31.98 0 0-14.922-7.106-7.106-31.269l4.975-2.131s-13.502-15.633-2.135-30.559l.714-2.841s-11.371-31.269 7.106-34.11l7.106-.71s-6.388-17.057 6.388-28.428c0 0-5.686-27.714 47.612-56.139h-9.925s-36.951 16.347-46.192 52.588l2.845 3.551s-6.013 3.615-8.087 17.489c-.353 2.356-1.503 4.603-3.472 5.956-6.208 4.261-18.981 18.271-9.049 39.792 0 0-8.53 18.478 1.42 33.4 0 0-14.922 19.188 2.131 35.531 0 0-12.777 19.188 11.371 31.269 0 0-10.661 21.318 9.947 27.714 0 0-2.841 26.305 22.032 31.98 0 0-.71 14.212 14.923 16.343l1.421 3.555s-7.816 17.053 17.057 23.449c0 0 11.368 24.873 28.425 10.661 0 0 9.947 17.053 36.951 12.777l3.555 2.131s16.343 12.082 39.082 4.975c0 0 17.763 8.527 40.506-4.265 0 0 12.082 6.388 22.739-2.841z"
        fill="#5dc5f9" />
    <path
        d="m2034.395 360.05s-39.796-10.657-34.821-45.47c0 0-12.082-16.347-7.106-32.694 0 0 2.841-11.371 6.388-10.661 0 0 10.657-14.212 20.608-12.777 0 0-.71 7.106 2.131 8.53 0 0 12.082-17.767 23.453-16.347 0 0-4.975 13.502 0 19.898 0 0 9.237-15.633 19.188-15.633 0 0-1.424 9.237.71 13.502 0 0 11.367-3.555 11.367 32.694 0 0 8.531 2.841 12.777 10.657l-1.42 39.796z"
        fill="#1797e5" />
    <path
        d="m2034.305 361.773-.347-.093c-.419-.112-10.374-2.831-19.854-9.962-5.62-4.228-9.89-9.132-12.689-14.575-3.421-6.652-4.632-14.096-3.602-22.134-.928-1.36-3.271-5.025-5.229-10.031-3.272-8.362-3.874-16.502-1.742-23.543.099-.387.808-3.11 1.934-5.797.623-1.488 2.377-5.674 5.258-6.1 2.362-2.941 12.057-14.146 21.671-12.759l1.598.231-.161 1.607c-.189 1.928-.048 4.18.398 5.579 1.326-1.734 3.555-4.458 6.348-7.139 6.28-6.029 12.123-8.753 17.368-8.098l2.108.263-.735 1.994c-.012.032-1.205 3.308-1.789 7.272-.39 2.645-.568 6.025.348 8.731 3.186-4.601 10.718-14.008 19.046-14.008h1.967l-.3 1.944c-.335 2.185-.877 8.063.155 11.469 1.001.048 2.368.366 3.833 1.443 5.265 3.87 7.991 14.591 8.106 31.872 2.607 1.108 8.972 4.371 12.576 11.006l.22.405-1.487 41.643zm-35.78-88.894c-.263.038-1.379.932-2.79 4.432-.999 2.478-1.625 4.959-1.631 4.984l-.023.082c-4.674 15.358 6.733 31.043 6.849 31.2l.411.556-.098.685c-1.082 7.568-.023 14.543 3.147 20.732 2.551 4.981 6.475 9.493 11.663 13.411 8.025 6.061 16.663 8.832 18.446 9.363l51.534-8.226 1.354-37.937c-3.934-6.817-11.532-9.443-11.61-9.47l-1.148-.387-.003-1.213c0-21.774-4.131-28.268-6.594-30.201-1.351-1.06-2.423-.911-2.605-.875l-1.405.535-.586-1.398c-1.707-3.411-1.449-9.166-1.136-12.338-6.778 1.579-13.58 10.813-15.801 14.572l-1.261 2.135-1.522-1.957c-4.235-5.444-2.213-14.949-.969-19.276-4.566.467-9.207 4.024-12.482 7.161-4.273 4.093-7.247 8.434-7.276 8.477l-.831 1.22-1.32-.661c-2.825-1.416-3.195-5.832-3.151-8.446-4.055.155-8.228 3.006-11.157 5.535-3.727 3.217-6.3 6.628-6.325 6.662l-.638.851z"
        fill="#122a44" />
    <path
        d="m2055.123 275.179s24.051 54.316-7.226 71.37l33.4-4.987 1.421-33.4s-4.322-3.792-9.624-4.739c0 0 1.808-22.265-5.299-30.796z"
        fill="url(#l)" />
    <path
        d="m2000.284 274.066s-9.951 19.184 4.975 39.796c0 0-4.975 30.555 31.266 40.506l-9.237.722s-30.559-13.528-24.874-41.228c0 0-16.343-17.767-2.841-41.22zm172.059 177.557 16.971-4.164s17.057-4.261 30.559 2.134c0 0 17.053 10.657 2.131 41.217h-5.693s7.816-8.527 7.106-22.029c0 0 0-6.388-2.841-11.371 0 0-4.975-9.951-27.714-7.106l-5.686 1.42c-5.334 3.887-12.222 4.946-18.477 2.841z"
        fill="#5dc5f9" />
    <path
        d="m2131.758 272.642s-24.873-1.421-29.849 29.139l-14.923 2.841s-7.816 9.951-1.42 21.318c0 0-2.845 9.241.71 14.926 0 0-58.273-4.265-71.065 39.082 0 0-7.816 76.041 108.727 80.302 0 0 69.645 3.555 121.522-61.115l11.368-3.551 15.636 30.555s5.682-43.347 37.662-56.849c0 0-35.531-34.821-17.764-78.164l-35.535 21.318s-7.11-22.743-13.506-22.743c0 0-.71-4.975-4.976-6.388 0 0-4.261-8.527.714-22.739 0 0-14.216-7.106-33.4 14.923 0 0-7.106-2.845-9.24 4.975l-8.527-2.845s-2.841-9.947-9.951-9.237c0 0-2.841-2.845 4.975-27.004 0 0-20.608-2.845-34.11 19.188 0 0-7.816-2.845-9.947 4.972.001-.01-4.974.7-7.101 7.096z"
        fill="#1797e5" />
    <path
        d="m2126.044 462.165c-1.265 0-2.015-.033-2.188-.041-23.505-.861-43.744-4.726-60.154-11.489-13.747-5.665-24.959-13.414-33.324-23.03-10.136-11.652-14.229-24.003-15.877-32.311-1.793-9.034-1.182-15.275-1.156-15.536.012-.115.034-.228.067-.339 3.03-10.269 8.797-18.793 17.141-25.338 6.624-5.196 14.867-9.145 24.499-11.738 12.062-3.247 23.125-3.545 28.3-3.461-1.506-4.954-.321-10.654.206-12.713-2.549-4.917-3.062-10.322-1.479-15.681 1.242-4.205 3.344-6.91 3.432-7.023.28-.356.678-.599 1.123-.683l13.649-2.599c1.247-6.699 3.556-12.396 6.871-16.949 2.859-3.926 6.457-7.006 10.696-9.153 5.322-2.696 10.275-3.223 12.613-3.308 1.293-3.004 3.173-4.712 4.604-5.641.728-.473 1.564-.872 2.318-1.132.825-2.245 2.187-3.87 4.059-4.84 2.354-1.219 4.925-1.036 6.502-.736 7.168-11.034 16.106-15.608 22.44-17.5 7.148-2.135 12.558-1.424 12.784-1.393.549.076 1.037.391 1.332.861s.366 1.046.196 1.573c-5.286 16.338-5.546 22.5-5.355 24.542 2.995.23 5.667 2.002 7.797 5.198 1.125 1.688 1.849 3.407 2.228 4.442l5.899 1.968c.863-1.935 2.142-3.333 3.817-4.166 2.208-1.099 4.537-.882 5.948-.574 7.997-8.926 16.139-14.122 24.215-15.447 6.477-1.063 10.48.889 10.648.972.844.422 1.243 1.405.931 2.296-2.416 6.901-2.504 12.324-2.153 15.658.258 2.445.782 4.155 1.097 5.009 3.19 1.442 4.544 4.453 5.082 6.216 3.023.989 6.025 4.942 9.325 12.222 1.624 3.583 2.924 7.127 3.688 9.335l33.53-20.116c.692-.415 1.573-.34 2.186.185.613.526.819 1.386.513 2.133-3.938 9.606-5.481 19.572-4.587 29.622.717 8.061 2.994 16.204 6.767 24.204 6.444 13.661 15.075 22.205 15.161 22.289.448.439.646 1.073.53 1.689-.117.616-.535 1.133-1.112 1.377-7.02 2.964-13.302 7.695-18.672 14.061-4.332 5.135-8.087 11.341-11.16 18.445-5.253 12.144-6.686 22.755-6.7 22.861-.107.814-.73 1.463-1.539 1.603-.809.139-1.615-.263-1.988-.993l-14.917-29.149-9.316 2.91c-11.881 14.716-25.664 27.094-40.973 36.796-12.375 7.842-25.767 13.962-39.805 18.188-19.305 5.811-34.289 6.424-39.739 6.424zm-108.982-81.866c-.077 1.005-.41 6.674 1.151 14.433 1.576 7.836 5.467 19.484 15.049 30.474 7.984 9.157 18.726 16.554 31.925 21.985 15.991 6.58 35.781 10.344 58.819 11.186.009 0 .018.001.027.001.171.008 17.482.779 40.825-6.275 13.689-4.137 26.748-10.117 38.814-17.775 15.078-9.569 28.646-21.804 40.326-36.365.233-.291.548-.505.903-.616l11.367-3.551c.871-.273 1.812.123 2.227.935l13.137 25.67c.986-4.429 2.803-11.093 5.95-18.366 3.219-7.44 7.167-13.958 11.735-19.373 5.132-6.084 11.06-10.782 17.651-13.994-3.01-3.365-9.118-10.882-14.082-21.405-3.962-8.4-6.355-16.97-7.111-25.471-.792-8.9.218-17.733 3.002-26.328l-30.986 18.589c-.493.296-1.094.349-1.631.144-.537-.204-.951-.644-1.122-1.192-.018-.056-1.782-5.668-4.285-11.185-4.517-9.955-7.146-10.243-7.431-10.243-.933 0-1.724-.686-1.855-1.609-.004-.029-.626-3.853-3.709-4.874-.473-.157-.864-.495-1.087-.941-.181-.362-4.201-8.672.026-22.387-1.464-.348-3.926-.662-7.14-.088-9.176 1.639-17.29 9.09-22.482 15.052-.524.601-1.371.805-2.11.509-.013-.005-2.333-.881-4.227.076-1.164.588-2.009 1.818-2.51 3.653-.136.497-.47.916-.924 1.159-.455.243-.989.288-1.477.125l-8.527-2.845c-.587-.196-1.039-.668-1.209-1.263-.024-.081-2.499-8.439-7.963-7.887-.559.055-1.115-.143-1.512-.541-2.24-2.243-.896-11.643 3.775-26.57-2.048.014-5.314.268-9.098 1.42-8.546 2.602-15.573 8.317-20.887 16.988-.466.76-1.402 1.087-2.239.782-.02-.007-2.838-.98-5.013.16-1.192.625-2.005 1.784-2.484 3.543-.169.618-.641 1.107-1.253 1.297-.107.033-.215.056-.324.07-.337.062-3.893.832-5.554 5.826-.267.802-1.037 1.328-1.881 1.28-.059-.002-5.936-.268-12.261 2.988-3.672 1.89-6.792 4.592-9.275 8.031-3.141 4.351-5.281 9.92-6.361 16.55-.127.777-.726 1.393-1.5 1.54l-14.177 2.699c-.583.886-1.711 2.805-2.446 5.358-1.335 4.638-.809 9.127 1.562 13.342.252.448.309.98.158 1.471-.025.082-2.543 8.501.508 13.381.374.599.38 1.357.016 1.961-.364.605-1.037.954-1.742.902-.142-.01-14.523-.989-30.208 3.252-9.122 2.467-16.895 6.193-23.106 11.075-7.647 6.012-12.95 13.829-15.764 23.237zm120.594-113.315c.57.478 1.198.451 1.406.427-.501.055-1.011-.097-1.406-.427z"
        fill="#122a44" />
    <path
        d="m2127.489 319.544-31.27-6.388 10.778-2.687c.768-.089 1.404-.639 1.601-1.387 1.409-5.423 8.185-27.023 27.433-30.747l-2.131-2.131s-21.319-.71-28.425 29.135l-16.347 3.555v12.074l34.11 8.527z"
        fill="url(#m)" />
    <path
        d="m2078.456 447.459s-27.718-41.927 4.261-39.082c0 0 7.106 0 34.11 7.816 0 0 8.53 1.421-1.421-9.951 0 0-14.212-12.082-24.873-15.633 0 0-9.237-11.371 12.082-6.388l12.082 2.131s11.371 2.845 14.212-9.947c0 0 2.131-12.777-15.633-11.371 0 0-2.135 0-4.975 2.131 0 0 9.951-14.212 27.004-4.972 2.546 1.101 4.936 2.534 7.106 4.261l8.512-7.824 7.82-1.421-6.388-20.608s-7.82 2.131-2.845-5.686l17.767-3.551s11.371-3.555 15.633-7.82c0 0 19.917-16.343 44.061-15.633 0 0 14.212-.71 14.923-12.777 0 0 5.686 4.975 11.371 21.318 0 0 .71 3.555 4.261 3.555l22.292-13.577 4.385 6.791s-8.181 23.115 14.558 57.225c0 0-20.608 22.743-28.425 46.192l-10.263-23.085-18.872 6.742c.001 0-43.361 79.592-162.745 51.164z"
        fill="url(#n)" />
    <path
        d="m2095.509 126.254s-1.42-22.032-10.657-10.661c0 0-17.057-27.004 10.657-63.959 0 0 12.777-6.388 8.527-18.474 0 0 2.135-7.106 17.057-10.661 0 0-8.527-18.478-33.4-12.082 0 0-6.388-9.947-19.188-.71 0 0-120.098-25.584-171.262 115.123 0 0 49.743-17.053 68.931-7.816 0 0 8.527 3.555 5.686 18.478 0 0 37.661-20.608 56.139 6.388 0 0 22.739-24.163 38.376-18.478 0 0 6.388 2.845 9.947 12.082"
        fill="#1797e5" />
    <path
        d="m2027.767 144.858-1.315-1.921c-3.968-5.797-9.205-9.718-15.566-11.653-5.153-1.567-11.076-1.86-17.605-.871-11.267 1.708-20.431 6.671-20.522 6.721l-3.484 1.906.743-3.901c2.464-12.943-4.146-16.204-4.574-16.4l-.084-.038c-7.464-3.593-21.444-3.392-40.426.582-14.556 3.048-26.96 7.276-27.084 7.318l-3.709 1.271 1.34-3.685c11.771-32.372 28.197-58.639 48.82-78.072 16.538-15.583 35.785-26.822 57.208-33.405 19.048-5.854 36.323-6.863 47.461-6.678 9.978.165 16.834 1.263 19.108 1.681 4.608-3.152 9.001-4.359 13.066-3.589 3.669.696 6.084 2.852 7.269 4.185 12.891-2.977 21.453.62 26.41 4.233 5.571 4.06 7.875 8.962 7.971 9.169l.959 2.078-2.227.53c-7.084 1.688-10.991 4.182-13.022 5.977-1.432 1.266-2.146 2.365-2.464 2.959 1.641 5.35.524 10.484-3.251 14.89-2.326 2.714-5.008 4.367-6.026 4.938-6.021 8.095-10.317 16.342-12.77 24.514-1.979 6.595-2.77 13.161-2.352 19.518.473 7.177 2.406 12.486 3.669 15.271 1.956-1.717 3.852-2.295 5.657-1.719 2.5.798 4.277 3.672 5.43 8.788.763 3.383.972 6.542.981 6.675l-3.741.242c-.344-5.274-1.993-11.554-3.81-12.133-.563-.18-1.783.392-3.522 2.533l-1.646 2.026-1.394-2.207c-.185-.292-4.526-7.284-5.349-18.991-.48-6.827.34-13.865 2.438-20.919 2.605-8.76 7.199-17.567 13.654-26.174l.266-.354.396-.198c.457-.231 11.238-5.822 7.597-16.176l-.203-.576.176-.585c.094-.314 2.361-7.355 15.969-11.3-1.083-1.576-2.947-3.849-5.737-5.85-6.462-4.636-14.642-5.725-24.313-3.238l-1.312.337-.732-1.14c-.013-.02-1.983-2.946-5.724-3.631-3.197-.586-6.828.568-10.79 3.427l-.674.487-.813-.173c-.073-.016-7.57-1.578-19.371-1.761-10.87-.166-27.728.835-46.299 6.567-20.839 6.432-39.564 17.393-55.656 32.579-19.384 18.293-34.997 42.817-46.441 72.932 4.819-1.505 13.801-4.142 23.781-6.234 20.077-4.207 34.486-4.313 42.829-.313.84.375 8.373 4.118 7.246 16.957 3.814-1.715 10.623-4.363 18.515-5.559 15.234-2.309 27.455 1.935 35.494 12.285 5.575-5.478 24.493-22.556 38.802-17.353l.122.049c.29.129 7.14 3.273 10.934 13.12l-3.498 1.348c-3.075-7.981-8.289-10.717-8.916-11.022-7.297-2.594-16.645 2.301-23.213 6.876-7.402 5.156-13.025 11.093-13.081 11.153z"
        fill="#122a44" />
    <path
        d="m2103.325 164.625s-26.305-31.976-56.139-9.947c0 0-19.541-.357-28.071 17.41 0 0-1.421 2.131-1.421 3.551 0 0 11.371 2.845 11.371 17.057 0 0 2.841 0 9.947-18.478 0 0 11.371 2.134 12.777 17.767 0 0 2.845.71 9.241-4.265 0 0 2.131-12.082 5.682-13.502 0 0 9.241 0 11.371 15.637 0 0 1.42 2.841 14.212-8.53l19.188 2.134c.001.001 3.571-5.685-8.158-18.834z"
        fill="#1797e5" />
    <path
        d="m2029.066 193.259h-.562v-.562c0-5.725-1.848-10.245-5.494-13.435-2.709-2.371-5.425-3.07-5.452-3.077l-.426-.106v-.439c0-1.488 1.26-3.475 1.493-3.829 4.491-9.326 12.013-13.641 17.535-15.619 5.387-1.929 9.86-2.07 10.843-2.076 6.857-5.023 14.101-7.627 21.533-7.739 5.984-.09 12.097 1.429 18.163 4.513 10.129 5.151 16.782 13.044 17.053 13.369 11.865 13.306 8.364 19.254 8.209 19.5l-.188.299-19.29-2.146c-6.965 6.169-11.8 9.204-13.995 8.782-.629-.121-.853-.48-.906-.587l-.042-.083-.012-.092c-.845-6.199-2.99-10.784-6.203-13.261-2.1-1.619-4.037-1.851-4.506-1.884-1.239.596-2.562 3.026-3.737 6.871-.956 3.129-1.491 6.131-1.496 6.161l-.038.213-.171.133c-6.537 5.085-9.595 4.399-9.722 4.367l-.388-.097-.036-.398c-.708-7.882-4.042-12.161-6.713-14.362-2.182-1.799-4.269-2.537-5.158-2.79-2.889 7.461-5.419 12.783-7.522 15.822-1.538 2.22-2.397 2.552-2.772 2.552zm-10.768-18.025c.949.314 3.193 1.204 5.453 3.181 2.559 2.24 5.588 6.335 5.858 13.271 1.159-1.113 3.969-4.899 8.88-17.669l.168-.437.46.086c.122.023 3.021.59 6.115 3.14 2.781 2.292 6.236 6.686 7.071 14.65.925-.029 3.577-.48 8.213-4.049.142-.753.659-3.363 1.485-6.069 1.348-4.415 2.863-6.986 4.502-7.642l.1-.04h.108c.102 0 2.53.024 5.227 2.069 4.344 3.296 6.028 9.302 6.672 13.842.439.163 3.062.449 13.311-8.663l.187-.166 19.028 2.117c.462-1.315 1.515-6.929-8.232-17.856l-.015-.017c-.065-.079-6.642-7.984-16.733-13.106-5.898-2.993-11.827-4.469-17.625-4.375-7.24.113-14.31 2.68-21.012 7.629l-.153.113-.191-.003c-.047.001-4.884-.059-10.676 2.023-5.317 1.912-12.562 6.078-16.878 15.068l-.039.068c-.322.487-1.097 1.824-1.284 2.835z"
        fill="#122a44" />
    <path
        d="m2127.489 315.283s-2.12 10.657-4.976 11.368l-31.979-7.816s-.71-5.686 2.135-9.237l13.494-1.928c.814-.111 1.44-.775 1.503-1.593.425-5.554 3.532-26.005 26.226-28.458l-1.503-1.421s-21.942-2.131-26.914 24.873c0 0-.71 3.551-3.555 4.261l-12.777 2.134s-4.975 7.106-1.42 14.923l34.821 9.237c-.001 0 6.365 1.42 4.945-16.343zm28.424 7.816s-6.388 6.388-6.388 12.082c0 0 43.351-1.424 66.09 12.078l-69.648-9.237c-.001 0-4.976-4.976 9.946-14.923zm-49.743 50.453s2.48-8.692 10.932-8.083c1.414.101 2.737.735 3.702 1.774 1.661 1.785 3.848 5.389 3.848 11.995-.004 0-4.269-14.922-18.482-5.686zm-39.086-12.788s2.484-8.681 10.935-8.087c1.414.1 2.738.734 3.702 1.774 1.661 1.785 3.848 5.389 3.848 11.995-.007 0-4.272-14.922-18.485-5.682z"
        fill="#5dc5f9" />
    <path
        d="m2121.448 380.01c-.529 0-1.001-.375-1.103-.914-.761-3.991-2.186-6.373-4.235-7.079-2.947-1.015-6.872 1.633-8.136 2.74-.467.409-1.177.362-1.587-.106-.409-.467-.362-1.178.106-1.587.226-.197 5.581-4.816 10.349-3.174 2.867.988 4.789 3.944 5.712 8.785.116.61-.284 1.199-.894 1.315-.071.013-.142.02-.212.02zm-38.615-13.792c-.485 0-.932-.316-1.078-.805-1.052-3.543-2.551-5.568-4.453-6.019-3.292-.781-7.067 3.188-7.105 3.228-.425.452-1.136.476-1.589.051-.453-.424-.477-1.134-.053-1.588.19-.203 4.696-4.957 9.259-3.882 2.747.647 4.798 3.194 6.098 7.568.177.595-.162 1.221-.758 1.398-.107.034-.215.049-.321.049zm132.776-16.392c-.049 0-.098-.003-.148-.01l-67.841-8.921c-2.588-.334-4.558-2.47-4.682-5.079-.359-8.191 11.966-14.184 12.49-14.435.561-.268 1.232-.031 1.5.529s.031 1.231-.529 1.499c-.03.014-2.995 1.447-5.865 3.746-2.523 2.021-5.499 5.146-5.349 8.557.072 1.514 1.218 2.757 2.726 2.951l67.844 8.921c.616.081 1.049.646.968 1.262-.075.568-.558.98-1.114.98z"
        fill="#122a44" />
    <path
        d="m2154.373 340.641s-3.585 15.385 12.995 22.87c6.008 2.684 12.677 3.53 19.165 2.431 7.956-1.323 18.609-5.513 21.743-18.222z"
        fill="#f3f5f7" />
    <path
        d="m2180.943 367.539c-4.813 0-9.582-1.011-14.035-3-8.981-4.055-12.215-10.395-13.348-15.001-1.226-4.986-.322-8.984-.283-9.152.131-.563.668-.934 1.242-.86l53.903 7.08c.317.042.602.217.782.481s.24.593.163.903c-1.47 5.963-4.672 10.686-9.515 14.036-3.588 2.482-8.007 4.173-13.135 5.026-1.92.325-3.851.487-5.774.487zm-25.634-25.641c-.169 1.397-.317 4.106.459 7.195 1.494 5.948 5.553 10.454 12.062 13.394 5.821 2.6 12.225 3.413 18.515 2.347 7.603-1.264 17.191-5.11 20.507-16.166z"
        fill="#122a44" />
    <path
        d="m2122.474 334.478c-.624 0-1.259-.085-1.889-.262l-35.844-9.605c-.6-.161-.956-.777-.795-1.377s.777-.956 1.377-.795l35.858 9.609c2.235.628 4.538-.444 5.49-2.546 2.187-5.059 1.133-13.992 1.122-14.082-.075-.617.364-1.177.98-1.252.619-.075 1.177.364 1.252.98.047.391 1.136 9.634-1.298 15.264-1.15 2.538-3.609 4.066-6.253 4.066z"
        fill="#122a44" />
    <path d="m2118.252 333.046s5.682 8.53-1.424 16.347c0 0-14.212-7.106-33.4-7.106l2.86-17.767z"
        fill="#f3f5f7" />
    <path
        d="m2116.827 350.518c-.17 0-.342-.039-.502-.119-.14-.07-14.221-6.988-32.897-6.988-.329 0-.642-.144-.856-.395s-.307-.583-.254-.908l2.86-17.767c.051-.314.232-.592.498-.765.267-.173.595-.225.902-.143l31.964 8.527c.265.071.494.235.646.463.063.095 1.559 2.369 2.125 5.676.528 3.084.323 7.678-3.653 12.051-.219.24-.523.368-.833.368zm-32.081-9.345c16.248.267 28.586 5.378 31.788 6.838 4.965-6.103 1.884-12.44.992-13.994l-30.327-8.09z"
        fill="#122a44" />
    <path
        d="m2125.369 357.436c-.243 0-.486-.094-.669-.281-.075-.076-7.57-7.643-16.889-10.052-.501-.129-.802-.641-.673-1.142s.64-.802 1.142-.673c9.835 2.543 17.44 10.23 17.759 10.556.362.37.355.963-.014 1.325-.183.178-.419.267-.656.267z"
        fill="#122a44" />
    <path d="m2257.82 193.764s-21.969-8.155-19.116 24.516c0 0 2.488-30.202 22.701-18.865z"
        fill="#122a44" />
    <path
        d="m2062.109 19.657s-1.777 9.594 1.778 15.261c0 0-48.323 16.347-85.278 80.302 0 0-8.527-25.58-61.115-4.972 0 .016 21.319-88.817 144.615-90.591z"
        fill="url(#o)" />
    <path
        d="m1978.609 115.783c-.019 0-.038-.001-.057-.003-.22-.022-.407-.172-.477-.382-.02-.058-2.087-5.952-9.993-9.635-4.944-2.302-11.102-3.279-18.303-2.9-9.116.478-19.909 3.139-32.08 7.909l-.001-.002c-.084.034-.178.047-.273.036-.256-.031-.457-.232-.49-.487-.009-.073-.004-.146.014-.214.251-1.012 5.926-23.116 26.547-45.234 12.108-12.988 26.943-23.405 44.092-30.964 21.384-9.425 46.453-14.408 74.512-14.812.168-.009.329.071.438.199.109.129.154.299.123.465-.017.094-1.694 9.447 1.701 14.86.091.146.111.325.053.487s-.186.289-.349.344c-4.163 1.41-15.514 6.595-28.675 16.123-9.66 6.993-18.905 15.245-27.48 24.528-10.719 11.604-20.414 24.86-28.816 39.4-.101.176-.287.282-.486.282zm-25.874-14.123c6.13 0 11.456 1.041 15.869 3.107 6.354 2.974 9.096 7.239 10.077 9.21 8.32-14.247 17.881-27.251 28.43-38.666 8.631-9.34 17.939-17.644 27.665-24.68 12.633-9.139 23.63-14.315 28.282-16.016-2.702-4.968-1.937-12.151-1.611-14.384-27.637.47-52.329 5.417-73.404 14.706-17.009 7.497-31.72 17.826-43.723 30.702-18.188 19.508-24.624 38.955-25.99 43.683 11.88-4.568 22.45-7.118 31.435-7.583 1.01-.053 2.001-.079 2.97-.079z"
        fill="#122a44" />
    <path
        d="m2065.307 39.909 6.388 6.388s-37.643 39.804-46.184 76.759c0 0-14.922-10.661-39.082-2.134-.004-.001 24.87-56.14 78.878-81.013z"
        fill="url(#p)" />
    <path
        d="m2025.511 123.618c-.116 0-.23-.036-.327-.105-.036-.026-3.758-2.639-10.343-4.189-6.075-1.43-15.903-2.222-28.225 2.127-.152.054-.32.039-.46-.039-.141-.078-.241-.213-.276-.371-.046-.209-.057-.259 1.219-2.833.719-1.45 1.922-3.794 3.569-6.726 2.905-5.171 7.779-13.2 14.499-22.082 7.552-9.983 15.849-18.988 24.659-26.763 11.019-9.724 22.877-17.543 35.245-23.239.213-.099.466-.053.633.113l6.388 6.388c.215.215.22.563.011.784-.094.099-9.513 10.1-19.851 24.476-9.527 13.249-21.804 33.028-26.195 52.023-.042.183-.173.333-.349.399-.063.025-.13.037-.197.037zm-20.745-6.552c4.139 0 7.641.525 10.393 1.177 5.195 1.231 8.606 3.066 9.988 3.907 4.583-18.94 16.742-38.506 26.203-51.661 9.217-12.816 17.71-22.173 19.564-24.179l-5.727-5.727c-12.1 5.617-23.708 13.287-34.508 22.802-8.739 7.699-16.973 16.617-24.473 26.507-10.76 14.189-16.92 26.335-18.709 30.07 6.529-2.153 12.349-2.896 17.269-2.896z"
        fill="#122a44" />
    <path
        d="m2076.678 51.99s-24.163 31.269 0 68.931c0 0-19.188-17.053-42.637 2.845.012 0 14.213-51.168 42.637-71.776z"
        fill="url(#q)" />
    <path
        d="m2034.041 124.328c-.236 0-.447-.147-.528-.368-.044-.119-.045-.247-.009-.363l.017-.059c.672-2.339 4.37-14.74 11.146-29.185 4.112-8.764 8.569-16.597 13.249-23.281 5.825-8.32 12.026-14.893 18.431-19.536.226-.164.539-.137.733.064.195.201.212.514.042.735-.06.078-6.021 7.9-8.971 20.178-1.73 7.199-2.102 14.501-1.107 21.705 1.245 9.007 4.645 17.889 10.106 26.401.152.236.105.548-.108.731-.213.182-.529.18-.739-.006-.047-.042-4.814-4.21-12.327-5.923-4.397-1.003-8.868-.981-13.286.064-5.538 1.31-11.017 4.241-16.287 8.713-.113.101-.248.13-.362.13zm40.289-69.816c-5.357 4.384-10.556 10.156-15.491 17.204-4.643 6.631-9.068 14.408-13.152 23.114-5.737 12.227-9.252 22.975-10.585 27.339 4.98-3.942 10.141-6.56 15.365-7.789 4.594-1.081 9.24-1.096 13.812-.046 4.646 1.068 8.227 2.996 10.4 4.415-4.667-7.902-7.608-16.1-8.752-24.409-1.012-7.349-.627-14.797 1.143-22.138 1.955-8.105 5.201-14.308 7.26-17.69z"
        fill="#122a44" />
    <path
        d="m2188.502 345.124s-8.053 13.761 6.685 18.252c0 0 10.92-6.926 12.119-15.783zm-83.658-15.652s-7.914 9.97-1.503 14.235l13.502 3.551s5.881-9.658-2.033-15.133z"
        fill="#122a44" />
    <circle cx="2187.893" cy="357.209" fill="#fff" r="3.555" />
    <circle cx="2101.905" cy="336.601" fill="#fff" r="3.555" />
    <path
        d="m2192.158 236.776c-.01 0-.021 0-.032-.001-.206-.017-.359-.198-.342-.405.007-.088.813-8.843 7.438-9.578.014-.002.028-.002.041-.002.074 0 6.19.065 8.651 4.754.016-.992.097-2.121.307-3.285.842-4.689 3.367-7.651 7.301-8.565.201-.047.403.079.45.28.047.202-.079.403-.28.45-3.671.853-5.936 3.533-6.733 7.967-.432 2.404-.294 4.695-.178 5.814.039.24.07.487.093.742.018.201-.125.38-.325.406-.201.026-.385-.111-.417-.31-.006-.038-.052-.317-.1-.777-.452-2.695-1.978-4.635-4.545-5.772-2.015-.892-3.989-.951-4.204-.955-5.991.685-6.745 8.811-6.751 8.893-.017.196-.181.344-.374.344z" />
    <path
        d="m2278.03 256.833s-9.834-9.06-22.626 18.654c0 0 16.715-17.403 22.57-15.809zm-1.707-20.327s-12.401-17.872-20.21 7.001c0 0 3.844-6.727 7.978-9.515 1.607-1.084 3.736-.979 5.227.259 2.382 2.007 5.971 6.862 8.669 18.553zm-34.459-65.97s-16.313 2.631-10.631 18.962c0 0-1.067-15.685 16.535-14.596zm-19.414-18.143s-10.834.906-3.589 17.835c.557 1.304.105 2.821-1.075 3.608-1.213.811-2.837.611-3.818-.47-1.548-1.706-4.51-5.141-7.305-7.057-1.048-.728-2.488-.469-3.217.58-.161.232-.278.491-.346.766-.639 2.721-.665 8.576 1.845 21.134 0 0-9.32-13.983-5.261-24.013 1.462-3.623 5.87-5.19 9.184-3.119 1.227.803 2.311 1.807 3.206 2.969.001-.001-4.809-18.783 10.376-12.233zm-23.802-14.99s-16.91 1.233-10.06 13.446c.241.422.549.802.909 1.127l2.796 2.555c.771.942.868 2.267.24 3.311-.619 1.036-1.82 1.575-3.006 1.349-3.57-.691-11.578-3.799-16.358 3.735-.729 1.121-.917 2.51-.511 3.784.677 2.068 2.043 3.842 3.871 5.024 0 0-11.368-5.686-2.841-14.212 0 0 2.841-3.551 10.657-3.551 0 0-10.571-18.583 9.639-18.177zm-86.807-23.945s16.302-15.625 28.319 3.6c.512.825.925 1.708 1.229 2.631l1.717 5.156s-8.527-.71-12.777 7.106l-2.841-2.841s1.42 8.527 13.502 20.608c0 0 .71-5.686-7.106-14.212 0 0 8.527-12.777 17.767-4.265 0 0 4.261 2.134 12.078 14.926 0 0-2.131-12.082-15.633-20.612 0 0-4.265-18.474-17.767-22.029.001-.015-12.791-2.845-18.488 9.932zm-29.165-106.95s-5.637 4.618-.669 20.255c0 0-6.388-9.951-4.261-20.608zm2.886 25.227s9.489 9.97 19.312 5.34l-.549 4.727c0 .001-15.212-.12-18.763-10.067z"
        fill="#122a44" />
    <path
        d="m2066.37 20.368s2.841-7.816 12.082-12.777l-10.661.71s-2.127 2.826-1.421 12.067zm14.927 20.608s4.976 9.947 20.608-1.42l-1.421 9.947c0-.001-15.632 2.844-19.187-8.527z"
        fill="#122a44" />
    <path
        d="m2118.252 21.788s-14.216 4.265-16.347 13.506c0 0-19.898-6.388-15.633-23.453.015-.004 25.569-6.396 31.98 9.947z"
        fill="url(#r)" />
    <path
        d="m2180.787 70.111s9.019 10.075 6.388 19.188c0 0 19.917 4.265 24.159-9.947.008-.001-17.026-20.432-30.547-9.241z"
        fill="url(#s)" />
    <path
        d="m2236.031 262.436s-5.505 14.22-.526 22.288c0 0-19.917 5.686-29.135-5.686 0 0 15.633-22.029 29.661-16.602z"
        fill="url(#t)" />
    <path
        d="m2179.366 244.928s-7.106 13.502-4.265 26.305c0 0-17.827 5.216-25.715-7.354 0-.012 14.344-25.347 29.98-18.951z"
        fill="url(#u)" />
    <path
        d="m2063.466 255.701s-2.92 8.429 1.503 16.23c0 0-9.395 6.655-17.057 0-.015.001 4.25-12.791 15.554-16.23z"
        fill="url(#v)" />
    <path
        d="m2041.88 253.387s-3.859 8.038-.376 16.29c0 0-10.09 5.543-16.944-1.943 0 0 5.697-12.228 17.32-14.347z"
        fill="url(#w)" />
    <path
        d="m2016.274 201.223s4.043-7.294 12.777-9.237c0 0-1.27-13.213-11.341-14.46.015 0-6.441 12.991-1.436 23.697z"
        fill="url(#x)" />
    <path
        d="m2016.274 202.067c-.01 0-.019 0-.029 0-.317-.011-.601-.199-.735-.486-2.09-4.471-2.536-9.809-1.325-15.866.855-4.276 2.31-7.581 2.735-8.492l.013-.028c.017-.04.038-.08.062-.118.174-.277.493-.429.818-.388 4.424.548 7.921 3.379 10.111 8.185 1.616 3.547 1.953 6.891 1.966 7.031.041.424-.241.812-.656.904-8.267 1.839-12.184 8.753-12.222 8.822-.149.27-.432.436-.738.436zm1.941-23.611c-.562 1.285-1.676 4.093-2.375 7.589-1.011 5.054-.807 9.55.603 13.39 1.61-2.208 5.394-6.437 11.669-8.088-.183-1.134-.658-3.452-1.74-5.812-1.859-4.053-4.601-6.432-8.157-7.079z"
        fill="#122a44" />
    <path
        d="m2038.81 198.536s3.536-5.317 12.284-7.26c0 0-1.777-14.569-11.014-15.99-.015 0-7.106 12.792-1.27 23.25z"
        fill="url(#y)" />
    <path
        d="m2038.811 199.379c-.012 0-.023 0-.035-.001-.293-.012-.559-.175-.702-.431-2.462-4.412-3.047-9.926-1.69-15.946 1.079-4.79 2.946-8.103 2.965-8.134.173-.295.522-.466.861-.415 4.082.628 7.409 3.752 9.621 9.036 1.625 3.883 2.084 7.532 2.103 7.686.052.431-.231.831-.655.925-8.276 1.838-11.732 6.855-11.766 6.906-.159.234-.422.374-.702.374zm1.726-23.147c-1.162 2.326-5.543 12.151-1.566 20.763 1.495-1.66 5.005-4.806 11.169-6.359-.494-2.828-2.719-12.825-9.603-14.404z"
        fill="#122a44" />
    <path
        d="m2064.394 198.536s4.31-7.805 13.059-9.752c0 0-1.007-12.254-11.078-13.498-.005 0-6.987 12.544-1.981 23.25z"
        fill="url(#z)" />
    <path
        d="m2064.394 199.379c-.01 0-.02 0-.029 0-.317-.011-.601-.198-.735-.485-5.205-11.132 1.956-23.94 2.033-24.06.175-.275.492-.424.815-.384 4.42.546 7.87 3.207 9.976 7.694 1.557 3.319 1.829 6.441 1.839 6.572.035.42-.246.801-.657.892-8.256 1.837-12.462 9.262-12.504 9.337-.149.269-.432.434-.738.434zm2.45-23.17c-1.139 2.267-5.447 11.796-2.285 20.521 1.657-2.331 5.596-6.897 11.961-8.585-.166-1.063-.595-3.173-1.613-5.327-1.782-3.767-4.492-5.988-8.063-6.609z"
        fill="#122a44" />
    <path
        d="m2018.762 260.564s-4.904 6.542-1.417 14.799c0 0-9.395 4.134-16.234-3.382 0 .018 6.279-12.131 17.651-11.417z"
        fill="url(#A)" />
    <path
        d="m2087.245 9.827s-3.818 15.516 16.08 25.467l-1.42 2.131s-21.319-6.388-17.053-27.004zm129.783 67.39s2.135 9.936-9.947 17.076c0 0 12.082-3.555 12.777-14.923z"
        fill="#122a44" />
    <path
        d="m2005.97 443.197s-103.045-61.115-77.461-200.401l-27.714 26.989c-.001.001-4.976 117.999 105.175 173.412z"
        fill="url(#B)" />
    <path d="m1932.774 217.213s6.388 9.237 14.923 0c-.001 0-7.46 12.082-14.923 0z" fill="#5dc5f9" />
    <path
        d="m2220.519 81.798s3.198 6.347.872 15.317c0 0 3.548-3.698 4.476-12.916zm-36.181 12.495s5.686 8.527 18.478 2.131c0 0-12.777 2.845-17.763-4.265z"
        fill="#122a44" />
    <path
        d="m2184.338 95.694s2.135 12.777 15.637 11.371c0 0-7.377 4.404-15.407.782zm27.004-17.767s-4.261 16.347-25.58 9.951l-.71 3.551s24.159 7.106 31.266-14.212zm-154.208 376.638s21.104-.575 21.57 20.323l-8.305-1.255c0-.001 5.212-14.074-13.265-19.068zm-33.401-14.923s15.851 7.753 9.346 28.395l-5.066-1.853c.001 0 5.664-20.856-4.28-26.542zm-69.641-45.47s9.237 18.478-11.371 23.453l-4.261-6.388c-.001 0 16.342 4.246 15.632-17.065zm-34.82-34.832s-.71 9.241-14.212 7.106l.665-3.995c.014-.107.113-.182.22-.168.02.003.04.009.059.017 1.336.636 8.172 3.421 13.268-2.96zm-15.618-110.857s-5.701 25.584-19.917 19.188l-2.845 5.682c0-.001 22.762 9.24 22.762-24.87zm-23.468-19.188s9.94 20.608 19.188-12.082c0 0 1.42 29.135-18.478 22.743zm17.057-40.507s-1.424 15.633 17.053 9.237c0 0-16.343 15.407-23.806-2.604zm5.682-24.163s4.975 14.923 27.004-7.106c0 0-21.318 31.269-1.42 32.694 0 0-17.764 2.845-9.947-17.767 0 0-8.249 7.94-17.625-.65zm17.767 61.115s7.816 2.134 11.371-7.106c0 0 4.261 7.816 12.082 3.555 0 0 2.841-1.42 4.972-7.816 0 0-4.972 11.368-12.777 6.388 0 0-4.261-2.134-4.261-8.53-.015.007-2.15 13.509-11.387 13.509z"
        fill="#122a44" />
    <path
        d="m2074.191 19.657s4.975 12.777 9.947 18.474c0 0-12.788-4.261-9.947-18.474zm-164.87 94.515s26.305-64.669 76.751-83.147c0 0 39.082-16.343 78.164-14.923 0 0-66.09-7.816-105.886 26.305.008-.011-34.813 26.283-49.029 71.765zm174.817-61.115s-22.029 24.159-4.261 64.666c-.001 0-25.585-33.4 4.261-64.666zm111.662 48.037s15.031 1.255 23.923-8.989c-.001.001-5.803 16.411-23.923 8.989zm36.864-3.979s23.449 22.029 19.917 76.041c-.019 0 12.059-52.588-19.917-76.041z"
        fill="#5dc5f9" />
    <path
        d="m2138.146 282.593s1.42 4.975 7.816 8.527c0 0-9.951-17.767 11.368-18.478l-12.796-9.244s-9.229 8.534-6.388 19.195z"
        fill="url(#C)" />
    <path
        d="m1924.247 107.07-5.686 2.131s10.646-39.09 49.728-63.249c0 0 34.821-26.305 93.094-25.584-.425.89-.667 1.856-.71 2.841 0 0-106.581 0-136.426 83.861zm63.959 12.074s25.584-54.719 76.751-78.164l1.413 1.417s-39.082 12.777-75.327 76.037z"
        fill="#7da4b7" />
    <path
        d="m2144.534 263.398c-.352 2.011.166 4.078 1.424 5.686 0 0-8.531 6.388-6.388 16.343 0 .007-7.812-16.336 4.964-22.029z"
        fill="#5dc5f9" />
    <path
        d="m2072.759 56.609s-23.453 19.188-36.955 64.669l2.845-2.134c-.001 0 6.407-28.425 34.11-62.535z"
        fill="#7da4b7" />
    <path d="m2148.097 261.985s8.527 12.777 29.135 7.816l2.845 1.421s-20.608 11.371-36.245-8.527z"
        fill="#122a44" />
    <path d="m2142.411 264.115s4.976 12.777 16.347 14.212c0 0-10.661.71-19.188-12.082z"
        fill="#122a44" />
    <path
        d="m2200.816 278.869s-10.083 15.806-5.817 21.491c0 0 .71 3.551 6.388 4.972 0 0-2.841-9.947 3.551-15.633 3.404 2.164 6.968 4.065 10.661 5.686l3.562-5.682s-8.267-.346-18.346-10.83"
        fill="url(#D)" />
    <path
        d="m2164.451 279.748s15.637.714 15.637-9.947l2.841 3.551s-1.432 8.531-18.478 6.396zm-24.881-12.788s-4.976 7.106 0 18.474c0 0-9.241-8.527-8.531-13.502z"
        fill="#122a44" />
    <path
        d="m2168.705 291.12s15.633 5.686 18.478-14.212l-4.265-5.686c-.001-.001-.001 18.481-14.213 19.898zm30.559-9.237s-7.106 9.947-3.555 19.898c0 0-7.816-4.265-.71-22.032zm14.213 27.004s26.899 14.874 31.213-18.857l-3.499-4.596s0 31.269-27.714 23.453z"
        fill="#122a44" />
    <path d="m2006.68 276.197s-6.388 27.714 26.305 44.771c0 0-11.371-24.05-14.212-45.204z"
        fill="url(#E)" />
    <path d="m2030.486 270.511s-5.329 32.694 22.386 49.743l-1.42-9.947s-9.241-24.873-7.82-40.521z"
        fill="url(#F)" />
    <path
        d="m2221.293 296.091s17.579 3.033 19.804-8.79l-1.327-2.582c.001.001-1.424 10.666-18.477 11.372zm-22.029-17.763s-1.424 6.388 10.657 14.212c0 0-7.816-.71-12.777-11.368z"
        fill="#122a44" />
    <path d="m2205.66 276.926s9.237 14.212 31.266 5.686l2.845 4.975s-25.584 12.078-39.796-9.951z"
        fill="#122a44" />
    <path
        d="m2202.815 300.36s9.951 4.972 29.849 2.131c0-.011-19.187 12.792-29.849-2.131zm-54.718-17.767s9.237 4.261 29.135 1.42c-.004 0-15.633 13.502-29.135-1.42z"
        fill="#5dc5f9" />
    <g fill="#122a44">
        <path
            d="m1998.154 274.066s7.106 7.106 21.318 3.551l2.131-10.657-4.885-2.052s-2.255 4.885-1.526 9.868c0 0-8.527 2.131-14.923-3.555z" />
        <path
            d="m1998.507 274.419s.71 4.975 8.527 5.686c0 0-6.764 1.067-10.304-4.618zm12.438 6.043s7.106.71 8.527-4.265l.71 4.265c-2.949 1.264-6.287 1.264-9.237 0z" />
        <path
            d="m2023.733 268.381s-4.261 17.764.714 29.135c0 0-9.241-13.502-4.265-29.845zm1.425-2.845s7.106 6.388 18.474 2.134v2.116s-12.078 6.388-19.184-2.131z" />
        <path
            d="m2023.023 267.67c2.128 3.254 5.445 5.547 9.241 6.388 0 0-7.106 0-10.661-4.265zm14.212 6.396s6.388-1.424 6.388-4.975l.714 3.551c.001 0-2.126 2.134-7.102 1.424z" />
        <path d="m2043.631 271.932s-7.106 12.777 5.686 31.98c0 0-7.816-21.318-2.841-31.98z" />
        <path d="m2047.205 270.511s9.947 6.388 18.477 0l2.841 2.131s-9.947 8.53-22.739.71z" />
        <path
            d="m2045.056 273.352s2.131 4.265 11.368 5.686c0 0-7.106.71-12.078-2.131zm14.926 4.976s5.686 0 8.527-6.388l2.131 3.555c-3.068 2.254-6.875 3.266-10.658 2.833zm2.837 5.685s7.106-.71 9.241-6.388l.699 3.547s-2.834 3.552-9.94 2.841zm4.265-110.857s0-13.502 21.318-12.777c0 0-27.004-5.686-24.159 16.343zm11.372 5.689s2.841 4.265 1.42 10.661l3.142-.954s-.301-7.58-4.562-9.707zm-37.94-4.164s3.829-15.032 28.699-17.162c0 0-29.845-.71-31.266 17.057z" />
    </g>
    <path
        d="m2094.089 157.519s17.767 13.502 17.053 24.873l-19.165-2.131c0 .001 9.928-6.395 2.112-22.742z"
        fill="url(#G)" />
    <path d="m2040.065 401.981s14.923-22.743 64.669 4.972c.016-.004-41.915-37.662-64.669-4.972z"
        fill="#122a44" />
    <path d="m2040.065 406.242s13.502-21.318 65.387 4.265c0 .001-44.764-34.82-65.387-4.265z"
        fill="#5dc5f9" />
    <path
        d="m2123.223 359.34s-58.356-30.972-92.775 8.527c-6.781 7.81-8.86 18.653-5.449 28.417 6.234 17.959 23.825 46.015 73.354 54.035 0 0 83.143 17.767 140.707-54.008l10.657-9.951s-57.56 100.185-179.082 61.813c0 0-54.997-16.219-52.61-66.913.023-.448.09-.892.199-1.327 1.251-4.945 10.357-33.569 53.843-35.516 0 0 38.372-3.551 51.859 13.502l1.443 2.845c-.64-.578-1.364-1.058-2.146-1.424z"
        fill="#5dc5f9" />
    <path
        d="m2284.193 309.221s-5.04 27.346 17.737 55.793l-2.465 6.407s-18.478 9.951-28.428 44.061l-11.368-22.032s-1.424-2.131-5.686-.71l-7.816 2.845.71-2.845 8.527-3.551s4.975-1.42 7.106 2.841l7.816 16.347s4.975-24.163 27.004-39.796c0 0-19.898-31.269-16.343-54.719z"
        fill="#5dc5f9" />
    <path d="m2234.085 406.949s17.763-21.318 19.188-27.714c0 0-4.976 17.767-12.777 27.714z"
        fill="#122a44" />
    <path
        d="m2253.273 334.47s17.053-9.951 26.305-31.98l5.682-1.421c0 .001 1.413 27.716-31.987 33.401z"
        fill="#5dc5f9" />
    <path
        d="m2282.407 296.091s-5.686 25.584-29.135 38.376c0 0 24.159-10.661 34.821-34.824zm-21.318 58.277s18.526 14.547 44.794 10.116v6.847c0 .001-26.316.801-44.794-16.963z"
        fill="#122a44" />
    <path
        d="m1966.174 246.348 23.449-24.87h-1.42l-23.449 24.87zm-5.686-.71 25.584-24.87-6.396-.714-24.874 24.873z"
        fill="#fff" opacity=".63" />
    <path
        d="m1975.411 222.899 21.318 4.265v-2.134zm-4.262 19.898 23.449 2.131-.71 2.134zm66.09-25.584 31.976 4.975-4.972 40.506 2.841-1.421 4.975-40.506zm41.217 17.767 20.608 4.261-21.322-1.42zm-3.555 20.609 20.608 4.265-20.608-2.134z"
        fill="#4f1a00" />
    <path
        d="m2083.427 235.691 33.4 4.975 14.926 22.029-13.502-17.057-2.135 19.898h-1.42l1.42-22.739z"
        fill="#fff" />
    <path d="m2110.432 261.985s9.241 0 11.371 9.947c0 0 0-10.658-11.371-9.947z" fill="#4f1a00" />
    <path d="m2010.231 216.503s-2.841 30.559-5.682 41.927c0 0 2.131-31.98 5.682-41.927z"
        fill="#fff" />
    <path
        d="m2030.843 214.372-23.453-2.134s-3.555 34.11-6.388 48.326c0 0 2.131-37.665 4.975-51.167zm-75.33 29.845 4.265-24.163 34.821 4.265-36.951-6.396z"
        fill="#fff" />
    <path d="m2068.505 210.107-6.396 6.396-5.686-.71 6.396-6.396z" fill="#fff" opacity=".63" />
</svg>