<svg xmlns:xlink="http://www.w3.org/1999/xlink" enable-background="new 0 0 500 500"
    viewBox="0 0 500 500" xmlns="http://www.w3.org/2000/svg">
    <linearGradient id="a">
        <stop offset="0" stop-color="#6556a5" />
        <stop offset=".9989" stop-color="#3084cb" />
    </linearGradient>
    <linearGradient gradientUnits="userSpaceOnUse" id="b" x1="248.4456" x2="252.0834" y1="1.0483"
        y2="223.8609" xlink:href="#a" />
    <linearGradient gradientUnits="userSpaceOnUse" id="c" x1="288.9334" x2="292.6084" y1="31.2025"
        y2="256.292" xlink:href="#a" />
    <linearGradient gradientUnits="userSpaceOnUse" id="d" x1="212.8101" x2="215.795" y1="34.0805"
        y2="216.9026">
        <stop offset="0" stop-color="#5267b3" />
        <stop offset=".9989" stop-color="#0fa1e3" />
    </linearGradient>
    <linearGradient gradientUnits="userSpaceOnUse" id="e" x1="296.3571" x2="359.6339" y1="453.7256"
        y2="321.8987">
        <stop offset="0" stop-color="#03acec" />
        <stop offset="1" stop-color="#3ea8e1" />
    </linearGradient>
    <linearGradient gradientUnits="userSpaceOnUse" id="f" x1="330.994" x2="333.6305" y1="119.5986"
        y2="281.0864" xlink:href="#a" />
    <linearGradient gradientUnits="userSpaceOnUse" id="g" x1="174.2461" x2="176.4512" y1="96.6157"
        y2="231.6759">
        <stop offset="0" stop-color="#3480c8" />
        <stop offset=".9994" stop-color="#03b0ee" />
    </linearGradient>
    <linearGradient gradientUnits="userSpaceOnUse" id="h" x1="370.374" x2="388.1706" y1="190.6098"
        y2="441.7399">
        <stop offset="0" stop-color="#5465b2" />
        <stop offset="1" stop-color="#03acec" />
    </linearGradient>
    <path
        d="m265.232 213.233c-2.912-55.845-6.404-111.66-9.776-167.48-.9-14.91-2.232-29.793-3.366-44.689-.228-.021-.457-.043-.685-.064-.133.877-.326 1.75-.391 2.632-2.737 37.457-6.146 74.881-8.04 112.382-1.682 33.311-3.268 66.629-4.68 99.954 9.176.974 18.855 2.822 27.445 7.67-.158-3.469-.326-6.938-.507-10.405z"
        fill="url(#b)" />
    <path
        d="m234.385 357.558c.175 18.982.689 37.969 1.276 56.934.745 24.055 3.108 48.067 5.019 72.076.525 6.595 3.769 11.458 11.324 11.389 7.49-.068 10.44-5.014 10.886-11.492 1.96-28.501 4.543-56.997 5.246-85.536.028-1.129.042-2.258.067-3.387-7.941-16.088-18.659-30.248-33.818-39.984z"
        fill="#77d1f3" />
    <path
        d="m267.884 299.454c-.042-2.751-.098-5.503-.146-8.254-9.285-7.768-20.076-13.889-31.685-17.678-.462 12.998-.899 25.996-1.289 38.996-.449 15.001-.518 30.019-.38 45.04 15.159 9.736 25.878 23.897 33.819 39.984.717-32.678.181-65.396-.319-98.088z"
        fill="#44bcee" />
    <path
        d="m265.74 223.638c-8.59-4.849-18.269-6.697-27.445-7.67-.813 19.182-1.559 38.367-2.241 57.554 11.61 3.789 22.4 9.911 31.685 17.678-.39-22.527-.968-45.058-1.999-67.562z"
        fill="#34ade6" />
    <path
        d="m316.084 255.909c-.277-3.531-.565-7.061-.87-10.588-5.286-61.137-16.712-121.176-36.434-179.438-3.707-10.95-8.164-21.646-12.975-34.302-.229 2.472-.328 2.853-.288 3.219 3.815 35.442 7.493 70.899 11.496 106.32 3.456 30.578 5.873 61.208 7.21 91.875 11.219 6.776 23.615 13.032 31.861 22.914z"
        fill="url(#c)" />
    <path
        d="m284.77 329.778c-1.611 48.717-5.079 97.372-7.608 146.06-.279 5.378 2.017 9.701 7.598 11.195 5.382 1.441 9.108-1.23 11.235-5.94 2.391-5.295 4.635-10.692 6.444-16.209 9.29-28.343 13.836-57.405 15.788-86.748-6.051-24.966-14.205-51.685-32.927-70.751-.112 7.463-.283 14.927-.53 22.393z"
        fill="#49c0f0" />
    <path
        d="m316.084 255.909c-8.246-9.882-20.642-16.137-31.862-22.915 1.08 24.775 1.446 49.574 1.076 74.391 18.721 19.066 26.875 45.785 32.927 70.751.873-13.124 1.229-26.303 1.257-39.501.058-27.569-1.237-55.212-3.398-82.726z"
        fill="#3aa8e2" />
    <path
        d="m236.623 33.692c-3.88 10.282-8.203 20.421-11.57 30.868-16.235 50.368-27.637 101.29-34.194 152.75 9.839-1.891 19.733-4.287 30.363-3.789 3.395-49.547 8.733-98.986 13.126-148.475.92-10.365 2.259-20.694 3.404-31.039-.377-.106-.753-.211-1.129-.315z"
        fill="url(#d)" />
    <path
        d="m218.585 269.834c-10.884-4.065-21.768-.302-32.652-.787-1.54 24.094-2.033 48.303-1.471 72.627 11.841.107 24.312 1.221 34.596 6.869-.645-26.224-1.01-52.493-.473-78.709z"
        fill="#49bfef" />
    <path
        d="m226.413 474.159c-2.452-37.547-5.982-75.065-7.018-112.651-.119-4.32-.231-8.643-.337-12.966-10.284-5.648-22.755-6.762-34.596-6.869.442 19.113 1.536 38.296 3.289 57.55 2.517 27.634 7.842 54.818 19.147 80.472 2.294 5.205 5.692 9.004 11.856 7.341 6.367-1.717 8.057-6.783 7.659-12.877z"
        fill="#77d1f3" />
    <path
        d="m218.585 269.834c.239-11.669.65-23.328 1.302-34.968.399-7.118.846-14.233 1.334-21.346-10.629-.498-20.523 1.899-30.363 3.789-2.19 17.185-3.82 34.432-4.926 51.737 10.885.486 21.769-3.277 32.653.788z"
        fill="#2db4ec" />
    <path
        d="m334.286 282.167c.327 5.645.613 11.298.806 16.964 1.81 53.124-2.894 105.633-16.976 157.078-1.527 5.578-.496 10.288 4.827 12.974 5.438 2.744 9.627-.142 12.035-4.755 4.591-8.798 9.874-17.539 12.587-26.961 7.888-27.393 12.29-55.167 14.159-83.174-3.205-25.878-12.577-51.273-27.438-72.126z"
        fill="url(#e)" />
    <path
        d="m361.759 285.541c-3.393-58.61-19.909-113.735-46.149-166.053-3.841-7.659-8.454-14.931-12.71-22.382-.292.137-.584.275-.876.412.181.756.338 1.519.546 2.268 16.634 59.803 28.129 120.469 31.716 182.381 14.861 20.853 22.655 46.428 27.438 72.126 1.521-22.789 1.367-45.733.035-68.752z"
        fill="url(#f)" />
    <path
        d="m175.392 221.447c-9.287 2.265-17.92 7.017-26.495 10.679-3.422 17.608-5.717 35.539-6.928 53.778 8.104-7.162 18.25-9.545 27.944-12.761 1.233-17.323 3.079-34.552 5.479-51.696z"
        fill="#2fbbf0" />
    <path
        d="m168.996 288.091c.25-4.991.562-9.973.916-14.949-9.694 3.217-19.84 5.6-27.944 12.761-.277 4.17-.516 8.35-.677 12.552-.721 18.738-.418 37.443.916 56.085 8.522-4.678 17.08-8.443 26.462-10.51-.755-18.558-.612-37.206.327-55.939z"
        fill="#52c4f1" />
    <path
        d="m168.669 344.031c-9.382 2.067-17.94 5.832-26.462 10.51 1.119 15.637 2.961 31.229 5.558 46.756 3.652 21.838 7.716 43.649 20.43 62.553 2.908 4.323 6.459 8.163 12.353 5.385 5.815-2.741 6.363-7.803 4.856-13.386-9.947-36.849-15.202-74.146-16.735-111.818z"
        fill="#77d1f3" />
    <path
        d="m201.8 96.166c-1.564 2.376-2.371 3.489-3.064 4.669-24.377 41.497-40.902 85.305-49.839 131.291 8.576-3.662 17.209-8.414 26.495-10.679 4.009-28.638 9.541-57.045 16.262-85.277 3.07-12.891 6.506-25.695 10.146-40.004z"
        fill="url(#g)" />
    <path
        d="m370.684 214.391c-5.25-9.67-10.651-19.258-15.982-28.884-.287.138-.574.277-.862.415.325.89.654 1.778.973 2.67 21.196 59.207 29.429 119.97 20.818 182.496-2.831 20.554-7.586 40.837-11.062 61.312-.353 2.079-.911 5.483-.39 7.71.468 2 2.722 2.977 4.52 1.984 1.938-1.071 4.803-4.192 6.181-5.757 20.946-23.786 27.553-51.304 29.165-82.045 2.616-49.869-9.754-96.423-33.361-139.901z"
        fill="url(#h)" />
    <path
        d="m130.261 258.114c.909-4.727 1.93-9.432 2.997-14.128-7.341 4.321-13.22 10.104-19.86 15.126-8.815 24.136-13.58 48.546-14.08 73.128 7.246-11.824 15.917-21.598 25.388-31.208.963-14.283 2.801-28.59 5.555-42.918z"
        fill="#3ac1f1" />
    <path
        d="m126.663 368.591c-2.796-22.444-3.482-44.971-1.957-67.559-9.47 9.61-18.142 19.383-25.388 31.208-.421 20.676 2.189 41.473 7.937 62.329 4.789-10.047 11.26-18.459 19.408-25.978z"
        fill="#5dcaf2" />
    <path
        d="m139.298 437.546c.036-6.214-.925-11.532-2.505-17.42-4.596-17.123-7.984-34.305-10.13-51.535-8.148 7.519-14.619 15.93-19.409 25.978 1.044 3.789 2.18 7.58 3.433 11.372 4.478 13.555 11.708 25.712 22.496 35.387.765.686 1.852 1.013 2.961 1.315 1.066.29 2.186-.235 2.644-1.24.485-1.062.504-2.855.51-3.857z"
        fill="#77d1f3" />
    <path
        d="m116.172 251.828c-.97 2.425-1.885 4.853-2.773 7.284 6.64-5.022 12.519-10.805 19.86-15.126 4.173-18.366 9.327-36.544 13.958-54.822-10.495 20.829-22.418 41.088-31.045 62.664z"
        fill="#08b2ef" />
    <path
        d="m148.995 186.221c-.334-.034-.669-.067-1.003-.101-.253 1.016-.518 2.029-.776 3.044.118-.233.237-.466.354-.699.396-.788.947-1.498 1.425-2.244z"
        fill="#77d1f3" />
</svg>