<svg enable-background="new 0 0 500 500" viewBox="0 0 500 500" xmlns="http://www.w3.org/2000/svg">
    <path
        d="m114.528 42.759 73.194-41.088 279.071 162.641v90.624l-75.019 41.41-199.851-114.113v-14.324l195.521 111.952-.377-66.724-194.509-113.835-.226-13.581 199.259 118.375 61.067-36.564-263.855-151.66-61.097 33.811z"
        fill="#6fd562" />
    <path
        d="m466.793 254.936v80.304l-278.225 161.089-78.482-45.311v-85.614l199.871-115.775 11.213 6.403-192.995 113.805 57.973 33.035 194.913-112.643 10.713 6.117-199.01 115.38.084 70.752 263.269-152.675-.044-68.95z"
        fill="#1f2645" />
    <path
        d="m110.086 451.018-71.384-40.564.006-323.748 78.482-45.311 75.142 44.326-.666 232.428-10.996 6.477-.417-225.095-59.397 34.043.151 225.504-10.921 6.326v-231.83l-59.106-33.534-.621 302.341 59.727 34.984z"
        fill="#2470d5" />
</svg>