<svg enable-background="new 0 0 500 500" viewBox="0 0 500 500" xmlns="http://www.w3.org/2000/svg">
    <g fill="#51ded2">
        <path
            d="m297.3 450.3c0 26.2-21 47.2-47.2 47.2-26 0-47.2-21-47.2-47.2v-399.5c0-26.2 21.3-47.2 47.2-47.2 26.2 0 47.2 21.3 47.2 47.2z" />
        <path
            d="m439 74.7c-26 0-47.2 21-47.2 47.2v156c0 26.2 21 47.2 47.2 47.2s47.2-21.3 47.2-47.2v-156c.1-26.2-21-47.2-47.2-47.2z" />
        <path
            d="m108.3 450.3c0 26.2-21.3 47.2-47.2 47.2-26 0-47.2-21-47.2-47.2v-67c0-26 21.3-47.2 47.2-47.2 26 0 47.2 21.3 47.2 47.2z" />
    </g>
</svg>