<svg enable-background="new 0 0 500 500" viewBox="0 0 500 500" xmlns="http://www.w3.org/2000/svg">
    <radialGradient cx="17.8571" cy="517.7857" gradientTransform="matrix(0 14 14 0 -6999 1)"
        gradientUnits="userSpaceOnUse" id="a" r="17.8571">
        <stop offset="0" stop-color="#304ffe" />
        <stop offset="1" stop-color="#3d5afe" />
    </radialGradient>
    <circle cx="250" cy="251" fill="url(#a)" r="250" />
    <g fill="#fff">
        <path
            d="m122.7 123.7c53.8-53.8 133.3-66.4 199.1-37.8l-34.3 34.3c-45.9-13.1-97.4-1.6-133.6 34.6-47.8 47.8-52.6 122.4-14.3 175.5l51.1-51.1 31.1 31.1-82.5 82.5c-5.7-4.5-11.2-9.3-16.5-14.6-70.4-70.2-70.4-184.2-.1-254.5z" />
        <path
            d="m178.2 416.1c65.8 28.6 145.2 16 199.1-37.8 70.3-70.3 70.3-184.3 0-254.6-5.3-5.3-10.8-10.1-16.5-14.6l-82.5 82.5 31.1 31.1 51.1-51.1c38.3 53.1 33.5 127.7-14.3 175.5-36.2 36.2-87.7 47.7-133.6 34.6z" />
        <path d="m281.1 251-31.1-31.1-31.1 31.1 31.1 31.1z" />
        <path d="m190.6 160.5 31.1 31.1-31.1 31.1-31.1-31.1z" />
        <path d="m340.5 310.4-31.1-31.1-31.1 31.1 31.1 31.1z" />
    </g>
</svg>