<svg enable-background="new 0 0 500 500" viewBox="0 0 500 500" xmlns="http://www.w3.org/2000/svg">
    <path
        d="m98.586 166.179c49.161 27.052 95.418 52.505 144.39 79.453-49.236 29.079-95.659 56.496-144.39 85.277 0-56.24 0-108.895 0-164.73zm153.639 243.323c49.602 29.292 96.053 56.724 144.187 85.149 0-55.864 0-108.559 0-164.312-48.628 26.698-95.201 52.268-144.187 79.163zm144.353-405.502c-48.596 26.688-95.332 52.355-144.264 79.227 48.796 28.874 94.951 56.185 144.264 85.365 0-56.209 0-108.953 0-164.592z" />
</svg>