<svg enable-background="new 0 0 500 500" viewBox="0 0 500 500" xmlns="http://www.w3.org/2000/svg">
    <path
        d="m228 164.1-153.9 153.9c-2.3 2.3-5.9 2.3-8.2 0l-57.1-57.2c-6-6-6-15.8 0-21.8l147.1-147c2.3-2.3 5.9-2.3 8.2 0l64 64c2.2 2.2 2.2 5.8-.1 8.1z"
        fill="#214859" />
    <path
        d="m318.3 73.8-64.7 64.7c-2.3 2.3-5.9 2.3-8.2 0l-64-64c-2.3-2.3-2.3-5.9 0-8.2l57.9-57.9c6-6 15.8-6 21.8 0l57.2 57.2c2.3 2.3 2.3 5.9 0 8.2z"
        fill="#00b39e" />
    <path
        d="m271.3 333.7 153.9-153.9c2.3-2.3 5.9-2.3 8.2 0l57.2 57.2c6 6 6 15.8 0 21.8l-147.2 147.1c-2.3 2.3-5.9 2.3-8.2 0l-64-64c-2.2-2.2-2.2-5.9.1-8.2z"
        fill="#214859" />
    <path
        d="m181.8 424.8 64.7-64.7c2.3-2.3 5.9-2.3 8.2 0l64 64c2.3 2.3 2.3 5.9 0 8.2l-57.9 57.9c-6 6-15.8 6-21.8 0l-57.2-57.2c-2.3-2.2-2.3-5.9 0-8.2z"
        fill="#00b39e" />
    <path
        d="m407 164.1-64.7 64.7c-2.3 2.3-5.9 2.3-8.2 0l-64-64c-2.3-2.3-2.3-5.9 0-8.2l64.8-64.6c2.3-2.3 5.9-2.3 8.2 0l64 64c2.2 2.2 2.2 5.8-.1 8.1z"
        fill="#214859" />
    <path
        d="m318.3 253.6-64.7 64.7c-2.3 2.3-5.9 2.3-8.2 0l-64-64c-2.3-2.3-2.3-5.9 0-8.2l64.7-64.7c2.3-2.3 5.9-2.3 8.2 0l64 64c2.3 2.3 2.3 6 0 8.2z"
        fill="#00b39e" />
    <path
        d="m228 343.1-64.7 64.7c-2.3 2.3-5.9 2.3-8.2 0l-64-64c-2.3-2.3-2.3-5.9 0-8.2l64.7-64.7c2.3-2.3 5.9-2.3 8.2 0l64 64c2.3 2.3 2.3 6 0 8.2z"
        fill="#214859" />
</svg>