<svg enable-background="new 0 0 500 500" viewBox="0 0 500 500" xmlns="http://www.w3.org/2000/svg">
    <g fill="#496ddb">
        <path
            d="m306.1 201.7c-3.1-11.8-10.4-19.3-22.4-22.7-10.1-2.8-20.5-3.9-30.8-4.5-11.8.3-23.8 1.1-35.3 4.5-12.1 3.4-19.3 10.9-22.4 22.7-1.7 6.4-2.2 13.2-2.5 19.6-.6 6.2-.6 7 3.6 7h105.9c7.3 0 7.3 0 6.4-7.3-.3-6.1-1.1-12.8-2.5-19.3z" />
        <path
            d="m304.1 271.5h-105.7c-7.3 0-7.3 0-6.4 7.3.3 6.4.8 13.2 2.5 19.6 3.1 11.8 10.4 19.3 22.4 22.7 10.1 2.8 20.5 3.9 30.8 4.5 11.8-.3 23.8-1.1 35.3-4.5 12.1-3.4 19.3-10.9 22.4-22.7 1.7-6.4 2.2-13.2 2.5-19.6.7-6.1.7-7-3.8-7.3z" />
        <path
            d="m250-.1c-137.9 0-250 112.2-250 250s112.1 250 250 250c138.2 0 250-112.1 250-250s-111.8-250-250-250zm105.4 193.7c1.1 7.3 2 14.6 2.8 22.1v12.9h38.7c3.1 0 5.9 0 8.7.6 6.7 1.1 10.9 5 11.2 11.5v18.8c-.3 6.4-4.5 10.4-11.2 11.5-2.8.6-5.6.6-8.7.6h-39.2v12.6c-.8 7.6-1.7 14.9-2.8 22.1-1.1 7.3-3.1 13.7-5.6 19.3h49.6c5.9 0 11.5.6 15.4 6.2 5.9 9.2 2.8 21.6-6.4 27.5-1.1.8-2.5 1.7-3.9 2-10.4 3.4-21 3.9-32 4.5-44.6.8-90.2 1.1-121.1 1.1-36.4 0-85.2-.6-122.2-1.4-10.9-.3-21.6-.8-31.7-4.5-1.7-.3-2.8-.8-3.9-2-9.2-5.9-12.3-17.9-6.4-27.5 3.6-5.6 9.2-6.2 15.1-6.2h49c-2.2-5.6-4.2-12.1-5.3-19.1-1.1-7.3-2-14.6-2.8-22.1v-12.9h-39.2c-3.1 0-5.9 0-8.7-.6-6.7-1.1-10.9-5-11.2-11.5v-18.8c.3-6.4 4.5-10.4 11.2-11.5 2.8-.6 5.6-.6 8.7-.6h39.2v-12.6c.8-7.6 1.7-14.9 2.8-22.1s3.1-13.7 5.6-19.3h-49.6c-5.9 0-11.5-.6-15.4-6.2-5.9-9.2-2.8-21.6 6.4-27.5 1.1-.8 2.5-1.7 3.9-2 10.4-3.4 21-3.9 31.7-4.5 44.6-.8 90.2-1.1 121.1-1.1 36.4 0 85.5.6 122.2 1.4 10.9.3 21.6.8 31.7 4.5 1.7.3 2.8.8 3.9 2 9.2 5.9 12.3 17.9 6.4 27.5-3.6 5.6-9.2 6.2-15.1 6.2h-49c3 5.7 4.7 11.8 6.1 19.1z" />
    </g>
</svg>