<svg enable-background="new 0 0 500 500" viewBox="0 0 500 500" xmlns="http://www.w3.org/2000/svg">
    <g clip-rule="evenodd" fill-rule="evenodd">
        <path
            d="m400.4 99.4c-2-2-3.1-4.1-3.1-6.7s1-4.6 3.1-6.7c4.1-3.6 10.2-3.6 14.3 0 2 2 3.1 4.1 3.1 6.7s-1 4.6-3.1 6.7c-2 1.5-4.6 2.6-7.2 2.6-2.5.5-5-.6-7.1-2.6" />
        <path
            d="m375.3 126c-1.5-2-2.6-4.1-2.6-6.7s1-4.6 2.6-6.7c3.6-3.6 9.7-3.6 13.3 0 1.5 2 2.6 4.1 2.6 6.7s-1 4.6-2.6 6.7c-2 1.5-4.1 2.6-6.7 2.6-2.5 0-4.5-1-6.6-2.6" />
        <path
            d="m348.2 152.1c-1.5-1.5-2.6-4.1-2.6-6.7s1-4.6 2.6-6.7c3.6-3.6 9.7-3.6 13.3 0 1.5 1.5 2.6 4.1 2.6 6.7s-1 4.6-2.6 6.7c-2 2-4.1 2.6-6.7 2.6-2.5 0-5.1-1-6.6-2.6" />
        <path
            d="m322 178.3c-2-1.5-3.1-4.1-3.1-6.7s1-4.6 3.1-6.7c4.1-3.6 10.2-3.6 14.3 0 2 1.5 3.1 4.1 3.1 6.7s-1 5.1-3.1 6.7c-2 2-4.6 2.6-7.2 2.6-2.5-.1-5-.6-7.1-2.6" />
        <path
            d="m296.9 204.4c-2-1.5-2.6-4.1-2.6-6.7s1-4.6 2.6-6.7c3.6-3.6 9.7-3.6 13.3 0 2 1.5 2.6 4.1 2.6 6.7s-1 5.1-2.6 6.7c-1.5 2-4.1 2.6-6.7 2.6-2.5.5-5-.5-6.6-2.6" />
        <path
            d="m266.7 223.9c0-2.6 1-4.6 2.6-6.7 3.6-3.6 9.7-3.6 13.3 0 2 2 2.6 4.1 2.6 6.7s-1 4.6-2.6 6.7c-1.5 1.5-4.1 2.6-6.7 2.6s-4.6-1-6.7-2.6c-1.5-1.6-2.5-4.2-2.5-6.7z" />
        <path
            d="m218 281.8c-1.5-1.5-2.6-4.1-2.6-6.7s1-4.6 2.6-6.7c3.6-3.6 9.7-3.6 13.3 0 2 2 2.6 4.1 2.6 6.7s-1 4.6-2.6 6.7c-1.5 2-4.1 2.6-6.7 2.6-2.5.4-4.5-.6-6.6-2.6" />
        <path
            d="m190.9 307.9c-2-1.5-3.1-4.1-3.1-6.7s1-4.6 3.1-6.7c4.1-3.6 10.2-3.6 14.3 0 2 2 3.1 4.1 3.1 6.7s-1 4.6-3.1 6.7c-2 2-4.6 2.6-7.2 2.6-2.5.5-5.1-.6-7.1-2.6" />
        <path
            d="m165.8 334.5c-1.5-1.5-2.6-4.1-2.6-6.7s1-5.1 2.6-6.7c3.6-3.6 9.7-3.6 13.3 0 1.5 1.5 2.6 4.1 2.6 6.7s-1 4.6-2.6 6.7c-2 2-4.1 2.6-6.7 2.6s-4.6-1-6.6-2.6" />
        <path
            d="m139.7 360.6c-2-1.5-2.6-4.1-2.6-6.7s1-4.6 2.6-6.7c3.6-3.6 9.7-3.6 13.3 0 1.5 2 2.6 4.1 2.6 6.7s-1 5.1-2.6 6.7c-2 2-4.1 2.6-6.7 2.6s-5.1-.5-6.6-2.6" />
        <path
            d="m112.5 386.8c-2-1.5-3.1-4.1-3.1-6.7s1-4.6 3.1-6.7c4.1-3.6 10.2-3.6 13.8 0 2 2 3.1 4.1 3.1 6.7s-1 5.1-3.1 6.7-4.6 2.6-7.2 2.6-5.1-.6-6.6-2.6" />
        <path
            d="m86.9 412.9c-2-2-2.6-4.1-2.6-6.7s1-4.6 2.6-6.7c3.6-3.6 9.7-3.6 13.3 0 2 2 2.6 4.1 2.6 6.7s-1 4.6-2.6 6.7c-1.5 1.5-4.1 2.6-6.7 2.6-2 .5-4.6-.6-6.6-2.6" />
        <path
            d="m100.2 99.4c1.5-2 2.6-4.1 2.6-6.7s-1-4.6-2.6-6.7c-3.6-3.6-9.7-3.6-13.3 0-2 2-2.6 4.1-2.6 6.7s1 4.6 2.6 6.7c1.5 1.5 4.1 2.6 6.7 2.6 2.5.5 5.1-.6 6.6-2.6" />
        <path
            d="m126.3 126c2-2 3.1-4.1 3.1-6.7s-1-4.6-3.1-6.7c-4.1-3.6-10.2-3.6-14.3 0-2 2-3.1 4.1-3.1 6.7s1 4.6 3.1 6.7c2 1.5 4.6 2.6 7.2 2.6s5.1-1 7.1-2.6" />
        <path
            d="m153 152.1c1.5-1.5 2.6-4.1 2.6-6.7s-1-4.6-2.6-6.7c-3.6-3.6-9.7-3.6-13.3 0-1.5 1.5-2.6 4.1-2.6 6.7s1 4.6 2.6 6.7c2 2 4.1 2.6 6.7 2.6 2 0 4.5-1 6.6-2.6" />
        <path
            d="m179.1 178.3c1.5-1.5 2.6-4.1 2.6-6.7s-1-4.6-2.6-6.7c-3.6-3.6-9.7-3.6-13.3 0-1.5 1.5-2.6 4.1-2.6 6.7s1 5.1 2.6 6.7c2 2 4.1 2.6 6.7 2.6 2-.1 4.6-.6 6.6-2.6" />
        <path
            d="m204.7 204.4c2-1.5 3.1-4.1 3.1-6.7s-1-4.6-3.1-6.7c-3.6-3.6-10.2-3.6-13.8 0-2 1.5-3.1 4.1-3.1 6.7s1 5.1 3.1 6.7c2 2 4.6 2.6 7.2 2.6 2.5.5 5.1-.5 6.6-2.6" />
        <path
            d="m233.9 223.9c0-2.6-1-4.6-2.6-6.7-3.6-3.6-9.7-3.6-13.3 0-2 2-2.6 4.1-2.6 6.7s1 4.6 2.6 6.7c1.5 1.5 4.1 2.6 6.7 2.6s4.6-1 6.7-2.6 2.5-4.2 2.5-6.7z" />
        <path
            d="m257.5 257.2c2-2 2.6-4.1 2.6-6.7s-1-4.6-2.6-6.7c-3.6-3.6-9.7-3.6-13.3 0-2 2-2.6 4.1-2.6 6.7s1 4.6 2.6 6.7c1.5 1.5 4.1 2.6 6.7 2.6s5-1.1 6.6-2.6" />
        <path
            d="m283.6 281.8c2-1.5 3.1-4.1 3.1-6.7s-1-4.6-3.1-6.7c-4.1-3.6-10.2-3.6-13.8 0-2 2-3.1 4.1-3.1 6.7s1 4.6 3.1 6.7 4.6 2.6 7.2 2.6c2 .4 4.6-.6 6.6-2.6" />
        <path
            d="m310.2 307.9c1.5-1.5 2.6-4.1 2.6-6.7s-1-4.6-2.6-6.7c-3.6-3.6-9.7-3.6-13.3 0-1.5 2-2.6 4.1-2.6 6.7s1 4.6 2.6 6.7c2 2 4.1 2.6 6.7 2.6 2 .5 4.6-.6 6.6-2.6" />
        <path
            d="m336.4 334.5c1.5-1.5 2.6-4.1 2.6-6.7s-1-5.1-2.6-6.7c-3.6-3.6-9.7-3.6-13.3 0-1.5 1.5-2.6 4.1-2.6 6.7s1 4.6 2.6 6.7c2 2 4.1 2.6 6.7 2.6s4.5-1 6.6-2.6" />
        <path
            d="m361 360.6c2-1.5 2.6-4.1 2.6-6.7s-1-4.6-2.6-6.7c-3.6-3.6-9.7-3.6-13.3 0-1.5 2-2.6 4.1-2.6 6.7s1 5.1 2.6 6.7c2 2 4.1 2.6 6.7 2.6 2.5 0 5-.5 6.6-2.6" />
        <path
            d="m388.6 386.8c2-1.5 2.6-4.1 2.6-6.7s-1-4.6-2.6-6.7c-3.6-3.6-9.7-3.6-13.3 0-2 2-2.6 4.1-2.6 6.7s1 5.1 2.6 6.7 4.1 2.6 6.7 2.6c2.5-.1 5.1-.6 6.6-2.6" />
        <path
            d="m414.8 412.9c2-2 3.1-4.1 3.1-6.7s-1-4.6-3.1-6.7c-4.1-3.6-10.2-3.6-13.8 0-2 2-3.1 4.1-3.1 6.7s1 4.6 3.1 6.7c2 1.5 4.6 2.6 7.2 2.6 1.9.5 4.5-.6 6.6-2.6" />
        <path
            d="m162.2 106.6c26.6-17.4 55.8-25.6 88.1-26.1 31.8 0 61 8.7 88.1 26.1l56.4-56.4c-44.1-33.3-91.7-50.2-144.5-50.2s-100.9 16.9-144 50.2z" />
        <path
            d="m105.8 337.6c-17.9-27.2-26.6-56.4-26.6-87.6 0-31.8 8.7-61 26.6-87.6l-55.8-55.8c-32.8 43-49.2 90.7-49.2 144 0 52.3 16.4 100.4 49.7 144z" />
        <path
            d="m338.4 393.4c-26.6 17.9-55.8 27.2-87.6 27.7-32.3 0-62-8.7-88.6-27.2l-56.4 55.8c43.5 33.8 91.7 50.7 145 50.2 52.8-.5 100.4-17.4 143.4-50.2z" />
        <path
            d="m393.2 161.9c17.9 27.2 27.2 56.9 26.6 89.1-.5 31.2-9.2 59.9-26.6 86.1l56.4 55.8c33.3-43 50.2-90.7 50.2-142.9.5-53.3-16.4-101.4-50.2-145z" />
        <path
            d="m452.1 410.9c21.5 0 39.4 17.4 39.4 39.4 0 21.5-17.4 39.4-39.4 39.4-21.5 0-39.4-17.4-39.4-39.4s17.4-39.4 39.4-39.4" />
        <path
            d="m49.5 410.9c21.5 0 38.9 17.4 38.9 39.4 0 21.5-17.4 39.4-38.9 39.4s-38.9-17.4-38.9-39.4 17.4-39.4 38.9-39.4" />
        <path
            d="m452.7 8.7c21.5 0 38.9 17.4 38.9 39.4s-17.4 39.4-38.9 39.4-38.9-17.4-38.9-39.4 17.3-39.4 38.9-39.4" />
        <path
            d="m49 8.7c21.5 0 39.4 17.4 39.4 38.9s-17.4 39-39.4 39c-21.5 0-39.4-17.4-39.4-38.9-.1-21.6 17.4-39 39.4-39" />
    </g>
</svg>