<svg enable-background="new 0 0 500 500" viewBox="0 0 500 500" xmlns="http://www.w3.org/2000/svg">
    <path d="m374.098 39.191 123.783 71.684-123.783 71.293z" fill="#b3d002" />
    <path d="m374.098 39.191-124.148 71.489 124.148 71.488z" fill="#f4ea1b" />
    <path d="m374.098 182.168-124.148 70.901v-142.389z" fill="#66b72f" />
    <path d="m249.95 110.68-124.592 71.194 124.592 71.195z" fill="#0568b2" />
    <path d="m249.95 110.68-124.592-71.489v142.683z" fill="#5eb9dd" />
    <path d="m125.358 39.191-122.607 71.489 122.607 71.194z" fill="#1d3691" />
    <path d="m373.732 248.857 123.782 71.684-123.782 71.292z" fill="#b3d002" />
    <path d="m373.732 248.857-124.149 71.488 124.149 71.488z" fill="#f4ea1b" />
    <path d="m373.732 391.833-124.149 70.901v-142.389z" fill="#66b72f" />
    <path d="m249.583 320.345-124.591 71.195 124.591 71.194z" fill="#0568b2" />
    <path d="m249.583 320.345-124.591-71.488v142.683z" fill="#5eb9dd" />
    <path d="m124.992 391.54v-142.683l-122.607 71.488" fill="#1d3691" />
</svg>