<svg enable-background="new 0 0 500 500" viewBox="0 0 500 500" xmlns="http://www.w3.org/2000/svg">
    <path
        d="m177.263 75.874c-.912 0-1.752.493-2.197 1.29l-49.616 88.865c-.936 1.677.276 3.743 2.197 3.743h105.043l51.63-93.897h-107.057z"
        fill="#0277af" />
    <path d="m284.32 75.874-51.63 93.897h104.635l54.252-93.897z" fill="#01a4cf" />
    <path
        d="m492.346 75.874h-100.769l-54.252 93.897h106.145c.918 0 1.762-.5 2.205-1.304l48.876-88.865c.922-1.676-.292-3.728-2.205-3.728z"
        fill="#01cefd" />
    <path
        d="m118.213 199.599c-.912 0-1.752.493-2.197 1.29l-49.616 88.864c-.936 1.677.276 3.743 2.197 3.743h105.042l51.63-93.897z"
        fill="#0277af" />
    <path d="m225.269 199.599-51.63 93.897h104.636l54.252-93.897z" fill="#01a4cf" />
    <path
        d="m433.295 199.599h-100.768l-54.252 93.897h106.145c.918 0 1.762-.5 2.205-1.304l48.876-88.865c.921-1.676-.292-3.728-2.206-3.728z"
        fill="#01cefd" />
    <path
        d="m55.414 321.449c-.912 0-1.752.493-2.197 1.29l-49.617 88.864c-.936 1.677.276 3.743 2.197 3.743h105.043l51.63-93.897z"
        fill="#0277af" />
    <path d="m162.47 321.449-51.63 93.897h104.635l54.252-93.897z" fill="#01a4cf" />
    <path
        d="m370.496 321.449h-100.769l-54.252 93.897h106.145c.918 0 1.762-.5 2.205-1.304l48.876-88.865c.922-1.676-.292-3.728-2.205-3.728z"
        fill="#01cefd" />
</svg>