<svg enable-background="new 0 0 500 500" viewBox="0 0 500 500" xmlns="http://www.w3.org/2000/svg">
    <path
        d="m37.017 126.22c71.375-41.206 142.691-82.378 214.035-123.566 71.462 41.26 142.782 82.437 214.066 123.594v247.568c-71.284 41.158-142.601 82.335-214.069 123.6-71.343-41.187-142.665-82.362-214.033-123.564.001-82.508.001-164.853.001-247.632zm105.598 186.396c0-41.123 0-82.123 0-123.229-32.96-19.616-65.797-39.158-99.049-58.947v239.399c67.935 39.219 135.834 78.417 204.166 117.865 0-38.615 0-76.403 0-114.373-35.009-20.22-70.004-40.434-105.117-60.715zm216.81.035c-35.204 20.329-70.12 40.491-104.797 60.517v114.395c68.248-39.406 136.123-78.597 203.755-117.647 0-78.674 0-156.901 0-235.691-33.275 19.214-66.102 38.169-98.958 57.142zm95.731-184.361c-68.439-39.514-136.284-78.684-204.114-117.846-66.975 38.671-133.746 77.224-200.952 116.028 32.883 19.584 65.114 38.779 97.516 58.076 34.503-19.914 68.939-39.789 103.443-59.704 35.101 20.261 70.096 40.462 105.053 60.641 33.016-19.064 65.756-37.968 99.054-57.195zm-207.489 237.19c0-38.14 0-75.766 0-113.538-32.667-19.439-65.3-38.857-98.293-58.489v115.289c32.63 18.836 65.273 37.679 98.293 56.738zm6.771-.012c33.122-19.119 65.699-37.924 98.101-56.628 0-37.903 0-75.499 0-113.508-33.036 19.075-65.691 37.931-98.101 56.646zm-100.141-176.976c32.44 19.328 64.544 38.456 96.768 57.656 32.666-18.872 65.248-37.694 98.265-56.768-33.183-19.159-65.75-37.961-98.284-56.746-32.273 18.633-64.296 37.121-96.749 55.858z" />
    <path
        d="m247.667 365.48c-33.019-19.06-65.663-37.903-98.293-56.738 0-38.323 0-76.421 0-115.289 32.993 19.632 65.626 39.051 98.293 58.489z"
        fill="#104f9d" />
    <path
        d="m254.438 365.468c0-38.123 0-75.581 0-113.49 32.41-18.714 65.066-37.57 98.101-56.646v113.508c-32.402 18.704-64.979 37.509-98.101 56.628z"
        fill="#33afff" />
    <path
        d="m154.297 188.492c32.453-18.737 64.476-37.225 96.748-55.858 32.534 18.784 65.101 37.587 98.284 56.746-33.016 19.074-65.598 37.897-98.265 56.768-32.223-19.2-64.327-38.328-96.767-57.656z"
        fill="#e32ea2" />
    <path
        d="m96.661 344.043c.08 2.935-2.189 5.318-5.147 5.405-3.042.09-5.393-2.062-5.513-5.045-.117-2.901 2.201-5.353 5.145-5.442 2.957-.088 5.437 2.196 5.515 5.082z" />
    <path
        d="m62.255 366.776c-3.085-.052-5.235-2.246-5.206-5.311.029-3.014 2.295-5.201 5.352-5.167 3.058.034 5.258 2.293 5.176 5.314-.084 3.144-2.22 5.216-5.322 5.164z" />
    <path
        d="m125.528 326.745c.074 3.054-2.084 5.357-5.086 5.427-2.968.069-5.355-2.196-5.414-5.139-.06-2.993 2.16-5.344 5.137-5.442 3.002-.098 5.289 2.101 5.363 5.154z" />
    <path
        d="m433.348 366.253c-2.988.031-5.398-2.242-5.468-5.156-.068-2.824 2.385-5.345 5.241-5.388 2.985-.044 5.329 2.187 5.418 5.157.087 2.903-2.278 5.357-5.191 5.387z" />
    <path
        d="m374.852 332.233c-2.877-.001-5.252-2.432-5.233-5.357.019-2.936 2.393-5.301 5.306-5.287 2.836.013 5.26 2.477 5.282 5.366.02 2.812-2.483 5.279-5.355 5.278z" />
    <path
        d="m404.509 338.865c2.685.03 4.978 2.473 4.91 5.229-.069 2.769-2.689 5.256-5.45 5.174-2.535-.075-5.134-2.709-5.144-5.213-.013-2.958 2.471-5.226 5.684-5.19z" />
    <path
        d="m254.716 68.512c.054 2.798-2.429 5.379-5.235 5.442-2.769.062-5.401-2.442-5.486-5.216-.082-2.699 2.487-5.366 5.263-5.462 2.675-.093 5.406 2.527 5.458 5.236z" />
    <path
        d="m249.357 107.656c-2.937-.007-5.368-2.395-5.355-5.26.013-2.85 2.461-5.225 5.385-5.224 2.921 0 5.368 2.405 5.345 5.253-.023 2.868-2.458 5.238-5.375 5.231z" />
    <path
        d="m249.285 29.579c2.895-.07 5.39 2.305 5.429 5.168.039 2.866-2.351 5.274-5.273 5.316-2.973.042-5.367-2.225-5.441-5.152-.07-2.798 2.371-5.261 5.285-5.332z" />
</svg>