<svg xmlns:xlink="http://www.w3.org/1999/xlink" enable-background="new 0 0 500 500"
    viewBox="0 0 500 500" xmlns="http://www.w3.org/2000/svg">
    <linearGradient id="a">
        <stop offset="0" stop-color="#21ffe3" />
        <stop offset="1" stop-color="#8549df" />
    </linearGradient>
    <radialGradient cx="135.8969" cy="99.7802" gradientUnits="userSpaceOnUse" id="b" r="257.1211"
        xlink:href="#a" />
    <linearGradient gradientUnits="userSpaceOnUse" id="c" x1="266.3158" x2="252.324" y1="441.6717"
        y2="144.3468" xlink:href="#a" />
    <radialGradient cx="251.2309" cy="311.5679" gradientUnits="userSpaceOnUse" id="d" r="222.862">
        <stop offset="0" stop-color="#21ffe3" />
        <stop offset=".1916" stop-color="#23fce3" stop-opacity=".8084" />
        <stop offset=".3419" stop-color="#28f2e3" stop-opacity=".6581" />
        <stop offset=".478" stop-color="#31e1e2" stop-opacity=".522" />
        <stop offset=".6059" stop-color="#3ecae2" stop-opacity=".3941" />
        <stop offset=".728" stop-color="#4face1" stop-opacity=".272" />
        <stop offset=".8458" stop-color="#6386e0" stop-opacity=".1542" />
        <stop offset=".958" stop-color="#7b5bdf" stop-opacity=".042" />
        <stop offset="1" stop-color="#8549df" stop-opacity="0" />
    </radialGradient>
    <linearGradient gradientUnits="userSpaceOnUse" id="e" x1="88.819" x2="393.7107" y1="132.9023"
        y2="312.1099">
        <stop offset="0" stop-color="#21ffe3" />
        <stop offset="1" stop-color="#f8fffb" />
    </linearGradient>
    <linearGradient id="f">
        <stop offset="0" stop-color="#692cc2" />
        <stop offset=".5189" stop-color="#3e5bde" />
        <stop offset="1" stop-color="#229ee7" />
    </linearGradient>
    <linearGradient gradientUnits="userSpaceOnUse" id="g" x1="143.2636" x2="400.1972" y1="164.3141"
        y2="164.3141" xlink:href="#f" />
    <linearGradient gradientUnits="userSpaceOnUse" id="h" x1="143.2636" x2="406.1037" y1="270.2943"
        y2="270.2943" xlink:href="#f" />
    <linearGradient gradientUnits="userSpaceOnUse" id="i" x1="114.4693" x2="383.9543" y1="373.2892"
        y2="373.2892">
        <stop offset="0" stop-color="#677cf4" />
        <stop offset=".2764" stop-color="#374cd7" />
        <stop offset=".3631" stop-color="#3752d8" />
        <stop offset=".4747" stop-color="#3562db" />
        <stop offset=".5999" stop-color="#337ce1" />
        <stop offset=".7351" stop-color="#30a1e9" />
        <stop offset=".8766" stop-color="#2dd0f2" />
        <stop offset="1" stop-color="#29fffc" />
    </linearGradient>
    <linearGradient id="j">
        <stop offset="0" stop-color="#f8fffb" />
        <stop offset="1" stop-color="#f8fffb" stop-opacity="0" />
    </linearGradient>
    <linearGradient gradientUnits="userSpaceOnUse" id="k" x1="81.3035" x2="35.6017" y1="144.6819"
        y2="261.0137" xlink:href="#j" />
    <linearGradient gradientUnits="userSpaceOnUse" id="l" x1="102.051" x2="94.4292" y1="150.9946"
        y2="255.5219" xlink:href="#j" />
    <circle cx="249.58" cy="246.694" fill="url(#b)" r="238.185" />
    <ellipse cx="258.608" cy="277.884" fill="url(#c)" rx="174.556" ry="163.529" />
    <ellipse cx="251.231" cy="311.568" fill="url(#d)" rx="188.457" ry="176.551" />
    <path
        d="m198.424 409.979c-.861-.092-21.21-2.328-31.789-8.374-1.801-1.029-44.309-25.558-61.298-56.138-14.323-25.783-38.582-72.356-40.115-94.601-1.395-20.221-.298-63.519 6.851-77.816.498-.995 1.113-2.357 1.892-4.083 4.663-10.331 14.367-31.827 33.634-50.812 23.881-23.531 54.51-35.491 91.036-35.547.241-.003 26.586-.328 56.224-.328 17.412 0 32.54.11 44.963.329 39.447.692 70.959 4.028 85.957 6.675l2.585.451c10.514 1.821 14.448 2.503 15.298 10.158.729 6.557 6.583 54.132 6.643 54.612l.157 1.283-36.341 22.064h39.049l3.85 73.116-42.438 30.986h38.317l-13.101 77.84-72.84 41.301-128.358 8.903z"
        fill="url(#e)" />
    <path
        d="m254.859 84.28c14.987 0 30.898.082 44.928.328 42.084.738 73.093 4.43 85.645 6.645 12.551 2.215 15.505 2.215 16.243 8.86s6.645 54.635 6.645 54.635l-41.346 25.103h44.299l3.692 70.14-46.514 33.962h42.084l-12.551 74.57-71.617 40.607-127.728 8.86s-20.673-2.215-31.009-8.121c-10.336-5.907-45.776-28.794-60.542-55.374-14.766-26.579-38.392-72.355-39.869-93.766s0-63.495 6.645-76.785 33.223-89.196 124.775-89.336c-.002 0 26.252-.328 56.22-.328m0-4c-29.65 0-56.009.325-56.271.328-37.025.056-68.125 12.21-92.393 36.122-19.533 19.247-29.34 40.973-34.053 51.414-.739 1.638-1.378 3.052-1.857 4.011-7.311 14.623-8.466 58.432-7.058 78.849 1.561 22.63 25.959 69.506 40.363 95.433 17.256 31.062 60.233 55.863 62.054 56.904 10.937 6.25 31.69 8.532 32.568 8.626l.351.038.352-.024 127.728-8.86.906-.063.79-.448 71.617-40.607 1.656-.939.316-1.877 12.551-74.57.785-4.664h-4.73-29.823l36.611-26.732 1.75-1.277-.114-2.163-3.692-70.14-.199-3.79h-3.795-30.003l29.126-17.684 2.21-1.342-.316-2.566c-.059-.48-5.912-48.043-6.639-54.588-1.016-9.148-6.339-10.07-16.944-11.907-.811-.141-1.67-.289-2.579-.45-15.069-2.659-46.705-6.011-86.27-6.705-12.434-.218-27.574-.329-44.998-.329z"
        fill="#692cc2" />
    <path
        d="m69.414 250.894s2 26.001 12.667 50.002 36.716 61.958 46.002 72.003c13.82 14.948 40.672 32.466 57.339 34.466s62.22-1.175 72.533-1.319c6.7-.094 61.077-5.583 68.411-6.916s69.866-37.136 71.617-40.607c1.432-2.839 2.227-13.228 2.227-13.228l-50.942 11.726-153.463 7.252c-5.024.202-12.501-.624-18.409-1.136-7.436-.645-14.546-2.046-23.182-4.773-9.257-2.923-20.839-8.909-30.296-16.083-13.304-10.093-29.256-25.941-38.501-48.718-5.872-14.462-16.003-42.669-16.003-42.669z"
        fill="#fff" />
    <path
        d="m143.264 180.589 18.458-25.103s-.738-6.645 33.962-7.383 204.513 5.168 204.513 5.168l-34.701 27.318z"
        fill="url(#g)" />
    <path
        d="m406.104 250.729-43.561 33.224-192.7 5.907s-16.981-14.028-19.935-19.565c-2.953-5.537-6.645-12.921-6.645-12.921s200.822-1.477 220.018-2.215c19.197-.739 42.823-4.43 42.823-4.43z"
        fill="url(#h)" />
    <path
        d="m383.954 360.738s-56.112 33.224-60.542 34.701-111.318 8.857-121.822 8.86c-13.55.003-30.271-4.43-41.346-12.551s-28.056-24.364-31.748-31.009-14.028-18.458-14.028-18.458 25.103 16.243 42.822 21.411c17.72 5.168 55.061 3.998 72.043 3.26s154.621-6.214 154.621-6.214z"
        fill="url(#i)" />
    <path
        d="m363.114 67.733s-39.384-11.815-64.702-11.252-57.95 2.813-74.829 8.439-23.63 9.002-23.63 9.002 10.69 12.94 9.565 25.318-13.503 27.006-28.131 30.944-29.256 6.189-40.509 3.938c-11.253-2.25-37.133-16.879-37.133-16.879l-19.692-14.066s19.692-27.006 52.324-42.759 65.827-29.256 107.461-29.256 71.453 9.565 88.895 18.004c17.44 8.44 30.381 18.567 30.381 18.567z"
        fill="#fff" />
    <path
        d="m84.052 103.178s-14.979 18.958-18.778 27.314c-3.799 8.357-16.334 32.667-18.613 56.598s-2.659 42.477 0 55.046c2.659 12.568 7.217 30.042 7.217 30.042s15.574-64.195 17.853-79.769 13.295-48.621 22.791-60.017 18.233-25.07 18.233-25.07z"
        fill="url(#k)" />
    <path
        d="m112.755 107.321s-16.609 21.682-20.191 27.695-18.403 29.775-19.314 41.818-3.419 37.605-3.419 37.605 26.59-47.861 33.807-56.218 28.109-36.086 28.109-36.086z"
        fill="url(#l)" />
</svg>