<svg enable-background="new 0 0 500 500" viewBox="0 0 500 500" xmlns="http://www.w3.org/2000/svg">
    <path
        d="m251.123 21.683 103.988 140.476 47.619 220.635-151.607 93.65-151.567-93.65 47.619-228.572z"
        fill="#fff" />
    <path
        d="m252.813 7.906c2.1 2.036 4.543 3.821 6.249 6.146 33.162 45.198 66.261 90.441 99.267 135.752 1.776 2.439 3.184 5.428 3.831 8.366 16.332 74.184 32.541 148.394 48.761 222.602 1.358 6.212.614 7.813-4.766 11.186-50.524 31.664-101.042 63.338-151.552 95.024-.352.221-.571.654-.852.988-1.875 0-3.751 0-5.626 0-.826-.657-1.598-1.4-2.486-1.958-50.37-31.613-100.722-63.256-151.179-94.731-4.52-2.819-4.335-6.49-3.467-10.53 4.323-20.128 8.776-40.228 13.179-60.339 11.74-53.628 23.428-107.268 35.322-160.863.846-3.812 2.622-7.703 4.92-10.863 32.688-44.96 65.523-89.813 98.404-134.632 1.706-2.325 4.147-4.112 6.246-6.149 1.249.001 2.499.001 3.749.001zm-68.361 238.899c13.814 43.555 27.562 86.903 41.234 130.01h50.887c13.773-43.443 27.479-86.674 41.22-130.017-22.157-38.956-44.265-77.826-66.853-117.541-22.404 39.611-44.343 78.396-66.488 117.548zm161.472-88.9c-28.872-39.521-57.752-79.054-86.632-118.586-.915 24.095-.948 47.666-.84 71.235.007 1.58.89 3.268 1.704 4.715 20.359 36.154 40.761 72.283 61.171 108.408.639 1.13 1.435 2.172 2.52 3.798 7.475-23.551 14.729-46.411 22.077-69.57zm-167.909 69.124c.83-1.058 1.272-1.495 1.567-2.016 20.939-36.921 41.881-73.841 62.743-110.805.791-1.402 1.125-3.242 1.131-4.879.072-22.338.05-44.676.041-67.014 0-.872-.111-1.744-.256-3.895-29.553 40.458-58.403 79.955-87.289 119.5 7.345 23.011 14.62 45.795 22.063 69.109zm213.258 149.862c-21.422-37.797-42.38-74.776-63.855-112.666-12.078 38.163-23.802 75.206-35.658 112.666zm-216.82-112.294c-21.601 38.124-42.536 75.07-63.768 112.543h99.399c-11.827-37.356-23.527-74.312-35.631-112.543zm89.839 198.826c38.22-23.972 75.197-47.164 112.175-70.357-.151-.308-.302-.615-.453-.923-29.625 0-59.251 0-89.219 0-7.383 23.385-14.728 46.652-22.503 71.28zm-28.097-.894c.308-.199.616-.398.925-.596-7.347-23.26-14.695-46.519-21.955-69.505-30.185 0-59.811 0-90.759 0 38.056 23.865 74.922 46.983 111.789 70.101zm-86.732-275.805c-.309-.013-.618-.026-.926-.039-10.866 49.676-21.731 99.353-32.597 149.029.267.099.534.198.802.297 17.136-30.235 34.272-60.469 51.401-90.693-6.288-19.721-12.484-39.158-18.68-58.594zm184.267 58.243c17.304 30.508 34.305 60.482 51.306 90.456.278-.136.557-.272.835-.407-10.836-49.519-21.672-99.039-32.508-148.558-.34.031-.68.063-1.02.094-6.194 19.44-12.388 38.88-18.613 58.415zm-83.389 209.523c.398.009.796.018 1.195.027 6.633-20.648 13.267-41.296 20.002-62.26-13.856 0-27.02 0-40.832 0 6.651 21.08 13.143 41.657 19.635 62.233z" />
</svg>