<svg enable-background="new 0 0 500 500" viewBox="0 0 500 500" xmlns="http://www.w3.org/2000/svg">
    <g clip-rule="evenodd" fill-rule="evenodd">
        <path d="m313.6 3.2-51.8 33.6-9.5 107.8 72.3-80.8c0 .1-11-60.6-11-60.6z" />
        <path d="m175.3 64.4 6 108.1 50.7 35.1 12.9-60.4z" />
        <path d="m255.7 146.7 11 60.7 51.8-33.6 9.5-107.8z" />
        <path d="m326.5 180.9-35.1 50.6 60.4 12.9 82.8-69.4z" />
        <path d="m352.4 255.4-60.7 11 33.6 51.8 107.8 9.5z" />
        <path d="m318.2 326.3-50.6-35.1-12.9 60.3 69.4 82.8z" />
        <path d="m233.1 291.9-51.9 33.6-9.5 107.8 72.3-80.7z" />
        <path d="m147.5 254.5-82.8 69.4 108.1-5.9 35.1-50.6z" />
        <path d="m174 180.6-107.8-9.5 80.7 72.3 60.7-11c0 .1-33.6-51.8-33.6-51.8z" />
        <path d="m64.1 174.5-60.7 11 33.6 51.9 107.8 9.5c.1-.1-80.7-72.4-80.7-72.4z" />
        <path d="m171.4 65.3-50.7-35.2-12.9 60.4 69.5 82.9z" />
        <path d="m408.5 107.8-82.8 69.4 108.1-6 35.1-50.6z" />
        <path d="m462.2 261.6-107.8-9.5 80.7 72.3 60.7-11z" />
        <path d="m321.9 325.5 6 108.1 50.6 35.1 12.9-60.3z" />
        <path d="m174.7 435 11 60.7 51.9-33.6 9.5-107.8z" />
        <path d="m65.5 327.6-35.1 50.6 60.4 12.9 82.8-69.4z" />
        <path d="m93.5 392.8 74.9 39.6 9.1-109.1c-.1 0-84 69.5-84 69.5z" />
        <path d="m37.8 240.4 25 80.9 83.6-70.7z" />
        <path d="m106.3 93.2-39.5 74.8 109 9.2c.1 0-69.5-84-69.5-84z" />
        <path d="m177.9 62.5 70.6 83.7 10.2-108.6z" />
        <path d="m331.1 66.6-9.2 109.1 84-69.6z" />
        <path d="m436.6 177.7-83.7 70.6 108.6 10.1c.1.1-24.9-80.7-24.9-80.7z" />
        <path d="m323.4 321.7 69.6 84 39.5-74.8z" />
        <path d="m250.8 352.7-10.1 108.6 80.8-24.9z" />
    </g>
</svg>