<svg enable-background="new 0 0 500 500" viewBox="0 0 500 500" xmlns="http://www.w3.org/2000/svg">
    <g clip-rule="evenodd" fill-rule="evenodd">
        <path
            d="m398.7 100.8c-2-2-3.1-4.1-3.1-6.6s1-4.6 3.1-6.6c4.1-3.6 10.2-3.6 14.3 0 2 2 3.1 4.1 3.1 6.6s-1 4.6-3.1 6.6c-2 1.5-4.6 2.5-7.1 2.5-2.6.5-5.2-.5-7.2-2.5" />
        <path
            d="m373.8 127.3c-1.5-2-2.5-4.1-2.5-6.6s1-4.6 2.5-6.6c3.6-3.6 9.7-3.6 13.2 0 1.5 2 2.5 4.1 2.5 6.6s-1 4.6-2.5 6.6c-2 1.5-4.1 2.5-6.6 2.5s-4.6-1-6.6-2.5" />
        <path
            d="m346.8 153.2c-1.5-1.5-2.5-4.1-2.5-6.6s1-4.6 2.5-6.6c3.6-3.6 9.7-3.6 13.2 0 1.5 1.5 2.5 4.1 2.5 6.6s-1 4.6-2.5 6.6c-2 2-4.1 2.5-6.6 2.5s-5.1-.9-6.6-2.5" />
        <path
            d="m320.8 179.2c-2-1.5-3.1-4.1-3.1-6.6s1-4.6 3.1-6.6c4.1-3.6 10.2-3.6 14.3 0 2 1.5 3.1 4.1 3.1 6.6s-1 5.1-3.1 6.6c-2 2-4.6 2.5-7.1 2.5s-5.2-.5-7.2-2.5" />
        <path
            d="m295.9 205.2c-2-1.5-2.5-4.1-2.5-6.6s1-4.6 2.5-6.6c3.6-3.6 9.7-3.6 13.2 0 2 1.5 2.5 4.1 2.5 6.6s-1 5.1-2.5 6.6c-1.5 2-4.1 2.5-6.6 2.5-2.6.5-5.1-.5-6.6-2.5" />
        <path
            d="m265.8 224.5c0-2.5 1-4.6 2.5-6.6 3.6-3.6 9.7-3.6 13.2 0 2 2 2.5 4.1 2.5 6.6s-1 4.6-2.5 6.6c-1.5 1.5-4.1 2.5-6.6 2.5s-4.6-1-6.6-2.5c-1.5-1.5-2.5-4-2.5-6.6z" />
        <path
            d="m217.4 282.1c-1.5-1.5-2.5-4.1-2.5-6.6s1-4.6 2.5-6.6c3.6-3.6 9.7-3.6 13.2 0 2 2 2.5 4.1 2.5 6.6s-1 4.6-2.5 6.6-4.1 2.5-6.6 2.5c-2.5.5-4.5-.5-6.6-2.5" />
        <path
            d="m190.4 308c-2-1.5-3.1-4.1-3.1-6.6s1-4.6 3.1-6.6c4.1-3.6 10.2-3.6 14.3 0 2 2 3.1 4.1 3.1 6.6s-1 4.6-3.1 6.6c-2 2-4.6 2.5-7.1 2.5-2.6.6-5.1-.4-7.2-2.5" />
        <path
            d="m165.5 334.5c-1.5-1.5-2.5-4.1-2.5-6.6s1-5.1 2.5-6.6c3.6-3.6 9.7-3.6 13.2 0 1.5 1.5 2.5 4.1 2.5 6.6s-1 4.6-2.5 6.6c-2 2-4.1 2.5-6.6 2.5s-4.6-1-6.6-2.5" />
        <path
            d="m139.5 360.5c-2-1.5-2.5-4.1-2.5-6.6s1-4.6 2.5-6.6c3.6-3.6 9.7-3.6 13.2 0 1.5 2 2.5 4.1 2.5 6.6s-1 5.1-2.5 6.6c-2 2-4.1 2.5-6.6 2.5s-5-.5-6.6-2.5" />
        <path
            d="m112.5 386.5c-2-1.5-3.1-4.1-3.1-6.6s1-4.6 3.1-6.6c4.1-3.6 10.2-3.6 13.7 0 2 2 3.1 4.1 3.1 6.6s-1 5.1-3.1 6.6-4.6 2.5-7.1 2.5-5-.5-6.6-2.5" />
        <path
            d="m87.1 412.4c-2-2-2.5-4.1-2.5-6.6s1-4.6 2.5-6.6c3.6-3.6 9.7-3.6 13.2 0 2 2 2.5 4.1 2.5 6.6s-1 4.6-2.5 6.6c-1.5 1.5-4.1 2.5-6.6 2.5-2 .6-4.6-.4-6.6-2.5" />
        <path
            d="m100.3 100.8c1.5-2 2.5-4.1 2.5-6.6s-1-4.6-2.5-6.6c-3.6-3.6-9.7-3.6-13.2 0-2 2-2.5 4.1-2.5 6.6s1 4.6 2.5 6.6c1.5 1.5 4.1 2.5 6.6 2.5 2.5.5 5.1-.5 6.6-2.5" />
        <path
            d="m126.3 127.3c2-2 3.1-4.1 3.1-6.6s-1-4.6-3.1-6.6c-4.1-3.6-10.2-3.6-14.3 0-2 2-3.1 4.1-3.1 6.6s1 4.6 3.1 6.6c2 1.5 4.6 2.5 7.1 2.5s5.1-1 7.2-2.5" />
        <path
            d="m152.8 153.2c1.5-1.5 2.5-4.1 2.5-6.6s-1-4.6-2.5-6.6c-3.6-3.6-9.7-3.6-13.2 0-1.5 1.5-2.5 4.1-2.5 6.6s1 4.6 2.5 6.6c2 2 4.1 2.5 6.6 2.5 2 .1 4.5-.9 6.6-2.5" />
        <path
            d="m178.7 179.2c1.5-1.5 2.5-4.1 2.5-6.6s-1-4.6-2.5-6.6c-3.6-3.6-9.7-3.6-13.2 0-1.5 1.5-2.5 4.1-2.5 6.6s1 5.1 2.5 6.6c2 2 4.1 2.5 6.6 2.5 2 .1 4.6-.5 6.6-2.5" />
        <path
            d="m204.2 205.2c2-1.5 3.1-4.1 3.1-6.6s-1-4.6-3.1-6.6c-3.6-3.6-10.2-3.6-13.7 0-2 1.5-3.1 4.1-3.1 6.6s1 5.1 3.1 6.6c2 2 4.6 2.5 7.1 2.5 2.5.5 5.1-.5 6.6-2.5" />
        <path
            d="m233.2 224.5c0-2.5-1-4.6-2.5-6.6-3.6-3.6-9.7-3.6-13.2 0-2 2-2.5 4.1-2.5 6.6s1 4.6 2.5 6.6c1.5 1.5 4.1 2.5 6.6 2.5s4.6-1 6.6-2.5 2.5-4 2.5-6.6z" />
        <path
            d="m256.6 257.6c2-2 2.5-4.1 2.5-6.6s-1-4.6-2.5-6.6c-3.6-3.6-9.7-3.6-13.2 0-2 2-2.5 4.1-2.5 6.6s1 4.6 2.5 6.6c1.5 1.5 4.1 2.5 6.6 2.5s5.1-.9 6.6-2.5" />
        <path
            d="m282.6 282.1c2-1.5 3.1-4.1 3.1-6.6s-1-4.6-3.1-6.6c-4.1-3.6-10.2-3.6-13.7 0-2 2-3.1 4.1-3.1 6.6s1 4.6 3.1 6.6c2 2 4.6 2.5 7.1 2.5 2 .5 4.6-.5 6.6-2.5" />
        <path
            d="m309.1 308c1.5-1.5 2.5-4.1 2.5-6.6s-1-4.6-2.5-6.6c-3.6-3.6-9.7-3.6-13.2 0-1.5 2-2.5 4.1-2.5 6.6s1 4.6 2.5 6.6c2 2 4.1 2.5 6.6 2.5 2 .6 4.6-.4 6.6-2.5" />
        <path
            d="m335.1 334.5c1.5-1.5 2.5-4.1 2.5-6.6s-1-5.1-2.5-6.6c-3.6-3.6-9.7-3.6-13.2 0-1.5 1.5-2.5 4.1-2.5 6.6s1 4.6 2.5 6.6c2 2 4.1 2.5 6.6 2.5s4.5-1 6.6-2.5" />
        <path
            d="m359.5 360.5c2-1.5 2.5-4.1 2.5-6.6s-1-4.6-2.5-6.6c-3.6-3.6-9.7-3.6-13.2 0-1.5 2-2.5 4.1-2.5 6.6s1 5.1 2.5 6.6c2 2 4.1 2.5 6.6 2.5s5.1-.5 6.6-2.5" />
        <path
            d="m387 386.5c2-1.5 2.5-4.1 2.5-6.6s-1-4.6-2.5-6.6c-3.6-3.6-9.7-3.6-13.2 0-2 2-2.5 4.1-2.5 6.6s1 5.1 2.5 6.6 4.1 2.5 6.6 2.5 5.1-.5 6.6-2.5" />
        <path
            d="m413 412.4c2-2 3.1-4.1 3.1-6.6s-1-4.6-3.1-6.6c-4.1-3.6-10.2-3.6-13.7 0-2 2-3.1 4.1-3.1 6.6s1 4.6 3.1 6.6c2 1.5 4.6 2.5 7.1 2.5 2 .6 4.5-.4 6.6-2.5" />
        <path
            d="m161.9 107.9c26.5-17.3 55.5-25.5 87.6-26 31.6 0 60.6 8.7 87.6 26l56-56c-43.8-33.1-91.1-49.9-143.6-49.9s-100.3 16.8-143.1 49.9z" />
        <path
            d="m105.9 337.6c-17.8-27-26.5-56-26.5-87.1 0-31.6 8.7-60.6 26.5-87.1l-55.5-55.5c-32.6 42.8-48.9 90.1-48.9 143.1 0 51.9 16.3 99.8 49.4 143.1z" />
        <path
            d="m337.1 393.1c-26.5 17.8-55.5 27-87.1 27.5-32.1 0-61.6-8.7-88.1-27l-56 55.5c43.3 33.6 91.1 50.4 144.1 49.9 52.4-.5 99.8-17.3 142.6-49.9z" />
        <path
            d="m391.6 162.9c17.8 27 27 56.5 26.5 88.6-.5 31.1-9.2 59.6-26.5 85.5l56 55.5c33.1-42.8 49.9-90.1 49.9-142.1.5-53-16.3-100.8-49.9-144.1z" />
        <path
            d="m450.1 410.4c21.4 0 39.2 17.3 39.2 39.2 0 21.4-17.3 39.2-39.2 39.2-21.4 0-39.2-17.3-39.2-39.2s17.3-39.2 39.2-39.2" />
        <path
            d="m49.9 410.4c21.4 0 38.7 17.3 38.7 39.2 0 21.4-17.3 39.2-38.7 39.2s-38.7-17.3-38.7-39.2 17.3-39.2 38.7-39.2" />
        <path
            d="m450.7 10.7c21.4 0 38.7 17.3 38.7 39.2s-17.4 39.2-38.7 39.2c-21.4 0-38.7-17.3-38.7-39.2s17.3-39.2 38.7-39.2" />
        <path
            d="m49.4 10.7c21.4 0 39.2 17.3 39.2 38.7s-17.3 38.7-39.2 38.7c-21.4 0-39.2-17.3-39.2-38.7s17.3-38.7 39.2-38.7" />
    </g>
</svg>