<svg xmlns:xlink="http://www.w3.org/1999/xlink" enable-background="new 0 0 500 500"
    viewBox="0 0 500 500" xmlns="http://www.w3.org/2000/svg">
    <linearGradient id="a">
        <stop offset="0" stop-color="#13429b" />
        <stop offset="1" stop-color="#3ea8ff" />
    </linearGradient>
    <linearGradient gradientUnits="userSpaceOnUse" id="b" x1="-2.5815" x2="487.7696" y1="-4.8847"
        y2="485.4665" xlink:href="#a" />
    <linearGradient gradientUnits="userSpaceOnUse" id="c" x1="-3.422" x2="486.9291" y1="-4.0441"
        y2="486.307" xlink:href="#a" />
    <circle cx="250.5" cy="248.2" fill="url(#b)" r="115.8" />
    <path
        d="m267.3 3h-226.6c-20.3 0-36.8 16.5-36.8 36.9v227.1c0 126.6 102.6 229.2 229.2 229.2h226.6c20.3 0 36.8-16.5 36.8-36.8v-227.2c0-126.6-102.6-229.2-229.2-229.2zm-235.2 67.7c0-20.4 16.5-36.9 36.9-36.9s36.9 16.5 36.9 36.9-16.5 36.9-36.9 36.9-36.9-16.5-36.9-36.9zm218.4 362.8c-102.3 0-185.3-82.9-185.3-185.3 0-102.3 82.9-185.3 185.3-185.3 102.3 0 185.3 82.9 185.3 185.3 0 102.3-83 185.3-185.3 185.3zm180 32.6c-20.4 0-36.9-16.5-36.9-36.9s16.5-36.9 36.9-36.9 36.9 16.5 36.9 36.9c0 20.3-16.5 36.9-36.9 36.9z"
        fill="url(#c)" />
    <g fill="#fff">
        <path
            d="m250.5 132.4c63.8 0 115.8 51.9 115.8 115.8s-52 115.8-115.8 115.8-115.8-52-115.8-115.8 52-115.8 115.8-115.8m0-69.5c-102.3 0-185.3 82.9-185.3 185.3 0 102.3 82.9 185.3 185.3 185.3 102.3 0 185.3-82.9 185.3-185.3 0-102.3-83-185.3-185.3-185.3z" />
        <circle cx="69" cy="70.7" r="36.9" />
        <circle cx="430.5" cy="429.2" r="36.9" />
    </g>
</svg>