<svg enable-background="new 0 0 500 500" viewBox="0 0 500 500" xmlns="http://www.w3.org/2000/svg">
    <path
        d="m95.7 272.3c54.4 28.9 111.1 59.1 155 82.5l153.7-82.5c-55.7 82.7-102.1 151.5-153.8 227.7-51.7-76-108.9-159.9-154.9-227.7zm5.9-22.8 149.2-79.6 147.3 79.1-147.2 79.7zm149-105.2-155 81.6 154.4-225.9 154.4 226.4z"
        fill="#3ab83a" />
    <path
        d="m250.6 354.8 153.7-82.5c-55.6 82.7-153.7 227.7-153.7 227.7zm.2-185 147.3 79.1-147.2 79.7zm-.2-25.5-.6-144.3 154.4 226.4z"
        fill="#0b8311" />
    <path d="m101.6 249.5 149.2 12.2 147.3-12.7-147.2 79.7z" fill="#0b8311" />
    <path d="m250.8 261.7 147.3-12.7-147.2 79.7z" fill="#146714" />
</svg>