<svg enable-background="new 1500 0 500 500" viewBox="1500 0 500 500"
    xmlns="http://www.w3.org/2000/svg">
    <g fill="#091b26">
        <path
            d="m1836.763 193.475 40.863 30.935 25.797 19.52-28.806 14.717-57.935 29.591 19.874 13.74 27.805 19.22-30.036 15.502-184.279 95.028c30.609 16.874 65.002 25.7 99.954 25.649 114.531 0 207.377-92.846 207.377-207.377.073-48.576-16.979-95.623-48.159-132.872z" />
        <path
            d="m1663.237 317.342-40.863-30.925-25.797-19.52 28.806-14.717 57.935-29.599-19.874-13.74-27.805-19.22 30.036-15.502 194.067-100.085c-32.9-20.58-70.936-31.467-109.743-31.412-114.531 0-207.377 92.846-207.377 207.377 0 53.245 20.073 101.795 53.058 138.517z" />
        <path
            d="m1583.043 401.831c-36.535-40.12-58.821-93.424-58.821-151.831 0-124.494 101.283-225.777 225.777-225.777 45.907-.05 90.727 13.976 128.416 40.186l20.177-10.403c-41.31-31.399-92.815-50.066-148.592-50.066-135.677 0-246.06 110.382-246.06 246.06 0 64.19 24.717 122.708 65.12 166.563z" />
        <path
            d="m1921.89 103.789c33.582 39.421 53.887 90.486 53.887 146.211 0 124.494-101.283 225.777-225.777 225.777-42.151.047-83.462-11.778-119.204-34.121l-20.669 10.662c41.059 28.53 89.874 43.796 139.873 43.742 135.677 0 246.06-110.382 246.06-246.06 0-61.515-22.687-117.818-60.132-161.002z" />
    </g>
    <path
        d="m1634.613 270.244 58.951 44.611-133.148 140.281 264.6-136.475-47.797-33.043 88.168-45.044-58.951-44.611 133.148-140.281-264.6 136.475 47.797 33.043z"
        fill="#23bee2" />
</svg>