<svg enable-background="new 0 0 500 500" viewBox="0 0 500 500" xmlns="http://www.w3.org/2000/svg">
    <g fill="#178afd">
        <path
            d="m250.3 81.2 170.1 170.1-170.1 170.1-170.1-170.1zm0-10.5-5.2 5.2-170.1 170.1-5.2 5.2 5.2 5.2 170.1 170.1 5.2 5.2 5.2-5.2 170.1-170.1 5.2-5.2-5.2-5.2-170-170.1z" />
        <path
            d="m250.3 18.3 135.9 233-135.9 231-135.1-231zm0-14.8-6.4 11-135.1 233-2.2 3.7 2.2 3.7 135.1 231 6.4 10.9 6.4-10.9 135.9-231 2.2-3.7-2.2-3.8-135.9-233z" />
        <path d="m208 209h84.6v84.6h-84.6z"
            transform="matrix(.7071 -.7071 .7071 .7071 -104.3675 250.6169)" />
    </g>
</svg>