<svg enable-background="new 1000 -1000 2500 2500" viewBox="1000 -1000 2500 2500"
    xmlns="http://www.w3.org/2000/svg">
    <path
        d="m2250-968.247c-672.838 0-1218.247 545.409-1218.247 1218.247-.255 198.14 48.012 393.329 140.584 568.515l137.267-137.267 286.545-293.123c61.285 39.642 140.507 38.08 200.181-3.946l124.742 124.742 113.932-113.932-162.376-162.433c-2.502-99.154-84.911-177.506-184.065-175.004-97.429 2.459-175.116 82.176-175.061 179.636 0 4.232.343 8.35.629 12.526l-264.239 264.182c-145.416-552.348 184.466-1117.999 736.814-1263.417s1118 184.465 1263.418 736.813c46.057 174.942 45.42 358.906-1.848 533.525l-419.866-419.867-.915.915c.642-6.118.967-12.265.972-18.417 0-101.649-82.403-184.052-184.052-184.052s-184.053 82.404-184.053 184.053c.037 8.134.63 16.255 1.773 24.308l-912.027 903.676-11.096 10.695-119.137 119.365c225.189 210.359 521.967 327.177 830.124 326.753 672.838 0 1218.247-545.408 1218.247-1218.247s-545.408-1218.246-1218.246-1218.246zm0 2252.441c-203.202.3-401.948-59.541-571.203-171.984l886.518-862.782c56.032 26.922 121.899 23.562 174.901-8.922l447.148 447.148c-170.05 364.047-535.559 596.658-937.364 596.54z"
        fill="#004da7" />
    <g fill="#fff">
        <circle cx="2648.761" cy="87.853" r="83.275" />
        <circle cx="1693.438" cy="236.845" r="83.275" />
    </g>
</svg>