<svg xmlns:xlink="http://www.w3.org/1999/xlink" enable-background="new 0 0 500 500"
    viewBox="0 0 500 500" xmlns="http://www.w3.org/2000/svg">
    <linearGradient id="a">
        <stop offset="0" stop-color="#4d92f5" />
        <stop offset="1" stop-color="#2be5cf" />
    </linearGradient>
    <linearGradient gradientUnits="userSpaceOnUse" id="b" x1="252.74" x2="252.74" y1="479.7798"
        y2="16.4394" xlink:href="#a" />
    <linearGradient gradientUnits="userSpaceOnUse" id="c" x1="351.744" x2="351.744" y1="479.7798"
        y2="16.4394" xlink:href="#a" />
    <linearGradient gradientUnits="userSpaceOnUse" id="d" x1="153.6593" x2="153.6593" y1="479.7798"
        y2="16.4394" xlink:href="#a" />
    <linearGradient gradientUnits="userSpaceOnUse" id="e" x1="251.8533" x2="251.8533" y1="479.7798"
        y2="16.4394" xlink:href="#a" />
    <linearGradient gradientUnits="userSpaceOnUse" id="f" x1="85.3665" x2="85.3665" y1="500.2807"
        y2="17.5272" xlink:href="#a" />
    <linearGradient gradientUnits="userSpaceOnUse" id="g" x1="252.74" x2="252.74" y1="500.2807"
        y2="17.5272" xlink:href="#a" />
    <linearGradient gradientUnits="userSpaceOnUse" id="h" x1="420.1134" x2="420.1134" y1="500.2807"
        y2="17.5272" xlink:href="#a" />
    <path
        d="m252.7 66.3 159.1 91.9v183.7l-159.1 91.9-159-91.9v-183.7zm0-15.8c-2.7 0-5.5.7-7.9 2.1l-159.1 91.9c-4.9 2.8-7.9 8-7.9 13.7v183.7c0 5.6 3 10.9 7.9 13.7l159.1 91.9c2.4 1.4 5.2 2.1 7.9 2.1s5.5-.7 7.9-2.1l159.1-91.9c4.9-2.8 7.9-8 7.9-13.7v-183.7c0-5.6-3-10.9-7.9-13.7l-159.1-91.9c-2.4-1.4-5.1-2.1-7.9-2.1z"
        fill="url(#b)" />
    <path d="m324.4 217-7-11.7 61.6-37.1 7.1 11.6z" fill="url(#c)" />
    <path d="m181 217-61.7-37.2 7.1-11.6 61.6 37.1z" fill="url(#d)" />
    <path d="m245 335.2h13.6v62.3h-13.6z" fill="url(#e)" />
    <path d="m133.1 180.9v-55.1l-47.7-27.5-47.8 27.5v55.1l47.8 27.6z" fill="url(#f)" />
    <path
        d="m85.4 98.3 47.7 27.6v55.1l-47.7 27.6-47.7-27.6v-55.1zm0-6.8c-1.2 0-2.4.3-3.4.9l-47.7 27.6c-2.1 1.2-3.4 3.5-3.4 5.9v55.1c0 2.4 1.3 4.7 3.4 5.9l47.7 27.5c1.1.6 2.2.9 3.4.9s2.4-.3 3.4-.9l47.7-27.6c2.1-1.2 3.4-3.5 3.4-5.9v-55.1c0-2.4-1.3-4.7-3.4-5.9l-47.7-27.5c-1.1-.6-2.3-.9-3.4-.9z"
        fill="#fff" />
    <path d="m133.1 374.2v-55.1l-47.7-27.6-47.8 27.6v55.1l47.8 27.5z" fill="url(#f)" />
    <path
        d="m85.4 291.5 47.7 27.6v55.1l-47.7 27.6-47.7-27.6v-55.1zm0-6.8c-1.2 0-2.4.3-3.4.9l-47.7 27.6c-2.1 1.2-3.4 3.5-3.4 5.9v55.1c0 2.4 1.3 4.7 3.4 5.9l47.7 27.6c1.1.6 2.2.9 3.4.9s2.4-.3 3.4-.9l47.7-27.6c2.1-1.2 3.4-3.5 3.4-5.9v-55.1c0-2.4-1.3-4.7-3.4-5.9l-47.7-27.6c-1.1-.6-2.3-.9-3.4-.9z"
        fill="#fff" />
    <path d="m300.5 84.8v-55.1l-47.8-27.6-47.7 27.6v55.1l47.7 27.5z" fill="url(#g)" />
    <path
        d="m252.7 2.1 47.7 27.6v55.1l-47.7 27.6-47.7-27.6v-55.1zm0-6.8c-1.2 0-2.4.3-3.4.9l-47.7 27.6c-2.1 1.2-3.4 3.5-3.4 5.9v55.1c0 2.4 1.3 4.7 3.4 5.9l47.7 27.6c1.1.6 2.2.9 3.4.9s2.4-.3 3.4-.9l47.7-27.6c2.1-1.2 3.4-3.5 3.4-5.9v-55.1c0-2.4-1.3-4.7-3.4-5.9l-47.7-27.6c-1-.6-2.2-.9-3.4-.9z"
        fill="#fff" />
    <path d="m300.5 470.4v-55.1l-47.8-27.6-47.7 27.6v55.1l47.7 27.5z" fill="url(#g)" />
    <path
        d="m252.7 387.7 47.7 27.6v55.1l-47.7 27.6-47.7-27.6v-55.1zm0-6.8c-1.2 0-2.4.3-3.4.9l-47.7 27.6c-2.1 1.2-3.4 3.5-3.4 5.9v55.1c0 2.4 1.3 4.7 3.4 5.9l47.7 27.6c1.1.6 2.2.9 3.4.9s2.4-.3 3.4-.9l47.7-27.6c2.1-1.2 3.4-3.5 3.4-5.9v-55.1c0-2.4-1.3-4.7-3.4-5.9l-47.7-27.6c-1-.6-2.2-.9-3.4-.9z"
        fill="#fff" />
    <path d="m335.1 297.6v-95.1l-82.4-47.5-82.3 47.5v95.1l82.3 47.5z" fill="url(#g)" />
    <path
        d="m252.7 155 82.3 47.5v95.1l-82.3 47.5-82.3-47.5v-95.1zm0-8.2c-1.4 0-2.8.4-4.1 1.1l-82.3 47.5c-2.5 1.5-4.1 4.2-4.1 7.1v95.1c0 2.9 1.6 5.6 4.1 7.1l82.3 47.5c1.3.7 2.7 1.1 4.1 1.1s2.8-.4 4.1-1.1l82.3-47.5c2.5-1.5 4.1-4.2 4.1-7.1v-95.1c0-2.9-1.6-5.6-4.1-7.1l-82.3-47.5c-1.2-.8-2.6-1.1-4.1-1.1z"
        fill="#fff" />
    <path d="m467.8 181.9v-55.1l-47.7-27.6-47.7 27.6v55.1l47.7 27.5z" fill="url(#h)" />
    <path
        d="m420.1 99.2 47.7 27.6v55.1l-47.7 27.6-47.7-27.6v-55.1zm0-6.8c-1.2 0-2.4.3-3.4.9l-47.7 27.5c-2.1 1.2-3.4 3.5-3.4 5.9v55.1c0 2.4 1.3 4.7 3.4 5.9l47.7 27.6c1.1.6 2.2.9 3.4.9s2.4-.3 3.4-.9l47.7-27.6c2.1-1.2 3.4-3.5 3.4-5.9v-55.1c0-2.4-1.3-4.7-3.4-5.9l-47.7-27.6c-1-.5-2.2-.8-3.4-.8z"
        fill="#fff" />
    <path d="m467.8 375.1v-55.1l-47.7-27.5-47.7 27.5v55.1l47.7 27.6z" fill="url(#h)" />
    <path
        d="m420.1 292.5 47.7 27.6v55.1l-47.7 27.6-47.7-27.6v-55.2zm0-6.9c-1.2 0-2.4.3-3.4.9l-47.7 27.6c-2.1 1.2-3.4 3.5-3.4 5.9v55.1c0 2.4 1.3 4.7 3.4 5.9l47.7 27.6c1.1.6 2.2.9 3.4.9s2.4-.3 3.4-.9l47.7-27.6c2.1-1.2 3.4-3.5 3.4-5.9v-55.1c0-2.4-1.3-4.7-3.4-5.9l-47.7-27.6c-1-.5-2.2-.9-3.4-.9z"
        fill="#fff" />
</svg>