<svg enable-background="new 0 0 500 500" viewBox="0 0 500 500" xmlns="http://www.w3.org/2000/svg">
    <path
        d="m277.59 90.771h48.818s-12.198 2.054-17.993 6.927c-9.845 8.279-11.256 22.254-11.256 22.254s0-12.673-5.3-20.278c-5.987-8.588-14.269-8.903-14.269-8.903z"
        fill="#aa1422" />
    <path
        d="m327.39 326.759-59.319 1.558s13.334-.986 21.501-9.522c7.714-8.063 7.588-22.005 7.588-22.005s.62 10.988 7.642 19.381c5.246 6.271 11.709 10.234 22.588 10.588z"
        fill="#aa1422" />
    <path d="m54.521 410.924h51.62l60.007-82.561h-47.018z" fill="#466790" />
    <path d="m444.946 407.784h-45.577l-63.807-81.025h45.846z" fill="#aa1422" />
    <path d="m246.814 156.019-46.923.819.31 105.3 46.613.12z" fill="#aa1422" />
    <path
        d="m220.081 90.771h57.509s9.659 1.215 13.988 8.21c4.33 6.994 5.581 14.98 5.581 23.56s0 44.067 0 44.067l-50.345-10.589v-36.824s0-12.72-8.686-20.554c-7.748-6.988-18.047-7.87-18.047-7.87z"
        fill="#466790" />
    <path
        d="m246.814 262.258 50.345-9.222v44.944s1.747 13.156-7.745 21.482-16.486 8.901-23.813 8.901-44.289 0-44.289 0 13.599-2.371 18.726-8.939c4.667-5.979 6.776-12.286 6.776-16.615s0-40.551 0-40.551z"
        fill="#466790" />
    <path
        d="m464.424 326.759h-19.478v81.025l-63.539-81.025h-54.279c-16.483 0-29.969-13.486-29.969-29.969v-43.754l-50.345 9.223v-106.24l50.345 10.59v-44.067c0-16.483 12.766-31.77 29.249-31.77l137.327 1.366c16.483 0 30.659 13.323 30.659 34.502v170.15c0 16.483-13.487 29.969-29.97 29.969z"
        fill="#f0081d" />
    <path
        d="m220.174 328.363h-101.044l-64.609 82.561.622-82.561h-17.085c-14.652 0-33.857-17.095-33.857-31.747l1.608-174.671c0-14.652 15.423-29.406 30.075-29.406l184.197-1.769c14.652 0 26.733 13.771 26.733 28.423v36.824l-46.923.819.311 105.3 46.612.12v39.466c0 14.654-11.988 26.641-26.64 26.641z"
        fill="#2c3b4d" />
</svg>