<svg enable-background="new 0 0 500 500" viewBox="0 0 500 500" xmlns="http://www.w3.org/2000/svg">
    <path d="m492.2 149.4c-41.8 0-82.7 0-122.5 0 40.7-40.6 81.9-81.7 122.5-122.2z" />
    <path d="m346.7 3.5h121.7c-40.4 40.1-81.5 81.1-121.7 121 0-38.1 0-79.1 0-121z" />
    <path
        d="m281 110.2v20.5c-30.1 0-59.8 0-90.2 0 0-36.1 0-71.9 0-108.6h88.7v20c-20.7 0-41.3 0-62.7 0v22.1h48.4v21.3c-16.1 0-32.1 0-48.7 0v24.7z" />
    <path
        d="m442.9 432.1c0-14.5 0-28 0-42.3h22v108.5c-7.1 0-13.8 0-22 0 0-14.2 0-28.6 0-43.5-16.2 0-31 0-46.8 0v43.4c-7.7 0-14.3 0-21.6 0 0-36.1 0-72 0-108.5h21.1v42.4z" />
    <path
        d="m33.3 42.4v24.5h49.5v20.8c-16.5 0-32.8 0-49.9 0v42.8c-9.3 0-17.8 0-27.5 0 0-18.4 0-36.5 0-54.6 0-17.8 0-35.6 0-54.1h91.6v20.6c-21.3 0-42.3 0-63.7 0z" />
    <path
        d="m463.5 226.1c-4.2 4.2-8.5 8.5-12.7 12.7-21.5-16.7-41.5-17.7-54.7-3-12.8 14.4-12.8 34.9.1 48.6 13.7 14.6 35.4 13.4 56.3-3.7 3.9 4.1 7.9 8.3 11.7 12.3-10 17.3-35 25.8-57.9 20.1-23-5.7-40.3-26.4-41.6-49.6-1.3-24.8 13.5-47 36.7-55.1 23.6-8.1 48.5-1.1 62.1 17.7z" />
    <path
        d="m280.8 205v20.5c-10.5 0-21 0-32.8 0v88.9c-8.5 0-15.8 0-24.3 0 0-29.4 0-58.4 0-88.2-11.5 0-21.8 0-32.9 0 0-7.3 0-13.9 0-21.1 29.9-.1 59.7-.1 90-.1z" />
</svg>