<svg viewBox="0 0 500 500" xmlns="http://www.w3.org/2000/svg">
    <g fill="#6868fc">
        <path d="m248.2 10h3.4v112.2h-3.4z"
            transform="matrix(1 -.00117552 .00117552 1 -.077458 .2938)" />
        <path d="m407.9 286.2h3.4v110.6h-3.4z"
            transform="matrix(.5073 -.8618 .8618 .5073 -92.5227 521.283)" />
        <path d="m35.6 339.9h110.6v3.4h-110.6z"
            transform="matrix(.8618 -.5073 .5073 .8618 -160.704 93.3388)" />
    </g>
    <path
        d="m249.8 252.3c-.4 0-.9-.1-1.3-.3l-111.5-64.4c-.8-.5-1.3-1.3-1.3-2.2s.5-1.7 1.3-2.2l111.5-64.4c.8-.5 1.8-.5 2.5 0l111.3 64.6c.8.5 1.3 1.3 1.3 2.2s-.5 1.7-1.3 2.2l-111.3 64.2c-.4.2-.8.3-1.2.3zm-106.4-66.9 106.4 61.5 106.2-61.3-106.2-61.6z"
        fill="#77e3ef" />
    <path
        d="m249.8 380.4c-.4 0-.9-.1-1.3-.3l-111.3-63.9c-.8-.5-1.3-1.3-1.3-2.2l-.1-128.5c0-.9.5-1.7 1.3-2.2s1.8-.5 2.5 0l111.4 64.3c.8.5 1.3 1.3 1.3 2.2v128.1c0 .9-.5 1.7-1.3 2.2-.4.1-.8.3-1.2.3zm-108.8-67.9 106.2 61v-122.3l-106.4-61.5z"
        fill="#4acbdc" />
    <path
        d="m249.8 380.4c-.4 0-.9-.1-1.3-.3-.8-.5-1.3-1.3-1.3-2.2v-128.1c0-.9.5-1.7 1.3-2.2l111.3-64.1c.8-.5 1.8-.5 2.5 0 .8.5 1.3 1.3 1.3 2.2v128.6c0 .9-.5 1.8-1.3 2.2l-111.3 63.5c-.4.2-.8.4-1.2.4zm2.5-129.2v122.2l106.2-60.7v-122.7z"
        fill="#07abc5" />
    <path
        d="m249.8 496.2-213.3-123.2v-246.3l213.3-123.2 213.4 123.2v246.3zm-201.5-130 201.5 116.3 201.5-116.3v-232.7l-201.5-116.3-201.5 116.3z"
        fill="#7c7cff" />
    <path
        d="m249.8 256.9-210-121.5c-2.8-1.6-3.8-5.3-2.2-8.1s5.3-3.8 8.1-2.2l204.1 118 204.8-118.1c2.8-1.6 6.5-.7 8.1 2.2 1.6 2.8.7 6.5-2.2 8.1z"
        fill="#7c7cff" />
    <path
        d="m250.2 495.3c-3.3 0-5.9-2.7-5.9-5.9v-239.3c0-3.3 2.7-5.9 5.9-5.9s5.9 2.7 5.9 5.9v239.3c0 3.2-2.7 5.9-5.9 5.9z"
        fill="#7c7cff" />
</svg>