<svg enable-background="new 0 0 500 500" viewBox="0 0 500 500" xmlns="http://www.w3.org/2000/svg">
    <path d="m349.3 120.7h-98.3-78.3v48.7 229.2h78.3v-229.2h98.3z" fill="#00a3e0" />
    <path d="m279.3 238.5h70v70h-70z" fill="#fff"
        transform="matrix(.7071 -.7071 .7071 .7071 -101.3245 302.3761)" />
    <path
        d="m249.5 500c-138.1 0-250-111.9-250-250s111.9-250 250-250 250 111.9 250 250c-.1 138-112 249.9-250 250zm0-463c-117.6 0-213 95.4-213 213s95.4 213 213 213 213-95.4 213-213c-.1-117.6-95.4-212.9-213-213z"
        fill="#6363ff" />
</svg>