<svg enable-background="new 0 0 500 500" viewBox="0 0 500 500" xmlns="http://www.w3.org/2000/svg">
    <path clip-rule="evenodd"
        d="m443.1 43.4-21.9 131.5-77.9-91.8zm-21.4 188.1 19.5 72.1-149.2 41zm-324.8-36.2 80-104.5h138.9l88.8 104.5zm297.4 25.8-144.6 126.2-147.3-126.2zm-244.2-137.9-71.5 93.4-21.9-132.7zm56.7 261.4-150.6-41 20.6-70.3zm27.9 34.4-28.4 31.3c-24.1-22.9-50.6-43.2-78.9-60.5zm137.8-29.8c-28.3 17.6-54.7 38.2-78.6 61.3l-29-31.6zm103.6-346.7-156.8 62.4h-146.2l-149.5-62.9 34 205.4-32.6 111.1 85.1 50.9c40.3 24.1 76.4 54.3 107.3 89.6l33.1 37.9 34.8-39.9c29.8-34.2 64.6-63.6 103.3-87.4l83.5-51.2-30.1-111z"
        fill="#0a1832" fill-rule="evenodd" />
</svg>