<svg enable-background="new 0 0 500 500" viewBox="0 0 500 500" xmlns="http://www.w3.org/2000/svg">
    <path
        d="m425.2 360.9c6.8-10.4 12.6-21.3 17.5-32.8 10.9-25.8 16.5-53.2 16.5-81.4s-5.5-55.6-16.5-81.4c-4.8-11.4-10.6-22.3-17.3-32.6l71.2-71.2-61.2-61.2-71.1 71.1c-10.3-6.8-21.3-12.6-32.8-17.4-25.8-10.9-53.2-16.5-81.4-16.5s-55.6 5.5-81.4 16.5c-11.5 4.9-22.5 10.7-32.8 17.5l-72.1-72-61.1 61.2 72 72c-6.7 10.3-12.5 21.1-17.3 32.5-10.9 25.8-16.5 53.2-16.5 81.4s5.5 55.6 16.5 81.4c4.9 11.5 10.7 22.4 17.4 32.8l-74.4 74.4 61.2 61.2 74.4-74.4c10.3 6.7 21.2 12.5 32.6 17.3 25.8 10.9 53.2 16.5 81.4 16.5s55.6-5.5 81.4-16.5c11.4-4.8 22.3-10.6 32.5-17.3l73.6 73.6 61.2-61.2zm-175.2 11.3c-18.8 0-36.6-4.1-52.7-11.5-26.9-12.5-48.7-34.2-61.2-61.1-7.5-16.1-11.7-34-11.7-52.9 0-18.8 4.1-36.6 11.5-52.6 12.4-27 34.2-48.7 61.1-61.3 16.1-7.5 34-11.7 53-11.7 18.9 0 36.8 4.2 52.9 11.7 26.9 12.5 48.7 34.3 61.1 61.2 7.4 16 11.5 33.9 11.5 52.7 0 18.9-4.2 36.9-11.7 53-12.5 26.9-34.3 48.6-61.3 61.1-15.9 7.3-33.7 11.4-52.5 11.4z" />
</svg>