<svg xmlns:xlink="http://www.w3.org/1999/xlink" enable-background="new 0 0 500 500"
    viewBox="0 0 500 500" xmlns="http://www.w3.org/2000/svg">
    <linearGradient id="a">
        <stop offset="0" stop-color="#a97a3a" />
        <stop offset=".4906" stop-color="#e8c787" />
        <stop offset="1" stop-color="#cda765" />
    </linearGradient>
    <linearGradient gradientUnits="userSpaceOnUse" id="b" x1="92.3008" x2="458.5057" y1="303.7227"
        y2="303.7227" xlink:href="#a" />
    <linearGradient gradientUnits="userSpaceOnUse" id="c" x1="92.3008" x2="458.5057" y1="347.7541"
        y2="347.7541" xlink:href="#a" />
    <linearGradient gradientUnits="userSpaceOnUse" id="d" x1="37.99" x2="397.1417" y1="195.3515"
        y2="195.3515">
        <stop offset="0" stop-color="#cacacc" />
        <stop offset=".2127" stop-color="#eaebeb" />
        <stop offset="1" stop-color="#b8b6b9" />
    </linearGradient>
    <linearGradient gradientUnits="userSpaceOnUse" id="e" x1="92.3008" x2="458.5057" y1="249.2802"
        y2="249.2802" xlink:href="#a" />
    <path d="m465.7 126.5v246.2l-213.8 123.1-53.3-30.6 212.6-122v-216.1l28.6-15.5z"
        fill="url(#b)" />
    <path d="m370.2 255.5.2 61.9-214.1 122.6-53.8-30.8z" fill="url(#c)" />
    <path
        d="m397.1 89.6-53.7-30.8-252.9 146.6v-49.8l212.9-122.5-51.5-29.7-213.9 123.1v246.2l25.2 14.6 27.3-15.5v-104.4z"
        fill="url(#d)" />
    <path d="m370.2 151.3.2 61.9-239.6 134.1v-58.5z" fill="url(#e)" />
</svg>