<svg enable-background="new 0 0 500 500" viewBox="0 0 500 500" xmlns="http://www.w3.org/2000/svg">
    <linearGradient gradientUnits="userSpaceOnUse" id="a" x1="250" x2="250" y1="496.2086"
        y2="3.7914">
        <stop offset="0" stop-color="#291c19" />
        <stop offset=".5156" stop-color="#402a27" />
        <stop offset="1" stop-color="#4c3835" />
    </linearGradient>
    <circle cx="250" cy="250" fill="url(#a)" r="246.2" />
    <path
        d="m356.4 125.9-1.3 3.6-4.4 11.6-2.9 7.5c-22.1 56.3-39.2 83-57.5 83-10.5 0-16.7-3.1-24.8-10.5l-2.3-2.2c-5.8-5.5-8.2-6.9-13.8-6.9-2.9 0-8.1 3.8-14.7 12.8-6.8 9.3-14.3 23-22.4 41.1l-.7 1.7h78.3l-9.7 20.8h-73.2v85.6h-21.5v-248.1zm-30.4 20.8h-118.9v82.7c14.3-25.5 27.8-38.3 42.4-38.3 11.3 0 18 3.3 26.4 10.9l2.4 2.2c5.4 5.1 7.5 6.3 12.1 6.3 5 .2 18.6-21.9 35.6-63.8z"
        fill="#fff" />
</svg>