<svg enable-background="new 0 0 500 500" viewBox="0 0 500 500" xmlns="http://www.w3.org/2000/svg">
    <circle cx="248.833" cy="248.833" fill="#1f9ad8" r="247.833" />
    <circle cx="284.723" cy="310.721" fill="#fff" r="52.562" />
    <path
        d="m175.642 104.429s38.998-55.388 74.039-74.604 56.519-22.043 72.344-17.521c15.825 4.521 35.041 12.999 40.693 19.781s7.347 10.739 7.347 10.739-26.14-9.891-56.518 2.261c-24.753 9.901-40.07 21.581-58.779 37.867-13.635 11.869-14.029 15.664-14.029 15.664s32.327-3.865 84.323 10.829 65.915 38.503 74.392 52.068c8.478 13.564 12.434 30.52 12.434 30.52s-43.519-31.085-107.385-37.302-103.429-6.217-103.429-6.217-36.172 52.562-61.04 118.689-57.082 165.598-57.082 165.598-10.173-68.387 17.521-156.556 48.041-124.906 48.041-124.906-39.563.565-77.995 15.26-66.128 41.258-66.128 41.258 9.911-35.609 53.693-61.04c40.622-23.596 60.474-31.085 117.558-42.388z"
        fill="#fbffff" />
</svg>