<svg enable-background="new 1000 -999.5 2500 2500" viewBox="1000 -999.5 2500 2500"
    xmlns="http://www.w3.org/2000/svg">
    <path
        d="m3399.107-482.343h-783.694l-232.359 589.859h-732.826v-303.693h732.826l107.25-286.165h-1109.702c-28.787 0-52.123 23.336-52.123 52.123v537.735h-178.75l-107.25 286h286v536.976c0 29.17 23.647 52.816 52.816 52.816h537.042l107.217-285.967h-375.359v-303.825h607.75l-232.392 589.793h357.5l250.25-589.826h769.698c28.993 0 52.501-23.494 52.519-52.486v-766.925c.001-31.157-25.256-56.415-56.413-56.415zm-247.279 544.668c0 24.995-20.262 45.257-45.257 45.257h-366.017l125.109-303.693h240.743c24.964-.11 45.295 20.029 45.422 44.993z"
        fill="#4096d0" />
</svg>