<svg enable-background="new 0 0 112 112" viewBox="0 0 112 112" xmlns="http://www.w3.org/2000/svg">
    <linearGradient gradientUnits="userSpaceOnUse" id="a" x1="16.402" x2="95.598" y1="16.402"
        y2="95.598">
        <stop offset="0" stop-color="#9a00ff" />
        <stop offset="1" stop-color="#6502ff" />
    </linearGradient>
    <g clip-rule="evenodd" fill-rule="evenodd">
        <circle cx="56" cy="56" fill="url(#a)" r="56" />
        <path
            d="m49 37.4v12.2c0 .8.7 1.4 1.4 1.4h19.2c.7 0 1.4.6 1.4 1.4v5.2c0 .7-.6 1.4-1.4 1.4h-19.2c-.7 0-1.4.7-1.4 1.4v28.4c0 1.1-.6 1.7-1.4 1.2l-5.6-4c-.7-.4-1-.8-1-1.6v-24c0-.7-.8-1.4-1.4-1.4h-9.2c-.8 0-1.4-.7-1.4-1.4v-5.2c0-.8.6-1.4 1.4-1.4h9.2c.6 0 1.4-.6 1.4-1.4v-20.2c0-.8.6-1.4 1.3-1.4h35.3c.7 0 1.4.7 1.4 1.4v5.2c0 .7-.6 1.4-1.4 1.4h-27.2c-.7 0-1.4.7-1.4 1.4z"
            fill="#fff" />
    </g>
</svg>