<svg enable-background="new 0 0 500 500" viewBox="0 0 500 500" xmlns="http://www.w3.org/2000/svg">
    <linearGradient gradientUnits="userSpaceOnUse" id="a" x1="76.2852" x2="423.6896" y1="76.4839"
        y2="423.8883">
        <stop offset="0" stop-color="#ff7600" />
        <stop offset="1" stop-color="#fd2600" />
    </linearGradient>
    <circle cx="250" cy="250.2" fill="url(#a)" r="245.7" />
    <path
        d="m285.9 295.8c0-30.3 24.6-54.9 54.9-54.9h155c-1.2-33.5-9.2-65.2-22.5-94h-132.5c-14.4 0-28.5 2-42.1 6.1-.9-2.6-1.9-5.2-3-7.7-7.5-17.7-18.2-33.7-31.9-47.3-13.6-13.6-29.6-24.4-47.3-31.9-18.4-7.8-37.9-11.7-58-11.7h-57.4c-32.2 24.4-58.1 56.7-75.1 93.9h132.5c30.3 0 54.9 24.6 54.9 54.9s-24.6 54.9-54.9 54.9h-154.4c1.1 33.5 8.8 65.2 21.9 94h132.5c14.4 0 28.5-2 42.1-6.1.9 2.6 1.9 5.2 3 7.7 7.5 17.7 18.2 33.7 31.9 47.3 13.6 13.6 29.6 24.4 47.3 31.9 18.4 7.8 37.9 11.7 58 11.7h59.7c31.8-24.6 57.4-56.9 74-94h-133.7c-30.3.2-54.9-24.4-54.9-54.8z"
        fill="#fff" />
</svg>