<svg enable-background="new 0 0 500 500" viewBox="0 0 500 500" xmlns="http://www.w3.org/2000/svg">
    <path
        d="m250.026 393.483c-48.146-76.909-95.644-152.781-143.603-229.392h286.72c-47.715 76.479-95.129 152.475-143.117 229.392z"
        fill="#ff7093" />
    <path
        d="m227.598 400.69c-64.825-9.436-128.398-18.69-192.643-28.042 18.559-64.216 36.963-127.893 55.682-192.662 45.78 73.772 91.01 146.656 136.961 220.704z"
        fill="#9e4b69" />
    <path
        d="m409.429 179.981c18.722 64.784 37.094 128.359 55.672 192.644-64.156 9.351-127.805 18.627-192.645 28.078 45.848-73.882 91.072-146.757 136.973-220.722z"
        fill="#9e4b69" />
    <path
        d="m386.289 141.222c-90.743 0-181.771 0-273.943 0 46.127-46.455 91.536-92.188 136.518-137.49 46.017 46.04 91.707 91.751 137.425 137.49z"
        fill="#a55271" />
    <g fill="#613b5a">
        <path
            d="m82.509 403.581c51.925 7.29 103.849 14.58 156.013 21.904v68.603c-52.455-30.047-104.398-59.801-156.34-89.554.109-.317.218-.635.327-.953z" />
        <path
            d="m417.966 404.442c-51.935 29.768-103.871 59.537-156.408 89.65 0-23.257 0-45.646 0-68.597 52.081-7.32 104.068-14.626 156.056-21.933.117.293.235.587.352.88z" />
        <path
            d="m310.793 31.128c49.119 24.321 98.238 48.642 148.063 73.313-14.115 11.439-27.585 22.354-41.597 33.709-35.787-35.462-71.438-70.788-107.089-106.115.208-.303.415-.605.623-.907z" />
    </g>
    <path
        d="m189.832 32.08c-35.543 35.216-71.085 70.433-107.014 106.032-13.789-11.148-27.366-22.124-41.642-33.666 49.762-24.635 98.878-48.95 147.993-73.266.222.3.442.6.663.9z"
        fill="#613d5b" />
    <path
        d="m72.162 157.049c-12.939 46.424-25.822 92.651-38.706 138.878-.227-.049-.454-.098-.681-.146 0-56.085 0-112.17 0-169.231 13.507 10.459 26.339 20.395 39.387 30.499z"
        fill="#613b5a" />
    <path
        d="m427.894 157.074c12.999-10.082 25.825-20.03 39.33-30.503v169.149c-.209.055-.418.111-.626.166-12.876-46.181-25.752-92.362-38.704-138.812z"
        fill="#613b5a" />
</svg>