<svg enable-background="new 0 0 500 500" viewBox="0 0 500 500" xmlns="http://www.w3.org/2000/svg">
    <path
        d="m388.7 214 36.9-36.9-175.5-175.4-175.5 175.5 36.9 36.9-36.9 36.9 36 36-36 36 175.5 175.5 175.5-175.5-36.9-36 36-36zm-291.3-36.8 152.7-151.8 151.8 151.8-24.6 24.6-127.2-127.3-128.1 127.2zm152.7 152.6-79-79 79-79 79 79zm90.3-68.4 24.6 24.6-114.9 116.7-115.9-115.8 24.6-24.6 91.2 90.4zm-90.3-114.1-91.2 91.2-24.7-24.5 115.9-115.8 115.8 115.8-25.4 24.6zm-152.7 102.7 24.6-24.6 24.6 24.6-24.6 24.6zm304.4 72.8-151.7 152.7-152.7-152.7 24.6-24.6 127.2 127.2 127.2-127.2zm-49.1-72.8 24.6-24.6 24.6 24.6-24.6 24.6z"
        fill="#2e2e2e" />
</svg>