<svg enable-background="new 1000 -1000 2500 2500" viewBox="1000 -1000 2500 2500"
    xmlns="http://www.w3.org/2000/svg">
    <circle cx="2250" cy="250" fill="#002d64" r="1230.049" />
    <path
        d="m2479.773 65.493c60.764-60.764 93.73-140.718 93.73-226.821-.004-75.167-26.384-147.95-74.541-205.664l186.475-186.475-41.576-40.346-186.475 186.475c-57.566-47.972-128.909-74.541-204.434-74.541-177.157.121-320.674 143.834-320.553 320.992.058 84.89 33.764 166.296 93.732 226.38 53.138 53.138 122.513 86.349 197.054 92.746v236.415c-74.705 6.196-144.67 39.126-197.054 92.746-124.972 125.393-124.972 328.249 0 453.642 60.764 60.764 140.718 93.73 226.821 93.73 85.081.256 166.74-33.487 226.821-93.73 60.764-60.764 93.73-140.718 93.73-226.821s-32.966-166.057-93.73-226.821c-53.138-53.138-122.513-86.349-197.054-92.746v-236.416c74.719-6.144 144.701-39.082 197.054-92.745m-41.575 463.236c48.956 49.94 76.755 115.133 76.755 185.245.112 69.507-27.516 136.186-76.755 185.245-48.956 49.94-115.133 76.755-185.245 76.755-69.507.112-136.186-27.516-185.245-76.755-48.956-49.94-76.755-115.133-76.755-185.245-.112-69.507 27.516-136.186 76.755-185.245 48.956-49.94 115.133-76.755 185.245-76.755 70.358.246 136.289 26.815 185.245 76.755m-185.246-427.073c-69.507.112-136.186-27.516-185.245-76.755-48.956-49.94-76.755-115.133-76.755-185.245-.066-69.498 27.555-136.16 76.755-185.245 48.956-49.94 115.133-76.755 185.245-76.755 69.507-.112 136.186 27.516 185.245 76.755 49.94 48.956 76.755 115.133 76.755 185.245.112 69.507-27.516 136.186-76.755 185.245-48.956 50.186-114.886 76.755-185.245 76.755"
        fill="#fff" />
</svg>