<svg enable-background="new 0 0 500 500" viewBox="0 0 500 500" xmlns="http://www.w3.org/2000/svg">
    <path
        d="m413.859 158.386h-161.821l-82.251 140.661h51.854l55.43-95.065h111.159l54.536 95.065-55.132 95.364-105.875.265-31.76-49.437h-1.584l-46.077 10.607 47.661 83.863h164.456l81.059-140.662z"
        fill="#11466b" />
    <path d="m196.31 345.239 6.028 10.607 46.077-10.607z" fill="#203361" />
    <path d="m330.649 203.982h-53.578l-9.902 16.983 63.003-16.149z" fill="#f6c329" />
    <path
        d="m267.169 220.965-45.528 78.082h-108.366l-55.234-95.149 55.399-94.77 109.591-.245 29.007 49.503h51.885l-55.591-95.828h-161.07l-82.673 141.424 81.604 141.257h163.806l80.173-140.423z"
        fill="#f8dc1a" />
</svg>