<svg enable-background="new 0 0 500 500" viewBox="0 0 500 500" xmlns="http://www.w3.org/2000/svg">
    <path
        d="m246.6 6.6c134.1 0 242.7 108.7 242.7 242.7v1.1c0 134.1-108.7 242.8-242.8 242.8-18 0-32.6-14.6-32.6-32.6 0-18 14.6-31.7 32.6-31.7h1.5c95.5 0 175.9-78.4 175.9-173.9v-23.4c0-7.6-6.2-13.8-16.7-13.8h-162.2c-18.3 0-33.1 14.8-33.1 33.1 0 17.3 14.1 31.4 31.4 31.4h94.2c5.5 0 10 4.5 10 10 0 21.6-44.2 69.5-94.3 69.5h-7.2c-63 0-114.2-50.9-114.5-114 0-1.1 0-2.2 0-3.2 1.7-71 72-122.9 146.1-101.7 27.1 7.8 39.8 27.9 67.9 27.9 15.6 0 28.3-12.6 28.5-28.2 0-36.8-64.3-69.2-111.5-71.6h-15.9c-18 0-32.7-12.6-33.1-30.6-.4-18.5 14.6-33.8 33.1-33.8z"
        fill="#232a7e" />
    <g fill="#008bcd">
        <circle cx="146.5" cy="66.6" r="29.6" />
        <circle cx="71.4" cy="145.7" r="29.6" />
        <circle cx="41.2" cy="249.4" r="29.6" />
        <circle cx="70.6" cy="352.5" r="29.6" />
        <circle cx="146.5" cy="433" r="29.6" />
    </g>
</svg>