<svg enable-background="new 0 0 500 500" viewBox="0 0 500 500" xmlns="http://www.w3.org/2000/svg">
    <path clip-rule="evenodd"
        d="m222.1 277.8c-61.4 0-111.1-49.8-111.1-111.1 0-61.4 49.7-111.1 111.1-111.1s111.1 49.7 111.1 111.1c0 61.3-49.7 111.1-111.1 111.1m0-277.8c92 0 166.7 74.6 166.7 166.7s-74.6 166.7-166.7 166.7c-92 0-166.7-74.6-166.7-166.7s74.7-166.7 166.7-166.7zm158.5 341.5c10.8 10.8 10.8 28.4 0 39.3l-111.1 111.1c-10.8 10.8-28.4 10.8-39.3 0-10.8-10.8-10.8-28.4 0-39.3l111.1-111.1c10.9-10.9 28.5-10.9 39.3 0zm63.7-313.7c0 15.3-12.4 27.8-27.8 27.8-15.3 0-27.8-12.4-27.8-27.8s12.5-27.8 27.9-27.8c15.3 0 27.7 12.4 27.7 27.8z"
        fill-rule="evenodd" />
</svg>