<svg enable-background="new 0 0 500 500" viewBox="0 0 500 500" xmlns="http://www.w3.org/2000/svg">
    <linearGradient gradientUnits="userSpaceOnUse" id="a" x1="71.6406" x2="266.9104" y1="419.965"
        y2="233.0587">
        <stop offset="0" stop-color="#ff8402" />
        <stop offset=".9995" stop-color="#ff005a" />
    </linearGradient>
    <path
        d="m496.042 4.374c-.407 29.614-12.002 52.642-33.623 70.693-16.986 14.181-36.913 21.008-58.991 21.068-50.9.139-101.8.078-152.7.085-90.625.012-162.258 80.484-151.688 170.415 9.882 84.08 82.017 143.537 166.326 137.094 75.118-5.741 135.386-69.56 136.876-144.959.163-8.244.176-16.492.384-24.735.141-5.583-2.006-8.297-8.006-8.278-47.203.146-94.407-.073-141.608.253-15.252.106-27.313 13.79-27.183 29.388.129 15.519 13.425 28.783 29.841 28.993 23.598.302 47.202.101 70.804.114 3.051.002 6.101 0 10.13 0-.791 3.005-.997 4.886-1.756 6.507-16.329 34.879-51.792 55.113-91.861 52.484-37.192-2.44-70.103-28.363-81.366-64.091-19.834-62.915 25.394-124.54 91.445-124.559 72.227-.02 144.454-.012 216.681-.002 19.366.003 26.586 7.252 26.5 26.836-.121 27.295.252 54.61-.688 81.879-3.605 104.509-85.932 203.031-188.083 225.441-82.137 18.019-156.453.819-219.104-55.077-73.424-65.508-100.203-148.899-76.174-244.215 23.566-93.479 86.537-151.906 178.902-177.625 20.509-5.711 42.61-7.599 64.017-7.852 77.051-.907 236.766-.074 240.925.143z"
        fill="url(#a)" />
</svg>