<svg enable-background="new 0 0 500 500" viewBox="0 0 500 500" xmlns="http://www.w3.org/2000/svg">
    <path
        d="m117.4 218.3h-54.3c-.1-.7-.1-1.4 0-2.1 7.3-37 14.2-74.1 21.9-111.1 5.7-26.6 35.3-50.1 62.1-50.1h269.9 4.5l-10.6 54.5h-255c-12.4 0-18.4 4.9-20.7 17.2l-16.7 85.8z" />
    <path
        d="m379.2 273.2h54.3c-.2 1.4-.2 2.6-.4 3.8-7.1 36.2-13.8 72.5-21.4 108.7-5.7 27.1-35.1 50.7-62.1 50.7-90.3.1-180.6.1-270.8 0h-3.6l10.6-54.4h254.7c12.8 0 18.5-4.8 21-17.5 5.5-28.6 11.1-57.2 16.7-85.8z" />
    <path d="m324.6 273.2-10.6 54.4h-217.8l-10.5 53.8-85.7-108.2z" />
    <path d="m496.7 218.3h-324.7l10.6-54.4h217.8l10.5-53.9z" />
</svg>