<svg enable-background="new 0 0 500 500" viewBox="0 0 500 500" xmlns="http://www.w3.org/2000/svg">
    <linearGradient gradientUnits="userSpaceOnUse" id="a" x1="147.5613" x2="147.5613" y1="5.1131"
        y2="496.3979">
        <stop offset="0" stop-color="#fdd900" />
        <stop offset="1" stop-color="#f36e1f" />
    </linearGradient>
    <linearGradient gradientUnits="userSpaceOnUse" id="b" x1="379.0523" x2="379.0523" y1="238.7094"
        y2="491.3631">
        <stop offset="0" stop-color="#38e8dc" />
        <stop offset="1" stop-color="#48a9f2" />
    </linearGradient>
    <linearGradient gradientUnits="userSpaceOnUse" id="c" x1="370.7843" x2="370.7843" y1="4.248"
        y2="207.7123">
        <stop offset="0" stop-color="#d27dff" />
        <stop offset="1" stop-color="#9453ff" />
    </linearGradient>
    <path
        d="m256.565 250.377c0 70.668.047 141.337-.025 212.005-.026 25.684-8.941 34.708-34.275 34.745-51.112.076-102.224.096-153.336-.029-25.736-.063-37.526-15.474-25.902-38.041 18.639-36.186 21.507-73.935 20.902-113.568-1.247-81.76-.391-163.554-.208-245.333.13-58.139 38.929-96.994 96.715-97.184 20.445-.067 40.89-.068 61.335-.017 26.274.066 34.535 8.102 34.564 34.083.08 71.113.028 142.226.028 213.338.067.001.134.001.202.001z"
        fill="url(#a)" />
    <path
        d="m293.219 364.685c0-32.9-.143-65.801.051-98.7.124-21.068 7.141-28.119 28.103-28.192 39.124-.137 78.25-.186 117.372.157 19.858.174 32.174 14.445 23.409 31.552-18.624 36.35-12.965 74.503-13.859 112.34-.304 12.886.24 25.794-.136 38.677-1.269 43.571-34.489 75.957-78.181 76.342-16.004.141-32.024.385-48.012-.148-19.03-.634-28.596-10.404-28.743-29.327-.265-34.232-.075-68.467-.075-102.701z"
        fill="url(#b)" />
    <path
        d="m293.076 104.654c0-23.987-.221-47.976.068-71.96.242-20.101 9.574-29.398 29.471-29.688 16.876-.246 33.764-.32 50.637.016 40.692.809 73.989 33.023 74.961 73.55.82 34.184.42 68.404.189 102.605-.112 16.504-7.737 26.947-24.426 27.71-34.991 1.6-70.126 1.87-105.129.636-17.708-.624-25.575-11.461-25.815-29.577-.324-24.427-.08-48.861-.08-73.292z"
        fill="url(#c)" />
</svg>