<svg enable-background="new 1000 -1000 2500 2500" viewBox="1000 -1000 2500 2500"
    xmlns="http://www.w3.org/2000/svg">
    <circle cx="2250" cy="250" fill="#7f27ff" r="1221.751" />
    <path
        d="m2209.275 87.1h-529.425v529.425c-1.104 111.355 88.272 202.521 199.628 203.625 1.332.013 2.665.013 3.998 0h325.8v-733.05zm81.45 0h529.425v529.425c1.104 111.355-88.272 202.521-199.627 203.625-1.333.013-2.665.013-3.998 0h-325.8z"
        fill="#fff" />
    <path
        d="m2290.725 5.65h513.325c56.825 0 97.74-48.87 97.74-97.74 0-56.826-48.87-97.74-97.74-97.74h-1099.765c-56.826 0-97.74 48.87-97.74 97.74 0 56.826 48.87 97.74 97.74 97.74h504.99v-130.32h81.45"
        fill="#fff" />
    <g fill="none" stroke="#fff" stroke-width="17.2">
        <path
            d="m2306.826-157.25c114.03-203.625 203.625-268.785 268.785-203.625s24.435 130.32-114.03 203.625" />
        <path
            d="m2193.174-157.25c-114.03-203.625-203.625-268.785-268.785-203.625s-24.435 130.32 114.03 203.625" />
    </g>
</svg>