<svg enable-background="new 0 0 500 500" viewBox="0 0 500 500" xmlns="http://www.w3.org/2000/svg">
    <g fill="#55c8e6">
        <path
            d="m326.4 42.2c35.1 0 68.1 13.7 93 38.5 24.8 24.8 38.5 57.8 38.5 93 0 35.1-13.7 68.1-38.5 93-24.8 24.8-57.8 38.5-93 38.5h-131.5v-131.6c0-35.1 13.7-68.1 38.5-93 24.8-24.8 57.8-38.4 93-38.4m0-39.8c-94.6 0-171.2 76.7-171.2 171.2v135.6h-114.1v35.6h114.1 3.5 167.8c94.6 0 171.2-76.7 171.2-171.2-.1-94.5-76.8-171.2-171.3-171.2z" />
        <path
            d="m305.6 195.3v131.5c0 35.1-13.7 68.1-38.5 93-24.8 24.8-57.8 38.5-93 38.5-35.1 0-68.1-13.7-93-38.5-24.8-24.8-38.5-57.8-38.5-93 0-35.1 13.7-68.1 38.5-93 24.8-24.8 57.8-38.5 93-38.5zm153.7-39.8h-113.9-3.7-167.5c-94.6 0-171.2 76.7-171.2 171.3 0 94.5 76.6 171.2 171.2 171.2 94.6 0 171.2-76.7 171.2-171.2v-135.7h113.9z" />
    </g>
</svg>