<svg enable-background="new -749 751 500 500" viewBox="-749 751 500 500"
    xmlns="http://www.w3.org/2000/svg">
    <path
        d="m-399.983 946.846h45.467c-14.44 58.157-79.772 109.994-152.905 105.025-92.343-6.274-159.055-90.193-142.072-183.012h391.239c3.571 29.349 2.085 58.509-5.178 87.3-12.842 50.909-39.294 93.632-79.431 127.405-90.96 76.536-216.23 74.051-303.036 6.944-81.677-63.142-103.476-159.333-91.635-221.975h41.83c-7.554 79.52 18.739 144.618 83.663 192.156 36.827 26.965 79.045 38.906 124.335 35.899 116.639-7.744 183.446-104.093 185.833-182.635-101.598 0-203.177 0-304.767 0 2.753 37.686 36.112 77.656 75.253 89.061 25.541 7.442 51.169 6.695 75.869-3.904 24.742-10.617 43.089-28.474 55.535-52.264z"
        fill="#00beb1" />
</svg>