<svg enable-background="new 0 0 500 500" viewBox="0 0 500 500" xmlns="http://www.w3.org/2000/svg">
    <path
        d="m250 0c138.1 0 250 111.9 250 250s-111.9 250-250 250-250-111.9-250-250 111.9-250 250-250z"
        fill="#fff" />
    <path clip-rule="evenodd"
        d="m442.3 190c-.3.8-.6 1.7-1 2.5-.2 1-.6 2.4-1.2 4.1l-1.4 3.6-1.8 4.3-3.1 6.9-3.8 7.8-4.2 8.4-4.6 8.9-4.8 9.1-5 9.1-5 8.8-4.9 8.4-4.6 7.7-4.3 6.8-1.7 2.5-3 4.3c-1.4 1.9-2.7 3.5-3.8 4.7l-1.2 1.1-16.3 13.9 80 40.1c-38.7 68-111.9 113.9-195.9 113.9-85.1 0-159.2-47.2-197.5-116.8l78.4-37.4-7.6-6.2-9.2-7.6c-1.5-1.3-3.5-3.8-5.8-7.3l-3-4.6-3.9-6.3-2-3.5-4.3-7.5-4.4-8.1-4.5-8.5-4.4-8.7-4.3-8.7-4.1-8.4-3.7-8.1-3.3-7.4-2.8-6.7-2.2-5.7-1.1-3.1-.4-1.4c-.6-.8-1-1.6-1.5-2.4 14.3 9.7 42.8 19.2 80 25.9l11.4 1.9c5.8.9 11.9 1.8 18.1 2.5l12.6 1.4c12.8 1.3 26.2 2.3 40.2 2.9l7.7.3 7.8.2 12.1.1 12.1-.1 5.9-.1 7.8-.2c18.1-.7 35.4-2.1 51.6-4l11.9-1.5c44.9-6.2 80-16.6 97.9-27.5l2.5-1.6 2.2-1.6zm-297.3 52.5 4.9 17.6c3.2 10.4 6.9 20.2 11.3 30.2l3.4 7.5 8 15.8c.9 1.9 2.2 3.5 3.8 5l1.7 1.5 6.8 5c11.6 7.8 24.4 13.3 39.5 17.4l5.8 1.5 16 3.1 3 .3h2.3l3-.3 16.5-3.2c15.3-3.7 28.5-8.8 40.8-16.2l4.5-2.9 6.5-4.8c1.7-1.2 3.1-2.8 4.2-4.5l1.1-1.8 8.2-16.2c4.6-9.8 8.6-19.6 12.1-29.9l2.6-7.9 4.5-16.4c-9.8 18.7-29.3 31.9-52.8 34.2l-3.2.2-3.5-.4c-17.5-2.4-32.9-11.8-42.6-25.4l-1.9-2.8-1-1.7-2 3c-9.5 13.7-24.7 23.3-42.6 26.4l-3.6.5-3.3.3-3.1-.2c-22.6-2.4-41.6-16-50.9-34.9zm105.3-192.5c14.3 0 33.2 11.2 61.2 33.5l4.3 3.4 12.2 10 32.5 27.5 23.3 6.2 10.9 3.1 6.2 1.8 5 1.6 6.7 2.2 4 1.4 3.5 1.4c15.5 6.3 23.3 13 23.3 21.9l-.1 1.8-.4 1.8-1.3 1-2.2 1.7c-24.1 17.1-87.2 33.6-165 36.6l-7.3.2-5.9.1-12.1.1-12.1-.1-7.8-.2c-80.4-2.5-146-19.5-170.5-37-1-2-1.4-4.1-1.4-6.2 0-9.8 8.3-17.8 26.3-24.8-2.9-3-4.2-5.8-7.7-8.1 5.4-6.2 15.5-11.3 22.4-12.3 8.2-1.4 14.6-.5 20.3.7l5.6 1.1c1.8.3 3.7.6 5.5.8-7.2-3.1-21-16.5-25.8-22.6-5.8-13-1.7-24.2 1.9-30.5l.8-1.2 1.2-1.9 1.5-2 .9-.1 2.7-.1 3.9.1c5.8.2 13.2 1.3 16.2 4.6 6.9 9.8 9.3 19.8 11 28.1l1 5.3c.8 4.2 1.6 7.7 3 10.2.6-2.1 1.1-4.1 1.5-6.1l1.2-6c1.1-5 2.5-10.2 5.9-16.3 6-10.9 27.1-25.9 42-22.9.2 1.5.5 2.8.8 4l1 3.4c.6 2.2.8 4.4 0 7.7l7.5-5.5c18-12.9 31.6-19.4 42.4-19.4z"
        fill="#2da287" fill-rule="evenodd" />
</svg>