<svg enable-background="new 0 0 500 500" viewBox="0 0 500 500" xmlns="http://www.w3.org/2000/svg">
    <path
        d="m5 248.901c-.015-136.274 109.66-245.923 245.959-245.901 135.398.021 244.932 110.135 244.857 246.153-.075 136.019-110.257 244.738-247.957 244.663-132.96-.072-242.845-110.887-242.859-244.915zm338.519-181.772c-12.111 0-22.692 0-33.775 0-19.539 47.314-39.058 94.582-59.347 143.715-19.865-49.395-38.835-96.562-57.764-143.628-11.516 0-22.312 0-34.313 0 30.597 74.006 60.891 147.282 92.08 222.719 31.486-75.338 62.066-148.506 93.119-222.806zm-185.172 140.305c30.631 73.998 60.947 147.232 92.058 222.39 31.493-75.244 62.114-148.406 93.059-222.34-12.105 0-22.876 0-33.89 0-19.557 47.407-38.987 94.505-59.183 143.46-19.774-49.215-38.713-96.354-57.66-143.51-11.467 0-22.293 0-34.384 0z" />
</svg>