<svg enable-background="new 0 0 500 500" viewBox="0 0 500 500" xmlns="http://www.w3.org/2000/svg">
    <g fill="#5c4d94">
        <path
            d="m75.4 118.3h73.9c0-9.7 0-19.1 0-28.5 0-2.1-3.3-12.2-4.5-13.8-2.5-3.4-6-5.3-10.3-5.7 0-4.4 0-12.9 0-12.9h93.7v12.8c-7 1.5-12.1 7.1-13.1 14.4-.7 5.5-.4 33.7-.4 33.7s56.5 0 85.6 0c0-10.2.6-20.4-.2-30.5-.5-6.6-3.1-13.1-10.2-17.1-.8 0-2.5-.1-4.3-.2 0-4.3 0-13 0-13h95.4v11.3c-.9.6-1.9 1.7-2.9 1.8-4.6.3-7.3 3.2-8.8 7-1.7 4.4-3.2 8.7-3.2 13.7.1 75 0 235 0 235s19.9 0 29.4 0c5.6-9.8 11.2-19.4 17.1-29.6 0-3.9 0-12.8 0-12.8l85-.6.1 14.2s-5.2 1.5-8.5 2.5c-1.3 1.3-2.9 3.2-4.8 4.8-3.7 3.2-6 7.3-8.5 11.4-5.1 8.6-35 61.5-35.4 62.6-75.4 0-226.7 0-226.7 0s-.1 16.1 0 24c0 3.4 3.8 14.4 6 16.9 3.5 4 8.3 6 13.5 6.9 1.2.2 2.6-.2 3.7.2 1.3.4 2.4 1.4 3.7 2.1v10.6c-.6.5-1.4 1.1-2.4 2-37.7 0-75.7 0-114 0 0-4.3 0-8.5 0-12.8.6-.6 1.3-1.3 2.1-2.1 7.6 1.2 14-1.9 18.1-8 3-4.5 5.1-9.8 5.1-15.8-.2-36.6-.1-73.3-.1-109.9 0-35.6 0-111.8 0-114.4h64v43.9l86.8.5s0-34.2 0-51.7c-59.8 0-119.8 0-180.5 0-.4.8-36.3 62.9-41.6 71.7-2.1 3.5-2.8 6.9-.5 10.5 3.3 5.3 38.5 67.7 42.6 73.1h21.6v51.9c-22.1 0-44.2 0-66.7 0-3.7-3.3-70.8-122.4-72.5-125.1-2.4-3.7-1.6-7.1.6-10.5 5.3-8.2 70.1-121 72.1-124.5zm224.8 155.9c-28.4 0-56.6 0-84.6 0-.8.8-1.3 1.3-1.8 1.8v50h86.4c0-17.3 0-34.4 0-51.8z" />
        <path
            d="m372.4 120.4c.8-.8 1.3-1.3 1.9-1.9h64.9c1.2 1.7 2.7 3.7 4 5.9 5.7 9.6 11.3 19.3 16.7 29 4.4 7.9 9.4 15.5 13.5 23.5 2.5 5 5.2 10 8.5 14.4 3 3.9 7.4 6.5 12.3 7.9 1.1.3 2.1.9 3.3 1.5v12.7l-85 .6s0-4.8 0-7.2c0-2.2 0-4.5 0-5.6-6.1-10.5-11.6-20.2-17.5-30.3-6.5 0-13.7 0-20.6 0-.8-.8-1.3-1.3-2.1-2.1.1-15.9.1-32 .1-48.4z" />
        <path
            d="m391.4 428.1v13.2c-38.8 0-77.5 0-116.4 0 0-4.4 0-8.5 0-12.7 2.9-2.3 6.2-2.2 9.2-2.1 2.8-1.6 5.4-2.7 7.6-4.3 5.9-4.2 7.9-10.6 8.4-17.4.4-5.9.1-11.9.1-17.9.2-.2.3-.4.5-.5s.4-.3.6-.3h62.5l2.2 2.2c0 4.6.2 9.8 0 15-.4 9.1 4 15.7 10.7 20.9 1.9 1.5 4.8 1.6 7.2 2.3 2.5.6 5 1.1 7.4 1.6z" />
    </g>
</svg>