<svg enable-background="new 0 0 500 500" viewBox="0 0 500 500" xmlns="http://www.w3.org/2000/svg">
    <path
        d="m251.377 439.326c54.468-31.442 108.353-62.548 162.624-93.876 0-63.302 0-126.617 0-191.013-19.686-11.409-39.871-23.106-62.014-35.938v207.3c-17.609 10.152-33.995 19.598-52.009 29.983 0-29.238 0-56.805 0-85.147-32.824 0-64.468 0-96.953 0v199.34c-3.337-1.271-5.685-1.824-7.686-2.977-49.816-28.705-99.53-57.589-149.451-86.11-7.636-4.363-10.593-9.76-10.563-18.525.252-74.754.253-149.509-.019-224.262-.033-9.135 2.903-14.794 10.988-19.423 64.833-37.112 129.5-74.518 194.071-112.086 7.521-4.375 14.098-5.132 21.386-.151 4.804 3.283 9.962 6.046 15.183 9.175v58.93c-9.019-4.861-17.16-9.25-26.035-14.034-54.108 31.239-108.587 62.692-163.344 94.305v190.125c20.032 11.563 40.478 23.365 62.362 35.997 0-70.432 0-139.11 0-208.708 16.93-9.822 33.594-19.489 52.075-30.21v75.294h97.512c0-62.215 0-124.559 0-188.879 22.361 12.896 42.884 24.723 63.399 36.566 31.081 17.942 62.04 36.099 93.312 53.7 8.059 4.536 11.134 10.207 11.101 19.379-.268 74.021-.339 148.044.054 222.063.056 10.594-3.695 16.717-12.726 21.879-62.953 35.981-125.799 72.156-188.338 108.851-10.864 6.375-20.014 7.777-30.133-.168-3.401-2.67-7.378-4.605-11.291-6.998 0-19.305 0-38.266 0-59.087 9.254 5.138 17.408 9.662 26.495 14.705z" />
</svg>