<svg xmlns:xlink="http://www.w3.org/1999/xlink" enable-background="new 0 0 500 500"
    viewBox="0 0 500 500" xmlns="http://www.w3.org/2000/svg">
    <linearGradient gradientUnits="userSpaceOnUse" id="a" x1="125.8987" x2="366.8214" y1="458.6709"
        y2="47.168">
        <stop offset="0" stop-color="#ffd802" />
        <stop offset=".5306" stop-color="#fe5d49" />
        <stop offset="1" stop-color="#ff02f8" />
    </linearGradient>
    <linearGradient id="b">
        <stop offset="0" stop-color="#ffd802" />
        <stop offset=".5026" stop-color="#fe5d49" />
        <stop offset="1" stop-color="#ff02f8" />
    </linearGradient>
    <linearGradient gradientUnits="userSpaceOnUse" id="c" x1="126.142" x2="367.0646" y1="458.8133"
        y2="47.3104" xlink:href="#b" />
    <linearGradient gradientUnits="userSpaceOnUse" id="d" x1="127.3201" x2="368.2428" y1="459.5031"
        y2="48.0002" xlink:href="#b" />
    <path
        d="m493.8 237-113-195c-3.8-6.5-10.7-10.5-18.2-10.5h-226.2c-7.5 0-14.5 4-18.2 10.5l-113.1 195c-3.8 6.5-3.8 14.6 0 21.2l26.1 45.1 74.8-131.7c2.8-5 8.1-8 13.8-8h167.9c5.7 0 11 3.1 13.8 8l84.2 148.1c2.8 4.9 2.8 10.8 0 15.7l-72.9 128.3h49.8c7.5 0 14.5-4 18.2-10.5l113-195c3.8-6.5 3.8-14.6 0-21.2z"
        fill="url(#a)" />
    <path
        d="m362.2 318.4-73-124.6c-2.4-4.2-6.9-6.7-11.7-6.7h-146.3c-4.8 0-9.3 2.6-11.7 6.7l-73 124.6c-2.5 4.2-2.5 9.5 0 13.7l22.4 38.3 40-68.6c1.7-2.8 4.7-4.6 8-4.6h99.1c3.3 0 6.3 1.7 8 4.6l49.5 84.8c1.7 2.9 1.7 6.4 0 9.3l-39.5 67.5h43.5c4.8 0 9.3-2.6 11.7-6.7l73-124.6c2.5-4.2 2.5-9.5 0-13.7z"
        fill="url(#c)" />
    <path
        d="m206.1 318.8h-76.9c-2.5 0-4.8 1.3-6.1 3.5l-38.4 64.7c-1.3 2.2-1.3 5 0 7.2l38.3 64.8c1.3 2.2 3.6 3.5 6.1 3.5h76.9c2.5 0 4.8-1.3 6.1-3.5l38.3-64.8c1.3-2.2 1.3-5 0-7.2l-38.3-64.8c-1.2-2.1-3.5-3.4-6-3.4z"
        fill="url(#d)" />
</svg>