<svg enable-background="new 0 0 500 500" viewBox="0 0 500 500" xmlns="http://www.w3.org/2000/svg">
    <g fill="#e31337">
        <path
            d="m357.4 277.9c1.7 0 2.7 1.8 1.9 3.2l-106.3 183.7c-.4.7-1.1 1.1-1.9 1.1h-64.9c-1.7 0-2.7-1.8-1.9-3.2l106.3-183.7c.4-.7 1.1-1.1 1.9-1.1zm-63.1-52.7c-.8 0-1.5-.4-1.9-1.1l-108-186.8c-.8-1.4.2-3.2 1.9-3.2h64.9c.8 0 1.5.4 1.9 1.1l108 186.8c.8 1.4-.2 3.2-1.9 3.2z" />
        <path
            d="m307.1 37.3c-.8-1.4.2-3.2 1.9-3.2h65c.8 0 1.5.4 1.9 1.1l123.8 213.8c.4.7.4 1.5 0 2.1l-123.8 213.7c-.4.7-1.1 1.1-1.9 1.1h-65c-1.7 0-2.7-1.8-1.9-3.2l123.2-212.7zm-52.8 211.6c.4.7.4 1.5 0 2.2l-124.5 213.7c-.8 1.4-2.9 1.4-3.7 0l-125.8-213.7c-.4-.7-.4-1.5 0-2.2l124.4-213.7c.8-1.4 2.9-1.4 3.7 0z" />
    </g>
</svg>