<svg xmlns:xlink="http://www.w3.org/1999/xlink" enable-background="new 0 0 500 500"
    viewBox="0 0 500 500" xmlns="http://www.w3.org/2000/svg">
    <linearGradient id="a">
        <stop offset="0" stop-color="#252d6f" />
        <stop offset="1" stop-color="#1bf4f8" />
    </linearGradient>
    <linearGradient gradientUnits="userSpaceOnUse" id="b" x1="119.4165" x2="381.6642" y1="126.6592"
        y2="126.6592" xlink:href="#a" />
    <linearGradient gradientUnits="userSpaceOnUse" id="c" x1="234.7917" x2="496.3051" y1="345.952"
        y2="345.952" xlink:href="#a" />
    <linearGradient gradientUnits="userSpaceOnUse" id="d" x1="3.029" x2="232.4935" y1="327.174"
        y2="327.174" xlink:href="#a" />
    <linearGradient id="e">
        <stop offset="0" stop-color="#fefeff" />
        <stop offset=".1991" stop-color="#f9fcfd" />
        <stop offset=".425" stop-color="#ecf6f9" />
        <stop offset=".6641" stop-color="#d5edf2" />
        <stop offset=".9107" stop-color="#b5e0e7" />
        <stop offset="1" stop-color="#a8dae3" />
    </linearGradient>
    <linearGradient gradientUnits="userSpaceOnUse" id="f" x1="266.2946" x2="650.491" y1="172.5946"
        y2="172.5946" xlink:href="#e" />
    <linearGradient gradientUnits="userSpaceOnUse" id="g" x1="117.4772" x2="379.3538" y1="372.6042"
        y2="372.6042" xlink:href="#e" />
    <linearGradient gradientUnits="userSpaceOnUse" id="h" x1="2.8731" x2="265.8854" y1="151.5121"
        y2="151.5121" xlink:href="#e" />
    <path
        d="m119.4 39.6s15.6-8.4 40.7-11.9 114-16.3 114-16.3 18.5-3.5 38.3-.4 28.6 7.9 28.6 7.9 44 36.1 40.5 99.9-50.2 108-88.5 120.6c-6.6 2.2-10.6 2.8-17.1 4-8.3 1.5-13.7-4.7-10.9-12 6.4-16.2 13-42.4 6.8-73.4-10.5-52.4-62.5-126.7-152.4-118.4z"
        fill="url(#b)" />
    <path
        d="m496.3 241.6s-.4 17.7-9.8 41.2-42.3 107.1-42.3 107.1-6.1 17.8-18.6 33.5-21.1 20.9-21.1 20.9-53.2 20.4-106.8-14.3-68.9-97.1-61-136.6c1.4-6.8 2.8-10.6 5-16.8 2.8-7.9 10.9-9.6 15.8-3.5 10.9 13.6 30.4 32.4 60.4 42.3 50.8 16.8 141.1 8.4 178.4-73.8z"
        fill="url(#c)" />
    <path
        d="m132.9 467.7s-15.1-9.2-30.8-29.1-71.7-90.1-71.7-90.1-12.4-14.1-19.7-32.8c-7.4-18.6-7.7-28.7-7.7-28.7s8.9-56.2 65.7-85.4 118.6-11.2 148.8 15.4c5.2 4.6 7.8 7.7 12.1 12.7 5.4 6.4 2.9 14.2-4.8 15.4-17.3 2.6-43.2 10.2-66.8 31.2-39.9 35.7-77.7 118.1-25.1 191.4z"
        fill="url(#d)" />
    <path
        d="m366.6 32s15.1 9.2 30.7 29.2c15.7 19.9 71.4 90.3 71.4 90.3s12.3 14.2 19.6 32.9 7.5 28.7 7.5 28.7-9.1 56.2-66 85.2c-56.9 29.1-118.6 10.9-148.7-15.8-5.2-4.6-7.8-7.7-12-12.7-5.4-6.4-2.8-14.3 4.9-15.4 17.3-2.6 43.3-10.1 66.9-31.1 40-35.4 78.1-117.8 25.7-191.3z"
        fill="url(#f)" />
    <path
        d="m379.4 460.5s-15.6 8.3-40.7 11.7-114.1 15.7-114.1 15.7-18.5 3.4-38.3.2-28.6-8.1-28.6-8.1-43.8-36.3-40-100.1 50.8-107.7 89.1-120.1c6.6-2.2 10.6-2.8 17.1-3.9 8.3-1.4 13.7 4.8 10.8 12-6.5 16.2-13.3 42.4-7.2 73.4 10.3 52.5 61.9 127.1 151.9 119.2z"
        fill="url(#g)" />
    <path
        d="m2.9 254.5s.8-17.7 10.7-41 44.6-106.2 44.6-106.2 6.5-17.7 19.3-33.1 21.5-20.5 21.5-20.5 53.6-19.2 106.5 16.5 66.9 98.5 58.1 137.8c-1.5 6.8-3 10.5-5.3 16.7-3 7.8-11.1 9.4-15.8 3.2-10.6-13.9-29.7-33-59.5-43.5-50.6-17.8-141.1-11.3-180.1 70.1z"
        fill="url(#h)" />
</svg>