<svg enable-background="new 1000 -1000 2500 2500" viewBox="1000 -1000 2500 2500"
    xmlns="http://www.w3.org/2000/svg">
    <g fill="#56428e">
        <path
            d="m1664.848-691.481h485.255c-58.352 91.941-94.172 193.469-91.941 303.493 144.397 1.471 289.162 1.471 433.559 0 1.851-109.288-27.693-213.77-90.85-303.493h488.577c-33.602 70.145-90.85 135.129-85.309 217.46-2.219 368.097.736 736.574-.368 1104.671 48.006 0 96.392 0 144.765.368 35.453-69.777 66.848-140.977 91.942-214.873 145.133 3.678 291.013-4.058 435.398 15.14-142.914 122.589-217.521 296.848-310.578 455.601-369.298.735-738.597-1.103-1108.263 1.103-17.358 134.026 65.732 226.323 162.124 303.493h-623.78c54.282-71.261 163.594-117.035 152.157-221.53 3.678-355.911 0-712.24 1.103-1068.482h316.524v219.311h419.89v-251.431h-876.717c-72.738 127.01-145.367 253.893-217.891 380.65 72.385 127.01 145.12 253.893 218.208 380.65h107.878v256.21h-329.763c-120.395-212.642-245.215-422.722-362.654-636.86v-.368c117.808-213.77 242.995-423.85 362.654-636.517 122.981 0 245.95 0 368.931-1.103.734-108.92-29.177-213.035-90.851-303.493m400.325 1070.702v251.429h419.89v-251.429z" />
        <path
            d="m2835.888-386.885h328.623c90.115 143.993 152.157 310.149 282.15 425.383 2.587 8.495 7.355 25.842 9.967 34.325-138.856 18.094-279.502 4.058-419.523 11.033-17.726-76.79-52.811-147.315-91.586-214.873-27.693 0-82.355.368-109.68.368zm-339.387 1305.888c97.127.368 194.622 0 291.761-.368-2.219 123.312 84.586 199.746 169.883 272.846h-628.193c80.504-76.005 174.677-148.051 166.549-272.478" />
    </g>
</svg>