<svg enable-background="new 0 0 500 500" viewBox="0 0 500 500" xmlns="http://www.w3.org/2000/svg">
    <linearGradient gradientUnits="userSpaceOnUse" id="a" x1="396.4519" x2="396.4519" y1="498.5851"
        y2="169.4542">
        <stop offset="0" stop-color="#9451d4" />
        <stop offset="1" stop-color="#5094ec" />
    </linearGradient>
    <linearGradient gradientUnits="userSpaceOnUse" id="b" x1="106.5811" x2="106.5811" y1="117.8904"
        y2="1.5974">
        <stop offset="0" stop-color="#fa9128" />
        <stop offset=".9996" stop-color="#faa01c" />
    </linearGradient>
    <linearGradient gradientUnits="userSpaceOnUse" id="c" x1="392.925" x2="392.925" y1="117.8904"
        y2="1.5974">
        <stop offset="0" stop-color="#36aef5" />
        <stop offset="1" stop-color="#24c0fb" />
    </linearGradient>
    <linearGradient gradientUnits="userSpaceOnUse" id="d" x1="106.8167" x2="106.8167" y1="498.5851"
        y2="172.2035">
        <stop offset="0" stop-color="#fc515a" />
        <stop offset=".9996" stop-color="#fb8036" />
    </linearGradient>
    <path d="m331.2 169.5h130.6v329.1h-130.6z" fill="url(#a)" />
    <circle cx="106.6" cy="59.7" fill="url(#b)" r="58.1" />
    <circle cx="392.9" cy="59.7" fill="url(#c)" r="58.1" />
    <path d="m41.5 172.2v326.4h130.6v-156c-68.9-28.5-119.9-92.9-130.6-170.4z" fill="url(#d)" />
    <path
        d="m328.5 169.8c-11.2 32.5-41.5 55.7-77.2 55.7s-65.9-23.3-77.2-55.7h-2.1v172.9c24.5 10.1 51.2 15.8 79.3 15.8 107.7 0 196.8-82.4 210.2-188.6h-133z"
        fill="#24c0fb" />
    <path d="m41.5 169.8v2.4c10.7 77.5 61.6 141.9 130.6 170.4v-172.8z" fill="#faa01c" />
</svg>