<svg enable-background="new 0 0 500 500" viewBox="0 0 500 500" xmlns="http://www.w3.org/2000/svg">
    <g fill="#c69c6d">
        <path d="m135.1 166.9-55.6-74.1h185.7l17.5 28h-147.4l15.7 20.8z" />
        <path d="m416.6 406.9h-182.7l-17.2-27.9h145.7l-14.5-20.4 15.2-26.7z" />
        <path
            d="m331.1 250.7c0-10.5-2-20.6-5.7-29.9l91.1-128h-98.2l17.5 28h26.5l-53 74.4c-15-16.3-36.6-26.6-60.4-26.6-23.3 0-44.4 9.8-59.3 25.4l-10.2-13-16.4 26.3 9.6 10.3 1.8-1.4c-4.9 10.5-7.6 22.2-7.6 34.5 0 10.8 2.1 21.2 6 30.7l-93.3 125.5h100.9l-16.7-28h-28.5l53.8-72.1c15 16 36.3 26 59.9 26 24.2 0 46.1-10.6 61.1-27.3l10.5 14.8 16.9-23.8-11.6-16.9c3.4-9 5.3-18.7 5.3-28.9zm-82.1 57.7c-31.8 0-57.7-25.9-57.7-57.7s25.9-57.7 57.7-57.7 57.7 25.9 57.7 57.7-25.9 57.7-57.7 57.7z" />
        <path d="m320.2 165.9-71.4-111.5-19 29.9h-31.9l50.9-82.7 88.7 141.3z" />
        <path d="m135.6 317.1-42.3-66.4 75.7-120.6 32.3-.2-75 120.8 26.3 42.7z" />
        <path d="m249.7 498.9-88-141.1 16.7-23.5 71.2 112 19-29.8h32.1z" />
        <path d="m328.3 371.9h-31.5l74.6-121.2-25.3-43.4 17.2-23.7 41 67.1z" />
    </g>
</svg>