<svg enable-background="new 0 0 500 500" viewBox="0 0 500 500" xmlns="http://www.w3.org/2000/svg">
    <linearGradient gradientTransform="matrix(1 0 0 -1 0 502)" gradientUnits="userSpaceOnUse" id="a"
        x1="467.4997" x2="67.5004" y1="34.5009" y2="434.5001">
        <stop offset=".1594" stop-color="#003cda" />
        <stop offset="1" stop-color="#33dfcc" />
    </linearGradient>
    <path
        d="m250 96.4c30.4 0 60.1 9 85.3 25.9 25.3 16.9 44.9 40.9 56.6 68.9 11.6 28.1 14.7 58.9 8.7 88.7-5.9 29.8-20.6 57.2-42 78.6-21.5 21.5-48.8 36.1-78.6 42s-60.7 2.9-88.7-8.7c-28.1-11.6-52.1-31.3-68.9-56.6-16.9-25.3-25.9-55-25.9-85.3.1-40.7 16.3-79.8 45-108.5s67.8-44.9 108.5-45zm0-96.4c-49.4 0-97.8 14.7-138.9 42.1-41.1 27.5-73.1 66.5-92.1 112.2-18.9 45.7-23.8 96-14.2 144.5s33.5 93 68.4 128c35 35 79.5 58.8 128 68.4s98.8 4.7 144.4-14.2c45.7-18.9 84.7-51 112.2-92.1s42.2-89.5 42.2-138.9c0-66.3-26.3-129.9-73.2-176.8-46.9-46.9-110.5-73.2-176.8-73.2z"
        fill="url(#a)" />
    <path d="m250 446c108.2 0 196-87.7 196-196s-87.8-196-196-196-196 87.8-196 196 87.8 196 196 196z"
        fill="#fff" />
    <path
        d="m361.8 362.9c-14.8 14.8-32.4 26.4-51.8 34.2s-40.1 11.7-61 11.3c-20.8.4-41.4-3.4-60.6-11.3-19.2-7.8-36.7-19.5-51.2-34.3-14.9-14.5-26.7-31.9-34.5-51.2-7.9-19.3-11.7-39.9-11.2-60.7 0-45.5 15.3-83.5 45.9-113.8 14.6-14.8 32-26.5 51.2-34.3s39.9-11.6 60.6-11.2c20.9-.4 41.6 3.5 61 11.3s37 19.5 51.7 34.2c31.2 30.4 46.9 68.3 46.9 113.8.4 20.9-3.6 41.6-11.7 60.9-8.1 19.4-20.1 36.7-35.3 51.1z"
        fill="#c43c86" />
    <path d="m195.4 294.7 108.9.2-54.3-94.1z" fill="#fff" />
    <path
        d="m250.2 131.8c-.9 0-1.8.2-2.6.7s-1.5 1.1-1.9 1.9l-108.5 186.5c-.5.8-.7 1.7-.7 2.6s.2 1.8.7 2.6l66.1-38.2 46.7-80.4z"
        fill="#ef4b2d" />
    <path
        d="m362.5 321.2-107.8-186.8c-.5-.8-1.1-1.4-1.9-1.9s-1.7-.7-2.6-.7v75.8l46.3 80.5 66 38.4c.5-.8.7-1.7.7-2.6s-.2-1.9-.7-2.7z"
        fill="#9d2063" />
    <path
        d="m362.5 326.4-66-38.4h-93.2l-66.1 38c.4.8 1.1 1.5 1.9 1.9.8.5 1.7.7 2.6.7l216.3.4c.9 0 1.8-.2 2.6-.7.8-.4 1.4-1.1 1.9-1.9z"
        fill="#662f8e" />
</svg>