<svg enable-background="new 0 0 500 500" viewBox="0 0 500 500" xmlns="http://www.w3.org/2000/svg">
    <linearGradient gradientTransform="matrix(1 0 0 -1 0 501)" gradientUnits="userSpaceOnUse" id="a"
        x1="314.2548" x2="482.6302" y1="355.6344" y2="182.1662">
        <stop offset=".21" stop-color="#f15a24" />
        <stop offset=".6841" stop-color="#fbb03b" />
    </linearGradient>
    <linearGradient gradientTransform="matrix(1 0 0 -1 0 501)" gradientUnits="userSpaceOnUse" id="b"
        x1="184.8077" x2="16.4314" y1="146.326" y2="319.794">
        <stop offset=".21" stop-color="#ed1e79" />
        <stop offset=".8929" stop-color="#522785" />
    </linearGradient>
    <path
        d="m378.3 127.2c-28 0-58.5 14.9-90.7 44.3-15.3 13.8-28.6 28.8-38.4 40.7 0 0 15.7 17.7 32.9 36.6 9.3-11.5 22.7-27.1 38.2-41.1 28.6-26.2 47.3-31.5 58.1-31.5 40.3 0 72.9 33 72.9 73.9 0 40.5-32.6 73.5-72.9 73.9-1.9 0-4.2-.2-7-.9 11.7 5.3 24.4 9.2 36.2 9.2 73.8 0 88.2-49.9 89-53.5 2.1-9.2 3.4-18.7 3.4-28.6-.2-67.8-54.7-123-121.7-123z"
        fill="url(#a)" />
    <path
        d="m120.8 372.8c28 0 58.5-14.9 90.7-44.3 15.3-13.8 28.6-28.8 38.4-40.7 0 0-15.7-17.7-32.9-36.6-9.3 11.5-22.7 27.1-38.2 41.1-28.6 26-47.5 31.5-58.1 31.5-40.3 0-72.9-33-72.9-73.9 0-40.5 32.6-73.5 72.9-73.9 1.9 0 4.2.2 7 .9-11.7-5.3-24.4-9.2-36.2-9.2-73.8 0-88.2 49.9-89 53.5-2.1 9.2-3.4 18.7-3.4 28.6 0 67.8 54.5 123 121.7 123z"
        fill="url(#b)" />
    <path clip-rule="evenodd"
        d="m176.9 208.8c-8.1-7.7-47.5-39-85.2-40.1-67.2-1.7-87 46.2-88.7 52.4 12.9-53.7 60.9-93.7 118-93.9 46.5 0 93.5 44.7 128.3 85 .1-.1.1-.1.2-.2 0 0 15.7 17.7 32.9 36.6 0 0 19.5 22.6 40.3 42.4 8.1 7.7 47.3 38.6 85 39.6 69.1 1.9 88.2-48.6 89.2-52.4-12.7 53.9-60.8 94.2-118.1 94.4-46.5 0-93.6-44.7-128.5-85-.1.1-.1.2-.2.2 0 0-15.7-17.7-32.9-36.6-.1 0-19.6-22.6-40.3-42.4zm-174.1 12.8c0-.1.1-.3.1-.4 0 .1 0 .2-.1.4z"
        fill="#29abe2" fill-rule="evenodd" />
</svg>