<svg enable-background="new 0 0 500 500" viewBox="0 0 500 500" xmlns="http://www.w3.org/2000/svg">
    <linearGradient gradientTransform="matrix(1 0 0 -1 0 502)" gradientUnits="userSpaceOnUse" id="a"
        x1="467.5" x2="67.5" y1="34.5001" y2="434.5">
        <stop offset=".1594" stop-color="#003cda" />
        <stop offset="1" stop-color="#33dfcc" />
    </linearGradient>
    <path
        d="m250 96.4c30.4 0 60.1 9 85.3 25.9 25.3 16.9 44.9 40.9 56.6 68.9 11.6 28.1 14.7 58.9 8.7 88.7-5.9 29.8-20.6 57.2-42 78.6s-48.8 36.1-78.6 42-60.7 2.9-88.7-8.7c-28.1-11.6-52.1-31.3-68.9-56.6-16.9-25.3-25.9-55-25.9-85.3.1-40.7 16.3-79.8 45-108.5s67.8-44.9 108.5-45zm0-96.4c-49.4 0-97.8 14.7-138.9 42.1-41.1 27.5-73.1 66.5-92.1 112.2-18.9 45.7-23.8 96-14.2 144.5s33.5 93 68.4 128c35 35 79.5 58.8 128 68.4s98.8 4.7 144.4-14.2c45.7-18.9 84.7-51 112.2-92.1s42.2-89.5 42.2-138.9c0-66.3-26.3-129.9-73.2-176.8-46.9-46.9-110.5-73.2-176.8-73.2z"
        fill="url(#a)" />
    <path d="m250 446c108.2 0 196-87.7 196-196s-87.8-196-196-196-196 87.8-196 196 87.8 196 196 196z"
        fill="#fff" />
    <circle cx="250" cy="250" fill="#f8a608" r="161.1" />
    <g fill="#fff">
        <path clip-rule="evenodd"
            d="m186.1 173.6h65.3c42.2 0 76.4 34.2 76.4 76.4s-34.2 76.4-76.4 76.4h-65.3zm16.8 16.8v119.2h48.5c32.9 0 59.6-26.7 59.6-59.6s-26.7-59.6-59.6-59.6z"
            fill-rule="evenodd" />
        <path d="m164.6 240.7h178.1v-16.8h-178.1z" />
        <path d="m164.6 276.5h178.1v-16.8h-178.1z" />
    </g>
</svg>