<svg enable-background="new 0 0 500 500" viewBox="0 0 500 500" xmlns="http://www.w3.org/2000/svg">
    <linearGradient gradientTransform="matrix(1 0 0 -1 0 502)" gradientUnits="userSpaceOnUse" id="a"
        x1="467.5" x2="67.5001" y1="34.5006" y2="434.5005">
        <stop offset=".1594" stop-color="#003cda" />
        <stop offset="1" stop-color="#33dfcc" />
    </linearGradient>
    <path
        d="m250 96.4c30.4 0 60.1 9 85.3 25.9 25.3 16.9 44.9 40.9 56.6 68.9 11.6 28.1 14.7 58.9 8.7 88.7-5.9 29.8-20.6 57.2-42 78.6-21.5 21.5-48.8 36.1-78.6 42s-60.7 2.9-88.7-8.7c-28.1-11.6-52.1-31.3-68.9-56.6-16.9-25.3-25.9-55-25.9-85.3.1-40.7 16.3-79.8 45-108.5s67.8-44.9 108.5-45zm0-96.4c-49.4 0-97.8 14.7-138.9 42.1-41.1 27.5-73.1 66.5-92.1 112.2-18.9 45.7-23.8 96-14.2 144.5s33.5 93 68.4 128c35 35 79.5 58.8 128 68.4s98.8 4.7 144.4-14.2c45.7-18.9 84.7-51 112.2-92.1s42.2-89.5 42.2-138.9c0-66.3-26.3-129.9-73.2-176.8-46.9-46.9-110.5-73.2-176.8-73.2z"
        fill="url(#a)" />
    <path d="m250 446c108.2 0 196-87.7 196-196s-87.8-196-196-196-196 87.8-196 196 87.8 196 196 196z"
        fill="#fff" />
    <path
        d="m362 360.6c-14.8 14.8-32.4 26.4-51.7 34.3-19.4 7.8-40.1 11.7-61 11.4-20.8.4-41.4-3.4-60.6-11.3-19.2-7.8-36.7-19.5-51.2-34.3-14.9-14.5-26.7-31.9-34.5-51.2-7.9-19.3-11.7-39.9-11.3-60.7 0-45.5 15.3-83.5 45.8-113.8 14.6-14.8 32-26.5 51.2-34.3s39.9-11.6 60.6-11.2c20.9-.4 41.6 3.5 61 11.3s37 19.5 51.7 34.2c31.2 30.3 46.9 68.3 46.9 113.8.4 20.9-3.6 41.6-11.6 60.9-8.1 19.2-20.1 36.6-35.3 50.9z"
        fill="#c8c8c8" />
    <path d="m250.2 115-82 135.9 82-37.2z" fill="#8b8b8b" />
    <path d="m250.2 213.7-82 37.2 82 48.4z" fill="#393939" />
    <path d="m250.2 115v98.6l81.9 37.2z" fill="#343434" />
    <path d="m250.2 213.7v85.6l81.9-48.4z" fill="#161616" />
    <path d="m168.1 266.4 82 115.4v-67z" fill="#8b8b8b" />
    <path d="m332.2 266.4-82 48.4v67z" fill="#343434" />
</svg>