<svg enable-background="new 674 0 500 500" viewBox="674 0 500 500"
    xmlns="http://www.w3.org/2000/svg">
    <path
        d="m895.407 4.058c36.537 21.827 70.895 47.083 107.096 69.469-44.448 79.264-88.92 158.552-133.414 237.863-17.708-31.761-34.299-64.152-51.798-96.055 25.199-70.729 53.967-140.2 78.116-211.277z"
        fill="#f9c011" />
    <path
        d="m779.632 495.943c75.526-140.409 153.992-279.278 228.68-420.038 19.949 35.821 39.968 71.641 60.057 107.46-57.888 104.1-116.196 207.92-173.662 312.229-38.358-.001-76.708-.49-115.075.349"
        fill="#db712a" />
    <path
        d="m901.917 495.382c31.987-55.967 62.157-112.915 94.565-168.603 19.319 25.256 38.918 50.372 58.097 75.765-50.677 31.345-101.636 62.127-152.662 92.838"
        fill="#b7230f" />
</svg>