<svg enable-background="new 0 0 500 500" viewBox="0 0 500 500" xmlns="http://www.w3.org/2000/svg">
    <path
        d="m249.4 2.5c-136.4 0-247 110.6-247 247s110.6 247 247 247 247-110.6 247-247-110.6-247-247-247zm0 476c-52.1 0-100-17.4-138.5-46.6.9-10.6 5.3-31.5 23.3-59 26.6-40.5 66.3-61.2 130.3-61.2s107.2 23.4 110.4 31.8c3.2 8.3-11.5 15.5-11.5 15.5s12.3-.4 29-10.7 4-27 4-27l-44.5-44.9s.4-2.8-5.6-19.9-23.4-54-63.1-79.8c-39-25.3-66.7-28.6-134.6-30.2-53.8-1.3-94.1 6.9-108.6 10.4 35.6-80.3 116-136.3 209.4-136.3 126.5 0 229 102.5 229 229s-102.5 228.9-229 228.9zm26.2-263.3 47.7 48.1h-26.6l-22.5-47.1c-.4-.9.7-1.7 1.4-1z"
        fill="#3a3a3a" />
</svg>