<svg enable-background="new 991 -1000 2481 2500" viewBox="991 -1000 2481 2500"
    xmlns="http://www.w3.org/2000/svg">
    <g fill="#b2a3f6">
        <ellipse cx="1949.742" cy="-307.702" rx="151.664" ry="150.147" />
        <ellipse cx="2382.995" cy="-479.25" rx="151.664" ry="150.147" />
        <ellipse cx="2556.398" cy="550.21" rx="151.664" ry="150.147" />
        <ellipse cx="1104.806" cy="400.063" rx="86.617" ry="85.774" />
        <ellipse cx="1343.087" cy="979.251" rx="65.047" ry="64.373" />
        <ellipse cx="2036.359" cy="1408.123" rx="65.047" ry="64.373" />
        <ellipse cx="3163.053" cy="1022.054" rx="65.047" ry="64.373" />
        <ellipse cx="2469.781" cy="893.476" rx="65.047" ry="64.373" />
        <ellipse cx="2859.726" cy="593.182" rx="65.047" ry="64.373" />
        <ellipse cx="2404.734" cy="1386.721" rx="86.617" ry="85.774" />
        <ellipse cx="2794.678" cy="314.289" rx="86.617" ry="85.774" />
        <ellipse cx="2924.772" cy="1172.201" rx="86.617" ry="85.774" />
        <ellipse cx="1212.993" cy="721.928" rx="108.355" ry="107.176" />
        <ellipse cx="2253.07" cy="1107.828" rx="151.664" ry="150.147" />
        <ellipse cx="1429.703" cy="378.662" rx="151.664" ry="150.147" />
        <ellipse cx="2253.07" cy="764.73" rx="108.355" ry="107.176" />
        <ellipse cx="1733.031" cy="-135.985" rx="65.047" ry="64.373" />
        <ellipse cx="2144.714" cy="56.966" rx="129.925" ry="128.746" />
        <ellipse cx="2448.042" cy="228.514" rx="86.617" ry="85.774" />
        <ellipse cx="2599.706" cy="-822.348" rx="65.047" ry="64.373" />
        <ellipse cx="2296.378" cy="-865.319" rx="108.355" ry="107.176" />
        <ellipse cx="2361.425" cy="-157.555" rx="86.617" ry="85.774" />
        <ellipse cx="1538.059" cy="743.329" rx="129.925" ry="128.746" />
        <ellipse cx="2794.678" cy="871.906" rx="129.925" ry="128.746" />
        <ellipse cx="2621.445" cy="1172.201" rx="129.925" ry="128.746" />
        <ellipse cx="1603.106" cy="1150.799" rx="151.664" ry="150.147" />
        <ellipse cx="1148.114" cy="56.966" rx="129.925" ry="128.746" />
    </g>
    <ellipse cx="1798.078" cy="228.514" fill="#fc4c04" rx="173.402" ry="171.549" />
    <ellipse cx="2708.062" cy="-28.809" fill="#fc4c04" rx="173.402" ry="171.549" />
    <ellipse cx="3184.623" cy="743.329" fill="#fc4c04" rx="129.926" ry="128.746" />
    <ellipse cx="3314.717" cy="228.514" fill="#fc4c04" rx="129.926" ry="128.746" />
    <ellipse cx="2816.417" cy="-350.505" fill="#fc4c04" rx="108.355" ry="107.176" />
    <ellipse cx="2837.987" cy="-672.201" fill="#fc4c04" rx="86.617" ry="85.774" />
    <ellipse cx="3032.959" cy="-565.025" fill="#fc4c04" rx="65.047" ry="64.373" />
    <ellipse cx="3379.764" cy="-50.21" fill="#fc4c04" rx="65.047" ry="64.373" />
    <ellipse cx="1516.32" cy="-607.828" fill="#fc4c04" rx="65.047" ry="64.373" />
    <ellipse cx="1429.703" cy="-50.21" fill="#fc4c04" rx="65.047" ry="64.373" />
    <ellipse cx="1603.106" cy="35.564" fill="#fc4c04" rx="65.047" ry="64.373" />
    <ellipse cx="1819.648" cy="-779.545" fill="#fc4c04" rx="65.047" ry="64.373" />
    <ellipse cx="3379.764" cy="507.407" fill="#fc4c04" rx="65.047" ry="64.373" />
    <ellipse cx="3163.053" cy="-264.73" fill="#fc4c04" rx="151.664" ry="150.147" />
    <ellipse cx="3032.959" cy="121.339" fill="#fc4c04" rx="108.355" ry="107.176" />
    <ellipse cx="1559.797" cy="-350.505" fill="#fc4c04" rx="108.355" ry="107.176" />
    <ellipse cx="2036.359" cy="-650.799" fill="#fc4c04" rx="108.355" ry="107.176" />
    <ellipse cx="1754.77" cy="-586.426" fill="#fc4c04" rx="86.617" ry="85.774" />
    <ellipse cx="1278.04" cy="-243.329" fill="#fc4c04" rx="86.617" ry="85.774" />
    <ellipse cx="3098.006" cy="443.035" fill="#fc4c04" rx="86.617" ry="85.774" />
    <ellipse cx="2166.453" cy="421.633" fill="#fc4c04" rx="151.664" ry="150.147" />
    <ellipse cx="1884.695" cy="571.78" fill="#fc4c04" rx="86.617" ry="85.774" />
    <ellipse cx="1928.004" cy="871.906" fill="#fc4c04" rx="129.925" ry="128.746" />
    <ellipse cx="1928.004" cy="1172.201" fill="#fc4c04" rx="86.617" ry="85.774" />
</svg>