<svg enable-background="new 0 0 500 500" viewBox="0 0 500 500" xmlns="http://www.w3.org/2000/svg">
    <path d="m299.359 129.091-98.718-55.039 98.718-55.04z" fill="#32dfc5" />
    <path d="m188.726 174.024-98.717-55.039 98.717-55.039z" fill="#67e9d1" />
    <path d="m173.096 277.678-98.717-55.04 98.717-55.039z" fill="#0bdbb5" />
    <path d="m101.924 375.572-98.717-55.039 98.717-55.039z" fill="#72ebd6" />
    <path d="m279.615 452.078-98.717-55.039 98.717-55.039z" fill="#99efe9" />
    <path d="m496.793 349.248-98.717-55.04 98.717-55.039z" fill="#1dd7d6" />
    <path d="m496.793 239.169-98.717-55.039 98.717-55.039z" fill="#00d4cd" />
    <path d="m398.076 184.13-98.717-55.039 98.717-55.039z" fill="#00d6c2" />
    <path d="m299.359 349.248-98.718-55.04 98.718-55.039z" fill="#67e7dc" />
    <path d="m287.443 231.987-98.717-55.04 98.717-55.039z" fill="#6ae6d9" />
    <path d="m52.565 124.478 98.718 55.04-98.718 55.039z" fill="#99f1dd" />
    <path d="m101.924 237.935 98.717 55.04-98.717 55.039z" fill="#99f1dd" />
    <path d="m188.726 108.447 98.717 55.039-98.717 55.039z" fill="#0bdabb" />
    <path d="m167.337 320.533 98.718 55.039-98.718 55.04z" fill="#1bdac7" />
    <path d="m301.428 369.892 98.718 55.039-98.718 55.039z" fill="#4de3de" />
    <path d="m398.076 294.208 98.717 55.04-98.717 55.039z" fill="#00d3d3" />
    <path d="m398.076 184.13 98.717 55.039-98.717 55.039z" fill="#34ded6" />
    <path d="m398.076 74.052 98.717 55.039-98.717 55.039z" fill="#19dacd" />
    <path d="m299.359 129.091 98.717 55.039-98.717 55.039z" fill="#34dfd0" />
    <path d="m299.359 19.012 98.717 55.04-98.717 55.039z" fill="#00d7bc" />
    <path d="m299.359 239.169 98.717 55.04-98.717 55.039z" fill="#34dfd3" />
    <path d="m398.076 294.209-98.717-55.04 98.717-55.039z" fill="#0dd8cb" />
    <path d="m398.076 404.287-98.717-55.039 98.717-55.04z" fill="#4be2dc" />
</svg>