<svg enable-background="new 0 0 500 500" viewBox="0 0 500 500" xmlns="http://www.w3.org/2000/svg">
    <linearGradient gradientTransform="matrix(1 0 0 -1 0 502)" gradientUnits="userSpaceOnUse" id="a"
        x1="467.5001" x2="67.5001" y1="34.5006" y2="434.5006">
        <stop offset=".1594" stop-color="#003cda" />
        <stop offset="1" stop-color="#33dfcc" />
    </linearGradient>
    <path
        d="m250 96.4c30.4 0 60.1 9 85.3 25.9 25.3 16.9 44.9 40.9 56.6 68.9 11.6 28.1 14.7 58.9 8.7 88.7-5.9 29.8-20.6 57.2-42 78.6-21.5 21.5-48.8 36.1-78.6 42s-60.7 2.9-88.7-8.7c-28.1-11.6-52.1-31.3-68.9-56.6-16.9-25.3-25.9-55-25.9-85.3.1-40.7 16.3-79.8 45-108.6 28.7-28.6 67.8-44.8 108.5-44.9zm0-96.4c-49.4 0-97.8 14.7-138.9 42.1-41.1 27.5-73.1 66.5-92.1 112.2-18.9 45.7-23.8 96-14.2 144.5s33.5 93 68.4 128c35 35 79.5 58.8 128 68.4s98.8 4.7 144.4-14.2c45.7-18.9 84.7-51 112.2-92.1s42.2-89.5 42.2-138.9c0-66.3-26.3-129.9-73.2-176.8-46.9-46.9-110.5-73.2-176.8-73.2z"
        fill="url(#a)" />
    <path d="m250 446c108.2 0 196-87.7 196-196s-87.8-196-196-196-196 87.8-196 196 87.8 196 196 196z"
        fill="#fff" />
    <path
        d="m361.6 363c-14.8 14.7-32.4 26.4-51.8 34.2s-40.1 11.6-61 11.2c-20.8.4-41.4-3.5-60.6-11.4s-36.6-19.6-51.2-34.4c-30.5-30.4-45.7-67.7-45.6-112 0-45.5 15.3-83.4 46-113.7 14.6-14.8 32.1-26.4 51.3-34.2s39.9-11.6 60.7-11.1c20.9-.3 41.6 3.6 61 11.4 19.4 7.9 36.9 19.5 51.7 34.3 31.2 30.4 46.8 68.3 46.6 113.9.4 20.9-3.6 41.6-11.7 60.9-8.2 19.2-20.2 36.6-35.4 50.9z"
        fill="#5f2652" />
    <path clip-rule="evenodd"
        d="m215.3 254.2-.3 1.9-.1.8c-1.4 10.6-5.4 13.7-15.5 18.2 0 0 0 0-.1 0l-36.6 16.3 82.7 47.7v-27.3c0-10-.6-11.8-9.4-16.7-1.7-1-3.5-2-5.4-3.1l-1.2-.7c-5.5-3-9.9-7.3-13.2-12.5-.1-.2-1-1.5-1.1-1.7.7-.4 1.3-.8 1.9-1.4.6-.5 1.1-1.2 1.5-1.9 2.9 5.7 7.3 10.5 12.9 13.6l1.4.8c1.9 1.1 3.8 2.1 5.5 3.1 10.8 6 11.6 9.7 11.6 20.5v27.3l83.5-48.6-35.7-15.8-2.3-1c-.9-.4-3.8-1.6-6-1.7s-5.7 0-7.5 2.4c-1.7 2.2-3.4 4.4-5.1 6.5-3.9 5.2-9.1 9.4-15.2 11.9 0 0 0 0-.1 0-1.6.7-3.4 1.1-5.1 1.5-.4-.7-.9-1.5-1.4-2.1-.4-.5-.9-1.1-1.4-1.6 2.6-.5 5.6-1.4 8-2.5 4.7-2.2 8.7-5.4 11.8-9.4.2-.2.3-.4.4-.6.3-.4.6-.8.9-1.3.8-1.1 2.1-2.8 3.8-5 1.2-1.5 2.8-2.5 4.6-3.2 1.9-.7 4.1-1 6.5-1 3.6.1 7.7 2.1 7.7 2.1l1.3.5h.1l3.3 1.4 31.2 13.8-83.1-134v56.7c0 9.8.7 11.9 9.6 16.9.7.4 1.4.7 2.1 1.1l1.1.6c.3.1.6.3.8.4 11.6 5.7 19.8 17.1 20.5 30.5-.8.2-1.9.5-2.6.7-.5.1-1.2.5-1.8.8-.1-12.4-7.5-23-18.2-28.2h-.1c-.6-.3-1.2-.6-1.9-.9-2.3-1.1-4.4-2.3-6.5-3.7-.3-.2-.6-.4-.9-.7-.7-.5-1.3-1-1.8-1.4-.3-.3-.6-.5-.8-.8-3.6-3.6-4.3-7.7-4.3-15.3v-56.8l-83.4 135.3 36.8-16.4c8.2-3.6 10.6-6.7 11.7-15.5 0-.1.1-.4.1-.5 2.1-14 12.5-25.3 26.1-29.2l1.8-.5c.2.7.5 1.4.9 2.1s.9 1.3 1.5 1.9l-1.7.4c-12 3.2-21.5 13-23.8 25.3zm-60.1 35.4 90.6-146.9c.2-.3.5-.6.8-.8s.7-.3 1.1-.3.8.1 1.1.3.6.5.8.8l90.8 146.3c.1.2.2.5.3.8v.9c-.1.3-.2.5-.4.8-.2.2-.4.4-.6.6l-90.8 52.8c-.3.2-.7.3-1.1.3s-.8-.1-1.1-.3l-90.7-52.3c-.3-.1-.5-.3-.6-.6-.2-.2-.3-.5-.4-.8s-.1-.6 0-.9c-.1-.2 0-.5.2-.7z"
        fill="#fff" fill-rule="evenodd" stroke="#fff" />
</svg>