<svg xmlns:xlink="http://www.w3.org/1999/xlink" enable-background="new 0 0 500 500"
    viewBox="0 0 500 500" xmlns="http://www.w3.org/2000/svg">
    <linearGradient id="a">
        <stop offset="0" stop-color="#009dde" />
        <stop offset=".5" stop-color="#694d9f" />
        <stop offset="1" stop-color="#ed3554" />
    </linearGradient>
    <linearGradient gradientTransform="matrix(.5 0 0 -.5 0 250)" gradientUnits="userSpaceOnUse"
        id="b" x1="96.0974" x2="876.0774" y1="-402.5025" y2="377.4774" xlink:href="#a" />
    <linearGradient gradientTransform="matrix(.5 0 0 -.5 0 250)" gradientUnits="userSpaceOnUse"
        id="c" x1="181.1974" x2="961.1775" y1="-487.6026" y2="292.3774" xlink:href="#a" />
    <linearGradient gradientTransform="matrix(.5 0 0 -.5 0 250)" gradientUnits="userSpaceOnUse"
        id="d" x1="403.7268" x2="1183.7067" y1="-710.1318" y2="69.848" xlink:href="#a" />
    <linearGradient gradientTransform="matrix(.5 0 0 -.5 0 250)" gradientUnits="userSpaceOnUse"
        id="e" x1="324.4724" x2="1104.4524" y1="-630.8776" y2="149.1024" xlink:href="#a" />
    <linearGradient gradientTransform="matrix(.5 0 0 -.5 0 250)" gradientUnits="userSpaceOnUse"
        id="f" x1="-130.9276" x2="649.0526" y1="-175.4775" y2="604.5023" xlink:href="#a" />
    <linearGradient gradientTransform="matrix(.5 0 0 -.5 0 250)" gradientUnits="userSpaceOnUse"
        id="g" x1="-210.0172" x2="569.9626" y1="-96.3879" y2="683.5922" xlink:href="#a" />
    <linearGradient gradientTransform="matrix(.5 0 0 -.5 0 250)" gradientUnits="userSpaceOnUse"
        id="h" x1="12.4973" x2="792.4774" y1="-318.9023" y2="461.0773" xlink:href="#a" />
    <path
        d="m151.8 362.4-114.8 12.8 67.3-155.4-68.9-94 167.6-19.1 45.6-104.7 99.8 135.6 114.7-12.9-67.1 154.6 68.4 93.4-166.8 19-46.1 106.3zm47.6-10.4c-4.4 2.1-9.1 4-13.9 5.3l-4.4 1.2 64.7 87.9 23-52.8-4.1-.5c-22.6-2.9-43.1-15-56.4-33.4l-6.4-8.9zm-22.5-79.6 52.2 72.1c10.6 14.6 27.7 23.4 45.8 23.4 2.1 0 4.2-.1 6.2-.4l136.1-15.5-54.2-73.9c-2.7-3.6-5.8-7-9.2-9.9l-3.2-2.6-38.8 87.6-67.5-89.4zm2.2-87.9c-20.2 2.1-37.8 15.1-45.9 33.8l-54.6 126.2 90.8-10.2c4.5-.5 8.9-1.5 13.1-3.1l3.9-1.5-56.2-77.6 110.8-14.1 26.3-62.9zm85.8 63.6 41.1 54.4 25-56.6 11-24.9c8.2-18.6 5.9-40.4-6.2-56.8l-81.4-110.7-36.6 84.1c-1.8 4.1-3.1 8.5-3.9 13l-.7 4.1 94.9-10.1zm99.7-86.2 1.6 3.9c8.8 21.1 8.6 45.1-.6 65.8l-4.5 10 2.1 1.4c4.1 2.8 8 5.9 11.5 9.5l3.2 3.2 43.5-100.2zm-281.8-15.3 34.6 47.2 2.6-3.3c13.7-17.9 34.4-29.4 56.5-31.8l10.9-1.1.2-2.6c.4-5.4 1.3-10.9 2.8-16.2l1.2-4.5z"
        fill="url(#b)" />
    <path
        d="m225.8 500c-72-7-136.7-44.4-179.1-103.8l29-3.2c4.8 5.9 9.9 11.5 15.2 16.9 31.5 31.6 70.8 52.9 114 61.7z"
        fill="url(#c)" />
    <path
        d="m286.2 473.1c46.7-7.5 89.1-29.4 122.9-63.3 3-3 6-6.3 9.1-9.7l35.1-4c-42.2 59.4-106.8 96.9-178.8 103.9z"
        fill="url(#d)" />
    <path
        d="m460.5 330.1c9.6-25.5 14.5-52.5 14.5-80.1 0-24.4-3.9-48.4-11.4-71.3l14.1-32.5c14.8 32.7 22.3 67.6 22.3 103.8s-7.5 71-22.2 103.7z"
        fill="url(#e)" />
    <path
        d="m22.4 354c-14.8-32.7-22.4-67.6-22.4-104 0-36.6 7.6-71.7 22.6-104.6l17.2 23.5c-9.8 25.9-14.8 53.1-14.8 81.1 0 24.5 3.9 48.5 11.5 71.5z"
        fill="url(#f)" />
    <path
        d="m47.8 102.3c42.3-58.4 106.5-95.4 177.8-102.3l-11.6 26.8c-46.8 7.5-89.3 29.4-123.1 63.3-2.6 2.6-5.1 5.3-7.7 8.1z"
        fill="url(#g)" />
    <path
        d="m424.3 107c-4.8-5.9-9.9-11.6-15.2-16.8-31.4-31.6-70.7-52.9-113.7-61.7l-21-28.5c71.9 7 136.6 44.5 178.8 103.8z"
        fill="url(#h)" />
</svg>