<svg enable-background="new 0 0 500 500" viewBox="0 0 500 500" xmlns="http://www.w3.org/2000/svg">
    <linearGradient gradientTransform="matrix(1 0 0 -1 0 502)" gradientUnits="userSpaceOnUse" id="a"
        x1="467.5" x2="67.5" y1="34.5001" y2="434.5">
        <stop offset=".1594" stop-color="#003cda" />
        <stop offset="1" stop-color="#33dfcc" />
    </linearGradient>
    <linearGradient gradientTransform="matrix(1 0 0 -1 0 502)" gradientUnits="userSpaceOnUse" id="b"
        x1="140" x2="372.5" y1="362" y2="129.5">
        <stop offset="0" stop-color="#342f49" />
        <stop offset="1" />
    </linearGradient>
    <path
        d="m250 96.4c30.4 0 60.1 9 85.3 25.9 25.3 16.9 44.9 40.9 56.6 68.9 11.6 28.1 14.7 58.9 8.7 88.7-5.9 29.8-20.6 57.2-42 78.6s-48.8 36.1-78.6 42-60.7 2.9-88.7-8.7c-28.1-11.6-52.1-31.3-68.9-56.6-16.9-25.3-25.9-55-25.9-85.3.1-40.7 16.3-79.8 45-108.5s67.8-44.9 108.5-45zm0-96.4c-49.4 0-97.8 14.7-138.9 42.1-41.1 27.5-73.1 66.5-92.1 112.2-18.9 45.7-23.8 96-14.2 144.5s33.5 93 68.4 128c35 35 79.5 58.8 128 68.4s98.8 4.7 144.4-14.2c45.7-18.9 84.7-51 112.2-92.1s42.2-89.5 42.2-138.9c0-66.3-26.3-129.9-73.2-176.8-46.9-46.9-110.5-73.2-176.8-73.2z"
        fill="url(#a)" />
    <path d="m250 446c108.2 0 196-87.7 196-196s-87.8-196-196-196-196 87.8-196 196 87.8 196 196 196z"
        fill="#fff" />
    <circle cx="250" cy="250" fill="url(#b)" r="160" />
    <g fill="#fff">
        <path
            d="m327.2 286.1c0-10.5-7.5-17.4-16.7-17.4h-27.5v9h27.5c4.7 0 8.5 3.1 8.5 8.5 0 5.2-3.8 8.2-8.5 8.2h-27.5v9.6h27.4c9.3-.1 16.8-7.1 16.8-17.9z" />
        <path
            d="m327.2 245.8c0-9.6-5.2-16.2-13.4-16.2-7.2 0-11.5 4.8-13.2 12.7l-.9 4.1c-.9 4.1-2.5 5.8-4.8 5.8-2.9 0-4.8-2.2-4.8-6.2 0-4.5 2.2-6.6 5.1-7.4v-7.5h-4.4c-5.3 1.2-8.6 6.7-8.6 14.6 0 9.5 4.8 15.7 13.2 15.7 7 0 11.2-4.4 12.8-12.3l.8-4c1-4.4 2.6-6.3 5.4-6.3 3.2 0 5.1 2.7 5.1 6.7 0 4.6-2 7.4-5.3 8.5v7.5h4.3c4.7-1.7 8.7-6.8 8.7-15.7z" />
        <path
            d="m326.3 222.5v-15.1c0-13.3-9.8-21.5-21.8-21.5-11.8 0-21.5 8.2-21.5 21.5v15.1zm-8.1-9.6h-27v-5.4c0-7.5 6-11.9 13.3-11.9 7.6 0 13.7 4.3 13.7 11.9z" />
        <path
            d="m226.9 238.8c4.4 0 8 3.5 8 7.9s-3.6 7.9-8 7.9h-20.7c-20 0-36.2-16.2-36.2-36.1s16.2-36.1 36.2-36.1h53.3c4.4 0 8 3.5 8 7.9s-3.6 7.9-8 7.9h-53.3c-11.2 0-20.3 9.1-20.3 20.2 0 11.2 9.1 20.2 20.3 20.2h20.7z" />
        <path
            d="m210.6 254.7c-4.4 0-8-3.6-8-7.9s3.6-7.9 8-7.9h20.7c20 0 36.2 16.2 36.2 36.1s-16.2 36.1-36.2 36.1h-53.3c-4.4 0-8-3.5-8-7.9s3.6-7.9 8-7.9h53.3c11.2 0 20.3-9.1 20.3-20.2 0-11.2-9.1-20.2-20.3-20.2h-20.7z" />
        <path d="m184.2 307.8-12.9-9.2 81.4-113.1 12.9 9.2z" fill-opacity=".5" />
    </g>
</svg>