<svg enable-background="new 0 0 500 500" viewBox="0 0 500 500" xmlns="http://www.w3.org/2000/svg">
    <linearGradient gradientTransform="matrix(1 0 0 -1 0 502)" gradientUnits="userSpaceOnUse" id="a"
        x1="467.5001" x2="67.5001" y1="34.5006" y2="434.5006">
        <stop offset=".1594" stop-color="#003cda" />
        <stop offset="1" stop-color="#33dfcc" />
    </linearGradient>
    <path
        d="m250 96.4c30.4 0 60.1 9 85.3 25.9 25.3 16.9 44.9 40.9 56.6 68.9 11.6 28.1 14.7 58.9 8.7 88.7-5.9 29.8-20.6 57.2-42 78.6-21.5 21.5-48.8 36.1-78.6 42s-60.7 2.9-88.7-8.7c-28.1-11.6-52.1-31.3-68.9-56.6-16.9-25.3-25.9-55-25.9-85.3.1-40.7 16.3-79.8 45-108.6 28.7-28.6 67.8-44.8 108.5-44.9zm0-96.4c-49.4 0-97.8 14.7-138.9 42.1-41.1 27.5-73.1 66.5-92.1 112.2-18.9 45.7-23.8 96-14.2 144.5s33.5 93 68.4 128c35 35 79.5 58.8 128 68.4s98.8 4.7 144.4-14.2c45.7-18.9 84.7-51 112.2-92.1s42.2-89.5 42.2-138.9c0-66.3-26.3-129.9-73.2-176.8-46.9-46.9-110.5-73.2-176.8-73.2z"
        fill="url(#a)" />
    <path d="m250 446c108.2 0 196-87.7 196-196s-87.8-196-196-196-196 87.8-196 196 87.8 196 196 196z"
        fill="#fff" />
    <path
        d="m408.6 250.3c.2-87.5-70.7-158.5-158.3-158.7s-158.7 70.6-158.9 158.1 70.7 158.5 158.3 158.7 158.7-70.6 158.9-158.1z"
        fill="#3574b9" />
    <g fill="#fff">
        <path
            d="m220.7 359.4c0 3.9-2.7 5.3-6.6 5.3-24.1-7.7-45.2-22.8-60.1-43.2-15-20.5-23-45.2-22.9-70.5 0-25.3 8.2-50 23.2-70.3 15-20.4 36.1-35.5 60.3-43 3.9-1.3 6.6 1.3 6.6 5.3v9.4c0 1.4-.3 2.7-1 3.9s-1.7 2.1-2.9 2.7c-19 6.8-35.4 19.4-47.1 35.9-11.6 16.5-17.9 36.2-17.9 56.4s6.1 39.9 17.7 56.5 27.9 29.2 46.9 36.1c1.2.6 2.2 1.6 2.9 2.7.7 1.2 1 2.5 1 3.9z" />
        <path
            d="m260.4 326.6c0 1.4-.6 2.7-1.6 3.7s-2.3 1.6-3.7 1.7h-10.6c-1.4-.1-2.7-.7-3.6-1.7-1-1-1.6-2.3-1.6-3.7v-15.6c-21.2-2.7-31.7-14.6-35.7-31.8 0-2.6 1.4-5.3 3.9-5.3h11.9c2.6 0 3.9 1.3 5.3 3.9 2.6 9.3 7.8 17.2 25.1 17.2 13.2 0 22.5-6.6 22.5-17.1s-5.3-14.5-23.8-17.2c-27.8-3.9-41-12-40.9-34.4 0-17.1 13.3-30.4 31.8-32.9v-16.2c.1-1.4.7-2.7 1.6-3.6 1-1 2.3-1.6 3.6-1.6h10.6c1.4.1 2.7.7 3.6 1.6 1 1 1.6 2.3 1.6 3.6v15.9c15.9 2.7 26.4 11.9 29 26.4 0 2.6-1.3 5.3-3.9 5.3h-10.5c-2.7 0-3.9-1.3-5.3-3.9-2.6-9.3-9.2-13.2-21.1-13.2-13.2 0-19.8 6.6-19.8 15.6s3.9 14.5 23.8 17.2c27.7 3.9 40.9 12 40.9 34.4 0 17.1-13.2 31.6-33.1 35.6z" />
        <path
            d="m285.5 364.9c-3.9 1.3-6.6-1.3-6.6-5.3v-9.3c0-1.4.3-2.7 1-3.8.7-1.2 1.7-2.1 2.9-2.7 19-6.8 35.4-19.4 47.1-35.9 11.6-16.5 17.9-36.2 17.9-56.4s-6.1-39.9-17.7-56.5-27.9-29.2-46.9-36.1c-1.2-.6-2.2-1.6-2.9-2.7-.7-1.2-1-2.5-1-3.9v-9.3c0-3.9 2.7-5.3 6.6-5.3 47.5 15.9 83.1 60.9 83 113.7-.1 25.3-8.2 49.9-23.2 70.3-15 20.5-36.1 35.6-60.2 43.2z" />
    </g>
</svg>