<svg enable-background="new 0 0 500 500" viewBox="0 0 500 500" xmlns="http://www.w3.org/2000/svg">
    <linearGradient gradientTransform="matrix(1 0 0 -1 0 502)" gradientUnits="userSpaceOnUse" id="a"
        x1="467.4997" x2="67.5005" y1="34.5011" y2="434.5003">
        <stop offset=".1594" stop-color="#003cda" />
        <stop offset="1" stop-color="#33dfcc" />
    </linearGradient>
    <linearGradient gradientTransform="matrix(1 0 0 -1 0 502)" gradientUnits="userSpaceOnUse" id="b"
        x1="250.2956" x2="249.7331" y1="444.9749" y2="124.9691">
        <stop offset="0" stop-color="#f8a94b" />
        <stop offset="1" stop-color="#f6921e" />
    </linearGradient>
    <path
        d="m250 96.4c30.4 0 60.1 9 85.3 25.9 25.3 16.9 44.9 40.9 56.6 68.9 11.6 28.1 14.7 58.9 8.7 88.7-5.9 29.8-20.6 57.2-42 78.6-21.5 21.5-48.8 36.1-78.6 42s-60.7 2.9-88.7-8.7c-28.1-11.6-52.1-31.3-68.9-56.6-16.9-25.3-25.9-55-25.9-85.3.1-40.7 16.3-79.8 45-108.5s67.8-44.9 108.5-45zm0-96.4c-49.4 0-97.8 14.7-138.9 42.1-41.1 27.5-73.1 66.5-92.1 112.2-18.9 45.7-23.8 96-14.2 144.5s33.5 93 68.4 128c35 35 79.5 58.8 128 68.4s98.8 4.7 144.4-14.2 84.7-51 112.2-92.1 42.2-89.5 42.2-138.9c0-66.3-26.3-129.9-73.2-176.8-46.9-46.9-110.5-73.2-176.8-73.2z"
        fill="url(#a)" />
    <path d="m250 446c108.2 0 196-87.7 196-196s-87.8-196-196-196-196 87.8-196 196 87.8 196 196 196z"
        fill="#fff" />
    <path
        d="m403.8 288.6c-7.6 30.4-24.1 57.9-47.3 79s-52.2 34.8-83.2 39.4-62.7-.1-91.1-13.5-52.1-34.9-68.2-61.8-23.9-58-22.4-89.3c1.6-31.3 12.4-61.5 31.1-86.7s44.5-44.3 74-54.8 61.6-12.1 92-4.4c40.7 10.3 75.7 36.2 97.3 72.3 21.5 35.9 28 79 17.8 119.8z"
        fill="url(#b)" />
    <path
        d="m320 227.5c3.2-21.1-12.9-32.2-34.8-40l7.2-28.6-17.4-4.4-7 27.9c-4.6-1.2-9.3-2.2-13.9-3.3l7-28-17.4-4.3-7.2 28.5c-3.9-.9-7.5-1.7-11.1-2.6l-24-6-4.6 18.6s12.9 3 12.6 3.2c2.4.3 4.6 1.5 6.1 3.4s2.2 4.3 2 6.7l-19.5 78.1c-.6 1.5-1.7 2.8-3.1 3.5-1.5.7-3.1.9-4.7.4 0 .2-12.7-3.2-12.7-3.2l-8.7 19.9 22.6 5.7 12.4 3.2-7.6 29 17.4 4.4 7.2-28.6c4.8 1.3 9.3 2.5 13.9 3.6l-7.1 28.4 17.4 4.4 7.3-28.8c29.6 5.7 52 3.4 61.4-23.4 7.8-21.6-.3-34-15.9-42.1 11.3-2.7 19.9-10.2 22.2-25.6zm-39.9 55.7c-5.4 21.5-41.8 9.8-53.5 6.9l9.6-38.2c11.7 2.9 49.5 8.8 43.9 31.3zm5.5-56c-5 19.5-35.2 9.6-45 7.1l8.7-34.7c9.8 2.5 41.4 7.1 36.3 27.6z"
        fill="#fff" />
</svg>