<svg enable-background="new 0 0 500 500" viewBox="0 0 500 500" xmlns="http://www.w3.org/2000/svg">
    <linearGradient gradientTransform="matrix(1 0 0 -1 0 502)" gradientUnits="userSpaceOnUse" id="a"
        x1="467.5001" x2="67.5001" y1="34.5006" y2="434.5006">
        <stop offset=".1594" stop-color="#003cda" />
        <stop offset="1" stop-color="#33dfcc" />
    </linearGradient>
    <path
        d="m250 96.4c30.4 0 60.1 9 85.3 25.9 25.3 16.9 44.9 40.9 56.6 68.9 11.6 28.1 14.7 58.9 8.7 88.7-5.9 29.8-20.6 57.2-42 78.6-21.5 21.5-48.8 36.1-78.6 42s-60.7 2.9-88.7-8.7c-28.1-11.6-52.1-31.3-68.9-56.6-16.9-25.3-25.9-55-25.9-85.3.1-40.7 16.3-79.8 45-108.6 28.7-28.6 67.8-44.8 108.5-44.9zm0-96.4c-49.4 0-97.8 14.7-138.9 42.1-41.1 27.5-73.1 66.5-92.1 112.2-18.9 45.7-23.8 96-14.2 144.5s33.5 93 68.4 128c35 35 79.5 58.8 128 68.4s98.8 4.7 144.4-14.2c45.7-18.9 84.7-51 112.2-92.1s42.2-89.5 42.2-138.9c0-66.3-26.3-129.9-73.2-176.8-46.9-46.9-110.5-73.2-176.8-73.2z"
        fill="url(#a)" />
    <path d="m250 446c108.2 0 196-87.7 196-196s-87.8-196-196-196-196 87.8-196 196 87.8 196 196 196z"
        fill="#fff" />
    <path
        d="m361.6 363c-14.8 14.7-32.4 26.4-51.8 34.2s-40.1 11.6-61 11.2c-20.8.4-41.4-3.5-60.6-11.4s-36.6-19.6-51.2-34.4c-30.5-30.4-45.7-67.7-45.6-112 0-45.5 15.3-83.4 46-113.7 14.6-14.8 32.1-26.4 51.3-34.2s39.9-11.6 60.7-11.1c20.9-.3 41.6 3.6 61 11.4 19.4 7.9 36.9 19.5 51.7 34.3 31.2 30.4 46.8 68.3 46.6 113.9.4 20.9-3.6 41.6-11.7 60.9-8.2 19.2-20.2 36.6-35.4 50.9z"
        fill="#6f68ae" />
    <g fill="#fff">
        <path
            d="m190.7 352.9c23.9-17.8 47.4-35.2 71.2-53 5.8 5.7 11.7 11.3 17.2 17.1.4.6.9 1 1.4 1.4.6.4 1.2.6 1.9.7s1.3.1 2-.1c.6-.2 1.3-.5 1.8-.9 10.5-5.7 19.7-13.7 26.7-23.4.6-.8 1.2-1.6 2.2-2.8 4.3 5.6 8.4 10.9 12.5 16.3s7.8 10.7 11.7 15.9c.4.3.7.8.9 1.2.2.5.3 1 .3 1.5s-.2 1-.4 1.5-.6.8-1 1.2c-14.1 15.7-32.1 27.4-52.2 33.9-13.9 4.7-28.6 6.7-43.3 5.9-17.9-1-35.4-6.1-51.1-14.8-.7-.6-1.3-1.1-1.8-1.6z" />
        <path
            d="m208.1 315c-11.4 8.5-22.3 16.6-33.4 24.6-.7.2-1.5.2-2.2.1-.7-.2-1.4-.5-2-1-15.1-13.3-26.5-30.2-33.1-49.2-5.3-14.5-7.6-30-6.8-45.4.9-17 5.5-33.6 13.3-48.8.6-1.2 1.4-2.5 2.4-4.4 3.1 3.9 6 7.8 8.8 11.3 14.2 18.7 28.4 37.4 42.7 56.1.4.4.8.9 1 1.4.2.6.3 1.2.3 1.7 0 .6-.2 1.2-.5 1.7s-.7 1-1.2 1.3c-5 4.7-9.6 9.9-14.6 14.6-.5.4-1 .9-1.3 1.5s-.6 1.2-.6 1.9c-.1.7 0 1.3.2 2 .2.6.5 1.2.9 1.7 5.7 10.4 13.7 19.3 23.2 26.3.7.8 1.5 1.4 2.9 2.6z" />
        <path
            d="m184.9 208.1c-5.7-7.6-11.1-14.6-16.5-21.8-2.7-3.6-5.3-7.4-8-11-.3-.3-.6-.6-.7-1-.2-.4-.3-.8-.3-1.2s.1-.8.3-1.2.4-.7.7-1c16.6-18.7 38.6-31.7 63-37.2 16.1-3.8 32.9-4.1 49.1-.9 12.2 2.4 24 6.6 34.9 12.6.7.5 1.3 1 1.9 1.6-4.9 3.6-9.6 7-14.3 10.4-18.3 13-36.6 26-54.7 39.1-2.5 1.8-3.9 1.8-6.2-.5-4.5-4.7-9.3-9-13.8-13.7-.7-.9-1.6-1.4-2.7-1.6-1.1-.1-2.2.1-3.1.8-10.4 5.5-19.4 13.2-26.4 22.6-.8 1.1-1.8 2.2-3.2 4z" />
        <path
            d="m291.8 185c7.4-5.6 14.4-11 21.4-16.2 3.9-2.8 7.8-5.4 11.3-8.3 1.6-1.2 2.7-1.4 4.3 0 17.1 15 29.5 34.5 35.8 56.4 3.7 12.3 5.4 25.1 4.8 38-.9 18.2-5.9 35.9-14.6 51.9 0 .3-.5.5-1.2 1.2-3.2-4.3-6.5-8.4-9.6-12.6-13.2-17.5-26.4-35-39.6-52.5-4.4-5.8-3.6-4.5.4-8.7 3.9-4.2 8.5-9.1 13-13.4.9-.7 1.5-1.8 1.6-2.9.1-1.2-.2-2.3-.9-3.2-5.6-10.5-13.4-19.6-22.9-26.6z" />
    </g>
</svg>