<svg enable-background="new 0 0 500 500" viewBox="0 0 500 500" xmlns="http://www.w3.org/2000/svg">
    <path
        d="m249.7 497c138.3 0 250.3-110.8 250.3-247.5s-112-247.5-250.3-247.5c-138.2 0-250.2 110.8-250.2 247.5s112 247.5 250.2 247.5z"
        fill="#fff" />
    <path
        d="m495.1 249.6c0 135.5-109.9 245.4-245.4 245.4-135.5-.1-245.3-109.9-245.3-245.4s109.8-245.4 245.3-245.4c135.6 0 245.4 109.9 245.4 245.4z"
        stroke="#fff" stroke-width="9.7927" />
    <g clip-rule="evenodd" fill="#fff" fill-rule="evenodd">
        <path
            d="m257.9 150.9c0-4.7-3.6-8.6-8-8.6-4.4 0-8 3.8-8 8.6v197.6c0 4.7 3.6 8.6 8 8.6 4.4 0 8-3.8 8-8.6 0-34.5 0-163.1 0-197.6z" />
        <path
            d="m225.7 313.7c-4.4 0-8 3.8-8 8.5 0 4.7 3.6 8.6 8 8.6h47.9c4.4 0 8-3.8 8-8.5 0-4.7-3.6-8.6-8-8.6-12.3 0-35.6 0-47.9 0z" />
        <path
            d="m186.2 201.8c-4.4 0-8 3.8-8 8.5 0 4.7 3.6 8.6 8 8.6 25.1 0 102 .1 127 .1 4.4 0 8-3.8 8-8.5 0-4.7-3.6-8.6-8-8.6-25 0-101.9-.1-127-.1z" />
        <path
            d="m212.6 158.5c-3.1-3.3-8.2-3.3-11.3 0-3.1 3.3-3.1 8.8 0 12.1 17.2 18.4 68.7 73.5 85.9 91.9 3.1 3.3 8.2 3.3 11.3 0 3.1-3.3 3.1-8.8 0-12.1-17.2-18.4-68.8-73.5-85.9-91.9z" />
        <path
            d="m201.4 250.6c-3.1 3.3-3.1 8.8 0 12.1 3.1 3.3 8.2 3.3 11.3 0 17.1-18.4 68.5-73.7 85.7-92.1 3.1-3.3 3.1-8.8 0-12.1-3.1-3.3-8.2-3.3-11.3 0-17.2 18.3-68.6 73.6-85.7 92.1z" />
    </g>
    <path
        d="m249.7 469.8c121.6 0 220.2-98.6 220.2-220.2s-98.5-220.2-220.2-220.2-220.2 98.6-220.2 220.2 98.6 220.2 220.2 220.2z"
        fill="none" stroke="#f0827d" stroke-width="5.6256" />
</svg>