<svg xmlns:xlink="http://www.w3.org/1999/xlink" enable-background="new 0 0 500 500"
    viewBox="0 0 500 500" xmlns="http://www.w3.org/2000/svg">
    <linearGradient id="a">
        <stop offset="0" stop-color="#08bccd" />
        <stop offset=".9996" stop-color="#26a5f1" />
    </linearGradient>
    <linearGradient gradientUnits="userSpaceOnUse" id="b" x1="250.8566" x2="250.8566" y1="493.4556"
        y2="-.028753" xlink:href="#a" />
    <linearGradient gradientUnits="userSpaceOnUse" id="c" x1="237.8067" x2="237.8067" y1="493.4556"
        y2="-.2077" xlink:href="#a" />
    <path
        d="m250.9 3.5-213.7 123.4v246.7l213.7 123.4 213.7-123.4v-246.7zm52.9 119.6h-54.8v36.4h40.4c6.5 0 11.8 5.3 11.8 11.8s-5.3 11.8-11.8 11.8h-40.4v112.7c25.2 5.2 44.3 27.6 44.3 54.3 0 30.6-24.9 55.5-55.5 55.5s-55.5-24.9-55.5-55.5c0-26.3 18.4-48.4 43.1-54v-184.9c0-6.5 5.3-11.8 11.8-11.8h66.6c6.5 0 11.8 5.3 11.8 11.8.1 6.6-5.2 11.9-11.8 11.9z"
        fill="url(#b)" />
    <circle cx="237.8" cy="350.2" fill="url(#c)" r="31.8" />
</svg>