<svg enable-background="new 0 0 500 500" viewBox="0 0 500 500" xmlns="http://www.w3.org/2000/svg">
    <path
        d="m331.91 189.895h-22.72v-22.72c0-7.873 6.386-14.259 14.259-14.259h8.461c7.873 0 14.259 6.386 14.259 14.259v8.464c0 7.873-6.386 14.256-14.259 14.256z"
        fill="#005fff" />
    <path
        d="m198.253 189.895h-22.72c-7.873 0-14.259-6.383-14.259-14.255v-8.464c0-7.873 6.386-14.259 14.259-14.259h8.461c7.873 0 14.259 6.386 14.259 14.259z"
        fill="#005fff" />
    <path
        d="m175.533 341.508c-7.873 0-14.259-6.383-14.259-14.255v-8.464c0-7.873 6.386-14.259 14.259-14.259h22.72v22.724c0 7.873-6.386 14.255-14.259 14.255z"
        fill="#005fff" />
    <path
        d="m323.449 341.508c-7.873 0-14.259-6.383-14.259-14.255v-22.724h22.72c7.873 0 14.259 6.386 14.259 14.259v8.464c0 7.873-6.386 14.255-14.259 14.255z"
        fill="#005fff" />
    <path
        d="m249.491 156.614c-7.873 0-14.259-6.386-14.259-14.259v-8.464c0-7.873 6.386-14.255 14.259-14.255h8.461c7.873 0 14.259 6.383 14.259 14.255v8.464c0 7.873-6.386 14.259-14.259 14.259z"
        fill="#0ce" />
    <path
        d="m249.491 382.185c-7.873 0-14.259-6.383-14.259-14.255v-8.464c0-7.873 6.386-14.259 14.259-14.259h8.461c7.873 0 14.259 6.386 14.259 14.259v8.464c0 7.873-6.386 14.255-14.259 14.255z"
        fill="#0ce" />
    <path
        d="m360.428 267.551c-7.876 0-14.259-6.383-14.259-14.255v-8.464c0-7.873 6.383-14.259 14.259-14.259h8.461c7.873 0 14.259 6.386 14.259 14.259v8.464c0 7.873-6.386 14.255-14.259 14.255z"
        fill="#0ce" />
    <path
        d="m134.857 267.551c-7.877 0-14.259-6.383-14.259-14.255v-8.464c0-7.873 6.383-14.259 14.259-14.259h8.461c7.873 0 14.259 6.386 14.259 14.259v8.464c0 7.873-6.386 14.255-14.259 14.255z"
        fill="#0ce" />
    <path
        d="m298.943 231.977c5.658 0 10.247-4.637 10.247-10.358v-28.026h-28.226c-5.658 0-10.251 4.633-10.251 10.354l.004 9.211c-.004 10.395-7.817 19.34-18.105 19.34-10.284 0-19.14-8.945-19.14-19.34v-9.585c0-5.514-4.423-9.981-9.881-9.981h-25.338v114.635h25.131c5.573 0 10.088-4.563 10.088-10.188v-8.631c0-10.949 7.991-20.142 18.279-20.142 10.284.037 18.966 8.808 18.966 19.199l-.004 9.489c.004 5.673 4.556 10.273 10.169 10.273h28.307v-28.344c0-5.669-4.552-10.269-10.169-10.269h-8.453c-10.288 0-19.85-8.424-19.85-18.819.037-10.395 8.372-18.819 18.66-18.819h9.563z"
        fill="#003ec5" />
    <path
        d="m309.785 383.173c6.601-2.733 14.17.403 16.903 7.004 2.74 6.604-.399 14.17-7 16.907-6.601 2.733-14.17-.399-16.907-7.004-2.732-6.605.404-14.171 7.004-16.907z"
        fill="#0054ff" />
    <path
        d="m191.453 94.737c6.601-2.733 14.174.403 16.907 7.004 2.733 6.604-.403 14.17-7.004 16.907-6.604 2.733-14.174-.399-16.907-7.004s.403-14.171 7.004-16.907z"
        fill="#0054ff" />
    <path
        d="m384.135 196.695c-2.733-6.604.403-14.17 7.004-16.907 6.604-2.733 14.167.403 16.907 7.004 2.733 6.604-.403 14.174-7.004 16.907-6.604 2.733-14.174-.399-16.907-7.004z"
        fill="#04f" />
    <path
        d="m99.397 315.028c-2.733-6.601.403-14.17 7.004-16.903 6.604-2.74 14.167.399 16.907 7 2.733 6.601-.403 14.174-7.004 16.907-6.604 2.732-14.174-.4-16.907-7.004z"
        fill="#0054ff" />
    <path
        d="m99.397 186.792c2.74-6.601 10.302-9.737 16.907-7.004 6.601 2.736 9.737 10.306 7.004 16.907-2.74 6.604-10.302 9.737-16.907 7.004-6.6-2.733-9.736-10.302-7.004-16.907z"
        fill="#002dae" />
    <path
        d="m306.088 118.647c-6.601-2.736-9.737-10.302-7.004-16.907 2.733-6.601 10.302-9.737 16.907-7.004 6.601 2.736 9.737 10.302 7.004 16.907s-10.307 9.737-16.907 7.004z"
        fill="#002dae" />
    <path
        d="m384.135 305.125c2.74-6.601 10.306-9.74 16.907-7 6.601 2.733 9.737 10.302 7.004 16.903-2.733 6.604-10.302 9.737-16.907 7.004-6.601-2.733-9.736-10.306-7.004-16.907z"
        fill="#0ce" />
    <path
        d="m184.057 410.781c-6.601-2.736-9.74-10.302-7-16.907 2.733-6.601 10.302-9.737 16.903-7.004 6.601 2.736 9.737 10.302 7.004 16.907-2.737 6.605-10.306 9.737-16.907 7.004z"
        fill="#0081e9" />
    <path
        d="m374.221 373.259c2.892-2.888 7.57-2.888 10.458 0s2.888 7.57 0 10.458-7.566 2.888-10.458 0c-2.888-2.889-2.888-7.57 0-10.458z"
        fill="#002dae" />
    <g fill="#0099c0">
        <path
            d="m122.764 118.104c2.888-2.888 7.57-2.888 10.458 0s2.888 7.57 0 10.458-7.57 2.888-10.458 0c-2.888-2.889-2.888-7.57 0-10.458z" />
        <path
            d="m374.221 128.561c-2.888-2.888-2.888-7.57 0-10.458 2.892-2.888 7.57-2.888 10.458 0s2.888 7.57 0 10.458c-2.888 2.889-7.566 2.889-10.458 0z" />
        <path
            d="m122.764 383.716c-2.888-2.888-2.888-7.57 0-10.458s7.57-2.888 10.458 0 2.888 7.57 0 10.458-7.57 2.888-10.458 0z" />
        <path
            d="m427.523 249.065c0-4.086 3.313-7.399 7.392-7.399 4.086 0 7.399 3.313 7.399 7.399 0 4.079-3.313 7.392-7.399 7.392-4.079 0-7.392-3.313-7.392-7.392z" />
        <path
            d="m68.827 249.065c0-4.086 3.31-7.399 7.396-7.399 4.082 0 7.396 3.313 7.396 7.399 0 4.079-3.313 7.392-7.396 7.392-4.086 0-7.396-3.313-7.396-7.392z" />
        <path
            d="m253.725 78.958c-4.086 0-7.399-3.31-7.399-7.396s3.313-7.396 7.399-7.396c4.079 0 7.392 3.31 7.392 7.396s-3.313 7.396-7.392 7.396z" />
    </g>
    <path
        d="m253.725 437.654c-4.086 0-7.399-3.313-7.399-7.396 0-4.086 3.313-7.396 7.399-7.396 4.079 0 7.392 3.31 7.392 7.396 0 4.082-3.313 7.396-7.392 7.396z"
        fill="#83ffee" />
    <path
        d="m482.991 249.061c0 4.079 3.317 7.396 7.396 7.396s7.396-3.317 7.396-7.396-3.317-7.396-7.396-7.396-7.396 3.317-7.396 7.396z"
        fill="#005fff" />
    <path
        d="m7.812 245.363c-3.058 0-5.547 2.485-5.547 5.547s2.489 5.547 5.547 5.547c3.062 0 5.547-2.485 5.547-5.547s-2.485-5.547-5.547-5.547z"
        fill="#005fff" />
    <path
        d="m242.628 12.396c0 4.079 3.317 7.396 7.396 7.396s7.396-3.317 7.396-7.396-3.317-7.396-7.396-7.396-7.396 3.317-7.396 7.396z"
        fill="#0ce" />
    <path
        d="m461.677 337.197c-2.378 5.632.274 12.155 5.906 14.533 1.405.592 2.866.873 4.301.873 4.33 0 8.45-2.544 10.236-6.775 2.378-5.639-.27-12.155-5.906-14.536-5.64-2.386-12.16.269-14.537 5.905z"
        fill="#0ce" />
    <path
        d="m341.647 456.727c-.921-.388-1.893-.584-2.87-.584-.943 0-1.886.185-2.785.547-1.83.743-3.262 2.156-4.031 3.975-.765 1.816-.78 3.824-.037 5.654s2.156 3.262 3.975 4.027c1.816.769 3.82.788 5.654.041 1.83-.743 3.262-2.152 4.031-3.975.765-1.816.78-3.824.037-5.654-.742-1.827-2.151-3.258-3.974-4.031z"
        fill="#0ce" />
    <path
        d="m34.721 149.802c-.924-.388-1.897-.584-2.877-.584-.936 0-1.879.185-2.777.547-1.834.743-3.265 2.156-4.031 3.975-.765 1.816-.78 3.827-.037 5.654.743 1.83 2.152 3.262 3.975 4.027 1.816.769 3.824.784 5.654.037 1.83-.743 3.262-2.152 4.031-3.972.765-1.816.78-3.827.037-5.654-.743-1.83-2.155-3.257-3.975-4.03z"
        fill="#0ce" />
    <path
        d="m14.087 339.763c1.986-4.704 7.407-6.904 12.111-4.922 4.704 1.986 6.904 7.407 4.922 12.111-1.986 4.704-7.407 6.904-12.111 4.922-4.704-1.986-6.904-7.411-4.922-12.111z"
        fill="#83ffee" />
    <path
        d="m337.028 33.855c-4.704-1.986-6.904-7.407-4.922-12.111 1.986-4.704 7.407-6.904 12.111-4.922 4.704 1.986 6.904 7.407 4.922 12.111-1.986 4.703-7.411 6.904-12.111 4.922z"
        fill="#83ffee" />
    <path
        d="m475.359 145.93c-1.372.558-2.448 1.616-3.021 2.98-.577 1.365-.588 2.873-.03 4.245.558 1.368 1.616 2.444 2.98 3.017 1.365.577 2.873.588 4.242.03 1.372-.558 2.448-1.612 3.025-2.977 1.187-2.818-.137-6.076-2.951-7.266-.695-.296-1.424-.44-2.156-.44-.706.001-1.416.138-2.089.411z"
        fill="#83ffee" />
    <path
        d="m150.617 26.877c-1.191 2.818.133 6.076 2.951 7.266 1.368.581 2.877.584 4.245.03 1.372-.558 2.448-1.62 3.025-2.984 1.191-2.818-.137-6.072-2.955-7.259-.703-.3-1.431-.44-2.148-.44-2.167-.001-4.227 1.272-5.118 3.387z"
        fill="#005fff" />
    <path
        d="m152.037 463.539c-2.163 0-4.223 1.272-5.118 3.391-1.191 2.814.137 6.076 2.955 7.266 2.818 1.191 6.079-.137 7.266-2.955 1.191-2.814-.133-6.076-2.951-7.263-.702-.299-1.431-.439-2.152-.439z"
        fill="#50e7f0" />
    <path
        d="m414.266 424.397c2.884-2.888 2.884-7.577 0-10.458-1.398-1.401-3.258-2.171-5.233-2.171-1.978 0-3.835.769-5.233 2.171-2.884 2.881-2.884 7.57 0 10.458 2.885 2.884 7.574 2.888 10.466 0z"
        fill="#50e7f0" />
    <path
        d="m68.372 74.809c-4.323 4.327-4.323 11.371 0 15.694 2.167 2.163 5.007 3.247 7.851 3.247s5.684-1.083 7.851-3.247c4.323-4.323 4.323-11.367 0-15.694-4.331-4.33-11.375-4.33-15.702 0z"
        fill="#50e7f0" />
    <path
        d="m418.056 76.883c-1.05 1.05-1.627 2.441-1.627 3.923 0 1.483.577 2.877 1.627 3.92 2.16 2.171 5.684 2.167 7.843.004 2.163-2.163 2.163-5.684.004-7.847-1.083-1.083-2.503-1.623-3.923-1.623-1.424 0-2.844.54-3.924 1.623z"
        fill="#50e7f0" />
    <path
        d="m70.45 413.395c-2.163 2.16-2.163 5.684-.004 7.843 2.167 2.167 5.691 2.163 7.851 0 2.163-2.16 2.163-5.684 0-7.843-1.047-1.05-2.441-1.627-3.923-1.627-1.483 0-2.873.577-3.924 1.627z"
        fill="#0ce" />
    <path
        d="m246.326 484.737c0 4.079 3.317 7.396 7.396 7.396s7.396-3.317 7.396-7.396-3.317-7.396-7.396-7.396-7.396 3.317-7.396 7.396z"
        fill="#0ce" />
</svg>