<svg enable-background="new 0 0 500 500" viewBox="0 0 500 500" xmlns="http://www.w3.org/2000/svg">
    <radialGradient cx="403.2964" cy="90.7711" gradientUnits="userSpaceOnUse" id="a" r="216.5334">
        <stop offset="0" stop-color="#00edd3" />
        <stop offset=".42" stop-color="#00edd3" />
        <stop offset=".94" stop-color="#1b456e" />
        <stop offset="1" stop-color="#1b456e" />
    </radialGradient>
    <linearGradient
        gradientTransform="matrix(50.1834 -50.1834 50.1834 50.1834 -19123.7422 -19018.7852)"
        gradientUnits="userSpaceOnUse" id="b" x1="-.2444" x2="4.7011" y1="385.0298" y2="385.0298">
        <stop offset="0" stop-color="#1b456e" />
        <stop offset=".06" stop-color="#1b456e" />
        <stop offset=".58" stop-color="#00edd3" />
        <stop offset="1" stop-color="#00edd3" />
    </linearGradient>
    <path
        d="m1.6 250.2c0 138 111.9 249.9 250 249.8 138 0 249.9-111.9 249.8-250 0-19.5-2.3-39-6.8-57.9-3.5-14.4-18-23.3-32.4-19.8s-23.3 18-19.8 32.4c25 105.4-40.1 211.2-145.5 236.2-105.5 25.1-211.2-40.1-236.3-145.5s40.2-211.2 145.6-236.2c29.9-7.1 61-7.1 90.9 0 14.4 3.4 28.9-5.5 32.4-20 3.4-14.4-5.5-28.9-20-32.4-134.2-32-269 50.8-301 185-4.6 19.2-6.9 38.7-6.9 58.4"
        fill="url(#a)" />
    <path
        d="m341.6 228.5c-.5-1.6-1-3.3-1.4-4.9 0-.2 0-.5 0-.8-9-38.4 14.9-76.8 53.3-85.8 3.2-.8 6.5-1.3 9.9-1.6h1.5 4.6.3c9.2-.9 17.9-4.9 24.4-11.5 1.6-1.6 3-3.3 4.3-5.2 13.2-17.6 9.6-42.6-8-55.7-16.1-12.1-38.7-10.2-52.6 4.3-.3.3-.6.7-.9 1.1-6.1 6.5-9.8 14.8-10.6 23.6v4.3c0 1.4 0 1.9-.3 2.9-3.8 39.2-38.7 67.9-78 64.1-3.2-.3-6.4-.8-9.5-1.6-1.8-.4-3.6-.9-5.3-1.5-7.6-1.8-15.4-2.7-23.1-2.6-22.8.4-44.6 9.2-61.2 24.7-.9.9-1.9 1.6-2.8 2.5-34.8 37.4-32.8 95.9 4.6 130.7 35.5 33.1 90.7 33.1 126.2 0 22.3-22.9 31.6-55.6 24.6-87z"
        fill="url(#b)" />
</svg>