<svg enable-background="new 0 0 500 500" viewBox="0 0 500 500" xmlns="http://www.w3.org/2000/svg">
    <g fill="#31cb9e">
        <path d="m230 249 186 106.4c6.5 3.7 14.6-1 14.6-8.4v-196c0-7.5-8.1-12.1-14.6-8.4z" />
        <path
            d="m411.9 95.4-127.1-93.4c-5.9-4.3-14.3-1.2-15.9 5.7l-46.4 207.8 188.1-104.1c6.4-3.4 6.9-11.8 1.3-16" />
        <path
            d="m284.7 495.9 127.2-93.4c5.7-4.2 5.1-12.6-1-16l-188.3-104.1 46.4 207.8c1.4 7 9.9 10 15.7 5.7" />
        <path
            d="m181.7 245.3 48.1-226c1.9-8.9-8.1-15.3-15.3-9.8l-123.1 94.9c-6.3 4.8-10 12.5-10 20.5v240.8c0 8 3.7 15.6 10 20.5l123.1 94.8c7.1 5.5 17.1-.9 15.3-9.8z" />
    </g>
</svg>