<svg enable-background="new 0 0 500 500" viewBox="0 0 500 500" xmlns="http://www.w3.org/2000/svg">
    <linearGradient gradientUnits="userSpaceOnUse" id="a" x1="10.8399" x2="489.9988" y1="9.8269"
        y2="488.9857">
        <stop offset="0" stop-color="#38bfb4" />
        <stop offset="1" stop-color="#1281a0" />
    </linearGradient>
    <path
        d="m497.6 88.5v-66.6c0-6.4-6.4-10.8-12.3-8.5l-246.1 94.7 44.2-92.2c2.9-6-1.5-13-8.2-13h-66c-3.5 0-6.7 2-8.2 5.1l-58.7 121.1-45.4-120.3c-1.3-3.5-4.7-5.9-8.5-5.9h-66.9c-6.4 0-10.8 6.4-8.5 12.3l95.1 247.3-91.2-42.7c-6-2.8-12.9 1.6-12.9 8.2v63.3c0 3.5 2 6.6 5.1 8.2l118.7 58.2-118 44.8c-3.5 1.3-5.8 4.7-5.8 8.5v66.7c0 6.4 6.4 10.7 12.3 8.5l247.5-93.7-45.2 91c-3 6 1.4 13.1 8.1 13.1h67.2c3.5 0 6.7-2 8.2-5.1l56.4-116.8 45.1 116.2c1.4 3.5 4.7 5.8 8.5 5.8h66.7c6.4 0 10.8-6.4 8.5-12.3l-92.9-244.5 89.1 40.1c6 2.7 12.8-1.7 12.8-8.3v-63.5c0-3.5-2-6.6-5.1-8.2l-118.3-57.8 119-45.1c3.4-1.5 5.7-4.8 5.7-8.6zm-188.7 202.1-76.5 28.9c-8.9-4-13.8-6.2-22.7-10.2l-28.9-76.5c4-8.9 6.2-13.8 10.2-22.7l76.5-28.9c8.9 4 13.8 6.2 22.7 10.2l28.9 76.5c-4 8.8-6.2 13.8-10.2 22.7z"
        fill="url(#a)" />
</svg>