<svg enable-background="new 0 0 500 500" viewBox="0 0 500 500" xmlns="http://www.w3.org/2000/svg">
    <path
        d="m33.043 458.831c10.334-17.918 19.915-34.532 30.178-52.327-20.253 0-39.383 0-61.091 0 73.554-126.598 146.058-251.386 219.333-377.504 10.438 18.137 20.134 34.985 30.296 52.643 10.399-17.733 20.253-34.538 30.869-52.641 71.664 125.921 142.587 250.54 214.372 376.675-21.048 0-40.192 0-61.165 0 10.358 18.365 19.9 35.281 29.981 53.154-144.427 0-287.745 0-432.773 0zm218.391-326.156c-48.305 83.172-95.741 164.846-143.547 247.158h284.198c-46.95-82.502-93.325-163.995-140.651-247.158zm14.653-25.556c52.138 91.592 103.835 182.409 155.347 272.902h32.14c-57.137-100.4-113.768-199.912-171.208-300.844-5.887 10.106-10.9 18.71-16.279 27.942zm-44.872-27.868c-58.723 101.066-116.475 200.46-174.692 300.656h31.965c10.307-17.682 20.369-34.889 30.379-52.126 41.373-71.243 82.777-142.468 123.942-213.831 1.807-3.132 2.979-8.236 1.689-11.236-3.294-7.661-8.149-14.651-13.283-23.463zm186.076 327.406c-105.537 0-210.199 0-315.155 0-5.044 8.895-9.964 17.57-15.17 26.748h345.555c-5.507-9.672-10.46-18.372-15.23-26.748z" />
</svg>