<svg xmlns:xlink="http://www.w3.org/1999/xlink" enable-background="new 0 0 500 500"
    viewBox="0 0 500 500" xmlns="http://www.w3.org/2000/svg">
    <linearGradient gradientUnits="userSpaceOnUse" id="a" x1="267.7757" x2="267.7757" y1="244.5651"
        y2="98.3522">
        <stop offset="0" stop-color="#f2792b" />
        <stop offset="1" stop-color="#faec32" />
    </linearGradient>
    <linearGradient gradientUnits="userSpaceOnUse" id="b" x1="172.7042" x2="172.7042" y1="339.2558"
        y2="210.0998">
        <stop offset="0" stop-color="#f26e2a" />
        <stop offset=".7363" stop-color="#faeb32" />
    </linearGradient>
    <linearGradient id="c">
        <stop offset="0" stop-color="#f26e2a" />
        <stop offset=".7951" stop-color="#faeb32" />
    </linearGradient>
    <linearGradient gradientUnits="userSpaceOnUse" id="d" x1="282.4347" x2="282.4347" y1="373.7794"
        y2="253.8612" xlink:href="#c" />
    <linearGradient gradientUnits="userSpaceOnUse" id="e" x1="222.9985" x2="222.9985" y1="392.9524"
        y2="284.8866" xlink:href="#c" />
    <linearGradient gradientUnits="userSpaceOnUse" id="f" x1="345.7055" x2="345.7055" y1="295.3446"
        y2="153.8132">
        <stop offset="0" stop-color="#f26e2a" />
        <stop offset=".6178" stop-color="#faeb32" />
    </linearGradient>
    <linearGradient gradientUnits="userSpaceOnUse" id="g" x1="186.5698" x2="186.5698" y1="215.1667"
        y2="122.0906" xlink:href="#c" />
    <linearGradient gradientUnits="userSpaceOnUse" id="h" x1="219.1964" x2="201.4941" y1="206.2265"
        y2="236.8877">
        <stop offset="0" stop-color="#f26e2a" />
        <stop offset="1" stop-color="#faeb32" />
    </linearGradient>
    <linearGradient gradientUnits="userSpaceOnUse" id="i" x1="270.4061" x2="305.4173" y1="243.2045"
        y2="208.1933">
        <stop offset="0" stop-color="#f26e2a" />
        <stop offset=".7089" stop-color="#faeb32" />
    </linearGradient>
    <circle cx="249.7" cy="250.5" fill="#11021e" r="247.1" />
    <path d="m214.1 116.9 33.4-18.5 74 43.5v82.3l-49.7 20.4v-34.9h36.2v-60.2l-60.5-35.2-19.6 10.2z"
        fill="url(#a)" />
    <path d="m159.9 328.4-27.3-19.3v-60.9l47.5-23.7 45.8 19.6v-34h-48.7l-57.7 30.4v75.4l31.7 23.4z"
        fill="url(#b)" />
    <path
        d="m252.8 297.1v31.7l37 28.2 62.7-44.2v-29.3h13.9v36.2l-76.3 54.1-50.9-38.7v-38l-40.8-43.2h96.2z"
        fill="url(#d)" />
    <path d="m186.9 285.2v61.7l59.6 30.7 20.6-8 5.9 12.2-26.8 11.2-73.2-37.7v-70.4z"
        fill="url(#e)" />
    <path d="m310.7 283.5 54.7-34.5v-63.1l-26.1-21.6 9.4-10.5 32 25.8v77.1l-62.4 38.6z"
        fill="url(#f)" />
    <path d="m132.9 214.8v-38.7l63.1-38 50.2 29 7.3-11.9-58.2-33.1-75.7 46v47.1z" fill="url(#g)" />
    <path d="m225.9 244.1-45.8-19.6 45.8-14.4z" fill="url(#h)" />
    <path d="m271.8 244.6v-34.9l49.7 14.5z" fill="url(#i)" />
</svg>