<svg enable-background="new 0 0 500 500" viewBox="0 0 500 500" xmlns="http://www.w3.org/2000/svg">
    <linearGradient gradientUnits="userSpaceOnUse" id="a" x1="41.1998" x2="244.1808" y1="268.313"
        y2="40.4044">
        <stop offset=".2287" stop-color="#2ae38d" />
        <stop offset=".2856" stop-color="#1ed27b" />
    </linearGradient>
    <linearGradient gradientUnits="userSpaceOnUse" id="b" x1="112.6977" x2="315.709" y1="332.1569"
        y2="104.2144">
        <stop offset=".3741" stop-color="#2ae38d" />
        <stop offset=".4877" stop-color="#1ed27b" />
    </linearGradient>
    <linearGradient gradientUnits="userSpaceOnUse" id="c" x1="182.7247" x2="385.9051" y1="395.8905"
        y2="167.7581">
        <stop offset=".5512" stop-color="#2ae38d" />
        <stop offset=".6162" stop-color="#1ed27b" />
    </linearGradient>
    <linearGradient gradientUnits="userSpaceOnUse" id="d" x1="253.2573" x2="456.021" y1="461.0562"
        y2="233.3916">
        <stop offset=".7235" stop-color="#2ae38d" />
        <stop offset=".7979" stop-color="#1ed27b" />
    </linearGradient>
    <path
        d="m6 238.3 31.5-33.9c4.1-4.4 10-6.8 16.1-6.4l28.6 1.7c10.4.6 20.6-3.5 27.7-11.1l139.7-151 33.1 29.1-126.7 136.8c-5.4 5.9-12.9 9.2-20.7 9.4-3.8.1-7.5-.7-11-2.1l-6.2-2.5c-11.6-4.6-24.8-1.5-33.2 7.8l-46.6 51.7z"
        fill="url(#a)" />
    <path
        d="m77.4 302.1 65.7-69.7c4.1-4.4 10-6.8 16.1-6.4l28.6 1.7c10.4.6 20.6-3.5 27.7-11.1l105.7-115 33.1 29.1-92.7 100.9c-5.4 5.9-12.9 9.2-20.7 9.4-3.8.1-7.5-.7-11-2.1l-6.2-2.5c-11.6-4.6-24.8-1.5-33.2 7.8l-80.8 87.5z"
        fill="url(#b)" />
    <path
        d="m147.1 365.5 96.6-105.1c4.1-4.4 10-6.8 16.1-6.4l28.6 1.7c10.4.6 20.6-3.5 27.7-11.1l75.6-79.2 33.1 29.1-62.7 65c-5.4 5.9-12.9 9.2-20.7 9.4-3.8.1-7.5-.7-11-2.1l-6.2-2.5c-11.6-4.6-24.8-1.5-33.2 7.8l-111.7 122.9z"
        fill="url(#c)" />
    <path
        d="m217.6 430.7 131.5-142.3c4.1-4.4 10-6.8 16.1-6.4l28.6 1.7c10.4.6 20.6-3.5 27.7-11.1l40.3-41.5 33.1 29.1-27.3 27.4c-5.4 5.9-12.9 9.2-20.7 9.4-3.8.1-7.5-.7-11-2.1l-6.2-2.5c-11.6-4.6-24.8-1.5-33.2 7.8l-146.6 160z"
        fill="url(#d)" />
</svg>