<svg enable-background="new 0 0 500 500" viewBox="0 0 500 500" xmlns="http://www.w3.org/2000/svg">
    <linearGradient gradientUnits="userSpaceOnUse" id="a" x1="252.9196" x2="252.9196" y1="497.6571"
        y2="1.8456">
        <stop offset="0" stop-color="#4b1015" />
        <stop offset=".9996" stop-color="#ab1b21" />
    </linearGradient>
    <path
        d="m257.2 5.7c.2 1 .6 1.8.5 2.5-.6 4.2-2.5 8.7-1.8 12.6.7 4 4.4 7.3 6 11.3.8 1.8.2 4.6-.6 6.6-5.2 12.6-3.4 25.9-3.2 38.9 0 3 3.2 5.9 5 8.9 1.8-1 2.8-1.5 3.8-2.1 9.1-5.5 15.5-2.3 20 8.7.9 2.2 1.4 4.6 2.6 6.5 7.3 11.5 8.3 24.5 9.1 37.4.7 12.4.2 24.9.2 37.3.1 10.7-.4 21.2-4 31.6-2.4 6.9-1.7 14.9-3.3 22.1-2.1 9.6-1.4 19.6-4.2 29.1-1.3 4.4-1.5 9.9-.1 14.3 4.1 12.8 1.1 24.8-1.6 37.2-1.7 8-1.2 16.7-.9 25 .1 2.8 3.1 5.3 4.4 8.1 2.2 4.6 3.4 9.9 6.4 13.8 3 4 8.1 6.4 11.6 10.1 9.6 10.2 21.1 17.5 33.4 24.1 10.6 5.7 21.2 7.9 32.9 7.5 4.7-.1 9.3-.4 14.1 1.8 3 1.4 7.3 1.1 10.7.1 13.8-4 27.8-1.1 41.7-1.7 2.5-.1 5.1 1.7 8.2 2.8-.3 12.7-4 24.6-8.5 37.4-9.7 1.9-21.5-1.6-33.4 2.2 2.6 5.7 4.4 9.5 6.2 13.4.1.3.9 11.3.8 11.3-4.3 2.5-8 6.9-13.9 3.2-2.3-1.4-5.1-2.1-7.7-2.8-4-1.1-7 .1-8.4 4.2 7.2 8.6 8.9 9.3 25 10.1 4.9 4.2 3.8 8.8.9 13.5-.6 1-1.8 2.4-2.6 2.3-7.1-.5-13.6 4-20.8 1.9-2.2-.6-4.6-1.1-7-1.1-13.1 0-26-1.6-38.7-4.7-1.1-.3-2.4 0-3.6-.1-12.3-.9-24.5-1.7-36.8-2.8-5.5-.5-11.1-.8-16.3-2.5-8.6-2.8-17.3-1.9-26-2.1-26.1-.5-49.4-9-70.3-24.2-9.7-7-21.2-10.1-32.2-14.1-7-2.5-14.3-4.2-21.5-6-3-.8-6.3-1.6-9.3-1.2-11.1 1.4-21.1 5.4-29.7 13-5.6 5-12 9.1-18.1 13.4-3.9 2.8-7.8 5.6-13.6 4.4-6.8-7.1-3.3-16.2-4.4-24.4 10.4-12.2 23.1-21.5 36.8-29.8 12.1-7.3 24.1-15 36.4-22 7.8-4.4 16-9.6 25.5-7.4 8.1 1.9 14.7 1.5 21.8-3.5 7-4.9 14.3-.5 16.3 8.9.7 3.2.7 6.2 3.3 8.6 4.2 3.8 5.7 3.7 12-2.4-2.6-2.2-5.1-4.3-9.1-7.6 1.4-.6 2.4-1.3 3.4-1.3 1.5 0 3.6-.1 4.4.8 3.7 4.2 8.6 4.1 13.3 3.7 4.5-.4 9.4 1.2 13.4-3.2 5-5.4 9.4-11.2 9.6-18.5.5-14.4.6-28.9-.1-43.3-.4-7.3-2.2-14.8-4.7-21.7-1.7-4.6-6-8.3-8.5-12.7-3.8-6.5-7.5-12.6-14.3-16.7-2.7-1.6-4.8-5.6-5.5-8.8-1.4-6.9-2.5-14.1-2.4-21.1.4-18.7.8-37.5 2.6-56.1.7-7 2.7-14.2 1.6-21.1-2.6-15.9-1.9-32.2-6.3-47.9-2.2-7.9-2.7-16.4-2.9-24.6-.3-12.3-2.1-24.2-4.5-36.3-1.8-9.5-2.4-19.8 4.1-28.8 3.5-4.7 5.6-10.5 9.3-15 2.9-3.6 7-7.5 11.1-8.4 8.6-1.9 16.3-8.5 25.9-5.5 2.6.5 4.6 1.9 6.5 2.9z"
        fill="url(#a)" />
</svg>