<svg viewBox="0 0 500 500" xmlns="http://www.w3.org/2000/svg">
    <path
        d="m495.7 236c0 92.3-58.7 171.2-141.6 203.3 59.5-39.3 98.5-105.7 98.5-181-.1-120.9-100.6-218.8-224.6-218.8-29.3 0-57.3 5.5-83 15.4 35.9-23.8 79.4-37.7 126.1-37.7 124 0 224.6 98 224.6 218.8z"
        fill="#0b0381" />
    <path
        d="m228 39.5c-29.3 0-57.3 5.5-83 15.4-59.5 39.4-98.5 105.8-98.5 181.1 0 120.8 100.6 218.7 224.6 218.7 29.3 0 57.3-5.5 82.9-15.4 59.5-39.3 98.5-105.7 98.5-181 0-120.9-100.5-218.8-224.5-218.8zm68.1 304.6c-18.7 13.9-42.1 22.1-67.3 22.1-61.8 0-112-49.3-112-110.2 0-52.4 37.2-96.3 87-107.5 18.7-13.9 42.1-22.1 67.3-22.1 61.8 0 112 49.3 112 110.2.1 52.5-37.1 96.3-87 107.5z"
        fill="#00024c" />
    <path
        d="m354 439.3c-35.9 23.8-79.3 37.7-126 37.7-124 0-224.6-97.9-224.6-218.7 0-92.3 58.6-171.2 141.6-203.4-59.5 39.4-98.5 105.8-98.5 181.1 0 120.8 100.6 218.7 224.6 218.7 29.3 0 57.3-5.5 82.9-15.4z"
        fill="#00d397" />
    <path
        d="m383.2 236.6c0 52.4-37.2 96.3-87.1 107.5 27.1-20.1 44.7-52.1 44.7-88.1 0-60.9-50.1-110.2-112-110.2-8.6 0-16.9.9-24.9 2.7 18.7-13.9 42.1-22.1 67.3-22.1 61.9 0 112 49.4 112 110.2z"
        fill="#00d397" />
    <path
        d="m296.1 344.1c-18.7 13.9-42.1 22.1-67.3 22.1-61.8 0-112-49.3-112-110.2 0-52.4 37.2-96.3 87-107.5-27.1 20.1-44.6 52.1-44.6 88.1 0 60.9 50.1 110.2 112 110.2 8.6 0 16.9-.9 24.9-2.7z"
        fill="#0b0381" />
</svg>