<svg enable-background="new 0 0 500 500" viewBox="0 0 500 500" xmlns="http://www.w3.org/2000/svg">
    <linearGradient gradientUnits="userSpaceOnUse" id="a" x1="1.2" x2="467.2" y1="250.15"
        y2="250.15">
        <stop offset="0" stop-color="#2d2d4b" />
        <stop offset="1" stop-color="#1d1d3a" />
    </linearGradient>
    <linearGradient gradientUnits="userSpaceOnUse" id="b" x1="132.8873" x2="499" y1="247.2227"
        y2="247.2227">
        <stop offset="0" stop-color="#95a1d4" />
        <stop offset="1" stop-color="#594da0" />
    </linearGradient>
    <g clip-rule="evenodd" fill-rule="evenodd">
        <path
            d="m251.7 0c-8.9 0-17.9.5-26.7 1.5-125.9 13.3-223.8 119.5-223.8 248.7 0 138.1 112.1 250.1 250.5 250.1h.6c39.9 0 79.1-9.6 114.5-27.9 10.1-5.2 5.7-20.5-5.6-20.2h-.5c-100.2 2.5-190.1-39.8-226.8-118.2-22-46.9-21.1-90.4-10.9-124.7.1-.3.2-.6.2-.9 5.2-21.2 15-40.7 29.5-55.9 1.1-1.3 2.3-2.6 3.6-3.8.8-.9 1.7-1.7 2.6-2.4.3-.4.7-.7 1.1-1 .3-.2.6-.5.9-.8.6-.6 1.4-1.2 2.1-1.7 24.7-20.1 55.6-31 87.4-30.9 74.7 0 135.3 58.3 135.3 130.3 0 24.7-7.3 48.9-21 69.6 59.7-20.6 102.5-75.6 102.5-140.3 0-36.8-13.9-70.4-37-96.5-9.7-9.9-20.1-19-31.3-27.1l-.1-.1c-42.5-31.1-93.9-47.8-146.7-47.8-.2 0-.3 0-.4 0z"
            fill="url(#a)" />
        <path
            d="m465.9 170c0 64.6-40.7 119.6-97.7 140.3-16 5.9-32.9 8.8-50 8.8-54.8 0-102.6-30.1-128.1-75-6.2-10.9-11.1-29.5-14.4-45.3-3.1-15-22.7-18.9-31.3-6.2-3 4.3-5.2 9.1-6.5 14.2-.2.7-.4 1.5-.6 2.2-.1.2-.1.4-.1.7-4.1 16.9-5.3 34.4-3.5 51.7 0 .2 0 .4.1.7.8 7.9 2.2 15.6 4.2 23.3 2.4 10 5.8 19.8 10.1 29.2 31.2 69.8 100.9 112.8 192.9 105.3 9.1-.7 18.1-2 27-3.9 75.9-16 130.5-84.8 131-165.9v-1.5c0-10-.6-20.1-1.8-30-6-54.2-29.5-105.1-66.8-144.9 22.9 26.9 35.5 61 35.5 96.3z"
            fill="url(#b)" />
    </g>
</svg>