<svg enable-background="new 0 0 500 500" viewBox="0 0 500 500" xmlns="http://www.w3.org/2000/svg">
    <path d="m149.3 53.3h202l147 147.1-247.6 247.6-248-248z" fill="#71e580" />
    <path
        d="m84.9 199.6 61.1-61.1s32.9-38.7 105.2-38.7c76.3 0 105.2 38.7 105.2 38.7l61.6 61.5-57.6 57.6s-36.4 43.3-108.3 43.3-108.3-41.8-108.3-41.8z" />
    <path
        d="m251.5 124.5c-41.9 0-75.8 34-75.8 75.8s34 75.8 75.8 75.8c41.9 0 75.8-34 75.8-75.8s-33.9-75.8-75.8-75.8zm0 109.1c-18.4 0-33.3-14.9-33.3-33.3s14.9-33.3 33.3-33.3 33.3 14.9 33.3 33.3-14.9 33.3-33.3 33.3z"
        fill="#fff" />
</svg>