<svg enable-background="new 0 0 500 500" viewBox="0 0 500 500" xmlns="http://www.w3.org/2000/svg">
    <linearGradient gradientUnits="userSpaceOnUse" id="a" x1="250" x2="250" y1="5" y2="486.0509">
        <stop offset="0" stop-color="#0c4ea2" />
        <stop offset="1" stop-color="#092d64" />
    </linearGradient>
    <path
        d="m239.208 483.061c40.526-45.46 81.052-90.919 121.899-136.739-51.23-88.032-102.268-175.733-153.405-263.605 13.783-23.628 27.352-46.89 41.834-71.717 2.736 3.468 4.828 5.556 6.267 8.025 31.764 54.499 63.423 109.059 95.171 163.567 31.733 54.482 63.553 108.914 95.289 163.395 1.719 2.95 3.012 6.148 4.786 9.816-5.581 6.353-10.997 12.608-16.51 18.777-29.355 32.851-59.27 65.225-87.77 98.802-8.236 9.703-16.419 12.721-28.354 12.364-23.61-.706-47.258-.13-70.891-.085-2.346.004-4.691.001-7.037.001-.426-.867-.852-1.734-1.279-2.601zm-182.063-117.921c10.481 11.578 21.191 22.951 31.558 34.63 23.958 26.989 47.817 54.067 71.571 81.236 3.093 3.538 6.587 4.6 10.996 4.56 9.732-.087 19.471-.084 29.198.192 4.201.119 6.931-1.345 9.745-4.549 15.572-17.729 31.496-35.148 47.189-52.772 4.022-4.517 7.646-9.389 12.627-15.551-4.772-.354-7.729-.748-10.688-.763-18.078-.092-36.16-.286-54.234-.025-5.782.083-9.547-1.849-13.145-6.412-6.432-8.156-13.679-15.671-20.597-23.443-10.582-11.89-21.175-23.771-31.954-35.871 7.006-12.058 13.766-23.721 20.552-35.369 23.56-40.436 46.981-80.955 70.827-121.222 4.521-7.635 5.401-13.744.379-21.716-11.27-17.888-21.492-36.435-32.231-54.66-1.145-1.943-2.888-3.533-5.367-6.499-48.524 83.263-96.435 165.476-144.62 248.158 3.385 4.183 5.645 7.26 8.194 10.076z"
        fill="url(#a)" />
</svg>