<svg enable-background="new 0 0 500 500" viewBox="0 0 500 500" xmlns="http://www.w3.org/2000/svg">
    <linearGradient gradientTransform="matrix(500 0 0 434.1772 422710.5625 -2488.5969)"
        gradientUnits="userSpaceOnUse" id="a" x1="-845.05" x2="-844.22" y1="6.3076" y2="6.3076">
        <stop offset="0" stop-color="#7cb7ff" />
        <stop offset="1" stop-color="#ba6df6" />
    </linearGradient>
    <path
        d="m300.4 37.1-47.3 47.3 9.7 9.7c5.4 5.5 14.2 5.5 19.7.1 0 0 .1-.1.1-.1l47.4-47.3-9.7-9.7c-5.4-5.5-14.2-5.5-19.7-.1-.1 0-.1.1-.2.1zm-120.2 0-11.4 9.7 49.4 47.3c5.2 5.4 13.7 5.5 19.1.3.1-.1.2-.2.3-.3l9.7-9.7-47.7-47.3c-5.2-5.4-13.7-5.5-19.1-.3-.1.1-.2.2-.3.3zm164.9 62.1-89.8 89.8 18.1 18.6c10.3 10.1 26.8 10.1 37.1 0l89.9-90.3-18.1-18.1c-10.2-10-26.5-10-36.7 0zm-227.4 0-18.1 18.1 89.9 89.9c9.8 10.3 26.1 10.6 36.4.7.3-.2.5-.5.7-.7l18.1-18.1-89.9-89.9c-10.3-10.1-26.8-10.1-37.1 0zm122.4-2.2-9.3 9.7 19.4 19.4 19.4-19.4-9.7-9.7c-5.2-5.4-13.7-5.5-19.1-.3-.1.1-.2.2-.3.3zm168.8 89.9-149.8 149.4 30 30.4c15.9 17 42.6 17.9 59.6 2 .7-.6 1.3-1.3 2-2l149.3-149.4-30-30.4c-15.9-17-42.6-17.9-59.6-2-.7.6-1.3 1.3-2 2zm-379.8 0-29.1 30 149.4 149.8c15.9 17 42.6 17.9 59.6 2 .7-.6 1.3-1.3 2-2l30.4-30.4-149.4-149.4c-15.9-17-42.6-17.9-59.6-2-.7.6-1.3 1.3-2 2zm201.3 26.2-18.1 18.1 36.7 36.7 38-36.7-18.1-18.1c-10.2-10.3-26.7-10.3-37-.1 0 0-.1.1-.1.1zm-11 162.8-30.4 30 61.2 61.2 60.8-61.2-30-30c-15.9-17-42.6-17.9-59.6-2-.7.7-1.4 1.4-2 2z"
        fill="url(#a)" />
</svg>