<svg enable-background="new 0 0 500 500" viewBox="0 0 500 500" xmlns="http://www.w3.org/2000/svg">
    <path
        d="m148.7 25.4h-73.5l163.7 254.8-116 178-26.8.2 116.3-178.2-12-18.8-13.2-20.5-152.8-237.8h126.2l96 143.4-13.9 19z"
        fill="#1178ba" />
    <path
        d="m318.9 237.6-18.3-12.5 135.8-199.6h-73.4l-136.5 198.5-119.1-182.8 26.5-.2 93.2 143 124.2-180.7h127.2z"
        fill="#29a7e4" />
    <path
        d="m484.1 497.1h-129.5l-106.8-154 17.3-14.9 101.2 146.7h77.4l-176-278 107.6-156.3 27.3-.2-108.3 157z"
        fill="#1178ba" />
    <path
        d="m407.5 458.1-26.8.1-101-150.2-125.3 189.8h-139.9l172.7-256.9 13.2 20.5-144.2 214.1h86.2l137.2-207.6z"
        fill="#29a7e4" />
</svg>