<svg enable-background="new 0 0 500 500" viewBox="0 0 500 500" xmlns="http://www.w3.org/2000/svg">
    <linearGradient gradientUnits="userSpaceOnUse" id="a" x1="138.6527" x2="138.6527" y1="415.8646"
        y2="71.6366">
        <stop offset="0" stop-color="#c23657" />
        <stop offset="1" stop-color="#f7655b" />
    </linearGradient>
    <linearGradient gradientUnits="userSpaceOnUse" id="b" x1="184.9565" x2="497.8785" y1="427.6279"
        y2="173.0473">
        <stop offset="0" stop-color="#de7053" />
        <stop offset="1" stop-color="#e5204e" />
    </linearGradient>
    <path
        d="m274.305 256.088-96.535-167.106s-7.169-15.054-22.223-15.054-134.415 0-134.415 0-27.6 10.395-14.696 33.335 179.112 307.952 179.112 307.952z"
        fill="url(#a)" />
    <path
        d="m460.292 163.898h-108.478c-18.491 0-27.788 13.165-38.92 31.983l-125.692 196.109c-7.336 11.445-3.913 26.973 7.916 33.671 5.889 3.334 9.901 5.083 20.681 5.083h123.366c18.491 0 28.063-15.14 39.46-32.898l111.114-193.454c3.553-5.855 9.406-15.947 6.832-22.293-4.998-12.324-22.218-18.201-36.279-18.201z"
        fill="url(#b)" />
</svg>