<svg xmlns:xlink="http://www.w3.org/1999/xlink" enable-background="new 0 0 500 500"
    viewBox="0 0 500 500" xmlns="http://www.w3.org/2000/svg">
    <linearGradient gradientTransform="matrix(1 0 0 -1 0 502)" gradientUnits="userSpaceOnUse" id="a"
        x1="92.2842" x2="407.7204" y1="94.3004" y2="409.7365">
        <stop offset="0" stop-color="#ff8506" />
        <stop offset=".5805" stop-color="#fd3947" />
        <stop offset="1" stop-color="#fb0078" />
    </linearGradient>
    <linearGradient gradientTransform="matrix(1 0 0 -1 0 502)" gradientUnits="userSpaceOnUse" id="b"
        x1="221.8539" x2="185.0061" y1="126.3787" y2="74.2309">
        <stop offset="0" stop-color="#78005b" />
        <stop offset=".3483" stop-color="#7a025a" stop-opacity=".6517" />
        <stop offset=".51" stop-color="#820955" stop-opacity=".49" />
        <stop offset=".6332" stop-color="#8e154e" stop-opacity=".3668" />
        <stop offset=".7369" stop-color="#a12643" stop-opacity=".2631" />
        <stop offset=".8283" stop-color="#b83c36" stop-opacity=".1717" />
        <stop offset=".9111" stop-color="#d65725" stop-opacity=".0889" />
        <stop offset=".9857" stop-color="#f87711" stop-opacity=".0143" />
        <stop offset="1" stop-color="#ff7e0d" stop-opacity="0" />
    </linearGradient>
    <linearGradient gradientTransform="matrix(1 0 0 -1 0 502)" gradientUnits="userSpaceOnUse" id="c"
        x1="311.9252" x2="277.2432" y1="78.1086" y2="127.9932">
        <stop offset="0" stop-color="#ff7e0d" stop-opacity="0" />
        <stop offset=".00928743" stop-color="#f97811" stop-opacity=".0127" />
        <stop offset=".0651" stop-color="#d65825" stop-opacity=".0888" />
        <stop offset=".1269" stop-color="#b93d36" stop-opacity=".1729" />
        <stop offset=".1949" stop-color="#a12643" stop-opacity=".2657" />
        <stop offset=".272" stop-color="#8f154e" stop-opacity=".3707" />
        <stop offset=".3632" stop-color="#820955" stop-opacity=".495" />
        <stop offset=".4822" stop-color="#7a025a" stop-opacity=".6573" />
        <stop offset=".7336" stop-color="#78005b" />
    </linearGradient>
    <linearGradient gradientTransform="matrix(1 0 0 -1 0 502)" gradientUnits="userSpaceOnUse" id="d"
        x1="223.07" x2="251.1156" y1="126.6367" y2="166.9739">
        <stop offset="0" stop-color="#ff7e0d" stop-opacity="0" />
        <stop offset=".0133" stop-color="#f97910" stop-opacity=".0192" />
        <stop offset=".1144" stop-color="#d25427" stop-opacity=".1659" />
        <stop offset=".219" stop-color="#b1363a" stop-opacity=".3175" />
        <stop offset=".3263" stop-color="#981e48" stop-opacity=".4731" />
        <stop offset=".4375" stop-color="#860d53" stop-opacity=".6344" />
        <stop offset=".5551" stop-color="#7b0359" stop-opacity=".8048" />
        <stop offset=".6897" stop-color="#78005b" />
    </linearGradient>
    <linearGradient id="e">
        <stop offset="0" stop-color="#ff4630" stop-opacity="0" />
        <stop offset=".5722" stop-color="#b31f48" stop-opacity=".5722" />
        <stop offset="1" stop-color="#78005b" />
    </linearGradient>
    <linearGradient gradientTransform="matrix(1 0 0 -1 0 502)" gradientUnits="userSpaceOnUse" id="f"
        x1="139.9384" x2="202.3438" y1="328.9474" y2="391.3534" xlink:href="#e" />
    <linearGradient gradientTransform="matrix(1 0 0 -1 0 502)" gradientUnits="userSpaceOnUse" id="g"
        x1="205.998" x2="247.5531" y1="287.4328" y2="328.9878" xlink:href="#e" />
    <linearGradient gradientTransform="matrix(1 0 0 -1 0 502)" gradientUnits="userSpaceOnUse" id="h"
        x1="252.4677" x2="294.1676" y1="350.9956" y2="392.6958" xlink:href="#e" />
    <path
        d="m488.2 214.1-110.1-150.7c-8.2-11.3-20.9-17.7-34.8-17.7s-26.6 6.4-34.8 17.7l-12 16.4-12-16.4c-8.2-11.3-20.9-17.7-34.8-17.7s-26.6 6.4-34.8 17.7l-11.8 16.2-11.8-16.2c-8.2-11.3-20.9-17.7-34.8-17.7s-26.6 6.4-34.8 17.7l-110 150.7c-15.7 21.4-15.7 50.2 0 71.7l110.1 150.7c8.2 11.2 20.8 17.7 34.8 17.7 13.9 0 26.6-6.4 34.8-17.7l58.6-80.2 12.1 16.6c.1.1.1.1.1.2l46.4 63.5c8.2 11.2 20.8 17.7 34.8 17.7 13.9 0 26.6-6.4 34.8-17.7l110.1-150.7c15.6-21.5 15.6-50.3-.1-71.8zm-255.5-137.8c4-5.5 10.3-8.7 17.2-8.7s13.2 3.2 17.2 8.7l16.1 22-33.2 45.3-33.3-45.6zm-58.8 347.4c-4 5.5-10.3 8.7-17.2 8.7s-13.2-3.2-17.2-8.7l-110.1-150.7c-10-13.7-10-32.3 0-46l110-150.7c4-5.5 10.3-8.7 17.2-8.7s13.2 3.2 17.2 8.7l15.9 21.8-84.8 116c-15.7 21.4-15.7 50.2.1 71.7l6.5 8.7 56.8 78.3c7.2 9.9 18 16.1 29.9 17.4zm46.5-63.6c-4.1 5.5-10.3 8.7-17.2 8.7s-13.2-3.2-17.2-8.7l-58.4-80.5h-.1l-4.9-6.6c-10-13.7-10-32.3 0-46l80.7-110.4 33.3 45.6-38 52c-15.7 21.4-15.7 50.2 0 71.7l38 52zm29.6-179.6 34 46.4c10 13.7 10 32.3 0 46l-34 46.4-34-46.3c-10-13.7-10-32.3 0-46zm51.5 105.3c15.7-21.4 15.7-50.2 0-71.7l-38-52 33.2-45.3 80.5 110.2c10 13.7 10 32.3-.1 46.1l-12.9 17.9-50.1 69c-4 5.5-10.3 8.7-17.2 8.7-6.8 0-13-3.1-17.1-8.5l-16.3-22.4zm169.2-12.8-110.1 150.7c-4 5.5-10.3 8.7-17.2 8.7s-13.2-3.2-17.2-8.7l-24.4-33.4c12-1.3 22.7-7.5 29.9-17.4l43.1-59.3.1.1 7-9.8 8.3-11.4-.1-.1 4.7-6.5c15.7-21.4 15.7-50.2 0-71.7l-84.7-115.9 16.1-22c4-5.5 10.3-8.7 17.2-8.7s13.2 3.2 17.2 8.7l110.1 150.7c10 13.8 10 32.2 0 46z"
        fill="url(#a)" />
    <path
        d="m203.1 390.5c-1.7 0-3.3-.1-5-.3l-23.6 32.6 17.8 12.6 43.2-59.3c-8.1 9.2-19.9 14.4-32.4 14.4z"
        fill="url(#b)" opacity=".4" />
    <path
        d="m296.8 390.5c1.7 0 3.3-.1 5-.3l23.6 32.6-17.8 12.6-43-59.3c8.1 9.3 19.7 14.4 32.2 14.4z"
        fill="url(#c)" opacity=".4" />
    <path d="m236.4 337.7 13.7 18.8-20.9 28.1-13.7-18.3z" fill="url(#d)" opacity=".4" />
    <path d="m189.7 98 13.6 18.6-49 67.2-17.1-13.5z" fill="url(#f)" opacity=".6" />
    <path d="m236.6 162 13.3 18.6-31.2 43.1-17.1-13.6z" fill="url(#g)" opacity=".6" />
    <path d="m283.1 98.3 13.5 18.5-33.1 45.2-13.5-18.4z" fill="url(#h)" opacity=".6" />
</svg>