<svg enable-background="new 0 0 500 500" viewBox="0 0 500 500" xmlns="http://www.w3.org/2000/svg">
    <path
        d="m249.533 5c134.833-.064 244.742 109.728 244.728 244.466-.014 135.025-109.607 244.578-244.659 244.57-135.389-.008-244.912-109.685-244.833-245.179.078-134.12 110.16-243.793 244.764-243.857zm38.304 246.624c-7.197 4.432-14.215 4.957-22.137.986-7.771-3.895-16.24-6.398-24.753-9.646-17.843 22.555-35.661 45.077-53.85 68.068-5.318-4.269-10.127-8.13-15.38-12.347 8.497-10.716 16.637-20.981 25.265-31.862-4.419-2.486-8.191-4.607-11.705-6.583-17.645 4.473-34.854 8.836-52.543 13.32-7.639-24.992-14.999-49.068-22.34-73.084-9.018 0-17.108 0-25.602 0-12.361 21.625-24.77 43.334-37.043 64.805-7.661.845-14.911-.155-22.442 2.025 1.105 14.752 3.262 28.977 7.811 42.706 4.105.299 7.53.92 11.058-.463 8.564-25.346 17.128-50.689 26.341-77.955 8.016 23.8 15.324 45.499 22.633 67.197.511-.03 1.022-.061 1.533-.091 5.229-15.124 10.458-30.248 16.381-47.382 7.637 22.449 14.549 42.764 21.513 63.236 7.827.857 15.206 1.528 22.546 2.493 21.171 2.782 42.447 5.337 61.968 14.847 21.581 10.514 23.928 29.293 6.066 45.541-6.23 5.667-13.572 9.746-20.159 14.871-5.909 4.597-12.16 8.947-16.809 16.417 56.259 15.275 114.088 19.203 168.359 39.164 63.516-30.81 110.563-101.108 116.919-164.72-10.734-12.155-21.618-24.479-32.443-36.736-7.685 1.283-14.959 2.498-22.479 3.754-10.699-14.575-21.245-28.942-32.092-43.719-7.836.759-11.353 8.587-18.434 11.143-5.953-7.844-11.883-15.657-18.196-23.975-9.791 10.526-18.881 20.298-27.971 30.07 10.309-1.443 17.626-6.595 22.628-15.749 4.675 8.745 11.657 13.431 20.039 16.227 20.275 6.763 34.109 19.336 37.199 40.97 4.274 5.292 9.674 7.761 15.359 10.036 15.228 6.094 26.496 16.049 30.445 32.72 2.668 11.262-.692 18.714-10.849 24.355-5.564 3.09-11.589 4.623-17.77 5.858-12.14 2.425-17.474 9.004-17.53 21.295-.027 6.038.069 12.077-.036 18.113-.12 6.91-3.85 11.196-9.619 11.294-5.808.098-9.73-4.127-9.895-11.055-.166-6.963.08-13.936-.091-20.899-.194-7.935-4.002-13.852-11.259-16.947-4.825-2.058-10.099-2.916-16.188-3.341 0 10.59.004 20.755-.001 30.92-.008 15.577-4.35 21.204-19.271 26.375-11.86 4.111-24.194 4.626-36.416 4.727-13.875.115-27.834-.618-41.131-5.682-15.306-5.829-20.586-17.748-13.981-32.777 6.146-13.985 16.873-23.125 31.249-27.874 9.419-3.111 18.251-6.817 23.38-17.546 7.748 15.654 23.641 16.211 36.649 24.24 0-10.674.039-19.907-.01-29.139-.064-11.892-4.988-17.999-16.581-20.473-5.911-1.262-11.824-2.442-17.239-5.304-11.069-5.85-14.729-13.788-11.961-25.898.499-2.184 1.997-4.277.766-6.665.276-.063.551-.125.453-.103.094-.061-.13.09-.354.242zm185.64 3.385c.528-85.594-35.022-151.865-106.768-197.246-74.303-46.999-174.654-43.487-245.279 7.056-61.938 44.327-94 104.81-97.445 180.934 4.778.775 8.207.693 12.157.042 12.306-21.491 24.728-43.186 36.964-64.553h51.568c7.055 22.804 14.02 45.314 21.143 68.336 14.375-3.617 28.038-7.055 41.852-10.531 7.142 3.878 14.235 7.73 21.742 11.806 9.163-11.472 18.084-22.64 27.198-34.051 12.68 7.93 25.052 14.727 39.428 18.074 3.698-1.899 7.647-3.927 12.373-6.354-54.137-18.862-70.985-73.127-54.672-112.52 16.022-38.69 59.566-60.087 101.048-48.287 20.432 5.812 36.707 17.857 47.705 36.145 15.854 26.364 16.544 53.816 3.515 82.075 3.688.352 6.409.612 9.522.91 9.942 13.778 19.959 27.659 30.042 41.632 7.282-1.174 14.113-2.275 21.193-3.416 8.964 10.047 17.839 19.998 26.714 29.948zm-434.074 76.121c29.071 68.12 77.956 113.601 148.24 134.594 46.661 13.937 93.367 11.574 139.118-5.401-33.82-9.878-68.295-15.984-102.5-23.294-14.962-3.198-30.364-4.703-44.59-10.712-14.901-6.294-17.97-19.423-7.859-32.081 2.02-2.529 4.348-4.833 6.693-7.074 7.071-6.76 15.015-12.391 23.079-17.898 5.482-3.744 11.197-7.444 13.846-13.894-7.628-10.188-46.491-20.347-75.873-20.082-7.313 13.5-16.979 18.527-33.269 16.495-15.064-1.879-20.978-7.322-23.597-20.843-13.969 2.825-27.957-2.185-43.288.19zm325.16-150.522c12.677-12.765 15.484-47.543-1.012-70.088-18.633-25.464-51.309-32.618-77.509-21.19-31.161 13.592-43.451 44.454-36.472 73.788 6.823 28.677 32.346 46.854 55.54 47.393 14.888-15.804 29.726-31.555 44.65-47.397 6.318 5.513 9.018 12.833 14.803 17.494zm-105.715 191.625c15.514 9.082 61.681 8.625 73.438-.493-2.125-13.731-17.36-23.855-36.078-23.973-19.658-.125-35.017 9.793-37.36 24.466zm167.972-57.345c-1.421-15.407-20.251-27.984-43.349-25.276-16.945 1.987-30.164 12.919-29.748 25.646 24.22 6.883 48.448 7.082 73.097-.37zm-47.039-49.064c-3.951-17.689-22.266-27.687-43.572-25.084-17.06 2.084-30.119 12.808-29.799 25.706 24.257 6.631 48.515 7.157 73.371-.622zm-268.789 47.312c-1.788 6.776-5.037 12.122-5.177 18.436 4.13 2.391 7.743 1.968 11.965-.629-1.521-5.813-2.798-11.704-6.788-17.807zm-34.483-2.196c-.517-6.271-3.179-11.503-6.716-17.091-1.715 5.462-3.43 10.923-5.367 17.091z"
        fill="#32302b" />
    <path
        d="m473.477 255.009c-8.875-9.951-17.75-19.901-26.712-29.948-7.081 1.141-13.912 2.242-21.193 3.416-10.083-13.973-20.1-27.854-30.042-41.632-3.114-.297-5.835-.557-9.522-.91 13.03-28.258 12.339-55.711-3.515-82.075-10.998-18.288-27.273-30.332-47.705-36.145-41.482-11.8-85.026 9.597-101.048 48.287-16.313 39.393.535 93.658 54.672 112.52-4.726 2.427-8.675 4.455-12.373 6.354-14.377-3.347-26.748-10.144-39.428-18.074-9.115 11.411-18.035 22.579-27.198 34.051-7.506-4.076-14.6-7.928-21.742-11.806-13.814 3.476-27.477 6.914-41.852 10.531-7.123-23.023-14.088-45.533-21.143-68.336-17.111 0-33.973 0-51.568 0-12.235 21.367-24.658 43.062-36.964 64.553-3.951.65-7.379.733-12.157-.042 3.445-76.124 35.506-136.607 97.445-180.934 70.624-50.543 170.975-54.054 245.279-7.056 71.745 45.381 107.295 111.653 106.766 197.246zm-316.083-75.444c30.667.847 57.072-24.083 57.872-54.642.842-32.139-23.763-57.899-56.007-58.637-31.014-.709-56.882 24.375-57.497 55.756-.612 31.209 23.992 56.649 55.632 57.523z"
        fill="#d1c9bd" />
    <path
        d="m287.74 251.484c1.232 2.39-.266 4.483-.765 6.667-2.769 12.11.892 20.048 11.961 25.898 5.416 2.862 11.328 4.043 17.239 5.304 11.592 2.474 16.517 8.581 16.581 20.473.049 9.232.01 18.465.01 29.139-13.008-8.029-28.902-8.586-36.649-24.24-5.13 10.729-13.961 14.434-23.38 17.546-14.376 4.749-25.103 13.889-31.249 27.874-6.604 15.029-1.324 26.948 13.981 32.777 13.297 5.064 27.256 5.796 41.131 5.682 12.222-.101 24.555-.616 36.416-4.727 14.921-5.172 19.263-10.798 19.271-26.375.005-10.165.001-20.33.001-30.92 6.089.425 11.363 1.283 16.188 3.341 7.257 3.094 11.064 9.012 11.259 16.947.17 6.963-.075 13.936.091 20.899.165 6.928 4.088 11.153 9.895 11.055 5.769-.098 9.499-4.384 9.619-11.294.105-6.036.008-12.076.036-18.113.055-12.292 5.39-18.87 17.53-21.295 6.181-1.235 12.206-2.768 17.77-5.858 10.157-5.641 13.517-13.092 10.849-24.355-3.949-16.671-15.217-26.625-30.445-32.72-5.685-2.275-11.085-4.745-15.359-10.036-3.09-21.635-16.924-34.207-37.199-40.97-8.381-2.796-15.363-7.482-20.039-16.227-5.002 9.154-12.319 14.306-22.628 15.749 9.09-9.772 18.179-19.544 27.971-30.07 6.313 8.318 12.242 16.13 18.196 23.975 7.082-2.556 10.598-10.385 18.434-11.143 10.847 14.776 21.393 29.144 32.092 43.719 7.52-1.256 14.794-2.47 22.479-3.754 10.825 12.258 21.708 24.582 32.443 36.736-6.357 63.612-53.403 133.91-116.919 164.72-54.272-19.962-112.101-23.89-168.359-39.164 4.649-7.47 10.9-11.819 16.809-16.417 6.587-5.125 13.929-9.204 20.159-14.871 17.862-16.248 15.515-35.027-6.066-45.541-19.52-9.51-40.797-12.065-61.968-14.847-7.34-.964-14.718-1.636-22.546-2.493-6.965-20.472-13.876-40.788-21.513-63.236-5.924 17.134-11.152 32.258-16.381 47.382-.511.03-1.022.061-1.533.091-7.308-21.698-14.616-43.397-22.633-67.197-9.213 27.266-17.776 52.609-26.341 77.955-3.528 1.383-6.953.761-11.058.463-4.548-13.729-6.706-27.954-7.811-42.706 7.53-2.179 14.781-1.179 22.442-2.025 12.273-21.471 24.682-43.181 37.043-64.805h25.602c7.341 24.015 14.7 48.092 22.34 73.084 17.689-4.484 34.897-8.847 52.543-13.32 3.513 1.976 7.285 4.098 11.705 6.583-8.628 10.88-16.768 21.146-25.265 31.862 5.253 4.217 10.062 8.078 15.38 12.347 18.189-22.991 36.007-45.514 53.85-68.068 8.514 3.248 16.983 5.751 24.753 9.646 7.922 3.971 14.94 3.446 22.137-.986z"
        fill="#b5ada4" />
    <path
        d="m39.403 331.13c15.331-2.374 29.319 2.636 43.288-.19 2.618 13.521 8.533 18.964 23.597 20.843 16.29 2.032 25.956-2.995 33.269-16.495 29.382-.265 68.245 9.893 75.873 20.082-2.649 6.451-8.365 10.15-13.846 13.894-8.064 5.507-16.007 11.138-23.079 17.898-2.345 2.242-4.674 4.546-6.693 7.074-10.111 12.658-7.042 25.787 7.859 32.081 14.227 6.009 29.628 7.515 44.59 10.712 34.205 7.31 68.68 13.415 102.5 23.294-45.751 16.975-92.457 19.338-139.118 5.401-70.284-20.993-119.169-66.474-148.24-134.594z"
        fill="#d1c9bd" />
    <path
        d="m364.563 180.608c-5.785-4.66-8.485-11.981-14.803-17.494-14.924 15.842-29.762 31.593-44.65 47.397-23.194-.539-48.717-18.716-55.54-47.393-6.979-29.333 5.31-60.196 36.472-73.788 26.2-11.428 58.876-4.275 77.509 21.19 16.496 22.544 13.689 57.322 1.012 70.088z"
        fill="#e07640" />
    <g fill="#b5ada4">
        <path
            d="m258.848 372.233c2.343-14.672 17.702-24.591 37.36-24.466 18.718.119 33.953 10.242 36.078 23.973-11.757 9.118-57.924 9.575-73.438.493z" />
        <path
            d="m426.82 314.888c-24.65 7.452-48.878 7.253-73.097.37-.415-12.728 12.803-23.659 29.748-25.646 23.098-2.708 41.928 9.869 43.349 25.276z" />
        <path
            d="m379.781 265.824c-24.856 7.779-49.115 7.253-73.371.623-.32-12.898 12.739-23.622 29.799-25.706 21.307-2.604 39.622 7.394 43.572 25.083z" />
    </g>
    <path
        d="m110.992 313.136c3.99 6.103 5.267 11.993 6.788 17.807-4.222 2.596-7.835 3.019-11.965.629.139-6.314 3.389-11.66 5.177-18.436z"
        fill="#e07640" />
    <path
        d="m76.509 310.94c-3.864 0-7.451 0-12.083 0 1.937-6.167 3.652-11.629 5.367-17.091 3.537 5.587 6.199 10.82 6.716 17.091z"
        fill="#e07640" />
    <path
        d="m157.394 179.565c-31.64-.874-56.244-26.314-55.632-57.522.615-31.381 26.483-56.465 57.497-55.756 32.244.738 56.849 26.498 56.007 58.637-.8 30.558-27.205 55.489-57.872 54.641zm38.394-56.67c-.07-20.081-17.137-37.005-37.366-37.054-19.906-.048-37.577 17.43-37.511 37.101.067 19.89 17.413 36.917 37.623 36.93 20.392.014 37.324-16.793 37.254-36.977z"
        fill="#32302b" />
    <path
        d="m195.788 122.895c.071 20.184-16.862 36.991-37.254 36.978-20.21-.013-37.557-17.04-37.623-36.93-.066-19.671 17.605-37.149 37.511-37.101 20.229.048 37.295 16.972 37.366 37.053z"
        fill="#e07640" />
</svg>