<svg enable-background="new 0 0 500 500" viewBox="0 0 500 500" xmlns="http://www.w3.org/2000/svg">
    <path clip-rule="evenodd"
        d="m369.5 231.3c-55.8 0-101 45.2-101 101 0 19.4 5.5 37.6 15 53-49.1 39.4-98.8 65.8-141.2 77.3-44 11.9-76.2 6.7-94-11.1-19.8-19.8-23.9-57.5-6.6-108.7 2.5-7.6-1.5-15.7-9.1-18.3-7.6-2.5-15.7 1.5-18.3 9.1-18.1 54-18.3 106.4 13.6 138.4 28.8 28.8 74.3 31.4 121.9 18.6 47.3-12.8 100.7-41.6 152.2-83 17.9 16.1 41.6 25.9 67.5 25.9 55.8 0 101-45.2 101-101 .1-56-45.2-101.2-101-101.2zm0 176.9c-41.9 0-75.9-34-75.9-75.9s34-75.9 75.9-75.9 75.9 34 75.9 75.9c0 42-34 75.9-75.9 75.9z"
        fill-rule="evenodd" />
    <path clip-rule="evenodd"
        d="m472.4 25.9c-27.5-27.5-70.3-31.1-115.4-20.2-44.3 10.7-94.3 36-143.3 72.7-16.9-12.7-37.9-20.3-60.7-20.3-55.8 0-101 45.2-101 101s45.2 101 101 101 101-45.2 101-101c0-22.5-7.4-43.3-19.8-60.1 45.7-33.7 90.9-56 129.5-65.3 41.3-9.9 71.3-4.3 88.3 12.6 19.8 19.8 23.9 57.5 6.6 108.7-2.5 7.6 1.5 15.7 9.1 18.3 7.6 2.5 15.7-1.5 18.3-9.1 18.1-53.9 18.3-106.3-13.6-138.3zm-268.9 143.3h-40.4v40.4h-20.2v-40.4h-40.4v-20.2h40.4v-40.4h20.2v40.4h40.4z"
        fill-rule="evenodd" />
    <path d="m405.6 341v-20.2h-72.2v20.2z" />
</svg>