<svg enable-background="new 0 0 500 500" viewBox="0 0 500 500" xmlns="http://www.w3.org/2000/svg">
    <linearGradient gradientUnits="userSpaceOnUse" id="a" x1="409.6763" x2="80.5466" y1="430.0272"
        y2="58.9496">
        <stop offset="0" stop-color="#d85bf0" />
        <stop offset="1" stop-color="#5f3cbe" />
    </linearGradient>
    <circle cx="250" cy="250" fill="url(#a)" r="250" />
    <g fill="#fff">
        <path
            d="m340.46 366.48c-13.19 0-25.55 0-38.94 0 0-49.47 0-97.98 0-146.5-.95-.28-25.52 53.33-36.99 80.74-10.3 0-19.9 0-31.2 0-11.09-26.82-35.26-81.36-36.03-81.26v146.86c-13.86 0-26.21 0-39.4 0 0-78.31 0-155.91 0-234.37h46.66c14.15 35.38 44.67 107.71 45.54 107.88 14.41-36.06 28.81-72.13 43.13-107.96h47.23z" />
        <path d="m268.25 366.46c-12.98 0-25.28 0-38.3 0 0-13.04 0-25.14 0-38.33h38.3z" />
    </g>
</svg>