<svg enable-background="new 1000 -1000 2500 2500" viewBox="1000 -1000 2500 2500"
    xmlns="http://www.w3.org/2000/svg">
    <path
        d="m1497.779 332.887 274.943-204.7 243.034 154.527v277.831l183.873 176.293-.084 82.696-177.171 165.223h-149.738zm868.795 486.851-.361-83.225 183.247-175.932v-277.867l240.424-156.416 274.414 206.589-372.992 649.981h-147.729zm-260.637-537.024-89.458-233.156h531.887l-87.653 233.156 25.881 260.517-205.254.445-202.811.361zm175.403-296.95-505.464-.241 93.97-417.871h820.583l99.023 418.413zm0-939.351-1037.436 601.143v1203.068l1037.435 600.926 1.203.626 1045.365-601.6v-1203.02l-1045.304-601.732z"
        fill="#0a2f4b" />
</svg>