<svg enable-background="new -749 751 500 500" viewBox="-749 751 500 500"
    xmlns="http://www.w3.org/2000/svg">
    <path
        d="m-467.583 1088.199v27.149h68.199v30.652c-22.635 0-45.289 0-68.531 0v16.406h68.526v28.229c-22.525 0-45.144 0-68.34 0v54.586c-19.731 0-38.879 0-58.919 0 0-17.566 0-35.357 0-54.221-23.255 0-45.653 0-68.452 0 0-9.909 0-18.73 0-28.396h68.12c0-5.603 0-10.376 0-15.986-22.483 0-44.919 0-67.946 0 0-10.443 0-20.083 0-30.787h67.499c0-9.917 0-18.786 0-28.244-49.446-9.088-86.787-35.955-111.826-79.248-22.407-38.744-25.573-80.849-17.857-124.038 11.715-65.575 71.465-130.942 166.138-128.219 88.844 2.556 145.829 72.061 154.72 139.408 5.837 44.214-.331 86.293-25.625 124.085-25.296 37.795-60.613 60.721-105.706 68.624zm-102.041-168.529c-.104 28.077 5.914 51.55 24.27 70.495 27.805 28.698 76.539 26.497 101.153-4.423 27.166-34.127 26.264-92.563-1.943-125.857-28.468-33.603-77.661-32.708-104.805 1.965-13.862 17.706-18.889 38.202-18.675 57.82z"
        fill="#00a65a" />
</svg>