<svg enable-background="new 2000 0.5 500 500" viewBox="2000 .5 500 500"
    xmlns="http://www.w3.org/2000/svg">
    <g fill="#1e252c">
        <circle cx="2205.528" cy="202.647" r="37.191" />
        <circle cx="2296.816" cy="202.647" r="37.191" />
        <circle cx="2205.528" cy="293.935" r="37.191" />
        <circle cx="2296.816" cy="293.935" r="37.191" />
        <circle cx="2388.104" cy="202.647" r="27.048" />
        <circle cx="2388.104" cy="293.935" r="27.048" />
        <circle cx="2110.859" cy="202.647" r="27.048" />
        <circle cx="2110.859" cy="293.935" r="27.048" />
        <circle cx="2205.528" cy="385.222" r="27.048" />
        <circle cx="2296.816" cy="385.222" r="27.048" />
        <circle cx="2205.528" cy="111.359" r="27.048" />
        <circle cx="2296.816" cy="111.359" r="27.048" />
        <circle cx="2205.528" cy="20.072" r="16.905" />
        <circle cx="2296.816" cy="20.072" r="16.905" />
        <circle cx="2479.391" cy="202.647" r="16.905" />
        <circle cx="2479.391" cy="293.935" r="16.905" />
        <circle cx="2019.572" cy="202.647" r="16.905" />
        <circle cx="2019.572" cy="293.935" r="16.905" />
        <circle cx="2205.528" cy="479.891" r="16.905" />
        <circle cx="2296.816" cy="479.891" r="16.905" />
    </g>
</svg>