<svg enable-background="new 0 0 500 500" viewBox="0 0 500 500" xmlns="http://www.w3.org/2000/svg">
    <path
        d="m191.2 132.9-116.4 261.7c-7.8 17.6-28.5 25.5-46.1 17.7-17.6-7.8-25.5-28.5-17.7-46.1l116.4-261.7c7.8-17.6 28.5-25.5 46.1-17.7 17.6 7.9 25.6 28.5 17.7 46.1z"
        fill="#0073f1" />
    <path
        d="m489.4 132.9-116.4 261.7c-7.8 17.6-28.5 25.5-46.1 17.7-17.6-7.8-25.5-28.5-17.7-46.1l116.4-261.7c7.8-17.6 28.5-25.5 46.1-17.7 17.6 7.9 25.6 28.5 17.7 46.1z"
        fill="#c2e4ff" />
    <g fill="#0073f1">
        <path
            d="m340.1 133.5-57.9 130.2c-7.8 17.6-28.5 25.5-46.1 17.7-17.6-7.8-25.5-28.5-17.7-46.1l57.9-130.2c7.8-17.6 28.5-25.5 46.1-17.7 17.6 7.8 25.5 28.4 17.7 46.1z" />
        <path
            d="m489.4 132.9c-7.8 17.6-28.5 25.5-46.1 17.7-17.6-7.8-25.5-28.5-17.7-46.1 7.8-17.6 28.5-25.5 46.1-17.7 17.6 7.9 25.6 28.5 17.7 46.1z" />
        <path
            d="m373 394.6c-7.8 17.6-28.5 25.5-46.1 17.7-17.6-7.8-25.5-28.5-17.7-46.1 7.8-17.6 28.5-25.5 46.1-17.7 17.6 7.9 25.5 28.5 17.7 46.1z" />
    </g>
</svg>