<svg enable-background="new 0 0 500 500" viewBox="0 0 500 500" xmlns="http://www.w3.org/2000/svg">
    <linearGradient gradientUnits="userSpaceOnUse" id="a" x1="22.9341" x2="476.9259" y1="249.41"
        y2="249.41">
        <stop offset="0" stop-color="#26a8e1" />
        <stop offset=".5086" stop-color="#2b4192" />
        <stop offset="1" stop-color="#582d8c" />
    </linearGradient>
    <path
        d="m476.9 158.6v181.6c0 23-12.4 44.1-32.4 55.4l-163.4 92.1c-19.4 10.9-43.1 10.9-62.5 0l-22.3-12.6-45-25.3-96.2-54.2c-20-11.3-32.4-32.4-32.4-55.4v-181.6c0-23 12.4-44.1 32.4-55.4l163.4-92.1c19.4-10.9 43.1-10.9 62.5 0l17.9 10.1 45 25.3 100.5 56.7c20.2 11.3 32.5 32.5 32.5 55.4z"
        fill="url(#a)" />
    <g fill="#fff">
        <path
            d="m378.4 232.7-23.5 79.4-18.3-31.6-118.9 64c-18.5 10-38.5 14.7-58.1 14.7-43.8 0-86.4-23.5-108.6-64.7-15.6-28.9-18.9-62.2-9.5-93.7s30.6-57.4 59.5-73l198-106.6 45 25.3-222.3 119.7c-38.6 20.8-53 69-32.3 107.6 20.8 38.6 69 53 107.6 32.3l117.7-63.4-17.9-31z" />
        <path
            d="m398.7 366.3-202.3 108.9-45-25.3 226.6-122c38.6-20.8 53.1-69 32.3-107.6-10.1-18.7-26.8-32.3-47.1-38.4s-41.8-3.9-60.5 6.1l-117.7 63.4 17.9 31-81.5-21 23.5-79.4 18.2 31.6 118.9-64c28.9-15.6 62.2-19 93.7-9.5 31.5 9.4 57.4 30.6 73 59.5 32.2 59.8 9.7 134.6-50 166.7z" />
    </g>
</svg>