<svg enable-background="new 0 0 500 500" viewBox="0 0 500 500" xmlns="http://www.w3.org/2000/svg">
    <path
        d="m241.8 398.3 157-157c10.4-10.4 24.5-16.2 39.2-16.2s28.8 5.8 39.2 16.2 16.2 24.5 16.2 39.2-5.8 28.8-16.2 39.2l-157 157c-10.4 10.4-24.5 16.2-39.2 16.2s-28.8-5.8-39.2-16.2-16.2-24.5-16.2-39.2 5.8-28.8 16.2-39.2zm-219.1-140.6c10.4 10.4 24.5 16.2 39.2 16.2s28.8-5.8 39.2-16.2l157-157c10.4-10.4 16.2-24.5 16.2-39.2s-5.8-28.8-16.2-39.2c-10.3-10.5-24.5-16.3-39.2-16.3s-28.8 5.8-39.2 16.2l-157 157c-10.4 10.4-16.2 24.5-16.2 39.2s5.8 28.9 16.2 39.3zm168.4 50.6c10.4 10.4 24.5 16.2 39.2 16.2s28.8-5.8 39.2-16.2l39.2-39.2c10.4-10.4 16.2-24.5 16.2-39.2s-5.8-28.8-16.2-39.2-24.5-16.2-39.2-16.2-28.8 5.8-39.2 16.2l-39.2 39.2c-10.4 10.4-16.2 24.5-16.2 39.2s5.8 28.8 16.2 39.2z"
        fill="#781cfe" />
</svg>