<svg enable-background="new 0 0 500 500" viewBox="0 0 500 500" xmlns="http://www.w3.org/2000/svg">
    <path d="m83.3 166.7h41.7v41.7h-41.7z" fill="#fed955" />
    <path d="m83.3 250h41.7v41.7h-41.7z" fill="#fed955" />
    <path d="m83.3 208.3h41.7v41.7h-41.7z" fill="#fed955" />
    <path d="m83.3 291.7h41.7v41.7h-41.7z" fill="#fed955" />
    <path d="m250 83.3h41.7v41.7h-41.7z" fill="#fed955" />
    <path d="m250 375h41.7v41.7h-41.7z" fill="#fed955" />
    <path d="m291.7 83.3h41.7v41.7h-41.7z" fill="#fed955" />
    <path d="m333.3 83.3h41.7v41.7h-41.7z" fill="#9695f8" />
    <path d="m125 83.3h41.7v41.7h-41.7z" fill="#9695f8" />
    <path d="m375 333.3h41.7v41.7h-41.7z" fill="#9695f8" />
    <path d="m83.3 333.3h41.7v41.7h-41.7z" fill="#9695f8" />
    <path d="m291.7 41.7h41.7v41.7h-41.7z" fill="#9695f8" />
    <path d="m291.7 0h41.7v41.7h-41.7z" fill="#5552fd" />
    <path d="m291.7 458.3h41.7v41.7h-41.7z" fill="#5552fd" />
    <path d="m291.7 416.7h41.7v41.7h-41.7z" fill="#9695f8" />
    <path d="m208.3 41.7h41.7v41.7h-41.7z" fill="#9695f8" />
    <path d="m208.3 0h41.7v41.7h-41.7z" fill="#5552fd" />
    <path d="m208.3 458.3h41.7v41.7h-41.7z" fill="#5552fd" />
    <path d="m208.3 416.7h41.7v41.7h-41.7z" fill="#9695f8" />
    <path d="m250 41.7h41.7v41.7h-41.7z" fill="#9695f8" />
    <path d="m250 0h41.7v41.7h-41.7z" fill="#5552fd" />
    <path d="m250 458.3h41.7v41.7h-41.7z" fill="#5552fd" />
    <path d="m250 416.7h41.7v41.7h-41.7z" fill="#9695f8" />
    <path d="m166.7 41.7h41.7v41.7h-41.7z" fill="#9695f8" />
    <path d="m166.7 0h41.7v41.7h-41.7z" fill="#5552fd" />
    <path d="m166.7 458.3h41.7v41.7h-41.7z" fill="#5552fd" />
    <path d="m166.7 416.7h41.7v41.7h-41.7z" fill="#9695f8" />
    <path d="m375 125h41.7v41.7h-41.7z" fill="#9695f8" />
    <path d="m83.3 125h41.7v41.7h-41.7z" fill="#9695f8" />
    <path d="m333.3 375h41.7v41.7h-41.7z" fill="#9695f8" />
    <path d="m125 375h41.7v41.7h-41.7z" fill="#9695f8" />
    <path d="m416.7 166.7h41.7v41.7h-41.7z" fill="#9695f8" />
    <path d="m41.7 166.7h41.7v41.7h-41.7z" fill="#9695f8" />
    <path d="m0 166.7h41.7v41.7h-41.7z" fill="#5552fd" />
    <path d="m41.7 125h41.7v41.7h-41.7z" fill="#5552fd" />
    <path d="m416.7 125h41.7v41.7h-41.7z" fill="#5552fd" />
    <path d="m333.3 416.7h41.7v41.7h-41.7z" fill="#5552fd" />
    <path d="m41.7 333.3h41.7v41.7h-41.7z" fill="#5552fd" />
    <path d="m83.3 83.3h41.7v41.7h-41.7z" fill="#5552fd" />
    <path d="m375 83.3h41.7v41.7h-41.7z" fill="#5552fd" />
    <path d="m375 375h41.7v41.7h-41.7z" fill="#5552fd" />
    <path d="m83.3 375h41.7v41.7h-41.7z" fill="#5552fd" />
    <path d="m125 41.7h41.7v41.7h-41.7z" fill="#5552fd" />
    <path d="m333.3 41.7h41.7v41.7h-41.7z" fill="#5552fd" />
    <path d="m416.7 333.3h41.7v41.7h-41.7z" fill="#5552fd" />
    <path d="m125 416.7h41.7v41.7h-41.7z" fill="#5552fd" />
    <path d="m458.3 166.7h41.7v41.7h-41.7z" fill="#5552fd" />
    <path d="m416.7 208.3h41.7v41.7h-41.7z" fill="#9695f8" />
    <path d="m41.7 208.3h41.7v41.7h-41.7z" fill="#9695f8" />
    <path d="m0 208.3h41.7v41.7h-41.7z" fill="#5552fd" />
    <path d="m458.3 208.3h41.7v41.7h-41.7z" fill="#5552fd" />
    <path d="m416.7 250h41.7v41.7h-41.7z" fill="#9695f8" />
    <path d="m41.7 250h41.7v41.7h-41.7z" fill="#9695f8" />
    <path d="m0 250h41.7v41.7h-41.7z" fill="#5552fd" />
    <path d="m458.3 250h41.7v41.7h-41.7z" fill="#5552fd" />
    <path d="m416.7 291.7h41.7v41.7h-41.7z" fill="#9695f8" />
    <path d="m41.7 291.7h41.7v41.7h-41.7z" fill="#9695f8" />
    <path d="m0 291.7h41.7v41.7h-41.7z" fill="#5552fd" />
    <path d="m458.3 291.7h41.7v41.7h-41.7z" fill="#5552fd" />
    <g fill="#fed955">
        <path d="m291.7 375h41.7v41.7h-41.7z" />
        <path d="m250 166.7h41.7v41.7h-41.7z" />
        <path d="m250 250h41.7v41.7h-41.7z" />
        <path d="m250 291.7h41.7v41.7h-41.7z" />
        <path d="m250 125h41.7v41.7h-41.7z" />
        <path d="m250 333.3h41.7v41.7h-41.7z" />
        <path d="m166.7 250h41.7v41.7h-41.7z" />
        <path d="m166.7 208.3h41.7v41.7h-41.7z" />
        <path d="m166.7 291.7h41.7v41.7h-41.7z" />
        <path d="m166.7 125h41.7v41.7h-41.7z" />
        <path d="m166.7 333.3h41.7v41.7h-41.7z" />
        <path d="m291.7 250h41.7v41.7h-41.7z" />
        <path d="m291.7 208.3h41.7v41.7h-41.7z" />
        <path d="m291.7 291.7h41.7v41.7h-41.7z" />
        <path d="m291.7 125h41.7v41.7h-41.7z" />
        <path d="m291.7 333.3h41.7v41.7h-41.7z" />
        <path d="m208.3 83.3h41.7v41.7h-41.7z" />
        <path d="m208.3 375h41.7v41.7h-41.7z" />
        <path d="m166.7 83.3h41.7v41.7h-41.7z" />
        <path d="m166.7 375h41.7v41.7h-41.7z" />
        <path d="m208.3 166.7h41.7v41.7h-41.7z" />
        <path d="m208.3 250h41.7v41.7h-41.7z" />
    </g>
    <path d="m166.7 166.7h41.7v41.7h-41.7z" fill="#5552fd" />
    <path d="m250 208.3h41.7v41.7h-41.7z" fill="#5552fd" />
    <path d="m333.3 166.7h41.7v41.7h-41.7z" fill="#5552fd" />
    <path d="m333.3 250h41.7v41.7h-41.7z" fill="#5552fd" />
    <path d="m333.3 208.3h41.7v41.7h-41.7z" fill="#5552fd" />
    <path d="m333.3 291.7h41.7v41.7h-41.7z" fill="#5552fd" />
    <path d="m333.3 125h41.7v41.7h-41.7z" fill="#5552fd" />
    <path d="m333.3 333.3h41.7v41.7h-41.7z" fill="#5552fd" />
    <path d="m125 166.7h41.7v41.7h-41.7z" fill="#5552fd" />
    <path d="m125 250h41.7v41.7h-41.7z" fill="#5552fd" />
    <path d="m125 208.3h41.7v41.7h-41.7z" fill="#5552fd" />
    <path d="m125 291.7h41.7v41.7h-41.7z" fill="#5552fd" />
    <path d="m125 125h41.7v41.7h-41.7z" fill="#5552fd" />
    <path d="m125 333.3h41.7v41.7h-41.7z" fill="#5552fd" />
    <path d="m291.7 166.7h41.7v41.7h-41.7z" fill="#5552fd" />
    <path d="m208.3 208.3h41.7v41.7h-41.7z" fill="#5552fd" />
    <path d="m208.3 291.7h41.7v41.7h-41.7z" fill="#fed955" />
    <path d="m208.3 125h41.7v41.7h-41.7z" fill="#fed955" />
    <path d="m208.3 333.3h41.7v41.7h-41.7z" fill="#fed955" />
    <path d="m375 166.7h41.7v41.7h-41.7z" fill="#fed955" />
    <path d="m375 250h41.7v41.7h-41.7z" fill="#fed955" />
    <path d="m375 208.3h41.7v41.7h-41.7z" fill="#fed955" />
    <path d="m375 291.7h41.7v41.7h-41.7z" fill="#fed955" />
</svg>