<svg enable-background="new 0 0 500 500" viewBox="0 0 500 500" xmlns="http://www.w3.org/2000/svg">
    <path
        d="m251.7 239.5c2.6-4.9 4.4-8 5.9-11.3 18.2-38.7 36.3-77.3 54.4-116 1-2.2 1.8-4.5 3.2-6.4 5.3-7.5 14-8 19.9-1 1.7 2.1 3 4.6 4.3 6.9 28.2 50 55.7 100.4 84.7 150 15.5 26.5 33.6 51.5 50.5 77.2 5.5 8.3 11 16.5 16.4 24.8 3.2 4.9 6.4 10.2 3.1 16.2s-9.3 6-15.3 6c-118.6 0-237.3 0-355.9 0-33.8 0-67.7 0-101.5 0-2.7 0-5.5.2-8.2-.2-8.5-1.3-12.6-9.4-8.5-16.9 1.4-2.6 3.7-4.9 5.8-7.1 18.4-19.3 36.4-39 55.2-57.8 17.3-17.4 29.7-38.3 43.4-58.3 19.4-28.1 38.4-56.5 57.6-84.8 1-1.4 1.9-2.9 2.9-4.2 7.5-9.6 15.1-9.6 22.3.4 14.7 20.2 29 40.6 43.6 60.9 5.1 6.7 10.1 13.4 16.2 21.6zm9.2 90 67.8 31.8 63.7-.3s-47-67.1-70.9-101.2c-20.2 24.2-60.6 69.7-60.6 69.7zm-136.2 29.9 66.4-83.4-19.4-21.8-65.8 33.1-9.4 12.8zm118.2-27.2c-14.9-16.1-28.5-30.7-43.6-46.9-19.3 26.2-38.4 50.4-57.4 77 26.4 0 49.2-.1 73.9-.1 8.6-9.3 17.8-19.8 27.1-30zm73.5-172.5-60.6 117.7v36.4l59.4-66.9zm-138.2 83.9 66.5 73.4 1.4-48.5-61.7-80.1zm220.4 18.6-70.7-120.4-2.4 103.2zm4 91.9 6.2-77.9-75.5-19.2zm-366.2 7.9h75.6l-22.8-52.1zm383.1-62.8-5.2 61.9 47.3.4zm-249.3-105.3-48.5 72.1s32.1-16.9 44.8-24.7c1.2-13.2 3.7-47.4 3.7-47.4zm61.1 168.2 71.2-.3-50.5-22.6z"
        fill="#003977" />
</svg>