<svg enable-background="new 0 0 2000 2000" viewBox="0 0 2000 2000"
    xmlns="http://www.w3.org/2000/svg">
    <path
        d="m87.37 415.616c-3.31 5.196-1.683 11.275-1.684 16.962-.09 411.449-.068 822.898-.127 1234.346-.001 7.048.047 14.313-1.536 21.102-3.792 16.263-19.381 27.065-35.329 25.491-16.575-1.635-29.254-14.332-30.657-30.995-.411-4.88-.205-9.817-.205-14.727-.001-437.643.005-875.287.011-1312.93 0-2.183.101-4.371-.01-6.547-.791-15.464 4.145-28.098 18.641-35.232 14.327-7.051 27.139-3.52 39.514 5.922 56.799 43.336 113.837 86.36 170.775 129.514 213.426 161.756 426.777 323.609 640.421 485.076 14.463 10.931 20.852 23.429 20.826 41.491-.334 231.372-.242 462.745-.258 694.117 0 2.728.081 5.46-.023 8.185-.823 21.501-14.703 36.242-34.199 36.367-19.14.122-33.492-15.042-33.538-36.627-.187-87.856-.087-175.712-.089-263.568-.003-138.605-.091-277.211.178-415.815.019-9.99-2.234-16.649-10.789-23.116-244.531-184.826-488.799-370-733.167-555.043-2.391-1.81-4.259-5.291-8.755-3.973z"
        fill="#1ebc9c" />
    <path
        d="m1914.718 411.719c-11.712 8.753-20.302 15.098-28.813 21.547-236.92 179.511-473.778 359.103-710.92 538.32-10.612 8.02-14.818 15.985-14.788 29.508.479 222.076.34 444.153.332 666.23 0 4.91.248 9.85-.201 14.723-1.586 17.222-15.443 30.792-32.014 31.658-17.097.893-32.783-12.251-35.318-29.977-.69-4.825-.422-9.801-.423-14.707-.019-230.262.167-460.524-.342-690.784-.046-20.711 7.289-34.416 23.642-46.776 268.022-202.579 535.74-405.559 803.392-608.626 13.797-10.468 27.509-18.434 44.821-9.722 16.636 8.371 18.644 23.508 18.637 40.306-.185 439.243-.144 878.486-.164 1317.729-.001 26.568-13.344 42.995-34.334 42.566-21.106-.432-33.6-16.647-33.598-43.651.028-407.05.06-814.1.091-1221.15.001-10.889 0-21.777 0-37.194z"
        fill="#576b7c" />
</svg>