<svg enable-background="new 0 0 500 500" viewBox="0 0 500 500" xmlns="http://www.w3.org/2000/svg">
    <g fill="#1d1d1b">
        <path
            d="m181.9 193.2c-2.2-6.7-6.2-13.4-10.6-19-4.5-4.5-10.1-6.7-16.2-6.2h-5.6c5 1.7 9.5 5 13.4 9 3.9 5.6 7.3 11.8 10.1 17.9l63.3 151.2c1.7-2.8 2.8-6.2 3.4-9.5-.6-3.9-1.7-7.8-3.4-11.2z" />
        <path
            d="m304.6 346.7h5c6.2 0 10.1-1.7 11.8-5 1.7-6.2 2.2-12.3 2.2-18.5v-132.8c-.6-7.3.6-14.6 2.8-21.8-3.9.6-6.2 1.1-7.8 3.4-1.7 2.2-2.8 4.5-2.8 7.3-.6 5-.6 10.1-.6 15.1v132.7c.6 4.5 0 9-2.2 13.4-2.8 2.2-5.6 4.5-8.4 6.2z" />
        <path
            d="m250.2 26.3c-123.2 0-223.4 100.3-223.4 223.5s100.2 223.4 223.4 223.4 223.5-100.2 223.5-223.4c0-123.2-100.3-223.5-223.5-223.5zm121 142.3c-6.7-.6-13.4.6-19.6 3.9-3.9 2.2-6.2 5.6-6.2 10.1-.6 7.8-1.1 15.7-1.1 24.1v118.7c0 4.5.6 9.5 2.8 14 1.7 3.4 4.5 5.6 7.8 6.2 5.6 1.7 11.2 2.2 16.8 2.8v7.3h-89v-7.3c6.7.6 12.9-.6 19-3.4 3.4-1.7 6.2-4.5 6.7-8.4.6-5.6 1.1-11.8 1.1-17.4v-133.8l-68.9 169.1h-7.8l-67.2-164.1v112.6c-.6 10.6 2.2 20.7 7.3 29.7 6.2 7.8 14.6 12.9 24.1 14.6v7.3h-69.4v-7.3c9-.6 17.4-5 23-11.8 5.6-7.8 8.4-17.9 7.8-27.4v-127.2c-3.4-3.9-8.4-7.3-13.4-9-5.6-1.7-11.2-2.8-16.8-2.8v-7.3h62.7l61 146.7 59.9-146.7h58.8z" />
        <path
            d="m160.1 328.7c-1.1 3.9-3.4 7.3-5.6 10.1-3.4 2.8-6.7 5.6-10.1 7.8h28.6c-3.4-1.7-6.2-4.5-7.8-7.3-2.9-3.3-4-6.6-5.1-10.6z" />
        <path
            d="m250.2 500.1c-137.7 0-249.7-111.4-250.3-249.8 0-137.7 111.4-249.7 249.8-250.3 137.7 0 249.7 111.4 250.3 249.8-.6 137.7-112 249.7-249.8 250.3zm0-490c-132.2 0-239.7 107-239.7 239.7 0 132.2 107 239.7 239.7 239.7s239.7-107 239.7-239.7c-.5-132.2-107.5-239.2-239.7-239.7z" />
    </g>
</svg>