<svg xmlns:xlink="http://www.w3.org/1999/xlink" enable-background="new 0 0 500 500"
    viewBox="0 0 500 500" xmlns="http://www.w3.org/2000/svg">
    <linearGradient gradientTransform="matrix(1 0 0 -1 0 500)" gradientUnits="userSpaceOnUse" id="a"
        x1="-5.4247" x2="533.9823" y1="349.1936" y2="25.9545">
        <stop offset="0" stop-color="#e54033" />
        <stop offset=".4896" stop-color="#feca1a" />
        <stop offset="1" stop-color="#afd803" />
    </linearGradient>
    <linearGradient id="b">
        <stop offset=".15" stop-color="#6cbf00" />
        <stop offset="1" stop-color="#afd803" />
    </linearGradient>
    <linearGradient gradientTransform="matrix(1 0 0 -1 0 500)" gradientUnits="userSpaceOnUse" id="c"
        x1="83292.6094" x2="49524.1055" y1="-84929.9688" y2="-50194.2969" xlink:href="#b" />
    <linearGradient gradientTransform="matrix(1 0 0 -1 0 500)" gradientUnits="userSpaceOnUse" id="d"
        x1="83.0305" x2="421.0281" y1="55.8995" y2="138.0838">
        <stop offset=".21" stop-color="#e54033" />
        <stop offset=".84" stop-color="#feca1a" />
    </linearGradient>
    <linearGradient gradientTransform="matrix(1 0 0 -1 0 500)" gradientUnits="userSpaceOnUse" id="e"
        x1="349.323" x2="453.6161" y1="78.7076" y2="77.9263">
        <stop offset="0" stop-color="#feca1a" />
        <stop offset=".4" stop-color="#feca1a" />
        <stop offset="1" stop-color="#afd803" />
    </linearGradient>
    <linearGradient gradientTransform="matrix(1 0 0 -1 0 500)" gradientUnits="userSpaceOnUse" id="f"
        x1="113.2627" x2="327.0866" y1="53.7935" y2="343.2733">
        <stop offset=".16" stop-color="#e54033" />
        <stop offset=".84" stop-color="#feca1a" />
    </linearGradient>
    <linearGradient gradientTransform="matrix(1 0 0 -1 0 500)" gradientUnits="userSpaceOnUse" id="g"
        x1="82.1138" x2="72.6452" y1="341.4354" y2="154.4603">
        <stop offset="0" stop-color="#feca1a" />
        <stop offset=".76" stop-color="#e54033" />
    </linearGradient>
    <linearGradient gradientTransform="matrix(1 0 0 -1 0 500)" gradientUnits="userSpaceOnUse" id="h"
        x1="186.7138" x2="129.6073" y1="389.9878" y2="173.1427">
        <stop offset=".16" stop-color="#feca1a" />
        <stop offset="1" stop-color="#e54033" />
    </linearGradient>
    <linearGradient gradientTransform="matrix(1 0 0 -1 0 500)" gradientUnits="userSpaceOnUse" id="i"
        x1="208.8364" x2="420.2758" y1="493.8128" y2="415.8765" xlink:href="#b" />
    <linearGradient gradientTransform="matrix(1 0 0 -1 0 500)" gradientUnits="userSpaceOnUse" id="j"
        x1="83289.4453" x2="49520.9414" y1="-84932.3125" y2="-50196.6367" xlink:href="#b" />
    <path clip-rule="evenodd"
        d="m236.6 116.8c21 10.8 44 14.5 66 14.4 12.8 11.7 23.4 25.5 33.4 39.7 4.1 5.9 7.9 12.1 11.2 18.5 7.6 14.7 13.3 30.3 18.9 46 1.7 4.6 3.3 9.3 5.1 13.9.5 2 1.1 4 1.7 6 8.8 30.1 21.6 62.3 38.8 88.8 5.7 8.7 12 17 19 24.7 1.4 1.5 2.8 3 4.2 4.4 6.6 6.9 13.2 13.8 17 22.5 4.7 10.8 4.3 23.3 1.5 34.7-13.3 54-65.3 68.2-114.9 69.5v-.1c-18.6.4-37.1-1-53.5-2.7 0 0-79.1-8.2-146.2-57.2l-2.2-1.6c-7.8-5.8-15.3-12.1-22.4-18.9-18.8-17.9-35.5-38.3-48.3-60.6.1-.1.2-.2.3-.3-1.5-2.7-3-5.5-4.4-8.3-12.4-24.8-19.9-51.7-20.3-80.4-.6-48.1 15.9-97.3 47.1-133v-.1c16.9-18.5 38.1-33.1 63.1-41.4 15.7-5.2 32.2-7.8 48.7-7.4 10.2 12 22.4 21.7 36.2 28.9zm-38.6 314.6c11.3-4.1 22-9.7 32-16.5-10 6.8-20.7 12.4-32 16.5z"
        fill="url(#a)" fill-rule="evenodd" />
    <path clip-rule="evenodd"
        d="m400.8 77.7.7-.4c-88.2-150.5-203.5-32.1-203.5-32.1l.2.3c66.2 116.3 192.3 38.8 202.6 32.2z"
        fill="url(#c)" fill-rule="evenodd" />
    <path
        d="m291.5 336.9c-24.3 58.1-71 96.6-127.5 102.4-1.2.2-16.7 1.4-25.2.8 67.1 49 146.2 57.2 146.2 57.2 16.9 1.7 36.1 3.2 55.4 2.7 6.8-17.7 10.6-37.9 9.5-60.9-2.5-53.4 28.4-80.8 61.9-94.8-17.2-26.6-30-58.7-38.8-88.8-26.3 6.7-59.5 28.6-81.5 81.4z"
        fill="url(#d)" />
    <path
        d="m348.7 438.6c1.1 23-3.5 43.7-10.3 61.4 49.7-1.3 101.7-15.5 114.9-69.5 2.8-11.5 3.2-23.9-1.5-34.7-4.6-10.5-13.4-18.5-21.2-27-7.3-8.1-13.9-16.7-19.8-25.9-33.4 14.1-64.7 42.3-62.1 95.7z"
        fill="url(#e)" />
    <path
        d="m371.2 249.3c-7.6-20.4-14.1-40.9-24-59.9-3.3-6.4-7-12.6-11.2-18.5-10-14.2-20.6-27.9-33.4-39.7-22 .1-45-3.6-66-14.4-21.3 30.2-45.6 81.4-23.3 139.8 32.9 86.3-33.9 145.3-76.7 181.8l2.2 1.6c8 .6 16.1.5 24.1-.3 56.5-5.8 105.9-45.2 130.2-103.3 22-52.7 54.1-72.7 80.2-79.7-.8-2.5-1.5-4.9-2.1-7.4z"
        fill="url(#f)" />
    <path
        d="m90.9 134.4c-32.8 35.9-50 86.3-49.4 135.6.3 28.7 7.9 55.6 20.3 80.4 1.9 3.7 3.8 7.4 5.9 11 68.8-69.1 43.9-172.1 23.2-227z"
        fill="url(#g)" />
    <path
        d="m214.4 256.6c-22.3-58.5 1.5-109.3 22.8-139.5-14-7.2-26.5-17.1-36.7-29.1-16.6-.3-33 2.2-48.7 7.4-25 8.3-46.2 22.9-63.1 41.4 20.3 53.6 44.6 154.4-22.7 222 12.8 22.3 29.5 42.7 48.3 60.6 7.4 7.1 15.3 13.7 23.5 19.7 42.7-36.3 109.5-96.2 76.6-182.5z"
        fill="url(#h)" />
    <path
        d="m297.5 54.8c46.6 18.4 79.3 23.4 103 22.7l.7-.4c-88.3-150.5-203.6-32.1-203.6-32.1l.2.3c24.8-4.4 61-5.7 99.7 9.5z"
        fill="url(#i)" />
    <path
        d="m298.1 53.8c-38.7-15.2-75-14.7-100.3-8.4 66.3 116.3 192.4 38.8 202.7 32.2-23.7.6-55.8-5.4-102.4-23.8z"
        fill="url(#j)" />
</svg>