<svg enable-background="new 0 0 500 500" viewBox="0 0 500 500" xmlns="http://www.w3.org/2000/svg">
    <path
        d="m220.59 175.726c11.577 13.56 22.75 26.649 34.298 40.175 9.128-1.886 18.318-3.786 27.801-5.745 16.093 20.589 32.002 40.941 47.874 61.246 8.416 1.449 15.174.587 21.781-6.09 16.505-16.679 33.979-32.398 51.715-49.116 31.245 41.165 62.203 81.952 93.161 122.738-.259.231-.518.463-.778.694-30.611-34.167-61.221-68.334-92.327-103.053-12.259 13.388-24.15 26.374-36.427 39.781 8.061 29.611 16.124 59.233 24.188 88.855-.368.221-.736.442-1.104.663-35.79-42.879-71.581-85.758-107.473-128.759-5.012 0-9.921 0-15.132 0-.411 1.367-.811 2.698-1.46 4.853-15.366-16.277-30.352-32.152-46.26-49.002-23.056 67.008-45.718 132.869-68.38 198.731-.48-.072-.96-.144-1.44-.217-2.29-21.313-4.579-42.625-6.898-64.208-18.878-8.436-37.516-16.765-56.55-25.27-28.157 23.081-56.223 46.087-84.289 69.094-.241-.236-.481-.472-.722-.708 25.616-29.868 51.233-59.737 77.055-89.846 9.423 5.247 18.59 10.352 28.191 15.698 37.635-40.074 75.085-79.952 113.176-120.514zm18.349-56.577c.253-8.567-6.709-15.921-15.137-15.988-8.552-.068-15.568 6.973-15.517 15.573.051 8.497 6.574 15.019 15.112 15.108 8.557.089 15.293-6.279 15.542-14.693zm-81.441 44.836c.065-8.659-6.815-15.583-15.481-15.582-8.081.001-15.121 7.079-15.211 15.293-.094 8.619 6.851 15.487 15.577 15.404 8.535-.082 15.051-6.598 15.115-15.115zm162.912-.081c.029-8.435-7.295-15.686-15.676-15.52-8.583.17-15.241 7.286-15.009 16.042.223 8.431 6.936 14.77 15.53 14.667 8.377-.1 15.127-6.866 15.155-15.189z"
        fill="#354368" />
</svg>