<svg enable-background="new 0 0 500 500" viewBox="0 0 500 500" xmlns="http://www.w3.org/2000/svg">
    <g fill="#ff8801">
        <path
            d="m487.4 217.1c-4.5 6.8-15.9 19.3-46.5 35.1-6.8 3.4-14.7 6.8-23.8 10.2-6.8 2.3-7.9 9.1-9.1 13.6v5.7 51c45.3-15.9 77.1-37.4 88.4-63.5 2.3-5.7 3.4-11.3 3.4-18.1 1.2-12.4-4.5-23.8-12.4-34z" />
        <path
            d="m357 273.8c-24.9 4.5-51 7.9-79.3 9.1v20.4c0 11.3-7.9 21.5-17 21.5s-17-9.1-17-21.5v-19.3c-103.1-1.1-190.4-29.5-223.3-68-7.9 10.2-12.5 20.4-12.5 31.7 0 5.7 1.1 11.3 3.4 18.1 20.4 47.6 121.3 83.9 242.6 83.9 43.1 0 82.7-4.5 117.9-12.5v-45.3c-1.2-17-13.6-18.1-14.8-18.1z" />
        <path
            d="m247.1 46c-137.2 0-247.1 46.4-247.1 103.1 0 5.7 1.1 12.5 3.4 18.1 20.4 46.5 116.7 82.8 234.6 83.9v-1.1c0-20.4-1.1-48.7-13.6-61.2-7.9-7.9-38.5-19.3-52.1-27.2-4.5-2.3-9.1-4.5-12.5-6.8-1.1-1.1-2.3-2.3-3.4-3.4-5.7-5.7-9.1-11.3-9.1-18.1 0-23.8 48.7-43.1 108.8-43.1s108.9 19.3 108.9 43.1c0 12.5-12.5 22.7-31.7 30.6-7.9 4.5-41.9 12.5-51 29.5-7.9 14.7-7.9 37.4-7.9 57.8 108.8-4.5 197.2-39.7 215.4-83.9 2.3-5.7 3.4-11.3 3.4-18.1-.1-56.8-110.1-103.2-246.1-103.2z" />
        <path
            d="m400.1 362.2v35.1c0 9.1-7.9 17-17 17s-17-7.9-17-17v-24.9c-35.1 7.9-75.9 12.5-117.9 12.5-106.5 0-197.2-28.4-232.3-66.9-10.2 10.2-15.9 22.7-15.9 34 0 55.5 109.9 102 247.1 102 136 0 247.1-45.3 247.1-102 0-12.5-5.7-23.8-14.7-35.1-17 18.1-44.3 34-79.4 45.3z" />
    </g>
</svg>