<svg enable-background="new 0 0 500 500" viewBox="0 0 500 500" xmlns="http://www.w3.org/2000/svg">
    <circle cx="250.6" cy="249.2" r="243.9" />
    <g fill="#fff">
        <path
            d="m152.9 185.9c0-7.7-.5-15.1-1.2-22.7h34.3l1.2 15.6c3.8-5.3 13.1-18.2 37.3-18.2 27.8 0 35.6 17 38 22.7 10-19.4 26.3-22.5 38.8-22.5 24.4 0 34.2 14.6 36.8 19.4 6.5 10.5 6 25.1 6 35.7v66.1h-35.6v-69c0-12.9-1.9-27.3-20.3-27.3-21.3 0-21.8 19.9-21.8 37.8v58.5h-35.6v-69.8c0-9.3-.2-26.6-19.9-26.6-22.2 0-22.2 19.2-22.2 27.3v69h-35.7v-96z" />
        <path d="m151.7 308.6h192.4v29.4h-192.4z" />
    </g>
</svg>