<svg xmlns:xlink="http://www.w3.org/1999/xlink" enable-background="new 0 0 500 500"
    viewBox="0 0 500 500" xmlns="http://www.w3.org/2000/svg">
    <linearGradient id="a">
        <stop offset="0" stop-color="#1d2c87" />
        <stop offset=".9995" stop-color="#5cbfd7" />
    </linearGradient>
    <linearGradient gradientUnits="userSpaceOnUse" id="b" x1="251.4578" x2="249.9743" y1="452.7452"
        y2="48.5162" xlink:href="#a" />
    <linearGradient gradientUnits="userSpaceOnUse" id="c" x1="252.8387" x2="247.6467" y1="496.7387"
        y2="2.0204" xlink:href="#a" />
    <path
        d="m425.607 74.794c-28.68-26.073-57.024-25.028-79.523-15.209-18.647 8.138-82.13 17.817-104.727 16.947-22.597-.869-59.533-6.518-95.601-19.989s-70.609 17.593-70.609 17.593c-13.247 13.249-24.557 34.988-24.992 55.412s28.673 68.577 25.41 126.658c-1.828 32.543-19.326 78.449-23.237 98.873s2.872 50.194 25.981 71.174c26.188 23.775 51.204 23.122 84.829 10.087 26.494-10.271 69.093-14.34 98.643-14.34 29.549 0 69.093 12.602 96.036 21.293 26.942 8.691 56.926-9.126 70.832-23.031 13.906-13.906 28.68-39.979 19.989-66.052s-22.597-81.695-23.031-110.81c-.435-29.115 21.293-87.345 23.466-100.816 2.172-13.471 5.214-41.717-23.466-67.79zm-33.07 98.104c-1.557 9.655-13.867 43.718-13.578 70.018.229 20.868 7.038 62.968 13.266 81.655 6.229 18.687 19.102 44.352.894 62.56-19.363 19.363-46.677 7.514-65.986 1.286-19.309-6.229-49.825-12.846-71.003-12.846s-49.038 2.87-68.524 7.863c-25.038 6.416-57.372 25.196-75.297 7.27-26.983-26.983-6.924-50.872-4.121-65.51s12.821-48.55 14.131-71.874c2.339-41.627-11.624-75.7-15.688-89.766-5.023-17.383-20.438-31.329 2.93-54.696 0 0 17.961-23.741 65.588 2.373 12.481 6.843 45.144 11.746 66.531 11.746 20.305 0 60.141-5.234 77.044-9.565 17.043-4.367 51.275-26.85 73.01-5.115 24.218 24.218 2.36 54.946.803 64.601z"
        fill="url(#b)" />
    <path
        d="m497.312 250.277c-1.844-38.716-22.625-58.019-45.476-66.986-18.939-7.431-70.673-45.476-86.037-62.069s-37.487-46.706-53.466-81.735c-15.978-35.029-62.368-37.487-62.368-37.487-18.735 0-42.105 7.375-56.854 21.509-14.749 14.135-28.216 68.766-71.594 107.528-24.304 21.718-69.138 41.807-86.345 53.483s-33.462 37.524-31.956 68.699c1.706 35.329 19.857 52.557 52.851 67.116 25.997 11.472 58.996 38.716 79.891 59.611s39.946 57.767 52.851 82.964c12.905 25.196 46.706 33.8 66.371 33.8s48.549-7.989 60.84-32.571 41.789-73.746 62.069-94.64c20.28-20.895 76.818-46.706 87.88-54.695 11.063-7.989 33.187-25.811 31.343-64.527zm-92.754 45.986c-7.928 5.726-40.719 21.108-59.111 39.909-14.594 14.918-39.549 49.502-48.358 67.12s-17.854 44.869-43.604 44.869c-27.383 0-38.319-27.692-47.568-45.75s-26.148-44.315-41.123-59.291c-14.975-14.975-36.705-32.646-54.014-42.893-22.241-13.168-58.384-22.752-58.384-48.102 0-38.16 31.076-40.868 43.409-49.237 12.333-8.368 43.396-25.264 60.815-40.83 31.089-27.781 45.308-61.747 52.38-74.567 8.74-15.843 7.701-36.604 40.747-36.604 0 0 29.488-4.087 44.7 48.056 3.986 13.664 23.617 40.227 38.739 55.35 14.358 14.358 46.228 38.825 61.242 47.715 15.139 8.963 55.242 17.271 55.242 48.009 0 34.248-37.184 40.52-45.112 46.246z"
        fill="url(#c)" />
</svg>