<svg enable-background="new 0 0 500 500" viewBox="0 0 500 500" xmlns="http://www.w3.org/2000/svg">
    <g fill="#383635">
        <path d="m314.6 340.3-64.7-53.4-64.7 53.4 64.7 24.6z" />
        <path
            d="m250 3.5c-136.1 0-246.5 110.4-246.5 246.5s110.4 246.5 246.5 246.5 246.5-110.4 246.5-246.5-110.4-246.5-246.5-246.5zm59.3 401.1-59.4-22.6-59.4 22.6-117.6-97.8 21.3-151.5 152.3-59.8-18.2 152.7 21.6 17.9 21.6-17.9-18.2-152.7 152.3 59.8 21.3 151.5z" />
        <path
            d="m237.3 276.5-26-21.5 16.1-134.8-118.7 46.6-18.8 133.4 103.6 86.1 33.9-12.9-73.6-27.9z" />
        <path
            d="m391.1 166.8-118.7-46.6 16.1 134.8-26 21.5 83.5 69-73.6 27.9 33.9 12.9 103.5-86.1z" />
    </g>
</svg>