<svg enable-background="new 0 0 500 500" viewBox="0 0 500 500" xmlns="http://www.w3.org/2000/svg">
    <linearGradient gradientTransform="matrix(1 0 0 -1 0 501)" gradientUnits="userSpaceOnUse" id="a"
        x1="1207.843" x2="87.109" y1="251" y2="251">
        <stop offset="0" stop-color="#3600c9" />
        <stop offset="1" stop-color="#9e00e7" />
    </linearGradient>
    <path
        d="m228.5 282.7-83 83c-11.9 11.9-31.1 11.9-42.9 0l-93.7-94.2c-11.9-11.9-11.9-31.1 0-43l94.3-94.3c11.9-11.9 31.1-11.9 42.9 0l83 83c11.9 11.9 31.1 11.9 42.9 0l82.4-83c11.9-11.9 31.1-11.9 42.9 0l93.7 94.3c11.9 11.9 11.9 31.1 0 42.9l-93.7 94.3c-11.9 11.9-31.1 11.9-42.9 0l-83-83c-11.8-11.8-31-11.8-42.9 0z"
        fill="url(#a)" />
</svg>