<svg enable-background="new 0 0 500 500" viewBox="0 0 500 500" xmlns="http://www.w3.org/2000/svg">
    <linearGradient gradientUnits="userSpaceOnUse" id="a" x1="83.041" x2="417.9573" y1="152.6078"
        y2="487.5241">
        <stop offset="0" stop-color="#4dc5da" />
        <stop offset="1" stop-color="#76cbc2" />
    </linearGradient>
    <path
        d="m299.2 33.8c-43.3 0-54.1 0-97.4 0l-196.5 340.4c21.7 37.4 27.1 46.8 48.7 84.3h393c21.6-37.5 27.1-46.9 48.7-84.3zm-11.1 122-84.3 135.1h-37.7l122.7-214.4 171.9 297.7-20.3 35.1zm-38.4 118.9 9.1 16.3h-19.3zm-30.4-210.5h41.6l-147 257.1h162l22.3 39.6-250.6.7zm-153.1 354.7-15.7-27.1 299.5-.8-82-145.6 19.6-31.5 128.8 214.3h-344.9z"
        fill="url(#a)" />
</svg>