<svg enable-background="new 0 0 500 500" viewBox="0 0 500 500" xmlns="http://www.w3.org/2000/svg">
    <path
        d="m5 248.734c65.825-32.475 130.18-64.225 194.418-95.916 16.864-49.682 33.576-98.913 50.856-149.82 32.429 65.733 64.137 130.002 95.929 194.444 49.494 16.806 98.89 33.579 149.796 50.864-65.656 32.389-129.818 64.041-194.449 95.925-16.713 49.228-33.498 98.664-50.834 149.727-32.414-65.69-64.127-129.96-95.914-194.38-49.499-16.801-98.902-33.569-149.802-50.844zm248.107-202.347c-26.236 77.383-51.815 152.829-77.985 230.016 52.474-25.885 102.944-50.782 153.953-75.944-25.324-51.36-50.229-101.87-75.968-154.072zm199.44 204.755c-38.565-13.073-75.4-25.558-111.754-37.881-52.678 25.997-104.557 51.601-158.264 78.106 38.485 13.061 74.844 25.4 111.648 37.891 52.076-25.687 104.288-51.44 158.37-78.116zm-297.015 31.051c11.981-35.348 23.742-70.048 35.504-104.748-.477-.384-.954-.768-1.43-1.153-46.531 22.94-93.063 45.88-141.15 69.587 36.502 12.379 71.457 24.234 107.076 36.314zm92.327 168.334c12.393-36.521 24.245-71.45 36.321-107.039-35.351-11.924-70.061-23.633-106.876-36.051 23.932 48.535 46.856 95.028 70.555 143.09z" />
    <g fill="#fff">
        <path
            d="m253.107 46.387c25.739 52.202 50.644 102.713 75.968 154.072-51.008 25.162-101.478 50.059-153.953 75.944 26.17-77.187 51.749-152.633 77.985-230.016z" />
        <path
            d="m452.547 251.142c-54.083 26.676-106.294 52.429-158.37 78.115-36.804-12.491-73.163-24.83-111.648-37.891 53.707-26.505 105.586-52.109 158.264-78.106 36.355 12.324 73.189 24.81 111.754 37.882z" />
        <path
            d="m155.532 282.193c-35.619-12.08-70.574-23.935-107.077-36.314 48.087-23.707 94.618-46.647 141.15-69.587.477.384.954.768 1.43 1.153-11.761 34.699-23.522 69.399-35.503 104.748z" />
        <path
            d="m247.859 450.527c-23.698-48.062-46.623-94.555-70.555-143.09 36.815 12.418 71.525 24.126 106.876 36.051-12.076 35.589-23.929 70.518-36.321 107.039z" />
    </g>
</svg>