<svg enable-background="new 0 0 500 500" viewBox="0 0 500 500" xmlns="http://www.w3.org/2000/svg">
    <path d="m387.644 119.631h105.085l-115.192 129.969z" fill="#3ebaec" />
    <path d="m366.925 379.569 10.612-129.969 115.192-129.969z" fill="#28b1e9" />
    <path d="m310.831 278.533 76.813-158.902-10.107 129.969-50.535 57.738z" fill="#439fe2" />
    <path d="m327.002 307.338 50.535-57.738-10.612 129.969z" fill="#2a96e0" />
    <path d="m327.002 307.338-14.324 15.583 54.247 56.648z" fill="#2e53bd" />
    <path d="m312.678 322.921-50.295 56.648h104.542z" fill="#1244b9" />
    <path d="m262.383 379.569 35.023-72.231 15.272 15.583z" fill="#2e53bd" />
    <path d="m297.406 307.338 13.425-28.805 16.171 28.805-14.324 15.583z" fill="#4068c6" />
    <path d="m310.831 278.533-87.729-158.902 19.278 129.969 55.026 57.738z" fill="#707fd7" />
    <path d="m242.38 249.6 55.026 57.738-35.023 72.231z" fill="#5876d4" />
    <path d="m242.38 249.6 20.003 129.969-85.55-153.281 13.977-30.364z" fill="#8371d1" />
    <path d="m242.38 249.6-51.57-53.676 32.292-76.293z" fill="#8e81d7" />
    <path d="m223.102 119.631-48.679 58.942-55.909-58.942z" fill="#775cb8" />
    <path d="m174.423 178.573 16.387 17.351 32.292-76.293z" fill="#644bb3" />
    <path d="m118.514 119.631-111.003 259.938 152.935-183.645z" fill="#b44fc4" />
    <path d="m160.446 195.924 13.977-17.351-55.909-58.942z" fill="#7046ac" />
    <path d="m176.833 226.288-16.387-30.364 13.977-17.351 16.387 17.351z" fill="#5933a5" />
    <path d="m7.511 379.569 152.935-183.645 16.387 30.364-63.62 153.281z" fill="#aa3cbd" />
</svg>