<svg enable-background="new 0 0 500 500" viewBox="0 0 500 500" xmlns="http://www.w3.org/2000/svg">
    <path
        d="m200.477 403.763-1.027-5.979-110.066 18.908-3.345-101.004 43.786-105.546.562 1.165 5.464-2.634-45.219-93.815 123.569-47.338 31.162 62.486-30.185 15.522 3.533 4.28 30.872-15.169 48.142 18.986 2.227-5.643-45.214-17.831 75.185-77.749 43.976 47.542 2.228-2.06 2.227-2.059-77.288-83.555-2.954-.886-98.873 24.369-.939.41-113.496 74.506-1.067 3.852 41.053 85.171h-84.49l-11.591-29.12-5.635 2.243 56.709 142.464-23.379 79.768 5.821 1.706 18.357-62.633 2.857 86.251 3.544 2.889zm.717-362.241 96.632-23.817 27.971 30.239-75.595 78.174-30.31-60.778 7.616-2.917-2.17-5.665-113.715 43.562zm-76.118 164.236-42.032 101.316-40.33-101.316z"
        fill="#14566c" />
    <path
        d="m427.678 427.488-51.202-124.673-.376 13.452 44.026 108.732-195.739-23.578-4.218-4.432 73.58-31.02-2.358-5.588-75.692 31.911-5.183-5.445-4.393 4.182 12.884 13.538-49.352 68.238 4.915 3.554 48.69-67.323 78.95 82.956 4.396-4.182-75.651-79.488 193.548 23.314z"
        fill="#14566c" />
    <path
        d="m492.614 320.113-8.779-5.012-57.818 101.27-39.587-36.165-6.82 7.464 37.637 34.384-103.261 30.472-96.937-73.743-3.075 9.154 86.916 67.24-120.8 22.156 30.005-89.187-9.382-1.605-28.23 81.832-29.796-87.45-8.363 8.09 28.386 82.027-91.686-62.751 57.835-21.503-3.523-9.478-61.366 22.815-21.136-111.718 79.524 82.086 5.885-8.292-87.777-90.81 48.452-149.212 31.37 6.606 2.083-9.893-28.842-6.073 43.041-71.061 90.749 16.309-30.559 60.448 10.298.123 28.984-55.436 52.696 59.861 8.413-5.082-51.039-58.616h129.531l-4.516 59.686 9.095 2.675 4.871-53.832 75.289 99.185-77.218-40.036-2.942 7.482 95.505 51.971 6.834-6.794-50.792-98.682-1.803-1.966-46.379-29.162-83.44-46.441-3.319-.564-163.644 28.3-2.759 1.453-113.838 116.823-1.431 3.332-5.804 150.2.426 2.233 45.713 103.761 1.77 2.135 112.379 76.914 2.563.875 138 7.983 2.822-.669 116.777-67.482 1.86-1.872zm-187.078 166.384-90.749-5.25 92.574-16.979zm12.156-24.524 70.293-20.743-72.007 41.61zm-235.814-349.436-33.583 18.87 58.541-60.076zm-5.17 14.502-39.725 122.336-11.35-93.636zm-47.231 144.426-9.329 13.995 2.665-68.973zm2.578 14.358 14.887 78.687-26.796-60.822zm329.595-236.572h-111.345l47.773-35.382zm-127.917-.306-70.578-12.684 114.417-19.786zm213.307 83.833-45.094-59.407 21.467 13.501z"
        fill="#15a9d5" />
    <path
        d="m378.208 365.385v-223.933c4.669-1.977 7.954-6.605 7.954-11.986 0-7.173-5.836-13.009-13.009-13.009-5.381 0-10.009 3.284-11.986 7.954h-52.031c-1.977-4.669-6.605-7.954-11.986-7.954-7.173 0-13.009 5.836-13.009 13.009 0 5.381 3.284 10.009 7.953 11.986v91.888c-.339.144-.668.307-.992.478l-79.242-96.278c1.765-2.221 2.828-5.024 2.828-8.074 0-7.173-5.836-13.009-13.009-13.009-5.381 0-10.009 3.284-11.986 7.954h-47.124c-1.977-4.669-6.605-7.954-11.986-7.954-7.173 0-13.009 5.836-13.009 13.009 0 5.381 3.285 10.009 7.954 11.986v223.933c-4.669 1.977-7.954 6.605-7.954 11.986 0 7.173 5.836 13.009 13.009 13.009 5.381 0 10.01-3.285 11.986-7.954h52.044c1.977 4.67 6.605 7.954 11.986 7.954 7.173 0 13.009-5.836 13.009-13.009 0-5.381-3.284-10.009-7.954-11.986v-91.658c.567-.24 1.105-.531 1.627-.846l80.989 97.521c-1.286 2.017-2.043 4.404-2.043 6.969 0 7.173 5.836 13.009 13.009 13.009 5.381 0 10.01-3.285 11.986-7.954h43.943c1.977 4.67 6.605 7.954 11.986 7.954 7.173 0 13.009-5.836 13.009-13.009.002-5.381-3.282-10.009-7.952-11.986zm-5.055-240.84c2.713 0 4.921 2.208 4.921 4.921s-2.208 4.921-4.921 4.921-4.921-2.208-4.921-4.921c.001-2.713 2.208-4.921 4.921-4.921zm-76.002 0c2.713 0 4.921 2.208 4.921 4.921s-2.208 4.921-4.921 4.921-4.921-2.208-4.921-4.921 2.208-4.921 4.921-4.921zm0 115.861c2.713 0 4.921 2.208 4.921 4.921s-2.208 4.921-4.921 4.921-4.921-2.208-4.921-4.921c0-2.714 2.208-4.921 4.921-4.921zm-95.47-115.861c2.713 0 4.921 2.208 4.921 4.921s-2.208 4.921-4.921 4.921-4.921-2.208-4.921-4.921 2.208-4.921 4.921-4.921zm-71.096 0c2.713 0 4.921 2.208 4.921 4.921s-2.208 4.921-4.921 4.921-4.921-2.208-4.921-4.921 2.208-4.921 4.921-4.921zm0 257.747c-2.713 0-4.921-2.208-4.921-4.921s2.208-4.921 4.921-4.921 4.921 2.208 4.921 4.921-2.208 4.921-4.921 4.921zm76.016 0c-2.713 0-4.921-2.208-4.921-4.921s2.208-4.921 4.921-4.921 4.921 2.208 4.921 4.921-2.208 4.921-4.921 4.921zm-4.92-120.551c0-2.713 2.208-4.921 4.921-4.921s4.921 2.208 4.921 4.921-2.208 4.921-4.921 4.921-4.921-2.208-4.921-4.921zm103.558 120.551c-2.713 0-4.921-2.208-4.921-4.921s2.208-4.921 4.921-4.921 4.921 2.208 4.921 4.921c-.001 2.713-2.208 4.921-4.921 4.921zm55.929-9.977h-43.943c-1.977-4.669-6.605-7.953-11.986-7.953-.897 0-1.773.091-2.619.265l-83.274-100.272c.173-.845.264-1.719.264-2.614 0-7.173-5.836-13.009-13.009-13.009s-13.009 5.836-13.009 13.009c0 5.381 3.285 10.009 7.954 11.986v91.658c-3.114 1.318-5.612 3.816-6.931 6.93h-52.045c-1.319-3.114-3.816-5.612-6.93-6.93v-223.933c3.114-1.319 5.612-3.817 6.931-6.931h47.124c1.977 4.669 6.605 7.954 11.986 7.954.372 0 .738-.025 1.102-.056l81.843 99.439c-.307 1.106-.484 2.266-.484 3.468 0 7.173 5.836 13.009 13.009 13.009s13.009-5.836 13.009-13.009c0-5.381-3.285-10.01-7.954-11.986v-91.888c3.115-1.318 5.613-3.817 6.931-6.931h52.031c1.318 3.114 3.817 5.613 6.931 6.931v223.933c-3.115 1.318-5.613 3.816-6.931 6.93zm11.985 9.977c-2.713 0-4.921-2.208-4.921-4.921s2.208-4.921 4.921-4.921 4.921 2.208 4.921 4.921-2.207 4.921-4.921 4.921z"
        fill="#e5e5e5" />
</svg>