<svg enable-background="new 0 0 500 500" viewBox="0 0 500 500" xmlns="http://www.w3.org/2000/svg">
    <g fill="#6f51a0">
        <path
            d="m303.2 397.2h-240.8c-9.8 0-17.8-7.9-17.8-17.8s7.9-17.8 17.8-17.8h240.8c86.2 0 156.3-70.1 156.3-156.3s-70.1-156.2-156.3-156.2h-96.2c-9.8 0-17.8-7.9-17.8-17.8s7.9-17.8 17.8-17.8h96.2c105.8 0 191.8 86.1 191.8 191.8s-86 191.9-191.8 191.9z" />
        <path
            d="m305.5 309.3h-135.2c-9.8 0-17.8-7.9-17.8-17.8s7.9-17.8 17.8-17.8h135.1c37.7 0 68.4-30.7 68.4-68.4s-30.7-68.4-68.4-68.4h-248.5c-9.8 0-17.8-7.9-17.8-17.8s7.9-17.8 17.8-17.8h248.6c57.3 0 104 46.6 104 104-.1 57.4-46.7 104-104 104z" />
        <path
            d="m179.1 222.6h-52.2c-9.8 0-17.8-7.9-17.8-17.8s7.9-17.8 17.8-17.8h52.2c9.8 0 17.8 7.9 17.8 17.8s-8 17.8-17.8 17.8z" />
        <path
            d="m135.8 482h-113.5c-9.8 0-17.8-7.9-17.8-17.8s7.9-17.8 17.8-17.8h113.5c9.8 0 17.8 7.9 17.8 17.8s-8 17.8-17.8 17.8z" />
    </g>
</svg>