<svg enable-background="new 0 0 500 500" viewBox="0 0 500 500" xmlns="http://www.w3.org/2000/svg">
    <path
        d="m400.7 25.8-104.4 154.8c-7.2 10.5 6.7 23.3 16.6 14.4l102.7-89.3c2.8-2.2 6.7-.6 6.7 3.3v279.1c0 3.9-5 5.5-7.2 2.8l-310.8-371.8c-10-12.2-24.4-18.8-40.5-18.8h-11.1c-28.8 0-52.7 23.8-52.7 53.3v392.9c0 29.4 23.9 53.3 53.3 53.3 18.3 0 35.5-9.4 45.5-25.5l104.3-154.8c7.2-10.5-6.7-23.3-16.6-14.4l-102.7 88.6c-2.8 2.2-6.7.6-6.7-3.3v-278.6c0-3.9 5-5.5 7.2-2.8l310.8 371.8c10 12.2 25 18.9 40.5 18.9h11.1c29.4 0 53.3-23.9 53.3-53.3v-392.8c0-29.4-23.9-53.3-53.3-53.3-18.8 0-36 9.4-46 25.5z" />
</svg>