<svg enable-background="new 957 -1000 2413 2500" viewBox="957 -1000 2413 2500"
    xmlns="http://www.w3.org/2000/svg">
    <path
        d="m1546.511-36.921v-47.226l-488.46-264.367c-32.046 51.601-49.075 111.112-49.176 171.854v429.389l1.197.658z"
        fill="#3377b5" />
    <path d="m1010.083 253.398 536.428 290.307v-580.614z" fill="#4f6cb0" />
    <path
        d="m3272.108-342.963-478.207 258.816v47.226l524.224 283.715v-423.454c0-59.215-16.404-116.204-46.005-166.314"
        fill="#504ca1" />
    <path
        d="m1546.511 566.774v-23.057l-536.44-290.307-1.197.658v422.581c0 63.415 18.785 124.317 52.491 176.855l486.091-263.075z"
        fill="#3b9cc7" />
    <path d="m2744.558-115.196v-570.122l-526.7 285.055z" fill="#5465ad" />
    <path
        d="m2793.901-88.502v4.343l478.206-258.815c-31.696-53.639-78.527-99.31-137.143-131.065l-390.407-211.278v570.122"
        fill="#513d9a" />
    <path d="m2169.913 825.614 523.446-283.296v-5.623l-523.446-283.296z" fill="#214688" />
    <path d="m1589.131 614.73v574.19l6.306 3.41 530.481-287.089z" fill="#4395c4" />
    <path
        d="m1547.529 592.2-.06-1.771-486.091 263.063c31.468 49.057 75.918 90.934 130.634 120.512l397.167 214.916v-574.19z"
        fill="#54a4cb" />
    <path
        d="m2173.562-424.217 44.271 23.93 526.688-285.067-397.921-215.37c-54.276-29.178-114.773-44.879-176.388-45.778v524.068z"
        fill="#7f6fb3" />
    <path
        d="m2125.918-398.444 44.271-23.93v-524.128c-57.34-1.061-114.199 10.644-166.457 34.268l-413.583 223.842z"
        fill="#5054a4" />
    <path d="m1590.148-688.393-1.029.538v579.921l536.787-290.511z" fill="#50479e" />
    <path
        d="m1546.511-84.709 22.734-12.491 19.814-10.769v-579.873l-419.434 227.048c-45.208 28.506-83.358 66.901-111.574 112.292l488.46 264.355z"
        fill="#5057a6" />
    <path
        d="m2173.562 931.026-3.35-1.807v517.284c61.63-.913 122.137-16.626 176.424-45.814l391.639-211.948-520.419-281.645z"
        fill="#2c7ab6" />
    <path
        d="m2125.918 905.229-530.481 287.161 384.891 208.323c58.307 31.319 123.699 47.089 189.873 45.79v-517.296"
        fill="#4fa2ca" />
    <path d="m2217.857 907.048 520.419 281.645 6.282-3.41v-563.278z" fill="#4d8dc0" />
    <path
        d="m2793.901 595.287-49.332 26.706v563.289l390.395-211.29c56.738-30.702 102.54-74.446 134.188-125.848l-475.251-257.248"
        fill="#4488be" />
    <path
        d="m2793.901 590.932 475.251 257.248c31.921-51.531 48.877-110.926 48.973-171.543v-416.634l-524.224 283.715"
        fill="#6687be" />
    <path d="m2793.901 543.718 524.224-283.715v-13.209l-524.224-283.727z" fill="#415ca8" />
    <path d="m2693.347 536.694v-566.58l-523.446 283.284z" fill="#5d62ac" />
</svg>