<svg enable-background="new 0 0 500 500" viewBox="0 0 500 500" xmlns="http://www.w3.org/2000/svg">
    <g fill="#6642fa">
        <path
            d="m93.9 309.8c-9.2-10.5-9.2-27.4 0-37.9l93.1-106-37-42.3c-9.2-10.5-24.1-10.5-33.3 0l-107.2 122c-9.2 10.5-9.2 27.4 0 37.9l113.1 128.8c9.2 10.5 24.1 10.5 33.3 0l14-16c.1.1-76-86.5-76-86.5z" />
        <path
            d="m284.7 470.3-180.8-206c-9.2-10.5-9.2-27.4 0-37.9l172-196c9.2-10.5 24.1-10.5 33.3 0l180.8 205.9c9.2 10.5 9.2 27.4 0 37.9l-171.8 196.1c-9.3 10.5-24.3 10.5-33.5 0z" />
    </g>
</svg>