<svg enable-background="new 0 0 500 500" viewBox="0 0 500 500" xmlns="http://www.w3.org/2000/svg">
    <circle cx="250.5" cy="250.3" fill="#0b69ff" r="245.8" />
    <g fill="#0048d8">
        <path
            d="m320.3 198.8h-85c-6.2 0-11-5.6-9.9-11.7l5.8-34.4c1.9-11.1 11.5-19.2 22.7-19.2h79.3c6.8 0 12 6 11.1 12.7l-5 36c-1.2 9.5-9.3 16.6-19 16.6z" />
        <path
            d="m319.7 380.1h-108.7c-6.2 0-11-5.6-9.9-11.7l5.8-34.4c1.9-11.1 11.5-19.2 22.7-19.2h103.1c6.8 0 12 6 11.1 12.7l-5 36c-1.3 9.5-9.4 16.6-19.1 16.6z" />
        <path
            d="m278.7 290.1h-145.4c-6.2 0-11-5.6-9.9-11.7l5.8-34.4c1.9-11.1 11.5-19.2 22.7-19.2h139.7c6.8 0 12 6 11.1 12.7l-5 36c-1.2 9.5-9.3 16.6-19 16.6z" />
    </g>
    <path
        d="m306.7 184.5h-85c-6.2 0-11-5.6-9.9-11.7l5.8-34.4c1.9-11.1 11.5-19.2 22.7-19.2h79.3c6.8 0 12 6 11.1 12.7l-5 36c-1.2 9.5-9.4 16.6-19 16.6z"
        fill="#fff" />
    <path
        d="m306.1 365.9h-108.8c-6.2 0-11-5.6-9.9-11.7l5.8-34.4c1.9-11.1 11.5-19.2 22.7-19.2h103.1c6.8 0 12 6 11.1 12.7l-5 36c-1.2 9.5-9.4 16.6-19 16.6z"
        fill="#fff" />
    <path
        d="m265.1 275.8h-145.4c-6.2 0-11-5.6-9.9-11.7l5.8-34.4c1.9-11.1 11.5-19.2 22.7-19.2h139.7c6.8 0 12 6 11.1 12.7l-5 36c-1.2 9.5-9.4 16.6-19 16.6z"
        fill="#fff" />
</svg>