<svg enable-background="new 0 0 500 500" viewBox="0 0 500 500" xmlns="http://www.w3.org/2000/svg">
    <path
        d="m500 250c0 138.1-111.9 250-250 250s-250-111.9-250-250 111.9-250 250-250 250 111.9 250 250"
        fill="#f8931f" />
    <path
        d="m368.3 218.6-8-27-37.9 9.1-18.1-60.8-45 10.9 34.3 115.1-.7.4-105.6-98.2-45.4 10.9 18.1 60.8-38.2 9.2 8 27 38.2-9.2 5.3 17.8-38.2 9.2 8 27 38.2-9.2 14.4 48.4 45.3-10.9-34.2-115.1.7-.4 105.6 98.2 45-10.9-14.4-48.4 37.9-9.1-8-27-37.9 9.1-5.3-17.8z"
        fill="#fff" />
</svg>