<svg enable-background="new 0 0 500 500" viewBox="0 0 500 500" xmlns="http://www.w3.org/2000/svg">
    <g fill="#070001">
        <path
            d="m250 9.7c49.5 0 97.2 18.6 131.6 53 35.3 34.5 54.8 79.5 54.8 128.1v299.5h-372.8v-299.5c0-48.6 19.4-93.6 54.8-128.1 34.4-34.4 81.2-53 131.6-53m0-9.7c-52.1 0-101.6 19.4-138.7 55.7s-57.4 83.9-57.4 135.2v309.1h392.2v-309.2c0-51.2-20.3-98.9-57.4-134.3-37.1-37.1-86.6-56.5-138.7-56.5z" />
        <path
            d="m365.4 80.5-8.8-8.8c-29.2-25.6-66.3-38.9-106-38.9-43.3 0-84.8 16.8-114.8 47.7-31 30.9-47.8 71.6-47.8 114.9v270.3h325.1v-269.5c0-44.1-17.7-84.8-47.7-115.7zm-50.3 368.4c-15 5.3-31.8 8-48.6 8h-117.5v-53.9c-2.7-2.7-5.3-6.2-7.1-8.8-20.3-26.5-30.9-59.2-30.9-92.8v-101.6c0-39.8 15-76.9 41.5-106 3.5 0 8 0 12.4.9 27.4 2.7 64.5 12.4 96.3 34.5 28.3 19.4 62.7 54.8 62.7 112.2v204.9c-2.7.8-5.3 1.7-8.8 2.6z" />
        <path
            d="m262 129.1c-31.8-21.2-68.9-31.8-96.3-34.5-4.4 0-8.8-.9-12.4-.9-26.5 29.2-41.5 66.3-41.5 106v101.6c0 33.6 10.6 66.3 30.9 92.8 2.7 2.7 4.4 6.2 7.1 8.8v53.9h117.5c16.8 0 32.7-2.7 48.6-8 3.5-.9 6.2-1.8 9.7-3.5v-204.9c-.8-57.4-35.3-91.9-63.6-111.3zm-103.3 318v-34.5c15.9 15 34.5 27.4 54.8 34.5zm156.4-7.9c-15 5.3-31.8 8-48.6 8-38.9 0-75.1-15-103.4-43.3l-5.3-5.3c-3.5-3.5-7.1-8-9.7-12.4-18.6-24.7-28.3-54.8-28.3-85.7v-100.7c0-35.3 13.3-69.8 36.2-96.3 61.8 2.7 158.1 45.1 158.1 136.9v198.8z" />
        <path
            d="m212.9 329c-2.7 0-5.3-2.7-5.3-5.3v-90.1c0-23.9 19.4-43.3 43.3-43.3s43.3 19.4 43.3 43.3c0 2.7-2.7 5.3-5.3 5.3s-5.3-2.7-5.3-5.3c0-17.7-15-32.7-32.7-32.7s-32.7 15-32.7 32.7v90.1c0 2.6-2.7 5.3-5.3 5.3z" />
        <path
            d="m266.8 259.2c-2.7 0-5.3-2.7-5.3-5.3 0-6.2-4.4-10.6-10.6-10.6s-10.6 4.4-10.6 10.6c0 2.7-2.7 5.3-5.3 5.3s-5.3-2.7-5.3-5.3c0-12.4 9.7-22.1 22.1-22.1s22.1 9.7 22.1 22.1c-1.8 2.6-4.5 5.3-7.1 5.3z" />
        <path
            d="m212.9 329c-15.9 0-29.2-13.3-29.2-29.2 0-2.7 2.7-5.3 5.3-5.3s5.3 2.7 5.3 5.3c0 9.7 8 17.7 17.7 17.7s17.7-8 17.7-17.7c0-2.7 2.7-5.3 5.3-5.3s5.3 2.7 5.3 5.3c.8 15.9-11.5 29.2-27.4 29.2z" />
        <path
            d="m182 268c-1.8 0-2.7-.9-3.5-1.8l-23.9-23.9v20.3c0 2.7-2.7 5.3-5.3 5.3s-6.2-2.7-6.2-6.2v-32.7c0-2.7 1.8-4.4 3.5-5.3 2.7-.9 4.4-.9 6.2.9l23.9 23.9v-14.1c0-2.7 2.7-5.3 5.3-5.3s5.3 2.7 5.3 5.3v27.4c0 2.7-1.8 4.4-3.5 5.3-.1.9-1 .9-1.8.9z" />
        <path
            d="m212 239.8c-2.7 0-5.3-2.7-5.3-5.3 0-.9 0-23-15-23-2.7 0-5.3-2.7-5.3-5.3 0-2.7 2.7-5.3 5.3-5.3 20.3 0 25.6 22.1 25.6 33.6 0 2.6-2.7 5.3-5.3 5.3z" />
    </g>
</svg>