<svg enable-background="new 0 0 500 500" viewBox="0 0 500 500" xmlns="http://www.w3.org/2000/svg">
    <g fill="#66d5bb">
        <path d="m108.7 320.8-37.4 61.7h69.2c-15.2-17.4-26.2-38.5-31.8-61.7z" />
        <path d="m359.4 382.5h69.2l-37.4-61.7c-5.6 23.2-16.6 44.3-31.8 61.7z" />
        <path
            d="m249.9 141.5c12.1 0 23.8 1.5 35.1 4.3l-35.1-57.8-35.1 57.8c11.3-2.8 23-4.3 35.1-4.3z" />
    </g>
    <path
        d="m104.8 288.8c0-.6 0-1.3 0-1.9 0-56.9 32.6-106.1 80-130l42.9-70.8c-100.8 11.2-179.4 96.8-179.4 200.9 0 25.6 4.8 50.2 13.5 72.7z"
        fill="#08192e" />
    <path
        d="m315.1 157c47.4 23.9 80 73.1 80 130v1.9l43 70.9c8.7-22.5 13.5-47.1 13.5-72.7 0-104.1-78.6-189.7-179.5-200.8z"
        fill="#08192e" />
    <path
        d="m341.4 400c-25 20.3-56.8 32.5-91.5 32.5s-66.5-12.2-91.5-32.5h-75.7c36.2 53.7 97.6 89 167.2 89s131-35.3 167.2-89z"
        fill="#08192e" />
    <path
        d="m227.8 86.2 22.2-36.6 22.2 36.6c9 1 17.9 2.6 26.5 4.8l-48.7-80.3-48.8 80.3c8.7-2.2 17.5-3.8 26.6-4.8z"
        fill="#66d5bb" />
    <path
        d="m399.3 422.7h100.7l-53.9-88.8c-2.1 8.8-4.8 17.5-8 25.8l24.4 40.2h-45.3c-5.4 8.1-11.4 15.6-17.9 22.8z"
        fill="#66d5bb" />
    <path
        d="m82.7 400h-45.3l24.4-40.2c-3.2-8.3-5.9-17-8-25.8l-53.9 88.8h100.7c-6.5-7.3-12.5-14.8-17.9-22.8z"
        fill="#66d5bb" />
</svg>