<svg enable-background="new 0 0 500 500" viewBox="0 0 500 500" xmlns="http://www.w3.org/2000/svg">
    <linearGradient gradientUnits="userSpaceOnUse" id="a" x1="250.9725" x2="250.9725" y1="495.9781"
        y2="2.724">
        <stop offset="0" stop-color="#25346e" />
        <stop offset="1" stop-color="#6073b4" />
    </linearGradient>
    <circle cx="251" cy="249.4" fill="url(#a)" r="246.6" />
    <g fill="#fff">
        <path d="m130.5 172.4c51.6-49.4 126.9-34.5 162.8 22.5-47.3 45.2-127.4 40-162.8-22.5z" />
        <path d="m199.1 257.4c50.7 60.7 31.1 131.7-22 163.1-42-39-46.1-116.8 22-163.1z" />
        <path d="m243.1 311c2.9-70.2 66.9-117.3 130.9-98.6-.2 68.9-65 115.1-130.9 98.6z" />
        <path d="m273.6 68.5c43.7 14.6 64.6 67 37.2 109.3-48.1-17.7-62.9-72.4-37.2-109.3z" />
        <path d="m181.8 240.5c-19.8 50.6-75.1 62.1-109.1 36.9 16-44.7 66.6-62.7 109.1-36.9z" />
        <path d="m242.6 336.1c46.2-21.7 96.3 6.8 103.4 50.2-34.3 18.8-87.6 5.3-103.4-50.2z" />
        <path d="m183.3 78.8c38.8-6.7 64.5 26.5 61.6 55-29.9 6.9-63.7-16.9-61.6-55z" />
        <path
            d="m83.6 368.6c-4.9-13.7-.5-26.1 6.1-37.8 8.9-15.8 30.4-26.3 47.7-24.2 7.9 30.6-14.4 56.8-53.8 62z" />
        <path d="m402.7 316.1c-22.5 28.1-59.9 29.8-82.1 4.1 20-28.3 61.4-30.5 82.1-4.1z" />
    </g>
</svg>