<svg enable-background="new 0 0 500 500" viewBox="0 0 500 500" xmlns="http://www.w3.org/2000/svg">
    <path
        d="m496.5 496.5c-164.3 0-328.6 0-492.9 0 0-164.3 0-328.6 0-492.9h492.9zm-32.5-246.6c0-26.3-.1-52.6.1-78.8.1-8.8-2.9-15.1-10.2-20.3-39.9-28.9-79.6-58.1-119.4-87.1-24.5-18-49.1-35.9-73.6-53.9-4.6-3.4-9.6-4.9-15-3.6-3.3.8-6.4 2.6-9.2 4.6-35.2 25.6-70.3 51.3-105.5 77-29 21.2-57.9 42.5-87 63.6-6 4.3-9.2 9.7-9.4 17v4.3 154.6c0 1.8 0 3.7.1 5.5.4 6.3 3.2 11.2 8.4 15 64.7 47.2 129.4 94.4 193.9 141.8 7.8 5.7 17.7 5.1 24.9-.2 63.5-46.7 127.1-93.2 190.9-139.5 7.8-5.6 11.2-12.2 11.1-21.8-.3-26-.1-52.1-.1-78.2z"
        fill="#fff" />
    <path
        d="m464 249.9c0 26.1-.2 52.2.1 78.2.1 9.5-3.3 16.1-11.1 21.8-63.8 46.3-127.4 92.8-190.9 139.5-7.2 5.3-17.2 5.9-24.9.2-64.5-47.3-129.2-94.5-193.9-141.7-5.2-3.8-8-8.7-8.4-15-.1-1.8-.1-3.7-.1-5.5 0-51.5 0-103.1 0-154.6 0-1.4 0-2.9 0-4.3.2-7.3 3.4-12.7 9.4-17 29.1-21.1 58-42.4 87-63.6 35.1-25.7 70.3-51.4 105.5-77 2.8-2 5.9-3.9 9.2-4.6 5.4-1.3 10.4.2 15 3.6 24.5 18 49 35.9 73.6 53.8 39.8 29.1 79.5 58.3 119.4 87.1 7.2 5.2 10.3 11.6 10.2 20.3-.3 26.3-.1 52.5-.1 78.8zm-191.4-159.6v56.5h9.9c0-12.2 0-23.9 0-35.6 2 1.3 3.1 2.7 4 4.2 5.3 8.3 10.6 16.6 15.9 24.9 1.2 1.8 2.2 4.1 5 2.9 1.6-9.2 1.3-10.9-3.2-18.1-5.5-8.7-11-17.3-16.5-26-2-3.1-4-6.1-5.8-8.9-3.3.1-6.1.1-9.3.1zm-53.4 210.3c.6-.3 1.1-.6 1.7-.9.4-4.8 1.7-9.7-1-14.2-8-12.9-16.2-25.6-24.6-38.8-1.8 0-3.7-.1-5.5 0-1.2.1-2.4.3-3.9.5v56.2h10.1c0-12.2 0-23.8 0-35.4 2.2 1.5 3.5 3.2 4.7 5 4.9 7.6 9.6 15.3 14.5 22.9 1 1.8 2.6 3.2 4 4.7zm195.8-9.8c-12.2 7.8-23.9 15.2-35.6 22.6v9.9h56.1c0-3.4 0-6.4 0-9.9-12.2-.4-24.1.1-35.9-.8 3.9-3.1 7.9-5.6 11.8-8.2 3.8-2.5 8.1-4.4 11.4-8.2-2.6-1.8-4.9-3.4-7.8-5.4zm-265.5 72.3v9.4c7.6 1.2 52.3.9 56.5-.3 0-2.9 0-5.9 0-9.5-12.3 0-24 0-35.7 0-.1-.4-.2-.8-.3-1.1 7.8-5 15.5-10 24-15.4-3.5-2.3-6.1-4.1-8.8-5.8-12.2 7.7-24.1 15.3-35.7 22.7zm94.4-38.2h56.6c0-3.4 0-6.3 0-9.9-12.2 0-23.9 0-35.7 0-.1-.4-.2-.8-.3-1.1 7.8-5 15.6-10.1 24.1-15.6-3.4-2.3-6-4-8.7-5.8-12.3 7.8-24.2 15.4-36 22.9zm167.8-89.4c-2.4 1.8-4.3 3.1-5.2 3.8v13.4h8.8c.3-2.6.6-4.8.9-7.1h22.5v41.8h9.6c0-16 0-31.5 0-47.5-1.4-1.5-2.9-3.1-4-4.4-11.6 0-22.3 0-32.6 0zm-343.9 57.9c0-3.3 0-6 0-9-4.6 0-8.6 0-12.7 0-1.6 1.7-3.2 3.3-4.4 4.6v33.4c1.2 1.3 2.8 2.9 3.6 3.8h43.2c0-3.3 0-6.2 0-9.7-12.6 0-24.6 0-36.9 0 0-7.7 0-14.8 0-22.1 2.4-.4 4.6-.7 7.2-1zm226.8-84.8v33.2c1.5 1.7 2.9 3.2 4.1 4.4h42.7c0-3.3 0-6.2 0-9.7-12.6 0-24.6 0-37 0-.2-7.8-.3-15 0-22.1 3-.4 5.1-.8 7.3-1.1 0-3.2 0-5.9 0-9-4.5 0-8.5 0-12.9 0-1.4 1.4-2.8 2.8-4.2 4.3zm-84.9-49.7v12.8c1.5 1.4 3.1 2.9 4.4 4.2h33.1c1.7-1.5 3.4-2.9 4.7-4.1-.2-14.7.4-28.5-.4-42.5-3.4 0-6.1 0-9.5 0v36.6c-7.9 0-15.1 0-22.4 0-.4-2.6-.7-4.7-1-7-3 0-5.8 0-8.9 0zm-44.1 105.1c-4.1-14.2-7.9-27.5-11.6-40.6-6.8 0-12.6 0-19 0-3.9 13.5-7.7 26.7-11.6 40.6h9.7c3-10.4 5.9-20.8 8.9-31.4 2.1.2 3.6.4 5.2.6 1.5 5.4 3 10.6 4.4 15.7s2.9 10.2 4.3 15.2c3.4-.1 6-.1 9.7-.1zm90.6-1.6h12.8c1.4-1.5 3-3.1 4.3-4.5 0-11.3 0-22.2 0-33.1-1.5-1.6-2.9-3.1-3.9-4.1-12.8-1.1-38.5-.7-42.7.6v9h36.6v22c-2.6.4-4.7.7-7.1 1.1zm5 161.1c0-11.8 0-22.8 0-33.4-1.6-2-2.9-3.6-3.7-4.5-14.1-1.1-38.8-.7-43.2.7v8.7h37v22.2c-2.6.4-5 .7-7.1 1v9h12.9c1.4-1.3 2.9-2.7 4.1-3.7zm118.8-236.5c-3.9-13.8-7.7-27.1-11.5-40.2-6.8 0-12.8 0-19.2 0-3.8 13.5-7.6 26.7-11.4 40.2h9.6c2.9-10.4 5.8-20.5 8.7-30.9 2 .1 3.5.2 5.4.2 3 10.4 5.9 20.5 8.7 30.6 3.5.1 6.3.1 9.7.1zm-86.8 153.9c-3.9 13.7-8.1 26.8-11.4 40.8 2.3 0 3.8.1 5.2 0s2.8-.3 4.4-.5c2.9-10.4 5.8-20.6 8.7-30.9h5.2c3 10.5 6 20.9 8.9 31h9.6c-4-13.8-7.8-27.1-11.6-40.4-6.5 0-12.4 0-19 0zm-192.2-152.8c-9.3-1.3-45.9-.9-50 .4v9.4h29.1c.1.3.2.7.4 1-3.3 2.2-6.5 4.5-10.3 7.1 3 2.3 5.5 4.2 8.1 6.1 8-5.1 15.5-9.9 22.7-14.5 0-3.6 0-6.4 0-9.5zm136-138.6h23v26h9.3c0-10.7 0-21.1 0-31.6-1.4-1.6-2.8-3.3-3.7-4.5-12 0-22.8 0-33.9 0-1.6 1.5-3.2 3-4.1 3.8v13.1h8.9c.2-2.4.3-4.4.5-6.8zm114.9 277.3c0-10.9 0-21.3 0-31.8-1.5-1.5-3-2.9-4.4-4.2-11.2 0-22.3 0-33.6 0-1.5 1.4-2.9 2.8-4 3.8v13.1h9.1c.4-2.7.6-4.9 1-7.2h22.3v26.3zm-27.5 65.7c-12.1 7.7-24.2 15.4-35.9 22.8v9.6h30.2c0-3.4 0-6.4 0-9.5-3.5-.2-6.6-.4-11-.7 9-5.8 16.8-10.9 25.2-16.3-3.2-2.2-5.7-3.9-8.5-5.9zm-192.8-267.8c3.2 2.4 5.7 4.2 8.3 6.2 10.9-6.9 21.6-13.6 31.9-20.1 0-3.5 0-6.3 0-9.4-10 0-19.7 0-29.4 0v9.4c3.2.3 5.8.5 9.7.9-7.4 4.6-13.5 8.5-20.5 13zm228.9 269c1.6-2.1 2.7-3.5 3.7-5 2.9-4.4 5.5-9.2 8.8-13.3 5.1-6.3 3.7-13.1 2.4-20.2-4.8 7.2-9.6 14.5-14.7 22.2-5.2-8-10-15.2-14.8-22.5-.5.1-.9.3-1.4.4.2 5-1 10.7 1 14.8 3.9 8.2 9.6 15.4 15 23.6zm-165.6-238.2c4.4-6.7 8-12.9 12.3-18.5 5.1-6.5 3.8-13.5 3.4-22-5.6 8.5-10.5 15.9-15.7 23.9-5.4-8.1-10.3-15.4-15.2-22.8-.5.2-.9.4-1.4.6.4 5-.7 10.8 1.4 15 4.1 8.2 9.8 15.6 15.2 23.8zm-60.3 175.7c-5.3-7.9-10.2-15.2-15.1-22.6-.3.2-.6.3-.8.5v14.6c5.2 7.9 10.4 15.7 15.9 24.1 5.6-8.6 10.8-16.5 15.6-23.7 0-5.5 0-10.2 0-16.4-5.6 8.4-10.4 15.7-15.6 23.5zm-13.4-135.6c8.8 5.8 16.8 11 23.9 15.7h16.3c-8.4-5.6-15.8-10.5-23.7-15.7 8-5.3 15.3-10.1 23.7-15.7-9.2-.6-16.7-1.3-23.4 4.4-4.8 4.2-10.6 7.2-16.8 11.3zm74 11.4c9.9 1.2 39.1.8 43.2-.5 0-3 0-5.9 0-8.7-10-1.1-38.9-.7-43.2.6zm-73.6-55.4c-15 .3-29.3-.5-43.7.5v9.6h43.7c0-3.3 0-6.1 0-10.1zm254.2 66.8h43c0-3.4 0-6.5 0-9.7-14.6 0-28.6 0-43 0zm-.7-102.2c-16.2 0-31.7 0-47.6 0v9c9.8 1.2 43.2.8 47.6-.6 0-2.5 0-5.1 0-8.4zm-210.8 296.9c9.5 1.1 35.6.8 40-.5 0-2.8 0-5.6 0-9-13.4-.4-26.6-.4-40-.1zm47.4-312.3c0-14.7 0-29 0-43.5-3.3 0-6.3 0-9.5 0v43.5zm-94.8 189.8h43c0-3.4 0-6.3 0-9.5-14.5 0-28.5 0-43 0zm106.5 42.4c0 12.8-.5 25.1.3 37.3h9.6c0-12.7 0-24.8 0-37.3-3.2 0-6 0-9.9 0zm151.7-30.9c0-11.8 0-23.1 0-34.6-3.4 0-6.4 0-9.6 0v34.6zm22.5-131.6h9.7c0-10.8 0-20.9 0-31.5-3.3 0-6.3 0-9.7 0zm-300 66v31.4h9.7c0-10.7 0-20.8 0-31.4-3.4 0-6.3 0-9.7 0zm185-37c0-10.9 0-21.1 0-31.6-3.2 0-6 0-9.1 0v31.6zm72 66.7c-10.6 0-20.5 0-30.6 0v9.4h30.5c.2-1.6.4-2.8.4-4-.1-1.7-.2-3.3-.3-5.4zm-36.8-192.7c-6.4-1.2-22.4-1.1-27 .2v9.5c9.2.1 18 .2 27-.1 0-3.8 0-6.7 0-9.6zm-211.5 290.2v9.5h25.8c0-3.3 0-6.3 0-9.5-8.8 0-17.2 0-25.8 0zm147.5 108.8c1.4-7.1 1.1-18.4-.3-22.4-3 0-5.9 0-8.8 0v22.4zm-23.3-218.3c-1.3 7.9-1 20.5.7 25 2.7-.1 5.7-.3 8.4-.4 0-8.6 0-16.4 0-24.5-3.2-.1-5.9-.1-9.1-.1zm-58.4-23.8c8.3-.2 16.2.4 24.2-.4 0-3.4 0-6.2 0-9.3-8.2 0-16.1 0-24.2 0zm28.1 198.7c4.2 7.4 8 14.1 11.6 20.4h10.9c-4-7.4-7.6-13.9-11.2-20.4-3.5 0-6.8 0-11.3 0zm45.3-350.7c-3.8 0-7.1 0-11.3 0 4.2 7.4 7.9 13.9 11.7 20.5 3.6-.2 6.6-.4 10.7-.6-4.1-7.5-7.7-13.9-11.1-19.9zm25.8 284.7c-3.3-7.6-7.3-13.9-10.9-20.1-3.8 0-7 0-11.2 0 4.1 7.3 7.8 13.8 11.4 20.1zm150.1-203.7c4.3 7.6 8 14 11.5 20.2h11c-4.2-7.4-7.8-13.9-11.3-20.2-3.7 0-6.7 0-11.2 0zm-255.9 16.1h9.1c0-7.9 0-15.3 0-22.7-3.3 0-6 0-9.1 0zm126.1 89.9v9.7h9.1c0-3.5 0-6.6 0-9.7-3.3 0-6.1 0-9.1 0zm-162.6-113.3v9.7h9.3c0-3.4 0-6.4 0-9.7-3.2 0-6 0-9.3 0zm144.7 122.2v9.5h8.8c0-3.5 0-6.4 0-9.5-3.2 0-5.9 0-8.8 0zm-97.1 53.1h9.6c0-3.4 0-6.3 0-9.3-3.5 0-6.4 0-9.6 0zm175.4-109c0-3.6 0-6.5 0-9.7-3.4 0-6.3 0-9.4 0v9.7zm45.8-32v9.7h9.9c-.2-3.6-.3-6.6-.4-9.7-3.6 0-6.3 0-9.5 0zm-84.7-88.1v9.2h9.5c0-3.2 0-6 0-9.2-3.3 0-6.2 0-9.5 0zm-247.6 156.1h9.5c0-3.3 0-6 0-9-3.4 0-6.3 0-9.5 0zm162.9-149.4v9.4h9.1c0-3.4 0-6.3 0-9.4-3.3 0-6 0-9.1 0zm30 92.7c-3.3 0-6.2 0-9.5 0v9.1h9.5c0-3.3 0-6.1 0-9.1zm131 158.8h9.4c0-3.4 0-6.3 0-9.7-3.5.2-6.4.3-9.4.4zm-81.6-176h9.3c0-3.3 0-6.3 0-9.3-3.3 0-6.3 0-9.3 0zm-162.1 208.7v9.5h9.4c0-3.4 0-6.3 0-9.5-3.2 0-6 0-9.4 0zm122 50.8v9.2h9.1c0-3.3 0-6.1 0-9.2-3 0-5.8 0-9.1 0z" />
    <g fill="#fff">
        <path
            d="m272.6 90.3h9.3c1.8 2.8 3.8 5.8 5.8 8.9 5.5 8.6 11 17.3 16.5 26 4.5 7.1 4.8 8.8 3.2 18.1-2.9 1.1-3.9-1.1-5-2.9-5.3-8.3-10.6-16.6-15.9-24.9-1-1.5-2-2.9-4-4.2v35.6c-3.6 0-6.5 0-9.9 0 0-18.7 0-37.2 0-56.6z" />
        <path
            d="m219.2 300.6c-1.4-1.5-3-2.9-4.1-4.6-4.9-7.6-9.7-15.2-14.5-22.9-1.2-1.8-2.5-3.6-4.7-5v35.4c-3.6 0-6.7 0-10.1 0 0-18.8 0-37.4 0-56.2 1.5-.2 2.7-.5 3.9-.5 1.8-.1 3.6 0 5.5 0 8.4 13.2 16.6 25.9 24.6 38.8 2.8 4.5 1.4 9.4 1 14.2-.5.2-1.1.5-1.6.8z" />
        <path
            d="m415 290.8c2.8 2 5.1 3.6 7.8 5.5-3.3 3.9-7.6 5.7-11.4 8.2-3.9 2.6-7.9 5.1-11.8 8.2 11.9.9 23.7.4 35.9.8v9.9c-18.6 0-37.2 0-56.1 0 0-3.2 0-6.4 0-9.9 11.7-7.5 23.4-14.9 35.6-22.7z" />
        <path
            d="m149.5 363.1c11.6-7.4 23.5-15 35.8-22.8 2.7 1.8 5.3 3.5 8.8 5.8-8.5 5.4-16.2 10.4-24 15.4.1.4.2.8.3 1.1h35.7v9.5c-4.2 1.2-48.9 1.6-56.5.3-.1-2.8-.1-5.8-.1-9.3z" />
        <path
            d="m243.9 324.9c0-3.4 0-6.2 0-9.5 11.8-7.5 23.7-15.1 36-22.9 2.7 1.8 5.3 3.6 8.7 5.8-8.5 5.5-16.3 10.5-24.1 15.6.1.4.2.8.3 1.1h35.7v9.9c-18.8 0-37.4 0-56.6 0z" />
        <path
            d="m411.7 235.5h32.5c1.2 1.3 2.7 2.9 4 4.4v47.5c-3.2 0-6.1 0-9.6 0 0-14 0-27.7 0-41.8-7.7 0-15 0-22.5 0-.3 2.3-.5 4.5-.9 7.1-2.9 0-5.7 0-8.8 0 0-4.1 0-8.1 0-13.4 1-.7 2.8-2 5.3-3.8z" />
        <path
            d="m67.8 293.4c-2.6.3-4.8.6-7.2.9v22.1h36.9v9.7c-14.1 0-28 0-43.2 0-.9-.9-2.4-2.5-3.6-3.8 0-11.5 0-22.1 0-33.4 1.2-1.3 2.8-2.9 4.4-4.6h12.7z" />
        <path
            d="m294.6 208.6c1.4-1.4 2.9-2.9 4.2-4.2h12.9v9c-2.2.3-4.3.6-7.3 1.1-.3 7.1-.2 14.3 0 22.1h37v9.7c-14.2 0-28.2 0-42.7 0-1.2-1.3-2.5-2.8-4.1-4.4 0-10.8 0-21.7 0-33.3z" />
        <path
            d="m209.7 158.9h9c.3 2.3.6 4.4 1 7h22.4c0-12.2 0-24.2 0-36.6h9.5c.8 13.9.2 27.8.4 42.5-1.3 1.2-3 2.6-4.7 4.1-10.9 0-21.8 0-33.1 0-1.4-1.3-3-2.8-4.4-4.2-.1-4.4-.1-8.4-.1-12.8z" />
        <path
            d="m165.6 264c-3.7 0-6.4 0-9.7 0-1.4-5-2.9-10.1-4.3-15.2-1.5-5.1-2.9-10.2-4.4-15.7-1.6-.2-3.2-.3-5.2-.6-3 10.6-5.9 20.9-8.9 31.4-3.2 0-6 0-9.7 0 4-13.8 7.8-27.1 11.6-40.6h19c3.8 13.2 7.6 26.5 11.6 40.7z" />
        <path
            d="m256.2 262.4c0-3.4 0-6.1 0-9 2.4-.4 4.5-.7 7.1-1.1 0-7.1 0-14.2 0-22-12.1 0-24.1 0-36.6 0 0-3.4 0-6.2 0-9 4.2-1.2 29.9-1.7 42.7-.6 1 1.1 2.4 2.6 3.9 4.1v33.1c-1.3 1.3-2.8 3-4.3 4.5-4.3 0-8.4 0-12.8 0z" />
        <path
            d="m261.2 423.5c-1.1 1-2.6 2.4-4.1 3.7-4.3 0-8.3 0-12.9 0 0-3 0-5.7 0-9 2.1-.3 4.4-.6 7.1-1 0-7.2 0-14.3 0-22.2-12.4 0-24.5 0-37 0 0-3.5 0-6.1 0-8.7 4.4-1.4 29.1-1.9 43.2-.7.8 1 2.1 2.5 3.7 4.5z" />
        <path
            d="m380 187c-3.5 0-6.2 0-9.6 0-2.9-10-5.8-20.2-8.7-30.6-1.8-.1-3.4-.1-5.4-.2-2.9 10.4-5.8 20.5-8.7 30.9-3.1 0-5.9 0-9.6 0 3.8-13.5 7.6-26.8 11.4-40.2h19.2c3.7 13 7.5 26.3 11.4 40.1z" />
        <path
            d="m293.2 340.9h19c3.8 13.3 7.6 26.6 11.6 40.4-3.3 0-6 0-9.6 0-2.9-10.1-5.9-20.4-8.9-31-1.8 0-3.3 0-5.2 0-2.9 10.3-5.8 20.5-8.7 30.9-1.6.2-3 .4-4.4.5s-2.8 0-5.2 0c3.3-14 7.5-27.1 11.4-40.8z" />
        <path
            d="m101 188.1v9.5c-7.2 4.6-14.7 9.4-22.7 14.5-2.6-1.9-5.1-3.8-8.1-6.1 3.8-2.6 7-4.8 10.3-7.1-.1-.3-.2-.7-.4-1-9.6 0-19.1 0-29.1 0 0-3.5 0-6.4 0-9.4 4.1-1.3 40.7-1.7 50-.4z" />
        <path
            d="m237 49.5c-.2 2.4-.4 4.4-.6 6.9-2.8 0-5.6 0-8.9 0 0-4 0-7.9 0-13.1.9-.8 2.6-2.3 4.1-3.8h33.9c.9 1.1 2.4 2.8 3.7 4.5v31.6c-3.1 0-5.9 0-9.3 0 0-8.6 0-17.1 0-26-7.7-.1-15-.1-22.9-.1z" />
        <path
            d="m351.9 326.8c-3.5 0-6.3 0-9.7 0 0-8.9 0-17.4 0-26.3-7.7 0-14.8 0-22.3 0-.3 2.3-.6 4.5-1 7.2-2.9 0-5.8 0-9.1 0 0-4.2 0-8.3 0-13.1 1.1-1 2.5-2.4 4-3.8h33.6c1.4 1.3 2.9 2.8 4.4 4.2.1 10.5.1 20.9.1 31.8z" />
        <path
            d="m324.4 392.5c2.8 2 5.3 3.7 8.5 5.9-8.4 5.4-16.2 10.4-25.2 16.3 4.5.3 7.5.5 11 .7v9.5c-10 0-19.8 0-30.2 0 0-3 0-6 0-9.6 11.8-7.4 23.8-15 35.9-22.8z" />
        <path
            d="m131.6 124.7c7-4.4 13.1-8.4 20.5-13-3.9-.4-6.6-.6-9.7-.9 0-3 0-5.9 0-9.4h29.4v9.4c-10.3 6.5-20.9 13.2-31.9 20.1-2.7-2-5.1-3.8-8.3-6.2z" />
        <path
            d="m360.5 393.7c-5.3-8.2-11.1-15.5-15-23.6-2-4.1-.8-9.8-1-14.8.5-.1.9-.3 1.4-.4 4.8 7.3 9.6 14.5 14.8 22.5 5.1-7.7 9.9-14.9 14.7-22.2 1.3 7.1 2.7 14-2.4 20.2-3.4 4.1-5.9 8.9-8.8 13.3-1 1.6-2.2 2.9-3.7 5z" />
        <path
            d="m194.9 155.5c-5.4-8.3-11.1-15.6-15.1-23.8-2.1-4.2-1-9.9-1.4-15 .5-.2.9-.4 1.4-.6 4.9 7.4 9.8 14.7 15.2 22.8 5.2-8 10.1-15.4 15.7-23.9.4 8.4 1.7 15.5-3.4 22-4.4 5.6-8 11.9-12.4 18.5z" />
        <path
            d="m134.6 331.2c5.2-7.8 10-15.1 15.6-23.5v16.4c-4.8 7.3-9.9 15.1-15.6 23.7-5.5-8.4-10.7-16.2-15.9-24.1 0-4.8 0-9.7 0-14.6.3-.2.6-.3.8-.5 4.9 7.4 9.8 14.7 15.1 22.6z" />
        <path
            d="m121.2 195.6c6.2-4 12.1-7.1 16.9-11.2 6.7-5.8 14.2-5 23.4-4.4-8.4 5.5-15.7 10.3-23.7 15.7 7.9 5.2 15.2 10.1 23.7 15.7-5.9 0-10.6 0-16.3 0-7.3-4.8-15.2-10.1-24-15.8z" />
        <path
            d="m195.2 207c0-3.1 0-5.9 0-8.6 4.3-1.3 33.2-1.7 43.2-.6v8.7c-4.1 1.3-33.3 1.7-43.2.5z" />
        <path d="m121.6 151.6v10.1c-14.6 0-29 0-43.7 0 0-3.2 0-6 0-9.6 14.4-1 28.7-.2 43.7-.5z" />
        <path d="m375.8 218.4c0-3.4 0-6.4 0-9.7h43v9.7c-14.4 0-28.6 0-43 0z" />
        <path d="m375.1 116.2v8.4c-4.3 1.4-37.8 1.8-47.6.6 0-2.8 0-5.7 0-9z" />
        <path d="m164.3 413.1c0-3.2 0-5.9 0-9.6 13.3-.4 26.5-.4 40 .1v9c-4.4 1.3-30.4 1.6-40 .5z" />
        <path d="m211.7 100.8c-3.5 0-6.3 0-9.5 0 0-14.6 0-28.8 0-43.5h9.5z" />
        <path d="m116.9 290.6c0-3.3 0-6.2 0-9.5h43v9.5c-14.1 0-28.2 0-43 0z" />
        <path d="m223.4 333h10v37.3c-3 0-6 0-9.6 0-.9-12.3-.4-24.6-.4-37.3z" />
        <path d="m375.1 302.1c-3.2 0-6.2 0-9.6 0 0-11.6 0-22.9 0-34.6h9.6z" />
        <path d="m397.6 170.5c0-10.4 0-20.8 0-31.5h9.7v31.5c-3.1 0-6.2 0-9.7 0z" />
        <path d="m97.6 236.5h9.7v31.4c-3.1 0-6.2 0-9.7 0 0-10.4 0-20.6 0-31.4z" />
        <path d="m282.6 199.5c-3.3 0-6 0-9.1 0 0-10.7 0-21 0-31.6h9.1z" />
        <path
            d="m354.6 266.2c.1 2.1.3 3.8.3 5.4 0 1.2-.2 2.4-.4 4-10.1 0-20.1 0-30.5 0 0-3.1 0-6 0-9.4z" />
        <path d="m317.8 73.5v9.6c-8.9.3-17.8.2-27 .1 0-3.6 0-6.6 0-9.5 4.5-1.3 20.6-1.4 27-.2z" />
        <path d="m106.3 363.7h25.8v9.5c-8.6 0-16.9 0-25.8 0 0-2.9 0-5.8 0-9.5z" />
        <path d="m253.8 472.5c-3.1 0-5.9 0-9.2 0 0-7.5 0-14.7 0-22.4h8.8c1.5 4 1.7 15.4.4 22.4z" />
        <path d="m230.5 254.2h9.2v24.5c-2.8.1-5.7.3-8.4.4-1.8-4.3-2.1-16.9-.8-24.9z" />
        <path d="m172.1 230.4c0-3.4 0-6.4 0-9.7h24.2v9.3c-7.9.8-15.8.2-24.2.4z" />
        <path
            d="m200.2 429.1h11.4c3.6 6.5 7.1 13 11.2 20.4-4.2 0-7.2 0-10.9 0-3.7-6.3-7.5-13-11.7-20.4z" />
        <path
            d="m245.5 78.4c3.4 6.1 6.9 12.4 11.1 19.9-4 .2-7.1.4-10.7.6-3.8-6.6-7.5-13.1-11.7-20.5z" />
        <path
            d="m271.3 363.1c-4.1 0-7.1 0-10.6 0-3.6-6.3-7.3-12.8-11.4-20.1h11.2c3.5 6.2 7.5 12.5 10.8 20.1z" />
        <path
            d="m421.4 159.4h11.2c3.5 6.2 7.1 12.8 11.3 20.2-4.2 0-7.3 0-11 0-3.5-6.2-7.2-12.7-11.5-20.2z" />
        <path d="m165.5 175.5c0-7.9 0-15.1 0-22.7h9.1v22.7c-2.8 0-5.8 0-9.1 0z" />
        <path d="m291.6 265.4h9.1v9.7c-3 0-5.8 0-9.1 0 0-3.1 0-6.2 0-9.7z" />
        <path d="m129 152.1h9.3v9.7c-3.2 0-6.1 0-9.3 0 0-3.4 0-6.5 0-9.7z" />
        <path d="m273.7 274.3h8.8v9.5c-2.8 0-5.5 0-8.8 0 0-3 0-6.1 0-9.5z" />
        <path d="m176.6 327.4c0-3.3 0-6 0-9.3h9.6v9.3c-3.1 0-6 0-9.6 0z" />
        <path d="m352 218.4c-3.4 0-6.2 0-9.4 0 0-3.3 0-6.2 0-9.7h9.4z" />
        <path d="m397.8 186.4h9.4c.1 3.1.3 6.1.4 9.7-3.5 0-6.4 0-9.9 0 .1-3.3.1-6.3.1-9.7z" />
        <path d="m313.1 98.3h9.5v9.2c-3.1 0-6.1 0-9.5 0 0-2.9 0-5.7 0-9.2z" />
        <path d="m65.5 254.4c0-3 0-5.8 0-9h9.5v9c-2.9 0-5.9 0-9.5 0z" />
        <path d="m228.4 105h9.1v9.4c-2.8 0-5.7 0-9.1 0 0-2.9 0-5.8 0-9.4z" />
        <path d="m258.4 197.7v9.1c-3.1 0-6.1 0-9.5 0 0-3 0-5.9 0-9.1z" />
        <path d="m389.4 356.5c0-3.1 0-5.8 0-9.2 3-.1 6-.3 9.4-.4v9.7c-2.8-.1-5.7-.1-9.4-.1z" />
        <path d="m307.8 180.5c0-3.2 0-6 0-9.3h9.3v9.3c-3 0-5.7 0-9.3 0z" />
        <path d="m145.7 389.2h9.4v9.5c-3.1 0-6 0-9.4 0 0-3.1 0-6 0-9.5z" />
        <path d="m267.7 440h9.1v9.2c-2.9 0-5.8 0-9.1 0 0-2.9 0-5.8 0-9.2z" />
    </g>
</svg>