<svg enable-background="new 0 0 500 500" viewBox="0 0 500 500" xmlns="http://www.w3.org/2000/svg">
    <g clip-rule="evenodd" fill="#050505" fill-rule="evenodd">
        <path
            d="m458.3 178.5c-25.8-14.8-57.6-14.8-83.3 0l-125 71.5 125 71.5c25.8 14.8 57.6 14.8 83.3 0 25.8-14.8 41.7-42 41.7-71.5s-15.9-56.8-41.7-71.5z" />
        <path
            d="m41.7 178.5c-25.8 14.7-41.7 42-41.7 71.5s15.9 56.8 41.7 71.5c25.8 14.8 57.6 14.8 83.3 0l125-71.5-125-71.5c-25.8-14.8-57.6-14.8-83.3 0z" />
        <path
            d="m177.8 456.5c14.9 25.6 42.4 41.3 72.2 41.3s57.3-15.7 72.2-41.3 14.9-57 0-82.6l-72.2-123.9-72.2 123.9c-14.8 25.5-14.8 57 0 82.6z" />
        <path
            d="m322.2 43.5c-14.9-25.5-42.4-41.3-72.2-41.3s-57.3 15.7-72.2 41.3-14.9 57 0 82.6l72.2 123.9 72.2-123.9c14.9-25.5 14.9-57 0-82.6z" />
    </g>
</svg>