<svg enable-background="new 0 0 2000 2000" viewBox="0 0 2000 2000"
    xmlns="http://www.w3.org/2000/svg">
    <path
        d="m1254.595 1425.984c-131.161-103.859-259.282-205.31-388.489-307.622 0-9.207 0-18.834 0-32.648 213.69 168.841 425.035 335.829 640.61 506.159-167.678 132.562-332.878 263.165-499.544 394.927-187.174-147.982-373.465-295.265-559.763-442.554 0-350.414 0-699.821 0-1056.145 279.339 220.753 554.407 438.13 833.597 658.764 0-185.197 0-364.899 0-548.865-88.728-70.058-180.462-142.49-273.837-216.217-82.694 65.334-163.69 129.327-247.587 195.611 131.998 104.456 260.046 205.785 389.334 308.096v32.665c-213.699-168.828-425.078-335.822-641.23-506.588 166.983-132.123 331.961-262.661 499.268-395.041 188.231 148.689 375.336 296.488 560.612 442.843v1056.428c-278.582-220.141-553.743-437.579-833.454-658.613v548.874c88.827 70.068 179.821 141.846 272.872 215.246 81.83-64.548 163.097-128.653 247.611-195.32z" />
</svg>