<svg enable-background="new 0 0 500 500" viewBox="0 0 500 500" xmlns="http://www.w3.org/2000/svg">
    <path clip-rule="evenodd"
        d="m421.8 391.6c0 19.5-15.5 35.4-34.4 35.4-9.5 0-18.1-4-24.4-10.4-6.2-6.4-10.1-15.3-10.1-25v-70.8c0-83.8-57-154.3-133.3-172.5 7.4-25.1 23.8-46.4 45.1-59.8 15.7-9.9 34.1-15.5 53.7-15.5 57 0 103.3 47.6 103.3 106.2v212.4zm-103.4-389.4c-56.2 0-106.2 27.9-137.7 70.8h-.1c-15.6 21.4-26.6 46.5-31.5 73.8-79.9 15.2-140.6 87.5-140.6 174v70.8c0 10.8 1.5 21.1 4.4 30.9 12.9 43.6 52.4 75.3 98.9 75.3 57 0 103.3-47.6 103.3-106.2v-70.8c0-19.5-15.5-35.4-34.4-35.4-19 0-34.4 15.9-34.4 35.4v70.8c0 19.5-15.5 35.4-34.4 35.4-9.5 0-18.1-4-24.4-10.4-6.2-6.4-10.1-15.3-10.1-25v-70.8c0-46.2 28.8-85.5 68.9-100.1 10.8-3.9 22.4-6.1 34.4-6.1 12.1 0 23.7 2.2 34.4 6.1 40.1 14.6 68.9 54 68.9 100.1v70.8c0 10.8 1.5 21.1 4.4 30.9 12.9 43.6 52.4 75.3 98.9 75.3 57 0 103.3-47.6 103.3-106.2v-212.4c0-97.6-77.2-177-172.2-177z"
        fill="#2bd0f4" fill-rule="evenodd" />
</svg>