<svg enable-background="new 0 0 500 500" viewBox="0 0 500 500" xmlns="http://www.w3.org/2000/svg">
    <path
        d="m395.6 431.7-21.7-284.9-31.6 2.4 18.1 238-151.3-48c1.2-5.8 1.9-11.8 1.9-18 0-18.8-6.1-36.2-16.4-50.3l182.6-182.6-212.9-31.6c-7.3-29.3-33.7-51-65.3-51-37.2 0-67.3 30.2-67.3 67.3 0 33 23.8 60.4 55.1 66.2l5.6 103c-30.9 12.9-52.6 43.4-52.6 79 0 47.3 38.3 85.6 85.6 85.6 29.8 0 56-15.2 71.3-38.3zm-277.1-294.1c22.8-6.9 40.4-25.4 46-48.7l145.7 21.6-138.8 138.7c-13.3-8.5-29.1-13.5-46.1-13.5-.5 0-1 .1-1.5.1z"
        fill="#666472" />
    <circle cx="379.6" cy="406.9" fill="#f07748" r="88.4" />
    <circle cx="341.7" cy="102.7" fill="#f07748" r="78.5" />
    <circle cx="341.7" cy="102.7" fill="#666472" r="39.7" />
    <circle cx="127.2" cy="319.5" fill="#f07748" r="54.1" />
</svg>