<svg enable-background="new 1000 -1000 2500 2500" viewBox="1000 -1000 2500 2500"
    xmlns="http://www.w3.org/2000/svg">
    <path
        d="m2509.471 323.782h-158.907l-125.5-245.028-125.431 248.084-66.674 137.376-70.286 141.058h-155.156l421.367-845.095zm794.326-563.745-239.958 307.605 88.482 114.943 329.065-422.548zm-239.958 537.561 239.957 307.674h177.59l-329.065-422.687zm-1330.22-415.186c-78.543-80.477-186.91-124.83-299.339-122.514-87.548-1.507-173.161 25.827-243.639 77.787l103.067 104.178c42.31-25.636 91.121-38.514 140.572-37.088 75.066-1.967 147.476 27.844 199.397 82.093 52.052 53.58 81.198 125.321 81.259 200.023 1.779 75.206-27.662 147.792-81.329 200.509-2.709 2.848-5.556 5.626-8.404 8.404-110.122 105.42-284.839 101.658-390.322-8.404-52.058-53.57-81.183-125.324-81.19-200.022-.34-51.076 13.717-101.214 40.56-144.669l-103.621-104.179c-51.747 70.785-78.985 156.522-77.578 244.194-.049 3.448-.054 6.896-.017 10.344 2.478 230.131 191.044 414.681 421.176 412.204 118.208 0 218.219-37.157 299.409-122.236 79.024-79.857 122.879-187.969 121.819-300.312 2.752-112.658-41.362-221.407-121.82-300.312zm1089.637-118.624h-181.201l331.2 420.673-328.604 417.512-68.506-137.759h-155.295l70.286 141.058h150.92 4.237 176.964l239.958-307.813-87.038-112.999 87.038-112.999z"
        fill="#1b457d" />
</svg>