<svg enable-background="new 0 0 500 500" viewBox="0 0 500 500" xmlns="http://www.w3.org/2000/svg">
    <path clip-rule="evenodd"
        d="m66.1 240.7c0 14.7-11.9 26.6-26.6 26.6s-26.6-11.9-26.6-26.6 11.9-26.6 26.6-26.6 26.6 11.9 26.6 26.6m422.4 0c0 14.7-11.9 26.6-26.6 26.6s-26.6-11.9-26.6-26.6 11.9-26.6 26.6-26.6 26.6 11.9 26.6 26.6m-211.2 104.8c0 14.7-11.9 26.6-26.6 26.6s-26.6-11.9-26.6-26.6 11.9-26.6 26.6-26.6c14.7.1 26.6 12 26.6 26.6m-106.3-51.7c0 14.7-11.9 26.6-26.6 26.6s-26.6-11.9-26.6-26.6 11.9-26.6 26.6-26.6 26.6 11.9 26.6 26.6m211.2 0c0 14.7-11.9 26.6-26.6 26.6s-26.6-11.9-26.6-26.6 11.9-26.6 26.6-26.6 26.6 11.9 26.6 26.6m-324.7 27.3c0 9.9-8 18-18 18-9.9 0-18-8.1-18-18s8-18 18-18c9.9.1 18 8.1 18 18m422.4 0c0 9.9-8 18-18 18-9.9 0-18-8.1-18-18s8-18 18-18c9.9.1 18 8.1 18 18m-211.2 106.3c0 9.9-8 18-18 18-9.9 0-18-8.1-18-18s8.1-17.9 18-17.9 18 8 18 17.9m-106.3-53.1c0 9.9-8 18-18 18-9.9 0-18-8-18-18 0-9.9 8-18 18-18 9.9 0 18 8.1 18 18m211.2 0c0 9.9-8.1 18-18 18s-18-8-18-18c0-9.9 8-18 18-18 9.9 0 18 8.1 18 18m-324.7 10c0 5.2-4.2 9.3-9.3 9.3-5.2 0-9.3-4.2-9.3-9.3 0-5.2 4.2-9.3 9.3-9.3s9.3 4.2 9.3 9.3m422.4 0c0 5.2-4.2 9.3-9.3 9.3-5.2 0-9.3-4.2-9.3-9.3 0-5.2 4.2-9.3 9.3-9.3s9.3 4.2 9.3 9.3m-211.2 106.4c0 5.2-4.2 9.3-9.3 9.3-5.2 0-9.3-4.2-9.3-9.3 0-5.2 4.2-9.3 9.3-9.3 5.1-.1 9.3 4.1 9.3 9.3m-106.4-53.2c0 5.2-4.2 9.3-9.3 9.3-5.2 0-9.3-4.2-9.3-9.3 0-5.2 4.2-9.3 9.3-9.3 5.2 0 9.3 4.1 9.3 9.3m211.2 0c0 5.2-4.2 9.3-9.3 9.3-5.2 0-9.3-4.2-9.3-9.3 0-5.2 4.2-9.3 9.3-9.3 5.2 0 9.3 4.1 9.3 9.3m-79-401.6c0 19.8-16.1 35.9-35.9 35.9s-35.9-16.1-35.9-35.9 16.1-35.9 35.9-35.9 35.9 16.1 35.9 35.9m0 106.3c0 19.8-16.1 35.9-35.9 35.9s-35.9-16.1-35.9-35.9 16.1-35.9 35.9-35.9 35.9 16.1 35.9 35.9m0 104.9c0 19.8-16.1 35.9-35.9 35.9s-35.9-16.1-35.9-35.9 16.1-35.9 35.9-35.9 35.9 16.1 35.9 35.9m211.2-104.9c0 19.8-16.1 35.9-35.9 35.9s-35.9-16.1-35.9-35.9 16.1-35.9 35.9-35.9 35.9 16.1 35.9 35.9m-422.4 0c0 19.8-16.1 35.9-35.9 35.9s-35.9-16-35.9-35.9c0-19.8 16.1-35.9 35.9-35.9s35.9 16.1 35.9 35.9m106.3-53.1c0 19.8-16.1 35.9-35.9 35.9s-35.9-16.1-35.9-35.9 16.1-35.9 35.9-35.9 35.9 16 35.9 35.9m0 104.9c0 19.8-16.1 35.9-35.9 35.9s-35.9-16.1-35.9-35.9 16.1-35.9 35.9-35.9 35.9 16 35.9 35.9m211.2-104.9c0 19.8-16.1 35.9-35.9 35.9s-35.9-16.1-35.9-35.9 16.1-35.9 35.9-35.9c19.9 0 35.9 16 35.9 35.9m0 104.9c0 19.8-16.1 35.9-35.9 35.9s-35.9-16.1-35.9-35.9 16.1-35.9 35.9-35.9c19.9-.1 35.9 16 35.9 35.9"
        fill="#141414" fill-rule="evenodd" />
</svg>