<svg enable-background="new 0 0 500 500" viewBox="0 0 500 500" xmlns="http://www.w3.org/2000/svg">
    <path
        d="m338.755 396.449c1.197 1.707 2.235 2.5 2.24 3.299.077 11.418.154 22.842-.168 34.252-.047 1.672-1.94 3.496-3.335 4.895-11.959 12-23.814 24.112-36.053 35.822-30.492 29.174-72.462 28.55-102.306-1.27-57.613-57.565-115.265-115.093-172.848-172.691-26.085-26.09-29.832-64.097-8.525-92.433 6.822-9.073 15.277-16.969 23.339-25.051 52.184-52.315 104.386-104.614 156.751-156.748 25.499-25.387 59.031-30.629 87.799-13.759 6.257 3.669 12.049 8.482 17.207 13.618 57.135 56.891 114.15 113.903 171.098 170.981 31.04 31.11 30.805 73.291-.36 104.465-25.4 25.407-50.707 50.907-76.302 76.116-4.459 4.392-6.188 8.845-6.115 15.042.305 25.716.149 51.438.115 77.157-.013 10.197-5.055 16.033-13.597 15.927-8.206-.101-13.432-5.96-13.252-15.727.507-27.533 1.382-55.06 1.756-82.594.045-3.307-1.128-7.655-3.375-9.815-32.508-31.248-65.295-62.205-98.024-93.224-.289-.274-.686-.433-1.637-1.017-13.752 3.563-27.128 2.143-38.057-8.728-7.631-7.591-10.793-16.985-10.304-27.823.92-20.387 18.939-35.155 40.578-32.953 22.557 2.295 33.344 21.384 28.352 51.543 30.658 30.108 61.757 60.65 93.229 91.559 2.062-1.898 53.51-53.05 77.585-77.184 18.22-18.265 18.29-42.624.043-60.896-57.84-57.918-115.719-115.798-173.638-173.637-18.376-18.351-42.558-18.386-60.9-.071-57.922 57.836-115.797 115.72-173.641 173.635-18.286 18.309-18.291 42.69-.08 60.916 57.856 57.902 115.735 115.781 173.637 173.638 18.228 18.214 42.708 18.217 60.935.06 17.355-17.287 55.514-55.176 57.853-57.304z"
        fill="#1cb5e0" />
</svg>