<svg enable-background="new 0 0 500 500" viewBox="0 0 500 500" xmlns="http://www.w3.org/2000/svg">
    <path
        d="m464.732 437.107c-33.549 19.388-67.339 38.915-101.86 58.865-34.191-19.713-68.261-39.356-102.143-58.891 0-40.152 0-79.205 0-119.743 33.339-19.254 67.11-38.757 102.044-58.933 33.786 19.46 67.857 39.083 101.959 58.724z"
        fill="#008d9f" />
    <path
        d="m36.551 180.499c0-39.882 0-78.946 0-119.632 33.452-19.325 67.487-38.986 101.901-58.867 34.291 19.787 68.085 39.287 101.778 58.729v119.892c-33.447 19.31-67.5 38.971-101.807 58.778-34.292-19.827-68.079-39.362-101.872-58.9z"
        fill="#008d9f" />
    <g fill="#00f1d0">
        <path
            d="m463.07 180.046c-33.116 19.155-66.005 38.178-100.214 57.965-33.277-19.287-66.693-38.654-100.719-58.375 0-38.731 0-77.338 0-117.902 32.792-18.998 66.487-38.518 100.696-58.337 33.51 19.316 66.682 38.438 100.238 57.78-.001 39.469-.001 78.432-.001 118.869z" />
        <path
            d="m139.127 260.187c34.884 20.199 67.395 39.023 99.731 57.746v118.442c-32.784 18.932-66.437 38.365-100.318 57.931-34.066-19.496-67.602-38.689-101.22-57.929 0-39.512 0-78.144 0-118.453 33.897-19.223 68.243-38.702 101.807-57.737z" />
    </g>
</svg>