<svg enable-background="new -749 751 500 500" viewBox="-749 751 500 500"
    xmlns="http://www.w3.org/2000/svg">
    <path
        d="m-737.913 774.929c131.131 130.953 261.565 261.21 392.538 392.005-35.627 35.405-78.666 57.654-128.755 63.994-118.155 14.956-218.282-48.466-254.874-161.792-6.523-20.201-8.881-42.463-9.178-63.829-1.043-75.028-.351-150.08-.289-225.122.001-1.634.338-3.268.558-5.256zm481.033 447.625c.015-75.04.292-150.082-.124-225.119-.345-62.175-23.113-115.892-67.589-158.674-72.17-69.421-156.984-83.936-250.23-50.474-29.015 10.413-54.29 27.817-75.588 50.238 131.016 130.962 261.184 261.077 392.759 392.598.355-3.799.772-6.184.772-8.569z"
        fill="#23a4bc" />
</svg>