<svg enable-background="new 0 0 500 500" viewBox="0 0 500 500" xmlns="http://www.w3.org/2000/svg">
    <path
        d="m327.27 152.244c37.754-26.358 58.33-61.49 58.048-107.982 85.973 50.306 144.71 179.235 90.82 303.887-54.194 125.356-204.665 182.722-328.217 125.388-126.909-58.892-180.855-209.266-119.693-332.731 64.25-129.697 212.733-166.301 318.733-118.087 1.525 29.002-8.415 54.513-26.096 77.545-1.113 1.45-2.398 2.769-3.612 4.14-14.321 16.182-28.028 26.417-53.951 22.771-51.673-7.267-93.576 14.858-119.779 60.406-26.185 45.517-23.082 91.562 7.438 134.284 32.419 45.38 91.352 62.136 142.936 42.393 52.06-19.924 84.719-72.192 79.051-127.74-3.083-30.221-16.122-56-37.94-77.235-2.295-2.233-4.737-4.316-7.738-7.039z"
        fill="#4d93df" />
</svg>