<svg enable-background="new 0 0 500 500" viewBox="0 0 500 500" xmlns="http://www.w3.org/2000/svg">
    <linearGradient gradientTransform="matrix(1 0 0 -1 0 502.18)" gradientUnits="userSpaceOnUse"
        id="a" x1="0" x2="500" y1="252.18" y2="252.18">
        <stop offset="0" stop-color="#31eda9" />
        <stop offset=".06" stop-color="#71ef74" />
        <stop offset=".13" stop-color="#aef043" />
        <stop offset=".18" stop-color="#daf11e" />
        <stop offset=".22" stop-color="#f5f208" />
        <stop offset=".25" stop-color="#fff200" />
        <stop offset=".27" stop-color="#fedc0e" />
        <stop offset=".38" stop-color="#fa685a" />
        <stop offset=".46" stop-color="#f71f89" />
        <stop offset=".5" stop-color="#f6029c" />
        <stop offset=".5" stop-color="#f0059e" />
        <stop offset=".56" stop-color="#be21ab" />
        <stop offset=".61" stop-color="#9239b7" />
        <stop offset=".66" stop-color="#6c4ec1" />
        <stop offset=".72" stop-color="#4e5fca" />
        <stop offset=".78" stop-color="#376cd0" />
        <stop offset=".84" stop-color="#2675d4" />
        <stop offset=".91" stop-color="#1c7ad7" />
        <stop offset="1" stop-color="#197cd8" />
    </linearGradient>
    <path
        d="m397.8 126.5c-34 0-48.8 18-75.6 18-17 0-27.5-8.5-40.5-17.8-17.8-13-52.4-52.8-116.3-52.8-88.3 0-165.9 73.6-165.4 176.1-.6 102.4 77 176.1 165.4 176.1 63.9 0 98.5-39.8 116.4-52.7 12.9-9.4 23.4-17.9 40.5-17.9 26.8 0 41.6 18 75.6 18 58.7 0 102.2-56.1 102.2-123.8s-43.7-123.2-102.3-123.2zm2.3 185.8c-11.3 0-18.8-4.2-28.4-9.4-13.9-7.4-32.5-15.6-51.8-15.6-31.2 0-53.9 14.7-71 25.4-15.2 9.7-30.4 19.4-56.5 19.4-41.1 0-77.3-35.3-77.3-81.8s36.2-81.9 77.3-81.9c26.1 0 41.3 9.7 56.5 19.4 17 10.6 39.7 25.1 71 25.1 19.3 0 37.9-8.1 51.8-15.6 9.6-5.2 17.1-9.4 28.4-9.4 26.9 0 46.8 28.5 46.8 62.1s-20 62.3-46.8 62.3z"
        fill="url(#a)" />
</svg>