<svg enable-background="new 0 0 500 500" viewBox="0 0 500 500" xmlns="http://www.w3.org/2000/svg">
    <g clip-rule="evenodd" fill-rule="evenodd">
        <path
            d="m141.8 320.9c-1.5 5.3-6.2 6.6-10.4 2.8l-83.4-72.5c-4.3-3.7-3.3-8.4 2.1-10.5l116.9-43.6c5.4-2 8.7.6 7.2 5.9z"
            fill="#404971" />
        <path
            d="m77.5 388.6c-4.3 3.6-8.7 2.1-9.7-3.3l-22.2-119c-1-5.4 1.6-6.8 5.7-3l77.2 69.7c4.2 3.8 4 9.8-.3 13.4z"
            fill="#546096" />
        <path
            d="m172.5 169.5c3.9 4.5 2.5 9.9-3 12.1l-117.2 46.5c-5.5 2.2-8.3-.5-6.2-6.1l48.1-128.5c2.1-5.5 6.9-6.4 10.8-1.9z"
            fill="#546096" />
        <path
            d="m55.8 375c1.1 5.7-.7 6.4-4.1 1.5l-47.1-68.5c-3.3-4.8-3.1-12.6.6-17.2l21.1-26.6c3.7-4.6 7.6-3.8 8.7 1.9z"
            fill="#546096" />
        <path
            d="m36 214c-2 5.4-5.2 5.4-7-.1l-15.3-45.8c-1.8-5.5.2-13.2 4.5-17.1l54.5-49.3c4.3-3.9 6.2-2.6 4.2 2.8z"
            fill="#546096" />
        <path
            d="m23.1 222.3c1.6 5.1.4 12.7-2.6 17l-13.6 19.2c-3 4.3-5.1 3.4-4.6-1.9l6.5-66.7c.5-5.3 2.3-5.5 3.8-.4z"
            fill="#546096" />
        <path
            d="m87.7 67.9c1.9 2 0 6.4-4.2 9.8l-23.7 19.5c-4.2 3.4-4.9 2.9-1.5-1.2l19.9-24.2c3.3-4.1 7.6-5.8 9.5-3.9"
            fill="#546096" />
        <path
            d="m229.4 451.4c-2.9 5-8 5.2-11.2.4l-63.5-92.2c-3.3-4.7-1.2-9.1 4.5-9.7l127.7-13.1c5.7-.6 8.1 3 5.1 8z"
            fill="#546096" />
        <path
            d="m205.4 449.4c3.2 4.7 1.5 7.1-4 5.2l-119-40.2c-5.4-1.8-6.3-6.4-2-10.1l51-43.7c4.3-3.7 10.6-2.9 13.8 1.8z"
            fill="#546096" />
        <path
            d="m291.2 314.2c3.7 4.4 2.1 8.4-3.5 9l-126.6 13.4c-5.6.6-9.1-3.5-7.6-9.1l31.7-126.1c1.4-5.6 5.6-6.6 9.2-2.2z"
            fill="#15f9ff" />
        <path
            d="m388.2 416.8c3.7 4.4 2.2 9-3.3 10.2l-128.7 28c-5.5 1.2-7.7-1.9-4.9-7l60.7-107.2c2.8-5 8.2-5.5 11.8-1.1z"
            fill="#546096" />
        <path
            d="m175.9 486c-4.8 2.8-12.1 1.9-16.2-2.1l-57.9-56.4c-4.1-4-3.2-5.7 2-3.7l99.2 37.2c5.2 1.9 5.5 5.9.7 8.7z"
            fill="#546096" />
        <path
            d="m322.4 495c-4.3 3.6-11.9 4.5-16.8 1.9l-41.2-21.5c-5-2.6-4.6-5.7.9-6.9l109.4-23.7c5.4-1.2 6.4.8 2.1 4.4z"
            fill="#546096" />
        <path
            d="m201.2 495.3c-6.1-.2-6.7-2.5-1.3-5.1l24.1-11.4c5.4-2.5 14.2-2.6 19.6-.2l35.2 15.8c5.4 2.4 4.9 4.2-1.2 4z"
            fill="#546096" />
        <path
            d="m411.1 435c2 2.6-.7 7.3-6.1 10.5l-31.9 18.7c-5.4 3.2-5.9 2.3-1.2-2l26.9-24.1c4.7-4.3 10.3-5.7 12.3-3.1"
            fill="#546096" />
        <path
            d="m333.2 303.6c-5.4 2-8.7-.6-7.2-5.9l32.5-117.8c1.5-5.3 6.2-6.6 10.5-2.8l83.4 72.5c4.3 3.7 3.3 8.4-2.1 10.5z"
            fill="#404971" />
        <path
            d="m454.7 234.5c1 5.4-1.6 6.8-5.7 3l-77.2-69.7c-4.2-3.8-4-9.8.3-13.4l50.7-42.2c4.3-3.6 8.7-2.1 9.7 3.3z"
            fill="#546096" />
        <path
            d="m406.1 407.4c-2.1 5.5-6.9 6.4-10.8 1.9l-67.5-77.9c-3.9-4.5-2.5-9.9 3-12.1l117.2-46.6c5.5-2.2 8.3.5 6.2 6z"
            fill="#546096" />
        <path
            d="m495.7 192.8c3.3 4.9 3.1 12.6-.6 17.2l-21.1 26.6c-3.7 4.6-7.6 3.8-8.7-1.9l-20.9-109c-1.1-5.7.7-6.4 4.1-1.5z"
            fill="#546096" />
        <path
            d="m486.5 332.7c1.8 5.5-.2 13.2-4.5 17.1l-54.5 49.3c-4.3 3.9-6.2 2.6-4.2-2.8l40.8-109.5c2-5.4 5.2-5.4 7 .1z"
            fill="#546096" />
        <path
            d="m491.4 311c-.5 5.3-2.3 5.5-3.9.4l-10.4-32.9c-1.6-5.1-.4-12.7 2.6-17l13.6-19.2c3-4.3 5.1-3.4 4.6 1.9z"
            fill="#546096" />
        <path
            d="m422 429c-3.4 4.1-7.7 5.8-9.5 3.9-1.9-2 0-6.4 4.2-9.8l23.8-19.5c4.2-3.4 4.9-2.9 1.5 1.2z"
            fill="#546096" />
        <path
            d="m334.8 141.2c3.3 4.7 1.2 9.1-4.5 9.7l-127.7 13.1c-5.7.6-8-3-5.1-8l62.5-106.6c2.9-5 8-5.2 11.2-.4z"
            fill="#404971" />
        <g fill="#546096">
            <path
                d="m368.8 140.2c-4.3 3.7-10.6 2.9-13.8-1.8l-60.1-87.1c-3.3-4.7-1.5-7.1 4-5.2l119 40.2c5.4 1.8 6.3 6.4 2 10.1z" />
            <path
                d="m315.1 299.4c-1.4 5.6-5.6 6.6-9.2 2.2l-96.9-115c-3.7-4.4-2.1-8.4 3.5-9l126.6-13.4c5.6-.6 9.1 3.5 7.6 9.1z" />
            <path
                d="m188.2 160c-2.8 5-8.2 5.5-11.9 1.1l-64.3-77.1c-3.7-4.4-2.2-9 3.3-10.2l128.7-28c5.5-1.2 7.7 1.9 4.9 7z" />
            <path
                d="m297.3 39.9c-5.2-1.9-5.5-5.9-.6-8.7l27.6-16.4c4.8-2.8 12.1-1.9 16.2 2.1l57.9 56.4c4.1 4 3.2 5.7-2 3.7z" />
            <path
                d="m125.6 56c-5.4 1.2-6.4-.8-2.1-4.4l54.4-45.8c4.3-3.6 11.9-4.5 16.8-1.9l41.2 21.5c5 2.6 4.6 5.7-.9 6.8z" />
            <path
                d="m276.3 22c-5.4 2.5-14.2 2.6-19.6.2l-35.2-15.8c-5.4-2.4-4.9-4.2 1.2-4l76.3 3.2c6.1.2 6.7 2.5 1.3 5.1z" />
            <path
                d="m101.4 62.8c-4.7 4.2-10.3 5.6-12.3 3s.7-7.3 6.1-10.5l31.9-18.7c5.4-3.2 5.9-2.3 1.2 2z" />
            <path
                d="m67.7 412.9c2-1.9 6.4 0 9.8 4.2l19.5 23.7c3.4 4.2 2.9 4.9-1.2 1.5l-24.2-19.9c-4.1-3.4-5.9-7.7-3.9-9.5" />
            <path
                d="m434.7 89.4c2.6-2 7.3.7 10.5 6.1l18.7 31.9c3.2 5.4 2.3 5.9-2 1.2l-24.1-26.9c-4.4-4.8-5.7-10.3-3.1-12.3" />
            <path
                d="m428.7 78.4c4.1 3.4 5.8 7.7 3.9 9.5-2 1.9-6.4 0-9.8-4.2l-19.5-23.7c-3.4-4.2-2.9-4.9 1.2-1.5z" />
            <path
                d="m51.8 399.2c4.2 4.7 5.6 10.3 3 12.3s-7.3-.7-10.4-6.1l-18.7-31.9c-3.2-5.4-2.3-5.9 2-1.2z" />
        </g>
    </g>
</svg>