<svg enable-background="new 0 0 500 500" viewBox="0 0 500 500" xmlns="http://www.w3.org/2000/svg">
    <linearGradient gradientUnits="userSpaceOnUse" id="a" x1=".050414" x2="499" y1="249.4804"
        y2="249.4804">
        <stop offset="0" stop-color="#006bb8" />
        <stop offset="1" stop-color="#00b288" />
    </linearGradient>
    <path clip-rule="evenodd"
        d="m249.5 335.9c47.7 0 86.4-38.7 86.4-86.4s-38.7-86.4-86.4-86.4-86.4 38.7-86.4 86.4 38.7 86.4 86.4 86.4zm0-236.1c82.7 0 149.7 67 149.7 149.7s-67 149.7-149.7 149.7-149.7-67-149.7-149.7 67.1-149.7 149.7-149.7zm249.5 144.4v.3c0 11.9-9.6 21.6-21.5 21.6-11.9 0-21.6-9.7-21.5-21.6v-.3c-.1-111-89.8-201-200.5-201h-.1-.9c-11.9 0-21.6-9.7-21.5-21.6 0-11.9 9.6-21.6 21.5-21.6h.9.1c134.4 0 243.5 109.3 243.5 244.2zm-33.3 44.1c12.3 0 22.2 9.9 22.2 22.2s-9.9 22.2-22.2 22.2-22.2-9.9-22.2-22.2 10-22.2 22.2-22.2zm-221.1 167.4c11.9 0 21.6 9.7 21.5 21.6 0 11.9-9.6 21.6-21.5 21.6-.3 0-.6 0-.9 0h3.5c-19.7.3-39.3-1.8-58.5-6.2-108-25-188.6-122-188.6-237.9v-.3c0-11.9 9.6-21.6 21.5-21.6 11.9 0 21.6 9.7 21.6 21.6v.2h.1v.1c0 96.2 67.4 176.6 157.5 196.4 13.8 3 28.2 4.6 42.9 4.6h.1zm-211.3-245c-12.3 0-22.2-9.9-22.2-22.2s9.9-22.2 22.2-22.2 22.2 9.9 22.2 22.2c0 12.2-9.9 22.2-22.2 22.2z"
        fill="url(#a)" fill-rule="evenodd" />
</svg>