<svg xmlns:xlink="http://www.w3.org/1999/xlink" enable-background="new 0 0 500 500"
    viewBox="0 0 500 500" xmlns="http://www.w3.org/2000/svg">
    <linearGradient gradientUnits="userSpaceOnUse" id="a" x1="66.4763" x2="416.1012" y1="210.1987"
        y2="210.1987">
        <stop offset="0" stop-color="#4b83bc" />
        <stop offset="1" stop-color="#70c3d5" />
    </linearGradient>
    <linearGradient gradientUnits="userSpaceOnUse" id="b" x1="8.0646" x2="331.0991" y1="228.2787"
        y2="228.2787">
        <stop offset="0" stop-color="#a1d5d9" />
        <stop offset="1" stop-color="#3866b0" />
    </linearGradient>
    <linearGradient id="c">
        <stop offset="0" stop-color="#59388d" />
        <stop offset="1" stop-color="#e06ea6" />
    </linearGradient>
    <linearGradient gradientUnits="userSpaceOnUse" id="d" x1="384.9623" x2="432.7538" y1="112.8432"
        y2="43.8111" xlink:href="#c" />
    <linearGradient gradientUnits="userSpaceOnUse" id="e" x1="399.3403" x2="455.0969" y1="270.5761"
        y2="138.7072">
        <stop offset="0" stop-color="#ffe080" />
        <stop offset="1" stop-color="#ff753e" />
    </linearGradient>
    <linearGradient gradientUnits="userSpaceOnUse" id="f" x1="305.4267" x2="428.053" y1="260.8583"
        y2="260.8583" xlink:href="#c" />
    <linearGradient gradientUnits="userSpaceOnUse" id="g" x1="3.7028" x2="394.6109" y1="328.0025"
        y2="328.0025">
        <stop offset=".155" stop-color="#529fc1" />
        <stop offset=".7646" stop-color="#ff7714" />
    </linearGradient>
    <path
        d="m416.1 251c0 37-9.7 71.7-26.8 101.7-.3.6-.7 1.2-1.1 1.8-7.7 12.7-21.7 21.2-37.6 21.2-24.3 0-44-19.7-44-44 0-7.4 1.9-14.5 5.1-20.6.4-.7.8-1.4 1.2-2.2 0-.1.1-.1.1-.1.4-.8.8-1.5 1.3-2.3 12.7-23.2 19.9-49.9 19.9-78.2.1-90.2-73-163.3-163.2-163.3-39.8 0-76.2 14.2-104.5 37.8 37.1-35.9 87.7-58.1 143.4-58.1 113.9 0 206.2 92.4 206.2 206.3z"
        fill="url(#a)" />
    <path
        d="m314.4 306.5c8.9-16.8 13.9-35.9 13.9-56.2 0-66.3-53.7-120.1-120.1-120.1-66.3 0-120.1 53.7-120.1 120.1 0 66.3 53.8 120.1 120.1 120.1 42.2 0 79.4-21.8 100.8-54.7-28.9 45.7-80 76-138 76-90.2 0-163.3-73.1-163.3-163.3 0-10 .9-19.9 2.6-29.4 9.7-37.1 29.4-70.2 56.1-96.1 28.4-23.7 64.8-37.9 104.6-37.9 90.2 0 163.3 73.1 163.3 163.3 0 28.3-7.2 54.9-19.9 78.2z"
        fill="url(#b)" />
    <circle cx="413" cy="72.3" fill="url(#d)" r="40.7" />
    <path
        d="m494.1 183.6c0-23.6-19.2-42.8-42.8-42.8-5.9 0-11.5 1.2-16.6 3.3-20.8 7.1-40.2 18.9-58.2 34.7l18.1 121.3c13.8-31.5 35.1-62.5 71.4-76.3.1 0 .2-.1.2-.1.2-.1.5-.2.7-.3 15.9-6.2 27.2-21.7 27.2-39.8z"
        fill="url(#e)" />
    <path
        d="m428.1 213.1c0-23.6-19.2-42.8-42.8-42.8-14.4 0-27.2 7.1-34.9 18.1-.7 1-1.4 2.1-2.1 3.2-26.7 41.9-42.1 86.5-42.8 134.8l84.3 25.1c6.9-9.6 10.3-23.2 10.4-34.1.3-39.8 4.1-55.7 18.8-77.9 5.7-7.3 9.1-16.5 9.1-26.4z"
        fill="url(#f)" />
    <path
        d="m350.7 287.7c-15.9 0-29.8 8.4-37.5 21 0 0-.1.1-.1.1-.4.7-.8 1.4-1.2 2.2-.9 1.5-1.8 3-2.8 4.5-28.9 45.7-80 76-138 76-90.2 0-163.3-73.1-163.3-163.3 0-10 .9-19.9 2.6-29.4-4.4 16.7-6.7 34.2-6.7 52.2 0 113.9 92.3 206.2 206.2 206.2 76.1 0 142.6-41.3 178.3-102.7.4-.6.7-1.2 1.1-1.8 3.4-6.2 5.3-13.4 5.3-21 0-24.3-19.7-44-43.9-44z"
        fill="url(#g)" />
</svg>