<svg xmlns:xlink="http://www.w3.org/1999/xlink" enable-background="new 0 0 500 500"
    viewBox="0 0 500 500" xmlns="http://www.w3.org/2000/svg">
    <linearGradient id="a">
        <stop offset="0" stop-color="#ffeaff" stop-opacity=".6" />
        <stop offset=".6807" stop-color="#a087c9" />
        <stop offset="1" stop-color="#10002f" />
    </linearGradient>
    <radialGradient cx="27.7811" cy="497.1864"
        gradientTransform="matrix(15.5992 0 0 -15.8678 27.6588 7957.2998)"
        gradientUnits="userSpaceOnUse" id="b" r="10.4167" xlink:href="#a" />
    <radialGradient cx="9.8048" cy="497.7999"
        gradientTransform="matrix(38.1657 0 0 -38.8229 -3.5863 19464.5723)"
        gradientUnits="userSpaceOnUse" id="c" r="10.4167" xlink:href="#a" />
    <linearGradient gradientTransform="matrix(1 0 0 -1 0 502)" gradientUnits="userSpaceOnUse" id="d"
        x1="202.4401" x2="269.6847" y1="17.0161" y2="424.8502">
        <stop offset="0" stop-color="#81ffff" />
        <stop offset=".6202" stop-color="#fff" stop-opacity="0" />
    </linearGradient>
    <linearGradient id="e">
        <stop offset=".2888" stop-color="#fff" />
        <stop offset=".7796" stop-color="#fff" stop-opacity="0" />
    </linearGradient>
    <linearGradient gradientTransform="matrix(1 0 0 -1 0 502)" gradientUnits="userSpaceOnUse" id="f"
        x1="381.0271" x2="210.3538" y1="359.4052" y2="205.4591" xlink:href="#e" />
    <linearGradient gradientTransform="matrix(1 0 0 -1 0 502)" gradientUnits="userSpaceOnUse" id="g"
        x1="42.6469" x2="429.1152" y1="124.5956" y2="124.5956">
        <stop offset="0" stop-color="#0002e9" />
        <stop offset=".9952" stop-color="#ff00c7" />
    </linearGradient>
    <linearGradient gradientTransform="matrix(1 0 0 -1 0 502)" gradientUnits="userSpaceOnUse" id="h"
        x1="448.3224" x2="234.7271" y1="204.4561" y2="6.013" xlink:href="#e" />
    <linearGradient gradientTransform="matrix(1 0 0 -1 0 502)" gradientUnits="userSpaceOnUse" id="i"
        x1="42.6469" x2="249.1513" y1="124.5956" y2="124.5956">
        <stop offset="0" stop-color="#000292" />
        <stop offset=".9952" stop-color="#7d00c7" />
    </linearGradient>
    <linearGradient gradientTransform="matrix(1 0 0 -1 0 502)" gradientUnits="userSpaceOnUse" id="j"
        x1="43.0697" x2="428.7621" y1="204.7406" y2="204.7406">
        <stop offset="0" stop-color="#000292" />
        <stop offset=".9952" stop-color="#be00c7" />
    </linearGradient>
    <linearGradient gradientTransform="matrix(1 0 0 -1 0 502)" gradientUnits="userSpaceOnUse" id="k"
        x1="422.9164" x2="394.5048" y1="414.7403" y2="369.3523" xlink:href="#e" />
    <linearGradient gradientTransform="matrix(1 0 0 -1 0 502)" gradientUnits="userSpaceOnUse" id="l"
        x1="212.3405" x2="227.7218" y1="76.9822" y2="76.9822" xlink:href="#e" />
    <linearGradient gradientTransform="matrix(1 0 0 -1 0 502)" gradientUnits="userSpaceOnUse" id="m"
        x1="265.3732" x2="280.7555" y1="82.1646" y2="82.1646" xlink:href="#e" />
    <linearGradient gradientTransform="matrix(1 0 0 -1 0 502)" gradientUnits="userSpaceOnUse" id="n"
        x1="241.8325" x2="253.3804" y1="55.4041" y2="55.4041" xlink:href="#e" />
    <linearGradient gradientTransform="matrix(1 0 0 -1 0 502)" gradientUnits="userSpaceOnUse" id="o"
        x1="288.5742" x2="300.1222" y1="60.953" y2="60.953" xlink:href="#e" />
    <linearGradient gradientTransform="matrix(1 0 0 -1 0 502)" gradientUnits="userSpaceOnUse" id="p"
        x1="162.6469" x2="187.7668" y1="86.948" y2="86.948" xlink:href="#e" />
    <linearGradient gradientTransform="matrix(1 0 0 -1 0 502)" gradientUnits="userSpaceOnUse" id="q"
        x1="311.8378" x2="336.9587" y1="128.7367" y2="128.7367" xlink:href="#e" />
    <path
        d="m477.8 88.4c-5.1-19.6-21.5-39.2-50.9-61-23.6-17.4-48.7-27.4-68.7-27.4-4 0-7.6.4-11.3 1.1-9.1 1.8-17.1 8.5-22.2 18.5-6.2 11.8-7.6 27.7-3.6 37.4 1.5 3 3.3 6.7 5.5 10-19.3 11.8-30.2 15.2-31.6 15.5 50.2 17 92 52.5 118.2 98.7l.4-4.4c1.1-12.2 4.7-26.3 9.8-40.7 5.1 1.5 10.2 2.2 15.3 2.2 13.5 0 25.1-5.5 32.4-15.5 7.1-10 10-23.3 6.7-34.4z"
        fill="#5e12a0" />
    <path
        d="m425.5 125.4c33.1 9.2 46.5-16.6 42.2-34-4.7-17.4-20-35.1-46.9-55.1s-54.2-28.1-71.6-24.4c-17.5 3.7-22.5 30.7-18.2 41.1 1.8 4.1 5.8 10 11.3 16.6-6.9 4.8-13.5 8.5-18.9 11.8 33.4 15.2 62.5 38.8 84.3 68.4 2.5-10 6.2-18.9 9.5-26.6 2.5.3 5.4 1.1 8.3 2.2z"
        fill="url(#b)" />
    <path
        d="m236.1 487.8c112.2 0 203.2-92.6 203.2-206.7s-91-206.7-203.2-206.7-203.2 92.6-203.2 206.7 90.9 206.7 203.2 206.7z"
        fill="url(#c)" />
    <path
        d="m450.9 74.3c-27.6-29.6-50.9-37.3-78.9-43.6-21.8-5.2-16-17.8 10.5-15.2-12.7-4.4-24.7-5.5-33.4-3.7-17.5 3.7-22.5 30.7-18.2 41.1 1.8 4.1 5.8 10 11.3 16.6-9.8 6.7-18.2 11.5-25.1 15.2 3.3 1.5 7.3 3.3 12 5.9 12.4 6.7 25.8 17.8 25.8 17.8-20.4-17.8-16-25.9 12-45.9 8.7-6.3 24.7-5.5 39.6 2.2s32.4 27.4 32.4 27.4l-16.7 32.5c1.1.4 2.2.7 3.3 1.1 10.5 3 18.9 2.2 25.4-.4 7.7-4.7 27.7-21 0-51z"
        fill="#a98698" opacity=".6" />
    <path
        d="m371.7 48.4c7.3 3 16.7 8.1 28.4 15.9 13.8 9.2 25.8 19.6 33.4 27.7-12.7 17-21.1 40.3-26.2 56.6 2.5 3.7 5.5 7.4 8 11.1 2.5-9.2 6.9-22.9 12.7-36.6 1.5.4 3.3.4 5.1.4 4.4 0 9.5-.7 13.5-4.1 2.9-2.2 6.2-6.3 5.8-13.7 0-7-5.5-15.9-16.7-26.6-8-7.8-18.9-16.3-29.8-24-31.3-21.1-53.1-27-62.9-17-6.5 6.7-5.8 14.8-3.6 20.7-11.6 7.8-21.5 13.3-28 17 4.4 1.5 8.4 3.3 12.7 5.2 11.6-6.3 28.3-17 47.6-32.6zm68.7 52.9c1.1 1.8 1.5 3.7 1.5 4.8 0 3.3-1.1 4.4-1.8 5.2-1.5 1.1-4.4 1.8-6.9 1.8 2.1-4.4 4.6-8.1 7.2-11.8zm-89.8-55.1c1.1-1.1 4-1.8 8.7-1.1-3.6 3-7.3 5.5-10.9 8.1-.4-2.5 0-5.1 2.2-7z"
        fill="#5e12a0" />
    <path
        d="m236.1 62.1c-118.9 0-215.2 98-215.2 218.9s96.3 219 215.2 219 215.2-98 215.2-218.9-96.7-219-215.2-219zm0 425.7c-112.3 0-203.2-92.5-203.2-206.7s90.8-206.8 203.2-206.8c112.3 0 203.2 92.5 203.2 206.7s-91.3 206.8-203.2 206.8z"
        fill="#5e12a0" />
    <path
        d="m236.1 487.8c112.2 0 203.2-92.6 203.2-206.7s-91-206.7-203.2-206.7-203.2 92.6-203.2 206.7 90.9 206.7 203.2 206.7z"
        fill="url(#d)" opacity=".6" />
    <path
        d="m234.6 462.6c-110.9-18.1-186.1-124.3-168-237.1 8-49.9 32.7-92.5 67.6-123.2-50.9 30-88.7 82.1-98.9 145.7-17.8 112.8 57.4 218.9 168 237.1 61.8 10.4 121.4-9.2 165.4-47.7-38.8 23-86.1 33-134.1 25.2z"
        fill="#a98698" opacity=".6" />
    <path
        d="m268.4 77.3c-51.3-8.5-101.1 3.3-141.8 29.6-.7.7-1.5 1.5-1.5 1.5 15.6-9.6 38.5-18.1 38.5-18.1-58.9 34.8-77.1 74.3-77.1 74.3 22.9-45.1 90.2-76.9 142.9-79.1s87.3 13.7 129.4 48.1c42.2 34.8 67.6 105.8 65.1 162-2.2 56.2-31.3 101.7-31.3 101.7 20-26.3 32-45.5 39.6-65.1 1.5-5.9 2.9-11.8 3.6-18.1 18.4-112.5-56.5-218.7-167.4-236.8z"
        fill="url(#f)" opacity=".6" />
    <path d="m429.1 279.2c0 108.4-86.5 196.4-193.1 196.4s-193.4-88-193.4-196.4z" fill="url(#g)" />
    <path d="m413.8 279.2c0 105.8-82.2 192.3-185.4 196.4h7.6c106.5 0 193.1-88 193.1-196.4z"
        fill="url(#h)" opacity=".36" />
    <path
        d="m69.9 279.2h-27.3c0 108.4 86.5 196.4 193.1 196.4 4.7 0 9.1 0 13.5-.4-100-7.4-179.3-92.4-179.3-196z"
        fill="url(#i)" opacity=".49" />
    <path
        d="m428.8 281.1c0-22.6-38.5-35.5-89.8-39.9-37.1-3-74.5.7-117.4 14.1-37.1 11.1-70.5 9.2-94.9 6.3-54.2-6.3-84-7-84 19.6 0 38.5 77.1 86.5 192.7 69.9 58.5-8.5 88.7-25.9 123.2-37.7 37.4-12.7 70.2-12.4 70.2-32.3z"
        fill="url(#j)" />
    <path
        d="m299.3 187.9c18.1 0 32.7-14.9 32.7-33.3s-14.7-33.3-32.7-33.3-32.7 14.9-32.7 33.3 14.7 33.3 32.7 33.3z"
        fill="#fff" />
    <path
        d="m352.8 212.6c7.6 0 13.8-6.3 13.8-14.1s-6.2-14.1-13.8-14.1-13.8 6.3-13.8 14.1 6.1 14.1 13.8 14.1z"
        fill="#fff" />
    <path
        d="m402.2 128c-.4 0-.7 0-.7 0-2.2-.4-3.6-2.6-3.3-5.2 3.3-17 17.1-33.3 17.8-34 1.5-1.8 4.4-1.8 5.8-.4 1.8 1.5 1.8 4.4.4 5.9-.4.4-13.1 15.5-16 30.3-.4 2.3-2.2 3.4-4 3.4z"
        fill="url(#k)" opacity=".36" />
    <path
        d="m222.6 435.3c5.6 0 10.2-4.6 10.2-10.4 0-5.7-4.6-10.4-10.2-10.4s-10.2 4.6-10.2 10.4c.1 5.7 4.6 10.4 10.2 10.4z"
        fill="#fff" opacity=".2" />
    <path
        d="m216.8 431.6c-4-4.1-4-10.7 0-14.8.7-.7 1.5-1.1 2.2-1.9-1.5.4-2.5 1.1-3.6 2.2-4 4.1-4 10.7 0 14.8 3.3 3.3 8.4 4.1 12.4 1.8-3.7 1.6-8.1.9-11-2.1z"
        fill="url(#l)" opacity=".24" />
    <path d="m226.2 422c1.2 0 2.2-1 2.2-2.2s-1-2.2-2.2-2.2-2.2 1-2.2 2.2c.1 1.2 1 2.2 2.2 2.2z"
        fill="#fff" opacity=".3" />
    <path
        d="m275.7 430.1c5.6 0 10.2-4.6 10.2-10.4 0-5.7-4.6-10.4-10.2-10.4s-10.2 4.6-10.2 10.4 4.6 10.4 10.2 10.4z"
        fill="#fff" opacity=".2" />
    <path
        d="m269.9 426.4c-4-4.1-4-10.7 0-14.8.7-.7 1.5-1.1 2.2-1.8-1.5.4-2.5 1.1-3.6 2.2-4 4.1-4 10.7 0 14.8 3.3 3.3 8.4 4.1 12.4 1.8-3.8 1.5-8.1.8-11-2.2z"
        fill="url(#m)" opacity=".24" />
    <path d="m279.3 416.8c1.2 0 2.2-1 2.2-2.2s-1-2.2-2.2-2.2-2.2 1-2.2 2.2 1 2.2 2.2 2.2z"
        fill="#fff" opacity=".3" />
    <path
        d="m249.5 454.1c4.2 0 7.6-3.5 7.6-7.8s-3.4-7.8-7.6-7.8-7.6 3.5-7.6 7.8c0 4.4 3.4 7.8 7.6 7.8z"
        fill="#fff" opacity=".2" />
    <path
        d="m245.2 451.2c-2.9-3-2.9-8.1 0-11.1.4-.4 1.1-.7 1.5-1.1-1.1.4-1.8 1.1-2.5 1.8-2.9 3-2.9 8.1 0 11.1 2.5 2.6 6.2 3 9.5 1.1-3.1 1.2-6.4.4-8.5-1.8z"
        fill="url(#n)" opacity=".24" />
    <path d="m252.1 443.8c.8 0 1.5-.7 1.5-1.5s-.7-1.5-1.5-1.5-1.5.7-1.5 1.5.7 1.5 1.5 1.5z"
        fill="#fff" opacity=".3" />
    <path d="m296.4 448.6c4.2 0 7.6-3.5 7.6-7.8s-3.4-7.8-7.6-7.8-7.6 3.5-7.6 7.8 3.4 7.8 7.6 7.8z"
        fill="#fff" opacity=".2" />
    <path
        d="m292.1 445.6c-2.9-3-2.9-8.1 0-11.1.4-.4 1.1-.7 1.5-1.1-1.1.4-1.8 1.1-2.5 1.8-2.9 3-2.9 8.1 0 11.1 2.5 2.6 6.2 3 9.5 1.1-3.1 1.2-6.4.5-8.5-1.8z"
        fill="url(#o)" opacity=".24" />
    <path d="m299 438.2c.8 0 1.5-.7 1.5-1.5s-.7-1.5-1.5-1.5-1.5.7-1.5 1.5c0 .9.7 1.5 1.5 1.5z"
        fill="#fff" opacity=".3" />
    <path d="m179.3 431.6c9.2 0 16.7-7.6 16.7-17s-7.5-17-16.7-17-16.7 7.6-16.7 17 7.5 17 16.7 17z"
        fill="#fff" opacity=".2" />
    <path
        d="m169.9 425.3c-6.5-6.7-6.5-17.4 0-24 1.1-1.1 2.2-1.8 3.6-2.6-2.2.7-4 2.2-5.8 3.7-6.5 6.7-6.5 17.4 0 24 5.5 5.5 13.8 6.7 20.4 2.6-6.2 2.6-13.5 1.5-18.2-3.7z"
        fill="url(#p)" opacity=".24" />
    <path d="m185.2 409.4c2 0 3.6-1.7 3.6-3.7s-1.6-3.7-3.6-3.7-3.6 1.7-3.6 3.7 1.6 3.7 3.6 3.7z"
        fill="#fff" opacity=".3" />
    <path d="m328.8 389.8c9.2 0 16.7-7.6 16.7-17s-7.5-17-16.7-17-16.7 7.6-16.7 17 7.4 17 16.7 17z"
        fill="#fff" opacity=".2" />
    <path
        d="m319 383.5c-6.5-6.7-6.5-17.4 0-24 1.1-1.1 2.2-1.8 3.6-2.6-2.2.7-4 2.2-5.8 3.7-6.5 6.7-6.5 17.4 0 24 5.5 5.5 13.8 6.7 20.4 2.6-6.2 2.6-13.2 1.5-18.2-3.7z"
        fill="url(#q)" opacity=".24" />
    <path
        d="m334.6 367.6c2 0 3.6-1.7 3.6-3.7s-1.6-3.7-3.6-3.7-3.6 1.7-3.6 3.7c0 2.1 1.6 3.7 3.6 3.7z"
        fill="#fff" opacity=".3" />
</svg>