<svg enable-background="new 0 0 500 500" viewBox="0 0 500 500" xmlns="http://www.w3.org/2000/svg">
    <path
        d="m250.1 3.9c-11.3 0-22.5.8-33.4 2.3 85.5 24.3 148.1 103 148.1 196.3 0 112.7-91.3 204-204 204-49.5 0-94.9-17.6-130.2-47 40.4 80.3 123.5 135.5 219.5 135.5 135.6 0 245.5-109.9 245.5-245.5s-109.9-245.6-245.5-245.6z"
        fill="#434fa2" />
    <path
        d="m349.4 414.1c-112.7 0-204-91.3-204-204 0-98.2 69.3-180.1 161.7-199.6-18.3-4.3-37.4-6.7-57-6.7-135.6.1-245.5 110-245.5 245.6s109.9 245.5 245.5 245.5c85.6 0 160.9-43.8 204.8-110.2-30.7 18.7-66.9 29.4-105.5 29.4z"
        fill="#4078bb" />
    <path
        d="m50.9 355.8c0-112.7 91.3-204 204-204s204 91.3 204 204c0 8.5-.5 17-1.6 25.2 24.2-38.1 38.3-83.2 38.3-131.7 0-135.6-109.9-245.5-245.5-245.5s-245.5 110-245.5 245.6c0 56.3 19 108.2 50.9 149.6-3-13.9-4.6-28.3-4.6-43.2z"
        fill="#3fbbec" />
</svg>