<svg enable-background="new 0 0 500 500" viewBox="0 0 500 500" xmlns="http://www.w3.org/2000/svg">
    <g clip-rule="evenodd" fill="#5f46ba" fill-rule="evenodd">
        <path
            d="m141.6 65.6c-6.8 11.5-21.6 15.2-33.1 8.4-11.5-6.7-15.3-21.6-8.5-33 6.8-11.5 21.6-15.2 33.1-8.4 11.5 6.7 15.3 21.6 8.5 33" />
        <path
            d="m22.5 47.4c-3.4 5.7-10.8 7.6-16.5 4.2-5.8-3.4-7.7-10.8-4.3-16.6 3.4-5.7 10.8-7.6 16.6-4.2 5.7 3.4 7.6 10.8 4.2 16.6" />
        <path
            d="m443.7 103.2c-39.8-43.5-94.8-69.5-154.9-73.2-14.5-.9-29.2-.4-43.7 1.4-5 .4-9.8 1-14.5 1.8l-4.3.5.4.1c-20.8 4-36.1 10.5-36.9 10.9l-.1.1c-22.9 10.8-35.5 28.6-35.5 50.3 0 29.8 25.2 54.1 56.2 54.1 6.4 0 26.4-6.5 26.6-6.6 14.4-4.8 29.4-6.8 44.8-5.9 39 2.4 73.7 23.5 92.8 56.5v.1c10.6 18.4 15.5 39.2 14.1 60.3-4 60.6-58.3 106.8-121.3 103-35.8-2.2-67.6-19.9-87.7-48.5l-.7-.8-4.5-6.6c-15.5-25.7-13.5-61.1-12.9-68.4l.1-.7v-.3c-1.1-29.3-25.8-52.3-56.2-52.3-25.3 0-47.6 16.5-54.3 40.1-1.3 4.8-1.9 17.5-1.8 18.9-5 117 89.7 218.2 211 225.6 4.6.3 9.2.4 13.8.4 8.5 0 17-.5 25.6-1.4h.1l1.2-.1 17.9-2-1.3-.5c99.9-18.6 175.3-100.1 181.8-199.5 3.8-58-16-113.8-55.8-157.3" />
        <path
            d="m91.5 132.2c-10.2 17.2-32.4 22.9-49.7 12.6-17.1-10.2-22.8-32.4-12.6-49.6 10.3-17.2 32.5-22.9 49.7-12.7 17.2 10.3 22.9 32.5 12.6 49.7" />
    </g>
</svg>