<svg enable-background="new 0 0 500 500" viewBox="0 0 500 500" xmlns="http://www.w3.org/2000/svg">
    <linearGradient gradientUnits="userSpaceOnUse" id="a" x1="360.641" x2="360.641" y1="360.1342"
        y2="204.293">
        <stop offset="0" stop-color="#0df7fb" />
        <stop offset=".9976" stop-color="#14d9ea" />
    </linearGradient>
    <linearGradient gradientUnits="userSpaceOnUse" id="b" x1="240.068" x2="240.068" y1="493.8784"
        y2="88.6419">
        <stop offset="0" stop-color="#861daf" />
        <stop offset=".4943" stop-color="#4c8ad0" />
        <stop offset=".8108" stop-color="#11f6fb" />
        <stop offset="1" stop-color="#0cffff" />
    </linearGradient>
    <linearGradient gradientUnits="userSpaceOnUse" id="c" x1="253.4068" x2="253.4068" y1="358.2229"
        y2="157.7353">
        <stop offset="0" stop-color="#22d2ef" />
        <stop offset="1" stop-color="#10f7fc" />
    </linearGradient>
    <path
        d="m360.6 360.1c-10.6 0-19.1-8.6-19.1-19.1v-117.6c0-10.6 8.6-19.1 19.1-19.1s19.1 8.6 19.1 19.1v117.6c.1 10.6-8.5 19.1-19.1 19.1z"
        fill="url(#a)" />
    <path
        d="m244.9 358.2c-74.3 0-134.8-60.5-134.8-134.8s60.5-134.8 134.8-134.8 134.8 60.5 134.8 134.8c0 74.4-60.4 134.8-134.8 134.8zm0-231.3c-53.2 0-96.5 43.3-96.5 96.5s43.3 96.5 96.5 96.5 96.5-43.3 96.5-96.5c.1-53.2-43.2-96.5-96.5-96.5z"
        fill="#3ba7db" />
    <circle cx="370.6" cy="35.9" fill="#05ffff" r="28.2" />
    <path
        d="m129.3 493.9c-10.6 0-19.1-8.6-19.1-19.1v-251.4c0-74.3 60.5-134.8 134.8-134.8 53.4 0 101.9 31.6 123.4 80.5 4.3 9.7-.1 21-9.8 25.2-9.7 4.3-21-.1-25.2-9.8-15.4-35-50.1-57.7-88.4-57.7-53.2 0-96.5 43.3-96.5 96.5v251.3c-.1 10.7-8.6 19.3-19.2 19.3z"
        fill="url(#b)" />
    <path
        d="m244.9 358.2c-23.5 0-46.6-6.1-66.9-17.8-19.7-11.3-36.3-27.4-48.1-46.8-5.5-9-2.7-20.8 6.3-26.3s20.8-2.7 26.3 6.3c17.7 28.9 48.5 46.2 82.4 46.2 53.2 0 96.5-43.3 96.5-96.5 0-13.5-2.7-26.6-8.1-38.8-4.3-9.7.1-21 9.8-25.2 9.7-4.3 21 .1 25.2 9.8 7.5 17.1 11.4 35.4 11.4 54.3 0 74.4-60.4 134.8-134.8 134.8z"
        fill="url(#c)" />
</svg>