<svg enable-background="new 0 0 500 500" viewBox="0 0 500 500" xmlns="http://www.w3.org/2000/svg">
    <linearGradient gradientUnits="userSpaceOnUse" id="a" x1="118.5413" x2="383.0296" y1="36.253"
        y2="466.5121">
        <stop offset="0" stop-color="#3d8382" />
        <stop offset=".4997" stop-color="#14bca1" />
        <stop offset=".9995" stop-color="#3d8382" />
    </linearGradient>
    <path
        d="m284.968 212.833c-30.652 17.652-61.093 35.674-91.867 53.109-10.242 5.802-15.218 13.458-14.67 25.376.566 12.313.297 24.676.014 37.009-.1 4.35-.755 8.867-2.153 12.968-2.676 7.85-9.881 11.539-17.776 9.148-4.617-1.399-9.107-3.528-13.313-5.927-24.057-13.718-47.941-27.743-72.04-41.387-8.86-5.017-12.805-12.246-12.776-22.242.095-33.059.036-66.118.036-99.178-.048 0-.097 0-.145 0 0-32.594.145-65.188-.083-97.78-.075-10.657 4.12-17.992 13.411-23.294 30.725-17.534 61.328-35.286 91.814-53.235 9.216-5.426 17.61-5.428 26.846.028 31.06 18.346 62.314 36.364 93.543 54.422 7.58 4.383 11.385 10.96 11.406 19.473.095 37.25.074 74.5-.095 111.749-.04 8.833-4.391 15.292-12.152 19.761zm154.126 105.083c-.093 0-.186 0-.279 0 0-33.284-.069-66.568.049-99.851.029-8.326-2.512-15.275-9.839-19.527-26.763-15.531-53.52-31.08-80.537-46.161-15.311-8.547-26.619-1.506-26.885 16.248-.212 14.195.026 28.396-.142 42.593-.109 9.28-4.029 16.326-12.349 21.118-31.447 18.113-62.745 36.485-94.157 54.657-8.194 4.741-12.289 11.421-12.26 21.044.108 36.309.129 72.62-.163 108.928-.082 10.243 4.142 17.117 12.84 22.124 30.649 17.646 61.27 35.346 91.7 53.367 9.468 5.607 18.019 5.573 27.468-.005 30.254-17.862 60.643-35.503 91.178-52.88 9.312-5.3 13.55-12.505 13.468-23.201-.253-32.816-.092-65.636-.092-98.454z"
        fill="url(#a)" />
</svg>