<svg enable-background="new 0 0 500 500" viewBox="0 0 500 500" xmlns="http://www.w3.org/2000/svg">
    <circle cx="250.3" cy="249.7" fill="#02f" r="249.7" />
    <g fill="#fff">
        <path
            d="m239.8 97c65.1 0 117.8 52.7 117.8 117.7s-52.8 117.7-117.8 117.7c-17.2 0-33.6-3.7-48.3-10.3v-44.4c13.1 9.8 29.3 15.5 46.9 15.5 43.4 0 78.6-35.1 78.6-78.5s-35.2-78.5-78.6-78.5c-23.8 0-45.1 10.6-59.5 27.3l-40.2-9.2c20.5-34.3 58.1-57.3 101.1-57.3zm-72.6 150.9h-5.9v54.5c-5.5-5-10.6-10.4-15.1-16.3v-28.8l19.6-12.7c.4 1.2.9 2.3 1.4 3.3z" />
        <path d="m218.6 210.7v191.2h-30.2v-171.7zm-42.3 27.3v163.9h-30.2v-144.4z" />
    </g>
</svg>