<svg enable-background="new 0 0 500 500" viewBox="0 0 500 500" xmlns="http://www.w3.org/2000/svg">
    <mask height="372.3" id="a" maskUnits="userSpaceOnUse" width="162.5" x="4.3" y="50.6">
        <path clip-rule="evenodd" d="m4.3 50.6h162.5v372.3h-162.5z" fill="#fff"
            fill-rule="evenodd" />
    </mask>
    <path
        d="m140.7 78c9.4-10.6 17.9-19.7 26.1-27.3-138.1-4.4-97.9 95.4-142.9 196.9-51.8 116.9 6.1 161.4 92.4 175.3-12-14.1-21.7-30.3-29.2-47.7-55.9-70.5-33.4-198.8 53.6-297.2"
        fill="#efe812" mask="url(#a)" />
    <path
        d="m473.1 202.5c-12.9 36.2-36.4 76.8-69.8 116.8-26 31.1-54.9 55.7-84.7 73.5-34.5 22.3-77.3 35.5-125.1 35.5-26.8 0-53.1-1.5-77.2-5.4 14.2 16.8 31.6 30.7 51.7 40.5 124.9 60.4 132.8-51.8 264.9-108.7 74.3-32 74.5-94.5 40.2-152.2"
        fill="#ede70a" />
    <path
        d="m318.6 85.8c18.4 3.4 35.9 9.4 51.6 18.3 41.9 23.7 80.1 60 103 98.5 22.5-63.4 12-113.2-37.2-122.2-54.1-9.9-96.4-13.1-137-41.5-50.1-35-94-23.4-132 11.9 2.7.1 5.4.2 8.2.4 52.7 3 103.2 13.3 143.4 34.6"
        fill="#ede70a" />
    <path
        d="m140.7 78c-87 98.3-109.5 226.7-53.6 297.2-25.1-59-23.4-132.6 12-191.3 47.2-78.2 141.7-112.3 219.4-98.1-40.2-21.2-90.6-31.5-143.5-34.6-2.8-.2-5.6-.3-8.3-.4-8 7.5-16.6 16.6-26 27.2"
        fill="#dec21c" />
    <path
        d="m370.1 104c-15.7-8.9-33.1-14.9-51.6-18.3 53 28 88.2 74.9 87.8 149.8-.4 64.9-33.9 122.3-87.8 157.2 29.8-17.8 58.7-42.3 84.7-73.5 33.4-40 56.9-80.6 69.8-116.8-22.7-38.3-60.9-74.7-102.9-98.4"
        fill="#e5cb22" />
    <path
        d="m318.6 85.8c-77.6-14.2-172.2 19.9-219.4 98.1-35.4 58.7-37.2 132.3-12 191.3 7.4 17.4 17.2 33.6 29.2 47.7 24.1 3.9 50.4 5.3 77.2 5.3 47.8 0 90.6-13.2 125.1-35.5 53.9-34.9 87.4-92.3 87.8-157.2.3-74.8-35-121.8-87.9-149.7m-8.7 271.4c-59.8 38.4-139.5 21.3-178.1-38.3s-19.5-136.3 38.4-177.5c64.8-46 147.8-27.9 178.1 38.3 29.5 64.5 21.4 139.1-38.4 177.5"
        fill="#cca727" />
</svg>