<svg enable-background="new 0 0 500 500" viewBox="0 0 500 500" xmlns="http://www.w3.org/2000/svg">
    <path
        d="m361.576 406.222c-37.682-40.253-74.857-79.963-112.56-120.238-37.3 39.956-74.368 79.663-111.693 119.644-35.691-38.798-71.002-77.185-106.315-115.57-8.061-8.762-16.336-17.338-24.133-26.329-7.432-8.569-8.091-18.164-.38-26.618 43.057-47.209 86.397-94.161 130.182-141.789 37.443 39.99 74.698 79.779 112.492 120.144 37.286-39.95 74.349-79.661 111.664-119.641 39.003 42.374 77.69 84.316 116.274 126.352 26.592 28.972 26.621 29.114.098 58.069-37.252 40.668-74.659 81.194-111.994 121.787-1.161 1.261-2.25 2.588-3.635 4.189zm-145.407-155.366c-26.133-28.026-51.958-55.721-78.059-83.713-21.084 22.539-41.99 44.403-62.293 66.812-9.101 10.045-8.389 25.852.772 36.134 7.909 8.877 16.279 17.344 24.47 25.969 12.209 12.855 24.439 25.69 36.823 38.704 26.35-28.242 52.103-55.843 78.287-83.906zm143.902 83.457c21.096-22.563 42.146-44.339 62.267-66.941 8.643-9.709 9.87-22.79 1.466-32.545-20.164-23.403-41.904-45.447-63.297-68.35-26.588 28.479-52.535 56.272-78.521 84.107 26.259 28.157 51.909 55.661 78.085 83.729z"
        fill="#2d2d2d" />
</svg>