<svg enable-background="new 0 0 500 500" viewBox="0 0 500 500" xmlns="http://www.w3.org/2000/svg">
    <g fill="#e0077d">
        <circle cx="442.3" cy="207.6" r="47.2" />
        <path
            d="m112.3 238.6s40.6-31 103.1-31c70.5 0 169.1 53.6 231.5 53.6 35 0 42.5-11.2 42.5-11.2s-33.5 39-101.2 39c-75.6 0-156.2-55.6-228.5-55.6-39.8 0-47.4 5.2-47.4 5.2z" />
        <path
            d="m11.1 293.1s40.6-31 103.1-31c70.5 0 169.1 53.6 231.5 53.6 35 0 42.5-11.2 42.5-11.2s-33.5 39-101.2 39c-75.6 0-156.2-55.6-228.5-55.6-39.9.1-47.4 5.2-47.4 5.2z" />
    </g>
</svg>