<svg enable-background="new 0 0 500 500" viewBox="0 0 500 500" xmlns="http://www.w3.org/2000/svg">
    <path
        d="m457.8 198.5c0 103-78.5 187.7-179 197.5 4.8-58.7-37.8-110.7-96.3-117.4v-263l-.1-.2c24.3-10.2 50.5-15.4 76.9-15.4 109.6 0 198.5 88.9 198.5 198.5z"
        fill="#dedede" />
    <path
        d="m61.5 399.5c-3.9-33.7 8.2-67.3 32.6-90.9 35.6 53.3 96.3 88.4 165.2 88.4 6.6 0 13.1-.3 19.5-1-4.1 50.9-43.7 93.5-96.4 99.5-59.9 6.9-114-36.2-120.9-96z"
        fill="#1e4480" />
    <path
        d="m182.4 15.6v263c58.5 6.8 101.1 58.7 96.3 117.4-6.4.6-12.9.9-19.5 1-68.9 0-129.6-35.1-165.2-88.4 17.3-16.7 39.6-27.3 63.5-30h.1v-250.4l-.1-.2c8-4.8 16.3-9 24.8-12.6z"
        fill="#152e51" />
    <path
        d="m60.8 198.5c0-72.4 38.8-135.8 96.7-170.5l.1.2v250.4h-.1c-23.9 2.7-46.2 13.2-63.5 30-21.7-32.6-33.3-70.9-33.2-110.1z"
        fill="#dedede" />
</svg>