<svg enable-background="new 0 0 500 500" viewBox="0 0 500 500" xmlns="http://www.w3.org/2000/svg">
    <path clip-rule="evenodd"
        d="m143.5 44.1c28.1-27.5 73-27.5 101.1 0l66.5 65.1c28.9 28.3 28.9 74.9 0 103.2l-115.8 113.5 83.1 81.4c15.8 15.5 16.1 40.9.6 56.7s-40.9 16.1-56.7.6l-201.4-197.1c-28.9-28.4-28.9-74.9 0-103.2zm-5.6 225.7 111.2-108.9-55-53.9-111.2 108.9z"
        fill="#3ceaaa" fill-rule="evenodd" />
    <path clip-rule="evenodd"
        d="m310.7 99.1c28.1-27.5 73-27.5 101.1 0l66.5 65.1c28.9 28.3 28.9 74.9 0 103.2l-201.3 197.3c-15.8 15.5-41.2 15.2-56.7-.6s-15.2-41.2.6-56.7l83.1-81.4-59.7-58.5c-28.9-28.3-28.9-74.9 0-103.2zm50.6 170.7 55-53.9-55-53.9-55 53.9z"
        fill="#03bce4" fill-rule="evenodd" />
    <path d="m306.2 216-58.4-55.5-56.1 55.1 57.1 56.8z" fill="#00a4e1" opacity=".95" />
</svg>