<svg enable-background="new 0 0 500 500" viewBox="0 0 500 500" xmlns="http://www.w3.org/2000/svg">
    <path
        d="m169.7 131.7h.4c-42.9 0-81.6-26.1-97.7-65.9-5.1 12.6-7.8 26-7.8 39.6v290.3c1.3 57.4 48.2 103.2 105.5 103.2s104.2-45.8 105.5-103.2v-157.9c0-58.5-47.4-105.9-105.9-105.9"
        fill="#0e560e" />
    <path
        d="m272.6 1.2c-7.1-.8-14.2-1.2-21.3-1.2h-81c-43-.1-81.7 26-97.9 65.8 16.1 39.8 54.8 65.9 97.7 65.9 58.4.2 105.6 47.7 105.5 106.2v129.7c92.1-12.5 160.5-91.6 159.7-184.5-.7-93-70.5-170.9-162.7-181.9m-174.4 205.7c-2.2 0-4.3-.9-5.8-2.4-6.9-6.9-10.7-16.2-10.7-25.9s3.9-19 10.7-25.9c3.2-3.2 8.4-3.2 11.6 0s3.2 8.4 0 11.6c-7.8 7.9-7.8 20.6 0 28.5 2.4 2.4 3.1 5.9 1.8 9s-4.3 5.1-7.6 5.1m0 91.2c-2.2 0-4.2-.9-5.8-2.4-14.3-14.3-14.3-37.6 0-51.9 3.2-3.2 8.4-3.2 11.6 0s3.2 8.4 0 11.7c-7.8 7.9-7.8 20.6 0 28.5 1.6 1.5 2.4 3.6 2.4 5.8s-.9 4.3-2.4 5.8c-1.5 1.7-3.6 2.5-5.8 2.5m0 91.1c-2.2 0-4.3-.9-5.8-2.4-6.9-6.9-10.7-16.2-10.7-25.9s3.9-19 10.7-25.9c3.2-3.2 8.4-3.2 11.6 0s3.2 8.4 0 11.7c-7.8 7.9-7.8 20.6 0 28.5 2.3 2.4 3 5.9 1.7 9-1.2 3-4.2 5-7.5 5m42.1-136.7c-2.2 0-4.3-.8-5.8-2.4-14.3-14.4-14.3-37.5 0-51.9 3.2-3.2 8.4-3.2 11.7 0 1.6 1.5 2.4 3.6 2.4 5.8s-.9 4.3-2.4 5.8c-7.8 7.9-7.8 20.6 0 28.5 2.4 2.4 3.1 5.9 1.8 9-1.3 3.2-4.4 5.2-7.7 5.2m0 91.2c-2.2 0-4.3-.9-5.8-2.4-14.3-14.4-14.3-37.5 0-51.9 3.2-3.2 8.4-3.2 11.7 0 1.6 1.6 2.4 3.6 2.4 5.8s-.9 4.3-2.4 5.8c-8 7.8-8.2 20.6-.4 28.6 1.6 1.5 2.4 3.6 2.4 5.8s-.9 4.3-2.4 5.8c-1.6 1.5-3.7 2.4-5.8 2.4"
        fill="#48c148" />
</svg>