<svg enable-background="new 1000 -1000 2500 2500" viewBox="1000 -1000 2500 2500"
    xmlns="http://www.w3.org/2000/svg">
    <g fill="#5e4778">
        <path
            d="m2248.986-971.772-997.174 208.434v1382.143c0 202.362 207.323 393.594 431.835 542.332 175.935 115.348 360.032 216.535 550.164 304.563l16.176 6.109 16.176-6.109c40.453-15.175 982.012-415.855 982.012-846.896v-1382.141zm918.296 1590.577c0 301.521-648.26 620.245-918.296 726.49l-13.146-5.058-5.058-2.028-9.102-4.044-5.058-2.028-9.102-4.044-3.03-1.014-11.13-5.058-3.03-1.014-12.132-5.058-2.028-1.014-13.146-5.058h-.99l-15.174-6.109h-1.014c-134.505-59.696-309.463-147.724-463.186-250.927l-18.204-12.144-18.204-13.158-17.19-12.144-1.014-1.014-16.176-12.144-1.014-1.014-16.201-12.047-1.014-1.014-16.176-12.144-2.028-1.014-15.174-11.13-2.028-1.014-14.16-11.13-2.028-2.028-13.146-11.13-2.028-2.028-12.132-11.13-3.03-2.028-11.13-11.13-3.03-3.03-11.13-11.13-3.03-3.03-11.13-10.116-3.03-3.03-10.116-10.116-3.03-4.044-9.102-10.116-3.03-4.044-9.102-10.116-3.03-4.044-8.088-10.116-4.044-4.044-7.074-9.102-4.044-5.058-7.074-9.102-4.044-5.058-6.109-9.102-3.03-5.058-6.109-9.102-3.03-6.109c-2.028-3.03-3.03-6.109-5.058-8.1l-4.044-6.109c-1.746-2.482-3.109-5.213-4.044-8.1l-3.03-6.109c-1.014-3.03-3.03-5.058-4.044-8.1-.801-2.133-1.816-4.18-3.03-6.109-1.177-2.635-2.189-5.34-3.03-8.1-1.014-3.03-2.028-4.044-3.03-7.086-.824-2.438-1.837-4.807-3.03-7.086-1.138-2.205-1.827-4.613-2.028-7.086 0-2.028-2.028-5.058-2.028-7.086-.201-2.473-.89-4.882-2.028-7.086-1.014-2.028-1.014-4.044-2.028-7.086s-1.014-5.058-2.028-8.1c-.758-1.944-1.103-4.024-1.014-6.109 0-2.028-1.014-5.058-1.014-8.1s-1.014-4.044-1.014-6.109c-.295-3.107-.977-6.164-2.028-9.102-1.014-3.03 0-3.03 0-5.058v-1321.237l913.323-146.686h8.088l913.299 146.686 1.014 1308.286z" />
        <path
            d="m2248.986-735.005-691.731 111.303-142.617 22.261v1184.839c0 274.202 589.603 564.593 834.348 660.722 142.593-55.652 401.499-177.071 592.645-322.768 14.16-11.13 29.323-22.261 42.481-33.391 65.731-53.624 120.344-110.289 155.751-167.957 27.307-44.521 43.483-90.057 43.483-135.617v-1185.827zm-402.513 628.333h486.449v101.188h-486.449zm948.633 47.564c0 239.797-166.87 394.632-397.455 394.632h-319.579v505.911h-126.417v-620.268h428.842c171.928 0 284.184-104.217 284.184-280.275 0-174.029-112.257-275.216-282.168-275.216h-133.527l-319.579 1.014v-115.348h467.206c231.599 0 398.469 149.753 398.469 389.55" />
        <path
            d="m2248.986-971.772v135.617h4.044l913.299 146.686v1307.223c0 301.521-648.26 620.245-918.296 726.49v126.478l16.176-6.109c40.453-15.175 982.012-415.855 982.012-846.896v-1381.054z" />
        <path
            d="m2396.613 334.486h-318.541v59.684c54.153 43.262 111.641 82.174 171.928 116.374 201.25 115.348 460.156 193.26 790.865 208.434 27.307-44.521 43.483-90.057 43.483-135.617v-1184.801l-834.348-133.565-692.745 111.303c32.365 260.043 128.445 619.232 394.425 901.534v-56.666h428.842c171.928 0 284.184-104.217 284.184-280.275 0-174.029-112.256-275.216-282.168-275.216h-133.552l-319.579 1.014v-115.348h467.206c230.585 0 397.455 150.767 397.455 388.524 0 239.797-165.856 394.632-397.455 394.632m-147.627-441.169h82.873v101.188h-485.386v-101.187h402.513z" />
    </g>
    <path
        d="m2236.854 1340.237-5.058-2.028-9.102-3.03-5.058-2.028-9.102-4.044-3.03-1.014-11.13-5.058-3.03-1.014-12.132-5.058-2.028-1.014-13.146-6.109h-2.004l-15.174-6.109h-1.014c-133.491-59.696-308.461-147.724-462.184-251.942l-18.204-12.144-18.204-14.16-17.19-12.144-1.014-1.014-16.176-12.144-1.014-1.014-16.176-12.144-1.014-1.014-16.176-12.144-2.028-1.014-15.174-11.13-2.028-1.014-14.16-11.13-2.016-1.943-13.146-11.13-2.028-2.028-12.132-11.13-3.03-2.028-11.13-11.13-3.03-3.03-11.13-11.13-3.03-3.03-11.13-10.116-3.03-3.03-10.116-10.116-3.03-4.044-9.102-10.116-3.03-4.044-9.102-10.116-3.03-4.044-9.102-8.1-4.044-4.044-7.074-9.102-4.044-5.058-7.074-9.102-4.044-5.058-6.109-9.102-3.03-5.058-6.109-9.102-3.03-5.058c-2.028-3.03-3.03-6.109-5.058-8.1l-4.044-6.109-4.044-8.1-3.03-6.109c-1.014-3.03-3.03-5.058-4.044-8.1-.801-2.133-1.816-4.18-3.03-6.109-1.177-2.635-2.189-5.34-3.03-8.1-1.014-3.03-2.028-4.044-3.03-7.086-.824-2.438-1.837-4.807-3.03-7.086-1.269-2.151-1.967-4.59-2.028-7.086 0-3.03-2.028-6.109-2.028-8.1-.201-2.473-.89-4.882-2.028-7.086-1.014-2.028-1.014-4.044-2.028-7.086s-1.014-5.058-2.028-8.1c-.758-1.944-1.104-4.024-1.014-6.109 0-2.028-1.014-5.058-1.014-8.1s-1.014-4.044-1.014-6.109c-.295-3.107-.977-6.164-2.028-9.102-1.014-3.03 0-3.03 0-5.058v-1321.224l913.299-146.686h4.044v-135.617l-997.174 208.434v1382.143c0 202.362 207.323 393.594 431.835 542.332 175.935 115.348 360.032 216.535 550.164 304.563l16.176 6.109v-126.515l-13.146-5.058"
        fill="#3d3144" />
    <path
        d="m2248.986 510.543c-60.287-34.199-117.775-73.112-171.928-116.374v447.169h-126.392v-563.518c-266.004-283.305-361.07-642.505-393.411-901.521l-142.617 22.261v1184.838c0 274.202 589.603 564.593 834.348 660.722 142.593-55.652 401.499-177.071 592.645-322.768 14.16-11.13 29.323-22.261 42.481-33.391 65.731-53.624 120.344-110.289 155.751-167.957-330.709-17.203-588.601-95.115-790.865-209.448"
        fill="#3d3144" />
</svg>