<svg enable-background="new 0 0 500 500" viewBox="0 0 500 500" xmlns="http://www.w3.org/2000/svg">
    <linearGradient gradientTransform="matrix(1 0 0 -1 0 500)" gradientUnits="userSpaceOnUse" id="a"
        x1="98.6698" x2="354.9375" y1="244.2645" y2="244.2645">
        <stop offset="0" stop-color="#a3a2a5" />
        <stop offset=".2705" stop-color="#9f9ea0" />
        <stop offset=".5607" stop-color="#929194" />
        <stop offset=".8592" stop-color="#7c7c80" />
        <stop offset="1" stop-color="#707073" />
    </linearGradient>
    <linearGradient gradientTransform="matrix(1 0 0 -1 0 500)" gradientUnits="userSpaceOnUse" id="b"
        x1="96.9752" x2="279.0605" y1="274.269" y2="454.5971">
        <stop offset="0" stop-color="#969598" />
        <stop offset=".3396" stop-color="#908f92" />
        <stop offset=".7917" stop-color="#7f7f82" />
        <stop offset="1" stop-color="#757578" />
    </linearGradient>
    <linearGradient gradientTransform="matrix(1 0 0 -1 0 500)" gradientUnits="userSpaceOnUse" id="c"
        x1="111.0094" x2="208.2774" y1="276.8136" y2="83.926">
        <stop offset="0" stop-color="#9e9ea0" />
        <stop offset=".2759" stop-color="#9b9b9d" />
        <stop offset=".494" stop-color="#919194" />
        <stop offset=".6923" stop-color="#808083" />
        <stop offset=".8777" stop-color="#69696d" />
        <stop offset="1" stop-color="#55565a" />
    </linearGradient>
    <path d="m394.3 39-247.6-11.1-144.1 180.1 101 240.6 250 15.2 142.4-202.5z" fill="#45464d"
        opacity=".7" />
    <path d="m496 261.6-141.1-143-37.1 274.3z" fill="#656569" />
    <path d="m98.7 229.4 256.2-110.8-37.1 274.3z" fill="url(#a)" />
    <path d="m354.9 118.6-208.2-90.4-48 201.2z" fill="url(#b)" />
    <path d="m98.7 229.4 4.9 219.5 214.2-56z" fill="url(#c)" />
    <path d="m354.9 118.6 39.4-79.4-247.6-11z" fill="#757578" />
    <path d="m394.3 39.2 101.7 222.4-141.1-143z" fill="#6c6d70" />
    <path d="m496 261.6-142.4 202.4-35.8-71.1z" fill="#6c6d70" />
    <path d="m353.6 464-250-15.1 214.2-56z" fill="#55565a" />
    <path d="m146.7 28.2-144.1 180 96.1 21.2z" fill="#55565a" />
    <path d="m2.6 208.2 101 240.7-4.9-219.5z" fill="#656569" />
    <path d="m328.7 156.3-26 196.7-153.1-118.4z" fill="#151a22" opacity=".7" />
    <path d="m308 117.1-143.1-61.6-30.1 129.6z" fill="#151a22" opacity=".7" />
    <path d="m271.7 382.8-155.5-111.1 3.7 150.6z" fill="#23262e" opacity=".7" />
    <path d="m469.8 261.1-105.9-107.6-28 206.9z" fill="#23262e" opacity=".7" />
    <path d="m308.2 407 23.1 44.2-154.3-9.9z" fill="#43444b" opacity=".7" />
    <path d="m449.1 309.9-114.8 85.6 22.8 44.6z" fill="#34363d" opacity=".7" />
    <path d="m394.8 70.3 60.7 130.2-83-84.4z" fill="#34363d" opacity=".7" />
    <path d="m367 48.4-25.5 46.7-120.2-52.7z" fill="#36383f" opacity=".7" />
    <path d="m126.3 69.5-33.9 143.5-68.2-14.5z" fill="#3b3c43" opacity=".7" />
    <path d="m88.3 238.3 3 154.1-71.6-168.6z" fill="#45464d" opacity=".7" />
</svg>