<svg enable-background="new 0 0 500 500" viewBox="0 0 500 500" xmlns="http://www.w3.org/2000/svg">
    <path
        d="m494.8 249.6c0 67.8-27.6 129.2-72.1 173.6-44.3 44.1-105.4 71.4-172.9 71.4s-128.6-27.3-172.9-71.4c-44.6-44.4-72.2-105.8-72.2-173.6 0-135.3 109.7-245 245-245 135.4-.1 245.1 109.6 245.1 245z"
        fill="#ff6766" />
    <path
        d="m494.8 249.6c0 135.3-109.7 245-245 245-67.6 0-128.7-27.3-173-71.5l346.4-346.6c44.2 44.3 71.6 105.5 71.6 173.1z"
        fill="#d95e59" />
    <path
        d="m422.7 423.2c-44.3 44.1-105.4 71.4-172.9 71.4s-128.6-27.3-172.9-71.4c44.3-44.1 105.4-71.4 172.9-71.4s128.5 27.2 172.9 71.4z"
        fill="#fef4c8" />
    <circle cx="250" cy="119.6" fill="#016273" r="30.7" />
    <path
        d="m250 89c16.9 0 30.7 13.7 30.7 30.7s-13.7 30.7-30.7 30.7-30.7-13.7-30.7-30.7 13.7-30.7 30.7-30.7m0-30.8c-33.9 0-61.5 27.6-61.5 61.5s27.6 61.5 61.5 61.5 61.5-27.6 61.5-61.5-27.6-61.5-61.5-61.5z"
        fill="#fff" />
</svg>