<svg enable-background="new 1000 -1000 2500 2500" viewBox="1000 -1000 2500 2500"
    xmlns="http://www.w3.org/2000/svg">
    <path
        d="m3596.077 542c0 676.684-548.393 1225.077-1225.077 1225.077s-1225.077-548.393-1225.077-1225.077 548.393-1225.077 1225.077-1225.077 1225.077 548.393 1225.077 1225.077z"
        fill="#393534" transform="translate(-121 -292)" />
    <path
        d="m3451.59 550.516c0 592.033-480.041 1072.074-1072.074 1072.074s-1072.074-480.042-1072.074-1072.074 480.041-1072.074 1072.074-1072.074 1072.074 480.041 1072.074 1072.074z"
        fill="#f2f2f2" transform="translate(-119 -290)" />
    <path
        d="m2776.666 235.412-769.748 787.099-16.825-317.048 464.267-470.051 192.437-199.798 124.611-41.011 90.435 23.66 84.651 70.455-102.002 117.25z"
        fill="#fff" transform="translate(-110.56 -283.616)" />
    <g fill="#e1ded9">
        <path
            d="m2837.957 256.144-154.055 158.787h233.448l26.289-26.815c18.402-18.928 33.124-42.063 43.114-66.775 9.99-25.238 14.722-52.053 14.722-78.868 0-53.63-19.98-104.631-55.733-143.539l-106.208 110.415c5.784 6.309 8.413 15.248 8.413 23.66-.527 8.413-4.207 16.826-9.99 23.135z"
            transform="translate(-101.969 -282.328)" />
        <path d="m2212.342 914.29-125.663 130.394h233.448l126.714-130.394z"
            transform="translate(-109.362 -272.234)" />
        <path d="m2273.162 850.739h233.448l139.333-144.591h-233.448z"
            transform="translate(-107.056 -274.811)" />
        <path d="m2856.322 488.019h-233.448l-149.323 154.055h233.448z"
            transform="translate(-104.571 -277.511)" />
    </g>
    <path
        d="m2941.888 43.443c-24.186-25.238-53.104-45.217-84.651-58.888s-65.723-20.506-99.899-20.506-68.352 6.835-99.899 20.506c-31.547 13.67-60.465 34.176-84.651 59.414l-604.652 624.632c-5.784 6.835-9.464 15.773-8.938 24.712v321.78l-166.674 174.034h91.486l123.559-127.766h309.161c4.206 0 8.413-.526 12.619-2.629 3.681-1.577 7.361-4.732 9.99-7.887l600.971-622.528 1.052-1.052c48.898-51.001 76.239-119.879 75.713-191.385.526-35.753-6.309-70.981-19.454-103.58-12.093-34.175-31.547-63.619-55.733-88.857zm-351.224 72.559 26.289-26.815c37.331-38.382 87.806-59.939 140.385-59.939 52.578 0 103.054 21.557 140.384 59.939 1.052 1.052 1.052 2.103 2.103 2.103 35.753 38.908 55.733 90.961 55.733 145.116-.526 54.156-21.031 105.683-57.836 144.065l-26.289 26.815h-233.448l153.003-158.787c5.784-5.784 9.464-14.196 9.464-22.609 0-8.412-2.629-16.825-8.413-23.134-1.052-1.052-1.052-1.052-1.052-2.103-5.784-6.309-14.196-9.464-22.609-9.464s-16.825 3.681-22.609 9.464l-155.106 160.89zm-519.474 878.585 125.662-130.394h233.448l-125.662 130.394zm366.471-380.142 149.323-155.106h233.448l-149.323 155.106zm182.447 52.578-139.333 144.591h-233.448l139.333-144.591zm-229.767-343.863 149.323-155.106v245.541l-149.323 155.106zm-190.334 197.17 139.333-144.591v245.541l-139.333 144.59zm-177.715 184.55 127.766-131.446v245.541l-127.766 131.446"
        fill="#393534" transform="translate(-113 -284)" />
</svg>