<svg enable-background="new 0 0 500 500" viewBox="0 0 500 500" xmlns="http://www.w3.org/2000/svg">
    <path
        d="m322.6 16.5v91c0 29.5-24.4 53.4-54.5 53.4h-.8c-15.1-.1-28.7 0-28.7 0-2.6 0-5.4-.3-7.9 0-16.9 1.7-31.7 9.3-44 22.7-.4.3-.7.8-1 1.1-10 12.6-15.4 29-15.4 46.7v.9c0 11.3 2.4 22.2 6.7 31.9s2.1 21-6.2 27.7c-8.1 6.7-17.7 14.5-24.2 19.6-18.8-21-29.8-48.3-29.8-78.2v-.9c0-65 53-119.3 125.1-119.3h26v-106.4c-5.7-.4-11.7-.7-17.6-.7-137.3 0-248.6 109.2-248.6 244 0 110.1 74.3 203.1 176.3 233.4v-90.3c0-29.8 24.6-54 55-54h.3c15.1.1 28.7 0 28.7 0 2.6 0 5.4.3 7.9 0 16.9-1.7 31.7-9.3 44-22.7.4-.3.7-.8 1-1.1 10-12.6 15.4-29 15.4-46.7v-.9c0-8.8-3.8-20.7-7.6-30.2-4.2-10.7-1-22.9 7.9-30.1 7.7-6.3 15.5-12.6 23.3-18.7 18.8 21 29.8 48.3 29.8 78.2v.9c0 65-53 119.3-125.1 119.3-4.5 0-19.2 0-26 0v106.3c5.8.4 11.7.7 17.7.7 137.3 0 248.6-109.2 248.6-244 0-110.2-74.3-203.2-176.3-233.6z"
        fill="#1d8aed" />
</svg>