<svg enable-background="new 0 0 500 500" viewBox="0 0 500 500" xmlns="http://www.w3.org/2000/svg">
    <path clip-rule="evenodd"
        d="m452.4 64.6c-31.5-31.8-71.6-47.7-120-47.7h-198.5v125 66.7c43.3 13.8 74.7 54.3 74.7 102.1 0 47.9-31.4 88.4-74.7 102.1v70.8h108v-129.4h90.8c48.4 0 88.5-15.9 120-47.7s47.4-72.1 47.4-120.9c-.1-49-16-89.2-47.7-121zm-82.9 179c-14 15.1-31.8 22.7-53.7 22.7h-74v-161.3h74c21.8 0 39.6 7.6 53.7 22.7 14 15.1 20.9 34.4 20.9 58 .2 23.5-7 42.8-20.9 57.9z"
        fill-rule="evenodd" />
    <path
        d="m78.2 389.7c43.2 0 78.2-35 78.2-78.2s-35-78.2-78.2-78.2-78.2 35-78.2 78.2 35 78.2 78.2 78.2z"
        fill="#ff3465" />
</svg>