<svg enable-background="new 0 0 500 500" viewBox="0 0 500 500" xmlns="http://www.w3.org/2000/svg">
    <path d="m448.198 98.709 36.739-1.722-34.299 9.472z" fill="#5d6cac" />
    <path d="m448.198 98.709-44.919 31.716 47.359-23.966z" fill="#495692" />
    <path d="m450.638 106.459-47.359 23.966 20.092 14.638z" fill="#3f4b80" />
    <path d="m403.279 130.425-41.474-3.444 61.566 18.082z" fill="#313a62" />
    <path d="m423.371 145.063-19.087 11.481-42.479-29.563z" fill="#3f4b80" />
    <path d="m423.371 145.063 8.754 8.18-27.841 3.301z" fill="#313a62" />
    <path d="m404.284 156.544 27.841-3.301 32.003-4.162 9.615 7.463z" fill="#495692" />
    <path d="m404.284 156.544 20.522 14.638 48.937-14.638z" fill="#4f60a3" />
    <path d="m464.128 149.081 27.841-24.253-18.226 31.716z" fill="#3f4b80" />
    <path d="m491.969 124.828 5.704 2.153-23.93 29.563z" fill="#4f60a3" />
    <path d="m491.969 124.828 4.592-13.92 1.112 16.073z" />
    <path d="m424.806 171.182 15.145-4.53 6.955 22.612z" fill="#313a62" />
    <path d="m446.906 189.264 3.014 61.709-27.697 12.773z" fill="#313a62" />
    <path d="m446.906 189.264-22.1-18.082-2.583 92.564z" fill="#3f4b80" />
    <path d="m424.806 171.182-49.08 63.431 46.497 29.133z" fill="#495692" />
    <path d="m424.806 171.182-55.969 5.31 6.889 58.121z" fill="#3f4b80" />
    <path d="m424.806 171.182-63.001-44.201 7.032 49.511z" fill="#4b5897" />
    <path d="m368.837 176.492-9.328 40.972 16.217 17.149z" fill="#313a62" />
    <path d="m368.837 176.492-7.032-49.511-59.269-30.578z" fill="#313a62" />
    <path d="m368.837 176.492-9.328 40.972-56.973-121.061z" fill="#3f4b80" />
    <path d="m359.509 217.464-91.416-114.019 34.443-7.042z" fill="#4b5897" />
    <path d="m268.093 103.445-7.319 75.917 98.735 38.102z" fill="#5161a4" />
    <path d="m260.774 179.362-10.189 68.167 108.924-30.065z" fill="#4b5897" />
    <path d="m359.509 217.464-49.367 23.177-59.557 6.888z" fill="#3f4b80" />
    <path d="m310.142 240.641 49.367-23.177-1.579 23.177z" fill="#5161a4" />
    <path d="m310.142 240.641 17.364 46.066 30.424-46.066z" fill="#4b5897" />
    <path d="m310.142 240.641-9.042 40.9 26.406 5.166z" fill="#3f4b80" />
    <path d="m301.1 281.541-11.767 21.957 38.173-16.791z" fill="#4b5897" />
    <path d="m301.1 281.541-34.442 37.169 22.675-15.212z" fill="#313a62" />
    <path d="m301.1 281.541-27.553 2.009-6.889 35.16z" fill="#3f4b80" />
    <path d="m310.142 240.641-58.552 27.267-1.005-20.379z" fill="#313a62" />
    <path d="m250.585 247.529-60.561 10.046 61.566 10.333z" fill="#3f4b80" />
    <path d="m250.585 247.529-91.272-53.816 101.461-14.351z" fill="#3f4b80" />
    <path d="m260.774 179.362 7.319-75.917-108.78 90.268z" fill="#4b5897" />
    <path d="m159.313 193.713 91.272 53.816-60.561 10.046z" fill="#4b5897" />
    <path d="m159.313 193.713 30.711 63.862-29.276 21.957z" fill="#313a62" />
    <path d="m159.313 193.713-39.466 90.411 40.901-4.592z" fill="#3f4b80" />
    <path d="m159.313 193.713-51.52 17.221 12.054 73.19z" fill="#4b5897" />
    <path d="m107.793 210.934-21.383 22.818 33.437 50.372z" fill="#5161a4" />
    <path d="m119.847 284.124 40.901-4.592-18.369 29.85z" fill="#313a62" />
    <path d="m119.847 284.124-51.233 55.108 73.765-29.85z" fill="#4b5897" />
    <path d="m119.847 284.124-33.437 6.458-17.796 48.65z" fill="#313a62" />
    <path d="m119.847 284.124-33.437-50.372v56.83z" fill="#3f4b80" />
    <path d="m86.41 233.752-38.461.574 38.461 23.249z" fill="#313a62" />
    <path d="m86.41 257.575-35.16-7.565-3.301-15.684z" fill="#3f4b80" />
    <path d="m47.949 234.326-18.8 35.017 22.101-19.333z" fill="#4b5897" />
    <path d="m51.25 250.01-22.101 19.333-1.578 11.624z" fill="#5161a4" />
    <path d="m29.149 269.343-26.119 7.749 24.541 3.875z" fill="#313a62" />
    <path d="m68.614 339.232 27.396-11.086-23.808 49.547z" fill="#3f4b80" />
    <path d="m68.614 339.232-10.332 44.632 13.92-6.171z" fill="#1f243e" />
    <path d="m72.202 377.693-13.92 6.171-11.051 18.733z" fill="#313a62" />
    <path d="m72.202 377.693 3.588 18.799-28.559 6.105z" fill="#3f4b80" />
</svg>