<svg enable-background="new 0 0 500 500" viewBox="0 0 500 500" xmlns="http://www.w3.org/2000/svg">
    <g clip-rule="evenodd" fill-rule="evenodd">
        <path
            d="m323.8 81.8c-6.4-6.4-15-9.9-24-9.9h-.1c-9 0-17.7 3.6-24 10.1l-265.8 266.9c-6.4 6.4-10 15.1-9.9 24.1 0 9.1 3.6 17.6 10 24.1 6.4 6.4 15 9.9 24 9.9 9.1 0 17.7-3.6 24.2-10l265.7-266.9c13.2-13.5 13.1-35-.1-48.3z"
            fill="#2db8e3" />
        <path
            d="m478 75.1c-12.7-5.3-27.4-2.4-37.1 7.5l-265.7 267c-13.3 13.3-13.2 34.9.1 48.2 13.3 13.2 34.9 13.2 48.2-.1l207.5-208.4v184.4c0 18.8 15.3 34 34.1 34.1 18.8 0 34-15.3 34.1-34.1v-267.1c-.1-13.8-8.4-26.3-21.2-31.5z"
            fill="#3840c7" />
    </g>
</svg>