<svg enable-background="new 0 0 500 500" viewBox="0 0 500 500" xmlns="http://www.w3.org/2000/svg">
    <linearGradient gradientTransform="matrix(1 0 0 -1 0 502)" gradientUnits="userSpaceOnUse" id="a"
        x1="250" x2="250" y1="502" y2="2">
        <stop offset="0" stop-color="#7e46f2" />
        <stop offset="1" stop-color="#46279a" />
    </linearGradient>
    <circle cx="250" cy="250" fill="url(#a)" r="250" />
    <path
        d="m261.3 68.4c56.7 0 102.7 46.8 102.7 104.4v60.1c0 57.7-46 104.4-102.7 104.4-8.9 0-17.6-1.2-25.8-3.3v7.1c0 42.2-33.8 76.5-75.8 77.2h-1.3v-229.8h.1v-15.7c0-57.6 46-104.4 102.8-104.4zm0 78.3c-14.2 0-25.7 11.7-25.7 26.1v60.1c0 14.4 11.5 26.1 25.7 26.1s25.7-11.7 25.7-26.1v-60.1c-.1-14.4-11.6-26.1-25.7-26.1z"
        fill="#fff" />
</svg>