<svg enable-background="new 0 0 500 500" viewBox="0 0 500 500" xmlns="http://www.w3.org/2000/svg">
    <g fill="#00cdd7">
        <path d="m166.7 83.3 83.4-83.4 83.4 83.4-83.4 83.4z" opacity=".73" />
        <path d="m166.7 416.6 83.4-83.4 83.4 83.4-83.4 83.4z" opacity=".43" />
        <path d="m94.4 352.6 113.9-30.5 30.5 113.9-113.9 30.5z" opacity=".48" />
        <path d="m261 64 114-30.5 30.5 113.9-113.9 30.5z" opacity=".18" />
        <path d="m33.4 375 30.5-113.9 113.9 30.5-30.5 113.9z" opacity=".53" />
        <path d="m322 208.2 30.5-113.9 113.9 30.5-30.5 113.9z" opacity=".23" />
        <path d="m0 250 83.4-83.4 83.4 83.4-83.4 83.4z" opacity=".58" />
        <path d="m333.2 249.8 83.4-83.4 83.4 83.4-83.4 83.4z" opacity=".28" />
        <path d="m33.3 124.9 113.9-30.5 30.5 113.9-113.9 30.5z" opacity=".63" />
        <path d="m321.9 291.6 113.9-30.5 30.5 113.9-113.9 30.5z" opacity=".33" />
        <path d="m94.4 147.4 30.5-113.9 113.9 30.5-30.5 113.9z" opacity=".68" />
        <path d="m261.1 436 30.5-113.9 113.9 30.5-30.5 113.9z" opacity=".38" />
    </g>
</svg>