<svg enable-background="new 0 0 500 500" viewBox="0 0 500 500" xmlns="http://www.w3.org/2000/svg">
    <linearGradient gradientTransform="matrix(1 0 0 -1 0 502)" gradientUnits="userSpaceOnUse" id="a"
        x1="250" x2="250" y1="-10.3052" y2="502">
        <stop offset="0" stop-color="#a32ccd" />
        <stop offset="1" stop-color="#fe453d" />
    </linearGradient>
    <circle cx="250" cy="250" fill="url(#a)" r="250" />
    <g fill="#fff">
        <path d="m250 269.5 160.2-36.2c-8.4-80.7-76.9-143.5-160.2-143.5s-151.8 62.8-160.2 143.5z" />
        <path
            d="m93 284.9c2.2 10.6 5.8 20.8 10.2 30.4l147 9.6 147-9.6c4.5-9.6 7.7-19.9 10.2-30.4l-157 12.2z" />
        <path d="m171.5 389.7c23.4 12.8 50 20.5 78.5 20.5s55.4-7.4 78.5-20.5z" />
        <path
            d="m250 348-130.7-4.5c6.7 9.6 14.7 18.3 23.4 25.9h214.6c8.6-7.7 16.7-16.3 23.4-25.9z" />
    </g>
</svg>