<svg enable-background="new 0 0 500 500" viewBox="0 0 500 500" xmlns="http://www.w3.org/2000/svg">
    <path
        d="m76.2 304.8-57-67.9c-11.6-14-10.2-34.7 3.3-46.9l197.1-178c13-11.7 32.9-11.1 45.1 1.3l61.7 62.8c4.8 4.9 12.6 5.1 17.7.6l59.7-53.2c8.3-7.4 21-6.7 28.5 1.6l15.4 17.3c7.4 8.3 6.7 21-1.6 28.5l-99.3 88.6c-8.2 7.3-20.7 6.9-28.4-.9l-68.3-69.6c-5.5-5.6-14.4-5.8-20.2-.6l-133.2 120.2c-5.8 5.2-6.4 14.1-1.4 20.1l29.6 35.3c7.2 8.5 6 21.2-2.5 28.4l-17.8 14.9c-8.5 7.1-21.2 6-28.4-2.5z"
        fill="#43878d" />
    <path
        d="m422.7 194.4 57 67.9c11.7 13.9 10.3 34.6-3.2 46.8l-197.1 178c-13 11.7-32.9 11.1-45.1-1.3l-61.7-62.8c-4.8-4.9-12.6-5.1-17.7-.6l-59.7 53.2c-8.3 7.4-21 6.7-28.5-1.6l-15.4-17.3c-7.4-8.3-6.7-21 1.6-28.5l99.3-88.6c8.2-7.3 20.7-6.9 28.4.9l68.4 69.6c5.5 5.6 14.4 5.8 20.2.6l133.1-120.2c5.8-5.2 6.4-14.1 1.4-20.1l-29.6-35.3c-7.2-8.5-6-21.2 2.5-28.4l17.8-14.9c8.5-7.1 21.2-6 28.3 2.6z"
        fill="#74c2c2" />
</svg>