<svg xmlns:xlink="http://www.w3.org/1999/xlink" enable-background="new 0 0 500 500"
    viewBox="0 0 500 500" xmlns="http://www.w3.org/2000/svg">
    <linearGradient id="a">
        <stop offset="0" stop-color="#118ebe" />
        <stop offset=".9995" stop-color="#254562" />
    </linearGradient>
    <linearGradient gradientUnits="userSpaceOnUse" id="b" x1="249.8334" x2="249.8334" y1="3.0001"
        y2="495.7768" xlink:href="#a" />
    <linearGradient gradientUnits="userSpaceOnUse" id="c" x1="209.8714" x2="209.8714" y1="95.1512"
        y2="405.8476" xlink:href="#a" />
    <path
        d="m3 496.667c0-164.555 0-329.111 0-493.667h493.667v493.667c-164.556 0-329.111 0-493.667 0zm435.585-435.472c-126.57 0-251.701 0-377.231 0v376.707h377.231c0-125.981 0-250.807 0-376.707z"
        fill="url(#b)" />
    <path
        d="m97.597 98.034c1.283-.062 94.038-.946 121.635-.991 50.347-.082 94.766 39.567 101.673 90.63 5.288 39.097-6.259 73.069-36.122 99.726-17.098 15.262-37.618 21.93-60.45 21.822-15.214-.072-30.428-.014-47.035-.014v94.191c-27.215 0-52.972 0-79.701 0 0-101.633 0-202.666 0-305.364zm80.555 72.441v65.015c15.351 0 29.523.335 43.659-.232 3.605-.144 7.751-2.427 10.525-4.958 11.26-10.271 11.168-43.458-.157-53.688-3.102-2.802-7.459-5.665-11.372-5.861-14.037-.704-28.131-.276-42.655-.276z"
        fill="url(#c)" />
    <path d="m402.191 346.071v56.229c-62.686 0-124.846 0-187.778 0 0-18.699 0-37.087 0-56.229z"
        fill="#f36f1f" />
</svg>