<svg enable-background="new 0 0 500 500" viewBox="0 0 500 500" xmlns="http://www.w3.org/2000/svg">
    <path clip-rule="evenodd"
        d="m136 117.6h228c13 0 20.5 14.7 12.8 25.2l-108.5 149.2c-7.6 10.5-.1 25.2 12.8 25.2h95.6c5.1 0 9.8-2.4 12.8-6.5l107.5-147.6c4-5.6 4-13.1 0-18.7l-94.1-129.4c-3-4.1-7.8-6.5-12.8-6.5h-280.1c-5.1 0-9.8 2.4-12.8 6.5l-94.2 129.4c-4 5.6-4 13.1 0 18.7l234.2 321.9c6.3 8.7 19.3 8.7 25.7 0l47.8-65.8c4-5.6 4-13.1 0-18.7l-187.6-257.7c-7.6-10.5-.1-25.2 12.9-25.2z"
        fill="#5294ff" fill-rule="evenodd" />
</svg>