<svg enable-background="new 2000 0 500 500" viewBox="2000 0 500 500"
    xmlns="http://www.w3.org/2000/svg">
    <linearGradient gradientTransform="matrix(5.4865 0 0 -5.4865 -8973.0293 2743.2712)"
        gradientUnits="userSpaceOnUse" id="a" x1="2045.5558" x2="2045.5558" y1="409.4511"
        y2="481.7234">
        <stop offset=".13" stop-color="#0987fb" />
        <stop offset=".14" stop-color="#0989fb" />
        <stop offset=".53" stop-color="#05a3fd" />
        <stop offset=".87" stop-color="#00c7ff" />
    </linearGradient>
    <path
        d="m2235.634 118.978c-87.902 5.563-129.098 68.416-136.346 80.827h-.659c-9.247.008-16.736 7.51-16.728 16.757.003 3.222.935 6.375 2.686 9.08-2.398 4.504-12.044 24.357-14.204 56.049l-22.337-21.981c-4.352-3.987-5.866-10.207-3.834-15.748 25.794-80.913 87.427-120.22 87.427-120.22 8.388 3.862 18.319.193 22.181-8.195.764-1.66 1.251-3.435 1.442-5.253 95.052-43.649 175.534-9.041 192.362-.734.008 9.252 7.514 16.747 16.767 16.74 2.771-.002 5.497-.692 7.936-2.006 10.257 7.206 19.782 15.4 28.44 24.465l-21.841 21.84c-38.572-43.152-96.651-51.177-113.188-52.614-4.298-8.18-14.414-11.327-22.594-7.029-3.336 1.752-5.982 4.579-7.51 8.022zm152.17 252.029c-2.774 2.968-2.617 7.623.351 10.397 1.369 1.28 3.175 1.989 5.05 1.982h61.341v10.261c.006 30.12-24.406 54.541-54.526 54.547-.007 0-.014 0-.022 0h-298.118c-30.12.006-54.541-24.406-54.547-54.526 0-.007 0-.014 0-.022v-10.261l59.591-.086c3.154.047 6.032-1.794 7.312-4.677 1.334-2.985.675-6.485-1.653-8.782l-97.213-96.295c-10.24-10.133-13.988-25.125-9.721-38.885 15.122-48.714 65.63-158.457 216.655-181.82 0 0 111.254-14.042 189.025 55.087 0 0 70.134 55.303 84.251 135.018 1.847 10.445-1.458 23.018-8.998 30.471zm-323.2 25.34c0 20.283 16.442 36.725 36.725 36.725h298.119c20.282 0 36.725-16.442 36.725-36.725zm404.718-128.277c6.457-6.406 8.898-15.828 6.362-24.562-8.458-28.894-33.484-93.119-94.631-134.467-.274-9.219-7.969-16.47-17.188-16.196-2.71.081-5.36.82-7.72 2.154-105.281-50.907-193.929-7.345-207.614.054-7.418-5.5-17.89-3.946-23.39 3.472-2.14 2.885-3.293 6.383-3.289 9.975.003 1.033.101 2.063.292 3.078l-.292-.378c-62.4 39.965-86.314 104.666-95.495 131.777-2.607 7.692-.603 16.197 5.163 21.916l112.508 113.609c3.297 3.336 8.643 3.465 12.097.292 3.55-3.261 3.783-8.782.522-12.332-.1-.108-.202-.214-.306-.317l-6.967-10.121c-23.201-41.769-14.657-81.227-4.029-104.601l35.04 21.095c-15.896 39.259 3.042 83.97 42.301 99.867 39.259 15.896 83.97-3.042 99.867-42.301 13.062-32.258 2.765-69.267-25.08-90.143l19.691-34.132c22.445 17.628 78.44 73.45 28.354 162.118-2.524 4.05-1.287 9.38 2.764 11.904 3.487 2.173 8.022 1.59 10.846-1.394zm-58.263-107.928-27.004 27.835c-3.038 3.145-8.051 3.231-11.195.192-.132-.128-.26-.261-.384-.398-12.638-14.15-47.829-46.511-108.489-51.501-5.794 7.199-16.326 8.338-23.525 2.544-.98-.789-1.868-1.686-2.647-2.674-22.34 1.621-44.11 7.804-63.966 18.168l14.226 26.777c.405.764 1.353 1.055 2.117.65.014-.008.029-.016.043-.024 68.622-37.535 133.635 6.157 133.635 6.157 84.251 58.328 56.167 144.739 56.167 144.739l34.943-34.932c2.085-32.404-8.35-56.221-12.648-64.484-9.251-.496-16.348-8.398-15.852-17.649s8.398-16.348 17.649-15.852 16.348 8.398 15.852 17.649c-.149 2.773-.984 5.466-2.43 7.837 9.419 17.52 13.653 44.923 14.949 54.968l23.601-23.59c3.068-3.068 3.089-7.561 1.739-11.73-12.227-37.22-30.103-64.969-46.781-84.682zm-220.176 40.527c-4.267 2.334-9.618.785-11.979-3.467l-18.924-34.748c-18.608 12.308-34.308 28.527-46.003 47.526 3.614 8.491-.339 18.305-8.831 21.919-1.284.547-2.632.93-4.012 1.142-10.65 15.727-14.366 48.52-15.543 63.599l34.813 34.219c-3.888-19.227-11.547-79.93 34.327-123.136.919-.86 2.356-.832 3.24.065l9.581 9.57c.908.914.904 2.391-.01 3.299-.032.032-.065.062-.098.092-5.674 5.079-10.647 10.891-14.787 17.282l34.813 21.052c21.071-31.942 62.463-43.465 97.008-27.004l20.004-34.651c-49.535-26.312-96.176-6.243-113.599 3.241zm-91.715 6.654c-5.369 0-9.721 4.352-9.721 9.721s4.352 9.721 9.721 9.721 9.721-4.352 9.721-9.721c.001-5.369-4.352-9.721-9.721-9.721zm39.966-108.014c-5.369 0-9.721 4.352-9.721 9.721s4.353 9.721 9.721 9.721 9.721-4.352 9.721-9.721-4.352-9.721-9.721-9.721zm112.335 17.282c-5.369 0-9.721 4.352-9.721 9.721s4.353 9.721 9.721 9.721 9.721-4.352 9.721-9.721-4.353-9.721-9.721-9.721zm113.414-17.282c-5.369 0-9.721 4.352-9.721 9.721s4.353 9.721 9.721 9.721 9.721-4.352 9.721-9.721-4.352-9.721-9.721-9.721zm38.885 108.014c-5.369 0-9.721 4.352-9.721 9.721s4.352 9.721 9.721 9.721 9.721-4.352 9.721-9.721c.001-5.369-4.352-9.721-9.721-9.721z"
        fill="url(#a)" />
</svg>