<svg enable-background="new 0 0 500 500" viewBox="0 0 500 500" xmlns="http://www.w3.org/2000/svg">
    <path
        d="m432 415.4c0 9.7-8.8 17.6-18.5 17.6 0 0-270.7 0-271.5 0-9.7 0-18.5-7.9-18.5-18.5v-6.2c0-.9.9-13.2 8.8-28.2 13.2-24.7 37.9-42.3 73.2-54.7l108.4-36.1c2.6-.9 24.7-8.8 45.8-27.3 30-25.6 45.8-60 46.7-98.7l7.9 5.3c17.7 11.4 17.7 31.6 17.7 32.5zm-92.6-253.1c0 19.4-7.1 35.3-21.2 48.5-11.5 10.6-23.8 15-24.7 15.9l-108.4 36.1c-64.3 21.2-96.1 58.2-111 85.6-2.6 5.3-5.3 10.6-7.1 15.9 0 .9-.9.9-.9 1.8v-164.1c0-19.4 15-30.9 17.6-32.6l148.1-97c16.8-11.5 34.4 0 34.4 0l73.2 48.5zm159.6 249.5v-209.8c0-9.7-2.6-58.2-47.6-88.2l-44.1-29.1v-66.1c0-10.6-8.8-18.5-18.5-18.5h-29.1c-10.6 0-18.5 7.9-18.5 18.5v22l-37-24.7c-27.3-17.6-70.5-24.7-108.4 0l-148.2 97.1c-8.8 5.2-47.6 34.3-47.6 88.1v209.9c0 20.3 4.4 37 14.1 51.1 7.1 11.5 17.6 20.3 30 26.4 22 10.6 43.2 11.5 44.1 11.5h323.6c.9 0 22 0 44.1-11.5 13.2-6.2 22.9-15 30.9-26.4 7.8-13.2 12.2-30 12.2-50.3"
        fill="#38a6fa" />
</svg>