<svg enable-background="new 0 0 500 500" viewBox="0 0 500 500" xmlns="http://www.w3.org/2000/svg">
    <linearGradient gradientTransform="matrix(1 0 0 -1 0 501)" gradientUnits="userSpaceOnUse" id="a"
        x1="259.3495" x2="541.2426" y1="65.5111" y2="326.2677">
        <stop offset="0" stop-color="#0ff" />
        <stop offset="1" stop-color="#5900f7" stop-opacity="0" />
    </linearGradient>
    <linearGradient gradientTransform="matrix(1 0 0 -1 0 501)" gradientUnits="userSpaceOnUse" id="b"
        x1="-85.3902" x2="267.933" y1="152.7325" y2="445.8681">
        <stop offset="0" stop-color="#5900f7" stop-opacity="0" />
        <stop offset="1" stop-color="#fff" />
    </linearGradient>
    <path
        d="m384.9 117.1-1.4-1.4c-.7-.7-.7-.7-1.4-1.4l-72.7 73.3 1.4 1.4 1.4 1.4c81.9 83.3 98.3 171.7 74.1 196.1-8.5 8.6-23.5 10.8-34.2 10.1-46.3-.7-109-33.8-160.3-84.8l-1.4-1.4c-.7-.7-.7-.7-1.4-1.4l-72.7 73.3 1.4 1.4 1.4 1.4c71.3 71.1 157.5 114.2 230.9 114.9h2.9c42.7 0 79.1-14.4 105.4-40.9 39.2-39.5 50.6-99.8 31.3-169.5-15.7-59-53.4-120.8-104.7-172.5z"
        fill="url(#a)" />
    <path
        d="m105 147.3c0-10.8 1.4-25.9 10-34.5 7.1-7.2 18.5-10.1 32.8-10.1 10.7 0 22.8 2.2 35.6 5.7 41.3 11.5 86.9 40.2 126.1 79.7l72.7-73.3c-52-51.7-112.5-89.1-170.9-105.6-69.3-19.2-129.1-8.4-169 31.8-27.1 27.3-40.6 64.6-40.6 109.2 1.4 74.7 43.5 161.6 114 233.5l73.4-75.4c-50.6-51.1-83.4-114.3-84.1-161z"
        fill="url(#b)" />
</svg>