<svg enable-background="new 0 0 500 500" viewBox="0 0 500 500" xmlns="http://www.w3.org/2000/svg">
    <g fill="#005cc7">
        <path
            d="m105.7 338.8v54.7h54.8v-13.7h75.3v120.1c-126.2-6.8-229-110.3-235.8-236.3h120.4v74.2z" />
        <path
            d="m338.6 379.8v13.7h54.8v-54.7h-13.7v-74.2h120.3c-6.8 126-110.6 228.5-236.8 235.3v-120.1z" />
        <path
            d="m235.8 123h103.7v-16.6h54.8v60.6h-54.8v-16.6h-103.7v113.3l117.4 1v74.2h-13.7v13.7h-179v-13.7h-12.7v-177.8h13.7v-54.7h-54.8v54.7h13.7v74.2h-120.4c6.8-125.9 110.6-228.5 235.8-235.3z" />
    </g>
</svg>