<svg enable-background="new 0 0 500 500" viewBox="0 0 500 500" xmlns="http://www.w3.org/2000/svg">
    <linearGradient gradientUnits="userSpaceOnUse" id="a" x1="36.7371" x2="463.8049" y1="120.1894"
        y2="383.1314">
        <stop offset="0" stop-color="#de3925" />
        <stop offset="1" stop-color="#f17f0b" />
    </linearGradient>
    <path
        d="m227.394 425.164c15.614-9.388 30.826-8.775 45.815 1.141 40.431-21.919 80.714-43.757 121.144-65.675-.199-17.533 7.245-30.509 22.639-38.726 0-46.986 0-93.808 0-139.43-5.352-4.927-10.427-8.9-14.635-13.642-5.825-6.566-8.267-14.648-7.802-23.439.143-2.697-.652-4.231-3.09-5.52-12.265-6.487-110.094-60.899-118.59-65.587-15.455 9.928-31.071 10.072-46.693.033-6.21 3.492-108.154 60.676-117.201 65.613-1.752.956-3.028 1.96-3 4.294.199 16.49-7.382 28.4-21.638 36.307-.286.159-.525.403-.987.765v140.542c6.093 3.331 11.628 7.478 15.733 13.377 5.89 8.463 7.737 17.716 6.422 27.863-.837 6.459-3.029 12.247-6.911 17.42-9.67 12.884-22.636 17.632-38.391 15.575-8.092-1.057-15.631-4.211-21.185-9.727-4.211-4.182-7.095-10.287-9.038-16.052-5.047-14.975-1.734-28.614 9.124-40.073 3.229-3.407 7.481-5.845 11.726-9.079 0-46.087 0-92.784 0-139.723-2.172-1.394-4.48-2.707-6.608-4.267-16.667-12.225-20.897-33.243-11.332-52.17 6.033-11.939 16.65-16.103 28.476-18.367 9.067-1.735 17.718.306 25.55 5.236 2.251 1.417 4.157 1.542 6.461.228 18.249-10.405 113.919-64.305 116.822-65.988-.374-13.823 4.171-25.518 15.013-34.167 7.25-5.784 15.698-8.583 25.095-8.464 17.425.22 39.076 14.211 38.543 42.568 3.101 1.776 6.349 3.675 9.632 5.511 14.839 8.302 99.972 55.931 108.152 60.62 2.088 1.197 3.895 1.618 6.164.189 13.201-8.315 26.531-7.314 40.388-1.185 18.594 8.224 24.579 38.296 13.708 53.829-2.274 3.249-4.714 6.475-7.572 9.194-2.865 2.725-6.346 4.802-9.949 7.452v140.251c11.717 5.911 19.624 15.081 22.265 28.164 2.039 10.099-.167 19.521-4.907 28.646-5.609 10.798-15.304 15.078-26.275 17.089-11.035 2.023-21.497.061-30.634-7.148-40.492 22.033-80.769 43.95-121.169 65.933.187 13.61-4.219 25.147-14.865 33.635-8.156 6.503-17.679 9.235-28.105 8.254-19.065-1.794-37.095-18.305-35.232-43.895-9.759-5.982-19.762-12.113-29.594-18.139-17.288 6.27-34.564 2.394-41.37-9.215-8.312-14.177-8.5-32.317 9.847-46.296 0-51.098 0-102.259 0-153.283-17.645-12.488-18.9-31.22-9.828-46.576 4.373-7.402 11.878-10.127 19.631-11.968 7.993-1.899 15.669-.318 22.954 3.719 8.279-4.482 30.526-16.158 33.178-17.953 1.266-.857 2.51-2.581 2.707-4.054 1.715-12.787 11.029-23.427 23.788-26.822 11.909-3.169 25.591 1.577 32.96 11.652 3.176 4.342 5.274 9.214 6.14 14.618.211 1.319 1.15 3.037 2.256 3.619 12.292 6.465 24.681 12.744 37.049 19.063.185.094.433.064.652.09 16.444-6.899 34.527-4.304 41.377 5.698 9.762 14.253 11.29 33.097-6.588 47.778.276 3.956 2.525 35.641 3.296 47.292.222 3.355.783 6.287 3.137 9.135 11.001 13.313 9.049 29.407-.601 41.729-2.786 3.557-7.916 5.572-12.318 7.501-7.317 3.207-14.899 2.952-22.472.312-1.364-.475-3.349-.31-4.649.348-12.99 6.577-25.921 13.273-38.784 20.095-1.126.597-2.174 2.252-2.373 3.551-2.309 15.082-14.848 26.66-29.704 27.228-15.669.598-29.182-9.587-32.609-24.581-.124-.541-.392-1.112-.315-1.628.853-5.742-2.848-8.247-7.134-10.651-4.728-2.651-9.225-5.714-13.946-8.674.567-11.623 1.121-22.979 1.72-35.233 2.676 1.408 24.468 14.095 33.627 19.351 1.192.684 3.098 1.181 4.247.714 9.606-3.907 18.899-3.294 28.052 1.335.489.247 1.021.407 1.851.732 7.556-3.893 32.448-16.693 37.078-19.337 1.058-.604 2.248-2.059 2.302-3.175.658-13.524 7.121-23.068 19.266-28.878.293-.14.54-.376 1.305-.921-.999-14.427-2.018-29.15-3.06-44.192-10.204-5.705-16.213-14.419-17.511-26.636-13.082-6.695-26.3-13.46-39.451-20.191-11.203 5.998-22.202 6.411-33.493.296-11.804 6.371-23.607 12.741-35.531 19.176-1.035 11.122-6.016 19.891-15.569 26.057v153.675c9.645 6.537 15.208 15.548 15.52 27.877 9.82 6.032 19.733 12.117 29.897 18.357z"
        fill="url(#a)" />
</svg>