<svg enable-background="new 0 0 500 500" viewBox="0 0 500 500" xmlns="http://www.w3.org/2000/svg">
    <g fill="#1441f2">
        <path
            d="m250.524 495.758c-133.845 3.506-247.091-112.317-246.968-246.493.119-131.107 110.087-246.534 246.93-246.589 134.594-.054 247.134 112.797 246.939 247.234-.197 136.46-115.456 249.453-246.901 245.848zm209.466-245.858c.019-115.191-93.48-209.665-207.631-209.797-116.735-.135-211.244 92.945-211.342 208.147-.099 116.484 93.221 210.77 208.667 210.825 116.275.055 210.287-93.451 210.306-209.175zm9.588-8.053c6.26-.364 11.575-.672 17.236-1.001 0-2.534 0-4.171 0-6.353-5.988.527-11.498 1.013-17.236 1.518zm-455.712-7.371c.167 2.429.28 4.073.44 6.4h17.565c-.316-1.891-.582-3.485-.832-4.982-5.789-.478-10.942-.904-17.173-1.418zm187.285-216.917c1.193 6.061 2.263 11.498 3.453 17.542 2.139-.452 3.708-.783 5.854-1.236-1.116-5.83-2.119-11.074-3.211-16.785-2.245.176-3.87.304-6.096.479zm95.372 17.377c1.183-6.25 2.178-11.506 3.286-17.359-2.362 0-4.124 0-6.318 0-.969 5.757-1.848 10.978-2.798 16.622 2.343.297 3.776.478 5.83.737zm25.47 441.013c-1.916-6.315-3.474-11.449-5.175-17.056-2.026.538-3.628.963-5.812 1.542 1.617 5.545 3.113 10.678 4.748 16.282 2.114-.26 3.726-.459 6.239-.768zm-137.871-17.227c-1.782 6.193-3.303 11.478-4.824 16.764 1.003.487 2.006.974 3.009 1.461 6.866-2.861 4.802-10.907 7.761-16.521-2.32-.665-3.766-1.079-5.946-1.704zm-72.013-39.048c-3.982 5.052-7.316 9.283-11.1 14.083 2.08 1.224 3.637 2.14 5.339 3.142 3.669-4.653 6.88-8.725 10.389-13.175-1.538-1.346-2.8-2.45-4.628-4.05zm367.633-230.61c-6.171 1.617-11.687 3.063-17.72 4.645 1.102 2.372 1.811 3.896 2.605 5.605 5.362-1.426 10.328-2.748 15.748-4.19-.215-2.056-.385-3.678-.633-6.06zm-458.589-.084v6.411c5.442 1.352 10.401 2.585 15.697 3.901.62-2.13 1.084-3.724 1.679-5.768-5.683-1.486-10.878-2.844-17.376-4.544zm442.887-42.073c-5.792 2.761-10.631 5.068-15.94 7.598 1.084 2.026 1.867 3.489 2.835 5.297 5.293-2.434 10.175-4.68 15.452-7.108-.803-1.98-1.427-3.52-2.347-5.787zm-429.428 5.781c5.278 2.429 10.161 4.676 15.45 7.111.975-1.807 1.765-3.271 2.882-5.34-5.499-2.566-10.519-4.909-16-7.467-.89 2.173-1.52 3.712-2.332 5.696zm135.795-107.436c-2.475-5.899-4.613-10.995-7.01-16.71-2.318 1.618-3.669 2.56-5.18 3.615 2.34 5.436 4.455 10.35 6.695 15.552 2.06-.922 3.447-1.542 5.495-2.457zm233.538 48.152c4.557-4.825 8.235-8.719 12.281-13.004-1.372-1.712-2.431-3.034-3.939-4.914-4.581 4.907-8.34 8.934-12.854 13.769 1.637 1.505 2.738 2.517 4.512 4.149zm-302.953-4.829c-4.121-4.354-7.893-8.34-12.02-12.701-1.654 2.025-2.701 3.307-3.948 4.834 4.017 4.211 7.708 8.08 11.771 12.339 1.591-1.695 2.716-2.894 4.197-4.472zm235.295-40.825c2.344-5.76 4.375-10.75 6.58-16.166-2.003-.877-3.514-1.538-5.566-2.436-2.297 5.622-4.394 10.756-6.619 16.202 2.015.862 3.408 1.459 5.605 2.4zm13.39 398.049c2.765 5.19 5.285 9.919 8.027 15.066 2.005-1.095 3.465-1.892 5.335-2.912-2.827-5.312-5.431-10.205-8.309-15.613-2.035 1.394-3.405 2.331-5.053 3.459zm-203.55-3.57c-3.002 5.951-5.49 10.883-8.222 16.299 2.348.804 3.913 1.339 5.756 1.97 2.631-5.066 5.018-9.66 7.643-14.715-1.619-1.112-2.989-2.052-5.177-3.554zm253.885-8.572c-4.03-5.021-7.405-9.226-11.065-13.787-1.713 1.338-3.03 2.367-4.815 3.761 3.658 4.579 7.016 8.782 10.654 13.335 1.731-1.096 3.154-1.997 5.226-3.309zm56.175-67.399c-5.044-2.962-9.654-5.67-14.702-8.635-1.116 1.963-1.928 3.39-3.068 5.395 5.212 3.005 9.985 5.757 15.207 8.768 1.031-2.225 1.73-3.733 2.563-5.528zm-408.558 5.53c5.466-3.231 10.056-5.945 15.112-8.934-1.348-2.049-2.246-3.414-3.394-5.159-5.037 2.99-9.633 5.719-14.656 8.7 1.015 1.862 1.807 3.316 2.938 5.393zm408.375-46.152c6.078 2.11 11.28 3.917 16.938 5.881.596-2.289 1.008-3.869 1.518-5.828-5.47-1.932-10.473-3.699-15.799-5.58-.877 1.825-1.511 3.144-2.657 5.527zm-427.659 5.928c5.615-2.03 10.788-3.9 16.855-6.094-1.403-2.31-2.311-3.805-3.248-5.348-5.589 2.057-10.392 3.825-15.586 5.737.703 2.024 1.243 3.582 1.979 5.705zm439.933-52.482c-.538 2.312-.911 3.915-1.39 5.971 6.039.812 11.524 1.549 17.916 2.408-.37-2.724-.613-4.506-.839-6.169-5.44-.766-10.098-1.422-15.687-2.21zm-433.759 5.903c-.862-2.351-1.433-3.91-2.136-5.825-5.243.735-10.098 1.416-15.483 2.171v6.099c5.877-.816 11.19-1.553 17.619-2.445zm21.541-171.131c5.304 3.795 9.687 6.931 14.6 10.447 1.232-2.024 2.177-3.575 3.228-5.3-4.797-3.409-9.017-6.409-13.628-9.686-1.368 1.479-2.495 2.696-4.2 4.539zm370.686 5.454c1.557 1.849 2.735 3.246 4.06 4.819 4.885-3.608 9.214-6.805 14.2-10.487-1.825-1.734-3.121-2.965-4.439-4.218-4.72 3.375-8.765 6.269-13.821 9.886zm-292.944-55.246c-3.515-5.353-6.551-9.977-9.86-15.018-1.957 1.545-3.258 2.572-4.871 3.846 3.24 4.881 6.198 9.338 9.327 14.052 1.869-.996 3.186-1.698 5.404-2.88zm-50.529 326.768c-5.108 4.478-9.156 8.027-14.309 12.544 1.733 1.676 2.949 2.852 4.414 4.27 5.162-4.505 9.353-8.162 14.235-12.422-1.766-1.788-2.838-2.872-4.34-4.392zm347.967 11.761c-4.574-3.946-8.796-7.589-13.356-11.523-1.454 1.925-2.461 3.258-3.688 4.882 4.444 3.854 8.514 7.384 12.928 11.212 1.493-1.657 2.627-2.917 4.116-4.571zm-54.427-353.284c-3.348 5.155-6.267 9.65-9.466 14.575 1.96 1.152 3.371 1.981 5.285 3.106 3.264-5.029 6.26-9.643 9.453-14.563-2.061-1.218-3.351-1.982-5.272-3.118zm-123.604-19.324c0-5.929 0-11.077 0-16.735-1.898 0-3.489 0-5.344 0v16.735zm-27.356 437.719c-.654 5.864-1.247 11.182-1.899 17.027 2.499.174 4.138.288 5.995.417.645-5.673 1.228-10.798 1.866-16.405-2.195-.382-3.82-.665-5.962-1.039zm43.238 1.138c.759 5.973 1.41 11.096 2.128 16.746 2.087-.486 3.704-.863 5.899-1.375-.72-5.757-1.379-11.028-2.089-16.715-2.279.516-3.738.846-5.938 1.344z" />
        <path
            d="m315.185 338.746c6.267 5.712 12.539 11.292 18.65 17.044 4.819 4.536 6.163 9.892 1.164 14.906-4.874 4.888-9.992 3.188-14.337-1.305-6.64-6.866-13.163-13.845-20.08-21.139-22.625 11.592-46.16 7.459-69.152 7.635-36.856.283-67.923-30.866-68.231-67.768-.259-30.98-.272-61.966-.016-92.947.308-37.333 28.601-67.653 66.079-69.32 18.741-.834 38.052-.871 56.335 2.687 30.77 5.988 51.983 34.4 52.221 65.814.23 30.298-.105 60.6.158 90.897.165 18.993-6.503 35.063-19.134 48.932-.889.974-1.658 2.058-3.657 4.564zm-13.888-14.191c11.816-11.191 17.629-23.206 17.738-37.522.234-30.509.141-61.022.053-91.532-.078-26.977-21.361-49.313-48.317-50.31-13.641-.505-27.334-.507-40.973.032-26.537 1.049-47.792 23.435-47.877 50.027-.097 30.511-.095 61.022.002 91.533.072 22.785 17.028 45.362 39.358 48.563 17.158 2.46 34.875 1.148 52.345 1.204 3.423.011 6.85-1.396 13.507-2.86-6.536-5.627-11.281-9.477-15.751-13.623-4.808-4.458-6.474-9.773-1.229-14.811 5.206-5 10.405-3.084 14.856 1.661 5.282 5.631 10.48 11.342 16.288 17.638z" />
    </g>
</svg>