<svg enable-background="new 0 0 500 500" viewBox="0 0 500 500" xmlns="http://www.w3.org/2000/svg">
    <g fill="#255c84">
        <path
            d="m294.2 428.7c-14.1 3.4-28.8 5.3-43.9 5.3-101.7 0-184.1-82.4-184.1-184s82.4-184.1 184-184.1 184.1 82.4 184.1 184.1c0 17.6-2.5 34.7-7.1 50.8 22.2 5.7 41.6 18.3 55.9 35.3 9.9-26.8 15.3-55.8 15.3-86.1 0-137.1-111.1-248.2-248.2-248.2s-248.2 111.1-248.2 248.2 111.1 248.2 248.2 248.2c26.9 0 52.8-4.3 77.1-12.2-16.4-15-28.3-34.8-33.1-57.3z" />
        <circle cx="400.1" cy="405.7" r="73.9" />
    </g>
</svg>