<svg enable-background="new 0 0 500 500" viewBox="0 0 500 500" xmlns="http://www.w3.org/2000/svg">
    <g fill="#151619">
        <path
            d="m248.5 157.4c-8.5-7.7-25.3-18.4-54.6-18.3-29.2.1-24.5 15.2-24.5 15.2s-.6 12.3 18.5 12.7 39.6 1.1 56.2 7.4c16.6 6.2 12.9-9.3 4.4-17zm-69.1 28.1c-1.8 1.1-2.2 4-.2 4.4 11.5 2.1 29.8 5.9 50.2 2.6 1.9-.3 1.6-2.9.2-4.3-7.1-7-26.5-16.9-50.2-2.7z" />
        <path
            d="m419.6 383.2c-.8-1.1-2.4-1.4-3.5-.6-.4.3-.8.7-.9 1.2-11.9 35.3-21.6 26.7-26.1 19.1-1.6-2.7-2.7-5.6-3.5-8.6-11.3-45.1-1-86.7-1-86.7 6.2 19.2 22.4 24.9 30.6 26.6 1.4.3 2.7-.6 3-2 .1-.6 0-1.2-.3-1.7-31.8-62.2-13-88.6-13-88.6 5.5 6.1 14.5 6.6 20.2 6.3 1.4-.1 2.5-1.3 2.4-2.7 0-.6-.3-1.1-.6-1.5-23-25.4-24.8-34-25.7-77.1-.5-23.8-8.9-36.4-16.7-42.9-8.9-7.5-16-17-19.9-28-30.9-87.3-89-98.8-143-95.5-66.9 4.1-102.6 55.3-119.5 80.8-17.9 27-31.8 66.9-30.9 79.1s12.2 10.3 12.2 24.4-21.8 25.9-13.2 65.5c3.8 17.5 19.1 30.6 12.2 70.5-12.3 71.8 42.7 159 56.4 172 1.7 1.6 4.6.3 4.3-2-2.1-16 1-38.3 1-38.3 27.6 59.1 104.7 48.1 128.9 43.1 1.4-.3 2.3-1.6 2-3-.2-.7-.6-1.4-1.3-1.7-24.4-13-30-39.3-30-39.3 24.3 11.5 39.8 9.6 47.3 7.1 1.3-.4 2-1.9 1.6-3.2-.2-.6-.6-1-1.1-1.3-7.3-4.6-18.5-23.5-26.9-42.1-7.1-15.6-4.5-33.9 6.5-47 9.9-11.8 22.8-28.2 37.5-45.7 3.1-3.7 7.4-.1 9 3.9 21.5 53.8 49.5 94.4 68.7 105.6 14 8.6 29.3 10.2 36.2 4.8 19-14.9 4-40.7-2.9-50.5zm-232.7-50.1c-23.1 1.4-17.8-28.6-34.7-27.8-18.1.8-12.7 23.7-24.9 25s-10.7-33.6-2.2-37.6c13.5-6.4 29.2-7.9 41.8-7.5 14.9.5 29.2-.1 35.9 14.3 8 17 7.2 32.3-15.9 33.6zm145.8-214.1c-30.7 18.2-32.5 27.2-36.8 59.2-1 7-2 15.3 1.3 19.9 7.3 10.5 21.1 18.3 17.3 36-9 42.2-32.9 91.8-64.9 107.3-3.9 1.9-8.3-1.9-9.2-6.1-3.6-16.7-12.1-47.2-14.4-57.1-11.4-56.9-65.7-57.7-67.2-46.8-.4 3.2 11 7.5 18.3 9.9 6.7 2.2 6.9 11.7.3 14-1.7.6-3.6.8-5.4.9-13.4-.9-30.5.1-38.1.7-5.3.4-10.1-3.3-11-8.6-3-17.4 2.3-23.7 8.7-40.2 3.2-8.2 7.3-24.8 8.7-33.4.7-4.6.4-10.1-.1-14.2-.6-4.9-.8-9.8-.7-14.7.5-15.8 2-28.7 14.1-28.7 21.7 0 67.5.1 74.8-10.6 7.6-11.2-34.9-.3-80.5-1.8-1.8-.1-3.4-1.5-3.5-3.3 0-.3-.1-.6-.1-.8-.3-3.2 2.1-6 5.3-6.3h.4c24.4-.3 42.9-2 47.8-9.1 5-7.3-19.7-4-47.6-3.8-3.6 0-6.5-.1-6.3-3.6v-.1c.2-2.9 2.5-5.3 5.4-5.5 16.4-1.1 23.4-2.3 24.1-7.6s-1.7-4.7-19.9-3.7c-4 .2-2.8-2.8-.6-6 5.7-8.3 31-32.4 87.1-30.7 96.1 3.1 93.1 71.1 96 87.7.5 2.9-.8 5.7-3.3 7.1z" />
    </g>
</svg>