<svg enable-background="new 0 0 500 500" viewBox="0 0 500 500" xmlns="http://www.w3.org/2000/svg">
    <linearGradient gradientUnits="userSpaceOnUse" id="a" x1="249.1738" x2="249.1738" y1="4"
        y2="497.0254">
        <stop offset=".0004783163" stop-color="#36a7dd" />
        <stop offset="1" stop-color="#13307e" />
    </linearGradient>
    <path
        d="m248.499 497.278c-133.762.911-250.498-110.398-246.394-254.841 3.658-128.731 110.095-241.939 252.99-239.224 130.076 2.471 245.511 110.338 241.132 255.99-3.841 127.8-109.256 238.725-247.728 238.075zm56.063-229.946c1.458 1.957 2.419 3.297 3.431 4.598 24.304 31.229 48.737 62.359 72.821 93.757 5.017 6.54 11.264 7.403 18.138 5.873 7.057-1.57 10.058-6.802 10.054-14.008-.041-71.618-.034-143.237-.009-214.855.002-6.83-2.976-11.923-9.456-13.737-6.503-1.82-13.176-1.49-17.896 4.55-10.258 13.127-20.336 26.395-30.607 39.512-15.432 19.707-30.966 39.333-46.928 59.591-14.187-18.059-27.903-35.429-41.514-52.881-7.375-9.456-19.583-9.605-27.006-.13-4.388 5.6-8.653 11.295-13.038 16.897-9.32 11.908-18.683 23.782-28.516 36.292-10.646-13.502-20.507-25.879-30.228-38.365-15.614-20.056-31.157-40.166-46.681-60.292-4.907-6.362-11.542-7.034-18.449-5.156-7.09 1.927-9.314 7.462-9.306 14.521.083 71.344.076 142.688.011 214.032-.006 6.831 2.706 11.786 9.189 13.816 6.693 2.096 13.52 1.205 18.011-4.463 13.726-17.325 26.909-35.079 40.456-52.548 12.008-15.485 24.221-30.813 36.851-46.855 11.928 15.269 23.922 29.139 34.224 44.168 14.461 21.095 26.887 21.897 41.605.463 10.472-15.25 22.695-29.295 34.843-44.78zm72.485-92.529c-19.624 25.033-39.249 50.066-59.225 75.547 19.988 25.512 39.773 50.764 60.972 77.822 0-52.852 0-102.803 0-152.755-.582-.204-1.165-.409-1.747-.614zm-196.513 75.576c-20.054-25.575-39.77-50.719-60.815-77.557v155.301c21.178-27.072 40.905-52.291 60.815-77.744zm61.687 43.759c4.115 5.252 8.584 5.843 12.811.638 12.015-14.796 23.778-29.797 35.588-44.652-11.764-14.894-23.052-29.312-34.492-43.607-4.671-5.837-9.718-5.867-14.127-.288-11.345 14.356-22.619 28.767-34.494 43.885 11.814 14.97 23.306 29.464 34.714 44.024z"
        fill="url(#a)" />
</svg>