<svg enable-background="new 0 0 500 500" viewBox="0 0 500 500" xmlns="http://www.w3.org/2000/svg">
    <path
        d="m126.7 34.7 124.1 145.4 83.3-49s-100.5-134.4-127.3-124.9c-25.2 9.6-80.1 28.5-80.1 28.5z" />
    <path d="m337.2 131.1s18.9-33.2 28.3-77.5c0 0 94.3 37.9 58.1 132.8z" />
    <path
        d="m423.6 186.5 7.9 99.6 36.1-4.7s9.4-3.2 7.9-20.5c-1.6-19-4.7-58.5-4.7-58.5s1.6-9.5-20.4-12.6c-26.8-4.9-26.8-3.3-26.8-3.3z" />
    <path
        d="m431.4 286.1-72.3 58.5 33 64.8s7.9 25.3 31.4-3.2c22-28.5 31.4-33.2 29.8-50.6-1.4-17.4-6.2-58.5-21.9-69.5z" />
    <path
        d="m357.6 344.5-99-44.3-86.4 175.5s-6.3 12.6 15.7 14.2c22 3.2 58.1 11.1 77-7.9 18.9-17.3 92.7-137.5 92.7-137.5z" />
    <path
        d="m258.6 298.7-9.4-117-213.7 14.3s-12.6 1.6-11 25.3c1.6 31.6 4.7 66.4 4.7 66.4s-1.6 14.2 26.7 15.8c28.3 1.5 199.6 1.5 202.7-4.8z" />
</svg>