<svg enable-background="new 0 0 2000 2000" viewBox="0 0 2000 2000"
    xmlns="http://www.w3.org/2000/svg">
    <path
        d="m22.909 261.043c0-1.913 0-3.825 0-5.738 4.043-3.061 8.51-5.697 12.067-9.245 70.402-70.231 140.693-140.574 211.034-210.867 3.584-3.581 7.417-6.914 11.696-10.884 104.273 104.281 207.641 207.658 309.972 309.997 290.014-170.062 578.288-170.185 870.096.503 102.219-102.225 205.751-205.762 307.04-307.057 77.925 77.937 155.489 155.514 234.683 234.721-101.907 101.899-205.237 205.22-307.616 307.591 169.059 289.255 168.827 577.517-1.637 868.122 102.234 102.229 205.583 205.573 307.671 307.656-77.699 77.696-155.286 155.28-235.016 235.007-2.537-3.271-5.603-8.23-9.613-12.248-95.925-96.094-192.08-191.959-287.738-288.318-8.485-8.547-13.717-8.533-23.817-2.549-245.935 145.719-499.637 160.339-760.369 42.985-31.623-14.233-61.395-32.578-95.873-51.083-102.405 102.429-205.954 206.001-311.36 311.431-2.753-3.558-5.571-8.138-9.267-11.842-69.897-70.061-139.875-140.04-209.938-209.935-3.539-3.53-7.988-6.148-12.013-9.191 0-1.913 0-3.825 0-5.738 4.026-3.044 8.477-5.661 12.016-9.193 95.087-94.929 189.856-190.179 285.38-284.665 11.525-11.4 13.232-18.56 4.285-32.976-72.259-116.435-111.321-243.643-116.977-380.43-6.759-163.474 33.339-315.2 119.951-454.19 6.625-10.632 4.659-15.867-3.332-23.817-96.949-96.447-193.545-193.249-290.319-289.872-3.202-3.194-7.317-5.47-11.006-8.175zm1099.597 624.03c101.157 101.17 202.315 202.34 303.274 303.311 82.408-172.548 43.709-420.218-153.84-562.698-191.99-138.47-459.817-108.222-615.878 68.59-158.907 180.036-156.374 449.805 5.369 622.955 162.815 174.299 395.713 175.588 529.228 106.438-101.81-101.777-202.998-202.932-303.426-303.327 77.702-77.701 155.014-155.012 235.273-235.269z"
        fill="#1f2338" />
</svg>