<svg enable-background="new 0 0 500 500" viewBox="0 0 500 500" xmlns="http://www.w3.org/2000/svg">
    <g clip-rule="evenodd" fill="#0645f7" fill-rule="evenodd">
        <path
            d="m479.8 495.8c-10.3.1-18.6-8.2-18.7-18.5s8.2-18.6 18.5-18.7 18.6 8.2 18.7 18.5v.1c0 10.3-8.3 18.6-18.5 18.6zm-9.8-200.3c-10.4-.2-18.7-8.7-18.5-19.1s8.7-18.7 19.1-18.5 18.6 8.7 18.5 19.1c-.2 10.3-8.5 18.5-18.8 18.5zm0-56.2c-10.4 0-18.8-8.4-18.8-18.8s8.4-18.8 18.8-18.8 18.8 8.4 18.8 18.8v.1c0 10.2-8.2 18.6-18.5 18.7zm-37.6-33.2v34.2h-37.5v-41.6c0-5 2-9.7 5.5-13.2l44.2-43.8c5.8-5.9 14.6-7.5 22.1-4 9.3 4.4 13.2 15.5 8.8 24.8-.9 2-2.2 3.8-3.7 5.3zm34 156.6c-7.5 3.5-16.3 1.8-22.1-4l-44.2-43.8c-3.5-3.5-5.5-8.3-5.5-13.2v-42.4h37.8v34.2l39.1 39.1c7.2 7.3 7.2 19.1-.1 26.3-1.4 1.4-2.9 2.5-4.7 3.4zm-90.4-181.9v135.4l107.6 107.6c7.5 7.3 7.6 19.3.3 26.8s-19.3 7.6-26.8.3l-113.4-113.6c-3.6-3.5-5.6-8.3-5.6-13.3v-151.1c0-5 2-9.8 5.6-13.3l69.3-69.3c7.3-7.5 19.2-7.7 26.8-.4 7.5 7.3 7.7 19.2.4 26.8zm-43.5-34.2c-3.6 3.6-8.4 5.5-13.4 5.5h-150.7c-5 .1-9.9-1.9-13.4-5.5l-69.3-69.4c-7.5-7.3-7.6-19.3-.3-26.7s19.3-7.6 26.7-.3l64.1 64.2h135.3l63.6-63.8c5.8-5.9 14.8-7.6 22.3-4 9.4 4.7 13.1 16.1 8.4 25.5-.9 1.8-2.1 3.4-3.5 4.8zm-21-56.7c-3.5 3.6-8.4 5.6-13.4 5.6h-41.9v-37.8h34.4l38.7-38.7c5.8-5.9 14.7-7.6 22.2-4.1 9.4 4.7 13.1 16.1 8.4 25.5-.9 1.8-2.1 3.4-3.5 4.8zm-40.1-48.9c-10.4 0-18.8-8.4-18.8-18.8s8.4-18.8 18.8-18.8 18.8 8.4 18.8 18.8c-.2 10.1-8.3 18.2-18.4 18.4zm-76.3 54.5c-5 0-9.9-2-13.4-5.6l-44.2-44.3c-7.5-7.3-7.6-19.3-.3-26.7s19.3-7.6 26.7-.3l39.1 39.1h34.4v37.8zm20.5-54.9c-10.4 0-18.8-8.4-18.8-18.8s8.5-18.8 18.8-18.8c10.4 0 18.8 8.4 18.8 18.8s-8.4 18.8-18.8 18.8zm-66.5 132.6v151c0 5-1.9 9.8-5.5 13.4l-69.2 69.4c-5.8 5.9-14.8 7.6-22.3 4-9.3-4.8-13-16.2-8.3-25.5.9-1.8 2.1-3.5 3.6-4.9l64-64.4v-135.1l-64-64c-7.5-7.3-7.6-19.3-.3-26.8s19.3-7.6 26.8-.3l69.9 69.7c3.4 3.5 5.4 8.5 5.3 13.5zm-62.6 12c3.8 3.5 6 8.4 6 13.6v42h-37.8v-34.2l-38.7-38.7c-7.5-7.2-7.7-19.1-.5-26.6s19.1-7.7 26.6-.5l.2.2zm-69.8 16.6c10.4-.3 19 7.9 19.3 18.3s-7.9 19-18.3 19.3-19-7.9-19.3-18.3c0-.2 0-.3 0-.5 0-10.3 8.4-18.7 18.7-18.8zm0 56.3c10.4-.3 19 7.9 19.3 18.3s-7.9 19-18.3 19.3-19-7.9-19.3-18.3c0-.1 0-.2 0-.3-.1-10.4 8.2-18.9 18.6-19h.1zm37.6 35.4v-34.2h38.2v42c-.1 5-2.3 9.8-6 13.2l-43.8 43.8c-5.8 5.9-14.6 7.5-22.1 4-9.3-4.4-13.2-15.5-8.7-24.8.9-2 2.2-3.7 3.7-5.2zm100.7 53.2c3.5-3.6 8.3-5.6 13.3-5.6h150.7c5 0 9.9 2 13.4 5.6l112.6 112.8c7.5 7.3 7.6 19.3.3 26.7-7.3 7.5-19.3 7.6-26.7.3l-107.7-107.6h-134.9l-63.7 63.7c-5.8 5.9-14.7 7.6-22.2 4.1-9.4-4.7-13.1-16.1-8.4-25.5.9-1.8 2.1-3.4 3.5-4.8zm26.8 56.7c3.6-3.5 8.4-5.4 13.4-5.5h42.3v37.8h-34.5l-38.2 38.6c-7.3 7.5-19.2 7.7-26.7.4s-7.7-19.2-.4-26.7zm33.9 53.4c10.4-.1 18.8 8.3 18.9 18.7s-8.3 18.8-18.7 18.9-18.8-8.3-18.9-18.7v-.1c.1-10.3 8.3-18.7 18.7-18.8zm82.9-58.7c5 0 9.8 2 13.4 5.5l44.2 44.3c7.5 7.3 7.6 19.3.3 26.8s-19.3 7.6-26.8.3l-39.1-39.1h-34.4v-38h42.3zm-26.7 58.7c10.4.2 18.7 8.7 18.5 19.1s-8.7 18.7-19.1 18.5c-10.3-.2-18.5-8.5-18.5-18.8 0-10.4 8.4-18.8 18.8-18.8z" />
        <path
            d="m432.6 206.1v34.2h-37.8v-41.6c0-5 2-9.7 5.5-13.2l44.2-43.8c5.8-5.9 14.6-7.5 22.1-4 9.3 4.4 13.2 15.5 8.8 24.8-.9 2-2.2 3.8-3.7 5.3zm34.1 156.6c-7.5 3.5-16.3 1.8-22.1-4l-44.2-43.8c-3.5-3.5-5.5-8.3-5.5-13.2v-42.4h37.8v34.2l39.1 39.1c7.2 7.4 7 19.1-.3 26.3-1.4 1.4-3 2.5-4.7 3.4v.4zm-134.2-215.3c-3.6 3.6-8.4 5.5-13.4 5.5h-150.7c-5.1-.1-10-2.4-13.4-6.3l-69.3-69.4c-7.5-7.3-7.6-19.3-.3-26.7s19.3-7.6 26.7-.3l64.1 64.2h135.3l63.6-63.8c5.8-5.9 14.8-7.6 22.3-4 9.4 4.7 13.1 16.1 8.4 25.5-.9 1.8-2.1 3.4-3.5 4.8zm-21-57.5c-3.5 3.6-8.4 5.6-13.4 5.6h-41.9v-37.8h34.4l38.7-38.7c5.8-5.9 14.7-7.6 22.2-4.1 9.4 4.7 13.1 16.1 8.4 25.5-.9 1.8-2.1 3.4-3.5 4.8zm-40.1-48.9c-10.4 0-18.8-8.4-18.8-18.8s8.4-18.8 18.8-18.8 18.8 8.4 18.8 18.8c-.2 10.1-8.3 18.2-18.4 18.4zm-76.3 54.5c-5 0-9.9-2-13.4-5.6l-44.2-44.3c-7.5-7.3-7.6-19.3-.3-26.7s19.3-7.6 26.7-.3l39.1 39.1h34.4v37.8zm20.5-54.9c-10.4 0-18.8-8.4-18.8-18.8s8.5-18.8 18.8-18.8c10.4 0 18.8 8.4 18.8 18.8s-8.4 18.8-18.8 18.8zm-66.5 132.6v151c0 5-1.9 9.8-5.5 13.4l-69.2 69.4c-5.8 5.9-14.8 7.6-22.3 4-9.3-4.8-13-16.2-8.3-25.5.9-1.8 2.1-3.5 3.6-4.9l64-64.4v-135.1l-64-64c-7.5-7.3-7.6-19.3-.3-26.8s19.3-7.6 26.8-.3l69.9 69.7c3.4 3.5 5.4 8.5 5.3 13.5zm-62.6 12c3.8 3.5 6 8.4 6 13.6v42h-37.8v-34.2l-38.7-38.7c-7.5-7.2-7.7-19.1-.5-26.6s19.1-7.7 26.6-.5l.2.2zm-69.8 16.6c10.4-.3 19 7.9 19.3 18.3s-7.9 19-18.3 19.3-19-7.9-19.3-18.3c0-.2 0-.3 0-.5 0-10.3 8.4-18.7 18.7-18.8zm0 56.3c10.4-.3 19 7.9 19.3 18.3s-7.9 19-18.3 19.3-19-7.9-19.3-18.3c0-.1 0-.2 0-.3-.1-10.4 8.2-18.9 18.6-19h.1zm37.6 35.4v-34.2h38.2v42c-.1 5-2.3 9.8-6 13.2l-43.8 43.8c-5.8 5.9-14.6 7.5-22.1 4-9.3-4.4-13.2-15.5-8.7-24.8.9-2 2.2-3.7 3.7-5.2zm100.7 53.2c3.5-3.6 8.3-5.6 13.3-5.6h150.7c5 0 9.9 2 13.4 5.6l112.6 112.8c7.5 7.3 7.6 19.3.3 26.7-7.3 7.5-19.3 7.6-26.7.3l-107.7-107.6h-134.9l-63.7 63.7c-5.8 5.9-14.7 7.6-22.2 4.1-9.4-4.7-13.1-16.1-8.4-25.5.9-1.8 2.1-3.4 3.5-4.8zm26.8 56.7c3.6-3.5 8.4-5.4 13.4-5.5h42.3v37.8h-34.5l-38.2 38.6c-7.3 7.5-19.2 7.7-26.7.4s-7.7-19.2-.4-26.7zm33.9 53.4c10.4-.1 18.8 8.3 18.9 18.7s-8.3 18.8-18.7 18.9-18.8-8.3-18.9-18.7v-.1c.1-10.3 8.3-18.7 18.7-18.8zm82.9-58.7c5 0 9.8 2 13.4 5.5l44.2 44.3c7.5 7.3 7.6 19.3.3 26.8s-19.3 7.6-26.8.3l-39.1-39.1h-34.4v-38h42.3zm-26.7 58.7c10.4.2 18.7 8.7 18.5 19.1s-8.7 18.7-19.1 18.5c-10.3-.2-18.5-8.5-18.5-18.8 0-10.4 8.4-18.8 18.8-18.8z" />
    </g>
</svg>