<svg enable-background="new 0 0 500 500" viewBox="0 0 500 500" xmlns="http://www.w3.org/2000/svg">
    <linearGradient gradientTransform="matrix(.6411 .7674 -.7674 .6411 282.2833 -100.1866)"
        gradientUnits="userSpaceOnUse" id="a" x1="47.2064" x2="472.0469" y1="258.966" y2="258.966">
        <stop offset="0" stop-color="#89acda" />
        <stop offset=".1911" stop-color="#87aada" stop-opacity="0" />
    </linearGradient>
    <path
        d="m484.9 265.1c0 22.8-3.3 44.9-9.3 65.7-13.1 45.2-39.5 84.7-74.5 114.2-5.6 4.7-11.4 9.1-17.4 13.3-37.9 26.3-84 41.7-133.7 41.7-61.5 0-117.4-23.6-159.3-62.2-45.7-42.3-74.6-102.4-75.6-169.3 0-1.1 0-2.3 0-3.4 0-129.7 105.2-234.9 234.9-234.9 28.9 0 56.6 5.2 82.2 14.8 2.4.9 4.7 1.8 7 2.7 85.5 35.1 145.7 119.2 145.7 217.4z"
        fill="#408ac9" />
    <path
        d="m386.2 428.1c-50.1 41.9-113.8 56.7-173.5 46.1-6.5-1.2-12.9-2.6-19.3-4.4-40.3-11.1-77.6-34.1-106.4-68.6-35.6-42.6-51.7-95.1-49.2-146.6 0 0 0 0 0-.1 2.8-56.2 27.7-111.1 73.6-150.6.8-.7 1.6-1.3 2.4-2 90-75.2 224-63.2 299.2 26.8 75.2 90.2 63.2 224.2-26.8 299.4z"
        fill="url(#a)" />
    <path
        d="m421.3 362c0 34-10.5 63.2-20.2 83-40.8 34.3-93.5 55-151 55-61.5 0-117.4-23.6-159.3-62.3 25.9 21.5 58.5 36.3 99.4 36.3 42.4 0 71.8-10.7 92.1-26.1 52-39.5 44.3-109.8 44.3-109.8-7.5 9.2-17.5 16-27.2 20.5 3.2-6 6.1-12.8 6.2-19.9-4.9 5.1-10.3 8.6-15.4 10.7l5.9-19.6-1.5-8c.8-11-1.3-21.6-6-31.5l-1.2-6.2-7.9-8c-2.8-3.5-6-6.8-9.6-10 0 0-.1-.1-.1-.1-.3-.3-.7-.6-1-.9.2.2.5.5.9 1l-1.3-1.3s-30.5-19.3-72.7-19.3-50.4 9.6-50.4 19.3c0 9.8 8.3 14.7 8.3 14.7-25.7-1.2-46.4-10.6-60.4-30.6l.3-.3c46.7-33 101.8-41.7 165.2-26.3 3.2.8 6.4 1.6 9.6 2.5-3.9-7.4-9.4-14-15.8-19.6-7-6.2-15-11.3-23.5-15.2 0 0 15.3-.6 21.5-.3 6.1.3 51.9-.6 98.8 31.9 46.8 32.4 72 82.7 72 140.4z"
        fill="#262f72" />
    <path
        d="m270.4 242.7c-68.1-27.7-126-21.7-177.3 6.1v-.1c46.8-33.1 102-42 165.5-26.5 5.4 7.6 9.7 14.5 11.8 20.5z"
        fill="#161e41" />
    <path
        d="m405.2 192.2c-23.7-17.1-51.7-28.3-81.3-32.2 29.7.4 58.3 6.5 86.2 21.5-1.3-5-4-9.6-7.4-14 22.5 9.2 44 23.7 64.7 41.6-43.4-51.3-111.4-84.7-163.1-85.3-16.2 13.1-33.3 22-51.2 27.4 9.3-8.4 15.7-19.2 19.3-32.6 26.6-10.3 48.5-28.2 66.3-53.1-5.6 2.2-10.9 3.6-15.9 4.3 6.3-7.3 11.7-14.7 16.3-22.1 9.9-15.6 16.3-31.6 20.8-47.7-7.4 16.3-16.6 31.3-27.6 45-15.6 19.4-34.9 36.1-57.7 50.3-.5-11.8-3.8-21.4-9.8-28.8 0 0-6.2 15.5-30.2 30.1-17.3 10.5-31.7 15.8-46.7 21.2-7.7 2.8-20.7 12.3-20.7 28.6s19 17.8 19 17.8-4.9 2.5-10.1 2.5-10.7-4.5-10.7-4.5-19.6 23.8-41.3 23.8c-15.2 0-8.9-22.6-8.9-22.6-38.5 27.9-43.7 59.8-34.4 94.9 4-3.3 8.1-6.4 12.3-9.4.1-.1.2-.1.3-.2 46.7-33 101.8-41.7 165.2-26.3 3.2.8 6.4 1.6 9.6 2.5-3.9-7.4-9.4-14-15.8-19.6-7-6.2-15-11.3-23.5-15.2 0 0 15.3-.6 21.5-.3 6.1.3 51.9-.6 98.8 31.9 47 32.5 72.1 82.9 72.1 140.6 0 34-10.5 63.2-20.2 83 35.1-29.5 61.4-69 74.5-114.2v-1.9c-.8-59.3-29-107.2-70.4-137zm-287.3 17.2c-.1 0-.1.1 0 0-.3.5-.4.8-.4.8s-.5-5.1-6-5.1c-5.4 0-14.7 11.2-15.1 11.7s4.5-23.5 17.9-23.5c11.5 0 5.4 12.7 3.6 16.1zm73.6-54.6s-3.4-9.5 10.5-18c11.3-7 20.4-9.2 28-11.7 1.7-.5 3.3-1.1 4.8-1.7 8.5-3.4 14-9 14-9-6.8 25.9-23 42.4-57.3 40.4z"
        fill="#fff" />
    <g fill="#161e41">
        <path
            d="m282.2 447.9c-20.3 15.4-49.6 26.1-92.1 26.1-40.9 0-73.5-14.7-99.4-36.3-45.7-42.2-74.6-102.3-75.6-169.2 18.7 42 64.4 116.6 152.4 116.4 86.3-.1 120.1-60.8 113.5-94.7-.4-1.9-.9-3.7-1.5-5.4-.2-.6-.4-1.2-.7-1.7-4.4-10.4-7.6-15.1-9.3-17.1-.4-.4-.7-.8-.9-1 .3.3.7.6 1 .9 0 0 .1.1.1.1 3.5 3.2 6.7 6.5 9.6 10 3.7 4.5 6.7 9.3 9.1 14.3 4.7 9.9 6.8 20.5 6 31.5-.7 9.5-3.5 19.3-8.6 29 1.4-.4 2.8-.9 4.3-1.5 5.2-2.1 10.5-5.6 15.4-10.7-.1 7.1-3 13.8-6.2 19.9 9.7-4.4 19.7-11.3 27.2-20.5 0 .1 7.7 70.4-44.3 109.9z" />
        <path
            d="m421.3 362c0 34-10.5 63.2-20.2 83-5.6 4.7-.2.5 0 0 5.9-13 13.9-46.4 11.8-74.3-3.2-42.4-7.3-79.8-58.6-124.5-42.7-37.1-84.1-40.5-101.9-41.2-7-6.2-15-11.3-23.5-15.2 0 0 15.3-.6 21.5-.3 6.1.3 51.9-.6 98.8 31.9 46.9 32.6 72.1 82.9 72.1 140.6z" />
        <path
            d="m248.8 114.4c-6.8 25.9-23 42.4-57.3 40.4 0 0 21.4-3 30.8-15.4 4.4-5.9 6.6-10.8 7.7-14.3 1.7-.5 3.3-1.1 4.8-1.7 8.5-3.4 14-9 14-9z" />
        <path
            d="m117.9 209.4c.5-1.1 5.1-11.9-4.2-11.9-9.7 0-17.1 18.7-17.3 19.3s4.5-23.5 17.9-23.5c11.5 0 5.4 12.7 3.6 16.1z" />
        <path
            d="m359.2 22c-1.6 14.6-2.3 23.4-15 53s-39.7 48.9-39.7 48.9c-16.2 13.1-33.3 22-51.2 27.4 9.3-8.4 15.7-19.2 19.3-32.6 26.6-10.3 48.5-28.2 66.3-53.1-5.6 2.2-10.9 3.6-15.9 4.3 19.5-22.6 30.4-46 37-69.8-.1-.1.8 7.3-.8 21.9z" />
        <path
            d="m467.5 209.1c-.6-.4-10.4-6.2-30.4-11.8-14.8-4.1-26.5-5-31.9-5.1-23.7-17.1-51.7-28.3-81.3-32.2 29.7.4 58.3 6.5 86.2 21.5-1.3-5-4-9.6-7.4-14 22.6 9.2 44 23.7 64.8 41.6z" />
    </g>
    <path
        d="m305.6 338.6c-6.3 6.5-13.3 10.5-19.7 12.2 16.3-31.1 9.4-62.1-16-84.8 0 0-.1-.1-.1-.1-.3-.3-.7-.6-1-.9-.1-.1-.1-.1-.2-.2-.1 0-.1-.1-.2-.2 0 0-.1 0-.1-.1.3.2 4.9 2.1 7.9 3.9 3.1 1.8 20.7 13.2 26.5 33.1 5.8 20 2.9 37.1 2.9 37.1z"
        fill="#0f1f65" />
    <path
        d="m346.9 348.2c0 17.5-1.5 37-23.6 65.2-16 20.5-33 30.5-41.1 34.5 52-39.5 44.3-109.8 44.3-109.8s5.9-6.1 8.1-12.5 3.6-12.7 3.6-12.7 8.7 17.8 8.7 35.3z"
        fill="#0f1f65" />
</svg>