<svg enable-background="new 0 0 500 500" viewBox="0 0 500 500" xmlns="http://www.w3.org/2000/svg">
    <g fill="#384051">
        <path
            d="m492.4 157.2-177.3-102c-3.8-2.2-8.7-.9-10.9 2.9-1.3 2.2-1.4 4.9-.4 7.3l72.8 162.3c1.8 4 6.5 5.8 10.5 4 .2-.1.5-.2.7-.4l104.6-60.3c3.8-2.2 5.1-7.1 2.9-10.9-.7-1.2-1.7-2.2-2.9-2.9z" />
        <path
            d="m123.5 227.6 72.7-162.3c1.8-4 0-8.7-4-10.6-2.3-1.1-5.1-.9-7.3.4l-177.3 102.1c-3.8 2.3-5.1 7.2-2.9 11 .7 1.2 1.7 2.2 2.9 2.9l104.7 60.2c3.8 2.2 8.7.9 10.9-2.9.1-.3.2-.5.3-.8z" />
        <path
            d="m243.3 444.6-85.7-191.3c-.9-2-.9-4.4 0-6.4l85.7-191.4c1.8-4 6.5-5.9 10.5-4.1 1.8.8 3.3 2.3 4.1 4.1l84.5 191.9c.9 2 .9 4.4 0 6.4l-84.5 190.7c-1.8 4-6.5 5.9-10.6 4.1-1.8-.8-3.2-2.2-4-4z" />
    </g>
</svg>