<svg enable-background="new 0 0 500 500" viewBox="0 0 500 500" xmlns="http://www.w3.org/2000/svg">
    <radialGradient cx="127.0811" cy="129.6877" gradientUnits="userSpaceOnUse" id="a" r="373.3062">
        <stop offset=".1678" stop-color="#2b6ffe" />
        <stop offset=".5059" stop-color="#5899ff" />
        <stop offset=".8038" stop-color="#ff74f1" />
    </radialGradient>
    <circle cx="250" cy="242" fill="url(#a)" r="239" />
    <path
        d="m329.9 241.7c16.8 6.7 24.2 19.8 23.7 38.1-.3 10.9-.1 21.9-.1 33.5-5.9 0-11.2 0-16.4 0-12.5 0-25-.1-37.5.1-3.5 0-4.7-1.2-4.6-4.6.2-9.5.1-19 .1-28.5 0-10.3-4.4-14.9-14.9-15-15-.2-30 0-45 0-7.7 0-15.3 0-23.5 0-.1 2-.3 3.7-.3 5.5v38c0 2.4.2 4.7-3.5 4.6-17.7-.1-35.3-.1-53-.1-.5 0-.9-.3-1.7-.5 0-47.1 0-94.2 0-141.8 1.6-.1 3.2-.2 4.8-.2 46.5 0 93-.3 139.5.3 10.3.1 21 1.9 30.8 5.1 24.8 8.2 31.8 41.9 12.7 58.8-3.4 2.8-7.6 4.6-11.1 6.7zm-118.4-16.2c1.9.1 3.4.3 4.9.3h65c7.5 0 10.5-1.9 10.5-6.3s-3.2-6.4-10.5-6.4c-21.7 0-43.3 0-65 0-1.6 0-3.2.1-4.9.2z"
        fill="#fff" />
</svg>