<svg xmlns:xlink="http://www.w3.org/1999/xlink" enable-background="new 0 0 500 500"
    viewBox="0 0 500 500" xmlns="http://www.w3.org/2000/svg">
    <linearGradient id="a">
        <stop offset="0" stop-color="#c200fb" />
        <stop offset=".4897" stop-color="#3772ff" />
        <stop offset=".4898" stop-color="#3773fe" />
        <stop offset="1" stop-color="#5ac4be" />
    </linearGradient>
    <linearGradient gradientTransform="matrix(1 0 0 -1 0 501)" gradientUnits="userSpaceOnUse" id="b"
        x1="474.269" x2="15.369" y1="342.817" y2="159.3041" xlink:href="#a" />
    <linearGradient gradientTransform="matrix(1 0 0 -1 0 501)" gradientUnits="userSpaceOnUse" id="c"
        x1="465.4096" x2="6.5095" y1="364.9713" y2="181.4584" xlink:href="#a" />
    <linearGradient gradientTransform="matrix(1 0 0 -1 0 501)" gradientUnits="userSpaceOnUse" id="d"
        x1="511.2959" x2="52.3958" y1="250.2261" y2="66.7132" xlink:href="#a" />
    <linearGradient gradientTransform="matrix(1 0 0 -1 0 501)" gradientUnits="userSpaceOnUse" id="e"
        x1="462.3383" x2="3.4383" y1="372.5586" y2="189.0457" xlink:href="#a" />
    <path
        d="m438.8 187.5v174.2l-193.8 112-193.9-111.9v-223.9l193.9-112 149 86 22.5-13-171.5-98.9-216.4 125v249.8l216.4 125 216.4-125v-200.2z"
        fill="url(#b)" />
    <path
        d="m190.8 361.9h-32.4v-108.7h108.1c10.2-.1 20-4.2 27.2-11.5s11.3-17.1 11.3-27.3c.1-5.1-.9-10.1-2.9-14.7-2-4.7-4.8-8.9-8.5-12.4-3.5-3.6-7.7-6.5-12.4-8.4-4.7-2-9.7-2.9-14.7-2.9h-108.2v-33.1h108.2c18.9.1 37.1 7.7 50.5 21.1s21 31.5 21.1 50.5c.1 14.5-4.3 28.7-12.6 40.5-7.7 11.3-18.5 20.2-31.1 25.5-12.5 4-25.6 5.9-38.7 5.8h-64.9z"
        fill="url(#c)" />
    <path d="m337.3 359.2h-37.8l-29.2-50.9c11.5-.7 22.9-3 33.8-6.9z" fill="url(#d)" />
    <path d="m416.2 151.3 22.4 12.4 22.4-12.4v-26.3l-22.4-13-22.4 13z" fill="url(#e)" />
</svg>