<svg enable-background="new 0 0 500 500" viewBox="0 0 500 500" xmlns="http://www.w3.org/2000/svg">
    <g clip-rule="evenodd" fill="#070707" fill-rule="evenodd">
        <path
            d="m98.9 105.6 36.2-21 4.8 8.4 133.3-77.6-9.8-5.7-9.8-5.7-4.8-2.8-217 126.6v5.7l62.3-36.4z" />
        <path
            d="m98.9 185.3 104.5-60.9 4.8 8.5 133.3-77.6-9.8-5.8-9.8-5.7-4.8-2.7-285.3 166.4v5.7l62.3-36.5z" />
        <path
            d="m98.9 225.2 138.6-80.8 4.9 8.4 133.2-77.7-9.8-5.6-9.7-5.7-4.9-2.9-319.4 186.4v5.7l62.3-36.3z" />
        <path
            d="m98.9 265 173.7-101.3 4.9 8.5 132.2-77.1-9.7-5.8-9.8-5.6-4.8-2.9-353.6 206.4v5.6l62.3-36.4z" />
        <path
            d="m98.9 304.8 207.9-121.2 4.8 8.6 132.3-77.3-9.8-5.6-9.7-5.7-4.9-2.9-387.7 226.3v5.6l62.3-36.3z" />
        <path
            d="m458.5 123.5-4.9-2.9-421.8 246.3v5.6l62.3-36.3 4.8 8.5 207.9-121.2 4.8 8.5 154.2-89.9v-11.4-2.9z" />
        <path
            d="m58.5 396.7 34.9-20.4 4.9 8.5 207.5-121 4.8 8.6 155.2-90.6v-11.4-11.4-5.6l-412.1 240.5z" />
        <path
            d="m305.8 303.7 4.8 8.6 155.2-90.5v-11.5-11.4-5.6l-378 220.5 4.9 2.8 35.5-20.7 4.9 8.5" />
        <path
            d="m126.9 436.6 35.5-20.8 4.8 8.6 138.6-80.9 4.8 8.6 155.2-90.6v-11.4-11.3-5.7l-343.9 200.5z" />
        <path
            d="m161 456.5 35.5-20.7 4.9 8.5 104.4-60.9 4.8 8.5 155.2-90.6v-11.3-11.4-5.7l-309.7 180.7z" />
        <path
            d="m190.3 473.5 4.8 2.9 35.6-20.8 4.8 8.6 70.3-41 4.8 8.5 155.2-90.5v-11.4-11.4-5.7z" />
        <path
            d="m229.3 496.4 35.5-20.9 4.8 8.6 36.2-21.1 4.8 8.6 155.2-90.5v-11.4-11.4-5.7l-241.4 140.9z" />
        <path
            d="m307.3 35.3-9.8-5.7-9.7-5.6-4.9-2.9-251.1 146.5v5.7l62.3-36.3 4.8 8.4 70.3-40.9 5 8.5z" />
    </g>
</svg>