<svg enable-background="new 0 0 500 500" viewBox="0 0 500 500" xmlns="http://www.w3.org/2000/svg">
    <circle clip-rule="evenodd" cx="249.8" cy="249.7" fill-rule="evenodd" r="245.7" />
    <path
        d="m394.2 309-30.8-51.5c-1.2-1.9-3.6-2.5-5.5-1.3l-20 12.8c-1.8 1.2-2.4 3.5-1.3 5.4l17.6 29.4c.5.9.3 2.1-.6 2.7l-102.6 65.8c-.6.4-1.5.4-2.1 0l-102.7-65.8c-.9-.6-1.2-1.7-.6-2.7l17.6-29.4c1.1-1.8.5-4.2-1.3-5.4l-20-12.8c-1.9-1.2-4.4-.6-5.5 1.3l-31 51.5c-2.2 3.7-1.1 8.5 2.5 10.7l137.6 88.1c2.6 1.7 6 1.7 8.6 0l137.6-88.1c3.6-2.3 4.7-7 2.5-10.7z"
        fill="#fff" />
    <path
        d="m157.9 228.9 20 12.8c1.9 1.2 4.4.6 5.5-1.3l64.7-108.2c.8-1.3 2.6-1.3 3.4 0l64.7 108.2c1.2 1.9 3.6 2.5 5.5 1.3l20-12.8c1.8-1.2 2.4-3.5 1.3-5.4l-77.2-129.3c-1.5-2.4-4-3.9-6.8-3.9h-18.2c-2.8 0-5.4 1.5-6.8 3.9l-77.3 129.3c-1.2 1.8-.6 4.2 1.2 5.4z"
        fill="#2ae7a8" />
</svg>