<svg enable-background="new 0 0 500 500" viewBox="0 0 500 500" xmlns="http://www.w3.org/2000/svg">
    <path
        d="m19.2 447v-392c0-29.1 23.7-52.8 52.8-52.8h383.1c10 0 18.1 8.1 18.1 18.1v104.2c0 10.9-4.3 21.4-11.9 29.1l-126.6 128.3 130.9 130.9c19.6 19.6 19.6 51.3 0 70.9-19.6 19.6-51.3 19.6-70.9 0l-169.2-169.3c-18.5-18.5-18.5-48.5.1-67l150.9-149.4-255.8.3v348.7c0 27.9-22.5 50.5-50.4 50.8-28.1.2-51.1-22.6-51.1-50.8z"
        fill="#00e6a0" />
    <path
        d="m467.9 7.5c3.3 3.2 5.3 7.8 5.3 12.8v104.2c0 10.9-4.3 21.4-11.9 29.1l-126.6 128.3 130.9 130.9c19.6 19.6 19.6 51.3 0 70.9-19.6 19.6-51.3 19.6-70.9 0l-169.2-169.3c-18.5-18.5-18.5-48.5.1-67l150.9-149.4s90.4-91.4 91.4-90.5z"
        fill="#008c62" />
</svg>