<svg enable-background="new 0 0 500 500" viewBox="0 0 500 500" xmlns="http://www.w3.org/2000/svg">
    <path
        d="m118.9 174.1h111.5c.6 0 1.3-.6 1.3-1.3v-36.1c0-.6-.6-1.3-1.3-1.3h-111.5c-.6 0-1.3.6-1.3 1.3v36.1c0 .9.6 1.3 1.3 1.3zm75.4-66.1h36.1c.6 0 1.3-.6 1.3-1.3v-36c0-.6-.6-1.3-1.3-1.3h-36.1c-.6 0-1.3.6-1.3 1.3v36.1c.1.6.7 1.2 1.3 1.2zm-154.2 159.9h-36.1c-.6 0-1.3.6-1.3 1.3v36.1c0 .6.6 1.3 1.3 1.3h36.1c.6 0 1.3-.6 1.3-1.3v-36.1c-.1-.7-.7-1.3-1.3-1.3zm132.3 0h-36.1c-.6 0-1.3.6-1.3 1.3v111.5c0 .6.6 1.3 1.3 1.3h36.1c.6 0 1.3-.6 1.3-1.3v-111.5c0-.7-.6-1.3-1.3-1.3zm220.6-36.1h36.1c.6 0 1.3-.6 1.3-1.3v-36.1c0-.6-.6-1.3-1.3-1.3h-36.1c-.6 0-1.3.6-1.3 1.3v36.1c.1.9.5 1.3 1.3 1.3zm-66.3 0h36.1c.6 0 1.3-.6 1.3-1.3v-111.4c0-.6-.6-1.3-1.3-1.3h-36.1c-.6 0-1.3.6-1.3 1.3v111.5c.1.8.7 1.2 1.3 1.2zm-132.4-190.1h36.1c.6 0 1.3-.6 1.3-1.3v-36c0-.6-.6-1.3-1.3-1.3h-36.1c-.6 0-1.3.6-1.3 1.3v36.1c.1.8.7 1.2 1.3 1.2zm-87.9 226.2h-36.1c-.6 0-1.3.6-1.3 1.3v36.1c0 .6.6 1.3 1.3 1.3h36.1c.6 0 1.3-.6 1.3-1.3v-36.1c-.3-.7-.7-1.3-1.3-1.3zm274.1 58h-111.5c-.6 0-1.3.6-1.3 1.3v36.1c0 .6.6 1.3 1.3 1.3h111.5c.6 0 1.3-.6 1.3-1.3v-36.1c-.3-.9-.7-1.3-1.3-1.3zm76.1-65.7h-158c-.6 0-1.3.6-1.3 1.3v35c0 .6.6 1.3 1.3 1.3h158c.6 0 1.3-.6 1.3-1.3v-35c-.1-.9-.7-1.3-1.3-1.3zm-151.8 131.7h-36.1c-.6 0-1.3.6-1.3 1.3v36.1c0 .6.6 1.3 1.3 1.3h36.1c.6 0 1.3-.6 1.3-1.3v-36.1c0-.6-.4-1.3-1.3-1.3zm-103-188.4c0-.6-.6-1.3-1.3-1.3h-158c-.6 0-1.3.6-1.3 1.3v35c0 .6.6 1.3 1.3 1.3h158c.6 0 1.3-.6 1.3-1.3zm293.4-10h-36.1c-.6 0-1.3.6-1.3 1.3v36.1c0 .6.6 1.3 1.3 1.3h36.1c.6 0 1.3-.6 1.3-1.3v-36.1c-.1-.9-.5-1.3-1.3-1.3zm-257.1 104.2h-35c-.6 0-1.3.6-1.3 1.3v158c0 .6.6 1.3 1.3 1.3h35c.6 0 1.3-.6 1.3-1.3v-158c0-.7-.7-1.3-1.3-1.3zm59.2-96.5v-158.2c0-.6-.6-1.3-1.3-1.3h-35c-.6 0-1.3.6-1.3 1.3v158.2c0 .6.6 1.3 1.3 1.3h35c.7-.1 1.3-.7 1.3-1.3zm7.5 257h-36.1c-.6 0-1.3.6-1.3 1.3v36.1c0 .6.6 1.3 1.3 1.3h36.1c.6 0 1.3-.6 1.3-1.3v-36.1c0-.8-.4-1.3-1.3-1.3z"
        fill="#149dd9" />
</svg>