<svg enable-background="new 0 0 500 500" viewBox="0 0 500 500" xmlns="http://www.w3.org/2000/svg">
    <path clip-rule="evenodd"
        d="m449.3 98.9c-37.8-48.4-93.3-79-154.7-79-118.7 0-205.5 110.3-205.5 229.8 0 83.3 55.3 145.6 116.8 145.6 5.7 0 11.4-.5 17.1-1.6-41.2-30-67.5-84.8-67.5-144.1 0-94.5 63.9-168.1 139.2-168.1 82.1 0 139.3 81.6 139.3 168.1-.2 63.9-23 127.4-63.1 174.3-35 40.9-80.3 66.9-130.1 75.1 0 0 4.2.3 9.6.3 137.9 0 249.7-111.8 249.7-249.8-.1-56.4-19-108.7-50.8-150.6zm-37.9 150.9c0-83.3-55.3-145.7-116.8-145.7-5.8 0-11.4.5-17.1 1.6 41.2 30 67.5 84.8 67.5 144.1 0 94.5-63.9 168.1-139.2 168.1-82.2 0-139.3-81.6-139.3-168.1.2-63.9 23-127.4 63.1-174.3 35-40.9 80.3-66.9 130.1-75.1 0 0-4.1-.3-9.6-.3-137.8-.1-249.6 111.7-249.6 249.7 0 56.7 18.9 108.9 50.7 150.8 37.8 48.4 93.3 79 154.7 79 118.7 0 205.5-110.3 205.5-229.8z"
        fill="#0293f6" fill-rule="evenodd" />
</svg>