<svg enable-background="new 0 0 500 500" viewBox="0 0 500 500" xmlns="http://www.w3.org/2000/svg">
    <circle cx="249.9" cy="250.1" r="247.9" />
    <path
        d="m364.2 221.6v-34.9c0-1.5-1.2-2.8-2.8-2.8h-43.2c-1.5 0-2.8-1.2-2.8-2.8v-52.1c0-1.5-1.2-2.8-2.8-2.8h-34.9c-1.5 0-2.8 1.2-2.8 2.8v52.3c0 1.5-1.2 2.8-2.8 2.8h-44.8c-1.5 0-2.8-1.2-2.8-2.8v-52.3c0-1.5-1.2-2.8-2.8-2.8h-34.9c-1.5 0-2.8 1.2-2.8 2.8v52.3c0 1.5-1.2 2.8-2.8 2.8h-43.2c-1.5 0-2.8 1.2-2.8 2.8v34.9c0 1.5 1.2 2.8 2.8 2.8h43.2c1.5 0 2.8 1.2 2.8 2.8v54.3c0 1.5-1.2 2.8-2.8 2.8h-43.2c-1.5 0-2.8 1.2-2.8 2.8v34.9c0 1.5 1.2 2.8 2.8 2.8h43.2c1.5 0 2.8 1.2 2.8 2.8v52.3c0 1.5 1.2 2.8 2.8 2.8h34.9c1.5 0 2.8-1.2 2.8-2.8v-52.3c0-1.5 1.2-2.8 2.8-2.8h44.8c1.5 0 2.8 1.2 2.8 2.8v52.3c0 1.5 1.2 2.8 2.8 2.8h34.9c1.5 0 2.8-1.2 2.8-2.8v-52.3c0-1.5 1.2-2.8 2.8-2.8h43.2c1.5 0 2.8-1.2 2.8-2.8v-34.9c0-1.5-1.2-2.8-2.8-2.8h-43.2c-1.5 0-2.8-1.2-2.8-2.8v-54.3c0-1.5 1.2-2.8 2.8-2.8h43.2c1.6-.2 2.8-1.4 2.8-3zm-91.8 62.6h-44.8c-1.5 0-2.8-1.2-2.8-2.8v-54.3c0-1.5 1.2-2.8 2.8-2.8h44.8c1.5 0 2.8 1.2 2.8 2.8v54.3c0 1.5-1.3 2.8-2.8 2.8z"
        fill="#fff" />
</svg>