<svg enable-background="new 0 0 500 500" viewBox="0 0 500 500" xmlns="http://www.w3.org/2000/svg">
    <path
        d="m355.8 615.8c-112.4-14.2-198-93.4-220.1-203.7-4.2-21-4.2-70.8 0-91.8 20.7-103.2 97.6-180.2 200.9-200.8 21-4.2 70.8-4.2 91.8 0 103.3 20.6 180.3 97.6 200.9 200.8 4.2 21 4.2 70.8 0 91.8-20.6 102.8-98 180.5-200 200.6-13.7 2.7-60.8 4.7-73.5 3.1z"
        fill="#fff" transform="translate(-132.57885 -116.361618)" />
    <path
        d="m289.6 593.1c-112.3-14.1-198-93.4-220.1-203.7-4.2-21-4.2-70.8 0-91.8 20.7-103.2 97.6-180.2 200.9-200.8 21-4.2 70.8-4.2 91.8 0 103.3 20.6 180.3 97.6 200.9 200.8 4.2 21 4.2 70.8 0 91.8-20.6 102.8-98 180.5-200 200.6-13.7 2.7-60.8 4.7-73.5 3.1zm11.3-186.5.5-36.3h16.3 16.3l15.8 36.8 15.8 36.8h20.2c11.1 0 20.7-.4 21.2-.9s-5.9-16.1-14.1-34.7c-8.3-18.6-15.4-35.3-15.8-37.2-.6-2.7.4-4 4.4-5.6 6.8-2.8 15.9-13.1 18.8-21.2 1.6-4.6 2.3-15.5 2.3-37.4 0-29.2-.2-31.4-4-38.9-2.2-4.4-7-10.6-10.7-13.7-12.2-10.4-16.1-11-74.9-10.5l-52.6.4-.5 16.2-.5 16.2-18.7.5-18.7.5v17.5 17.5l19.6.5 19.6.5v9.1 9.1l-19.6.5-19.6.5v17.5 17.5l19.6.5 19.6.5v37.6 37.6l19.6.2h19.6zm.4-99.8v-25.1h27.5c27.5 0 27.5 0 30.9 4.4 3 3.8 3.5 6.7 3.5 20.7 0 13.9-.5 16.9-3.5 20.7-3.5 4.4-3.5 4.4-30.9 4.4h-27.5z"
        transform="translate(-66.379698 -93.702179)" />
</svg>