<svg enable-background="new 0 0 500 500" viewBox="0 0 500 500" xmlns="http://www.w3.org/2000/svg">
    <path
        d="m272.014 3.498h33.276l20.99 21.502 73.72 20.99-63.993 17.918 17.918 76.28 25.085 30.204-61.945 231.912h-84.983l-132.082 94.198 84.983-382.935 21.502-38.396 8.703-30.205 21.501-24.062z"
        fill="#fff" />
    <path d="m272.014 3.498h33.276l20.99 21.502z" fill="#de4435" />
    <path d="m327.869 25.452 72.131 20.538-61.995 17.358z" fill="#eb8d3a" />
    <path d="m325.64 27.816-8.831 24.957 18.942 9.727z" fill="#e73f3c" />
    <path d="m323.08 27.048-8.447 23.933-39.036-43.771z" fill="#ec903b" />
    <path d="m238.385 20.069 31.421-15.483 41.499 46.395z" fill="#e1423e" />
    <path d="m236.087 21.578 46.038 20.188-65.847 1.98z" fill="#dd4137" />
    <path d="m214.74 46.52 65.209-2.12-73.012 29.2z" fill="#393b78" />
    <path d="m205.871 76.266 80.221-31.866-99.712 66.672z" fill="#e24335" />
    <path d="m189.718 112.159 99.574-67.001 47.013 20.02z" fill="#373c7d" />
    <path d="m191.382 114.59 145.59-46.573 15.966 67.969z" fill="#ec8e36" />
    <path d="m187.927 116.51 165.011 22.782-38.305 263.012z" fill="#e1433a" />
    <path d="m185.367 119.198 126.194 283.106h-78.455z" fill="#373d7b" />
    <path d="m183.281 121.237 46.923 282.406-130.204 92.859z" fill="#373c7d" />
    <path d="m356.312 143.062 22.698 27.33-59.829 223.989z" fill="#383d79" />
</svg>