<svg enable-background="new 2000 0 500 500" viewBox="2000 0 500 500"
    xmlns="http://www.w3.org/2000/svg">
    <path
        d="m2250 496.877c-33.328 0-65.659-6.528-96.096-19.401-14.629-6.187-28.738-13.846-41.936-22.762-13.072-8.831-25.365-18.974-36.536-30.145s-21.314-23.464-30.145-36.536c-8.916-13.198-16.575-27.307-22.762-41.936-12.874-30.437-19.401-62.768-19.401-96.096s6.527-65.659 19.401-96.096c6.188-14.629 13.846-28.738 22.762-41.936 8.831-13.072 18.974-25.365 30.145-36.536s23.464-21.314 36.536-30.145c13.198-8.916 27.307-16.575 41.936-22.762 30.438-12.875 62.769-19.402 96.096-19.402 33.328 0 65.659 6.527 96.096 19.401 14.629 6.187 28.738 13.846 41.936 22.762 13.072 8.831 25.365 18.974 36.536 30.145 11.172 11.171 21.314 23.464 30.145 36.536 8.916 13.198 16.575 27.307 22.762 41.936 12.874 30.437 19.401 62.768 19.401 96.096s-6.528 65.659-19.401 96.096c-6.187 14.629-13.846 28.738-22.762 41.936-8.832 13.072-18.974 25.365-30.145 36.536-11.171 11.172-23.464 21.314-36.536 30.145-13.198 8.916-27.307 16.575-41.936 22.762-30.437 12.874-62.768 19.402-96.096 19.402zm0-491.694c-33.051 0-65.112 6.473-95.293 19.238-14.506 6.136-28.498 13.73-41.585 22.572-12.964 8.758-25.154 18.816-36.233 29.895s-21.137 23.269-29.895 36.233c-8.842 13.088-16.436 27.079-22.572 41.585-12.766 30.182-19.239 62.243-19.239 95.293 0 33.051 6.473 65.112 19.239 95.294 6.136 14.506 13.73 28.498 22.572 41.585 8.758 12.964 18.816 25.154 29.895 36.233s23.269 21.137 36.233 29.895c13.088 8.842 27.079 16.436 41.585 22.572 30.181 12.766 62.243 19.238 95.293 19.238s65.112-6.473 95.293-19.238c14.506-6.136 28.498-13.73 41.585-22.572 12.964-8.758 25.154-18.816 36.233-29.895s21.137-23.269 29.895-36.233c8.842-13.088 16.436-27.079 22.572-41.585 12.766-30.182 19.239-62.243 19.239-95.294s-6.473-65.112-19.239-95.293c-6.135-14.506-13.73-28.498-22.572-41.585-8.758-12.964-18.816-25.154-29.895-36.233s-23.27-21.137-36.233-29.895c-13.088-8.842-27.079-16.436-41.585-22.572-30.181-12.765-62.242-19.238-95.293-19.238z"
        fill="#ffce45" />
    <path d="m2250.002 57.585 188.327 188.326-188.327 188.327-188.326-188.327z" fill="#ffce45" />
    <path d="m2250 307.365-188.482-61.462 188.482-188.323 188.482 188.323z" fill="#febe44" />
    <path d="m2127.077 233.611h86.046l36.877-40.975 40.974 40.974h86.046l-127.02-137.26z"
        fill="#fff" />
    <path d="m2250 434.226v-376.646l188.323 188.323z" fill="#d9a547" opacity=".42" />
</svg>