<svg xmlns:xlink="http://www.w3.org/1999/xlink" enable-background="new 0 0 500 500"
    viewBox="0 0 500 500" xmlns="http://www.w3.org/2000/svg">
    <linearGradient id="a">
        <stop offset="0" stop-color="#b970fe" />
        <stop offset=".9986" stop-color="#d0a0ff" />
    </linearGradient>
    <linearGradient gradientUnits="userSpaceOnUse" id="b" x1="250.2743" x2="250.2743" y1="498.3758"
        y2="1.6503" xlink:href="#a" />
    <linearGradient gradientUnits="userSpaceOnUse" id="c" x1="248.8693" x2="248.8693" y1="365.4353"
        y2="134.5783" xlink:href="#a" />
    <path
        d="m250.3 26.1c59.8 0 116 23.3 158.3 65.6s65.6 98.5 65.6 158.3-23.3 116-65.6 158.3-98.5 65.6-158.3 65.6-116-23.3-158.3-65.6c-42.3-42.2-65.6-98.5-65.6-158.3s23.3-116 65.5-158.3c42.3-42.3 98.6-65.6 158.4-65.6m0-24.4c-137.2 0-248.4 111.1-248.4 248.3s111.2 248.4 248.4 248.4 248.3-111.2 248.3-248.4-111.2-248.3-248.3-248.3z"
        fill="url(#b)" />
    <path
        d="m388.8 165.4c0-16.8-13.5-30.5-30.3-30.8h-159.5c-32.9 0-59.6 26.7-59.6 59.6v109.7c-16.9.2-30.5 13.9-30.5 30.8s13.6 30.6 30.5 30.8h.3s0 0 0 0h159.2c32.9 0 59.6-26.7 59.6-59.6v-109.8c16.8-.3 30.3-13.9 30.3-30.7zm-66 140.4c0 13.2-10.7 23.9-23.9 23.9h-123.8v-135.5c0-13.2 10.7-23.9 23.9-23.9h123.8z"
        fill="url(#c)" />
</svg>