<svg enable-background="new 0 0 500 500" viewBox="0 0 500 500" xmlns="http://www.w3.org/2000/svg">
    <path clip-rule="evenodd"
        d="m104.5 309.7 7.5 52.4-37.3 7.5-29.9-7.6-44.8-74.8 14.9-134.7 52.2-67.3 67.2-7.5 67.2-37.4 89.5 44.9-22.4 22.4c64.7 10 107 17.5 126.9 22.4 29.9 7.5 82.1 44.9 89.6 52.4s3.9 41.9 0 67.3c-2.6 17-7.6 29.4-14.9 37.4l29.8 172.2h-67.2l14.9-15-59.7-127.2-164.2 22.4-59.7 119.7h-67.1l22.4-37.4 44.8-157.1-29.9-29.9-67.2 15-7.5 59.8 22.4 22.4zm105 88.3 22.3-45.9 29.7-7.7 22.3 114.9h-74.3l14.9-7.7zm143.2-52 22.3-15.1 37.2 64.2-7.4 64.2h-66.9l14.9-22.7v-90.6z"
        fill-rule="evenodd" />
</svg>