<svg enable-background="new 0 0 500 500" viewBox="0 0 500 500" xmlns="http://www.w3.org/2000/svg">
    <path
        d="m496.8 213c-6-39.2-25.4-80.1-51.9-109.5-31.7-35.1-70.5-51.5-109.3-46.2-94.2 12.8-114.1 94.5-131.8 166.4l-.1.2-.2.7c-15.7 63.7-29.2 118.7-86.8 126.4-38 5.3-67.1-45.7-72.8-82.9l-.8-5.2h-.1c-6-49.4 6.1-96.7 36-141l-3.1 57.3 25.3-9.8 7.6-114.4-107.2 50.1.9 25.3 53.8-25.7c-35 51.4-49.3 108.4-41.1 165.9l.5 3c6.3 41.4 24.3 84.6 48.2 115.7 29.6 39 67.3 58.6 105.9 55.3 42.4-3.5 74.4-22.7 97.9-58.6 20.3-31.2 31.2-69.6 41.8-106.7v-.3c18.7-65.6 34.8-122.3 92.7-127.3 22.1-1.7 37.7 12.2 46.8 24.1 10.2 13.4 18.1 32.2 20.8 50.1.3 2.2.6 4.3.8 6.4 3.8 45.6-23.3 105.7-52.1 146.1l3.2-58.5-25.3 9.8-7.4 114.5 107.3-50.2-.9-25.3-52.9 25.2c37.5-53 64.3-115.1 54.3-180.9zm-96.6-89.4c-35.1 2.8-61.6 19.6-81.2 51.1-17.2 27.6-27.1 63-36.7 97.1l-.2.6c-10.4 36.2-20.3 70.5-37.2 96.8-18.7 29.1-43.3 44-77.3 46.8-33.7 2.9-59.7-18.5-76.6-39 9.5 3 19.7 4 30 2.7 34.7-4.7 60.3-22.3 78.6-53.6 15.9-27.4 24.3-61.8 32.4-95.1 16.9-69.2 32.9-134.8 107.9-145.1 28.8-4 58.7 9.1 84.1 37.1.9.9 1.7 1.9 2.6 2.8-8.8-2.3-17.5-3.1-26.4-2.2z"
        fill="#1b1b1b" />
</svg>