<svg enable-background="new 0 0 500 500" viewBox="0 0 500 500" xmlns="http://www.w3.org/2000/svg">
    <mask height="213.8" id="a" maskUnits="userSpaceOnUse" width="350.6" x="32.2" y="284.6">
        <path clip-rule="evenodd"
            d="m330.7-81.3c-188.3-46.7-378.1 68.6-424.8 255.5-46.8 188.4 67.1 378.2 255.4 424.9s378.1-67.2 424.8-255.5c46.8-186.9-67.1-376.7-255.4-424.9z"
            fill="#fff" fill-rule="evenodd" />
    </mask>
    <mask height="213.8" id="b" maskUnits="userSpaceOnUse" width="350.6" x="117.7" y="2.4">
        <path clip-rule="evenodd"
            d="m330.7-81.3c-188.3-46.7-378.1 68.6-424.8 255.5-46.8 188.4 67.1 378.2 255.4 424.9s378.1-67.2 424.8-255.5c46.8-186.9-67.1-376.7-255.4-424.9z"
            fill="#fff" fill-rule="evenodd" />
    </mask>
    <mask height="307.9" id="c" maskUnits="userSpaceOnUse" width="427.6" x="40.8" y="96.5">
        <path clip-rule="evenodd"
            d="m330.7-81.3c-188.3-46.7-378.1 68.6-424.8 255.5-46.8 188.4 67.1 378.2 255.4 424.9s378.1-67.2 424.8-255.5c46.8-186.9-67.1-376.7-255.4-424.9z"
            fill="#fff" fill-rule="evenodd" />
    </mask>
    <g clip-rule="evenodd" fill-rule="evenodd">
        <path
            d="m32.3 339.3c0 14.7.1 29.3 0 44-.1 16 7.1 27.1 22.5 33.9 57.2 25.3 114.4 50.6 171.3 76.5 14.1 6.4 26.9 6.3 40.8 0 36-16.4 72.3-32.2 108.4-48.4 3-1.3 8-1.6 7.6-5.9-.3-3.2-4.8-3.6-7.6-4.9-65.9-29.3-131.8-58.5-197.6-87.8-44.7-19.8-89.2-39.7-133.7-59.5-10.2-4.5-11.6-3.6-11.7 7.1-.1 15-.1 30 0 45"
            fill="#ef674e" mask="url(#a)" />
        <path
            d="m468.3 161c0-14.3-.1-28.6 0-42.9.2-16.3-6.9-27.7-22.8-34.7-57.2-25.2-114.3-50.6-171.3-76.4-13.7-6.2-26.3-6.1-39.9.1-36 16.4-72.3 32.2-108.4 48.4-3.1 1.4-8.1 1.9-8.2 5.6-.2 4 5 4.1 8 5.5 54.2 24.1 108.5 48.1 162.8 72.2 55.9 24.8 111.7 49.8 167.5 74.6 11.1 4.9 12.1 4.2 12.2-7.3.2-15.1.1-30.1.1-45.1"
            fill="#ffb600" mask="url(#b)" />
        <path
            d="m40.9 152c0 14.1.4 28.2-.1 42.3-.6 16.5 7 27.2 22.7 34.1 131.2 57.7 262.2 115.6 393.3 173.4 10 4.4 11.1 3.8 11.2-6.4.1-27.2-.9-54.5.3-81.7 1-22.7-9.1-35.7-30.9-45-71.2-30.2-141.7-61.8-212.4-93-57.8-25.5-115.5-51.1-173.2-76.7-9.9-4.4-10.7-3.9-10.8 6.5-.2 15.6-.1 31-.1 46.5"
            fill="#e05a00" mask="url(#c)" />
    </g>
</svg>