<svg enable-background="new 0 0 500 500" viewBox="0 0 500 500" xmlns="http://www.w3.org/2000/svg">
    <path
        d="m222.1 373.6c.6-126.4.6-126.4-6.4-127.4-29.4-4.4-48.2-11.1-69.1-24.5-28-18-45.4-42.6-52.4-74-4.8-21.6-3.1-40.3 6.1-67.7 9.4-28 9.7-37.6 1.6-53.1l-6.2-11.9 25-8.5c28.3-9.6 27.9-9.7 35.2 6.6 7.3 16.1 6.5 40.3-2 66.2-8.6 26-10.4 38.3-8.1 54.5 4.5 31.4 25.1 51.7 61.5 60.6 19.7 4.8 69.3 4.7 86.8-.1 17.6-4.9 34.7-14.2 43.4-23.9 19.5-21.5 23-49.3 11-86.7-10.9-34-10.3-63.2 1.6-78.9 3.6-4.7 3.6-4.7 23.4.6 36.2 9.7 33.6 7.8 26.3 19.6-8.5 13.8-8.3 24.9 1.3 57.4 11 37.1 10 60-3.9 90.4-9.7 21.2-32.7 43.7-55.6 54.4-17.9 8.4-48.6 18-57.6 18-10.4 0-11.5 1.3-9.8 11.6.9 5.2 1.6 62 1.7 126.3l.1 116.8h-27.2-27.2zm-126.7 62.2v-24.1h49.1 49.1v24.1 24.1h-49.1-49.1zm208.6 0v-24.1h49.1 49.1v24.1 24.1h-49.1-49.1zm-208.6-78.2v-24.1h49.1 49.1v24.1 24.1h-49.1-49.1zm208.6 0v-24.1h49.1 49.1v24.1 24.1h-49.1-49.1zm-208.6-78.2v-24.1h49.1 49.1v24.1 24.1h-49.1-49.1zm208.6 0v-24.1h49.1 49.1v24.1 24.1h-49.1-49.1zm-33.9-110.9c-5.7-11.3-13.3-29-17-39.2l-6.6-18.7-3.4 12.6c-4.1 15.1-27.2 63.8-30.3 63.7-1.2-.1-11.8-4.8-23.6-10.5l-21.5-10.4 28.5-53.6 28.5-53.6h22.2 22.2l28.6 53.3c15.8 29.3 28.3 53.6 28 53.9-1.5 1.3-43.2 23.1-44.2 23.1-.6 0-5.7-9.2-11.4-20.6z" />
</svg>