<svg enable-background="new 0 0 500 500" viewBox="0 0 500 500" xmlns="http://www.w3.org/2000/svg">
    <path clip-rule="evenodd"
        d="m467.1 289.3v35.1c0 97.4-143.1 153.5-187 168.3l-16 5.4v-60.6l7.8-2.9c68.2-25.4 137.1-69.3 137.1-110.3v-35.1h58.1zm-216.7-287.5 58.5 17.8v61.8l-58.5-17.9-3.8 1.2v139.1h62.3v57.3h-62.3v236.1l-16.2-6c-7.5-2.8-19.7-7.5-34.7-14.2l-7.1-3.2v-453.1zm-80.2 24.7v61.5l-79.2 24.3v91.5h79.2v265.2l-17.5-8.9c-54.7-27.8-119.8-74.6-119.8-140v-30.8h58v30.8c0 13.5 7.1 27.7 21.2 42.4v-101.3h-79.2v-192.8zm156.3-1.5 140.6 43v193.2h-82.6v83.6s-18.5 23.9-58 43.9c0-11.1 0-181.1 0-284.7zm58 79.6v99.3h24.5v-91.8z"
        fill="#050101" fill-rule="evenodd" />
</svg>