<svg enable-background="new 0 0 500 500" viewBox="0 0 500 500" xmlns="http://www.w3.org/2000/svg">
    <path
        d="m156.8 205.5c3.1.2 6.6-.2 10.2-.5 3.7-.3 7.4-1 10.9-2.3 2.2-.8 4.2-2.1 5-4.3 1.6-4.2 1.9-8.6.7-12.9-1.9-6.6-6.8-11.1-12.1-15.2-4.6-3.6-9.8-5-15.4-4-9.8 1.6-19.7 10.3-20.9 20.5-.5 4.5-.8 8.8 1.8 12.8 1.7 2.7 3.5 5 7.1 5.3 4.1.3 8.2.6 12.7.6zm184.3 0c2.2.2 5.7-.3 9.2-.5 3.1-.2 6-.9 7.9-3.8 2.6-4.1 3.7-8.6 3.1-13.4-1.2-8.4-6.1-14.3-13.2-18.5-5.7-3.3-11.7-4.4-18.1-2.1-3.7 1.3-6.7 3.8-9.5 6.5-5 4.7-8.8 10-9.3 17.1-.5 6.5 2.1 10.5 8.3 12.3 6.6 2 13.4 2.3 21.6 2.4zm33.6 28.5c0-4.1 0-8.3-1.3-12.2-1.6-5-1.2-5.1-6.1-4.6-6.7.6-12.8 3.4-18.7 6.4-8.5 4.2-16.5 9.2-24.3 14.4-6.4 4.2-13 8.1-18.5 13.5-4.4 4.3-8.2 8.8-9.2 15.2-.3 2 .3 3.1 2.5 3.6 2 .5 4 .9 6.1.9 7.8 0 15.5-1.4 23.1-3.3 9.7-2.4 19.2-5.6 28.1-10.2 5.9-3.1 11.5-6.6 16.1-11.6 1.2-1.3 2.1-2.7 2-4.6-.2-2.6.1-5.1.2-7.5zm-248.5-.7c.1 1.8.4 4.8.4 7.7-.1 2.8 1.3 4.7 3.1 6.4 7.6 7.4 17 11.7 26.8 15.4 6.3 2.4 12.8 4.2 19.5 5.7 6.6 1.5 13.3 2.5 20.1 2.7 2.4.1 4.8-.2 7.2-1 2-.7 2.6-1.6 2.3-3.6-.3-1.7-.8-3.4-1.6-4.9-3-6.1-7.7-10.7-13.2-14.4-14.1-9.7-28.3-19.1-44.1-26-4.8-2.1-9.7-3.8-15.1-3.7-1.8 0-2.6.8-3.3 2.3-1.6 4-1.7 8.1-2.1 13.4zm-49.5-201.9c-1.2-.2-1.4.2-2.4 2.5-3.8 8.6-4.9 17.8-5.4 27-.4 5.7.1 11.4.6 17.1.3 4 .8 7.9 1.4 11.8.7 4.3 1.4 8.7 2.3 13 1.1 5.7 2.4 11.4 3.8 17 1.8 7 3.7 14 5.7 21 1.7 5.8 3.5 11.5 5.3 17.2.1.4.3.9.8.9s.6-.4.8-.7c3.9-6.1 7.8-12.3 12.2-18.1 5.5-7.2 11.1-14.3 17.4-20.9 5.1-5.3 10.3-10.5 16-15.2 5.3-4.4 10.6-8.6 16.3-12.4 1-.7 1-1.2.2-2.1-3.8-4-7.5-8.2-11.4-12.1-6.6-6.6-13.3-13.1-20.5-19.1-5.2-4.4-10.4-8.6-16-12.5-5.8-4-11.9-7.7-18.2-10.8-2.9-1.4-5.9-2.7-8.9-3.6zm285.5 74.8c.9 1.6 2.6 2.3 3.8 3.6 5.4 5.5 11 10.8 16 16.7 4 4.7 7.8 9.5 11.4 14.5 3.8 5.2 7.5 10.6 10.9 16 .5.8.6 2.1 1.7 2.1.3 0 .8-1.5 1-2.4 2.1-7.1 4.4-14.2 6.5-21.4 2.3-8.1 4.5-16.3 6.3-24.5 2-9 3.7-18.1 4.7-27.3.7-6.1 1.1-12.2 1.3-18.4.2-5.5-.5-10.9-1.1-16.3-.1-.4-.3-.7-.3-1.1-.6-5.1-2.2-9.9-4.3-14.6-1-2.3-1.3-2.3-3.7-1.4-8.4 3.3-16.3 7.6-23.8 12.7-11.6 8-22.3 17.3-32.4 27.1-5.9 5.7-11.6 11.7-17.1 17.8-.8.9-1 1.4.2 2.3 4.5 3.3 9 6.6 13.4 10.1 1.8 1.6 3.4 3.5 5.5 4.5zm-2.6-62.3c5.2-5 10.2-10.2 15.7-14.9 9.9-8.6 20.5-16.1 32.6-21.5 7.8-3.5 15.9-6.1 24.5-6.7 1.2-.1 2 .1 2.7 1.3 3.2 5.1 5.2 10.6 6.7 16.3 3.2 11.8 3.6 23.9 3.2 36-.4 9.9-1.4 19.7-2.8 29.5-1.1 7.8-2.5 15.5-3.9 23.2-.5 2.9-1.3 5.8-1.7 8.8-.2.6-.4 1.2-.5 1.8-2.2 10-4.7 20-7.3 29.9-3.1 11.7-6.3 23.3-10.1 34.8-1.1 3.4-.4 5.9.9 8.8 3.7 8.3 8.5 16.1 11.6 24.6 2.3 6.1 4.5 12.2 6.3 18.4 3 10.1 5.3 20.5 7 30.9 1 6.4 1.8 12.8 2.4 19.3.5 5.6.8 11.2 1 16.8.1 2.1.9 4.3.1 6.5-2.9-.4-5.8-1-8.7-1.3-9.5-1-19-1.5-28.6-.5-11.1 1.1-21.7 3.6-31.9 7.9-13.3 5.5-25 13.5-35.5 23.4-2.8 2.7-5.5 5.5-8.4 8.3-1.1-3.3-2.2-6.5-3.2-9.7-3.1-9.1-7.7-17.5-11.8-26.1-1.3-2.6-2.8-5-4.7-7.2-6.7-7.7-14.2-14.4-22.8-19.8-13.4-8.2-28.1-11.8-43.6-11.9-8.1 0-16 1.6-23.7 4-15.2 4.8-27.5 13.9-37.9 25.7-3.8 4.3-6.3 9.4-9.3 14.2-4 6.5-7.6 13.3-10.6 20.3-1.5 3.4-2.9 6.8-4.5 10.4-.7-.8-1.3-1.4-1.9-2.1-17.9-19.8-39.4-33.5-66.3-37.6-10-1.5-20-1.6-30-.8-5 .4-9.9 1.3-14.8 2.1.1-5.6.6-11.2 1-16.8.6-7.3 1.6-14.6 2.9-21.8 1-6.1 2.4-12.2 3.8-18.3 2.3-9.7 5.1-19.2 8.5-28.6.6-1.8 1.6-3.6-.1-5.3-.1-.1.1-.3.2-.6 1.1 1.4 1.7 1.2 2.2-.4 3.4-9.1 7.3-18 11.4-26.9.4-.9.7-1.7.3-2.7-3.7-9.3-6.9-18.8-9.6-28.5-2.1-7.3-4-14.7-5.6-22.2-1.2-5.4-2.4-10.8-3.6-16.2-.3-4.5-1.4-8.8-2-13.3-1-6.8-1.9-13.7-2.7-20.5-.7-7.1-1.2-14.1-1.6-21.2-.3-6.9-.4-13.8-.2-20.7.3-8.5.9-17 3.1-25.3 1.2-4.5 2.7-8.9 5.2-12.9 2.9-4.6 5.2-5.4 10.6-4.6 9.4 1.5 17.6 5.5 25.5 10.6 10.5 6.7 19.8 14.9 28.6 23.6 3.5 3.5 7.1 7 10.6 10.5.2.3.4.6.7.9 4.6 5.1 9.3 10 13.9 15.2 6.5 7.3 12.9 14.6 19.2 22 1.3 1.5 2.3 1.7 4.1 1 11.1-4.6 22.6-7.8 34.4-10 10.2-1.9 20.5-2.6 30.8-2.9 14.8-.5 29.5.2 44.2 2.6 13.1 2.2 25.9 5.5 38.4 10.2 2.8 1.1 2.8 1.1 4.6-1.4 5.5-7.7 11.4-15.1 17.4-22.5 4.1-5.5 8.9-10.8 13.6-16.1z"
        fill="#f4a817" />
    <path
        d="m448 307.6c.8-2.2-.1-4.3-.1-6.5-.2-5.6-.5-11.2-1-16.8-.6-6.4-1.4-12.9-2.4-19.3-1.7-10.5-4-20.8-7-30.9-1.9-6.2-4.1-12.3-6.3-18.4-3.2-8.5-7.9-16.4-11.6-24.6-1.3-2.9-2-5.5-.9-8.8 3.8-11.5 7-23.1 10.1-34.8 2.6-9.9 5.1-19.9 7.3-29.9.1-.6.3-1.2.5-1.8 5.9 8.5 11 17.4 15.7 26.6 6.1 11.9 11.1 24.2 15.2 36.9 3.5 10.9 6.2 22 8.2 33.3 2.8 16.2 4.1 32.6 3.8 49-.2 12.5-1.3 24.9-3.3 37.3-5.2 31.1-15.7 60.4-31.9 87.5-16.5 27.6-37.5 51.1-63.4 70.1-14.3 10.6-29.7 19.3-46.1 26.2-9.6 4.1-19.4 7.4-29.5 10.1-10.9 2.9-22 4.8-33.3 6-13.8 1.4-27.6 1.5-41.3.3-11.5-1-22.8-3-34.1-5.8-15.4-3.8-30.1-9.3-44.2-16.3-33.7-16.8-61.5-40.7-83.9-71-11.8-15.9-21.4-33.1-29-51.4-4.4-10.5-8-21.2-10.9-32.1-3-11.4-5.2-22.9-6.6-34.7-2.1-17.1-2.3-34.2-1-51.4 1.1-13.9 3.3-27.7 6.7-41.3 6.9-27.2 17.8-52.6 33.2-76.1.1-.1.2-.2.2-.3 1.2 5.4 2.4 10.8 3.6 16.2 1.6 7.5 3.5 14.9 5.6 22.2 2.7 9.6 5.9 19.2 9.6 28.5.4 1 .1 1.8-.3 2.7-4.1 8.8-8 17.7-11.4 26.9-.6 1.6-1.1 1.8-2.2.4-.1.3-.2.6-.2.6 1.7 1.8.7 3.5.1 5.3-3.3 9.4-6.1 18.9-8.5 28.6-1.5 6.1-2.8 12.1-3.8 18.3-1.2 7.2-2.3 14.5-2.9 21.8-.4 5.6-.9 11.2-1 16.8-.5 7 .2 13.8 2 20.6 2.7 10 7.1 19.2 12.5 28 10.9 17.6 25 32.5 40.6 46 21.6 18.8 45.5 34 71.5 46 5.1 2.4 10.2 4.8 15.5 6.7 3.9 1.4 7.8 2.8 11.7 4.2 2.4.8 4.9 1.7 7.4 2.5 9.2 2.8 18.6 4.7 28.2 5.7 10.9 1.1 21.8.4 32.6-1.4 9.7-1.6 19.2-4 28.5-7 9.6-3.1 19-6.8 28.2-11.1 13-6 25.4-12.9 37.4-20.8 11.3-7.4 21.9-15.6 31.9-24.8 4.2-3.9 8.5-7.8 12.1-12.3.5-.1.7-.5.9-.9h.1v-.1c.2-.2.4-.3.6-.5 6.8-7.6 13.1-15.6 18.4-24.4 2.9-4.9 6-9.7 8.4-14.9 4.4-9.4 7.5-19.2 9-29.6.7-3.7 1-7.5.8-11.3z"
        fill="#f00500" />
    <path
        d="m359.6 43.9c-4.7 5.3-9.5 10.5-14 16-6 7.3-11.9 14.7-17.4 22.5-1.8 2.6-1.8 2.5-4.6 1.4-12.4-4.7-25.3-8-38.4-10.2-14.6-2.4-29.4-3.1-44.2-2.6-10.3.4-20.7 1-30.8 2.9-11.8 2.2-23.3 5.4-34.4 10-1.8.7-2.8.5-4.1-1-6.3-7.4-12.7-14.7-19.2-22-4.6-5.1-9.3-10.1-13.9-15.2-.2-.3-.4-.6-.7-.9 13.5-7.9 27.7-14.5 42.6-19.4 12.4-4.1 25.1-7.1 38.1-9 16.6-2.4 33.2-2.7 49.9-1.4 11.4.9 22.7 2.9 33.9 5.6 19.7 4.9 38.3 12.5 56 22.4.5.4.9.7 1.2.9z"
        fill="#f00500" />
    <path
        d="m402.1 395.7v-.1zm3-2.7-.1.1h.1zm-3.4 3.3c-.1 0-.1-.1-.2 0-.2.1-.2.1 0 .2h.2s0-.1 0-.2zm-123.4 66.4h-1.7c.6.4 1.1.2 1.7 0zm-5.6.8c1.3.4 2.2.1 3.2-.4-1.2-.4-2 .2-3.2.4zm-19.7-71.3c-5.3-.1-10.6-.1-15.9-.1-3.2 0-3.1 0-3 3.2 0 .8.4 1.2 1 1.6 1.6 1 3.3 1.6 5 2.3 1.2.5 1.8.4 2.3-1 .9-2.8 1-2.7 3.9-2.5 1 .1 1.5.5 1.9 1.2 1 1.6 2 3.3 3 4.9 1.5 2.5 4 2.7 6 .4.8-1 1.7-2 2.5-3 2.8-3.3 2.8-3.3 6.1-.5.5.4.8 1 1.6.8 2.7-.6 4.7-3.2 4.8-5.9 0-1.4-.5-1.6-1.7-1.6-5.9.2-11.7.2-17.5.2zm54.1-16.2c-5.3 0-10.6 0-15.8 0-.8 0-1.2.5-1.4 1-.5 1.4-1.5 1.7-2.9 1.6-4.1-.1-8.2-.1-12.4-.1-2.1 0-4.6.6-6.2-.3-1.7-1-2.6-3.4-3.5-5.3-.7-1.3-1.5-2-3-1.8-.9.2-1.3-.2-1.3-1.2.1-4.7 0-9.4 0-14.1 0-.8.2-1.2 1-1.5 3.6-1.2 6.9-3.1 9.9-5.4 5.9-4.5 10.1-10.2 11.5-17.7 1-5.1.5-10.3.6-15.5.2-6.2-6.1-12.6-12.3-12.6-11.6 0-23.1 0-34.7 0-7 0-11.7 4.7-11.7 11.7 0 3.3.2 6.6 0 9.9-.4 6.8 2.4 12.2 6.9 16.9 5.5 5.7 12.2 9.4 19.4 12.5.7.3 1.4.4 1.4 1.5v14.2c0 .7-.2 1.3-1 1.1-1.9-.5-2.6.8-3.3 2.1-.8 1.5-1.8 3-2.6 4.5-.4.7-.8.9-1.6.9-7.4 0-14.7 0-22.1-.4-.6 0-1.1 0-1.2-.8 0-1.2-.8-1.3-1.8-1.3-5.1 0-10.2-.1-15.4-.1-.4 0-1-.3-1.1.4-.1.6-.2 1.2.3 1.8.9.9 1.7 1.8 2.7 2.6 1.2 1 1.7 2.1 1.8 3.7.1 2.2.5 4.3.9 6.4.4 1.8.9 2.3 2.6 1.8 1.2-.4 2.5-.5 2.7 1.4.3 2.6 1.1 5.1 2 7.6 1.1 3.3 2.4 6.6 4.5 9.4 2.4-2.5 2.6-5.4 2.5-8.5-.2-5.9-.1-11.7-.1-17.6.8.1 1.8.1 2.7.3 7.8 1.6 15.7 2.2 23.6 2.5 12.8.5 25.4-.6 38-2.8 1.4-.2 1.7.1 1.6 1.4-.1 6-.1 12-.2 18 0 2.8 1.9 4.5 3.2 6.8 2-5.3 4-10.3 5.9-15.3 1.1-2.9 1.1-2.9 4.1-2.9.9 0 1.6 0 1.8-1 1.5-5.2 2.7-10.4 4-15.8zm101.3 13.9c.1-.1.2-.2.3-.4-.1 0-.1-.1-.2-.1-.1.1-.2.3-.1.5-.2.1-.3.2-.4.3-.5 0-.8.2-.8.7-.2 0-.3.1-.5.1 0 .1.1.1.1.2l.3-.3c.4-.1.6-.4.8-.8.2 0 .3-.1.5-.2zm-2.3 2.2c.1-.1.3-.1.1-.3 0 .1-.1.2-.1.3-.1 0-.2.1-.2.1.1 0 .1 0 .2-.1zm-1.9 1.9c.1-.1.2-.2.2-.2-.2-.2-.2 0-.3.1 0 .1-.1.2-.1.2.1 0 .2 0 .2-.1zm5.7-4.8c-3.7 4.5-7.9 8.4-12.1 12.3-9.9 9.2-20.6 17.4-31.9 24.8-11.9 7.9-24.4 14.8-37.4 20.8-9.2 4.2-18.6 8-28.2 11.1-9.3 3-18.8 5.4-28.5 7-10.8 1.8-21.7 2.5-32.6 1.4-9.6-.9-19-2.8-28.2-5.7-2.5-.8-5-1.7-7.4-2.5-3.9-1.4-7.8-2.7-11.7-4.2-5.3-2-10.4-4.4-15.5-6.7-26-12-49.9-27.3-71.5-46-15.6-13.5-29.6-28.3-40.6-46-5.4-8.8-9.8-18-12.5-28-1.8-6.7-2.5-13.6-2-20.6 4.9-.8 9.8-1.7 14.8-2.1 10-.8 20-.7 30 .8 26.9 4.1 48.3 17.7 66.3 37.6.6.6 1.2 1.3 1.9 2.1 1.5-3.6 3-7 4.5-10.4 3-7 6.7-13.7 10.6-20.3 2.9-4.8 5.5-9.9 9.3-14.2 10.4-11.9 22.7-21 37.9-25.7 7.7-2.4 15.6-4 23.7-4 15.6 0 30.3 3.6 43.6 11.9 8.7 5.3 16.2 12.1 22.8 19.7 1.9 2.2 3.5 4.6 4.7 7.2 4.2 8.6 8.8 17 11.8 26.1 1.1 3.2 2.1 6.4 3.2 9.7 2.9-2.8 5.6-5.6 8.4-8.3 10.4-9.9 22.2-17.9 35.5-23.4 10.2-4.2 20.9-6.7 31.9-7.9 9.6-1 19.1-.5 28.6.5 2.9.3 5.8.9 8.7 1.3.1 3.8-.2 7.6-.7 11.3-1.5 10.3-4.6 20.1-9 29.6-2.4 5.2-5.5 10-8.4 14.9-5.2 8.8-11.6 16.8-18.4 24.4-.2.2-.4.3-.6.5-.3-.8.7-1.2.6-2.1-.8.7-1.6 1.1-1.7 2.2-.2.1-.6.1-.6.3-.1.5.3.4.6.5z"
        fill="#fffefe" />
    <path
        d="m76.7 31.4c3 .9 6.1 2.2 9 3.7 6.3 3.1 12.4 6.8 18.2 10.8 5.6 3.9 10.8 8.1 16 12.5 7.1 6 13.9 12.5 20.5 19.1 3.9 3.9 7.6 8.1 11.4 12.1.8.8.8 1.4-.2 2.1-5.7 3.8-11 8.1-16.3 12.4-5.7 4.7-10.8 9.9-16 15.2-6.3 6.5-12 13.6-17.4 20.9-4.4 5.8-8.3 11.9-12.2 18.1-.2.3-.3.7-.8.7-.6 0-.7-.5-.8-.9-1.8-5.7-3.7-11.5-5.3-17.2-2-7-4-14-5.7-21-1.4-5.6-2.7-11.3-3.8-17-.8-4.3-1.6-8.6-2.3-13-.6-3.9-1.1-7.9-1.4-11.8-.5-5.7-1-11.4-.7-17.1.5-9.3 1.6-18.4 5.4-27 1-2.5 1.2-2.8 2.4-2.6z"
        fill="#f28f1f" />
    <path
        d="m424.8 48.8c.6 5.4 1.3 10.9 1.1 16.3-.2 6.1-.6 12.3-1.3 18.4-1 9.2-2.7 18.3-4.7 27.3-1.8 8.2-3.9 16.4-6.3 24.5-2 7.2-4.3 14.2-6.5 21.4-.3.9-.7 2.4-1 2.4-1.1-.1-1.2-1.3-1.7-2.1-3.5-5.5-7.1-10.8-10.9-16-3.7-4.9-7.5-9.8-11.4-14.5-5-5.9-10.6-11.2-16-16.7-1.2-1.2-2.9-2-3.8-3.6.3-.4.8-.8 1-1.3 2.4-5 5-9.8 7.9-14.5 4.3-7.1 9.1-14 14.7-20.2 5.9-6.5 12.5-12.1 20.4-16.1 5.7-3 11.9-5 18.5-5.3z"
        fill="#f28b20" />
    <path
        d="m126.2 233.3c.3-5.3.5-9.4 2.1-13.3.7-1.6 1.5-2.3 3.3-2.3 5.4-.1 10.3 1.6 15.1 3.7 15.8 6.8 30 16.2 44.1 26 5.4 3.8 10.1 8.4 13.2 14.4.8 1.6 1.3 3.2 1.6 4.9.3 2-.3 2.9-2.3 3.6-2.3.8-4.8 1.1-7.2 1-6.8-.2-13.5-1.3-20.1-2.7-6.6-1.5-13.1-3.3-19.5-5.7-9.8-3.7-19.1-8-26.8-15.4-1.8-1.8-3.2-3.6-3.1-6.4.1-3-.3-6-.4-7.8z"
        fill="#1f1712" />
    <path
        d="m374.7 234c-.1 2.5-.4 5-.3 7.5 0 1.9-.9 3.3-2 4.6-4.5 5-10.1 8.5-16.1 11.6-8.9 4.6-18.4 7.9-28.1 10.2-7.6 1.8-15.2 3.2-23.1 3.3-2.1 0-4.1-.4-6.1-.9-2.1-.5-2.8-1.7-2.5-3.6 1-6.3 4.9-10.9 9.2-15.2 5.5-5.4 12.1-9.3 18.5-13.5 7.9-5.2 15.9-10.2 24.3-14.4 6-3 12-5.8 18.7-6.4 4.9-.4 4.5-.4 6.1 4.6 1.5 3.9 1.4 8 1.4 12.2z"
        fill="#1f1713" />
    <path
        d="m424.8 48.8c-6.6.2-12.8 2.3-18.7 5.2-7.9 4-14.5 9.6-20.4 16.1-5.6 6.2-10.4 13-14.7 20.2-2.8 4.7-5.5 9.5-7.9 14.5-.2.5-.7.9-1 1.3-2.2-1-3.7-2.9-5.5-4.4-4.3-3.5-8.9-6.8-13.4-10.1-1.2-.9-1-1.4-.2-2.3 5.5-6.1 11.2-12.1 17.1-17.8 10.2-9.8 20.8-19.1 32.4-27.1 7.4-5.1 15.4-9.4 23.8-12.7 2.4-1 2.7-.9 3.7 1.4 2.1 4.6 3.7 9.5 4.3 14.6.2.4.4.8.5 1.1z"
        fill="#f2991d" />
    <path
        d="m341.1 205.5c-8.2-.1-15-.4-21.7-2.4-6.2-1.8-8.9-5.8-8.3-12.3.6-7.1 4.4-12.5 9.3-17.1 2.8-2.6 5.8-5.1 9.5-6.5 6.4-2.3 12.4-1.2 18.1 2.1 7.1 4.2 12 10.1 13.2 18.5.7 4.8-.4 9.3-3.1 13.4-1.9 2.9-4.8 3.6-7.9 3.8-3.4.2-6.9.7-9.1.5z"
        fill="#fffefe" />
    <path
        d="m156.8 205.5c-4.5 0-8.6-.3-12.6-.6-3.6-.3-5.4-2.6-7.1-5.3-2.6-4-2.3-8.3-1.8-12.8 1.2-10.2 11.1-18.8 20.9-20.5 5.7-1 10.8.5 15.4 4 5.3 4.1 10.1 8.6 12.1 15.2 1.2 4.3.9 8.7-.7 12.9-.9 2.3-2.9 3.5-5 4.3-3.5 1.3-7.2 2-10.9 2.3s-7.2.7-10.3.5z"
        fill="#fffefe" />
    <path d="m409.8 388.4c.1-1.1 1-1.5 1.7-2.2.1.9-.9 1.3-.6 2.1v.1h-.1c-.3 0-.7 0-1 0z"
        fill="#f6d9a7" />
    <path d="m409.8 388.4h1c-.2.4-.4.8-.9.9 0 0-.1-.1-.1-.1 0-.3 0-.6 0-.8z" fill="#fffefe" />
    <path
        d="m307.1 376c-1.3 5.4-2.6 10.6-3.8 15.9-.2 1-.9 1-1.8 1-3 0-3 0-4.1 2.9-1.9 5-3.8 9.9-5.9 15.3-1.3-2.4-3.2-4.1-3.2-6.8.1-6 .1-12 .2-18 0-1.4-.2-1.7-1.6-1.4-12.6 2.2-25.2 3.3-38 2.8-7.9-.3-15.8-.9-23.6-2.5-.9-.2-1.8-.2-2.7-.3 0 5.9-.1 11.8.1 17.6.1 3.2-.1 6.1-2.5 8.5-2.1-2.8-3.4-6.1-4.5-9.4-.8-2.5-1.7-4.9-2-7.6-.2-1.9-1.5-1.7-2.7-1.4-1.8.5-2.3 0-2.6-1.8-.4-2.1-.8-4.3-.9-6.4-.1-1.6-.6-2.7-1.8-3.7-1-.8-1.8-1.7-2.7-2.6-.5-.5-.4-1.2-.3-1.8.1-.7.7-.4 1.1-.4 5.1 0 10.2.1 15.4.1 1 0 1.7.2 1.8 1.3 0 .8.6.8 1.2.8 7.4.4 14.7.4 22.1.4.8 0 1.3-.2 1.6-.9.8-1.5 1.8-3 2.6-4.5.7-1.3 1.4-2.6 3.3-2.1.9.2 1-.4 1-1.1 0-4.7 0-9.5 0-14.2 0-1-.7-1.2-1.4-1.5-7.2-3.1-13.9-6.9-19.4-12.5-4.5-4.7-7.3-10.1-6.9-16.9.2-3.3 0-6.6 0-9.9 0-7 4.7-11.7 11.7-11.7h34.7c6.2 0 12.5 6.4 12.3 12.6-.2 5.2.3 10.4-.6 15.5-1.4 7.5-5.5 13.2-11.5 17.7-3 2.3-6.3 4.2-9.9 5.4-.8.3-1 .7-1 1.5v14c0 1 .3 1.4 1.3 1.2 1.5-.3 2.3.4 3 1.8 1 1.9 1.9 4.4 3.5 5.3s4.1.3 6.2.3c4.1 0 8.2 0 12.4.1 1.4 0 2.4-.2 2.9-1.6.2-.6.6-1 1.4-1z"
        fill="#1d1919" />
    <path
        d="m253 392.2h17.4c1.2 0 1.8.2 1.7 1.6-.1 2.7-2.1 5.2-4.8 5.9-.8.2-1.1-.4-1.6-.8-3.3-2.8-3.3-2.8-6.1.5-.8 1-1.7 2-2.5 3-1.9 2.3-4.4 2.2-6-.4-1-1.6-2-3.3-3-4.9-.4-.7-.9-1.1-1.9-1.2-2.9-.2-3-.3-3.9 2.5-.5 1.4-1.1 1.5-2.3 1-1.7-.7-3.5-1.3-5.1-2.3-.6-.4-1-.8-1-1.6-.1-3.2-.2-3.2 3-3.2 5.5-.2 10.8-.2 16.1-.1z"
        fill="#171413" />
    <path d="m272.7 463.5c1.2-.2 2.1-.8 3.2-.4-1 .5-1.9.8-3.2.4z" fill="#f6d9a7" />
    <path d="m278.3 462.7c-.6.3-1.1.4-1.7 0z" fill="#f6d9a7" />
    <path d="m409.8 388.4v.8c-.2-.1-.7 0-.6-.5.1-.2.4-.3.6-.3z" fill="#f6d9a7" />
    <path d="m407.2 391c0-.5.2-.8.8-.7-.2.3-.4.6-.8.7z" fill="#f6d9a7" />
    <path d="m407.2 391c-.1.1-.2.2-.3.3 0-.1-.1-.1-.1-.2.1 0 .2-.1.4-.1z" fill="#f7ddb0" />
    <path d="m401.7 396.3v.1s-.1.1-.2 0c-.2-.1-.2-.2 0-.2.1.1.2.1.2.1z" fill="#f7ddb0" />
    <path d="m408.3 389.8c.1-.2.1-.3.2-.5.1 0 .1.1.2.1-.1.2-.2.4-.4.4z" fill="#f6d9a7" />
    <path d="m408 390.2c.1-.1.2-.3.4-.4 0 0 .1.1.1.1-.3.1-.4.2-.5.3z" fill="#f6d9a7" />
    <g fill="#f7ddb0">
        <path d="m406 392.1c.1-.1.1-.2.2-.2.3.1 0 .2-.2.2z" />
        <path d="m406.1 392.1c-.1.1-.2.1-.2.2 0-.1.1-.2.2-.2z" />
        <path d="m405.1 393v.1h-.1z" />
        <path d="m404.1 393.9c.1-.1.1-.3.3-.1 0 0-.1.1-.2.2z" />
        <path d="m404.3 394c-.1 0-.2.1-.2.1 0-.1.1-.2.1-.2-.1 0 .1.1.1.1z" />
        <path d="m403.3 394.6v-.1z" />
        <path d="m402.1 395.7v-.1z" />
    </g>
</svg>