<svg enable-background="new 0 0 500 500" viewBox="0 0 500 500" xmlns="http://www.w3.org/2000/svg">
    <g fill="#238cfd">
        <path
            d="m225.7 357.4-222.4-143.5 2.2-11.5c21.9-116.7 125.3-201.4 245.7-201.4 122.3 0 225.6 87.4 245.6 207.9 1.6 9.5-4.8 18.4-14.3 20s-18.4-4.8-20-14.3c-17.2-103.6-106.1-178.8-211.3-178.8-99.7 0-185.9 67.3-209.1 161.7l178.3 115 71-74.5c6.6-7 17.7-7.2 24.6-.6 7 6.6 7.2 17.7.6 24.6z" />
        <path
            d="m251.2 499c-120.5 0-223.5-85.9-245-204.3-1.7-9.5 4.6-18.5 14-20.2 9.5-1.7 18.5 4.6 20.2 14 18.6 101.8 107.2 175.7 210.8 175.7 97 0 182.3-67.4 207.1-161.9l-182-114.6-71.1 74.6c-6.6 7-17.7 7.2-24.6.6-7-6.6-7.2-17.7-.6-24.6l90.8-95.3 226.8 142.8-2.4 11.8c-24 116.7-126.6 201.4-244 201.4z" />
    </g>
</svg>