<svg xmlns:xlink="http://www.w3.org/1999/xlink" enable-background="new 0 0 500 500"
    viewBox="0 0 500 500" xmlns="http://www.w3.org/2000/svg">
    <linearGradient id="a">
        <stop offset="0" stop-color="#fff" />
        <stop offset=".1205" stop-color="#fbfbfb" />
        <stop offset=".2454" stop-color="#eee" />
        <stop offset=".3724" stop-color="#dadada" />
        <stop offset=".5008" stop-color="#bcbcbc" />
        <stop offset=".6304" stop-color="#979797" />
        <stop offset=".761" stop-color="#696969" />
        <stop offset=".8898" stop-color="#343434" />
        <stop offset="1" />
    </linearGradient>
    <linearGradient gradientTransform="matrix(.5847 .8112 -.8112 .5847 88.6548 -66.4674)"
        gradientUnits="userSpaceOnUse" id="b" x1="420.1419" x2="160.5139" y1="149.8662"
        y2="219.1933" xlink:href="#a" />
    <linearGradient gradientTransform="matrix(.5847 .8112 -.8112 .5847 88.6548 -66.4674)"
        gradientUnits="userSpaceOnUse" id="c" x1="450.3164" x2="192.4048" y1="82.2518" y2="151.1231"
        xlink:href="#a" />
    <linearGradient id="d">
        <stop offset="0" stop-color="#fff" />
        <stop offset=".2264" stop-color="#fcfcfc" />
        <stop offset=".3626" stop-color="#f4f4f4" />
        <stop offset=".475" stop-color="#e6e6e6" />
        <stop offset=".5744" stop-color="#d1d1d1" />
        <stop offset=".6652" stop-color="#b7b7b7" />
        <stop offset=".7498" stop-color="#979797" />
        <stop offset=".8297" stop-color="#707070" />
        <stop offset=".9057" stop-color="#444" />
        <stop offset=".9761" stop-color="#121212" />
        <stop offset="1" />
    </linearGradient>
    <linearGradient gradientTransform="matrix(.5847 .8112 -.8112 .5847 88.6548 -66.4674)"
        gradientUnits="userSpaceOnUse" id="e" x1="500.2609" x2="393.9159" y1="-65.152" y2="-36.7551"
        xlink:href="#d" />
    <linearGradient gradientTransform="matrix(.5847 .8112 -.8112 .5847 88.6548 -66.4674)"
        gradientUnits="userSpaceOnUse" id="f" x1="459.054" x2="340.387" y1="-13.1582" y2="18.529"
        xlink:href="#d" />
    <path
        d="m120.7 367.3c-14.8-74.5-34.8-122.1-53.2-151.1-9.3-14.5-18.2-24.5-26.1-30.7-7.3-5.7-13.5-8.7-18.1-9.4l-2.8.3-.1-3.6 1.9-.2v-.3c.3 0 .9.2 1.1.2 52.9-2.3 96.8 26.4 130 62.8 33.8 37 57 82.8 67.9 113.4l.8 1.9-100.9 18.4z"
        fill="#b62121" />
    <path
        d="m120.7 367.3c-14.8-74.5-34.8-122.1-53.2-151.1-9.3-14.5-18.2-24.5-26.1-30.7-7.3-5.7-13.5-8.7-18.1-9.4l-2.8.3-.1-3.6 1.9-.2v-.3c.3 0 .9.2 1.1.2 52.9-2.3 96.8 26.4 130 62.8 33.8 37 57 82.8 67.9 113.4l.8 1.9-100.9 18.4z"
        fill="url(#b)" opacity=".16" />
    <path d="m34.4 173.4c0-7.7-6.2-14-13.9-14s-14 6.2-14 13.9 6.2 14 13.9 14c7.7.1 14-6.2 14-13.9z"
        fill="#eaa92b" />
    <path
        d="m186.5 351.6c-9.1-75.6-25-124.5-41-154.8-8-15.2-16.1-25.9-23.5-32.7-6.8-6.6-12.8-9.9-17.4-11.1-.8.1-1.7-.1-2.8 0l-.1-3.4c.6-.1 1.4.1 2 .1v-.3c.3 0 .9.2 1.1.2 53 1.9 94.4 33.9 124.5 72.9 30.7 39.8 50.1 87.2 58.6 118.6l.5 1.9-102 10z"
        fill="#53fc18" />
    <path
        d="m186.5 351.6c-9.1-75.6-25-124.5-41-154.8-8-15.2-16.1-25.9-23.5-32.7-6.8-6.6-12.8-9.9-17.4-11.1-.8.1-1.7-.1-2.8 0l-.1-3.4c.6-.1 1.4.1 2 .1v-.3c.3 0 .9.2 1.1.2 53 1.9 94.4 33.9 124.5 72.9 30.7 39.8 50.1 87.2 58.6 118.6l.5 1.9-102 10z"
        fill="url(#c)" opacity=".16" />
    <path
        d="m116 151.6c.6-7.7-5.1-14.4-12.8-15.1-7.7-.6-14.4 5.1-15.1 12.8-.6 7.7 5.1 14.4 12.8 15.1 7.7.6 14.4-5.1 15.1-12.8z"
        fill="#eaa92b" />
    <path
        d="m381.6 363.8c15.2-74.5 35.1-121.9 53.5-151 7.1-11.5 15.9-21.9 26.1-30.7 7.3-5.8 13.4-8.7 18.1-9.4.8-.1 1.7.1 2.8 0l.2-3.4c-.6.1-1.4-.1-2-.1v-.3l-1.1.1c-53-2.2-96.8 26.1-130.2 62.5-33.9 37.1-57.1 82.6-68 113.4l-.6 2 101 18.4z"
        fill="#58e236" />
    <path
        d="m381.6 363.8c15.2-74.5 35.1-121.9 53.5-151 7.1-11.5 15.9-21.9 26.1-30.7 7.3-5.8 13.4-8.7 18.1-9.4.8-.1 1.7.1 2.8 0l.2-3.4c-.6.1-1.4-.1-2-.1v-.3l-1.1.1c-53-2.2-96.8 26.1-130.2 62.5-33.9 37.1-57.1 82.6-68 113.4l-.6 2 101 18.4z"
        fill="url(#e)" opacity=".16" />
    <path d="m496.4 170.3c0-7.7-6.2-14-13.9-14s-14 6.2-14 13.9 6.2 14 13.9 14c7.7 0 14-6.2 14-13.9z"
        fill="#eaa92b" />
    <path
        d="m322.8 351.6c3.3-76 15.3-126.1 29-157.4 6.8-15.8 14.1-26.9 21-34.4 6.3-6.8 11.8-10.7 16.5-12 .8-.1 1.7-.2 2.8-.3l-.3-3.3-1.9.2v-.3c-.4 0-.8.1-1.1.4-52.7 6.2-91.6 41-118.6 82.1-27.8 42.1-43.3 90.8-49.4 122.8l-.4 2 102.8 2.2z"
        fill="#b62121" />
    <path
        d="m322.8 351.6c3.3-76 15.3-126.1 29-157.4 6.8-15.8 14.1-26.9 21-34.4 6.3-6.8 11.8-10.7 16.5-12 .8-.1 1.7-.2 2.8-.3l-.3-3.3-1.9.2v-.3c-.4 0-.8.1-1.1.4-52.7 6.2-91.6 41-118.6 82.1-27.8 42.1-43.3 90.8-49.4 122.8l-.4 2 102.8 2.2z"
        fill="url(#f)" opacity=".16" />
    <g fill="#eaa92b">
        <path
            d="m394.1 158.1c7.6-1.2 12.8-8.4 11.6-16s-8.4-12.8-16-11.6-12.8 8.4-11.6 16 8.4 12.8 16 11.6z" />
        <path d="m103.6 339.8v34.6h291.5v-34.6z" />
    </g>
</svg>