<svg enable-background="new 0 0 500 500" viewBox="0 0 500 500" xmlns="http://www.w3.org/2000/svg">
    <path
        d="m371.842 369.426c-1.116.604-1.988.405-2.823.405-40.171.011-80.35.511-120.511-.118-50.428-.791-88.242-23.735-110.542-68.963-34.189-69.34 5.422-152.998 80.693-170.619 46.618-10.914 87.716.848 120.761 36.24 20.122 21.551 30.477 47.631 32.083 77.14.294 5.395.338 10.783.338 16.178.003 35.546.002 71.091.002 106.637-.001 1.023-.001 2.046-.001 3.1zm-48.856-48.423c.047-.891.106-1.484.106-2.077.002-23.635-.004-47.271-.003-70.906 0-3.947-.36-7.858-.993-11.756-7.404-45.619-55.863-73.112-98.643-55.951-35.18 14.113-53.629 51.481-43.423 87.954 8.556 30.578 36.844 52.515 68.543 52.801 24.147.218 48.298.058 72.447.06.582.001 1.163-.072 1.966-.125z"
        fill="#21ed82" />
    <path
        d="m47.339 114.149c3.084 2.576 6.24 4.75 9.564 6.687-39.183 63.352-48.689 130.493-25.601 201.307 16.486 50.562 47.951 90.347 92.387 119.389 93.35 61.011 215.123 45.755 290.64-30.803 78.738-79.824 88.46-204.108 25.577-294.14-35.751-51.186-84.647-83.279-146.026-95.048-61.187-11.732-118.207.153-171.025 33.529-2.015-3.389-4.178-6.545-6.937-9.852 34.927-22.975 72.974-36.399 114.37-39.466 65.156-4.827 123.688 12.998 174.231 54.535 107.555 88.392 116.966 244.422 30.863 345.498-88.159 103.49-241.877 113.79-342.66 27.882-103.703-88.397-106.66-230.53-45.383-319.518z"
        fill="#808d8e" />
    <path
        d="m79.973 102.229c-13.56.046-24.484-10.852-24.496-24.437-.011-13.18 10.877-24.065 24.241-24.233 13.307-.167 24.431 10.856 24.459 24.239.028 13.527-10.729 24.386-24.204 24.431z"
        fill="#21ed82" />
</svg>