<svg enable-background="new 0 0 500 500" viewBox="0 0 500 500" xmlns="http://www.w3.org/2000/svg">
    <path
        d="m241.196 53.645c-53.787 116.364-107.531 232.637-161.269 348.896-39.558-16.641-73.497-61.728-70.089-116.29 1.967-31.492 14.487-58.388 37.44-80.247 22.96-21.866 50.593-32.321 82.34-33.298 1.244-41.866 18.769-74.902 52.753-99.207 19.19-13.725 47.772-21.184 58.825-19.854zm55.834 12.035c.312-.675.536-1.392.778-2.097.043-.124-.019-.293-.057-.435-.038-.14-.107-.271-.308-.762-14.851-6.578-30.622-9.751-46.911-9.809-3.104 6.403-162.86 350.446-162.9 353.382 12.127 5.952 37.062 9.272 48.569 7.642 53.676-116.113 107.256-232.015 160.829-347.921zm-148.837 348.23h49.276c48.746-105.465 97.416-210.767 146.137-316.18-9.835-12.139-21.216-22.297-35.43-29.961-53.456 115.659-106.61 230.662-159.983 346.141zm113.102-5.233c8.169-17.667 16.324-35.34 24.489-53.009 14.381-31.119 28.772-62.233 43.151-93.353 13.183-28.532 26.341-57.075 39.565-85.588 1.042-2.247 1.488-4.452 1.458-6.928-.077-6.311-.777-12.529-1.9-18.733-2.533-13.998-7.554-27.027-14.844-39.344-.37.441-.739.731-.914 1.11-46.115 99.722-92.216 199.449-138.31 299.181-.122.264-.144.58-.176.876-.015.136.048.286.095.423.048.14.121.272.294.648h44.527c.879-1.808 1.755-3.53 2.565-5.283zm58.43 5.265c2.783-4.136 104.185-223.879 104.984-227.659-11.268-5.778-23.14-9.819-36.095-11.627-36.663 79.366-73.24 158.544-109.791 237.734-.159.344.054.858.116 1.552zm149.215-188.907c-7.251-10.365-15.672-19.357-25.895-27.02-.504.876-.916 1.481-1.219 2.136-15.411 33.273-30.818 66.548-46.215 99.828-10.622 22.959-21.228 45.926-31.845 68.887-6.218 13.448-12.462 26.884-18.639 40.35-.645 1.405-1.871 2.745-1.124 4.961 12.537-.137 25.105.54 37.975-.954 29.066-62.902 58.009-125.534 86.962-188.188zm13.532 27.566c-23.655 51.173-47.102 101.893-70.895 153.363 64.048-22.175 93.944-96.342 70.895-153.363z"
        fill="#0076f6" />
</svg>