<svg enable-background="new 0 0 500 500" viewBox="0 0 500 500" xmlns="http://www.w3.org/2000/svg">
    <path
        d="m35.423 373.019c0-82.33 0-164.743 0-247.803 70.904-41.139 142.364-82.601 214.087-124.216 71.559 41.126 143.212 82.306 215.091 123.617v247.887c-71.123 41.267-142.532 82.699-214.015 124.175-71.628-41.167-143.22-82.313-215.163-123.66zm215.185 106.501c66.488-38.571 132.876-77.084 198.981-115.432 0-77.189 0-154.078 0-230.885-66.939-38.485-133.541-76.777-200.107-115.048-66.623 38.65-133.007 77.162-199.066 115.485v230.883c66.86 38.407 133.482 76.677 200.192 114.997z" />
    <path
        d="m250.608 479.52c-66.71-38.32-133.332-76.591-200.192-114.997 0-76.834 0-153.643 0-230.883 66.059-38.323 132.443-76.834 199.066-115.485 66.566 38.271 133.167 76.562 200.107 115.048v230.885c-66.105 38.349-132.493 76.861-198.981 115.432zm-87.538-352.904c-.11 1.094-.248 1.83-.248 2.567-.012 15.552-.062 31.104.079 46.654.013 1.484.884 3.311 1.953 4.384 20.692 20.771 41.473 41.452 62.232 62.156.694.692 1.341 1.431 2.106 2.251-.848.888-1.473 1.571-2.127 2.225-21.284 21.257-42.59 42.493-63.801 63.822-1.052 1.057-1.817 2.92-1.827 4.414-.123 18.525-.085 37.051-.072 55.577.001.9.152 1.799.272 3.135h68.476v17.819h34.003c0-6.12 0-12.01 0-18.355h64.748c0-16.87 0-33.27 0-49.843-34.6-.382-68.875-.76-103.983-1.148 25.54-25.505 50.532-50.464 75.744-75.641-23.148-23.128-45.843-45.803-68.538-68.479.143-.259.285-.517.428-.776h93.791c0-17.188 0-34.021 0-51.19-19.695 0-39.109 0-59.039 0 0-6.869 0-13.413 0-20.038-11.778 0-23.038 0-34.827 0v20.465c-23.42.001-46.312.001-69.37.001z"
        fill="#ffc80d" />
    <path
        d="m163.07 126.616h69.37c0-7.001 0-13.637 0-20.465h34.827v20.038h59.039v51.19c-31.352 0-62.572 0-93.791 0-.143.259-.285.517-.428.776 22.695 22.675 45.39 45.351 68.538 68.479-25.212 25.178-50.204 50.136-75.744 75.641 35.108.388 69.383.766 103.983 1.148v49.843c-21.474 0-42.9 0-64.748 0v18.355c-11.484 0-22.541 0-34.003 0 0-5.919 0-11.644 0-17.819-23.018 0-45.639 0-68.476 0-.12-1.336-.272-2.235-.272-3.135-.013-18.526-.051-37.052.072-55.577.01-1.494.776-3.356 1.827-4.414 21.212-21.329 42.517-42.565 63.801-63.822.654-.654 1.28-1.337 2.127-2.225-.765-.82-1.412-1.559-2.106-2.251-20.758-20.704-41.54-41.386-62.232-62.156-1.069-1.073-1.94-2.9-1.953-4.384-.141-15.55-.091-31.102-.079-46.654.001-.738.139-1.475.248-2.568z" />
</svg>