<svg enable-background="new 0 0 192.3 110" viewBox="0 0 192.3 110"
    xmlns="http://www.w3.org/2000/svg">
    <g fill="#aa0e20">
        <path d="m113.3 61.6-17.1 33.2-22.2-42.1v-.1l-4.5-8.2-4.9 8.3 31.6 57.3 31.6-57.3-5-8.3z" />
        <path d="m96.2 0-3.9 6.2-17.9 30 4.5 8.6 17.3-27.5 16.9 27.5 4.6-9-15-25.2z" />
        <path
            d="m96.2 16.3c-53.1 0-96.2 39.6-96.2 39.7s43.1 39.7 96.2 39.7 96.1-39.7 96.1-39.7-43.1-39.7-96.1-39.7zm0 70.5c-41.4 0-88.1-30.8-88.1-30.8s46.7-30.9 88.1-30.9 88.1 30.1 88.1 30.9-46.8 30.8-88.1 30.8z" />
    </g>
</svg>