<svg enable-background="new 1000 -1000 2500 2500" viewBox="1000 -1000 2500 2500"
    xmlns="http://www.w3.org/2000/svg">
    <circle cx="2250" cy="250" fill="#5b6dee" r="1217.57" />
    <path
        d="m2044.559 175.473c-42.453-.238-84.839 3.41-126.627 10.897 34.396-318.127 299.522-559.011 615.165-558.986 193.265 0 325.688 94.63 325.688 290.561s-158.942 290.561-390.84 290.561c-171.166-.013-252.195-33.033-423.386-33.033m-12.504 116.034c-231.886 0-390.84 94.629-390.84 290.561s132.423 290.561 325.688 290.561c315.679 0 580.781-240.86 615.165-558.986-41.788 7.488-84.174 11.135-126.627 10.897-171.191-.013-252.22-33.033-423.386-33.033"
        fill="#fff" />
</svg>