<svg enable-background="new 0 0 500 500" viewBox="0 0 500 500" xmlns="http://www.w3.org/2000/svg">
    <linearGradient gradientUnits="userSpaceOnUse" id="a" x1="121.2599" x2="377.8401" y1="383.6652"
        y2="127.08485">
        <stop offset="0" stop-color="#cb4ee8" />
        <stop offset="1" stop-color="#10f4b1" />
    </linearGradient>
    <path d="m250 0c138 0 250 111.9 250 250s-112 250-250 250-250-112-250-250 111.9-250 250-250z" />
    <path clip-rule="evenodd"
        d="m115.6 226.1h231.4c2.9 0 5.6 1.1 7.6 3.2l36.6 36.8c6.8 6.8 2 18.4-7.6 18.4h-231.4c-2.9 0-5.6-1.1-7.6-3.2l-36.6-36.8c-6.8-6.7-2-18.4 7.6-18.4zm-7.7-48.8 36.6-36.8c2.1-2.1 4.8-3.2 7.6-3.2h231.3c9.6 0 14.5 11.6 7.6 18.4l-36.5 36.8c-2 2.1-4.8 3.2-7.6 3.2h-231.3c-9.6 0-14.4-11.6-7.7-18.4zm283.2 156.2-36.6 36.9c-2 2-4.8 3.2-7.6 3.2h-231.3c-9.6 0-14.4-11.6-7.7-18.4l36.6-36.9c2.1-2 4.8-3.2 7.6-3.2h231.3c9.7-.1 14.6 11.5 7.7 18.4z"
        fill="url(#a)" fill-rule="evenodd" />
</svg>