<svg enable-background="new 0 0 500 500" viewBox="0 0 500 500" xmlns="http://www.w3.org/2000/svg">
    <path
        d="m259.1 221.6h-87.5l37.7 50.8.5.5c0 .5.5.5.5 1l6 8 18.1 24.6 3 3c6.5 5 16.1 3.5 21.1-3l19.1-25.6 23.1-30.7 6-8c-.5-6.5-1-13.1-2-19.1-.5-6.5-3.5-12.6-8.5-17.1-5-3.5-11.1-6-17.6-6h-.5v2.5c.1 10.6-8.4 19.1-19 19.1z" />
    <path
        d="m397.4 120h-150.9c-10.6 0-19.1-8.5-19.1-19.1 0-1 0-1.5 0-2.5-9.6-.5-19.1 1.5-27.7 5-10.1 4.5-19.1 10.6-26.2 19.1-7.5 8.5-14.1 18.1-19.1 28.2-4.5 10.6-8.5 21.6-10.6 32.7h114.2.5.5c7.5.5 15.1 1.5 22.1 4 8 2 15.6 6.5 21.1 12.6 1.5 1.5 2.5 3.5 3.5 5.5s1.5 4 2 6c1 3.5 1 7.5 1 11.6 0 6.5-1 12.6-1.5 18.6z" />
    <path
        d="m142.9 182.9c1.5-11.6 4-23.1 8-34.2 4-11.6 9.6-22.1 16.1-32.2 7-10.1 16.6-18.6 27.2-25.1 10.6-6 22.1-9.6 34.2-10.1h4.5 13.6 179.5l28.7-38.7c2-2.5 3-5.5 3-9.1 0-8-6.5-15.1-15.1-15.1h-392.7c-3 0-6.5 1-9.1 3-6.5 5-8 14.1-3 21.1z" />
    <path
        d="m232.4 335.3-82.4-113.7-28.2-38.7-120.2-165-1 .5 83.5 164.5 19.6 38.7 98.6 194.6 28.7 56.3c2 3.5 4.5 6.5 8 8 9.1 4.5 20.6 1 25.1-8l28.7-55.3.5-1.5-57.8-78c-1.5-.4-2-1.4-3.1-2.4z" />
    <path
        d="m439.6 98.4-16 21.6-97.6 130.3-23.1 30.7-40.7 54.3c-1 1.5-2.5 2.5-4 3.5l43.8 58.8 60.9-117.2 16.1-30.7 121-231.8-1-.5z" />
</svg>