<svg xmlns:xlink="http://www.w3.org/1999/xlink" enable-background="new 0 0 500 500"
    viewBox="0 0 500 500" xmlns="http://www.w3.org/2000/svg">
    <linearGradient id="a">
        <stop offset="0" stop-color="#05aac5" />
        <stop offset="1" stop-color="#71e0ec" />
    </linearGradient>
    <linearGradient gradientUnits="userSpaceOnUse" id="b" x1="250.0021" x2="250.0021"
        y1="411.9482294" y2="57.9470294" xlink:href="#a" />
    <linearGradient gradientUnits="userSpaceOnUse" id="c" x1="250.17822" x2="250.17822"
        y1="455.9782294" y2="29.2834994" xlink:href="#a" />
    <linearGradient gradientUnits="userSpaceOnUse" id="d" x1="250.0021" x2="250.0021"
        y1="500.0082294" y2=".02521216" xlink:href="#a" />
    <path
        d="m250 411.9c-75.9 0-137.5-61.6-137.5-137.5 0-73.8 124.5-204.1 129.8-209.6l6.5-6.9 6.7 6.7c5.5 5.5 132.1 135.8 132.1 209.6-.1 76.1-61.7 137.7-137.6 137.7zm-1.1-327.4c-10.9 11.8-33.8 37.3-56.5 67.3-40.3 53.2-61.6 95.5-61.6 122.4 0 65.7 53.5 119.2 119.2 119.2s119.2-53.5 119.2-119.2c0-26.9-21.7-69.2-62.7-122.4-23-29.7-46.5-55.5-57.6-67.3z"
        fill="url(#b)" />
    <path
        d="m250 456c-100.2 0-181.6-81.5-181.6-181.6 0-97.9 136.7-234.6 142.5-240.2 3.5-3.5 9.5-3.5 13 0s3.5 9.5 0 13c-1.4 1.4-137 137-137 227.2 0 90 73.3 163.3 163.3 163.3s163.3-73.3 163.3-163.3c0-37-24-88.1-69.4-148.1-34.9-46-69.9-80.8-70.3-81.2-3.7-3.5-3.7-9.3 0-13 3.5-3.7 9.3-3.7 13 0 6 5.8 145.1 144.2 145.1 242.3-.3 100-81.7 181.6-181.9 181.6z"
        fill="url(#c)" />
    <path
        d="m250 500c-121.9 0-221-99.2-221-221 0-50.4 25.4-112.4 75.2-184 36.8-52.9 72.9-90.6 74.5-92.2 3.5-3.7 9.3-3.7 13-.2s3.7 9.3.2 13c-.4.4-36.8 38.4-72.7 90-47.1 67.5-71.9 127.4-71.9 173.4 0 111.7 90.9 202.7 202.7 202.7s202.7-90.9 202.7-202.7c0-46-25-105.8-72.4-173.3-36.3-51.6-73.1-89.6-73.4-90-3.5-3.7-3.5-9.5.2-13s9.5-3.5 13 .2c6.2 6.3 150.9 156.7 150.9 276.1 0 121.8-99.1 221-221 221z"
        fill="url(#d)" />
</svg>