<svg enable-background="new 0 0 500 500" viewBox="0 0 500 500" xmlns="http://www.w3.org/2000/svg">
    <path clip-rule="evenodd"
        d="m466.4 375v-249.7l-216.4-125.1v249.8l-216.5 125 216.5 125 216.3-124.9.1.1z"
        fill="#64c557" fill-rule="evenodd" />
    <path d="m33.6 125.2 216.5-125v250l-216.5 125z" fill="#118ab2" />
    <path d="m250.1 0 216.5 125-72.2 41.7-216.4-125z" fill="#00f8b7" />
    <path d="m394.3 166.6v83.3l-216.5-125v-83.3z" fill="#09bd8e" />
    <path d="m177.7 125 216.5 125-72.2 41.7-216.5-125z" fill="#ffe3a3" />
    <path d="m322.8 292.1v83.3l-216.5-125v-83.3z" fill="#ffbb1d" />
    <path d="m105.7 250 216.5 125-72.2 41.7-216.5-125z" fill="#ff965e" />
    <path d="m249.9 416.6v83.3l-216.5-125v-83.3z" fill="#d94c00" />
    <path d="m394.4 166.6 72.2-41.7v250l-72.2 41.7z" fill="#06d6a0" />
    <path d="m322.1 291.6 72.2-41.7v166.6l-72.2 41.7z" fill="#ffd166" />
    <path d="m249.7 416.6 72.2-41.7v83.3l-72.2 41.7z" fill="#f3722c" />
</svg>