<svg enable-background="new 0 0 500 500" viewBox="0 0 500 500" xmlns="http://www.w3.org/2000/svg">
    <g fill="#00a3ff">
        <path
            d="m103.4 224.1-4 6.1c-45 69-34.9 159.4 24.2 217.3 34.8 34.1 80.3 51.1 125.9 51.1 0 0 0 0-146.1-274.5z" />
        <path
            d="m249.5 307.5-146.1-83.4c146.1 274.5 146.1 274.5 146.1 274.5 0-59.8 0-128.3 0-191.1z"
            opacity=".6" />
        <path
            d="m395.7 224.1 4 6.1c45 69 34.9 159.4-24.2 217.3-34.8 34.1-80.3 51.1-125.9 51.1 0 0 0 0 146.1-274.5z"
            opacity=".6" />
        <path
            d="m249.6 307.5 146.1-83.4c-146.1 274.5-146.1 274.5-146.1 274.5 0-59.8 0-128.3 0-191.1z"
            opacity=".2" />
        <path d="m249.6 121.1v143.9l125.8-71.9z" opacity=".2" />
        <path d="m249.6 121.1-125.9 72 125.9 71.9z" opacity=".6" />
        <path d="m249.6.1-125.9 193 125.9-72.2z" />
        <path d="m249.6 120.9 125.9 72.2-125.9-193.1z" opacity=".6" />
    </g>
</svg>