<svg enable-background="new 0 0 500 500" viewBox="0 0 500 500" xmlns="http://www.w3.org/2000/svg">
    <path clip-rule="evenodd"
        d="m335.3 368.6c8.6-1.9 16.6-2 24.2-.4s14.5 4.9 20.7 9.6l119.8 92.8h-164l-72-83.4zm-205.4-338.7 144 170.4c10.9 15 16.4 31.6 16.4 49.9s-5.5 34.9-16.4 49.9l-144 170.4h-130.5l158.3-186.8c8.3-9.5 12.5-20.7 12.5-33.5s-4.2-24-12.5-33.5l-158.3-186.8zm370.1-.7-119.8 92.7c-6.2 4.8-13.1 8-20.7 9.6-7.6 1.7-15.7 1.5-24.2-.4l-71.3-18.5 72-83.4z"
        fill="#fa2e53" fill-rule="evenodd" />
</svg>