<svg enable-background="new 1000 -1000 2500 2500" viewBox="1000 -1000 2500 2500"
    xmlns="http://www.w3.org/2000/svg">
    <g fill="#2683ff">
        <path
            d="m1375.815 689.935c-36.901 0-66.815 29.914-66.815 66.815s29.914 66.815 66.815 66.815 66.815-29.914 66.815-66.815c0-11.85-3.237-22.626-8.625-33.401-12.152-20.614-34.261-33.305-58.19-33.401m943.961-1453.68c0-36.901-29.914-66.815-66.815-66.815s-66.815 29.914-66.815 66.815 29.914 66.815 66.815 66.815c36.814-.207 66.608-30 66.815-66.815m814.717 579.747c36.901 0 66.815-29.914 66.815-66.815s-29.914-66.815-66.815-66.815-66.815 29.914-66.815 66.815c.043 11.338 3.014 22.474 8.625 32.326 11.687 21.217 33.967 34.422 58.19 34.489m-1727.488-128.243c-32.326-18.326-72.203-7.538-90.516 24.788s-7.538 72.203 24.788 90.516 72.203 7.538 90.516-24.788c18.326-31.251 7.538-72.202-24.788-90.516m1754.365 1015.089c-9.7-6.463-21.551-8.625-33.401-9.7-36.897-.499-67.213 29.008-67.712 65.905-.499 36.898 29.008 67.213 65.906 67.712.602.008 1.205.008 1.807 0 23.701 0 45.203-12.926 58.19-33.401 18.324-31.251 7.537-72.203-24.79-90.516m-975.224 557.097c-3.238 30.176 15.088 59.265 43.102 70.04 6.463 2.15 14.013 4.313 20.476 4.313 33.704-.055 62.631-24.011 68.965-57.115 5.023-36.353-20.375-69.895-56.728-74.918-35.88-4.958-69.121 19.734-74.739 55.517-.584.58-.961 1.335-1.075 2.15" />
        <path
            d="m3227.11 580.019c-7.94-4.593-16.229-8.555-24.789-11.85v-623.924c9.7-3.238 19.401-8.625 29.101-12.926 100.18-56.04 136.831-183.194 80.816-283.435s-183.194-136.831-283.435-80.816c-8.625 4.313-16.163 9.7-23.701 15.088l-549.571-317.887c1.075-9.7 2.15-18.326 2.15-28.014-.012-115.292-93.717-207.958-207.946-207.958s-210.133 94.829-210.133 209.046c0 9.7 1.075 18.326 2.15 28.014l-545.258 315.737c-90.565-70.951-221.499-55.05-292.45 35.514-70.951 90.565-55.05 221.499 35.515 292.45 1.235.968 2.481 1.921 3.738 2.861 7.538 5.388 15.088 10.775 23.701 16.163 8.802 5.387 18.203 9.725 28.014 12.926v622.849c-106.691 43.102-158.431 163.83-115.329 270.473s163.794 158.406 270.485 115.304c9.7-3.238 18.325-8.625 26.938-12.926 8.625-5.388 17.238-10.775 25.864-17.238l539.87 311.424c-18.326 113.142 59.265 219.821 172.419 238.146 113.154 18.326 219.833-59.265 238.147-172.419 2.15-11.85 2.15-22.626 2.15-34.489-.141-10.091-.859-20.167-2.15-30.176l536.645-309.262c8.625 6.463 17.238 12.926 26.938 18.326 100.18 56.039 227.371 20.476 283.435-79.741 53.841-100.228 21.514-223.07-73.314-281.26zm37.714 260.772c-44.177 75.428-142.243 101.291-217.671 57.115-60.34-35.564-90.516-105.604-74.353-173.482l-252.159-147.631c-79.568 80.688-199.793 105.732-304.962 63.529-37.714 11.85-118.505 19.401-118.505 19.401v443.967c88.366 26.939 136.831 120.692 109.953 209.046-26.877 88.354-120.692 136.831-209.058 109.953-1.075 0-2.15-1.075-3.238-1.075-7.538-2.15-14.013-5.388-20.476-8.625-82.978-40.952-115.304-142.243-74.353-224.134 20.476-40.952 57.115-71.115 100.18-85.128v-452.593c-31.649-9.782-62.61-21.663-92.678-35.564-97.473 19.478-198.56-5.4-275.86-67.89l-300.649 173.482c20.517 85.975-32.548 172.304-118.523 192.821s-172.304-32.548-192.821-118.523c-20.51-85.946 32.512-172.253 118.449-192.803 51.727-12.926 106.679 2.15 146.604 38.789l281.248-162.719c-94.828-133.618-79.74-316.812 36.651-433.191l-320.086-183.194c-63.529 60.34-163.794 57.115-224.134-7.538-60.125-63.866-57.093-164.38 6.773-224.505.254-.239.509-.478.765-.716 64.652-60.34 163.794-57.115 224.134 7.538 36.651 38.789 50.652 92.666 38.789 144.393l354.526 203.658c46.448-24.986 98.14-38.649 150.868-39.876 49.589-40.927 176.646-82.954 176.646-82.954v-484.906c-78.666-23.701-122.842-106.679-99.141-185.345 23.701-78.665 106.74-121.767 185.406-98.066s122.842 106.679 99.141 185.345c-14.233 47.64-51.501 84.908-99.141 99.141v475.242s232.759 58.19 306.037 145.468l377.152-214.433c-19.401-86.203 33.401-172.419 119.617-191.807s172.419 33.401 191.807 119.617-33.401 172.419-119.617 191.807c-52.108 11.738-106.641-3.209-145.48-39.876l-372.839 211.183c10.775 22.626 20.476 45.203 26.938 68.965 115.304 78.665 156.256 229.521 94.829 355.601l246.784 143.318c51.066-47.597 127.359-55.929 187.495-20.476 74.353 44.177 100.18 141.168 54.977 217.671z" />
        <path
            d="m2569.785 228.73c-1.075-8.625-2.15-16.163-3.238-24.788-1.055-5.835-2.495-11.594-4.313-17.238 0-2.15-1.075-4.313-1.075-6.463-2.15-6.463-4.313-14.013-6.463-20.476v-1.075c-13.702-36.15-34.6-69.142-61.427-96.979-6.463-6.463-11.851-11.851-19.401-18.326l-1.075-1.075c-6.463-5.388-12.926-10.775-20.476-15.088l-1.075-1.075c-6.463-4.313-14.013-9.7-20.476-12.926l-1.075-1.075c-6.962-4.02-14.158-7.618-21.551-10.775l-2.15-1.075c-7.538-3.238-15.088-6.463-23.701-9.7l-1.075-1.075c-8.625-2.15-16.163-5.388-24.788-6.463h-1.075c-8.526-1.961-17.163-3.401-25.863-4.313h-1.075c-45.896-6.521-92.698-.949-135.78 16.163l-5.388 4.313c-6.463 2.15-17.238 7.538-23.701 10.775-3.363 2.221-6.981 4.03-10.775 5.388-3.238 1.075-8.625 5.388-11.851 7.538s-10.775 7.538-15.088 10.775l-3.238 2.15c-6.463 4.313-11.851 9.7-18.326 15.088l-5.388 5.388c-6.463 6.463-11.85 11.851-17.238 18.326-12.818-2.147-25.792-3.23-38.789-3.238-4.313 0-7.538 0-10.775 1.075-49.564 2.15-96.979 22.626-133.618 56.04-18.325 16.163-33.401 36.651-45.203 58.19l-1.148 2.199c-3.322 6.259-6.204 12.741-8.625 19.401-1.075 2.15-1.075 3.238-2.15 5.388-2.283 5.582-4.086 11.349-5.388 17.238-1.075 2.15-1.075 5.388-2.15 7.538-1.075 5.388-2.15 10.775-3.238 17.238 0 2.15-1.075 4.313-1.075 7.538-.896 8.231-1.255 16.511-1.075 24.788-.18 6.843.18 13.689 1.075 20.476 0 2.15 1.075 4.313 1.075 7.538 1.075 4.313 1.075 8.625 2.15 12.926 1.075 4.3 1.075 5.388 2.15 8.625 1.226 3.099 1.952 6.373 2.15 9.7 0 3.238 2.15 6.463 3.238 9.7.881 2.593 1.963 5.113 3.237 7.538 1.623 3.515 3.063 7.111 4.313 10.775 1.075 2.15 2.15 3.238 2.15 5.388 15.144 35.493 40.705 65.552 73.302 86.203 16.163 9.7 32.326 18.326 49.564 23.701 6.683 2.297 13.527 4.098 20.476 5.388l2.15 1.075 19.401 3.238 4.313 1.075c7.538 1.075 15.088 1.075 23.701 1.075 29.101 0 57.115-5.388 82.978-17.238 6.463 4.313 11.85 8.625 18.325 12.926l2.15 1.075c5.388 3.238 11.851 6.463 18.326 9.7h1.051c61.591 31.388 132.672 38.689 199.357 20.476h1.075c9.695-2.093 19.101-5.35 28.014-9.7l29.101-12.926c27.708 21.617 61.836 33.371 96.979 33.401 7.538 0 14.013-1.075 21.551-1.075l5.388-1.075c6.905-1.028 13.742-2.468 20.476-4.313 6.64-2.041 13.124-4.56 19.401-7.538l3.238-1.075c6.463-3.238 11.85-6.463 18.325-9.7 26.939-17.238 47.414-43.102 59.265-72.203 4.312-9.7 6.463-19.401 8.625-29.089v-3.238c1.075-4.313 1.075-8.625 2.15-12.926 0-5.388 1.075-10.775 1.075-16.163 0-71.115-44.177-132.543-109.953-153.018" />
    </g>
</svg>