<svg enable-background="new 1000 -1000 2500 2500" viewBox="1000 -1000 2500 2500"
    xmlns="http://www.w3.org/2000/svg">
    <path
        d="m1198.633-113.102 1069.381 673.912c.695.478 1.613.478 2.308 0l1090.966-689.117c1.012-.644 1.311-1.986.667-2.999-.171-.268-.398-.496-.667-.667l-1080.92-688.846c-.706-.442-1.602-.442-2.308 0l-1079.427 704.051c-1.012.775-1.205 2.223-.43 3.235.124.163.268.307.43.431zm1069.381 1464.034c-14.21.013-28.12-4.089-40.049-11.811l-1145.271-737.583c-.793-.838-.793-2.149 0-2.987l48.738-75.89c.838-.793 2.149-.793 2.987 0l1133.052 729.845c.706.442 1.602.442 2.308 0l1073.861-690.068c24.618-15.751 39.471-42.999 39.37-72.224v-169.7c-.063-1.198-1.086-2.118-2.283-2.055-.343.018-.677.117-.975.29l-1084.586 690.746c-24.23 15.412-55.189 15.412-79.419 0l-1095.991-697.261c-54.25-34.03-87.178-93.577-87.158-157.617v-237.716c.001-19.193 7.447-37.638 20.771-51.453l3.665-2.987 21.043-14.391 1162.783-757.676 1.222-.679c23.806-13.606 53.197-12.873 76.297 1.901l1123.956 715.998c34.565 21.936 44.803 67.739 22.866 102.304-5.846 9.212-13.654 17.02-22.866 22.867l-1133.593 715.726c-24.129 15.085-54.748 15.085-78.876 0l-1099.656-692.375c-1.039-.6-2.367-.244-2.967.795-.194.336-.294.718-.291 1.106v196.58c-.123 31.538 15.979 60.924 42.629 77.79l1084.857 689.524c.706.443 1.602.443 2.308 0l1106.579-705.951c28.007-17.853 64.478-14.855 89.194 7.331 15.723 15.007 24.355 35.971 23.758 57.698v208.527c.187 61.467-31.05 118.768-82.814 151.915l-1086.079 697.942c-11.776 7.474-25.423 11.474-39.37 11.539z"
        fill="#01a4df" />
</svg>