<svg enable-background="new 1000 -1000 2500 2500" viewBox="1000 -1000 2500 2500"
    xmlns="http://www.w3.org/2000/svg">
    <path
        d="m2407 1764.544c675.034 0 1222.544-547.51 1222.544-1222.544s-547.51-1222.544-1222.544-1222.544-1222.544 547.51-1222.544 1222.544 547.51 1222.544 1222.544 1222.544z"
        fill="#e53431" transform="translate(-157 -292)" />
    <path
        d="m2144.479-252.32c3.162-2.635 7.377-3.689 11.593-3.689s8.431 1.054 11.593 3.689l95.906 72.193c5.27 4.216 8.431 11.066 7.377 17.39-1.054 6.85-5.27 12.647-11.593 15.282s-13.701 1.581-18.97-2.108l-84.313-63.235-275.072 206.041 1207.263 905.842c4.743 3.689 7.905 9.485 7.905 15.282 0 5.796-2.635 11.593-7.904 15.282l-88.53 66.924c-3.162 2.635-7.377 3.689-11.593 3.689-8.431 0-15.809-5.27-18.444-13.174s0-16.336 6.85-21.605l68.505-51.115-1207.263-905.316c-4.743-3.689-7.904-9.485-7.904-15.282s3.162-11.593 7.904-15.282zm306.69 0c6.851-5.27 16.336-5.27 22.659 0l613.907 460.562c6.851 4.743 9.485 13.701 6.851 21.078-2.635 7.904-10.012 13.174-17.917 13.174h-307.217c-4.216 0-8.431-1.581-11.593-3.689l-402.597-301.946c-5.27-4.216-8.431-11.066-7.377-17.39 1.054-6.85 5.27-12.647 11.593-15.282s13.701-1.581 18.97 2.108l397.854 298.259h242.928l-556.469-417.351-385.206 288.773c-8.431 6.324-20.551 4.743-26.875-3.689-6.324-8.431-4.743-20.551 3.689-26.875zm-529.067 397.327c3.162-2.635 7.377-3.689 11.593-3.689 5.797 0 11.593 2.635 15.282 7.904 3.162 4.216 4.216 8.958 3.689 14.228s-3.162 9.485-7.377 12.647l-64.289 47.954 1207.263 905.842c4.743 3.689 7.904 9.485 7.904 15.282 0 5.796-2.635 11.593-7.904 15.282l-307.217 230.281c-3.162 2.635-7.377 3.689-11.593 3.689s-8.431-1.581-11.593-3.689l-88.529-66.397c-5.27-4.216-8.431-11.066-7.377-17.917s5.27-12.647 11.593-15.282 13.701-1.581 18.97 2.108l76.936 57.965 275.073-206.041-1207.264-906.368c-4.743-3.689-7.377-9.485-7.377-15.282s2.635-11.593 7.377-15.282zm-73.247 750.39h306.69c4.216 0 8.431 1.054 11.593 3.689l398.381 298.786c8.431 6.323 10.012 18.443 3.689 26.875-6.323 8.431-18.444 10.012-26.875 3.689l-393.111-295.097h-242.928l556.469 417.351 384.153-288.246c8.431-6.324 20.551-4.743 26.875 3.689 6.323 8.431 4.742 20.552-3.689 26.875l-395.746 296.678c-3.162 2.635-7.377 3.689-11.593 3.689s-8.431-1.054-11.593-3.689l-613.907-460.562c-6.323-5.27-8.958-13.701-6.85-21.605 3.16-7.38 10.538-12.65 18.442-12.122z"
        fill="#fff" transform="translate(-149 -286.738)" />
</svg>