<svg enable-background="new 0 0 500 500" viewBox="0 0 500 500" xmlns="http://www.w3.org/2000/svg">
    <path
        d="m259.4 12.5v177.6s32.5 16.4 71.4 49.8c40.3 34.5 51 58.3 51 71.4 0 24.9-18.7 56-48 94.7-33.7 44.4-72.5 82.3-72.5 82.3s115.5-80 165.3-131.3 70.2-85.3 70.2-114-23.4-69.4-88.3-125.3-149.1-105.2-149.1-105.2z"
        fill="#e5642a" />
    <path
        d="m240.1 488.2v-177.6s-32.5-16.4-71.4-49.8c-40.3-34.5-51-58.3-51-71.4 0-24.9 18.7-56 48-94.7 33.7-44.4 72.5-82.3 72.5-82.3s-115.5 80-165.3 131.3-70.2 85.3-70.2 114 23.3 69.5 88.2 125.4 149.2 105.1 149.2 105.1z"
        fill="#1e3566" />
</svg>