<svg enable-background="new 0 0 500 500" viewBox="0 0 500 500" xmlns="http://www.w3.org/2000/svg">
    <linearGradient gradientUnits="userSpaceOnUse" id="a" x1="295.3846" x2="172.759" y1="372.5581"
        y2="44.9177">
        <stop offset=".244" stop-color="#fc51a1" />
        <stop offset="1" stop-color="#1ab0ed" />
    </linearGradient>
    <path
        d="m360 97c-102.7-73.8-213.6-95.1-247.7-47.7-19.5 27.2-77 107.1-96.5 134.3-34 47.4 21.6 145.7 124.3 219.5s213.6 95.2 247.7 47.8c19.5-27.2 77-107.1 96.5-134.3 34.1-47.5-21.6-145.8-124.3-219.6z"
        fill="#fff" />
    <path
        d="m477.3 247.6c-51.8-16.1-61.1 22.9-79.7 46.2-19.3 24.3-26.8 39.3-51.1 61.7s-54.8 9.4-67.9 0-19-20.6-47.1-54.8c-28-34.3-58.6-6.2-72.9 6.2-14.3 12.5-34.6 32.4-48.9 40.5-5.9 3.3-11.9 4.7-16.8 5.1-64.2-62.2-95.4-131-69.3-167.4 18.6-25.9 73.4-102.1 92-128 32.5-45.2 141.3-23.3 239.3 47.1 61.5 44.1 105.9 98.1 122.4 143.4z"
        fill="url(#a)" />
    <path
        d="m475 315c-18.6 25.9-73.4 102.2-92 128.1-32.5 45.2-139.8 23.3-237.7-47.1-19.1-13.8-36.7-28.5-52.3-43.6 4.9-.4 10.8-1.7 16.8-5.1 14.3-8.1 34.6-28 48.9-40.5s44.9-40.5 72.9-6.2 34 45.5 47.1 54.8c13.1 9.4 43.6 22.4 67.9 0s31.8-37.4 51.1-61.7c18.5-23.3 27.9-62.3 79.7-46.2 9.7 26.9 9.7 50.7-2.4 67.5z" />
    <g fill="none" stroke="#fff" stroke-linecap="round" stroke-miterlimit="10"
        stroke-width="6.2261">
        <path d="m371.6 335.1c-4.8-1.1-9.8-2.3-14.8-3.8" />
        <path d="m431.2 337.7c-13.8 2.8-30.3 2.6-48.7-.5" />
        <path d="m107.4 109.4c-.5-3.1-.8-6.1-1-9.1" />
        <path d="m179 223.5c-36-35.4-60.6-72.3-69.2-103.4" />
    </g>
    <path
        d="m346.1 116.1c-92.9-66.2-190.5-88.5-218-49.9s25.4 123.6 118.3 189.8 190.5 88.5 218 49.9c27.6-38.6-25.4-123.6-118.3-189.8zm33.7 129.5c-13 18.2-60.9 6.3-107.1-26.7-46.2-32.9-73.1-74.3-60.1-92.5s60.9-6.3 107.1 26.7c46.2 32.9 73.1 74.4 60.1 92.5z"
        fill="#fff" />
</svg>