<svg enable-background="new 0 0 500 500" viewBox="0 0 500 500" xmlns="http://www.w3.org/2000/svg">
    <g fill="#232227">
        <path
            d="m293 53.7-146 146c-9.5 9.5-24.9 9.5-34.4 0-9.5-9.5-9.5-24.9 0-34.4l146-146c9.5-9.5 24.9-9.5 34.4 0 9.5 9.5 9.5 24.9 0 34.4z" />
        <path
            d="m373.9 333-146 146c-9.5 9.5-24.9 9.5-34.4 0-9.5-9.5-9.5-24.9 0-34.4l146-146c9.5-9.5 24.9-9.5 34.4 0 9.5 9.4 9.5 24.9 0 34.4z" />
        <path
            d="m231.2 235.1-92.2 92.1c-9.5 9.5-24.9 9.5-34.4 0-9.5-9.5-9.5-24.9 0-34.4l92.2-92.2c9.5-9.5 24.9-9.5 34.4 0 9.5 9.5 9.5 25 0 34.5z" />
    </g>
    <path
        d="m386.9 201.6-92.2 92.2c-9.5 9.5-24.9 9.5-34.4 0-9.5-9.5-9.5-24.9 0-34.4l92.2-92.2c9.5-9.5 24.9-9.5 34.4 0 9.6 9.5 9.6 24.9 0 34.4z"
        fill="#af74fd" />
</svg>