<svg xmlns:xlink="http://www.w3.org/1999/xlink" enable-background="new 0 0 500 500"
    viewBox="0 0 500 500" xmlns="http://www.w3.org/2000/svg">
    <linearGradient id="a">
        <stop offset=".0008385144" stop-color="#0091f6" />
        <stop offset="1" stop-color="#00c6fe" />
    </linearGradient>
    <linearGradient gradientUnits="userSpaceOnUse" id="b" x1="56.8057" x2="290.5329" y1="208.0577"
        y2="304.1235" xlink:href="#a" />
    <linearGradient gradientUnits="userSpaceOnUse" id="c" x1="435.9812" x2="257.7146" y1="330.3152"
        y2="163.933" xlink:href="#a" />
    <path
        d="m204.1 298.2c-12 8.3-28.6 17.8-42.3 17.8-20.5 0-38-6.6-50.6-19.2-11.9-11.8-18.5-28.2-18.5-46.1 0-29.4 20.7-54.4 49.1-62.5v22.6l79.6-52.1-79.6-52.1v20.3c-61.8 9.4-109.2 61.3-109.2 123.8 0 71.4 55.5 125.3 129.1 125.3 29 0 58.5-10.1 82.7-35.9 17.7-18.8 52.3-96.1 59.4-106.5 1.1-1.5-86.2 55.2-99.7 64.6z"
        fill="url(#b)" />
    <path
        d="m294.7 203.3c12-8.3 28.6-17.8 42.3-17.8 20.5 0 38 6.6 50.6 19.2 11.9 11.8 18.5 28.2 18.5 46.1 0 29.4-20.7 54.4-49.1 62.5v-22.6l-79.6 52.1 79.6 52.2v-20.3c61.7-9.4 109.1-61.3 109.1-123.8 0-71.4-55.5-125.3-129.1-125.3-29 0-58.5 10.1-82.7 35.9-17.7 18.8-52.3 96.1-59.4 106.5-1 1.5 86.2-55.3 99.8-64.7z"
        fill="url(#c)" />
</svg>