<svg enable-background="new 0 0 500 500" viewBox="0 0 500 500" xmlns="http://www.w3.org/2000/svg">
    <g clip-rule="evenodd" fill-rule="evenodd">
        <path d="m91.8 147.2 158-80.3 157.7 80.3-31.1 18.1-126.6-64.8-127.2 64.9z" fill="#fffffe" />
        <g fill="#ed9d2f">
            <path
                d="m250 114-117.8 58.6 79.9 37.8s19.3 8.3 37.7 8.3 37.6-8.3 37.6-8.3l75.8-37.8z" />
            <path d="m263.9 371.1 103.8-53.5v-120.6l-56.1 32s-47.7 23.3-47.7 95.1z" />
            <path d="m484 181.5v33.9l-62.7 31.9v-33.8z" />
            <path d="m188.3 228.9-56.1-32v120.6l103.8 53.6v-47.1c0-71.8-47.7-95.1-47.7-95.1" />
        </g>
        <path d="m121.9 225.4v-33.7l-116.9-59.6v33.9l86.1 43.7v135.7l144.9 73.6v-33.6l-114.1-58.3z"
            fill="#fffffe" />
        <path d="m15.9 215.4 62.7 31.9v-33.8l-62.7-32z" fill="#ed9d2f" />
        <path d="m408.8 176-30.8 15.7v135.4l-114.1 58.3v33.6l144.9-73.6v-135.7l86.1-43.7v-33.9z"
            fill="#fffffe" />
    </g>
</svg>