<svg enable-background="new 0 0 500 500" viewBox="0 0 500 500" xmlns="http://www.w3.org/2000/svg">
    <path clip-rule="evenodd"
        d="m443.2 248.7c0 107.4-87.1 194.5-194.5 194.5s-194.5-87.1-194.5-194.5 87.1-194.5 194.5-194.5c107.5.1 194.5 87.1 194.5 194.5zm54.3 0c0 137.4-111.4 248.8-248.8 248.8-137.3 0-248.7-111.4-248.7-248.8 0-137.3 111.4-248.7 248.7-248.7 137.4 0 248.8 111.4 248.8 248.7zm-248.8-56.7c14.5 0 26.1-11.8 26.1-26.1 0-14.5-11.8-26.1-26.1-26.1-14.5 0-26.1 11.8-26.1 26.1 0 14.5 11.6 26.1 26.1 26.1zm85 40.7h-170c-1.7 0-3.1 1.4-3.1 3.1v28.6c0 1.7 1.4 3.1 3.1 3.1h64.5v87.3c0 1.7 1.4 3.1 3.1 3.1h35.2c1.7 0 3.1-1.4 3.1-3.1v-87.3h64.5c1.7 0 3.1-1.4 3.1-3.1v-28.6c-.4-1.8-1.7-3.1-3.5-3.1z"
        fill="#080503" fill-rule="evenodd" />
</svg>