<svg enable-background="new 0 0 500 500" viewBox="0 0 500 500" xmlns="http://www.w3.org/2000/svg">
    <g fill="#2871da">
        <path
            d="m250 35.3c57.3 0 111.2 22.3 151.8 62.9 40.5 40.5 62.9 94.4 62.9 151.8s-22.3 111.2-62.9 151.8c-40.5 40.5-94.4 62.9-151.8 62.9s-111.2-22.3-151.8-62.9c-40.5-40.5-62.9-94.4-62.9-151.8s22.4-111.3 62.9-151.8c40.6-40.6 94.5-62.9 151.8-62.9m0-31.7c-136 0-246.3 110.3-246.3 246.3 0 136.1 110.3 246.3 246.3 246.3s246.3-110.2 246.3-246.3c0-136-110.3-246.3-246.3-246.3z" />
        <path
            d="m371.3 240.4c10.2 0 18.5-8.3 18.5-18.5s-8.3-18.5-18.5-18.5h-54.4l-.3-46.5h57.1c10.2 0 18.5-8.3 18.5-18.5s-8.3-18.5-18.5-18.5h-232.7c-10.2 0-18.5 8.3-18.5 18.5s8.3 18.5 18.5 18.5h54.8l.3 46.5h-15.8c-38.3 0-69.4 31.1-69.4 69.4s31.1 69.4 69.4 69.4h16.9l.3 35.2c.1 10.1 8.3 18.3 18.5 18.3h.1c10.2-.1 18.4-8.4 18.3-18.6l-.3-34.9h46.9l.3 35.2c.1 10.1 8.3 18.3 18.5 18.3h.1c10.2-.1 18.4-8.4 18.3-18.6l-.3-34.9h52.6c10.2 0 18.5-8.3 18.5-18.5s-8.3-18.5-18.5-18.5h-52.9l-.5-65h54.2zm-138.6-83.5h46.9l.3 46.5h-46.9zm-52.4 148.5c-17.9 0-32.5-14.6-32.5-32.5s14.6-32.5 32.5-32.5h16.1l.5 65zm100.4 0h-46.9l-.5-65h46.9z" />
    </g>
</svg>