<svg xmlns:xlink="http://www.w3.org/1999/xlink" enable-background="new 0 0 500 500"
    viewBox="0 0 500 500" xmlns="http://www.w3.org/2000/svg">
    <linearGradient id="a">
        <stop offset="0" stop-color="#ff4f0f" />
        <stop offset="1" stop-color="#ffad15" />
    </linearGradient>
    <linearGradient gradientUnits="userSpaceOnUse" id="b" x1="252.8009" x2="252.8009" y1="4.2282"
        y2="488.6711" xlink:href="#a" />
    <linearGradient gradientUnits="userSpaceOnUse" id="c" x1="364.9278" x2="364.9278" y1="4.2277"
        y2="488.8893" xlink:href="#a" />
    <path
        d="m228.7 5.2s74.9 43.9 74.9 117.1c0 50.5-13.7 55.8-13.7 77 0 29.9 27.4 38 35.9 38 8.4 0 41.4-3.7 41.4-48.1 0 0 55.6 54.9 55.6 121.9 0 51.7-21.1 87.6-51.7 108.7s-68.8 20.9-91.8 49.6c-13.8 17.1-14.8 24.3-14.8 24.3s-168.8-23.3-181.4-182.5c-8.8-111.9 124.8-179.2 139.7-233 9.8-35.2 5.9-73 5.9-73z"
        fill="url(#b)" />
    <path
        d="m360.8 60.9s30.7 36.6 30.7 66.5c0 22.1-11.5 22.4-17.4 29.4-6.3 7.5-6.1 14-6.1 14s-29.4-8.8-29.4-39.1 22.8-38.3 22.8-54.5c-.2-14.5-.6-16.3-.6-16.3z"
        fill="url(#c)" />
    <path d="m348.1 267.4h-190.4v62.5h64v64h62.5v-64h63.9z" fill="#fff" />
</svg>