<svg enable-background="new 0 0 500 500" viewBox="0 0 500 500" xmlns="http://www.w3.org/2000/svg">
    <linearGradient gradientUnits="userSpaceOnUse" id="a" x1="250.996" x2="250.996" y1="3"
        y2="497.0496">
        <stop offset="0" stop-color="#2cb6ec" />
        <stop offset="1" stop-color="#27e6bc" />
    </linearGradient>
    <path
        d="m122.755 495.078c-8.166-8.122-16.383-16.294-24.541-24.408 0-147.688 0-295.04 0-441.835 8.456-8.555 16.603-16.796 25.537-25.835h255.14c8.471 8.168 16.81 16.209 24.888 23.998v442.929c-8.365 7.919-16.784 15.888-26.57 25.153-83.125-.002-168.674-.002-254.454-.002zm231.255-49.724c0-131.114 0-261.314 0-391.891-69.359 0-137.664 0-206.064 0v391.891zm-127.076-315.767v49.494c-17.504 0-33.703 0-50.402 0v50.208h148.962c0-17.127 0-33.228 0-50.75-17.056 0-33.195 0-49.989 0 0-16.872 0-32.311 0-48.953-16.795.001-32.028.001-48.571.001zm48.36 191.44h50.4c0-16.768 0-32.136 0-48.112-49.929 0-99.283 0-149.152 0v49.422h51.471v50.553h47.281c0-16.847 0-33.708 0-51.863z"
        fill="url(#a)" />
</svg>