<svg enable-background="new 0 0 500 500" viewBox="0 0 500 500" xmlns="http://www.w3.org/2000/svg">
    <linearGradient gradientUnits="userSpaceOnUse" id="a" x1="-69" x2="234.123" y1="251.8831"
        y2="251.8831">
        <stop offset="0" stop-color="#3b007f" />
        <stop offset="1" stop-color="#aa003d" />
    </linearGradient>
    <circle cx="153.4" cy="251.9" fill="url(#a)" r="151.1" />
    <g fill="#fff">
        <circle cx="135.9" cy="291.7" r="11.3" />
        <circle cx="169.4" cy="291.7" r="11.3" />
        <circle cx="202.8" cy="291.7" r="11.3" />
        <circle cx="236.3" cy="291.7" r="11.3" />
        <circle cx="269.7" cy="291.7" r="11.3" />
        <circle cx="303.2" cy="291.7" r="11.3" />
        <circle cx="336.6" cy="291.7" r="11.3" />
        <circle cx="370.1" cy="291.7" r="11.3" />
        <circle cx="403.5" cy="291.7" r="11.3" />
        <circle cx="422.2" cy="325.6" r="7.8" />
        <circle cx="387.6" cy="325.6" r="7.8" />
        <circle cx="353" cy="325.6" r="7.8" />
        <circle cx="318.5" cy="325.6" r="7.8" />
        <circle cx="283.9" cy="325.6" r="7.8" />
        <circle cx="249.3" cy="325.6" r="7.8" />
        <circle cx="214.8" cy="325.6" r="7.8" />
        <circle cx="180.2" cy="325.6" r="7.8" />
        <circle cx="145.6" cy="325.6" r="7.8" />
        <circle cx="440.5" cy="349.4" r="7.6" />
        <circle cx="405.5" cy="349.4" r="7.6" />
        <circle cx="370.4" cy="349.4" r="7.6" />
        <circle cx="335.3" cy="349.4" r="7.6" />
        <circle cx="300.3" cy="349.4" r="7.6" />
        <circle cx="265.2" cy="349.4" r="7.6" />
        <circle cx="230.2" cy="349.4" r="7.6" />
        <circle cx="195.1" cy="349.4" r="7.6" />
        <circle cx="160" cy="349.4" r="7.6" />
        <circle cx="465" cy="373.5" r="5.8" />
        <circle cx="429.4" cy="373.5" r="5.8" />
        <circle cx="393.9" cy="373.5" r="5.8" />
        <circle cx="358.4" cy="373.5" r="5.8" />
        <circle cx="322.9" cy="373.5" r="5.8" />
        <circle cx="287.3" cy="373.5" r="5.8" />
        <circle cx="251.8" cy="373.5" r="5.8" />
        <circle cx="216.3" cy="373.5" r="5.8" />
        <circle cx="180.8" cy="373.5" r="5.8" />
        <circle cx="493.4" cy="394.9" r="4.4" />
        <circle cx="457.6" cy="394.9" r="4.4" />
        <circle cx="421.8" cy="394.9" r="4.4" />
        <circle cx="386" cy="394.9" r="4.4" />
        <circle cx="350.2" cy="394.9" r="4.4" />
        <circle cx="314.3" cy="394.9" r="4.4" />
        <circle cx="278.5" cy="394.9" r="4.4" />
        <circle cx="242.7" cy="394.9" r="4.4" />
        <circle cx="206.9" cy="394.9" r="4.4" />
        <circle cx="119.6" cy="259.7" r="7.8" />
        <circle cx="154.2" cy="259.7" r="7.8" />
        <circle cx="188.8" cy="259.7" r="7.8" />
        <circle cx="223.3" cy="259.7" r="7.8" />
        <circle cx="257.9" cy="259.7" r="7.8" />
        <circle cx="292.5" cy="259.7" r="7.8" />
        <circle cx="327" cy="259.7" r="7.8" />
        <circle cx="361.6" cy="259.7" r="7.8" />
        <circle cx="396.2" cy="259.7" r="7.8" />
        <circle cx="101.3" cy="235.8" r="7.6" />
        <circle cx="136.3" cy="235.8" r="7.6" />
        <circle cx="171.4" cy="235.8" r="7.6" />
        <circle cx="206.5" cy="235.8" r="7.6" />
        <circle cx="241.5" cy="235.8" r="7.6" />
        <circle cx="276.6" cy="235.8" r="7.6" />
        <circle cx="311.6" cy="235.8" r="7.6" />
        <circle cx="346.7" cy="235.8" r="7.6" />
        <circle cx="381.8" cy="235.8" r="7.6" />
        <circle cx="76.8" cy="211.8" r="5.8" />
        <circle cx="112.4" cy="211.8" r="5.8" />
        <circle cx="147.9" cy="211.8" r="5.8" />
        <circle cx="183.4" cy="211.8" r="5.8" />
        <circle cx="218.9" cy="211.8" r="5.8" />
        <circle cx="254.5" cy="211.8" r="5.8" />
        <circle cx="290" cy="211.8" r="5.8" />
        <circle cx="325.5" cy="211.8" r="5.8" />
        <circle cx="361" cy="211.8" r="5.8" />
        <circle cx="48.4" cy="190.4" r="4.4" />
        <circle cx="84.2" cy="190.4" r="4.4" />
        <circle cx="120" cy="190.4" r="4.4" />
        <circle cx="155.8" cy="190.4" r="4.4" />
        <circle cx="191.7" cy="190.4" r="4.4" />
        <circle cx="227.5" cy="190.4" r="4.4" />
        <circle cx="263.3" cy="190.4" r="4.4" />
        <circle cx="299.1" cy="190.4" r="4.4" />
        <circle cx="334.9" cy="190.4" r="4.4" />
    </g>
</svg>