<svg enable-background="new 0 0 500 500" viewBox="0 0 500 500" xmlns="http://www.w3.org/2000/svg">
    <path
        d="m250.194 66.56h219.327s17.82-1.371 23.304 12.337-2.285 21.476-8.225 26.959-118.345 84.075-118.345 84.075z"
        fill="#70edf7" />
    <path d="m250.194 66.56v206.076l116.061-82.704z" fill="#3b546b" />
    <path d="m250.194 66.56-116.06 123.372 116.06 82.704z" fill="#30d6f7" />
    <path
        d="m250.194 66.56h-223.439s-15.993.457-20.562 14.622 10.053 24.674 10.053 24.674l117.888 84.075z"
        fill="#0099d9" />
    <path
        d="m134.134 189.932 96.87 242.631s3.314 6.347 7.525 9.21 11.958 3.705 11.958 3.705v-172.842z"
        fill="#70edf7" />
    <path
        d="m250.486 272.636 115.769-82.705-96.232 241.904s-1.011 5.39-6.4 8.926-6.737 3.537-8.59 4.042-4.547.674-4.547.674z"
        fill="#0099d9" />
</svg>