<svg xmlns:xlink="http://www.w3.org/1999/xlink" enable-background="new 0 0 500 500"
    viewBox="0 0 500 500" xmlns="http://www.w3.org/2000/svg">
    <linearGradient id="a">
        <stop offset="0" stop-color="#0adaff" />
        <stop offset=".6341" stop-color="#2e59fe" />
        <stop offset="1" stop-color="#7961fa" />
    </linearGradient>
    <linearGradient gradientUnits="userSpaceOnUse" id="b" x1="3.0003" x2="500.6765" y1="336.041"
        y2="154.9017" xlink:href="#a" />
    <linearGradient gradientUnits="userSpaceOnUse" id="c" x1="240.9256" x2="351.582" y1="274.3315"
        y2="274.3315" xlink:href="#a" />
    <path
        d="m457.5 114.4c-18.5.3-44.1 2-75.3 6.9-32.1-33.2-77.2-53.9-127-53.9-97.6 0-176.8 79.2-176.8 176.8 0 .9.1 1.8.1 2.6-24.7 17.9-45.5 35.2-62 50.2-27.7 25.1-11 71.2 26.4 72.7 20.9.8 47.3-1.1 80.4-7.8 32.4 36.3 79.5 59.1 131.9 59.1 97.6 0 176.8-79.2 176.8-176.8 0-4.2-.2-8.3-.5-12.5 31.9-22 50.3-41.1 60.4-57.1 16.6-26.3-3.2-60.7-34.4-60.2zm-313.7 197c-7.9-13.1-13.5-27.7-16.4-43.2 32.5-23.2 71.8-48.3 107.6-63.2 38-15.7 87.1-26.1 128.5-32.8 7.8 11.7 13.7 24.7 17.4 38.6-26.9 16.3-63.5 35.8-112.9 57.4-49.9 22-91.5 35.2-124.2 43.2zm111.4-197.2c25 0 48.3 7.1 68.1 19.3-31.6 8-66.7 19.1-104.3 34.7-33.1 13.7-63.2 29.4-90.2 45.6 13.7-57.2 65.1-99.6 126.4-99.6zm-198.6 209.2s11.7-10.2 30.3-24.8c2.5 7.6 5.4 15 8.8 22.2-25.7 3.5-39.1 2.6-39.1 2.6zm198.6 50.9c-29.3 0-56.3-9.7-78-26 34.1-10.2 73.5-24.5 118.9-44.4 34.7-15.2 63.8-29.5 88.1-43-8.2 64-62.8 113.4-129 113.4zm166.2-190.5c-2.3-6.3-5-12.4-8-18.4 20.1-2.3 33-3.3 33-3.3s-6.8 8-25 21.7z"
        fill="url(#b)" />
    <path
        d="m296.3 219c-30.6 0-55.3 24.8-55.3 55.3s24.8 55.3 55.3 55.3c30.6 0 55.3-24.8 55.3-55.3s-24.8-55.3-55.3-55.3zm0 82.7c-15.1 0-27.4-12.3-27.4-27.4s12.3-27.4 27.4-27.4 27.4 12.3 27.4 27.4c-.1 15.1-12.3 27.4-27.4 27.4z"
        fill="url(#c)" />
    <ellipse cx="296.3" cy="274.3" fill="#fff" rx="27.4" ry="27.4"
        transform="matrix(.1602 -.9871 .9871 .1602 -21.9901 522.8169)" />
</svg>