<svg enable-background="new 0 0 500 500" viewBox="0 0 500 500" xmlns="http://www.w3.org/2000/svg">
    <path
        d="m176.897 243.372h314.695v15.36c-103.684 0-207.474 0-311.778 0v11.774h311.757v16.546c-105.212 0-209.976 0-315.489 0-8.625 28.043-26.563 47.715-53.695 57.524-18.878 6.825-38.72 6.793-57.793-.227-35.82-13.186-60.032-48.368-56.195-88.149 3.672-38.073 28.525-65.901 64.622-75.395 22.398-5.891 44.615-2.403 64.692 9.788 19.975 12.128 32.848 29.981 39.184 52.779zm-119.29 20.489c-.001 20.959 14.646 35.877 35.406 36.273 21.922.418 36.277-16.541 36.895-35.753.674-20.94-18.085-37.276-36.416-37.184-18.3.091-37.535 16.628-35.885 36.664zm247.286-43.296h20.179v18.07h9.565c0-15.169 0-29.89 0-44.842-3.315 0-6.259 0-10.111 0v17.402c-6.862 0-12.801 0-19.621 0 0-6.336 0-18.168 0-18.168l-9.762-.063v45.936h9.75c0-6.288 0-11.908 0-18.335zm85.748-2.269c.415-.135.83-.269 1.245-.404 4.971 7.079 9.941 14.158 15.069 21.46 3.258-.446 6.424-.879 10.001-1.368-5.292-7.745-10.091-14.769-14.871-21.765 4.907-7.425 9.73-14.723 14.876-22.51-4.087 0-7.475 0-10.683 0-4.927 7.021-9.672 13.782-14.417 20.543-.523-.082-1.047-.164-1.571-.246 0-6.731 0-13.462 0-20.201-3.707 0-6.218 0-8.793 0v44.745h9.143c.001-7.092.001-13.673.001-20.254zm59.163 12.36c-5.551 0-10.79 0-16.769 0 .259-4.122.465-7.401.7-11.149h15.938c0-2.835 0-5.135 0-8.073-5.603 0-10.943 0-15.986 0 0-3.786 0-6.923 0-10.518h15.798c0-2.725 0-4.963 0-7.048-8.921 0-17.535 0-26.045 0v44.739h26.364c0-2.731 0-5.251 0-7.951zm-93.654-18.986c0-3.663 0-10.896 0-10.896l15.513-.587s-.202-4.151-.316-6.482c-8.722 0-17.03 0-25.321 0v44.935h25.265c0-2.774 0-5.093 0-7.697-5.191 0-10.051 0-14.92 0 0-3.823 0-7.136 0-10.988 5.335-.293 10.017-.55 14.967-.822 0-2.394 0-4.474 0-7.464-5.351.001-10.065.001-15.188.001zm-81.143 26.919c0-12.613 0-24.744 0-37.656h13.428v-8.328s-26.818.029-35.831.029v8.613h12.017v37.341c4.096.001 6.985.001 10.386.001zm206.826-44.789c-2.727 6.142-5.351 12.052-8.63 19.439-3.324-7.711-5.926-13.745-8.316-19.287-3.65 0-6.328 0-9.529 0 2.617 5.861 7.331 16.432 7.331 16.432l5.762 11.296-.123 16.974 8.362-.046v-16.559s10.822-20.463 14.373-28.249c-3.665 0-6.436 0-9.23 0z"
        fill="#00bce6" />
</svg>