<svg enable-background="new 1000 -1000 2500 2500" viewBox="1000 -1000 2500 2500"
    xmlns="http://www.w3.org/2000/svg">
    <circle cx="2250" cy="250" fill="none" r="1193.348" stroke="#ffc04e" stroke-miterlimit="10"
        stroke-width="9" />
    <path
        d="m2236.323-132.14 6.972-33.521h-677.125l-201.126 844.73h221.239l151.985-683.829h270.716l-161.236 683.829h201.126l158.219-683.829h2.682l24.001-115.245 2.816-12.135zm382.408-33.521-201.126 838.026h421.695c50.782.284 101.295-7.385 149.705-22.727 80.048-25.878 177.46-80.048 192.88-191.807h60.338l20.113-80.45h-73.746s6.704-120.676-147.492-140.788c0 0 134.084-40.225 154.197-113.971h67.042l26.817-80.45h-73.746s26.817-194.422-261.464-207.83h-335.213zm-1146.419 160.901h-214.535l40.225-160.901h214.535z"
        fill="#ffc04e" />
    <path
        d="m2903.66 169.55h-170.957l40.225-181.014h130.732c49.948-.037 90.47 40.424 90.507 90.373v.134c.037 49.948-40.424 90.47-90.373 90.507-.045 0-.089 0-.134 0zm-45.119 348.618h-205.551l48.337-207.83h157.214c60.338 0 108.809 46.527 108.809 103.915s-48.74 103.915-108.809 103.915z"
        fill="#fff" />
    <path d="m2390.788 585.21-174.309-415.66 73.746-321.802 174.309 395.548z" fill="#ffc04e" />
</svg>