<svg viewBox="0 0 500 500" xmlns="http://www.w3.org/2000/svg">
    <path
        d="m367.5 107.5c71.2 6.1 127.2 63.6 131.3 135-3.2-118-101.5-211.1-219.5-207.8-70 1.9-134.6 38-173 96.6 6-71.3 63.6-127.2 134.9-131.3-118.6 5.4-210.4 105.9-205 224.5 3.1 67.6 37.8 129.9 93.8 168-70.7-6.7-126-64.1-130-135 2.9 118 100.9 211.3 218.9 208.4 69.4-1.7 133.7-37 172.3-94.7-6.6 70.1-63.4 124.8-133.7 128.8 118-3.9 210.5-102.7 206.6-220.7-2.3-69.6-38.3-133.7-96.6-171.8zm-118.7 232.5c-23.5.1-46.1-9.3-62.5-26.2-34.5-34.8-34.3-91 .5-125.5s91-34.3 125.5.5 34.3 91-.5 125.5c-16.8 16.6-39.5 25.8-63 25.7z"
        fill="#44f1a6" fill-rule="evenodd" />
</svg>