<svg enable-background="new 0 0 500 500" viewBox="0 0 500 500" xmlns="http://www.w3.org/2000/svg">
    <path
        d="m249.7 497.4c-133.1 1.3-248.8-109-246.8-250.7 2-130.4 106.4-243.4 247.4-243.4 140.4 0 248.7 115 246.7 250.7-1.9 137.1-114.9 244.7-247.3 243.4zm0-16.7c123.7.7 230.7-99.6 230-230.7 0-127-102.3-229.3-228.7-230-127.7 0-232 103-231.3 230.7 0 130.4 106.9 230.7 230 230z"
        fill="#3158a6" />
    <path
        d="m249.7 480.7c-123 .7-230-99.6-230-230-.7-127.7 103.6-230.7 232-230.7 126.3.7 228.6 103 228.6 230 0 131.1-106.9 231.4-230.6 230.7zm0-15.4c117.7 0 212-94.3 215.3-209.3 3.3-119.7-91.6-220-212.6-220.6-121.1-.7-217.4 95.6-217.4 215.3 0 119 96.3 214.6 214.7 214.6z"
        fill="#fff" />
    <path
        d="m249.7 465.3c-119.1 0-214.7-96.3-214.7-214.6 0-119.7 96.3-216 217.3-215.3 120.4 1.3 215.3 101.6 212.7 220.6-3.4 115-97.7 210-215.3 209.3zm-51.5-260.8v4.7c-4 18.1-8 36.1-12 54.2-4.7 22.1-9.4 44.1-13.4 66.2-2.7 16.7 6.7 33.4 22.1 42.1 10 5.3 20.7 8.7 32.1 8.7 20.7.7 41.5.7 61.5.7 14.7 0 14.7 0 18.1-14v-.7c2.7-12.7 6-25.4 8.7-38.1-3.3 0-5.3-.7-8-.7-18.1 0-35.4 0-53.5 0-13.4-.7-20.1-9.4-17.4-22.1 6.7-32.1 13.4-64.2 20.7-95.6.7-4 2.7-5.3 6.7-4.7h60.2c5.3 0 7.4-2 8-6.7 2-10.7 4.7-21.4 7.4-31.4.7-4 2-8.7 3.3-13.4-24.1 0-47.5 0-71.5 0 4.7-20.7 8.7-40.1 12.7-59.5-1.3-.7-2-.7-2.7-.7-18.1 0-36.1 0-53.5 0-1.3 0-4 2.7-4.7 4.7-4 16.7-8 33.4-11.4 50.1-.7 4.7-3.3 6-7.4 6-16.7 0-33.4 0-49.5 0-6 0-8.7 1.3-9.4 7.4-.7 4-2 8-2.7 12-2.7 10.7-4.7 20.7-7.4 32.1 21.5-1.3 42.3-1.3 63-1.3zm161.1-54.8c-.7 2.7-1.3 4.7-2 6-4.7 19.4-9.4 38.8-13.4 58.2-1.3 4.7-2.7 6-7.4 6-20.1 0-40.1 0-60.2 0-4 0-6 1.3-6.7 5.3-3.3 15.4-6.7 30.8-10 46.1-2.7 12-4.7 24.1-7.4 35.4-.7 2.7-.7 6.7 3.3 6s9.4 2.7 10.7-4.7c2.7-12 5.3-24.7 8-36.8 2.7-12.7 5.3-24.7 8-37.4h6.7 60.2c4 0 5.3-1.3 6-4.7 4-16 6.7-32.8 12-48.8 4.3-11.9-3.1-19.9-7.8-30.6zm-26.1 177.2c-.7 0-1.3 0-2 0-.7 2-1.3 4.7-2 6.7-4.7 19.4-9.4 38.8-13.4 58.2-.7 3.3-2.7 4.7-6 4.7-26.1 0-52.2 0-78.2 0-16.7-.7-33.4-4-48.1-13.4-2.7-2-5.3-4-8-5.3.7 2.7 1.3 4.7 2.7 6.7 14.7 18.1 34.8 25.4 56.8 26.7 28.8 1.3 57.5.7 86.3 1.3 4 0 5.3-1.3 6.7-5.3 3.3-16.7 6.7-34.1 12-50.1 3.9-13.5-3.4-20.8-6.8-30.2zm-32.1-236c-.7 0-1.3 0-1.3 0-3.3 15.4-6.7 31.4-10.7 47.5h10c4 0 6-.7 6.7-4.7 1.3-6.7 2.7-13.4 4-20.1 0-1.3.7-3.3 0-4.7-2.6-6-5.3-12-8.7-18zm-172.5 129.7c5.3 4.7 9.4 8 14 11.4 2 1.3 4 2.7 6 2.7h25.4c1.3 0 3.3-1.3 4-2.7 1.3-3.3 1.3-7.4 2.7-11.4-17.3 0-34 0-52.1 0z"
        fill="#3158a6" />
    <g fill="#fff">
        <path
            d="m198.2 204.5c-20.7 0-41.5 0-62.9 0 2.7-11.4 4.7-21.4 7.4-32.1.7-4 2.7-8 2.7-12 .7-6 3.3-7.4 9.4-7.4 16.7.7 33.4 0 49.5 0 4.7 0 6.7-1.3 7.4-6 3.3-16.7 7.4-33.4 11.4-50.1.7-2 2.7-4.7 4.7-4.7h53.5c.7 0 1.3.7 2.7.7-4 19.4-8.7 38.8-12.7 59.5h71.5c-1.3 5.3-2 9.4-3.3 13.4-2.7 10.7-5.3 21.4-7.4 31.4-.7 4.7-2.7 6.7-8 6.7-20.1-.7-40.1 0-60.2 0-4 0-6 .7-6.7 4.7-6.7 32.1-14 64.2-20.7 95.6-2.7 12.7 4 22.1 17.4 22.1 18.1.7 35.4 0 53.5 0 2.7 0 4.7.7 8 .7-3.3 13.4-6 26.1-8.7 38.1v.7c-3.3 14-3.3 14-18.1 14-20.7 0-41.5 0-61.5-.7-11.4 0-22.1-3.3-32.1-8.7-15.4-8.7-24.7-24.7-22.1-42.1 3.3-22.1 8.7-44.1 13.4-66.2 4-18.1 8-36.1 12-54.2-.1 0-.1-1.4-.1-3.4z" />
        <path
            d="m359.3 149.7c4.7 10.7 12 18.7 8 30.8-4.7 16-8 32.8-12 48.8-.7 3.3-2.7 4.7-6 4.7-20.1 0-40.1 0-60.2 0-2 0-4 0-6.7 0-2.7 12.7-5.3 25.4-8 37.4s-5.3 24.7-8 36.8c-1.3 7.4-6.7 4-10.7 4.7-4.7.7-4-3.3-3.3-6 2-12 4.7-24.1 7.4-35.4 3.3-15.4 6.7-30.8 10-46.1.7-4 2.7-5.3 6.7-5.3h60.2c4.7 0 6.7-1.3 7.4-6 4-19.4 9.4-38.8 13.4-58.2.5-1.5 1.2-2.8 1.8-6.2z" />
        <path
            d="m333.2 326.9c4 9.4 10.7 16.7 7.4 28.8-4.7 16.7-8 33.4-12 50.1-.7 4-2.7 5.3-6.7 5.3-28.8-.7-57.5.7-86.3-1.3-22.1-1.3-42.1-8-56.8-26.7-1.3-2-2.7-4-2.7-6.7 2.7 2 5.3 4 8 5.3 14.7 9.4 30.8 12.7 48.1 13.4 26.1.7 52.2 0 78.2 0 3.3 0 4.7-.7 6-4.7 4-19.4 8.7-38.8 13.4-58.2.7-2 1.3-4.7 2-6.7.1 1.4.8 1.4 1.4 1.4z" />
        <path
            d="m301.1 90.9c2.7 6 6 12 8.7 18.1.7 1.3 0 2.7 0 4.7-1.3 6.7-3.3 13.4-4 20.1-.7 4-2.7 5.3-6.7 4.7-2.7 0-6 0-10 0 3.3-16.7 7.4-32.1 10.7-47.5.7-.1 1.3-.1 1.3-.1z" />
        <path
            d="m128.6 220.6h51.5c-.7 4-1.3 8-2.7 11.4-.7 1.3-2.7 2.7-4 2.7-8.7 0-16.7 0-25.4 0-2 0-4-1.3-6-2.7-4-3.4-8-7.4-13.4-11.4z" />
    </g>
</svg>