<svg xmlns:xlink="http://www.w3.org/1999/xlink" enable-background="new 0 0 500 500"
    viewBox="0 0 500 500" xmlns="http://www.w3.org/2000/svg">
    <linearGradient id="a">
        <stop offset="0" stop-color="#fff" stop-opacity="0" />
        <stop offset="1" stop-opacity=".1" />
    </linearGradient>
    <linearGradient gradientTransform="matrix(5.925 0 0 -4.867 16.256 2455.0464)"
        gradientUnits="userSpaceOnUse" id="b" x1="67.615" x2="61.5058" y1="434.2879" y2="426.8771"
        xlink:href="#a" />
    <linearGradient gradientTransform="matrix(6.51 0 0 -4.232 16.742 2134.1711)"
        gradientUnits="userSpaceOnUse" id="c" x1="64.9638" x2="61.4374" y1="438.5971" y2="431.9241"
        xlink:href="#a" />
    <linearGradient gradientTransform="matrix(7.383 0 0 -6.886 14.826 3454.4758)"
        gradientUnits="userSpaceOnUse" id="d" x1="51.34" x2="58.1817" y1="481.2707" y2="469.8516"
        xlink:href="#a" />
    <linearGradient gradientTransform="matrix(7.881 0 0 -7.625 9.614 3819.9326)"
        gradientUnits="userSpaceOnUse" id="e" x1="30.5205" x2="47.6152" y1="496.1814" y2="483.6581"
        xlink:href="#a" />
    <g clip-rule="evenodd" fill-rule="evenodd">
        <path
            d="m344.9 329.6 93.4 79.2.1.1.9-1.3c8.6-10.5 16.3-21.7 23.1-33.4l.4-.6-105.7-61.6c-3.6 6.2-7.7 12.1-12.2 17.6z"
            fill="url(#b)" />
        <path
            d="m373.5 251.2h122.3l-.2 2.9c-.2 12.2-1.2 24.5-3.1 36.6l-.3 3.5-.9 3.3c-2.3 12-5.4 23.9-9.5 35.4l-.7 2.5-114.9-42.2c4.8-13.5 7.3-27.7 7.3-42z"
            fill="url(#c)" />
        <path
            d="m463.4 127.3c6.6 11.5 12.2 23.6 16.9 36.1l1 2.2.7 2.5c4.1 11.8 7.3 23.9 9.6 36.2l.8 2.9-120.4 21.3c-3.6-21.3-12.8-41.3-26.6-58l93.3-79 1 1.2c8.6 10.5 16.3 21.7 23.1 33.4l.4.5z"
            fill="url(#d)" />
        <path
            d="m273 128.1c-7-1.3-14.2-2-21.4-2v-122.4c14.1 0 28.1 1.2 41.9 3.6l.6.1.6.2c13.5 2.4 26.8 6.1 39.7 10.7l.8.2.8.3c12.8 4.8 25.2 10.6 37 17.5l.6.3.6.4c11.7 6.8 22.7 14.6 33.1 23.3l1.2 1-78.2 94.1c-10.9-9.3-23.3-16.6-36.6-21.6-6.8-2.5-13.7-4.4-20.7-5.7z"
            fill="url(#e)" />
    </g>
    <path
        d="m250.4 3.4v122.6c-68.2 0-123.5 55.5-123.5 124s55.3 124 123.5 124c36.5 0 71.1-16.2 94.4-44.1l93.5 79c-46.5 55.7-115.3 87.8-187.9 87.8-135.6 0-245.6-110.4-245.6-246.6s110-246.7 245.6-246.7zm115.9 289.5 114.7 42.5c-5 13.5-11.1 26.5-18.3 38.9l-105.6-61.8c3.6-6.2 6.7-12.8 9.2-19.6zm126.1-85.7c2.4 13.9 3.7 28.2 3.7 42.8h-122.2c0-7.3-.6-14.5-1.9-21.5zm-83.3-145.4c10.9 9.3 21 19.5 30.2 30.5l-93.9 78.5c-4.6-5.5-9.7-10.7-15.1-15.3z"
        fill="#1d2667" />
</svg>