<svg viewBox="0 0 500 500" xmlns="http://www.w3.org/2000/svg">
    <circle cx="250" cy="250" fill="#178dd0" r="250" />
    <g fill="#fff">
        <path
            d="m116.6 259.7c1.3-11.5 1.9-17.3 7-21.3 5-4 10.8-3.4 22.3-2.2 5.2.6 11.2 1.3 18.1 2.2 6.1.8 11.6 2.1 16.5 3.6 10.1 3.1 15.1 4.6 22.8 15s7.7 18.7 7.7 35.4v39.7 50.8c0 11 0 16.5-3.4 20-3.4 3.4-9 3.4-20 3.4-8.5 0-18.2 0-27.3 0-.6 0-1.3 0-1.9 0-18.2 0-27.2 0-34-6.2-6.7-6.2-7.5-14.7-9-31.7-1.2-13.3-2.1-29.7-2.1-48.1 0-24.6 1.6-45.5 3.3-60.6z" />
        <path
            d="m379.5 259.7c-1.3-11.5-1.9-17.3-7-21.3-5-4-10.8-3.4-22.3-2.2-5.2.6-11.2 1.3-18.1 2.2-6.1.8-11.6 2.1-16.5 3.6-10.1 3.1-15.1 4.6-22.8 15s-7.7 18.7-7.7 35.4v39.7 50.8c0 11 0 16.5 3.4 20 3.4 3.4 9 3.4 20 3.4h27.4 1.9c18.2 0 27.2 0 34-6.2 6.7-6.2 7.5-14.7 9-31.7 1.2-13.3 2.1-29.7 2.1-48.1-.1-24.6-1.7-45.5-3.4-60.6z" />
        <path
            d="m117.2 133c0-18 0-27 5.2-33.4.7-.8 1.4-1.7 2.2-2.4 6-5.7 14.8-6.3 32.2-7.6 24.4-1.8 57.7-3.6 93.2-3.6s68.7 1.8 93.2 3.6c17.5 1.3 26.2 1.9 32.2 7.6.8.7 1.5 1.6 2.2 2.4 5.2 6.4 5.2 15.4 5.2 33.4 0 17.8 0 26.8-5.2 33.2-.7.8-1.4 1.7-2.2 2.4-6 5.7-14.7 6.3-31.9 7.6-23.8 1.8-56.6 3.5-93.5 3.5s-69.7-1.8-93.5-3.5c-17.2-1.3-25.9-1.9-31.9-7.6-.8-.7-1.5-1.6-2.2-2.4-5.2-6.5-5.2-15.4-5.2-33.2z" />
    </g>
</svg>