<svg enable-background="new 1000 -1000 2500 2500" viewBox="1000 -1000 2500 2500"
    xmlns="http://www.w3.org/2000/svg">
    <circle cx="2250" cy="250" fill="#30c0f2" r="1224.287" />
    <path d="m2881.946-306.024 579.031 736.791s-60.639 784.201-935.717 1012.461l-324.56-387.992z"
        fill="#298ea1" opacity=".4" />
    <path
        d="m1789.865-456.636h928.486s24.65 123.25 156.117 131.467c0 0 435.485 1018.87-624.469 1454.355 0 0-977.787-312.234-632.685-1446.138.001 0 147.901-8.217 172.551-139.684"
        fill="#fff" />
    <path
        d="m1859.707-353.927h788.802s5.012 101.23 112.487 108.296c0 0 355.865 870.969-510.421 1243.35 0 0-804.414-258.99-522.335-1228.396 0 0 111.336-10.846 131.467-123.25"
        fill="#f8b642" stroke="#298ea1" stroke-miterlimit="10" stroke-width="5.263" />
    <path
        d="m2457.471 110.316h-23.993c2.383-48.232-8.217-153.241-137.958-182.411-37.694-9.054-77.184-7.231-113.883 5.259-50.615 18.077-111.09 63.515-113.308 177.152h-17.584c-37.401.09-67.697 30.387-67.788 67.788v283.476c.09 37.401 30.387 67.697 67.788 67.788h406.726c37.401-.09 67.697-30.387 67.788-67.788v-283.476c-.09-37.401-30.387-67.697-67.788-67.788zm-158.171 320.451h-90.384l23.911-119.471c-27.054-11.753-39.458-43.213-27.704-70.267 11.753-27.054 43.213-39.458 70.267-27.704 27.054 11.753 39.458 43.213 27.704 70.267-5.392 12.411-15.293 22.312-27.704 27.704zm-172.55-320.451c2.219-37.139 17.83-124.976 115.034-131.467 0 0 128.263-7.066 125.962 131.467z"
        fill="#fff" />
</svg>