<svg enable-background="new 0 0 2000 2000" viewBox="0 0 2000 2000"
    xmlns="http://www.w3.org/2000/svg">
    <path
        d="m201.758 20c43.588 10.159 89.705 20.836 135.788 31.66 408.391 95.929 816.812 191.726 1225.045 288.321 19.537 4.623 39.267 13.686 55.712 25.233 85.085 59.744 169.147 120.947 253.528 181.692 28.026 20.176 29.625 30.143 9.24 59.169-315.506 449.231-630.975 898.488-947.014 1347.343-7.275 10.333-22.636 23.788-31.433 22.006-11.04-2.237-23.461-17.131-27.982-29.281-215.519-579.215-430.246-1158.724-645.063-1738.201-17.901-48.288-36.111-96.465-53.576-144.911-9.292-25.775.447-42.96 25.755-43.031zm64.162 69.035c250.491 291.021 496.512 576.847 743.532 863.835 179.852-188.625 356.946-374.357 536.963-563.155-427.52-100.389-850.252-199.653-1280.495-300.68zm1.793 56.984c-1.203 1.114-2.405 2.228-3.608 3.341 211.594 570.772 423.188 1141.544 634.782 1712.316 5.67-11.05 7.445-20.856 8.469-30.74 28.307-273.053 56.33-546.137 85.144-819.137 2.529-23.956-2.251-41.813-18.785-60.559-173.421-196.618-345.818-394.14-518.529-591.384-62.447-71.318-124.98-142.561-187.473-213.837zm667.051 1707.46c1.435.694 2.869 1.388 4.304 2.082 292.121-415.882 584.242-831.764 876.364-1247.646-11.711.657-20.756 4.255-29.485 8.503-230.204 112.049-459.357 226.348-691.309 334.653-54.31 25.359-73.311 56.23-78.099 114.072-15.029 181.512-36.852 362.461-56.011 543.632-8.626 81.564-17.179 163.135-25.764 244.704zm639.999-1455.381c-169.859 178.15-338.398 354.915-506.937 531.68 1.359 1.645 2.719 3.29 4.078 4.935 246.494-120.654 492.987-241.309 743.042-363.707-81.337-58.554-159.446-114.784-240.183-172.908z" />
    <g fill="#fff">
        <path
            d="m265.92 89.035c430.243 101.028 852.975 200.292 1280.495 300.68-180.017 188.798-357.111 374.53-536.963 563.155-247.02-286.988-493.041-572.815-743.532-863.835z" />
        <path
            d="m267.713 146.019c62.493 71.277 125.026 142.52 187.473 213.837 172.711 197.244 345.108 394.766 518.529 591.384 16.534 18.746 21.314 36.603 18.785 60.559-28.814 273-56.837 546.083-85.144 819.137-1.025 9.884-2.8 19.69-8.469 30.74-211.594-570.772-423.188-1141.544-634.782-1712.316 1.203-1.114 2.405-2.228 3.608-3.341z" />
        <path
            d="m934.764 1853.479c8.585-81.568 17.137-163.14 25.763-244.704 19.16-181.17 40.983-362.12 56.011-543.632 4.789-57.842 23.79-88.713 78.099-114.072 231.952-108.305 461.104-222.604 691.309-334.653 8.729-4.249 17.774-7.846 29.485-8.503-292.121 415.882-584.242 831.764-876.364 1247.646-1.433-.695-2.868-1.389-4.303-2.082z" />
        <path
            d="m1574.763 398.098c80.738 58.123 158.846 114.354 240.184 172.909-250.055 122.398-496.548 243.052-743.042 363.707-1.359-1.645-2.719-3.29-4.078-4.935 168.538-176.766 337.077-353.531 506.936-531.681z" />
    </g>
</svg>