<svg enable-background="new 0 0 500 500" viewBox="0 0 500 500" xmlns="http://www.w3.org/2000/svg">
    <path
        d="m40.9 134.2v232.6c0 5.6 2.9 10.8 7.7 13.6l193.5 115.8c5 3 11.3 3 16.3 0l193.6-115.7c4.8-2.9 7.7-8.1 7.7-13.6v-232.7c0-5.6-2.9-10.8-7.7-13.6l-193.5-115.9c-5-3-11.3-3-16.3 0l-193.6 115.8c-4.8 2.9-7.7 8.1-7.7 13.7z"
        fill="#01028d" />
    <path
        d="m354.9 148.9h-210.4c-3.8 0-6.9 3.1-6.9 6.9v49.6c0 3.8 3.1 6.9 6.9 6.9h71.9v155.4c0 3.8 3.1 6.9 6.9 6.9h53.6c3.8 0 6.9-3.1 6.9-6.9v-155.5h71.2c3.8 0 6.9-3.1 6.9-6.9v-49.6c-.1-3.7-3.2-6.8-7-6.8z"
        fill="#fff" />
    <path d="m216.3 212.2h47.6c2.5 0 3.8 2.9 2.2 4.8l-49.8 57.3z" fill="#afb9c9" />
</svg>