<svg enable-background="new 0 0 500 500" viewBox="0 0 500 500" xmlns="http://www.w3.org/2000/svg">
    <path
        d="m249.9 500c138.1 0 250-111.9 250-250s-111.9-250-250-250-250 111.9-250 250 111.9 250 250 250z"
        fill="#3375bb" />
    <path
        d="m251.7 417.7c-3.2 0-6.4-1-9.1-2.9-18.3-13.1-33.8-21.5-47.5-29-27.3-14.8-48.9-26.5-62.3-61.1-12.1-31.2-17.4-80.7-18.8-176.4-.1-4.2 1.6-8.2 4.5-11.2s6.9-4.7 11.1-4.7h2.8c18.3.1 66.7.5 109.3-35.1 5.8-4.8 14.2-4.8 20 0 42.6 35.6 91.2 35.2 109.4 35.1h2.8c4.2 0 8.2 1.7 11.1 4.7s4.6 7 4.5 11.2c-1.4 95.6-6.7 145.1-18.9 176.3-13.4 34.5-35 46.2-62.4 61.1-13.7 7.4-29.3 15.9-47.6 29-2.5 2-5.7 3-8.9 3zm-106.2-254.1c1.7 80.4 6.5 124.3 16.4 149.8 9.2 23.8 23 31.3 48.1 44.9 11.6 6.3 25.7 13.9 41.7 24.7 16.1-10.8 30.1-18.4 41.8-24.7 25.1-13.6 38.9-21.1 48.1-44.9 9.9-25.5 14.8-69.4 16.5-149.8-10.4-.3-24-1.4-39.5-4.9-24.7-5.5-47.2-15.4-66.9-29.6-39.8 28.6-82.1 33.7-106.2 34.5z"
        fill="#fff" />
</svg>