<svg viewBox="0 0 500 500" xmlns="http://www.w3.org/2000/svg">
    <g fill-rule="evenodd">
        <path
            d="m378.9 166.3 27.1.2c3.1-.2 6.2-.2 9.3 0l66.1.4c10.1.6 18 9 18 19.3 0 4.9-1.8 9.3-4.7 12.7l-32.2 56.1c-.3.5-.5.9-.8 1.4l-79.6 139.4c-10.8 18.9-30.2 29.6-50.3 30h-.9c-.5 0-1 0-1.6 0l-235.5-1.2h-26.2v-.5c19.9-2.8 36.7-15.6 45.2-33.2h.2l115.4-202.9c6.5-12.9 19.7-21.7 35-21.7h-1.1z"
            fill="#2bbdf7" />
        <path
            d="m194.6 66.7h207.9c10 .6 18 9 18 19.3 0 4.1-1.3 7.9-3.5 11.1l-56.1 98.5-59.6 104.7h.5l-19.1 33.4c-16.1 28.2-7 64 20.1 81l1.7 1c7.6 4.5 15.8 7 24.1 7.8v1.4h-98.3v.1h-170.5c-9.7-.2-19.5-2.7-28.6-7.8-29.2-16.4-39.8-53.6-23.6-83.2l129.3-235.9c11.9-21.6 34.8-33.1 57.7-31.4z"
            fill="#2b6def" />
        <path
            d="m262.7 166.3 114.5.1-16.6 29.1-59.6 104.6h.5l-19.1 33.4c-16.1 28.2-7 64 20.1 81l1.7 1c7.6 4.5 15.8 7 24.1 7.8v1.4h-98.3v.1h-162.8c18-1.9 35-11.9 45.2-28.5l1.1-1.9 120.4-212.8c6.8-8.9 17.3-14.8 29.2-15.4z"
            fill="#003cb2" />
    </g>
</svg>