<svg enable-background="new 0 0 500 500" viewBox="0 0 500 500" xmlns="http://www.w3.org/2000/svg">
    <linearGradient gradientTransform="matrix(1 0 0 -1 0 501)" gradientUnits="userSpaceOnUse" id="a"
        x1="17.5944" x2="332.1489" y1="405.3822" y2="254.4603">
        <stop offset="0" stop-color="#7febff" />
        <stop offset=".1844" stop-color="#5dcfe2" />
        <stop offset=".4326" stop-color="#35aec0" />
        <stop offset=".6598" stop-color="#1896a8" />
        <stop offset=".8564" stop-color="#068799" />
        <stop offset="1" stop-color="#008294" />
    </linearGradient>
    <linearGradient gradientTransform="matrix(1 0 0 -1 0 501)" gradientUnits="userSpaceOnUse" id="b"
        x1="150.1162" x2="478.0823" y1="255.2489" y2="255.2489">
        <stop offset="0" stop-color="#7febff" />
        <stop offset="1" stop-color="#008faa" />
    </linearGradient>
    <linearGradient gradientTransform="matrix(1 0 0 -1 0 501)" gradientUnits="userSpaceOnUse" id="c"
        x1="255.9348" x2="540.9953" y1="454.7589" y2="-44.0672">
        <stop offset="0" stop-color="#7febff" />
        <stop offset=".1633" stop-color="#6adcf1" />
        <stop offset=".6493" stop-color="#008faa" />
    </linearGradient>
    <g clip-rule="evenodd" fill-rule="evenodd">
        <path
            d="m354.8 2.5v91.4 29.7 142.3c-2.1 55.2-48.9 99.8-104.1 99.8s-102-44.6-104.1-99.8v-142.3-29.7-91.4h-125.3v265.6c0 125.3 102 229.4 229.4 229.4 125.3 0 229.4-102 229.4-229.4v-265.6z"
            fill="url(#a)" />
        <path
            d="m354.8 93.9v29.7 142.3c-2.1 55.2-48.9 99.8-104.1 99.8-46.7 0-85-29.7-99.8-72.2 14.8 87.2 70.1 159.4 146.6 195.5 104.1-21.2 182.7-112.6 182.7-223.1v-263.4h-123.3v91.4z"
            fill="url(#b)" />
        <path
            d="m354.8 93.9v29.7 142.3c-2.1 55.2-48.9 99.8-104.1 99.8-46.7 0-85-29.7-99.8-72.2v4.2c38.2 76.5 119 129.6 212.4 129.6 17 0 36.1-2.1 53.1-6.4 38.2-40.4 63.7-95.6 63.7-157.2v-261.2h-123.2v91.4z"
            fill="url(#c)" />
    </g>
</svg>