<svg enable-background="new 0 0 500 500" viewBox="0 0 500 500" xmlns="http://www.w3.org/2000/svg">
    <g fill="#ff4a4a">
        <path
            d="m320.4 312.5h-21.2c-3.9 0-7.3-3.1-7.3-7.3v-55.7l-37.1 23.1c-3.1 2-7.1 2-10.2 0l-36.9-23.1v55.7c0 3.9-3.1 7.3-7.3 7.3h-21c-3.9 0-7.3-3.1-7.3-7.3v-107.4c0-5.3 4.3-9.6 9.6-9.6 2 0 3.7.6 5.3 1.8l58.4 40.2c2.4 1.8 5.7 1.8 8 0l58.4-40.2c4.3-2.9 10.4-1.8 13.3 2.5 1.2 1.6 1.6 3.5 1.8 5.3v107.5c.6 3.9-2.6 7.2-6.5 7.2z" />
        <path
            d="m140.8 312.4h-131.4c-5.3 0-9.6-4.3-9.6-9.6v-108c.2-4.1 3.3-7.3 7.5-7.3h21.2c3.9 0 7.3 3.1 7.3 7.3v82.2h79.6v-82.2c0-3.9 3.1-7.3 7.3-7.3h20.6c3.9 0 7.3 3.1 7.3 7.3v108c-.2 5.2-4.5 9.6-9.8 9.6z" />
        <path
            d="m359.2 187.5h131.4c5.3 0 9.6 4.3 9.6 9.6v108c0 3.9-3.1 7.3-7.1 7.3h-21.1c-3.9 0-7.3-3.1-7.3-7.3v-77.5c0-2.5-2.2-4.7-4.7-4.7h-70c-2.5 0-4.7 2.2-4.7 4.7v77.5c0 3.9-3.1 7.3-7.3 7.3h-21.2c-3.9 0-7.3-3.1-7.3-7.3v-108c.1-5.3 4.4-9.6 9.7-9.6z" />
        <path
            d="m414.3 245.7h21c3.9 0 7.3 3.1 7.3 7.3v21.4c0 3.9-3.1 7.3-7.3 7.3h-21c-3.9 0-7.3-3.1-7.3-7.3v-21.6c.1-4 3.4-7.1 7.3-7.1z" />
    </g>
</svg>