<svg xmlns:xlink="http://www.w3.org/1999/xlink" enable-background="new 0 0 500 500"
    viewBox="0 0 500 500" xmlns="http://www.w3.org/2000/svg">
    <clipPath id="a">
        <path
            d="m493.9 218.2s-70.9 27.3-78.8 32.9c0 0 76-35.1 66.4-136.2 0 0-58.7 111.9-109.2 130.9 0 0 32.5 41.5 35.3 60.3-.1.1 67.6-20 86.3-87.9z" />
    </clipPath>
    <linearGradient id="b">
        <stop offset="0" stop-color="#4ecc8d" />
        <stop offset="1" stop-color="#00d579" />
    </linearGradient>
    <linearGradient gradientTransform="matrix(1 0 0 -1 0 502.6)" gradientUnits="userSpaceOnUse"
        id="c" x1="454.6662" x2="454.6662" y1="94.4849" y2="284.3696" xlink:href="#b" />
    <linearGradient id="d">
        <stop offset="0" stop-color="#00f649" />
        <stop offset="1" stop-color="#00d579" />
    </linearGradient>
    <linearGradient gradientTransform="matrix(1 0 0 -1 0 502.6)" gradientUnits="userSpaceOnUse"
        id="e" x1="493.9018" x2="372.234" y1="291.9967" y2="291.9967" xlink:href="#d" />
    <linearGradient gradientTransform="matrix(1 0 0 -1 0 502.6)" gradientUnits="userSpaceOnUse"
        id="f" x1="481.4543" x2="0" y1="265.0633" y2="265.0633" xlink:href="#d" />
    <clipPath id="g">
        <path
            d="m83.4 446.1s-106.7-34.7-78.7-163.3c0 0 32.2-152.1 259.7-213.7 0 0 177.6-50.5 217.1-45.8 0 0-8.8 62.1-188.5 107.5l-118.5 66.8c-9.4 7.3-17.2 21.5-17.2 21.5l-6.1 13.9-90.2-17.9 95.6 43-53 73.1s-11.7 26.6 30.6 31.2l88.8-26.4 12.4 2.4 16.2 48.7-11.6 43.3-81.9 15.7-56.6 5.9z" />
    </clipPath>
    <linearGradient gradientTransform="matrix(1 0 0 -1 0 502.6)" gradientUnits="userSpaceOnUse"
        id="h" x1=".061265" x2="-23.1252" y1="267.2848" y2="267.2848" xlink:href="#d" />
    <linearGradient gradientTransform="matrix(1 0 0 -1 0 502.6)" gradientUnits="userSpaceOnUse"
        id="i" x1="308.3493" x2="308.3493" y1="479.3796" y2="257.278" xlink:href="#b" />
    <clipPath id="j">
        <path
            d="m373.9 245.3s50.9-10.7 107.6-130.3c0 0-65.2 49.9-96.8 53.5 0 0 93-39.3 96.8-145.2 0 0-304.1 137.7-346.5 206.5l37.1 7.3s11.8-28.4 28.4-21.5l-12-21.6s17.7-10.6 57.8-3.9l5.9 22.3 4.1-21.7s11.7-5.6 53.8 11.6l-8.4 22.1 17.6-17.9c.1.3 41.7 16.2 54.6 38.8z" />
    </clipPath>
    <linearGradient gradientTransform="matrix(1 0 0 -1 0 502.6)" gradientUnits="userSpaceOnUse"
        id="k" x1="308.2273" x2="308.2273" y1="479.2576" y2="346.3628" xlink:href="#b" />
    <linearGradient gradientTransform="matrix(1 0 0 -1 0 502.6)" gradientUnits="userSpaceOnUse"
        id="l" x1="174.5087" x2="204.8342" y1="231.1191" y2="231.1191" xlink:href="#d" />
    <linearGradient gradientTransform="matrix(1 0 0 -1 0 502.6)" gradientUnits="userSpaceOnUse"
        id="m" x1="326.0537" x2="83.3799" y1="133.0022" y2="133.0022">
        <stop offset="0" stop-color="#00f649" />
        <stop offset="1" stop-color="#fff" />
    </linearGradient>
    <path clip-path="url(#a)" d="m443.5 306.2 50.4-77.6v77.6z" fill="#00ec5b" />
    <path d="m424.7 408.1s100.7-107 69.2-189.9c0 0-60.5 77.7-84.6 85.4z" fill="url(#c)" />
    <path
        d="m493.9 218.2s-70.9 27.3-78.8 32.9c0 0 76-35.1 66.4-136.2 0 0-58.7 111.9-109.2 130.9 0 0 32.5 41.5 35.3 60.3-.1.1 67.6-20 86.3-87.9z"
        fill="url(#e)" />
    <path
        d="m156.5 258c-.1.1-51.7 68.7-53 73.1 0 0-13.8 28.3 30.6 31.2 0 0 23.7-1.6 88.8-26.4 0 0 57.1-17.9 20.3-59.7 0 0 46.3 14.9 61.7 36.6.9 1.2 1.6 2.6 2.6 3.7 6.5 8.2 29.4 41.6 4.5 81 0 .1-.1.1-.1.2-1.7 3.4-48.9 90.7-228.6 48.3 0 0 233.1 82.9 341.3-38.1l-4.5-44.7s-3.4-50.3-17.9-77c-1.3-2.6-2.7-5.1-4.3-7.6-8.1-12.7-27.7-50.3-78.6-72.1l-17.6 17.9 8.4-22.1c-.1 0-41.4-15.6-53.8-11.6l-4.1 21.7-5.9-22.3c-.1 0-28.6-4.5-57.8 3.9l12 21.5s0 .1-.1.1c-1.6-.5-16.6-3.8-28.3 21.4l-111.2-21.8z"
        fill="#fff" />
    <path
        d="m83.4 446.1s-106.7-34.7-78.7-163.3c0 0 32.2-152.1 259.7-213.7 0 0 177.6-50.5 217.1-45.8 0 0-8.8 62.1-188.5 107.5l-118.5 66.8c-9.4 7.3-17.2 21.5-17.2 21.5l-6.1 13.9-90.2-17.9 95.6 43-53 73.1s-11.7 26.6 30.6 31.2l88.8-26.4 12.4 2.4 16.2 48.7-11.6 43.3-81.9 15.7-56.6 5.9z"
        fill="url(#f)" />
    <path clip-path="url(#g)" d="m-23.2 18.6h23.2v433.4h-23.2z" fill="url(#h)" />
    <path
        d="m373.9 245.3s50.9-10.7 107.6-130.3c0 0-65.2 49.9-96.8 53.5 0 0 93-39.3 96.8-145.2 0 0-304.1 137.7-346.5 206.5l37.1 7.3s11.8-28.4 28.4-21.5l-12-21.6s17.7-10.6 57.8-3.9l5.9 22.3 4.1-21.7s11.7-5.6 53.8 11.6l-8.4 22.1 17.6-17.9c.1.3 41.7 16.2 54.6 38.8z"
        fill="url(#i)" />
    <path clip-path="url(#j)" d="m481.5 23.3-346.5 132.9v-132.9z" fill="url(#k)" />
    <path d="m204.8 262.4-27.2 20.4s-8.4-10 2.4-18.4c-.1 0 10.8-8 24.8-2" fill="url(#l)" />
    <path
        d="m83.4 446.1s126.5 9.5 149.6-38.7-10-71.4-10-71.4 33.1-10.6 32.6-34c0 0 1.3-9.5-12.4-25.6 0 0 50 13.3 61.9 33.2 1.8 3.1 3.8 5.9 5.9 8.7 11.5 14.9 41.2 67.5-37 115.8-92.6 56.9-190.6 12-190.6 12z"
        fill="url(#m)" />
</svg>