<svg enable-background="new 0 0 500 500" viewBox="0 0 500 500" xmlns="http://www.w3.org/2000/svg">
    <path
        d="m272.7 500.5h-79.8-79.8l-113.1-113.1v-79.8-79.8l113.1-113.1h79.8 79.8l113.1 113.1v79.8 79.8zm-80.4-47.6h60.1l85.8-85.2v-60.1-60.1l-85.2-85.8h-60.1-60.1l-85.8 85.7v60.1 60.1l85.2 85.2h60.1z" />
    <path
        d="m386.5 386.2h-79.8-79.8l-113.2-113.2v-79.8-79.8l113.2-113.1h79.8 79.8l113.1 113.1v79.8 79.8zm-79.8-47.7h60.1l85.2-85.2v-60.1-60.1l-85.2-85.8h-60.1-60.1l-85.7 85.2v60.1 60.1l85.2 85.2z"
        fill="#38f997" />
</svg>