<svg enable-background="new 0 0 500 500" viewBox="0 0 500 500" xmlns="http://www.w3.org/2000/svg">
    <g fill="#7e6cff">
        <path
            d="m368.4 121.4c.9 0 1.1.5.5 1.1l-36.2 36.3c-.8.8-2.1.8-2.9 0l-6.7-6.7c-1.8-1.8-4.3-2.8-6.9-2.8 0 0-17.7 0-23.4-.1-.6 0-.9-.8-.4-1.1 20.4-17.5 48.8-26.5 76-26.7" />
        <path
            d="m215.1 334.3h-22.7c-3.3 0-6.4-1.3-8.7-3.6l-16.1-16.1c-2.3-2.3-3.6-5.4-3.6-8.7v-22.7c0-3.3 1.3-6.4 3.6-8.7l16.1-16.1c2.3-2.3 5.4-3.6 8.7-3.6h22.7c3.3 0 6.4 1.3 8.7 3.6l16.1 16.1c2.3 2.3 3.6 5.4 3.6 8.7v22.7c0 3.3-1.3 6.4-3.6 8.7l-16.1 16.1c-2.3 2.3-5.4 3.6-8.7 3.6" />
        <path
            d="m103.3 119c.6-.1 1.2.4 1.2 1-.2 3.4-.4 6.8-.4 10.3 0 2.1.1 4.3.1 6.4 0 .9-.3 1.8-.9 2.4l-101.8 100.8c-.6.6-1.7.2-1.7-.8 2.4-59.5 49.5-108.9 103.5-120.1" />
        <path
            d="m106 158.7c.5-.5 1.5-.3 1.6.5 2.8 13.9 8.3 27.1 14.8 39.2.3.5.2 1.1-.2 1.5l-89 88.7c-5.5 5.5-11.8 11.9-16.3 16.4-1.3 1.3-3.4.9-4.2-.7-5.8-12.1-9.7-25.2-11.5-39-.1-1 .2-2 .9-2.7z" />
        <path
            d="m147.6 290.6c.6-.6 1.6-.2 1.6.7v22.2c0 2.6 1 5.1 2.8 6.9l5.8 6.8c.4.4.4 1 .5.9l-47.3 46.1c-1.3 1.2-2.3 1.6-3.3 1.4-11.7-2-22.8-5.6-33.2-10.5-.6-.3-.7-1.1-.3-1.6z" />
        <path d="m114.9 301.2.2-.2c-.1.1-.2.2-.2.2" />
        <path
            d="m131.8 377.1c-.9 0-1.1-.5-.5-1.1l36.2-36.3c.8-.8 2.1-.8 2.9 0l6.7 6.7c1.8 1.8 4.3 2.8 6.9 2.8 0 0 17.7 0 23.4.1.6 0 .9.7.4 1.1-20.3 17.6-48.8 26.5-76 26.7" />
        <path
            d="m23.8 318.3c10-10 57-57 66.7-66.6.7-.7 1.9-.3 2.1.7 1.5 8.3 5.4 15.9 11.4 22 6.3 6.3 14.4 10.4 23.2 11.7 1 .2 1.5 1.3.8 2.1-9.4 9.4-53.7 53.8-68.1 68.2-.4 0-.7.1-1.1.1-13.8-9-25.8-20.6-35.2-34-1-1.4-.8-3.1.2-4.2" />
        <path
            d="m161.7 215.3v-22.7c0-3.3 1.3-6.4 3.6-8.7l16.1-16.1c2.3-2.3 5.4-3.6 8.7-3.6h22.7c3.3 0 6.4 1.3 8.7 3.6l16.1 16.1c2.3 2.3 3.6 5.4 3.6 8.7v22.7c0 3.3-1.3 6.4-3.6 8.7l-16.1 16.1c-2.3 2.3-5.4 3.6-8.7 3.6h-22.7c-3.3 0-6.4-1.3-8.7-3.6l-16.1-16.1c-2.3-2.3-3.6-5.4-3.6-8.7" />
        <path
            d="m377 103.5c.1.6-.4 1.2-1 1.2-3.4-.2-6.8-.4-10.3-.4-2.1 0-4.3.1-6.4.1-.9 0-1.8-.3-2.4-.9l-100.7-101.8c-.7-.7-.2-1.7.7-1.7 59.5 2.3 108.9 49.4 120.1 103.5" />
        <path
            d="m337.3 106.2c.5.5.3 1.5-.5 1.6-13.9 2.8-27.1 8.3-39.2 14.8-.5.3-1.1.2-1.5-.2l-88.7-89c-5.6-5.5-11.9-11.8-16.4-16.3-1.3-1.3-.9-3.4.7-4.2 12.1-5.8 25.2-9.7 39-11.5 1-.1 2 .2 2.7.9z" />
        <path
            d="m205.4 147.8c.6.6.2 1.6-.7 1.6h-22.2c-2.6 0-5.1 1-6.9 2.9l-6.8 5.8c-.4.4-1 .4-.9.5l-46.1-47.3c-1.3-1.3-1.6-2.3-1.4-3.3 2-11.7 5.6-22.8 10.5-33.2.3-.6 1.1-.7 1.6-.3z" />
        <path
            d="m118.8 132c0-.9.5-1.1 1.1-.5l36.3 36.2c.8.8.8 2.1 0 2.9l-6.7 6.7c-1.8 1.8-2.8 4.3-2.8 6.9 0 0 0 17.7-.1 23.4 0 .6-.8.9-1.1.4-17.5-20.4-26.4-48.8-26.7-76" />
        <path
            d="m263.2 145.9c-4.1 4.1-9.6 6.4-15.4 6.4s-11.3-2.3-15.4-6.4c-4.1-4.1-6.4-9.6-6.4-15.4s2.3-11.3 6.4-15.4c4.1-4.1 9.6-6.4 15.4-6.4 5.8 0 11.3 2.3 15.4 6.4 4.1 4.1 6.4 9.6 6.4 15.4 0 5.7-2.3 11.3-6.4 15.4z" />
        <path
            d="m177.7 24c10 10 57 57 66.6 66.7.7.7.3 1.9-.7 2.1-8.3 1.5-15.9 5.4-22 11.4-6.3 6.3-10.4 14.4-11.7 23.2-.2 1-1.3 1.5-2.1.8-9.4-9.4-53.8-53.7-68.2-68.1 0-.4-.1-.7-.1-1.1 9-13.8 20.6-25.8 34-35.2 1.4-1 3.1-.9 4.2.2" />
        <path
            d="m145.7 232.8c4.1 4.1 6.4 9.6 6.4 15.4s-2.3 11.3-6.4 15.4c-4.1 4.1-9.6 6.4-15.4 6.4s-11.3-2.3-15.4-6.4c-4.1-4.1-6.4-9.6-6.4-15.4 0-5.8 2.3-11.3 6.4-15.4 4.1-4.1 9.6-6.4 15.4-6.4s11.3 2.3 15.4 6.4z" />
        <path
            d="m284.7 164.5h22.7c3.3 0 6.4 1.3 8.7 3.6l16.1 16.1c2.3 2.3 3.6 5.4 3.6 8.7v22.7c0 3.3-1.3 6.4-3.6 8.7l-16.1 16.1c-2.3 2.3-5.4 3.6-8.7 3.6h-22.7c-3.3 0-6.4-1.3-8.7-3.6l-16.1-16.1c-2.3-2.3-3.6-5.4-3.6-8.7v-22.7c0-3.3 1.3-6.4 3.6-8.7l16.1-16.1c2.3-2.3 5.4-3.6 8.7-3.6" />
        <path
            d="m396.5 379.8c-.6.1-1.2-.4-1.2-1 .2-3.4.4-6.8.4-10.3 0-2.1-.1-4.3-.1-6.4 0-.9.3-1.8.9-2.4l101.8-100.7c.6-.6 1.7-.2 1.7.7-2.3 59.5-49.4 108.9-103.5 120.1" />
        <path
            d="m393.8 340.1c-.5.5-1.5.3-1.6-.5-2.8-13.9-8.3-27.1-14.8-39.2-.3-.5-.2-1.1.2-1.5l89-88.7c5.5-5.5 11.8-11.9 16.3-16.4 1.3-1.3 3.4-.9 4.2.7 5.8 12.1 9.7 25.2 11.5 39 .1 1-.2 2-.9 2.7z" />
        <path
            d="m352.2 208.2c-.6.6-1.6.2-1.6-.7v-22.2c0-2.6-1-5.1-2.9-6.9l-5.8-6.8c-.4-.4-.4-1-.5-.9l47.3-46.1c1.3-1.2 2.3-1.6 3.3-1.4 11.7 2 22.8 5.6 33.2 10.5.6.3.7 1.1.3 1.6z" />
        <path d="m385 197.6-.2.2c.1-.1.2-.2.2-.2" />
        <path
            d="m368 121.7c.9 0 1.1.5.5 1.1l-36.2 36.2c-.8.8-2.1.8-2.9 0l-6.7-6.7c-1.8-1.8-4.3-2.8-6.9-2.8 0 0-17.7 0-23.4-.1-.6 0-.9-.7-.4-1.1 20.4-17.5 48.8-26.4 76-26.6" />
        <path
            d="m476 180.5c-10 10-57 57-66.7 66.6-.7.7-1.9.3-2.1-.7-1.5-8.3-5.4-15.9-11.5-22-6.3-6.3-14.4-10.4-23.2-11.7-1-.2-1.5-1.3-.8-2.1 9.4-9.4 53.7-53.8 68.1-68.2.4 0 .7-.1 1.1-.1 13.8 9 25.8 20.6 35.2 34 1.1 1.4 1 3.1-.1 4.2" />
        <path
            d="m338.1 283.5v22.7c0 3.3-1.3 6.4-3.6 8.7l-16.1 16.1c-2.3 2.3-5.4 3.6-8.7 3.6h-22.7c-3.3 0-6.4-1.3-8.7-3.6l-16.1-16c-2.3-2.3-3.6-5.4-3.6-8.7v-22.7c0-3.3 1.3-6.4 3.6-8.7l16.1-16.1c2.3-2.3 5.4-3.6 8.7-3.6h22.7c3.3 0 6.4 1.3 8.7 3.6l16.1 16.1c2.4 2.3 3.6 5.3 3.6 8.6" />
        <path
            d="m122.9 395.3c-.1-.6.4-1.2 1-1.2 3.4.2 6.8.4 10.3.4 2.1 0 4.3-.1 6.4-.2.9 0 1.8.3 2.4.9l100.7 101.9c.6.6.1 1.7-.7 1.7-59.6-2.3-108.9-49.4-120.1-103.5" />
        <path
            d="m162.6 392.6c-.5-.5-.3-1.5.5-1.6 13.9-2.8 27.1-8.3 39.2-14.8.5-.3 1.1-.2 1.5.2l88.7 89c5.5 5.5 11.9 11.8 16.4 16.3 1.3 1.3.9 3.4-.7 4.2-12.1 5.8-25.2 9.7-39 11.5-1 .1-2-.2-2.7-.9z" />
        <path
            d="m294.5 351c-.6-.6-.2-1.6.7-1.6h22.2c2.6 0 5.1-1 6.9-2.9l6.8-5.8c.4-.4 1-.4.9-.5l46.1 47.3c1.3 1.3 1.6 2.3 1.4 3.3-2 11.7-5.6 22.8-10.5 33.2-.3.6-1.1.7-1.6.3z" />
        <path
            d="m381 366.8c0 .9-.5 1.1-1.1.5l-36.3-36.2c-.8-.8-.8-2.1 0-2.9l6.7-6.7c1.8-1.8 2.8-4.3 2.8-6.9 0 0 0-17.8.1-23.4 0-.6.8-.9 1.1-.4 17.5 20.4 26.5 48.9 26.7 76" />
        <path
            d="m236.6 353c4.1-4.1 9.6-6.4 15.4-6.4s11.3 2.3 15.4 6.4 6.4 9.6 6.4 15.4-2.3 11.3-6.4 15.4-9.6 6.4-15.4 6.4-11.3-2.3-15.4-6.4c-4.1-4.1-6.4-9.6-6.4-15.4s2.3-11.4 6.4-15.4z" />
        <path
            d="m322.2 474.8c-10-10-57-57-66.6-66.7-.7-.7-.3-1.9.7-2.1 8.3-1.5 15.9-5.4 22-11.4 6.3-6.3 10.4-14.4 11.7-23.2.2-1 1.3-1.5 2.1-.8 9.4 9.4 53.8 53.7 68.2 68.1 0 .4.1.7.1 1.1-9 13.8-20.6 25.8-34 35.2-1.4 1.1-3.1.9-4.2-.2" />
        <path
            d="m354.1 266.1c-4.1-4.1-6.4-9.6-6.4-15.4s2.3-11.3 6.4-15.4 9.6-6.4 15.4-6.4 11.3 2.3 15.4 6.4c4.1 4.1 6.4 9.6 6.4 15.4 0 5.8-2.3 11.3-6.4 15.4s-9.6 6.4-15.4 6.4c-5.7-.1-11.3-2.3-15.4-6.4z" />
    </g>
</svg>