<svg enable-background="new 0 0 500 500" viewBox="0 0 500 500" xmlns="http://www.w3.org/2000/svg">
    <g clip-rule="evenodd" fill="#21a0b4" fill-rule="evenodd">
        <path
            d="m425.8 269.4-67.1 116.2c2.6 5.6 3.1 11.5 1.2 17.5-2.5 8-8.9 14.6-17 16.8-10.7 2.9-21.3-1.2-27.2-9.7h-131c-6.2 8.8-17.2 12.8-28.2 9.4-8-2.5-14.2-9.3-16.3-17.3-1.5-5.5-1.1-10.8 1.1-15.9l-67.6-116.8c-12.3-1.7-21.7-12.2-21.7-24.7 0-13.3 10.4-24.3 23.6-25l65.4-113.3c-1.1-3-1.8-6.1-1.8-9.1 0-13.8 11.2-25 25.1-25 7.9 0 15.2 3.7 19.9 9.9h131.8c4.7-6.2 12-9.9 19.9-9.9 13.8 0 25 11.3 25 25 0 3.3-.8 6.7-2.1 9.8l65 112.6c12.8 1.1 22.9 12 22.9 24.9.1 12.4-8.9 22.7-20.9 24.6m64.4-45.6-100.6-174.1c-8.2-14.2-23.3-22.9-39.6-22.9h-201.2c-16.3 0-31.5 8.7-39.7 22.9l-100.5 174.1c-8.2 14.2-8.2 31.6 0 45.8l100.6 174.1c8.2 14.2 23.3 22.9 39.7 22.9h201.1c16.4 0 31.5-8.7 39.6-22.9l100.6-174.1c8.2-14.2 8.2-31.6 0-45.8" />
        <path
            d="m403.9 227.5-42.3-73.2-157.6 88.3v.5c0 13.8-11.2 25.1-25 25.1s-25-11.2-25-25.1c0-13.8 11.2-25 25-25 5.8 0 11.3 2 15.7 5.6l156.3-87.8-8.3-14.4c-2.2.6-4.5 1-6.8 1-11.6 0-21.5-8-24.2-19.1h-123.2c-2.7 11.1-12.7 19.1-24.2 19.1-2.5 0-5.1-.4-7.5-1.2l-61.5 106.5c4.4 4.7 6.8 10.7 6.8 17 0 6.9-2.8 13.3-7.8 18l47 81.4 161.1-93.2c-.1-.7-.1-1.5-.1-2.2 0-13.8 11.3-25 25-25 13.8 0 25 11.2 25 25s-11.2 25-25 25c-5.2 0-10.1-1.6-14.3-4.6l-161.3 93.3 5.4 9.4c2.3-.7 4.7-1 7.2-1 11.4 0 21.1 7.6 24.1 18.3h123.5c3.5-12.8 17.1-21.2 30.5-17.5l62.6-108.4c-5.2-4.7-8.2-11.4-8.2-18.4-.1-6.6 2.5-12.8 7.1-17.4" />
    </g>
</svg>