<svg xmlns:xlink="http://www.w3.org/1999/xlink" enable-background="new 0 0 500 500"
    viewBox="0 0 500 500" xmlns="http://www.w3.org/2000/svg">
    <linearGradient id="a">
        <stop offset="0" stop-color="#8568c5" />
        <stop offset="1" stop-color="#7c4497" />
    </linearGradient>
    <linearGradient gradientUnits="userSpaceOnUse" id="b" x1="28.1107" x2="441.9087" y1="456.1479"
        y2="74.1805" xlink:href="#a" />
    <linearGradient gradientUnits="userSpaceOnUse" id="c" x1="-14.4047" x2="399.3933" y1="410.0896"
        y2="28.1221" xlink:href="#a" />
    <linearGradient gradientUnits="userSpaceOnUse" id="d" x1="129.8153" x2="543.6133" y1="566.3279"
        y2="184.3605" xlink:href="#a" />
    <linearGradient gradientUnits="userSpaceOnUse" id="e" x1="-74.6538" x2="339.1443" y1="344.8197"
        y2="-37.1477" xlink:href="#a" />
    <linearGradient gradientUnits="userSpaceOnUse" id="f" x1="69.4593" x2="483.2574" y1="500.9423"
        y2="118.9749" xlink:href="#a" />
    <path
        d="m263.56 335.76c0 6.28-.05 12.04.02 17.79.05 4.44-1.99 6.31-6.48 6.71-17.9 1.6-18.54 1.12-19.12-16.68-.08-2.45-.47-4.88-.76-7.69-4.69-.81-9.02-1.4-13.28-2.31-20.52-4.4-34.47-25.68-29.88-46 .47-2.09 3.28-4.98 5.21-5.16 7.15-.65 14.39-.42 21.6-.32 4.17.06 5.9 2.78 5.74 6.63-.61 14.78 7.05 18.1 19.93 17.88 5.25-.09 10.54-.19 15.73-.86 6.65-.87 9.98-5.23 10.99-11.75 2.64-16.89-2.17-23.55-19.3-26.06-7.95-1.16-15.98-1.8-23.92-3.02-24.47-3.74-36.02-16.79-36.53-41.61-.17-8.29-.35-16.74 1.04-24.86 2.96-17.33 13.62-27.24 30.91-30.3 3.5-.62 7.02-1.19 11.73-1.99 0-5.61.11-11.08-.03-16.54-.16-5.98 2.57-8.42 8.55-8.4 20.46.05 18.18-.86 18.29 16.78.02 2.7.3 5.41.46 8.24 3.06.62 5.46 1.21 7.9 1.58 25.76 3.92 33.63 27.01 32.21 46.94-.29 4.08-2.85 5.73-6.75 5.71-6.65-.02-13.31-.04-19.96-.01-4.54.02-6.06-2.38-6.54-6.72-1.71-15.33-3.92-17.19-19.26-17.37-3.6-.04-7.22-.09-10.81.14-10.02.65-13.64 4.31-14.47 14.51-.18 2.21-.18 4.43-.18 6.65.03 10.35 3.9 15.19 14.29 16.93 6.55 1.1 13.28 1.1 19.82 2.24 8.14 1.42 16.48 2.67 24.16 5.52 11.44 4.24 19.01 13.01 20.29 25.29 1.2 11.5 1.98 23.32.63 34.73-2.1 17.78-13.76 28.58-31.45 31.87-2.97.55-6 .84-10.78 1.51z"
        fill="url(#b)" />
    <path
        d="m60.78 196.76c23.22-82.67 99.14-143.28 189.22-143.28s166 60.61 189.22 143.28h55.08c-24.41-112.49-124.5-196.76-244.3-196.76s-219.89 84.27-244.3 196.76z"
        fill="url(#c)" />
    <path
        d="m446.52 250c0 7.32-.41 14.55-1.19 21.67h53.73c.61-7.14.95-14.37.95-21.67 0-7.12-.31-14.17-.9-21.15h-53.71c.73 6.95 1.12 14 1.12 21.15z"
        fill="url(#d)" />
    <path
        d="m53.48 250c0-7.15.39-14.2 1.14-21.15h-53.72c-.59 6.98-.9 14.03-.9 21.15 0 7.3.33 14.53.95 21.67h53.73c-.79-7.12-1.2-14.35-1.2-21.67z"
        fill="url(#e)" />
    <path
        d="m439.08 303.76c-23.39 82.4-99.18 142.76-189.08 142.76s-165.69-60.35-189.08-142.76h-55.1c24.59 112.23 124.57 196.24 244.18 196.24s219.59-84.01 244.18-196.24z"
        fill="url(#f)" />
</svg>