<svg enable-background="new 0 0 500 500" viewBox="0 0 500 500" xmlns="http://www.w3.org/2000/svg">
    <circle cx="249.5" cy="249.6" fill="#172956" r="247.8" />
    <g fill="#fff">
        <path
            d="m314.9 214.6c1.2-8.1 4.2-10.6 12.4-10.7 14.7 0 29.4-.1 44.1 0 7.3.1 11.8 4.5 10.9 11.2-5.4 37.2-9.5 74.7-16.9 111.5-8.2 41-30.1 74-66.8 95.9-20.7 12.3-44.8 18.4-81 18.4-30.3-.6-64.6-14.3-87.4-49.7-17-26.4-19.4-55.6-15.1-86 9.9-68.7 19.7-137.5 29.4-206.3 1.4-9.9 4.7-12.9 14.6-13h42.8c8.7 0 11.5 3.2 10.2 12-7.8 55.1-29.8 205.3-30.1 225.5-.6 37.8 23.8 55.4 62.2 50.1 29.1-4 48.6-23.2 55.1-55.3" />
        <path
            d="m358.3 158c-7.4 0-14.9.1-22.3 0-8.1-.2-12.2-4.8-11.1-12.8 2.2-16.4 4.6-32.8 7.1-49.1 1-6.9 4.8-10.1 11.8-10.1 15.3-.1 30.6-.1 45.9 0 7.1 0 10.4 3.4 9.5 10.5-2.2 17.6-4.8 35.2-7.5 52.8-.9 6.1-5.2 8.7-11.1 8.7-7.5.1-14.9 0-22.3 0z" />
    </g>
</svg>