<svg enable-background="new 0 0 500 500" viewBox="0 0 500 500" xmlns="http://www.w3.org/2000/svg">
    <linearGradient gradientUnits="userSpaceOnUse" id="a" x1="211.3486" x2="415.7999" y1="130.1038"
        y2="292.0203">
        <stop offset="0" stop-color="#3f97ea" />
        <stop offset="1" stop-color="#27bada" />
    </linearGradient>
    <linearGradient gradientUnits="userSpaceOnUse" id="b" x1="-1.8888" x2="138.7904" y1="167.8457"
        y2="257.9225">
        <stop offset="0" stop-color="#916fcf" />
        <stop offset="1" stop-color="#4aabf2" />
    </linearGradient>
    <linearGradient gradientUnits="userSpaceOnUse" id="c" x1="19.2397" x2="122.3545" y1="-10.7133"
        y2="127.7379">
        <stop offset="0" stop-color="#ac75ce" />
        <stop offset="1" stop-color="#6ea4e9" />
    </linearGradient>
    <linearGradient gradientUnits="userSpaceOnUse" id="d" x1="112.2724" x2="198.2273" y1="100.7238"
        y2="252.1138">
        <stop offset="0" stop-color="#5c8de3" />
        <stop offset="1" stop-color="#43b3f5" />
    </linearGradient>
    <path
        d="m477.964 23.812h9.12c5.067 0 8.376 5.316 6.139 9.862l-206.583 419.891c-15.06 30.61-58.893 30.049-73.165-.936l-8.409-18.257-56.749-224.679 98.442 118.709 8.903 11.832c16.104 21.402 49.113 18.324 60.983-5.685l150.229-303.848c2.085-4.219 6.384-6.889 11.09-6.889z"
        fill="url(#a)" />
    <path d="m205.066 434.372-194.567-392.608 137.818 167.93z" fill="url(#b)" />
    <path
        d="m10.499 41.764-3.185-5.196c-3.421-5.582.596-12.755 7.143-12.755h71.633c4.502 0 8.699 2.274 11.158 6.044l4.744 7.274 46.326 172.563z"
        fill="url(#c)" />
    <path d="m101.991 37.131 148.39 296.085-102.064-123.522z" fill="url(#d)" />
</svg>