<svg enable-background="new 0 0 500 500" viewBox="0 0 500 500" xmlns="http://www.w3.org/2000/svg">
    <path
        d="m495.982 249.332c.047 135.751-109.804 245.661-245.518 245.649-135.685-.012-245.609-110.052-245.465-245.722.144-135.519 110.029-245.28 245.537-245.259 135.52.021 245.399 109.848 245.446 245.332zm-382.798 8.495v35.213h74.344c21.564 49.875 43.041 99.55 64.786 149.843 21.788-50.388 43.242-100.003 64.845-149.962h74.409c0-11.831 0-23.215 0-35.033-19.656 0-39.075 0-59.239 0 3.755-8.686 7.233-16.73 10.795-24.968h48.466c0-11.765 0-23.16 0-34.898-11.064 0-21.915 0-33.389 0 11.248-26.054 22.273-51.594 33.463-77.514-16.117 0-31.587 0-47.281 0-19.313 45.848-38.59 91.61-57.796 137.203-23.112 0-45.727 0-68.552 0-19.301-45.83-38.577-91.598-57.768-137.166-15.918 0-31.383 0-47.276 0 11.172 25.882 22.193 51.413 33.514 77.639-11.754 0-22.587 0-33.318 0v34.965h48.45c3.541 8.205 6.976 16.164 10.649 24.676-19.996.002-39.416.002-59.102.002zm119.813 35.472c6.462 15.331 12.756 30.262 19.327 45.852 6.614-15.725 12.877-30.614 19.286-45.852-13.172 0-25.63 0-38.613 0z"
        fill="#2a769a" />
</svg>