<svg enable-background="new 0 0 500 500" viewBox="0 0 500 500" xmlns="http://www.w3.org/2000/svg">
    <path
        d="m495.511 248.907c-.025 136.263-110.499 246.573-246.861 246.332-133.07-.236-245.785-107.072-245.65-246.621.132-136.57 109.696-246.019 246.374-245.868 139.542.154 246.083 113.066 246.137 246.157zm-246.152 204.913c15.062-23.127 29.602-45.452 43.514-66.813 20.981-3.074 40.893-5.579 60.648-8.996 21.551-3.728 42.705-9.398 62.108-19.711 8.079-4.294 15.854-10.018 22.132-16.642 9.604-10.133 9.217-22.709-.221-33.06-4.631-5.079-10.316-9.466-16.188-13.091-12.946-7.99-27.186-13.05-41.958-16.649-4.319-1.052-8.542-2.501-13.706-4.034 29.18-45.051 57.596-88.923 86.615-133.727-25.089 0-48.797 0-72.954 0-43.138 66.542-86.268 133.071-130.107 200.694-43.74-67.454-86.998-134.165-130.058-200.57-24.295 0-47.968 0-72.849 0 28.64 44.866 57.478 88.285 85.744 132.978-3.139.905-4.762 1.556-6.447 1.831-15.894 2.594-30.996 7.906-45.137 15.27-8.628 4.493-17.032 10.339-23.795 17.275-10.308 10.57-9.986 23.889.548 34.28 6.506 6.418 14.277 12.352 22.584 15.971 14.578 6.352 29.76 11.671 45.131 15.767 23.078 6.149 46.768 9.429 70.644 10.755 6.625.368 11.079 2.487 14.758 8.503 10.628 17.377 22.017 34.29 33.128 51.372 1.706 2.622 3.525 5.173 5.866 8.597zm-1.149-145.142c39.031-62.19 77.55-123.564 116.322-185.342-77.351 0-153.4 0-230.582 0 38.321 62.159 76.039 123.343 114.26 185.342zm-103.258-15.204c-4.547 1.676-8.807 2.728-12.546 4.746-5.559 3.001-11.235 6.125-15.964 10.231-5.133 4.456-4.926 8.655-.151 13.504 2.799 2.842 6.181 5.323 9.709 7.2 15.759 8.384 32.902 12.144 51.903 15.202-11.411-17.621-22.04-34.034-32.951-50.883zm176.292 49.789c14.086-2.083 26.262-5.252 37.92-10.166 5.297-2.233 10.564-4.91 15.188-8.286 8.492-6.198 8.643-12.914.149-18.911-6.293-4.443-13.498-7.595-21.325-11.887-10.981 16.937-21.021 32.422-31.932 49.25z" />
</svg>