<svg enable-background="new 0 0 500 500" viewBox="0 0 500 500" xmlns="http://www.w3.org/2000/svg">
    <path
        d="m332.6 250.8h-82.5c0 1 .1 2 .1 3 0 45.1-36.6 81.7-81.7 81.7s-81.7-36.6-81.7-81.7 36.6-81.7 81.7-81.7c6.5 0 12.8.8 18.9 2.2 14.6-26.3 36.3-48.2 62.4-63.1-24-13.7-51.7-21.6-81.3-21.6-90.7-.1-164.3 73.6-164.3 164.2s73.6 164.2 164.2 164.2 164.3-73.7 164.3-164.3c0-1-.1-1.9-.1-2.9z"
        fill="#4cafe4" />
    <path
        d="m330.9 89.5c-89.8 0-162.9 72.4-164.2 161.9h82.5c1.3-44 37.3-79.4 81.7-79.4 45.1 0 81.7 36.6 81.7 81.7s-36.6 81.7-81.7 81.7c-6.5 0-12.8-.8-18.9-2.2-14.6 26.3-36.3 48.2-62.4 63.1 24 13.7 51.7 21.6 81.3 21.6 90.6 0 164.3-73.7 164.3-164.3s-73.7-164.1-164.3-164.1z"
        fill="#a5e0fe" />
</svg>