<svg enable-background="new 0 0 500 500" viewBox="0 0 500 500" xmlns="http://www.w3.org/2000/svg">
    <path
        d="m256.648 494.687c-4.582 0-9.164 0-13.746 0-1.212-.146-2.421-.377-3.637-.426-16.565-.657-32.872-3.083-48.968-7.025-102.046-24.991-177.836-115.058-185.052-219.928-.302-4.396-.628-8.789-.943-13.184 0-3.273 0-6.546 0-9.819.157-1.701.394-3.398.459-5.102.513-13.432 2.151-26.722 4.893-39.881 22.37-107.384 113.182-186.917 222.263-194.649 4.479-.318 8.96-.621 13.439-.931h9.328c1.376.144 2.751.31 4.129.428 7.9.675 15.845 1.009 23.694 2.059 46.569 6.23 87.886 24.542 124.108 54.419.619.51 1.19 1.078 1.883 1.711-68.523 98-136.968 195.89-205.458 293.844 11.562 15.294 22.747 30.626 34.543 45.473 6.146 7.735 18.246 8.768 25.129-1.131 16.668-23.969 33.628-47.734 50.472-71.58 48.219-68.266 96.439-136.532 144.66-204.796.481-.681.997-1.337 1.55-2.076.325.415.441.534.524.672 18.732 31.178 30.015 64.854 33.79 101.028.644 6.169 1.032 12.365 1.538 18.548v13.746c-.152 1.289-.388 2.574-.442 3.867-.994 23.43-5.322 46.231-12.853 68.431-31.499 92.858-115.84 158.155-213.595 165.372-3.903.289-7.805.619-11.708.93zm-12.017-214.201c-17.73-23.101-35.392-46.113-52.812-68.81-32.794 0-65.181 0-98.117 0 34.685 45.785 69.018 91.105 103.529 136.659 15.951-22.832 31.63-45.276 47.4-67.849zm-138.662-37.28c-6.223-8.25-12.1-16.043-18.17-24.091-7.233 8.041-14.258 15.851-21.67 24.091z"
        fill="#1a5c2e" />
    <g fill="#fff">
        <path
            d="m244.631 280.486c-15.77 22.573-31.449 45.017-47.4 67.85-34.51-45.554-68.844-90.875-103.529-136.659h98.117c17.419 22.695 35.082 45.708 52.812 68.809z" />
        <path
            d="m105.969 243.206c-13.404 0-26.25 0-39.84 0 7.411-8.239 14.437-16.05 21.67-24.091 6.07 8.049 11.948 15.841 18.17 24.091z" />
        <path
            d="m255.192 3.797c1.207.13 2.412.27 3.621.373 7.9.675 15.845 1.009 23.694 2.059 46.569 6.23 87.886 24.542 124.108 54.419.618.51 1.19 1.078 1.883 1.711-68.523 98-136.967 195.89-205.458 293.844 11.562 15.294 22.747 30.626 34.543 45.473 6.146 7.735 18.246 8.768 25.129-1.131 16.668-23.969 33.628-47.734 50.472-71.58 48.219-68.266 96.439-136.532 144.66-204.796.481-.681.997-1.337 1.55-2.076.325.415.441.534.524.672 18.732 31.178 30.015 64.854 33.79 101.028.592 5.668.971 11.359 1.42 17.042-3.824-130.154-109.4-234.758-239.936-237.038z" />
    </g>
</svg>