<svg enable-background="new 0 0 500 500" viewBox="0 0 500 500" xmlns="http://www.w3.org/2000/svg">
    <g clip-rule="evenodd" fill="#ff5847" fill-rule="evenodd">
        <path
            d="m250 65.4c-100.2 0-181.7 82.8-181.7 184.6s81.5 184.6 181.7 184.6 181.7-82.8 181.7-184.6-81.5-184.6-181.7-184.6zm0 432.7c-134.7 0-244.2-111.3-244.2-248.1s109.5-248.1 244.2-248.1 244.3 111.3 244.3 248.1c-.1 136.8-109.6 248.1-244.3 248.1z" />
        <path
            d="m195.9 250 54.1 55 54.1-55-54.1-55zm54.1 131.7c-8.3 0-16.2-3.3-22.1-9.3l-98.4-99.9c-12.2-12.4-12.2-32.5 0-44.9l98.4-99.9c12.2-12.4 32-12.4 44.2 0l98.4 99.9c12.2 12.4 12.2 32.5 0 44.9l-98.4 99.9c-5.9 5.9-13.8 9.3-22.1 9.3z" />
    </g>
</svg>