<svg enable-background="new 0 0 500 500" viewBox="0 0 500 500" xmlns="http://www.w3.org/2000/svg">
    <g clip-rule="evenodd" fill-rule="evenodd">
        <path
            d="m250 0c138 0 250 111.9 250 250 0 138-112 250-250 250-138.1 0-250-112-250-250 0-138.1 111.9-250 250-250"
            fill="#fff" />
        <g fill="#5a5564">
            <path
                d="m407.7 104.9-13.7 13.8c67.9 74.3 67.9 188 0 262.3l13.7 13.7c75.6-82 75.6-208.1 0-290.1z" />
            <path
                d="m118.9 106.1c74.2-67.9 188.1-67.9 262.3 0l13.8-13.7c-81.9-75.6-208.2-75.6-290.1 0z" />
            <path
                d="m106.1 381.1c-67.8-74.2-67.8-187.9 0-262.2l-13.7-13.7c-75.6 81.9-75.6 208.2 0 290.1z" />
            <path
                d="m381.1 393.8c-74.2 67.9-188.1 67.9-262.3 0l-13.8 13.7c81.9 75.6 208.2 75.6 290.1 0z" />
        </g>
        <path
            d="m291.6 215c0 27.5-42.9 24.1-56.6 24.1v-48.4c13.7.1 56.6-4.2 56.6 24.3m11.2 75.1c0 30-51.4 26.6-67.8 26.6v-53.2c16.4 0 67.8-4.7 67.8 26.6m33.9-85.9c-2.7-28.6-27.4-38.2-58.7-41.2v-39.5h-24.1v38.7c-6.4 0-12.9 0-19.3.2v-38.9h-24v39.7h-15.4-33.6v25.9s17.8-.3 17.6 0c6.7-.7 12.8 4 13.7 10.6v108.8c-.1 2.3-1.2 4.4-2.9 5.9s-4 2.2-6.2 2.1c.3.2-17.6 0-17.6 0l-4.8 28.9h31.5 17.3v40.4h24.2v-39.8h19.3v39.6h24.2v-39.9c40.8-2.5 69.3-12.6 72.8-50.8 2.9-30.8-11.6-44.5-34.7-50 14-7.2 22.8-19.8 20.7-40.7"
            fill="#f09242" />
        <path
            d="m249.9 19.5c-127.2.1-230.2 103.2-230.2 230.4s103.1 230.3 230.4 230.3c127.2 0 230.3-103.1 230.4-230.3-.2-127.2-103.3-230.2-230.6-230.3zm0 480.5c-138 0-249.9-112-249.9-250 0-138.1 111.9-250 250-250 138 0 250 111.9 250 249.9-.2 138.1-112 249.9-250.1 250.1z"
            fill="#282138" />
    </g>
</svg>