<svg enable-background="new 0 0 500 500" viewBox="0 0 500 500" xmlns="http://www.w3.org/2000/svg">
    <path
        d="m88.8 141.1 119.5-119.5c22.4-22.4 58.7-22.4 81.1 0l120.5 120.4c7.6 7.6 7.4 19.9-.3 27.3l-61.8 58.8c-7.5 7.1-19.3 7-26.6-.3l-46.3-46.3c-14.5-14.5-38-14.5-52.5 0l-45.8 45.8c-7.4 7.4-19.3 7.5-26.8.2l-60.8-59.3c-7.6-7.4-7.7-19.6-.2-27.1z"
        fill="#3db6d3" />
    <path
        d="m432.8 194.8 54 47.4c11.3 9.9 11.8 27.2 1.3 37.8l-197.2 197.8c-21.8 21.8-57.1 22-79 .3l-201.2-199.3c-10.5-10.4-10.2-27.6.8-37.6l52.2-47.7c8.1-7.4 20.5-7.2 28.3.4l46.9 45.5c13.6 13.2 35.1 13.3 48.8.4l48.6-45.8c8.1-7.6 20.7-7.5 28.6.3l46.1 45.2c13.8 13.5 35.8 13.5 49.6-.1l44.2-43.7c7.5-7.7 19.8-8.1 28-.9z"
        fill="#e2e1e1" />
</svg>