<svg enable-background="new 0 0 500 500" viewBox="0 0 500 500" xmlns="http://www.w3.org/2000/svg">
    <path d="m483.3 154.4c-7.3-8.6-16.2-15.8-26.3-21.2l-23.4 52.5c3.9 2.8 7.5 6 10.7 9.5z"
        fill="#211e1f" />
    <path
        d="m318.6 441.1c-.5 1.7-2.2 2.7-3.9 2.2-1.1-.3-1.9-1.1-2.2-2.2l-172.1-384.5h58.6c25.2 0 48 14.9 58.2 37.9l58.4 132.8 49.6-104.9c10.5-22.2 32.9-36.4 57.5-36.4h55.1z"
        fill="#8247e5" />
    <g fill="#211e1f">
        <path
            d="m186.2 234.3 11-25.8 47.3 104.8-58.9 125.8c-.6 1.8-2.5 2.7-4.3 2.1-1-.4-1.7-1.1-2.1-2.1l-178.2-382.3h61.8c25.3.2 48.4 14.9 59.2 37.8l60.6 132z" />
        <path
            d="m429.8 224.6-11.4-3.8c-8.2-2.8-17.1-5.1-25.3-8.5-11.4-4.7-18.4-13.9-22.8-25.3-7.3-19-8.5-40.8-6.6-60.7h-.3c-29.4 10.4-50.9 34.2-50.9 70.5 0 42.1 26.3 64.2 63.3 76.6l16.4 5.7 13.6 4.7c16.8 5.7 25 10.7 25 21.8 0 14.2-12 20.2-32.3 20.2-8.8.1-17.5-1.7-25.6-5.1l-23.7 52.8c16.9 5.7 34.7 8.6 52.5 8.5 67.4 0 96.5-33.8 96.5-80.3-.3-35.7-17.4-60-68.4-77.1z" />
    </g>
</svg>