<svg enable-background="new 0 0 500 500" viewBox="0 0 500 500" xmlns="http://www.w3.org/2000/svg">
    <circle cx="250" cy="303.2" r="28.5" />
    <path
        d="m250 .2h-22.6v49.7h22.6c90 0 166.4 59.7 191.5 141.6h-441.1l-.4 58.5v.2c0 137.8 112.1 250 250 250s250-112.1 250-250c-.1-137.9-112.2-250-250-250zm0 450.2c-110.4 0-200.2-89.8-200.3-200.2l.1-9.1h36.8v12c0 90.1 73.3 163.5 163.5 163.5h21.9v-49.7h-22c-62.7 0-113.8-51-113.8-113.8v-12h313.9c.1 3 .2 6 .2 9 0 110.5-89.9 200.3-200.3 200.3z" />
</svg>