<svg enable-background="new 0 0 500 500" viewBox="0 0 500 500" xmlns="http://www.w3.org/2000/svg">
    <mask height="493.6" id="a" maskUnits="userSpaceOnUse" width="493.4" x="3.7" y="3">
        <path clip-rule="evenodd" d="m497.1 496.6h-493.4v-493.6h493.4z" fill="#fff"
            fill-rule="evenodd" />
    </mask>
    <path clip-rule="evenodd"
        d="m243.4 25.6c1.9-1.9 4.4-2.9 7-2.9s5.1 1 7 2.9l217.1 217.8c.6.6.9 1.3 1.3 2l-98.3 49.1c-3.8 1.9-8.4 1.2-11.4-1.8l-94.6-94.4c-5.6-5.6-13.1-8.7-21-8.7s-15.4 3.1-21 8.7l-94.6 94.4c-3 3-7.6 3.8-11.4 1.8l-98.5-49.1c.4-.7.7-1.4 1.3-2zm245 203.9-217-217.8c-5.6-5.6-13.1-8.7-21-8.7s-15.4 3.1-21 8.7l-217 217.7c-11.6 11.5-11.6 30.3 0 41.9l217 216.6c5.6 5.6 13.1 8.7 21 8.7s15.4-3.1 21-8.7l217-216.6c11.6-11.5 11.6-30.3 0-41.8z"
        fill-rule="evenodd" mask="url(#a)" />
</svg>