<svg enable-background="new 0 0 500 500" viewBox="0 0 500 500" xmlns="http://www.w3.org/2000/svg">
    <path
        d="m416.932 426.421c-18.791 19.186-40.89 33.747-65.198 44.684-64.154 28.866-129.349 30.576-194.686 4.551-44.318-17.653-80.303-46.515-107.786-85.653-32.286-45.977-47.333-97.274-44.447-153.215 3.062-59.345 25.23-111.122 65.817-154.784 1.916-2.061 4.006-3.959 6.014-5.931.582 1.549 1.246 3.069 1.736 4.644 20.838 66.865 41.66 133.734 62.486 200.603 6.534 20.979 13.07 41.956 19.555 62.776h60.95c8.74-32.34 17.398-64.377 26.055-96.413.54.052 1.081.104 1.621.155 8.752 32.105 17.504 64.211 26.228 96.215h60.945c9.447-33.807 18.799-67.271 28.15-100.734.486.034.972.067 1.458.101 17.035 61 34.069 122.001 51.102 183.001z"
        fill="#fbee06" />
    <path
        d="m116.493 44.389c10.412-8.767 22.678-14.413 34.991-19.618 63.977-27.043 128.646-27.994 192.548-1 63.303 26.741 108.434 72.742 132.953 137.184 28.875 75.891 20.963 148.94-20.83 218.418-.709 1.178-1.749 2.158-2.634 3.23-.408-.833-.958-1.626-1.203-2.504-16.529-59.28-33.028-118.568-49.546-177.851-3.47-12.453-7.004-24.888-10.4-36.946-18.82 0-36.732 0-54.614 0-11.442 39.451-21.074 78.932-33.983 119.548-9.743-41.292-18.973-80.405-28.232-119.648-18.248 0-36.15 0-54.474 0-9.255 39.088-18.448 77.912-27.641 116.735-.68-.057-1.359-.115-2.039-.172-.751-2.134-1.565-4.248-2.245-6.404-8.332-26.41-16.653-52.824-24.96-79.242-15.902-50.575-31.794-101.153-47.691-151.73z"
        fill="#fbee06" />
    <path
        d="m116.493 44.389c15.897 50.577 31.789 101.154 47.691 151.729 8.307 26.418 16.628 52.832 24.96 79.242.68 2.156 1.494 4.271 2.245 6.404.68.057 1.359.115 2.039.172 9.193-38.824 18.386-77.647 27.641-116.735h54.474c9.26 39.243 18.489 78.356 28.232 119.648 12.909-40.617 22.541-80.097 33.983-119.548h54.614c3.396 12.058 6.931 24.493 10.4 36.946 16.518 59.283 33.017 118.571 49.546 177.851.245.878.795 1.671 1.203 2.504-9.893 16.53-22.194 31.049-36.59 43.819-17.033-61-34.066-122.001-51.099-183.001-.486-.034-.972-.067-1.458-.101-9.351 33.463-18.703 66.927-28.15 100.734-20.216 0-40.244 0-60.945 0-8.724-32.004-17.476-64.109-26.228-96.215-.54-.052-1.081-.104-1.621-.155-8.658 32.037-17.316 64.074-26.055 96.413-20.225 0-40.29 0-60.95 0-6.486-20.819-13.022-41.797-19.555-62.776-20.825-66.869-41.648-133.738-62.486-200.603-.491-1.575-1.155-3.095-1.736-4.644 11.918-12.277 24.702-23.464 39.845-31.684z"
        fill="#020203" />
</svg>