<svg enable-background="new 0 0 500 500" viewBox="0 0 500 500" xmlns="http://www.w3.org/2000/svg">
    <g fill="#8202fc">
        <path
            d="m495.025 207.802c0 29.754.055 59.508-.023 89.261-.04 15.453-3.46 19.487-18.567 23.16-23.717 5.767-47.419 11.601-71.109 17.478-18.274 4.533-26.129-1.344-26.135-19.779-.019-60.208-.021-120.415-.011-180.623.003-14.918 2.954-18.372 17.994-22.078 24.702-6.087 49.378-12.282 74.052-18.483 14.39-3.616 23.507 2.776 23.649 17.603.299 31.151.091 62.307.091 93.461z" />
        <path
            d="m306.085 173.806c-3.547.813-5.902 1.335-8.248 1.893-20.385 4.852-29.664 16.132-29.794 37.158-.205 33.278-.08 66.557-.095 99.836-.002 3.813 0 7.626 0 12.356-19.701 4.737-38.851 9.996-58.289 13.773-11.933 2.318-19.444-4.943-19.471-17.335-.135-62.353-.03-124.707-.111-187.061-.013-10.333 4.918-16.228 14.791-18.66 26.409-6.505 52.766-13.224 79.179-19.711 11.661-2.864 21.502 3.845 21.871 15.974.614 20.266.167 40.565.167 61.777z" />
        <path
            d="m122.728 172.085c-5.268 1.437-9.907 2.805-14.597 3.964-20.004 4.946-28.666 15.598-28.841 36.709-.241 29.069-.065 58.141-.068 87.212-.001 8.372 0 16.743 0 26.277-18.172 4.368-35.883 9.298-53.881 12.706-11.403 2.159-19.162-4.939-19.202-16.659-.214-63.044-.132-126.09-.077-189.135.008-9.403 5.31-14.917 14.08-17.145 27.013-6.863 54.022-13.748 81.114-20.289 11.648-2.812 21.092 5.678 21.377 19.398.384 18.544.095 37.101.095 56.962z" />
    </g>
    <path
        d="m399.998 357.393c1.821 34.875 1.008 35.758-35.401 43.994-17.014 3.848-33.974 7.953-50.889 12.214-21.215 5.344-29.336-.865-29.339-22.998-.01-58.459.027-116.918.074-175.377.013-16.458 2.64-19.725 18.88-23.825 18.936-4.781 37.877-9.541 56.5-14.23 3.857 3.791 2.789 7.835 2.797 11.465.09 39.906.139 79.813.019 119.72-.104 34.438 4.652 40.911 37.359 49.037z"
        fill="#05fcda" />
    <path
        d="m172.465 178.738c1.994 6.413 1.053 12.707 1.067 18.935.089 40.288.166 80.576.247 120.864.046 23.022 10.263 34.436 33.517 37.486.988.13 1.936.558 3.985 1.172 0 8.123.683 16.496-.213 24.698-.737 6.756-5.766 11.067-12.384 12.777-20.968 5.419-41.97 10.712-62.975 15.988-6.433 1.616-12.85 3.556-19.397 4.407-13.206 1.717-20.669-4.813-21.044-18.239-.313-11.202-.056-22.42-.054-33.631.01-50.098.346-100.201-.22-150.293-.127-11.244 4.969-17.623 14.245-20.216 19.502-5.451 39.35-9.667 59.078-14.298 1.248-.292 2.68.207 4.148.35z"
        fill="#05fcda" />
</svg>