<svg enable-background="new 0 0 500 500" viewBox="0 0 500 500" xmlns="http://www.w3.org/2000/svg">
    <path
        d="m429.9 103-41.7 145.5c-5.5 19-9.8 38.3-13.1 57.9v.3h-1.3c-1.1-10.9-4.1-21.8-5.9-31l-45.9-172.7h-94l-45.7 172.6c-1.8 9.2-4.8 20.1-5.9 31h-1.3c0-.1 0-.3 0-.3-3.2-19.6-7.6-38.9-13.1-57.9l-41.5-145.4h-66.6l19.5 68.4h-71v49h84.9l13.9 48.7h-98.7v49.1h112.7l22.3 78.5h79.5l53.8-205.7c1.7-7.6 3.2-15.9 3.7-21.8h1.3c.4 5.7 2 14.1 3.7 21.8l53.8 205.7h79.5l83.7-293.7z"
        fill="#053f33" />
</svg>