<svg enable-background="new 0 0 500 500" viewBox="0 0 500 500" xmlns="http://www.w3.org/2000/svg">
    <linearGradient gradientUnits="userSpaceOnUse" id="a" x1="3.1666" x2="497.5671" y1="250.9816"
        y2="250.9816">
        <stop offset="0" stop-color="#eeb80b" />
        <stop offset="1" stop-color="#ea5811" />
    </linearGradient>
    <path
        d="m484.8 156.5-74.6-121.5-10.2-16.6h-19.4-259.8-19.3l-10.1 16.5-75.3 121.5-13 20.9 15.5 19.1 205.2 253.7 27 33.4 27-33.4 204.5-253.7 15.3-19zm-34.9 9.5h-113.6l-64.1-112.9h108.5zm-153.5 0h-91.9l46.4-80.2zm-175.6-112.9h108.9l-65.3 112.9h-113.4zm23.6 147.5-32.4 56.1-45.3-56.1zm106.4 227.7-115.5-142.7 49.1-84.9h131.6l48.8 86zm105.2-227.7h78.3l-45.9 57z"
        fill="url(#a)" />
</svg>