<svg enable-background="new 0 0 500 500" viewBox="0 0 500 500" xmlns="http://www.w3.org/2000/svg">
    <path
        d="m3.1 354.4c0-15.1 0-28.1 0-41.7 3.6-1.9 7.2-4.2 11.1-5.9 19.7-8.5 28.2-23 27-44.8-2.3-40.6 6.9-79 27.9-113.9 35-58.1 86.6-91.8 153.9-101.1 53.9-7.5 102.6 6.2 149.5 37.1-13.8 7-26 13.2-38.2 19.4-73.7-34.2-141.9-28.1-203.3 27-43.9 39.4-59.1 107.3-49 142.1 137.7-69.3 275.2-138.6 413.9-208.3v42c-163.4 82.3-327.3 164.8-492.8 248.1z" />
    <path
        d="m165.2 396.6c68.9 32.4 132.9 28.7 192.8-17.6 52-40.2 69.6-110.4 59.9-151.8-138 69.5-275.6 138.8-414.5 208.7 0-14.9 0-27.7 0-42.1 163.3-82.2 327.2-164.7 492.3-247.8v41.6c-2.3 1.3-5.2 3.2-8.4 4.5-21.7 8.8-30.6 24.3-29.1 48.1 2.3 38.1-6.4 74.3-25.4 107.4-36.2 62.8-90.7 98.4-163 106.2-51.4 5.5-97.9-8-142.6-37.8 13.6-7 25.9-13.2 38-19.4z" />
</svg>