<svg enable-background="new 0 0 500 500" viewBox="0 0 500 500" xmlns="http://www.w3.org/2000/svg">
    <linearGradient gradientTransform="matrix(1 0 0 -1 0 502.36)" gradientUnits="userSpaceOnUse"
        id="a" x1="142.0334" x2="365.8149" y1="330.9608" y2="237.2059">
        <stop offset="0" stop-color="#5f6ded" />
        <stop offset="1" stop-color="#49b9d9" />
    </linearGradient>
    <linearGradient gradientTransform="matrix(1 0 0 -1 0 502.36)" gradientUnits="userSpaceOnUse"
        id="b" x1="21.9081" x2="92.7192" y1="84.5916" y2="98.2023">
        <stop offset="0" stop-color="#5f6eed" />
        <stop offset="1" stop-color="#45c8d4" />
    </linearGradient>
    <linearGradient gradientTransform="matrix(1 0 0 -1 0 502.36)" gradientUnits="userSpaceOnUse"
        id="c" x1="20.9957" x2="85.408" y1="79.2241" y2="94.6024">
        <stop offset="0" stop-color="#578be5" />
        <stop offset="1" stop-color="#43ced3" />
    </linearGradient>
    <linearGradient gradientTransform="matrix(1 0 0 -1 0 502.36)" gradientUnits="userSpaceOnUse"
        id="d" x1="104.2886" x2="479.3083" y1="250.471" y2="146.1456">
        <stop offset="0" stop-color="#5788e6" />
        <stop offset="1" stop-color="#3fddcf" />
    </linearGradient>
    <linearGradient gradientTransform="matrix(1 0 0 -1 0 502.36)" gradientUnits="userSpaceOnUse"
        id="e" x1="408.6831" x2="94.1516" y1="122.1722" y2="214.407">
        <stop offset="0" stop-color="#4452cf" />
        <stop offset="1" stop-color="#0bd3b9" />
    </linearGradient>
    <g clip-rule="evenodd" fill-rule="evenodd">
        <path
            d="m179.5 64.6-126.4 231.3c-7.9 15.4-1.8 34.3 13.6 42.2 2.4 1.2 5 2.2 7.6 2.7 44 10.4 128-15.4 196.5 10.4s100.2 78.6 141.7 106.6c9.3 6.7 20.4 10.3 31.8 10.4h.2c2.4 0 4.6-.1 6.8-.4 10.6-1.3 20.6-5.7 28.7-12.6 4.6-4 8.5-8.8 11.6-14.1 10.2-16.7 10.6-37.5 1-54.5l-176-321.8c-20.7-37.8-68.2-51.7-106-31-13.2 7-24 17.7-31.1 30.8z"
            fill="url(#a)" />
        <path
            d="m94.9 385.8c-14.5-23.8-45.5-31.4-69.4-16.9-23.8 14.5-31.4 45.5-16.9 69.4 14.4 23.7 45.3 31.3 69.1 17 23.9-14.3 31.7-45.4 17.3-69.3 0 0-.1-.1-.1-.2z"
            fill="url(#b)" />
        <path
            d="m102.2 412.6c-.4 27.9-23.3 50.2-51.2 49.8-28-.4-50.3-23.3-49.9-51.2.2-13.1 5.4-25.5 14.6-34.8-13.1 23.4-5.3 42.4 4.1 49.5 14.5 11.1 50.4 8.8 82.4-13.3z"
            fill="url(#c)" />
        <path
            d="m90.3 299.1c-10.8 2.9-22-3.6-24.9-14.4-.5-1.7-.7-3.5-.7-5.2 0-2.6.5-5.1 1.4-7.5l-13.1 23.9c-7.9 15.4-1.8 34.3 13.7 42.2 2.4 1.2 4.9 2.1 7.6 2.7 44 10.4 128-15.4 196.5 10.4 95.5 35.9 120.6 123.1 180.7 116.7 30.2-3.9 51.5-31.5 47.6-61.6-.9-6.9-3.1-13.6-6.4-19.7l-80.4-146.5c-34.2-62.6-124-49.1-179.1-24.7s-117 75.9-142.9 83.7z"
            fill="url(#d)" />
        <path
            d="m60.4 282.4-7.4 13.5c-7.9 15.4-1.8 34.3 13.6 42.2 2.4 1.2 5 2.2 7.6 2.7 44 10.4 128-15.4 196.5 10.4 63.6 23.9 95.5 71.2 132.9 100.3 5.4 5 12.5 7.7 19.9 7.7 15.9 0 28.8-12.9 28.8-28.8 0-10.6-7.7-21.8-12.8-31-107.4-194-221.4-124.4-350.8-81.3-2.1.7-4.4 1-6.6.9-13.7-.1-24.7-11.2-24.7-24.8.1-4.1 1.1-8.2 3-11.8z"
            fill="url(#e)" />
    </g>
</svg>