<svg enable-background="new 0 0 500 500" viewBox="0 0 500 500" xmlns="http://www.w3.org/2000/svg">
    <g fill="#56b3ed">
        <path d="m484.4 497.9-234.9-56.6v-26.9l234.9 56.9z" />
        <path d="m484.4 441.3-234.9-56.6v-26.9l234.9 56.9z" />
        <path d="m484.4 383.7-234.9-56.7v-26.9l234.9 57z" />
        <path d="m248.7 200.4-234.9-56.6v-26.9l234.9 56.9z" />
        <path d="m248.7 143.8-234.9-56.7v-26.8l234.9 56.9z" />
        <path d="m248.7 86.1-234.9-56.6v-26.9l234.9 56.9z" />
    </g>
    <path d="m13.2 315 .3-30.7 471.1-226.6v30.5z" fill="#6835cf" />
    <path d="m13.2 379.7.3-30.7 471.1-226.6v30.4z" fill="#6835cf" />
    <path d="m13.2 443.1.3-30.8 471.1-226.6v30.5z" fill="#6835cf" />
</svg>