<svg enable-background="new 0 0 500 500" viewBox="0 0 500 500" xmlns="http://www.w3.org/2000/svg">
    <path
        d="m258.3 2.8v223.3c16.4 3.4 28.8 18 28.8 35.4 0 20-16.2 36.2-36.2 36.2s-36.2-16.2-36.2-36.2c0-17.4 12.3-31.9 28.7-35.4v-223.3l-218.3 361 226.8 132.7 223.8-132.7z"
        fill="#3c82b4" />
    <path
        d="m214.8 261.5c0-17.4 12.3-31.9 28.7-35.4v-223.3l-218.3 361 192.8-87.5c-2.1-4.5-3.2-9.5-3.2-14.8z"
        fill="#3c82b4" />
    <path
        d="m250.9 297.6c-14.7 0-27.3-8.8-33-21.4l-192.8 87.6 226.8 132.7-.8-198.9c-.1 0-.1 0-.2 0z"
        fill="#2d4b69" />
    <path d="m283.9 276.3c-5.6 12.6-18.2 21.3-32.9 21.4l.8 198.9 223.8-132.7z" fill="#142846" />
    <path d="m258.3 2.8v223.3c16.4 3.4 28.8 18 28.8 35.4 0 5.3-1.1 10.3-3.2 14.8l191.7 87.6z"
        fill="#1e3c64" />
</svg>