<svg enable-background="new 0 0 500 500" viewBox="0 0 500 500" xmlns="http://www.w3.org/2000/svg">
    <g fill="#151828">
        <path
            d="m31.7 282.8c0-20.7 0-41.4 0-62.1 0-3.1-.1-6.3.2-9.4 1.1-10.5 9.1-14.2 17.1-7.3 56.4 49.1 124.6 71.2 195.9 86.5 44.1 9.4 86.9 22.5 125.9 46 9 5.4 17.7 11.5 25.6 18.5 22.2 19.7 19.7 51.7-5.4 67.8-14.4 9.2-29.7 17.3-44.5 25.9-23.7 13.6-47.4 27.2-71.1 40.9-15.6 9-31.1 9.2-46.7.3-58.2-33.4-116.4-66.9-174.6-100.4-15.2-8.8-22.4-22.3-22.4-39.8.1-22.4 0-44.6 0-66.9z" />
        <path
            d="m470.3 216.4v69.1c0 5.2-.1 10.5-6 12.8-5.5 2.1-9.6-.7-13.6-4.3-35.5-31.2-77.1-51.8-121.8-65.4-32.8-10-66.4-17.2-99.6-25.9-40.6-10.6-79.6-25.2-114.1-49.9-9.3-6.6-17.8-14-21.9-25.3-7.1-19.8.4-40.2 20.3-52 25.9-15.3 52.1-30 78.1-45 10.8-6.2 21.8-12.2 32.4-18.8 18.3-11.4 35.8-10 54 .7 46.1 27 92.6 53.5 138.9 80.3 9.5 5.5 18.9 11 28.4 16.3 17 9.4 25.2 23.5 24.9 43-.3 21.4-.1 42.9 0 64.4z" />
    </g>
</svg>