<svg enable-background="new 0 0 500 500" viewBox="0 0 500 500" xmlns="http://www.w3.org/2000/svg">
    <path
        d="m110.6 382.8 14.9 14.9c23.4-12.1 49.9-19 78.1-19 51.7 0 98 23.1 129.2 59.5l59.6-59.6c-37.7-30.9-85.9-49.4-138.4-49.4-54.9.1-105 20.3-143.4 53.6z" />
    <path
        d="m171.2 443.4 41.3 41.3c20.4 20.4 53.5 20.4 73.9 0l41.6-41.7c-21.2-17.6-48.5-28.2-78.2-28.2-29.9 0-57.4 10.8-78.6 28.6z" />
    <path
        d="m208.8 178.9c105.7 0 201.1 43.8 269.1 114.2l6.2-6.2c20.4-20.4 20.4-53.5 0-73.9l-197.7-197.7c-20.4-20.4-53.5-20.4-73.9 0l-197.8 197.7c-8.3 8.3-13.2 18.8-14.7 29.6 59.6-40.2 131.5-63.7 208.8-63.7z" />
    <path
        d="m254 228.2c-82.9 0-158.5 31-216.1 81.9l15.5 15.5c42.8-30 94.9-47.6 151.2-47.6 79.1 0 150.1 34.9 198.4 90l62.2-62.2c-56.9-48.3-130.7-77.6-211.2-77.6z" />
</svg>