<svg enable-background="new 0 0 500 500" viewBox="0 0 500 500" xmlns="http://www.w3.org/2000/svg">
    <path
        d="m126.5 33.9-123.5 213.7 123.4 213.8h246.9l4.1-7 119.4-206.7-123.4-213.8zm23.5 28.3h182.9l-120.2 38c2.2 3.6 3.8 7.5 4.6 11.6l138.4-43.6 27.6 134.3c4-1.2 8.2-1.8 12.4-1.8l-23.2-111.2 87.8 152h-17.7c.2 2.1.3 4.1.3 6.2s-.1 4.2-.3 6.2h17.7l-90.7 157.2 25.4-116.3c-4.1-.1-8.2-.7-12.2-1.9l-29.9 136.9-135.4-45.3c-.7 4-2.1 8-3.9 11.6l110.1 36.9h-173.7l9.3-15.9c-3.9-1.5-7.6-3.4-10.9-5.9l-9.1 15.7-86.6-150 85.8 75.8c2.4-3.4 5.2-6.6 8.4-9.3l-108.1-95.4 112.1-99.4c-3-2.9-5.5-6.3-7.4-10l-91.5 81.2 87.3-151.4 12.9 22.5c3.2-2.8 6.7-5.1 10.6-6.8zm65.5 72.3c-1.5 3.9-3.6 7.5-6.2 10.8l143.8 83.1c1.7-3.8 3.9-7.3 6.6-10.5zm-46.4 24.4v174.7c1.9-.3 3.8-.4 5.7-.4 2.2 0 4.5.1 6.7.5v-174c-1 .1-2 .1-3 0-3.2 0-6.3-.4-9.4-1.1zm184.1 108.1-144 83.1c2.6 3.3 4.7 7 6.2 10.9l144.3-83.5c-2.6-3.3-4.8-6.8-6.5-10.5z"
        fill="#8d8fc6" />
    <path
        d="m178.6 80.8c-21.9-.1-39.6 17.6-39.7 39.4s17.6 39.6 39.4 39.7 39.6-17.6 39.7-39.4c0-.1 0-.1 0-.2 0-21.7-17.6-39.4-39.4-39.5zm0 12.5c15 0 27.1 12.2 27.1 27.1s-12.2 27.1-27.1 27.1-27.1-12.2-27.1-27.1c-.1-14.9 12-27.1 26.9-27.1z"
        fill="#579fd6" />
    <path
        d="m174.9 333.2c-24 0-43.5 19.4-43.5 43.4s19.4 43.5 43.4 43.5 43.5-19.4 43.5-43.4v-.1c-.1-23.9-19.5-43.3-43.4-43.4zm0 12.3c17.2 0 31.1 13.8 31.2 31 0 17.2-13.8 31.1-31 31.2s-31.1-13.8-31.2-31v-.1c-.1-17.1 13.8-31 31-31.1z"
        fill="#f27046" />
    <path
        d="m396.1 200.6c-26 0-47.1 21-47.2 47 0 26 21 47.1 47 47.2 26 0 47.1-21 47.2-47 0 0 0 0 0-.1-.1-26-21.1-47.1-47-47.1zm0 12.4c19.1 0 34.7 15.5 34.7 34.7 0 19.1-15.5 34.7-34.7 34.7-19.1 0-34.7-15.5-34.7-34.7-.1-19.1 15.3-34.6 34.4-34.7z"
        fill="#eb407a" />
</svg>