<svg enable-background="new 0 0 500 500" viewBox="0 0 500 500" xmlns="http://www.w3.org/2000/svg">
    <circle clip-rule="evenodd" cx="250" cy="249.5" fill="#fff" fill-rule="evenodd" r="250" />
    <path
        d="m385 134.8-19-19-41.4 41.4-39-39-19-19-17.1 17.1-149.6 149.6 19 19 39 39-42.6 42.6 19 19 42.4-42.4c21 18.8 48.7 30.3 79.2 30.3 65.6 0 118.7-53.1 118.7-118.7 0-30.4-11.4-58.2-30.3-79.2zm-249 132.9 132.5-132.5 39 39-132.4 132.5zm211.7-15c0 52.1-42.2 94.3-94.3 94.3-22.6 0-43.3-7.9-59.5-21.2l132.6-132.6c13.3 16.2 21.2 37 21.2 59.5z" />
</svg>