<svg enable-background="new 0 0 500 500" viewBox="0 0 500 500" xmlns="http://www.w3.org/2000/svg">
    <g fill="#009feb">
        <path
            d="m309.3 341.8-45.7-79.1c23.2-6.1 40.2-27.1 40.2-52.2 0-29.8-24.2-54-54-54s-54 24.2-54 54c0 25.3 17.4 46.6 41 52.4l-45.6 78.9z" />
        <path
            d="m249.6 95.2c50.1 0 94.7 23.9 123 61l-56.9 21.5c5 9.9 7.8 21 7.8 32.8 0 24.9-12.5 47.5-32.3 60.8l8.8 15.3 195.5-71.2c-16.9-120.8-120.5-213.7-245.9-213.7-97.8 0-182.4 56.6-222.9 138.8h113.6c28.1-28 66.7-45.3 109.3-45.3z" />
        <path
            d="m249.6 404.8c-48 0-91-22-119.4-56.4l44.1-16 .2-.3 34.8-60.3c-15-9.9-25.8-25-30.4-42.5l-173.6 65.3c21 115.8 122.4 203.7 244.3 203.7 98.1 0 183-56.9 223.3-139.6h-113.3c-28.1 28.4-67 46.1-110 46.1z" />
    </g>
</svg>