<svg enable-background="new 0 0 2000 2000" viewBox="0 0 2000 2000"
    xmlns="http://www.w3.org/2000/svg">
    <path
        d="m1988.729 1002.545c-.221 540.566-439.888 971.677-990.579 971.303-547.796-.371-987.452-435.092-987.15-976.07.3-538.205 445.73-971.573 997.796-970.777 540.638.78 980.153 438.326 979.933 975.544zm-217.802-13.455c-9.445-206.48-79.26-387.506-229.988-532.351-196.534-188.864-433.012-243.347-696.689-200.656-296.78 48.05-621.732 333.969-614.706 757.469 6.758 407.341 345.577 744.474 771.309 742.56 434.875-1.954 776.922-350.23 770.074-767.022z"
        fill="#030302" />
    <path
        d="m1770.878 989.111c6.896 416.771-335.15 765.047-770.025 767.001-425.732 1.913-764.552-335.219-771.309-742.56-7.026-423.5 317.927-709.419 614.706-757.469 263.677-42.691 500.155 11.792 696.689 200.656 150.727 144.845 220.542 325.871 229.939 532.372z"
        fill="#dea038" />
    <path
        d="m893.019 1464.525c-90.558 0-173.921 0-258.068 0-16.713-98.052-4.847-182.802 61.797-262.097 117.094-139.322 212.91-295.502 342.048-437.391-130.147 0-251.242 0-375.221 0 0-76.938 0-149.591 0-227.59h227.836c0-58.624 0-112.061 0-168.546h210.853v167.649h252.992c1.179 92.739 10.645 176.104-56.037 256.43-116.135 139.9-212.759 295.534-337.731 441.331h408.707v228.403c-87.723 0-174.644 0-265.792 0v163.482c-71.785 0-139.321 0-211.386 0 .002-52.144.002-104.233.002-161.671z"
        fill="#030302" />
</svg>