<svg enable-background="new -49 51 400 400" viewBox="-49 51 400 400"
    xmlns="http://www.w3.org/2000/svg">
    <path
        d="m1270 3385c-315-38-634-168-903-368-80-59-291-256-308-288-10-19-13-14 213-314 206-275 205-274 218-254 87 144 273 314 454 413l49 27 81-80c151-150 230-220 241-212 5 5 204 147 440 317 237 169 494 354 572 410 105 74 139 104 130 112-23 18-172 89-266 126-273 108-613 149-921 111zm1289-558c-231-169-388-291-389-299 0-3 29-27 64-52 130-93 254-233 346-394l43-74-44-46c-24-26-94-99-156-162l-112-115 139-185c534-708 707-934 716-937 6-2 32 38 57 89 368 747 208 1637-398 2220-44 43-84 78-90 78-5 0-85-55-176-123zm-2753-483c-228-462-265-968-105-1449 68-205 165-388 300-567 61-81 270-298 286-298 13 1 557 414 560 425 1 6-21 26-50 45-65 44-210 187-263 260-54 74-124 193-124 211 0 8 70 84 155 169s155 159 155 163c0 5-122 169-272 365-536 703-589 772-592 772-2 0-24-43-50-96zm2700-1559c-83-126-265-288-409-365l-65-34-166 158-166 158-132-98c-73-55-332-248-576-431l-444-332 123-60c482-233 1005-260 1494-79 203 75 388 180 555 315 77 62 250 236 250 251 0 13-415 572-424 572-2 0-20-25-40-55z"
        transform="matrix(.1 0 0 -.1 0 400)" />
</svg>