<svg width="94" height="45" viewBox="0 0 94 45" fill="none" xmlns="http://www.w3.org/2000/svg">
<g opacity="0.6">
<mask id="path-1-inside-1_2333_11567" fill="white">
<path fill-rule="evenodd" clip-rule="evenodd" d="M2 0C0.895431 0 0 0.89543 0 2V45H6H8V37.6957H88V45H94V21C94 18.7909 92.2091 17 90 17H6V2C6 0.895431 5.10457 0 4 0H2Z"/>
</mask>
<path d="M0 45H-0.375V45.375H0V45ZM8 45V45.375H8.375V45H8ZM8 37.6957V37.3207H7.625V37.6957H8ZM88 37.6957H88.375V37.3207H88V37.6957ZM88 45H87.625V45.375H88V45ZM94 45V45.375H94.375V45H94ZM6 17H5.625V17.375H6V17ZM-0.375 2V2.97727H0.375V2H-0.375ZM-0.375 4.93182V6.88636H0.375V4.93182H-0.375ZM-0.375 8.84091V10.7955H0.375V8.84091H-0.375ZM-0.375 12.75V14.7045H0.375V12.75H-0.375ZM-0.375 16.6591V18.6136H0.375V16.6591H-0.375ZM-0.375 20.5682V22.5227H0.375V20.5682H-0.375ZM-0.375 24.4773V26.4318H0.375V24.4773H-0.375ZM-0.375 28.3864V30.3409H0.375V28.3864H-0.375ZM-0.375 32.2955V34.25H0.375V32.2955H-0.375ZM-0.375 36.2045V38.1591H0.375V36.2045H-0.375ZM-0.375 40.1136V42.0682H0.375V40.1136H-0.375ZM-0.375 44.0227V45H0.375V44.0227H-0.375ZM0 45.375H0.75V44.625H0V45.375ZM2.25 45.375H3.75V44.625H2.25V45.375ZM5.25 45.375H6V44.625H5.25V45.375ZM6 45.375H6.5V44.625H6V45.375ZM7.5 45.375H8V44.625H7.5V45.375ZM8.375 45V44.087H7.625V45H8.375ZM8.375 42.2609V40.4348H7.625V42.2609H8.375ZM8.375 38.6087V37.6957H7.625V38.6087H8.375ZM8 38.0707H9V37.3207H8V38.0707ZM11 38.0707H13V37.3207H11V38.0707ZM15 38.0707H17V37.3207H15V38.0707ZM19 38.0707H21V37.3207H19V38.0707ZM23 38.0707H25V37.3207H23V38.0707ZM27 38.0707H29V37.3207H27V38.0707ZM31 38.0707H33V37.3207H31V38.0707ZM35 38.0707H37V37.3207H35V38.0707ZM39 38.0707H41V37.3207H39V38.0707ZM43 38.0707H45V37.3207H43V38.0707ZM47 38.0707H49V37.3207H47V38.0707ZM51 38.0707H53V37.3207H51V38.0707ZM55 38.0707H57V37.3207H55V38.0707ZM59 38.0707H61V37.3207H59V38.0707ZM63 38.0707H65V37.3207H63V38.0707ZM67 38.0707H69V37.3207H67V38.0707ZM71 38.0707H73V37.3207H71V38.0707ZM75 38.0707H77V37.3207H75V38.0707ZM79 38.0707H81V37.3207H79V38.0707ZM83 38.0707H85V37.3207H83V38.0707ZM87 38.0707H88V37.3207H87V38.0707ZM87.625 37.6957V38.6087H88.375V37.6957H87.625ZM87.625 40.4348V42.2609H88.375V40.4348H87.625ZM87.625 44.087V45H88.375V44.087H87.625ZM88 45.375H88.75V44.625H88V45.375ZM90.25 45.375H91.75V44.625H90.25V45.375ZM93.25 45.375H94V44.625H93.25V45.375ZM94.375 45V44H93.625V45H94.375ZM94.375 42V40H93.625V42H94.375ZM94.375 38V36H93.625V38H94.375ZM94.375 34V32H93.625V34H94.375ZM94.375 30V28H93.625V30H94.375ZM94.375 26V24H93.625V26H94.375ZM94.375 22V21H93.625V22H94.375ZM94.375 21C94.375 20.7083 94.3464 20.4229 94.2917 20.1466L93.556 20.2921C93.6012 20.5208 93.625 20.7574 93.625 21H94.375ZM93.6379 18.5689C93.3186 18.092 92.908 17.6814 92.4311 17.3621L92.0138 17.9854C92.4093 18.2501 92.7499 18.5907 93.0146 18.9862L93.6379 18.5689ZM90.8534 16.7083C90.5771 16.6536 90.2917 16.625 90 16.625V17.375C90.2426 17.375 90.4792 17.3988 90.7079 17.444L90.8534 16.7083ZM90 16.625H89V17.375H90V16.625ZM87 16.625H85V17.375H87V16.625ZM83 16.625H81V17.375H83V16.625ZM79 16.625H77V17.375H79V16.625ZM75 16.625H73V17.375H75V16.625ZM71 16.625H69V17.375H71V16.625ZM67 16.625H65V17.375H67V16.625ZM63 16.625H61V17.375H63V16.625ZM59 16.625H57V17.375H59V16.625ZM55 16.625H53V17.375H55V16.625ZM51 16.625H49V17.375H51V16.625ZM47 16.625H45V17.375H47V16.625ZM43 16.625H41V17.375H43V16.625ZM39 16.625H37V17.375H39V16.625ZM35 16.625H33V17.375H35V16.625ZM31 16.625H29V17.375H31V16.625ZM27 16.625H25V17.375H27V16.625ZM23 16.625H21V17.375H23V16.625ZM19 16.625H17V17.375H19V16.625ZM15 16.625H13V17.375H15V16.625ZM11 16.625H9V17.375H11V16.625ZM7 16.625H6V17.375H7V16.625ZM6.375 17V16.0625H5.625V17H6.375ZM6.375 14.1875V12.3125H5.625V14.1875H6.375ZM6.375 10.4375V8.5625H5.625V10.4375H6.375ZM6.375 6.6875V4.8125H5.625V6.6875H6.375ZM6.375 2.9375V2H5.625V2.9375H6.375ZM6.375 2C6.375 1.67866 6.31098 1.37133 6.19464 1.09078L5.50184 1.37807C5.58108 1.56915 5.625 1.77897 5.625 2H6.375ZM4.90922 -0.194636C4.62867 -0.310976 4.32134 -0.375 4 -0.375V0.375C4.22103 0.375 4.43085 0.418921 4.62193 0.498158L4.90922 -0.194636ZM4 -0.375H3.5V0.375H4V-0.375ZM2.5 -0.375H2V0.375H2.5V-0.375ZM2 -0.375C1.67866 -0.375 1.37133 -0.310976 1.09078 -0.194636L1.37807 0.498158C1.56915 0.418921 1.77897 0.375 2 0.375V-0.375ZM-0.194636 1.09078C-0.310976 1.37133 -0.375 1.67866 -0.375 2H0.375C0.375 1.77897 0.418921 1.56915 0.498158 1.37807L-0.194636 1.09078ZM0 45H-0.75V45.75H0V45ZM8 45V45.75H8.75V45H8ZM8 37.6957V36.9457H7.25V37.6957H8ZM88 37.6957H88.75V36.9457H88V37.6957ZM88 45H87.25V45.75H88V45ZM94 45V45.75H94.75V45H94ZM6 17H5.25V17.75H6V17ZM-0.75 2V2.97727H0.75V2H-0.75ZM-0.75 4.93182V6.88636H0.75V4.93182H-0.75ZM-0.75 8.84091V10.7955H0.75V8.84091H-0.75ZM-0.75 12.75V14.7045H0.75V12.75H-0.75ZM-0.75 16.6591V18.6136H0.75V16.6591H-0.75ZM-0.75 20.5682V22.5227H0.75V20.5682H-0.75ZM-0.75 24.4773V26.4318H0.75V24.4773H-0.75ZM-0.75 28.3864V30.3409H0.75V28.3864H-0.75ZM-0.75 32.2955V34.25H0.75V32.2955H-0.75ZM-0.75 36.2045V38.1591H0.75V36.2045H-0.75ZM-0.75 40.1136V42.0682H0.75V40.1136H-0.75ZM-0.75 44.0227V45H0.75V44.0227H-0.75ZM0 45.75H0.75V44.25H0V45.75ZM2.25 45.75H3.75V44.25H2.25V45.75ZM5.25 45.75H6V44.25H5.25V45.75ZM6 45.75H6.5V44.25H6V45.75ZM7.5 45.75H8V44.25H7.5V45.75ZM8.75 45V44.087H7.25V45H8.75ZM8.75 42.2609V40.4348H7.25V42.2609H8.75ZM8.75 38.6087V37.6957H7.25V38.6087H8.75ZM8 38.4457H9V36.9457H8V38.4457ZM11 38.4457H13V36.9457H11V38.4457ZM15 38.4457H17V36.9457H15V38.4457ZM19 38.4457H21V36.9457H19V38.4457ZM23 38.4457H25V36.9457H23V38.4457ZM27 38.4457H29V36.9457H27V38.4457ZM31 38.4457H33V36.9457H31V38.4457ZM35 38.4457H37V36.9457H35V38.4457ZM39 38.4457H41V36.9457H39V38.4457ZM43 38.4457H45V36.9457H43V38.4457ZM47 38.4457H49V36.9457H47V38.4457ZM51 38.4457H53V36.9457H51V38.4457ZM55 38.4457H57V36.9457H55V38.4457ZM59 38.4457H61V36.9457H59V38.4457ZM63 38.4457H65V36.9457H63V38.4457ZM67 38.4457H69V36.9457H67V38.4457ZM71 38.4457H73V36.9457H71V38.4457ZM75 38.4457H77V36.9457H75V38.4457ZM79 38.4457H81V36.9457H79V38.4457ZM83 38.4457H85V36.9457H83V38.4457ZM87 38.4457H88V36.9457H87V38.4457ZM87.25 37.6957V38.6087H88.75V37.6957H87.25ZM87.25 40.4348V42.2609H88.75V40.4348H87.25ZM87.25 44.087V45H88.75V44.087H87.25ZM88 45.75H88.75V44.25H88V45.75ZM90.25 45.75H91.75V44.25H90.25V45.75ZM93.25 45.75H94V44.25H93.25V45.75ZM94.75 45V44H93.25V45H94.75ZM94.75 42V40H93.25V42H94.75ZM94.75 38V36H93.25V38H94.75ZM94.75 34V32H93.25V34H94.75ZM94.75 30V28H93.25V30H94.75ZM94.75 26V24H93.25V26H94.75ZM94.75 22V21H93.25V22H94.75ZM94.75 21C94.75 20.6837 94.719 20.374 94.6596 20.0738L93.1881 20.3649C93.2286 20.5697 93.25 20.782 93.25 21H94.75ZM93.9495 18.3603C93.6029 17.8426 93.1574 17.3971 92.6397 17.0505L91.8052 18.297C92.16 18.5345 92.4655 18.84 92.703 19.1948L93.9495 18.3603ZM90.9262 16.3404C90.626 16.281 90.3163 16.25 90 16.25V17.75C90.218 17.75 90.4303 17.7714 90.6351 17.8119L90.9262 16.3404ZM90 16.25H89V17.75H90V16.25ZM87 16.25H85V17.75H87V16.25ZM83 16.25H81V17.75H83V16.25ZM79 16.25H77V17.75H79V16.25ZM75 16.25H73V17.75H75V16.25ZM71 16.25H69V17.75H71V16.25ZM67 16.25H65V17.75H67V16.25ZM63 16.25H61V17.75H63V16.25ZM59 16.25H57V17.75H59V16.25ZM55 16.25H53V17.75H55V16.25ZM51 16.25H49V17.75H51V16.25ZM47 16.25H45V17.75H47V16.25ZM43 16.25H41V17.75H43V16.25ZM39 16.25H37V17.75H39V16.25ZM35 16.25H33V17.75H35V16.25ZM31 16.25H29V17.75H31V16.25ZM27 16.25H25V17.75H27V16.25ZM23 16.25H21V17.75H23V16.25ZM19 16.25H17V17.75H19V16.25ZM15 16.25H13V17.75H15V16.25ZM11 16.25H9V17.75H11V16.25ZM7 16.25H6V17.75H7V16.25ZM6.75 17V16.0625H5.25V17H6.75ZM6.75 14.1875V12.3125H5.25V14.1875H6.75ZM6.75 10.4375V8.5625H5.25V10.4375H6.75ZM6.75 6.6875V4.8125H5.25V6.6875H6.75ZM6.75 2.9375V2H5.25V2.9375H6.75ZM6.75 2C6.75 1.62851 6.67592 1.27242 6.54103 0.947134L5.15544 1.52171C5.21613 1.66806 5.25 1.82913 5.25 2H6.75ZM5.05287 -0.541034C4.72758 -0.675924 4.37149 -0.75 4 -0.75V0.75C4.17087 0.75 4.33194 0.783869 4.47829 0.844555L5.05287 -0.541034ZM4 -0.75H3.5V0.75H4V-0.75ZM2.5 -0.75H2V0.75H2.5V-0.75ZM2 -0.75C1.62851 -0.75 1.27242 -0.675924 0.947134 -0.541033L1.52171 0.844556C1.66806 0.783869 1.82913 0.75 2 0.75V-0.75ZM-0.541034 0.947134C-0.675924 1.27242 -0.75 1.62851 -0.75 2H0.75C0.75 1.82913 0.783869 1.66806 0.844555 1.52171L-0.541034 0.947134Z" fill="#64748B" mask="url(#path-1-inside-1_2333_11567)"/>
</g>
<path d="M50.416 28.2H47.584V31H45.872V28.2H43.04V26.6H45.872V23.8H47.584V26.6H50.416V28.2Z" fill="#64748B"/>
</svg>
