<svg width="33" height="32" viewBox="0 0 33 32" fill="none" xmlns="http://www.w3.org/2000/svg">
    <circle opacity="0.1" cx="16.5" cy="16" r="16" fill="#18A0FB" />
    <path
        d="M22 15V11C22 10.8674 21.9473 10.7402 21.8536 10.6464C21.7598 10.5527 21.6326 10.5 21.5 10.5H11.5C11.3674 10.5 11.2402 10.5527 11.1464 10.6464C11.0527 10.7402 11 10.8674 11 11V15C10.6022 15 10.2206 15.158 9.93934 15.4393C9.65804 15.7206 9.5 16.1022 9.5 16.5V21.5H10.625V20.5H22.375V21.5H23.5V16.5C23.5 16.1022 23.342 15.7206 23.0607 15.4393C22.7794 15.158 22.3978 15 22 15ZM16 15H12.25V14C12.25 13.8674 12.3027 13.7402 12.3964 13.6464C12.4902 13.5527 12.6174 13.5 12.75 13.5H15.5C15.6326 13.5 15.7598 13.5527 15.8536 13.6464C15.9473 13.7402 16 13.8674 16 14V15ZM17 14C17 13.8674 17.0527 13.7402 17.1464 13.6464C17.2402 13.5527 17.3674 13.5 17.5 13.5H20.25C20.3826 13.5 20.5098 13.5527 20.6036 13.6464C20.6973 13.7402 20.75 13.8674 20.75 14V15H17V14Z"
        fill="#18A0FB" />
</svg>
