<svg width="59" height="55" viewBox="0 0 59 55" fill="none" xmlns="http://www.w3.org/2000/svg">
<path fill-rule="evenodd" clip-rule="evenodd" d="M45.9335 0.365259C45.483 0.515422 45.0366 0.685876 44.5942 0.872564L44.5445 0.89467C44.3797 0.967859 44.2204 1.03861 44.0544 1.11607V1.07143C44.054 0.853093 44.1203 0.639837 44.2444 0.460214C44.3685 0.280592 44.5446 0.143177 44.749 0.0663691C44.9533 -0.0104388 45.1763 -0.0229733 45.388 0.0304439C45.5997 0.083861 45.79 0.20068 45.9335 0.365259ZM6.14029 0.0815576C6.27028 0.0277133 6.40961 0 6.55031 0C6.83447 0 7.10699 0.112882 7.30792 0.313814C7.50886 0.514746 7.62174 0.787268 7.62174 1.07143V7.68669H5.47888V1.07143C5.47888 0.930726 5.5066 0.791402 5.56044 0.66141C5.61428 0.531419 5.6932 0.413305 5.7927 0.313814C5.89219 0.214323 6.0103 0.135402 6.14029 0.0815576ZM1.30682 55V0.767045C1.30682 0.59375 1.23798 0.427553 1.11544 0.305015C0.992901 0.182477 0.826704 0.113636 0.653409 0.113636C0.480114 0.113636 0.313917 0.182477 0.191379 0.305015C0.0688411 0.427553 0 0.59375 0 0.767045V55H1.30682ZM58.1981 30.5682V0.888799C58.1981 0.715504 58.1292 0.549307 58.0067 0.426769C57.8841 0.304231 57.7179 0.23539 57.5446 0.23539C57.3713 0.23539 57.2052 0.304231 57.0826 0.426769C56.9601 0.549307 56.8912 0.715504 56.8912 0.888799V30.5682V55H58.1981V30.5682ZM44.2655 41.5625H37.8734C36.6234 41.5625 37.8369 38.0154 43.328 35.7062C49.1599 33.2549 54.5536 34.6997 54.5536 36.9724C54.5536 37.9099 51.9075 41.5625 44.2655 41.5625ZM39.4927 7.65828H45.8847C53.5268 7.65828 56.1729 4.00568 56.1729 3.06818C56.1729 0.795455 50.7792 -0.649351 44.9472 1.80195C39.4521 4.10714 38.2427 7.65828 39.4927 7.65828ZM5.59656 16.388H11.6233V17.7963H5.59656V16.388ZM11.6233 49.5211H5.59656V51.7005H11.6233V49.5211ZM3.12904 49.513H3.38878V51.9278C3.30817 52.0025 3.24358 52.0928 3.19893 52.1933C3.15428 52.2938 3.1305 52.4022 3.12904 52.5122V55.0162H1.71265V16.4286C1.71265 16.2133 1.79816 16.0068 1.95038 15.8546C2.10261 15.7024 2.30906 15.6169 2.52433 15.6169H3.38878V18.0073C3.30817 18.0821 3.24358 18.1724 3.19893 18.2729C3.15428 18.3733 3.1305 18.4818 3.12904 18.5917V42.0414H3.38878V49.0422H3.12904V49.513ZM11.6233 43.47H5.59656V46.6315H11.6233V43.47ZM5.59656 48.888H11.6233V49.0544H5.59656V48.888ZM55.6696 8.13718H2.52433C2.30906 8.13718 2.10261 8.22269 1.95038 8.37492C1.79816 8.52714 1.71265 8.73359 1.71265 8.94886V14.3507C1.71265 14.5659 1.79816 14.7724 1.95038 14.9246C2.10261 15.0768 2.30906 15.1623 2.52433 15.1623H3.38878V10.0649C3.38878 9.77217 3.50509 9.49139 3.71211 9.28436C3.91913 9.07734 4.19991 8.96104 4.49268 8.96104C4.78545 8.96104 5.06623 9.07734 5.27325 9.28436C5.48027 9.49139 5.59658 9.77217 5.59658 10.0649V14.1234H11.6234V10.0649C11.6404 9.78321 11.7644 9.51862 11.9699 9.32517C12.1754 9.13172 12.447 9.02401 12.7293 9.02401C13.0115 9.02401 13.2831 9.13172 13.4887 9.32517C13.6942 9.51862 13.8181 9.78321 13.8352 10.0649V15.1461H55.6696C55.8849 15.1461 56.0914 15.0606 56.2436 14.9084C56.3958 14.7562 56.4813 14.5497 56.4813 14.3344V8.92857C56.476 8.71684 56.3882 8.51556 56.2365 8.3677C56.0849 8.21984 55.8814 8.13711 55.6696 8.13718ZM13.8352 15.6169H55.6696C55.8828 15.6158 56.0879 15.6986 56.2405 15.8474C56.3932 15.9963 56.4811 16.1992 56.4854 16.4123V55.0081H55.0812V52.5041C55.0812 52.2888 54.9956 52.0823 54.8434 51.9301C54.6912 51.7779 54.4847 51.6924 54.2695 51.6924H13.8352V49.513H55.0649V49.0666H13.8352V42.0576H55.0812V18.608C55.0812 18.3927 54.9956 18.1862 54.8434 18.034C54.6912 17.8818 54.4847 17.7963 54.2695 17.7963H13.8352V15.6169ZM12.7313 9.41153C12.558 9.41153 12.3918 9.48037 12.2692 9.60291C12.1467 9.72544 12.0779 9.89164 12.0779 10.0649V14.582H5.14605V10.0649C5.14605 9.89164 5.07721 9.72544 4.95467 9.60291C4.83213 9.48037 4.66594 9.41153 4.49264 9.41153C4.31935 9.41153 4.15315 9.48037 4.03061 9.60291C3.90807 9.72544 3.83923 9.89164 3.83923 10.0649V54.9838H5.14605V48.4375H12.0779V54.9838H13.3928V10.0649C13.3928 9.97844 13.3756 9.89281 13.3423 9.813C13.309 9.73319 13.2601 9.66079 13.1986 9.60001C13.137 9.53923 13.064 9.49127 12.9838 9.45892C12.9036 9.42656 12.8178 9.41045 12.7313 9.41153ZM12.0779 15.9375V19.9959H5.14605V15.9375H12.0779ZM5.14605 36.2297V32.1713H12.0779V36.2297H5.14605ZM12.0779 37.5812V41.6396H5.14605V37.5812H12.0779ZM5.14605 30.8442V26.7857H12.0779V30.8442H5.14605ZM5.14605 25.4261V21.3677H12.0779V25.4261H5.14605ZM5.14605 47.0942V43.0195H12.0779V47.0779L5.14605 47.0942ZM9.76467 0C9.48051 0 9.20798 0.112882 9.00705 0.313814C8.80612 0.514746 8.69324 0.787268 8.69324 1.07143V7.68669H10.8361V1.07143C10.8361 0.787268 10.7232 0.514746 10.5223 0.313814C10.3213 0.112882 10.0488 0 9.76467 0ZM12.2293 0.313814C12.4303 0.112882 12.7028 0 12.987 0C13.2711 0 13.5436 0.112882 13.7446 0.313814C13.9455 0.514746 14.0584 0.787268 14.0584 1.07143V7.68669H11.9155V1.07143C11.9155 0.787268 12.0284 0.514746 12.2293 0.313814ZM16.1931 0C15.909 0 15.6364 0.112882 15.4355 0.313814C15.2346 0.514746 15.1217 0.787268 15.1217 1.07143V7.68669H17.2646V1.07143C17.2646 0.787268 17.1517 0.514746 16.9507 0.313814C16.7498 0.112882 16.4773 0 16.1931 0ZM2.57846 0.313814C2.77939 0.112882 3.05192 0 3.33608 0C3.62024 0 3.89276 0.112882 4.09369 0.313814C4.29462 0.514746 4.40751 0.787268 4.40751 1.07143V7.68669H2.52439C2.43723 7.68656 2.35026 7.69471 2.26465 7.71104V1.07143C2.26465 0.787268 2.37753 0.514746 2.57846 0.313814ZM42.983 1.65584V1.07143C42.983 0.787268 42.8701 0.514746 42.6691 0.313814C42.4682 0.112882 42.1957 0 41.9115 0C41.6274 0 41.3548 0.112882 41.1539 0.313814C40.953 0.514746 40.8401 0.787268 40.8401 1.07143V3.08036C41.5126 2.54544 42.2294 2.06887 42.983 1.65584ZM54.3831 6.44075C54.1761 6.57467 53.9489 6.7086 53.7013 6.84659V7.68669H55.6696C55.7277 7.68251 55.786 7.68251 55.8441 7.68669V5.27597C55.4025 5.71799 54.9124 6.10872 54.3831 6.44075ZM34.7253 0.313814C34.9262 0.112882 35.1988 0 35.4829 0C35.7671 0 36.0396 0.112882 36.2405 0.313814C36.4415 0.514746 36.5544 0.787268 36.5544 1.07143V7.68669H34.4115V1.07143C34.4115 0.787268 34.5244 0.514746 34.7253 0.313814ZM38.1697 7.46753C37.9952 6.57062 38.5755 5.31656 39.7687 4.05844V1.07143C39.7687 0.787268 39.6558 0.514746 39.4549 0.313814C39.254 0.112882 38.9814 0 38.6973 0C38.4131 0 38.1406 0.112882 37.9397 0.313814C37.7387 0.514746 37.6259 0.787268 37.6259 1.07143V7.68669H38.2306C38.206 7.61489 38.1857 7.54171 38.1697 7.46753ZM18.6499 0.313814C18.8508 0.112882 19.1233 0 19.4075 0C19.692 -2.02586e-06 19.965 0.112751 20.1665 0.313567C20.3681 0.514383 20.4819 0.786895 20.483 1.07143V7.68669H18.3361V1.07143C18.3361 0.787268 18.4489 0.514746 18.6499 0.313814ZM32.2687 0C32.128 0 31.9887 0.0277133 31.8587 0.0815576C31.7287 0.135402 31.6106 0.214323 31.5111 0.313814C31.4116 0.413305 31.3327 0.531419 31.2788 0.66141C31.225 0.791402 31.1973 0.930726 31.1973 1.07143V7.68669H33.3401V1.07143C33.3401 0.787268 33.2272 0.514746 33.0263 0.313814C32.8254 0.112882 32.5529 0 32.2687 0ZM28.3099 0.320899C28.5065 0.12054 28.7738 0.00531544 29.0544 -4.49829e-07C29.1968 -0.00269791 29.3383 0.023023 29.4707 0.0756584C29.603 0.128294 29.7235 0.206787 29.8252 0.306548C29.9268 0.406309 30.0076 0.525336 30.0627 0.656668C30.1178 0.788001 30.1462 0.929002 30.1462 1.07143V7.68669H28.0033V1.07143C28.0032 0.790749 28.1133 0.521257 28.3099 0.320899ZM22.6259 0C22.3417 0 22.0692 0.112882 21.8683 0.313814C21.6673 0.514746 21.5544 0.787268 21.5544 1.07143V7.68669H23.6973V1.07143C23.6973 0.787268 23.5844 0.514746 23.3835 0.313814C23.1826 0.112882 22.91 0 22.6259 0ZM25.4263 0.0780369C25.5577 0.0249141 25.6984 -0.00161007 25.8401 5.21075e-07C26.1221 0.00320579 26.3915 0.117502 26.5898 0.318087C26.7881 0.518672 26.8993 0.789366 26.8993 1.07143V7.68669H24.7565V1.07143C24.7565 0.929697 24.7846 0.789371 24.8392 0.658579C24.8938 0.527788 24.9738 0.409129 25.0746 0.309477C25.1754 0.209825 25.2949 0.13116 25.4263 0.0780369Z" fill="#18A0FB"/>
</svg>
