<svg width="103" height="48" viewBox="0 0 103 48" fill="none" xmlns="http://www.w3.org/2000/svg">
<path d="M4.77201 44.534V48H0.588429V43.881C1.27287 44.3082 2.06357 44.5344 2.87038 44.534H4.77201ZM99.8894 44.534H97.9734V48H102.157V43.881C101.477 44.3056 100.691 44.5317 99.8894 44.534ZM102.76 27.7351V27.204C102.76 26.4428 102.457 25.7127 101.919 25.1744C101.381 24.6361 100.651 24.3337 99.8894 24.3337H2.87038C2.10911 24.3337 1.37902 24.6361 0.840716 25.1744C0.302415 25.7127 0 26.4428 0 27.204L0 27.7351H102.76ZM0 29.0124V40.2499C0 41.0112 0.302415 41.7413 0.840716 42.2796C1.37902 42.8179 2.10911 43.1203 2.87038 43.1203H99.8894C100.651 43.1203 101.381 42.8179 101.919 42.2796C102.457 41.7413 102.76 41.0112 102.76 40.2499V29.0124H0ZM43.8523 14.7179C38.4344 12.723 24.9149 12.723 19.5043 14.7179C16.9855 15.6436 12.1346 21.8436 14.9045 22.1378C24.1256 23.1281 38.5277 22.9344 48.4449 22.1378C51.2077 21.9154 46.3639 15.6436 43.8523 14.7179ZM89.6134 -1.92459e-05H13.132C9.80649 -1.97901e-05 6.61707 1.32055 4.26489 3.67137C1.91272 6.0222 0.590331 9.21086 0.588429 12.5364V23.5802C1.2749 23.1616 2.06652 22.9475 2.87038 22.9631H5.91299C6.64304 21.6928 7.69437 20.6368 8.96148 19.9013C10.2286 19.1657 11.6669 18.7763 13.132 18.7723H13.4621C13.8676 18.0768 14.3309 17.4167 14.8471 16.7989C15.4947 15.9972 16.2154 15.2572 16.9999 14.5887H13.132C10.0454 14.5849 7.06698 15.7252 4.77201 17.7892V12.5364C4.77391 10.3198 5.65531 8.19446 7.2227 6.62707C8.79009 5.05968 10.9154 4.17829 13.132 4.17639H89.6134C91.83 4.17829 93.9553 5.05968 95.5227 6.62707C97.0901 8.19446 97.9715 10.3198 97.9734 12.5364V17.7892C95.6784 15.7252 92.7 14.5849 89.6134 14.5887H84.8844C86.315 15.7636 87.5293 17.1794 88.4724 18.7723H89.6349C91.1033 18.7747 92.5452 19.1632 93.816 19.8988C95.0868 20.6343 96.1419 21.6911 96.8755 22.9631H99.9253C100.728 22.961 101.514 23.1875 102.193 23.6161V12.5364C102.192 10.8867 101.866 9.25344 101.233 7.73007C100.6 6.2067 99.6722 4.82316 98.5037 3.65867C97.3352 2.49418 95.9485 1.57161 94.423 0.943803C92.8974 0.315991 91.2631 -0.00473824 89.6134 -1.92459e-05ZM53.4466 16.7989C54.0942 15.9972 54.8149 15.2572 55.5993 14.5887H46.2706C47.7026 15.7621 48.9171 17.1782 49.8586 18.7723H52.0688C52.4694 18.0755 52.9305 17.4151 53.4466 16.7989ZM82.4518 14.7179C77.0339 12.723 63.5144 12.723 58.0966 14.7179C55.585 15.6436 50.734 21.8436 53.504 22.1378C62.7179 23.1281 77.1272 22.9344 87.0444 22.1378C89.8072 21.9154 84.9634 15.6436 82.4518 14.7179Z" fill="#18A0FB"/>
</svg>
