<svg width="12" height="12" viewBox="0 0 12 12" fill="none" xmlns="http://www.w3.org/2000/svg">
    <path fill-rule="evenodd" clip-rule="evenodd"
        d="M4.59149 0.294334C4.99873 0.0581387 5.50127 0.0581387 5.90851 0.294334L9.846 2.57808C10.2508 2.81288 10.5 3.24546 10.5 3.71344V5.43767C10.5 5.74833 10.2481 6.00017 9.9375 6.00017C9.62685 6.00017 9.375 5.74833 9.375 5.43767V4.25795L5.8125 6.3242V10.8752V11.1122C5.8125 11.6902 5.18621 12.051 4.68621 11.7609L0.653996 9.42228C0.249178 9.18746 0 8.75486 0 8.28693V3.71344C0 3.24546 0.249177 2.81288 0.653995 2.57808L4.59149 0.294334ZM5.34407 1.2675L8.8164 3.28143L5.25001 5.34992L1.68364 3.28143L5.15593 1.2675C5.21411 1.23375 5.28589 1.23375 5.34407 1.2675ZM1.125 8.28693V4.25795L4.6875 6.3242V10.4612L1.21843 8.44908C1.1606 8.41556 1.125 8.35376 1.125 8.28693ZM9.24615 11.05C9.03203 11.2751 9.04095 11.6311 9.26603 11.8452C9.4911 12.0594 9.84713 12.0504 10.0612 11.8254L11.845 9.95036C12.0517 9.73323 12.0517 9.39213 11.845 9.17501L10.0612 7.29997C9.84713 7.0749 9.4911 7.06602 9.26603 7.28015C9.04095 7.49427 9.03203 7.85028 9.24615 8.07536L10.126 9.00018H7.6875C7.37684 9.00018 7.125 9.25203 7.125 9.56268C7.125 9.87333 7.37684 10.1252 7.6875 10.1252H10.126L9.24615 11.05Z"
        fill="#2ADF9E" />
</svg>
