<svg width="173" height="150" viewBox="0 0 173 150" fill="none" xmlns="http://www.w3.org/2000/svg">
<g clip-path="url(#clip0_2952_12483)">
<path d="M157.033 67.1038L155.586 68.6868L88.2562 7.32967L87.6021 6.73335L86.1031 5.36692L85.356 4.68608L86.1031 3.86837L86.8025 3.10303L89.1678 5.2586L89.7981 5.8335L157.033 67.1038Z" fill="#191B2E"/>
<path d="M86.8491 4.68608L86.1032 5.36692L84.5756 6.75715L83.9178 7.35586L16.6189 68.6868L15.1724 67.1038L82.3616 5.87516L82.9896 5.30264L85.4037 3.10303L86.1032 3.86837L86.8491 4.68608Z" fill="#191B2E"/>
<path d="M169.219 53.0601H2.91221C1.30384 53.0601 0 54.3625 0 55.9691V147.091C0 148.698 1.30384 150 2.91221 150H169.219C170.827 150 172.131 148.698 172.131 147.091V55.9691C172.131 54.3625 170.827 53.0601 169.219 53.0601Z" fill="#191B2E"/>
<path opacity="0.05" d="M161.409 144.538H10.7242C8.06581 144.538 5.9043 142.735 5.9043 140.517V62.5417C5.9043 60.3254 8.06581 58.521 10.7242 58.521H161.409C164.068 58.521 166.229 60.3254 166.229 62.5417V140.517C166.225 142.735 164.068 144.538 161.409 144.538ZM10.7242 61.2515C9.87105 61.2515 9.17517 61.8311 9.17517 62.5417V140.517C9.17517 141.232 9.86866 141.808 10.7242 141.808H161.409C162.263 141.808 162.958 141.229 162.958 140.517V62.5417C162.958 61.8276 162.265 61.2515 161.409 61.2515H10.7242Z" fill="white"/>
<path opacity="0.5" fill-rule="evenodd" clip-rule="evenodd" d="M58.2883 91.4889C59.3592 92.8315 61.1334 93.5028 63.6111 93.5028C64.867 93.5012 65.9458 93.3231 66.8474 92.9684C67.6944 92.6458 68.4363 92.097 68.9922 91.3818C69.5496 90.6438 69.9517 89.8009 70.1743 88.9036C70.4342 87.8202 70.5574 86.7086 70.5413 85.5947V76.7319C70.5429 74.1689 70.0039 72.2264 68.9243 70.9044C67.8447 69.5824 66.0737 68.9214 63.6111 68.9214C62.3417 68.9222 61.2593 69.0928 60.3641 69.4332C59.5166 69.7409 58.7707 70.2763 58.2085 70.9806C57.6566 71.703 57.2595 72.5311 57.0419 73.4135C56.7825 74.5001 56.66 75.6149 56.6773 76.7319V85.5947C56.6805 88.1815 57.2175 90.1463 58.2883 91.4889ZM63.6111 90.2593C63.2374 90.2691 62.8653 90.2057 62.516 90.0725C62.242 89.9667 61.9976 89.7964 61.8035 89.5761C61.6117 89.343 61.4712 89.072 61.3912 88.781C61.2894 88.4609 61.2215 88.1309 61.1886 87.7967C61.1503 87.4063 61.1328 87.0141 61.1362 86.6219V75.7178C61.1306 75.2335 61.1596 74.7494 61.2232 74.2693C61.279 73.8902 61.3911 73.5215 61.5556 73.1754C61.7135 72.8391 61.9835 72.5681 62.3194 72.4089C62.7238 72.2273 63.1644 72.1405 63.6075 72.1554C64.0511 72.1388 64.4926 72.2256 64.8968 72.4089C65.2297 72.5711 65.4977 72.8414 65.657 73.1754C65.8273 73.52 65.9427 73.8891 65.999 74.2693C66.0626 74.7494 66.0916 75.2335 66.086 75.7178V86.6219C66.0891 87.0141 66.072 87.4062 66.0347 87.7967C66.0008 88.1309 65.9326 88.4608 65.831 88.781C65.75 89.0729 65.6074 89.344 65.4128 89.5761C65.2152 89.7936 64.9707 89.9633 64.6978 90.0725C64.3514 90.2054 63.9821 90.2689 63.6111 90.2593ZM44.8033 93.1101C45.6898 93.3872 46.6152 93.5198 47.5439 93.5029C48.4305 93.5169 49.3142 93.3978 50.1654 93.1493C50.8453 92.9529 51.4781 92.6204 52.0254 92.1721C52.5225 91.7372 52.9248 91.2048 53.2075 90.6081C53.5148 89.9695 53.7318 89.2913 53.8521 88.593C53.9839 87.7941 54.0465 86.9852 54.0392 86.1756V84.2092H49.821V86.3517L49.8211 86.4968C49.8212 86.8141 49.8213 87.0653 49.8151 87.2623C49.8079 87.4884 49.7924 87.7586 49.7638 88.074C49.7417 88.54 49.6103 88.9942 49.3801 89.4C49.2832 89.5878 49.1441 89.7507 48.9738 89.8761C48.7904 89.9973 48.5895 90.0897 48.378 90.1499C48.1123 90.2275 47.8363 90.2644 47.5594 90.2594C46.6514 90.2594 46.0235 89.9594 45.6684 89.3607C45.3133 88.762 45.1393 87.7586 45.1393 86.3482V76.1809C45.1393 75.7373 45.1461 75.3703 45.1596 75.0799C45.177 74.7609 45.2113 74.4431 45.2621 74.1277C45.299 73.8395 45.3793 73.5586 45.5004 73.2945C45.6116 73.0775 45.7528 72.8771 45.9198 72.6993C46.1035 72.5026 46.3375 72.3598 46.5966 72.2863C46.9087 72.1926 47.2336 72.1485 47.5594 72.1554H47.7918C48.7673 72.2125 49.3805 72.647 49.6316 73.4587C49.7567 73.8729 49.821 74.6811 49.821 75.8785V77.9175H54.0392V75.8619C54.0549 74.8878 53.9431 73.9159 53.7067 72.9707C53.5028 72.1828 53.1376 71.4456 52.6343 70.8056C52.1029 70.1625 51.4052 69.6771 50.617 69.4023C49.7662 69.0849 48.7418 68.9262 47.5439 68.9262C46.6167 68.9111 45.6926 69.0372 44.8033 69.2999C44.086 69.5153 43.4186 69.8705 42.8396 70.345C42.3052 70.8163 41.8779 71.3962 41.5861 72.0459C41.258 72.7602 41.0287 73.5158 40.9045 74.2919C40.7581 75.2082 40.6891 76.1351 40.6983 77.0629V85.4376C40.6922 86.3266 40.758 87.2146 40.8949 88.0931C41.0189 88.8579 41.2486 89.6018 41.5777 90.3034C41.8776 90.9564 42.3064 91.5422 42.8384 92.0257C43.4103 92.5203 44.0797 92.8897 44.8033 93.1101ZM73.7001 93.2136L74.0933 69.1999H78.588L82.0673 86.0744L85.6421 69.1999H90.0366L90.4429 93.2136H87.1423L86.8515 76.6689L83.3852 93.2136H80.8198L77.3118 76.6153L77.0508 93.2136H73.7001ZM94.1273 69.1999V93.2136H98.4515V69.1999H94.1273ZM102.147 93.2136V69.1999H105.162L111.055 82.7988V69.1999H114.679V93.2136H111.803L105.858 78.9149V93.2136H102.147ZM119.378 91.4044C120.377 92.8232 122.014 93.5326 124.288 93.5326C126.279 93.5326 127.637 92.6153 128.361 90.7807L128.681 93.2136H131.522V81.0182H124.984V83.8415H127.572V85.803C127.581 86.4304 127.541 87.0576 127.453 87.6789C127.383 88.1566 127.241 88.6209 127.031 89.056C126.855 89.4328 126.567 89.7464 126.207 89.9547C125.802 90.1631 125.351 90.2651 124.896 90.2511C123.89 90.2479 123.209 89.9118 122.853 89.2429C122.496 88.574 122.318 87.515 122.318 86.0661V76.3761C122.318 75.9798 122.321 75.6584 122.331 75.4072C122.34 75.1561 122.363 74.8657 122.395 74.5383C122.42 74.2665 122.469 73.9973 122.54 73.7337C122.61 73.5102 122.703 73.2944 122.817 73.0898C122.921 72.8852 123.072 72.7085 123.259 72.5744C123.458 72.4416 123.675 72.3386 123.903 72.2685C124.188 72.185 124.483 72.1448 124.779 72.1495C125.154 72.1388 125.528 72.1977 125.882 72.3232C126.149 72.4186 126.393 72.5709 126.596 72.7696C126.792 72.9977 126.929 73.2697 126.996 73.5623C127.085 73.8963 127.143 74.2378 127.17 74.5824C127.192 74.9264 127.205 75.3608 127.205 75.8917V77.1391H131.394V75.9643C131.394 73.6028 130.879 71.8352 129.845 70.6735C128.806 69.5102 127.098 68.9286 124.721 68.9286C123.419 68.927 122.317 69.1151 121.414 69.4928C120.557 69.8371 119.822 70.4274 119.3 71.1889C118.768 71.9846 118.396 72.8765 118.205 73.8147C117.97 74.9899 117.859 76.1869 117.877 77.3855V85.2055C117.878 87.9193 118.379 89.9856 119.378 91.4044Z" fill="#64748B"/>
<path fill-rule="evenodd" clip-rule="evenodd" d="M48.3493 132.358C45.3712 132.358 43.1469 131.541 41.6765 129.906C40.2061 128.272 39.4069 125.761 39.2791 122.374L44.9247 121.371C44.9509 123.366 45.2183 124.869 45.7267 125.88C46.2351 126.89 47.0179 127.396 48.0752 127.395C48.8363 127.395 49.3876 127.15 49.7292 126.662C50.0707 126.173 50.2411 125.542 50.2403 124.769C50.2403 123.507 49.9667 122.448 49.4193 121.592C48.872 120.736 47.9922 119.78 46.78 118.725L43.3387 115.749C42.5743 115.099 41.8682 114.384 41.2285 113.611C40.6931 112.948 40.2418 112.105 39.8748 111.081C39.4951 109.985 39.308 108.832 39.3219 107.673C39.3219 105.086 40.0889 103.08 41.6229 101.658C43.1568 100.235 45.2635 99.5179 47.943 99.5068C48.7753 99.4992 49.6057 99.5899 50.4167 99.777C51.09 99.9286 51.7381 100.176 52.3411 100.511C52.8739 100.818 53.3536 101.21 53.7614 101.67C54.1553 102.106 54.4931 102.589 54.7671 103.109C55.0408 103.646 55.2611 104.208 55.4249 104.788C55.5957 105.37 55.7247 105.964 55.8109 106.565C55.8904 107.125 55.9484 107.733 55.9849 108.39L50.3845 109.278C50.3583 108.621 50.3261 108.074 50.288 107.636C50.2455 107.178 50.1711 106.724 50.0652 106.276C49.9885 105.885 49.8411 105.512 49.6303 105.175C49.4413 104.903 49.1895 104.681 48.8962 104.527C48.5562 104.354 48.1741 104.281 47.794 104.315C47.0719 104.354 46.5159 104.631 46.1258 105.149C45.7244 105.689 45.5167 106.349 45.536 107.022C45.5298 107.554 45.598 108.083 45.7386 108.596C45.8805 109.079 46.1063 109.533 46.4059 109.938C46.6616 110.299 46.9427 110.641 47.2471 110.962C47.4989 111.219 47.8628 111.567 48.3386 112.005L51.7143 114.934C52.3785 115.521 53.0076 116.146 53.5982 116.807C54.1624 117.452 54.6703 118.143 55.1163 118.874C55.6016 119.666 55.9696 120.524 56.2089 121.422C56.4644 122.386 56.591 123.38 56.5855 124.377C56.5855 126.706 55.8284 128.618 54.3143 130.112C52.8002 131.606 50.8119 132.355 48.3493 132.358ZM68.9767 132.358C67.2354 132.358 65.7531 132.123 64.5297 131.654C63.3064 131.184 62.3313 130.48 61.6044 129.542C60.8553 128.565 60.3158 127.444 60.0196 126.25C59.6908 124.988 59.5263 123.501 59.5263 121.79V109.97C59.5263 108.259 59.6908 106.775 60.0196 105.52C60.3132 104.336 60.8532 103.227 61.6044 102.266C62.3321 101.352 63.3084 100.663 64.5333 100.199C65.7582 99.7361 67.2394 99.5052 68.9767 99.5068C72.3655 99.5068 74.7979 100.389 76.2739 102.153C77.7498 103.917 78.4878 106.523 78.4878 109.973V121.792C78.4878 125.242 77.7498 127.865 76.2739 129.661C74.7979 131.458 72.3655 132.357 68.9767 132.358ZM67.7196 127.425C68.1164 127.594 68.5453 127.675 68.9767 127.663C69.4107 127.674 69.8422 127.593 70.2421 127.425C70.5636 127.289 70.8491 127.081 71.0762 126.816C71.2984 126.53 71.4605 126.201 71.5529 125.851C71.6647 125.476 71.7393 125.091 71.7757 124.701C71.8083 124.335 71.8242 123.894 71.8234 123.379V108.387C71.8234 107.872 71.8075 107.431 71.7757 107.065C71.7407 106.682 71.666 106.303 71.5529 105.935C71.4597 105.594 71.2975 105.275 71.0762 104.999C70.8478 104.74 70.5622 104.538 70.2421 104.409C69.8413 104.244 69.4104 104.163 68.9767 104.171C68.5456 104.162 68.1173 104.243 67.7196 104.409C67.4063 104.539 67.1282 104.741 66.9081 104.999C66.6923 105.281 66.5373 105.606 66.4529 105.951C66.3479 106.32 66.2769 106.698 66.2408 107.08C66.2087 107.438 66.192 107.878 66.192 108.39V123.375C66.192 123.89 66.2083 124.331 66.2408 124.698C66.2769 125.086 66.3479 125.471 66.4529 125.847C66.5386 126.196 66.6933 126.525 66.9081 126.813C67.127 127.076 67.4051 127.283 67.7196 127.419V127.425ZM87.284 131.654C88.5082 132.123 89.9901 132.358 91.7298 132.358C95.1202 132.357 97.553 131.458 99.0282 129.661C100.503 127.864 101.241 125.242 101.241 121.792V109.973C101.242 106.523 100.504 103.917 99.0282 102.153C97.5522 100.389 95.1194 99.5067 91.7298 99.5067C89.9901 99.5091 88.5082 99.742 87.284 100.205C86.0599 100.669 85.0836 101.358 84.3551 102.272C83.6036 103.233 83.0633 104.342 82.7691 105.526C82.4411 106.781 82.277 108.265 82.277 109.976V121.796C82.2778 123.507 82.4419 124.994 82.7691 126.256C83.0657 127.45 83.6056 128.571 84.3551 129.548C85.0836 130.482 86.0599 131.184 87.284 131.654ZM91.7298 127.663C91.2988 127.675 90.8703 127.594 90.4739 127.424V127.419C90.1569 127.283 89.8764 127.075 89.6552 126.812C89.4413 126.523 89.287 126.195 89.2013 125.846C89.0962 125.47 89.0252 125.085 88.9892 124.696C88.9558 124.326 88.9403 123.889 88.9403 123.374V108.389C88.9403 107.877 88.9558 107.436 88.9892 107.079C89.0252 106.697 89.0962 106.319 89.2013 105.95C89.2858 105.605 89.4403 105.281 89.6552 104.997C89.8759 104.74 90.1543 104.538 90.4679 104.408C90.8652 104.242 91.2931 104.161 91.7238 104.17C92.1579 104.162 92.5892 104.243 92.9905 104.408C93.3104 104.538 93.5959 104.739 93.8246 104.997C94.0454 105.274 94.2076 105.593 94.3012 105.934C94.4158 106.302 94.4925 106.681 94.53 107.065C94.5617 107.431 94.5776 107.872 94.5776 108.387V123.379C94.5776 123.894 94.5617 124.335 94.53 124.701C94.493 125.091 94.4184 125.476 94.3071 125.851C94.2143 126.201 94.0522 126.529 93.8305 126.816C93.6031 127.08 93.3176 127.289 92.9964 127.424C92.596 127.593 92.1642 127.674 91.7298 127.663ZM105.514 131.927V99.909H110.057L117.207 116.536V99.9102H122.619V131.928H118.27L111.081 114.239V131.927H105.514ZM126.818 126.269V131.927H132.521V126.269H126.818ZM126.896 99.9638L128.654 124.126H130.745L132.853 99.9638H126.896Z" fill="#CBD5E1"/>
<path opacity="0.4" d="M156.309 72.1338C158.268 72.1338 159.855 70.5479 159.855 68.5916C159.855 66.6352 158.268 65.0493 156.309 65.0493C154.351 65.0493 152.763 66.6352 152.763 68.5916C152.763 70.5479 154.351 72.1338 156.309 72.1338Z" fill="#CBD5E1"/>
<path opacity="0.2" d="M159.264 68.5915C159.265 69.1333 159.116 69.6647 158.834 70.1275C158.552 70.5902 158.148 70.9665 157.666 71.215C157.184 71.4635 156.643 71.5746 156.102 71.5362C155.561 71.4977 155.041 71.3112 154.599 70.9971C154.216 70.7236 153.903 70.3627 153.687 69.9444C153.47 69.5261 153.357 69.0624 153.355 68.5915C153.356 67.8089 153.668 67.0587 154.222 66.5053C154.776 65.9519 155.527 65.6406 156.311 65.6397C156.924 65.6384 157.522 65.83 158.02 66.1872C158.291 66.3777 158.527 66.6132 158.718 66.8835C159.075 67.3814 159.266 67.979 159.264 68.5915Z" fill="#CBD5E1"/>
<path d="M158.717 66.8833L154.6 70.9969C154.33 70.8056 154.094 70.5697 153.903 70.2994L158.02 66.187C158.291 66.3775 158.527 66.6131 158.717 66.8833Z" fill="#606576"/>
<path opacity="0.4" d="M15.8218 72.1338C17.7802 72.1338 19.3679 70.5479 19.3679 68.5916C19.3679 66.6352 17.7802 65.0493 15.8218 65.0493C13.8633 65.0493 12.2756 66.6352 12.2756 68.5916C12.2756 70.5479 13.8633 72.1338 15.8218 72.1338Z" fill="#CBD5E1"/>
<path opacity="0.2" d="M18.7767 68.5915C18.7772 69.1333 18.6283 69.6647 18.3463 70.1275C18.0644 70.5902 17.6603 70.9665 17.1784 71.215C16.6965 71.4635 16.1554 71.5746 15.6144 71.5362C15.0734 71.4977 14.5535 71.3112 14.1117 70.9971C13.728 70.7236 13.4151 70.3627 13.1987 69.9444C12.9824 69.5261 12.8689 69.0624 12.8677 68.5915C12.8686 67.8089 13.1803 67.0587 13.7342 66.5053C14.2882 65.9519 15.0393 65.6406 15.8228 65.6397C16.4361 65.6384 17.0343 65.83 17.5327 66.1872C17.8032 66.3777 18.039 66.6132 18.2298 66.8835C18.5869 67.3814 18.7783 67.979 18.7767 68.5915Z" fill="#CBD5E1"/>
<path d="M18.2297 66.8833L14.1128 70.9969C13.8425 70.8056 13.6068 70.5697 13.4158 70.2994L17.5327 66.187C17.8032 66.3775 18.039 66.6131 18.2297 66.8833Z" fill="#606576"/>
<path d="M89.6123 3.54223C89.6134 4.14289 89.4603 4.73381 89.1678 5.2586C89.0963 5.38921 89.0167 5.51523 88.9295 5.63591C88.5868 6.1054 88.1327 6.4825 87.608 6.73334C87.4634 6.80425 87.3136 6.86432 87.16 6.91307C86.4526 7.14319 85.6904 7.14319 84.983 6.91307C84.2702 6.68693 83.6482 6.23951 83.2076 5.63591C83.1288 5.52888 83.056 5.41762 82.9895 5.30264C82.7192 4.83161 82.561 4.30484 82.527 3.763C82.493 3.22116 82.5841 2.67876 82.7933 2.1777C83.0025 1.67663 83.3242 1.23031 83.7336 0.8732C84.143 0.516092 84.629 0.257757 85.1542 0.118147C85.6795 -0.021462 86.2298 -0.0386092 86.7627 0.0680304C87.2956 0.17467 87.7968 0.402242 88.2277 0.73317C88.6585 1.0641 89.0075 1.48952 89.2476 1.97659C89.4876 2.46366 89.6124 2.99933 89.6123 3.54223Z" fill="#1E293B"/>
</g>
<defs>
<clipPath id="clip0_2952_12483">
<rect width="172.131" height="150" fill="white"/>
</clipPath>
</defs>
</svg>
