<svg width="12" height="12" viewBox="0 0 12 12" fill="none" xmlns="http://www.w3.org/2000/svg">
    <path fill-rule="evenodd" clip-rule="evenodd"
        d="M7.1888 0.38952C6.48136 -0.12984 5.51865 -0.12984 4.8112 0.38952L4.11553 0.900225C4.00072 0.984517 3.86722 1.03981 3.72643 1.0614L2.8734 1.19218C2.00592 1.32518 1.32518 2.00592 1.19218 2.8734L1.0614 3.72643C1.03981 3.86722 0.984517 4.00072 0.900225 4.11553L0.38952 4.8112C-0.12984 5.51865 -0.12984 6.48135 0.38952 7.1888L0.900225 7.88445C0.984517 7.99927 1.03981 8.13277 1.0614 8.27355L1.19218 9.1266C1.32518 9.99405 2.00592 10.6748 2.8734 10.8078L3.72643 10.9386C3.86722 10.9602 4.00072 11.0155 4.11553 11.0998L4.8112 11.6104C5.51865 12.1298 6.48135 12.1298 7.1888 11.6104L7.88445 11.0998C7.99927 11.0155 8.13277 10.9602 8.27355 10.9386L9.1266 10.8078C9.99405 10.6748 10.6748 9.99405 10.8078 9.1266L10.9386 8.27355C10.9602 8.13277 11.0155 7.99927 11.0998 7.88445L11.6104 7.1888C12.1298 6.48135 12.1298 5.51865 11.6104 4.8112L11.0998 4.11553C11.0155 4.00072 10.9602 3.86722 10.9386 3.72643L10.8078 2.8734C10.6748 2.00592 9.99405 1.32518 9.1266 1.19218L8.27355 1.0614C8.13277 1.03981 7.99927 0.984517 7.88445 0.900225L7.1888 0.38952ZM5.47695 1.29638C5.78821 1.06787 6.21178 1.06787 6.52305 1.29638L7.2187 1.80709C7.47967 1.99867 7.78305 2.12434 8.10307 2.1734L8.95612 2.30419C9.3378 2.3627 9.63727 2.66221 9.69577 3.04389L9.82657 3.89692C9.87562 4.21692 10.0013 4.52032 10.1929 4.78129L10.7036 5.47695C10.9321 5.78821 10.9321 6.21178 10.7036 6.52305L10.1929 7.2187C10.0013 7.47967 9.87562 7.78305 9.82657 8.10307L9.69577 8.95612C9.63727 9.3378 9.3378 9.63727 8.95612 9.69577L8.10307 9.82657C7.78305 9.87562 7.47967 10.0013 7.2187 10.1929L6.52305 10.7036C6.21178 10.9321 5.78821 10.9321 5.47695 10.7036L4.78129 10.1929C4.52032 10.0013 4.21692 9.87562 3.89692 9.82657L3.04389 9.69577C2.66221 9.63727 2.3627 9.3378 2.30419 8.95612L2.1734 8.10307C2.12434 7.78305 1.99867 7.47967 1.80709 7.2187L1.29638 6.52305C1.06787 6.21178 1.06787 5.78821 1.29638 5.47695L1.80709 4.78129C1.99867 4.52032 2.12434 4.21692 2.1734 3.89692L2.30419 3.04389C2.3627 2.66221 2.66221 2.3627 3.04389 2.30419L3.89692 2.1734C4.21692 2.12434 4.52032 1.99867 4.78129 1.80709L5.47695 1.29638ZM8.46022 5.08525C8.6799 4.86558 8.6799 4.50942 8.46022 4.28975C8.24055 4.07008 7.88445 4.07008 7.66477 4.28975L5.25 6.7045L4.33525 5.78975C4.11558 5.57008 3.75942 5.57008 3.53975 5.78975C3.32008 6.00942 3.32008 6.36558 3.53975 6.58525L4.85225 7.89772C5.07192 8.1174 5.42808 8.1174 5.64775 7.89772L8.46022 5.08525Z"
        fill="#FC476A" />
</svg>
