<svg width="89" height="80" viewBox="0 0 89 80" fill="none" xmlns="http://www.w3.org/2000/svg">
    <path
        d="M74.6397 35.4055L85.2172 45.4324C86.1143 46.2841 87.0045 47.1497 87.9225 47.9945C88.7222 48.7285 88.7292 48.8739 87.7208 49.3794C86.1561 50.148 84.5705 50.8682 83.0057 51.6299C80.4396 52.8763 77.8804 54.1574 75.3004 55.39C75.0774 55.4607 74.886 55.6065 74.7591 55.8023C74.6323 55.9981 74.5777 56.2318 74.6049 56.4633C74.6467 58.8453 74.4937 61.2482 74.6953 63.6233C74.7963 64.2131 74.6784 64.8193 74.3636 65.3289C74.0489 65.8386 73.5587 66.2168 72.9846 66.3932C67.7619 68.7198 62.5531 71.0811 57.3165 73.387C52.4902 75.5198 47.6222 77.5833 42.7959 79.723C42.3618 79.9497 41.8695 80.0418 41.3825 79.9875C40.8954 79.9332 40.4358 79.735 40.0628 79.4184C30.5725 72.7523 21.1076 66.0354 11.6683 59.2677C11.1374 58.9575 10.7067 58.5026 10.427 57.9566C10.1473 57.4106 10.0302 56.7964 10.0897 56.1863C10.2009 53.8042 10.0897 51.4083 10.0897 49.0193C10.0998 48.8037 10.0591 48.5888 9.97099 48.3916C9.88285 48.1944 9.74965 48.0205 9.58201 47.8837C6.83505 45.4254 4.06723 42.9326 1.1951 40.3843C4.17155 36.2296 6.80724 31.8878 10.2357 27.92C8.61536 25.4964 6.98109 23.0728 5.36769 20.6007C3.83079 18.3849 2.34256 16.1551 0.896062 13.8977C0.20063 12.8452 0.36058 12.5128 1.64017 12.0627C5.10343 10.8301 8.58059 9.61137 12.0717 8.40649C20.2036 5.63665 28.3401 2.8668 36.4813 0.0969608C37.1003 -0.117702 37.2811 0.214679 37.4967 0.609382C39.1031 3.55927 40.6957 6.50915 42.316 9.45211C43.2618 11.1763 44.3189 12.8452 45.2021 14.7148C46.8433 11.945 48.6027 9.41748 50.2996 6.82076C51.7183 4.59796 53.3525 2.54135 54.7017 0.29085C55.0355 -0.263119 55.3554 0.152358 55.6544 0.332397C59.3263 2.58982 63.0051 4.84724 66.6631 7.11159C72.9776 11.0378 79.4451 14.7287 85.6832 18.7657C86.1908 19.0981 86.2534 19.2989 85.9127 19.7767C82.1921 24.984 78.5619 30.2536 74.6397 35.4055Z"
        fill="#1E293B" />
    <path
        d="M44.6596 15.9266L11.1328 28.3424C11.2883 28.4008 11.4393 28.4703 11.5848 28.5502C20.4215 34.63 29.1839 40.809 37.8722 47.0873C38.0301 47.2127 38.2208 47.2905 38.4217 47.3113C38.6226 47.3322 38.8252 47.2953 39.0057 47.2051C40.2714 46.7203 41.5858 46.3533 42.8167 45.8201C44.3953 45.1277 45.814 45.1277 47.1214 46.3395C47.308 46.5026 47.5451 46.5971 47.7931 46.6072C48.0412 46.6173 48.2852 46.5423 48.4845 46.3949C54.6182 43.6989 60.7565 41.0237 66.8995 38.3693C69.1319 37.4067 71.3781 36.4719 73.7148 35.4886C64.0761 29.0834 54.7434 22.3734 45.1255 15.7812C45.1951 24.2985 45.821 32.4972 45.7653 40.7098C45.2646 32.4903 44.896 24.2708 44.6596 15.9266Z"
        fill="#181722" />
    <path
        d="M41.162 50.8543C41.0299 51.0344 40.9116 51.1937 40.8073 51.3668C37.81 56.1378 34.2007 60.4796 31.2104 65.2575C30.6123 66.2062 30.4384 66.1785 29.5761 65.4237L13.7967 51.5745C12.8579 50.7436 11.9121 49.9264 10.8064 48.9639C10.8064 51.1313 10.8968 53.0702 10.8064 55.0022C10.6812 57.135 11.8078 58.5337 13.3586 59.6417C17.8233 62.8339 22.3505 65.9431 26.8361 69.1145C31.5163 72.4176 36.1688 75.7552 40.8421 79.0791C41.1272 79.2799 41.3498 79.543 41.8435 79.3145C51.1762 75.042 60.6202 71.005 70.0363 66.9471C71.2563 66.486 72.4223 65.8939 73.5135 65.1814C73.7499 65.0082 74.0003 64.8836 74.0003 64.4889C74.0003 61.7191 74.0003 58.9492 74.0003 56.1794C73.641 56.1961 73.2938 56.3137 72.9989 56.5187L56.079 64.7451C54.8411 65.3476 54.403 65.2298 53.4781 64.2327C49.3611 59.794 45.1885 55.3969 41.162 50.8543Z"
        fill="#191B2E" />
    <path
        d="M54.7431 64.5027L87.4284 48.7631C87.0581 48.18 86.5872 47.6666 86.0376 47.2466C82.157 43.7427 78.1514 40.3705 74.5142 36.6035C74.0344 36.1049 73.5824 36.1949 73.0191 36.4511C68.3944 38.5285 63.7768 40.6059 59.1104 42.6833C53.3453 45.2315 47.5662 47.7382 41.7246 50.3004C46.1615 55.0022 50.5218 59.7247 54.7431 64.5027Z"
        fill="#191B2E" />
    <path
        d="M45.793 15.4627C55.3065 21.9718 64.7365 28.3286 74.0414 34.9139C77.6924 29.5681 81.5382 24.4716 85.2866 19.3127C75.1889 13.2468 65.3207 6.92462 55.2161 0.990234C52.0797 5.82361 48.7555 10.5046 45.793 15.4627Z"
        fill="#191B2E" />
    <path
        d="M44.5829 15.2342C44.5412 15.1511 44.5134 15.0403 44.4577 14.9433C41.8777 10.4285 39.4854 5.8444 37.107 1.23953C36.801 0.692488 36.4603 0.734035 35.9665 0.907151C30.0182 2.99838 24.0653 5.07577 18.1078 7.1393C12.4609 9.08511 6.81399 11.0032 1.10449 12.956C4.24785 17.9417 7.76673 22.6504 10.8892 27.6846L44.5829 15.2342Z"
        fill="#191B2E" />
    <path
        d="M40.7858 49.9749L35.271 46.1317C27.2248 40.4466 19.1578 34.7754 11.209 28.9379C10.6457 28.5294 10.3606 28.6887 9.98507 29.1595C8.01004 31.6247 6.32014 34.2976 4.45639 36.8389C3.64273 37.9469 2.85689 39.0756 2.08496 40.1627C11.7167 48.4307 20.959 56.948 30.5977 65.3752C33.5324 59.8217 37.3573 55.0437 40.7858 49.9749Z"
        fill="#191B2E" />
    <path
        d="M47.0029 47.0042C45.7928 46.0071 45.0487 45.6193 44.3602 45.9032C42.6286 46.5264 40.9248 47.212 39.0889 47.9252C39.8608 48.4722 40.5284 48.9431 41.1752 49.4278C41.3907 49.594 41.5437 49.4971 41.7315 49.4278L47.0029 47.0042Z"
        fill="#191B2E" />
</svg>
