<svg fill="none" height="10" viewBox="0 0 17 10" width="17" xmlns="http://www.w3.org/2000/svg">
    <linearGradient id="a" gradientUnits="userSpaceOnUse" x1="8.5" x2="8.5" y1="0" y2="9.5">
        <stop offset="0" stop-color="#c4c4c4" />
        <stop offset=".0001" stop-color="#18a0fb" />
        <stop offset="1" stop-color="#426bff" />
    </linearGradient>
    <path clip-rule="evenodd"
        d="m1.25 0c-.414214 0-.75.33579-.75.75s.335786.75.75.75h14.5c.4142 0 .75-.33579.75-.75s-.3358-.75-.75-.75zm2.25 4.75c0-.41421.33579-.75.75-.75h8.5c.4142 0 .75.33579.75.75s-.3358.75-.75.75h-8.5c-.41421 0-.75-.33579-.75-.75zm3 4c0-.4142.33579-.75.75-.75h2.5c.4142 0 .75.3358.75.75s-.3358.75-.75.75h-2.5c-.41421 0-.75-.3358-.75-.75z"
        fill="url(#a)" fill-rule="evenodd" />
</svg>