<svg width="17" height="10" viewBox="0 0 17 10" fill="none" xmlns="http://www.w3.org/2000/svg">
    <path fill-rule="evenodd" clip-rule="evenodd"
        d="M1.25 0C0.835786 0 0.5 0.33579 0.5 0.75C0.5 1.16421 0.835786 1.5 1.25 1.5H15.75C16.1642 1.5 16.5 1.16421 16.5 0.75C16.5 0.33579 16.1642 0 15.75 0H1.25ZM3.5 4.75C3.5 4.33579 3.83579 4 4.25 4H12.75C13.1642 4 13.5 4.33579 13.5 4.75C13.5 5.16421 13.1642 5.5 12.75 5.5H4.25C3.83579 5.5 3.5 5.16421 3.5 4.75ZM6.5 8.75C6.5 8.3358 6.83579 8 7.25 8H9.75C10.1642 8 10.5 8.3358 10.5 8.75C10.5 9.1642 10.1642 9.5 9.75 9.5H7.25C6.83579 9.5 6.5 9.1642 6.5 8.75Z"
        fill="url(#paint0_linear_845_8814)" />
    <defs>
        <linearGradient id="paint0_linear_845_8814" x1="8.5" y1="0" x2="8.5" y2="9.5"
            gradientUnits="userSpaceOnUse">
            <stop stop-color="#C4C4C4" />
            <stop offset="0.0001" stop-color="#18A0FB" />
            <stop offset="1" stop-color="#426BFF" />
        </linearGradient>
    </defs>
</svg>
