<svg width="59" height="55" viewBox="0 0 59 55" fill="none" xmlns="http://www.w3.org/2000/svg">
<g clip-path="url(#clip0_656_7719)">
<path d="M37.8734 41.5628H44.2654C51.9074 41.5628 54.5536 37.9102 54.5536 36.9727C54.5536 34.6999 49.1599 33.2551 43.3279 35.7064C37.8368 38.0157 36.6234 41.5628 37.8734 41.5628Z" fill="url(#paint0_linear_656_7719)"/>
<path d="M58.1981 55.0003V30.5684C58.1981 30.3952 58.1292 30.229 58.0067 30.1064C57.8841 29.9839 57.7179 29.915 57.5446 29.915C57.3713 29.915 57.2052 29.9839 57.0826 30.1064C56.9601 30.229 56.8912 30.3952 56.8912 30.5684V55.0003H58.1981Z" fill="url(#paint1_linear_656_7719)"/>
<path d="M1.30682 55.0001V0.767179C1.30682 0.593884 1.23798 0.427687 1.11544 0.305149C0.992901 0.182611 0.826704 0.11377 0.653409 0.11377C0.480114 0.11377 0.313917 0.182611 0.191379 0.305149C0.0688411 0.427687 0 0.593884 0 0.767179L0 55.0001H1.30682Z" fill="url(#paint2_linear_656_7719)"/>
<path d="M58.1981 55V0.888761C58.1981 0.715466 58.1292 0.549269 58.0067 0.426731C57.8841 0.304193 57.7179 0.235352 57.5446 0.235352C57.3713 0.235352 57.2052 0.304193 57.0826 0.426731C56.9601 0.549269 56.8912 0.715466 56.8912 0.888761V55H58.1981Z" fill="url(#paint3_linear_656_7719)"/>
<path d="M39.4927 7.65847H45.8847C53.5268 7.65847 56.1729 4.00588 56.1729 3.06837C56.1729 0.795647 50.7792 -0.649158 44.9472 1.80214C39.4521 4.10734 38.2427 7.65847 39.4927 7.65847Z" fill="url(#paint4_linear_656_7719)"/>
<path d="M11.6234 16.3882H5.59662V17.7965H11.6234V16.3882Z" fill="url(#paint5_linear_656_7719)"/>
<path d="M11.6234 49.5215H5.59662V51.7009H11.6234V49.5215Z" fill="url(#paint6_linear_656_7719)"/>
<path d="M3.38878 49.5133H3.12904V49.0425H3.38878V42.0417H3.12904V18.592C3.1305 18.4821 3.15428 18.3736 3.19893 18.2732C3.24358 18.1727 3.30817 18.0824 3.38878 18.0076V15.6172H2.52433C2.30906 15.6172 2.10261 15.7027 1.95038 15.8549C1.79816 16.0071 1.71265 16.2136 1.71265 16.4289V55.0165H3.12904V52.5125C3.1305 52.4026 3.15428 52.2941 3.19893 52.1936C3.24358 52.0932 3.30817 52.0028 3.38878 51.9281V49.5133Z" fill="url(#paint7_linear_656_7719)"/>
<path d="M11.6234 43.4702H5.59662V46.6317H11.6234V43.4702Z" fill="url(#paint8_linear_656_7719)"/>
<path d="M11.6234 48.8882H5.59662V49.0546H11.6234V48.8882Z" fill="url(#paint9_linear_656_7719)"/>
<path d="M55.6696 8.13721H2.52433C2.30906 8.13721 2.10261 8.22272 1.95038 8.37495C1.79816 8.52717 1.71265 8.73362 1.71265 8.9489V14.3507C1.71265 14.566 1.79816 14.7724 1.95038 14.9246C2.10261 15.0769 2.30906 15.1624 2.52433 15.1624H3.38878V10.065C3.38878 9.7722 3.50509 9.49142 3.71211 9.28439C3.91913 9.07737 4.19991 8.96107 4.49268 8.96107C4.78545 8.96107 5.06623 9.07737 5.27325 9.28439C5.48027 9.49142 5.59658 9.7722 5.59658 10.065V14.1234H11.6234V10.065C11.6404 9.78324 11.7644 9.51865 11.9699 9.3252C12.1754 9.13176 12.447 9.02404 12.7293 9.02404C13.0115 9.02404 13.2831 9.13176 13.4887 9.3252C13.6942 9.51865 13.8181 9.78324 13.8352 10.065V15.1461H55.6696C55.8849 15.1461 56.0914 15.0606 56.2436 14.9084C56.3958 14.7562 56.4813 14.5497 56.4813 14.3345V8.9286C56.476 8.71687 56.3882 8.51559 56.2365 8.36773C56.0849 8.21987 55.8814 8.13714 55.6696 8.13721Z" fill="url(#paint10_linear_656_7719)"/>
<path d="M55.6696 15.6172H13.8352V17.7966H54.2695C54.4847 17.7966 54.6912 17.8821 54.8434 18.0343C54.9956 18.1865 55.0812 18.393 55.0812 18.6083V42.0579H13.8352V49.0669H55.0649V49.5133H13.8352V51.6927H54.2695C54.4847 51.6927 54.6912 51.7782 54.8434 51.9304C54.9956 52.0826 55.0812 52.2891 55.0812 52.5044V55.0084H56.4854V16.4127C56.4811 16.1995 56.3932 15.9966 56.2405 15.8477C56.0879 15.6989 55.8828 15.6161 55.6696 15.6172Z" fill="url(#paint11_linear_656_7719)"/>
<path d="M12.7313 9.41167C12.558 9.41167 12.3918 9.48051 12.2693 9.60305C12.1468 9.72559 12.0779 9.89179 12.0779 10.0651V14.5821H5.14611V10.0651C5.14611 9.89179 5.07727 9.72559 4.95473 9.60305C4.8322 9.48051 4.666 9.41167 4.4927 9.41167C4.31941 9.41167 4.15321 9.48051 4.03067 9.60305C3.90814 9.72559 3.83929 9.89179 3.83929 10.0651V54.9839H5.14611V48.4376H12.0779V54.9839H13.3929V10.0651C13.3929 9.97859 13.3757 9.89295 13.3424 9.81314C13.309 9.73333 13.2602 9.66094 13.1986 9.60016C13.1371 9.53937 13.0641 9.49142 12.9839 9.45906C12.9037 9.4267 12.8178 9.4106 12.7313 9.41167ZM12.0779 15.9376V19.9961H5.14611V15.9376H12.0779ZM5.14611 36.2299V32.1714H12.0779V36.2299H5.14611ZM12.0779 37.5813V41.6398H5.14611V37.5813H12.0779ZM5.14611 30.8443V26.7859H12.0779V30.8443H5.14611ZM5.14611 25.4263V21.3678H12.0779V25.4263H5.14611ZM5.14611 47.0943V43.0196H12.0779V47.0781L5.14611 47.0943Z" fill="url(#paint12_linear_656_7719)"/>
<path d="M6.55031 0C6.40961 0 6.27028 0.0277133 6.14029 0.0815576C6.0103 0.135402 5.89219 0.214323 5.7927 0.313814C5.6932 0.413305 5.61428 0.531419 5.56044 0.66141C5.5066 0.791402 5.47888 0.930726 5.47888 1.07143V7.68669H7.62174V1.07143C7.62174 0.787268 7.50886 0.514746 7.30792 0.313814C7.10699 0.112882 6.83447 0 6.55031 0V0Z" fill="url(#paint13_linear_656_7719)"/>
<path d="M9.76461 0C9.48044 0 9.20792 0.112882 9.00699 0.313814C8.80606 0.514746 8.69318 0.787268 8.69318 1.07143V7.68669H10.836V1.07143C10.836 0.787268 10.7232 0.514746 10.5222 0.313814C10.3213 0.112882 10.0488 0 9.76461 0V0Z" fill="url(#paint14_linear_656_7719)"/>
<path d="M12.987 0C12.7029 0 12.4303 0.112882 12.2294 0.313814C12.0285 0.514746 11.9156 0.787268 11.9156 1.07143V7.68669H14.0584V1.07143C14.0584 0.787268 13.9456 0.514746 13.7446 0.313814C13.5437 0.112882 13.2712 0 12.987 0V0Z" fill="url(#paint15_linear_656_7719)"/>
<path d="M16.1932 0C15.909 0 15.6365 0.112882 15.4356 0.313814C15.2346 0.514746 15.1218 0.787268 15.1218 1.07143V7.68669H17.2646V1.07143C17.2646 0.787268 17.1517 0.514746 16.9508 0.313814C16.7499 0.112882 16.4774 0 16.1932 0V0Z" fill="url(#paint16_linear_656_7719)"/>
<path d="M3.33602 0C3.05186 0 2.77933 0.112882 2.5784 0.313814C2.37747 0.514746 2.26459 0.787268 2.26459 1.07143V7.71104C2.3502 7.69471 2.43717 7.68656 2.52433 7.68669H4.40744V1.07143C4.40744 0.787268 4.29456 0.514746 4.09363 0.313814C3.8927 0.112882 3.62018 0 3.33602 0V0Z" fill="url(#paint17_linear_656_7719)"/>
<path d="M42.983 1.65584V1.07143C42.983 0.787268 42.8701 0.514746 42.6691 0.313814C42.4682 0.112882 42.1957 0 41.9115 0C41.6274 0 41.3548 0.112882 41.1539 0.313814C40.953 0.514746 40.8401 0.787268 40.8401 1.07143V3.08036C41.5126 2.54544 42.2294 2.06887 42.983 1.65584Z" fill="url(#paint18_linear_656_7719)"/>
<path d="M44.5942 0.872728C45.0365 0.68604 45.483 0.515586 45.9334 0.365423C45.79 0.200844 45.5996 0.084025 45.3879 0.0306079C45.1762 -0.0228093 44.9533 -0.0102747 44.7489 0.0665331C44.5445 0.143341 44.3685 0.280756 44.2444 0.460378C44.1202 0.640001 44.054 0.853257 44.0544 1.07159V1.11623C44.237 1.03101 44.4115 0.953897 44.5942 0.872728Z" fill="url(#paint19_linear_656_7719)"/>
<path d="M54.3831 6.44114C54.1761 6.57507 53.9489 6.709 53.7013 6.84698V7.68708H55.6696C55.7277 7.68291 55.786 7.68291 55.8441 7.68708V5.27637C55.4025 5.71838 54.9124 6.10912 54.3831 6.44114Z" fill="url(#paint20_linear_656_7719)"/>
<path d="M35.4829 0C35.1988 0 34.9262 0.112882 34.7253 0.313814C34.5244 0.514746 34.4115 0.787268 34.4115 1.07143V7.68669H36.5544V1.07143C36.5544 0.787268 36.4415 0.514746 36.2405 0.313814C36.0396 0.112882 35.7671 0 35.4829 0V0Z" fill="url(#paint21_linear_656_7719)"/>
<path d="M38.1696 7.46753C37.9951 6.57062 38.5755 5.31656 39.7686 4.05844V1.07143C39.7686 0.787268 39.6558 0.514746 39.4548 0.313814C39.2539 0.112882 38.9814 0 38.6972 0C38.4131 0 38.1405 0.112882 37.9396 0.313814C37.7387 0.514746 37.6258 0.787268 37.6258 1.07143V7.68669H38.2305C38.2059 7.61489 38.1856 7.54171 38.1696 7.46753Z" fill="url(#paint22_linear_656_7719)"/>
<path d="M19.4075 0C19.1233 0 18.8508 0.112882 18.6499 0.313814C18.4489 0.514746 18.3361 0.787268 18.3361 1.07143V7.68669H20.483V1.07143C20.4819 0.786895 20.3681 0.514383 20.1665 0.313567C19.965 0.112751 19.692 -2.02586e-06 19.4075 0V0Z" fill="url(#paint23_linear_656_7719)"/>
<path d="M32.2687 0C32.128 0 31.9887 0.0277133 31.8587 0.0815576C31.7287 0.135402 31.6106 0.214323 31.5111 0.313814C31.4116 0.413305 31.3327 0.531419 31.2788 0.66141C31.225 0.791402 31.1973 0.930726 31.1973 1.07143V7.68669H33.3401V1.07143C33.3401 0.787268 33.2272 0.514746 33.0263 0.313814C32.8254 0.112882 32.5529 0 32.2687 0V0Z" fill="url(#paint24_linear_656_7719)"/>
<path d="M29.0544 0.000192192C28.7737 0.00550809 28.5064 0.120733 28.3098 0.321091C28.1133 0.52145 28.0032 0.790941 28.0032 1.07162V7.68688H30.1461V1.07162C30.1461 0.929195 30.1177 0.788193 30.0626 0.656861C30.0075 0.525529 29.9268 0.406502 29.8251 0.306741C29.7235 0.20698 29.603 0.128486 29.4706 0.075851C29.3383 0.0232157 29.1968 -0.00250527 29.0544 0.000192192Z" fill="url(#paint25_linear_656_7719)"/>
<path d="M22.6258 0C22.3417 0 22.0691 0.112882 21.8682 0.313814C21.6673 0.514746 21.5544 0.787268 21.5544 1.07143V7.68669H23.6972V1.07143C23.6972 0.787268 23.5844 0.514746 23.3834 0.313814C23.1825 0.112882 22.91 0 22.6258 0V0Z" fill="url(#paint26_linear_656_7719)"/>
<path d="M25.8401 6.91857e-05C25.6984 -0.00154141 25.5577 0.0249828 25.4263 0.0781056C25.2949 0.131228 25.1754 0.209894 25.0746 0.309546C24.9738 0.409198 24.8938 0.527856 24.8392 0.658648C24.7846 0.78944 24.7565 0.929765 24.7565 1.0715V7.68676H26.8993V1.0715C26.8993 0.789434 26.7881 0.518741 26.5898 0.318156C26.3915 0.11757 26.1221 0.00327445 25.8401 6.91857e-05Z" fill="url(#paint27_linear_656_7719)"/>
</g>
<defs>
<linearGradient id="paint0_linear_656_7719" x1="45.9887" y1="34.4302" x2="45.9887" y2="41.5628" gradientUnits="userSpaceOnUse">
<stop stop-color="#C4C4C4"/>
<stop offset="0.0001" stop-color="#18A0FB"/>
<stop offset="1" stop-color="#426BFF"/>
</linearGradient>
<linearGradient id="paint1_linear_656_7719" x1="57.5446" y1="29.915" x2="57.5446" y2="55.0003" gradientUnits="userSpaceOnUse">
<stop stop-color="#C4C4C4"/>
<stop offset="0.0001" stop-color="#18A0FB"/>
<stop offset="1" stop-color="#426BFF"/>
</linearGradient>
<linearGradient id="paint2_linear_656_7719" x1="0.653409" y1="0.11377" x2="0.653409" y2="55.0001" gradientUnits="userSpaceOnUse">
<stop stop-color="#C4C4C4"/>
<stop offset="0.0001" stop-color="#18A0FB"/>
<stop offset="1" stop-color="#426BFF"/>
</linearGradient>
<linearGradient id="paint3_linear_656_7719" x1="57.5446" y1="0.235352" x2="57.5446" y2="55" gradientUnits="userSpaceOnUse">
<stop stop-color="#C4C4C4"/>
<stop offset="0.0001" stop-color="#18A0FB"/>
<stop offset="1" stop-color="#426BFF"/>
</linearGradient>
<linearGradient id="paint4_linear_656_7719" x1="47.6077" y1="0.525879" x2="47.6077" y2="7.65847" gradientUnits="userSpaceOnUse">
<stop stop-color="#C4C4C4"/>
<stop offset="0.0001" stop-color="#18A0FB"/>
<stop offset="1" stop-color="#426BFF"/>
</linearGradient>
<linearGradient id="paint5_linear_656_7719" x1="8.61001" y1="16.3882" x2="8.61001" y2="17.7965" gradientUnits="userSpaceOnUse">
<stop stop-color="#C4C4C4"/>
<stop offset="0.0001" stop-color="#18A0FB"/>
<stop offset="1" stop-color="#426BFF"/>
</linearGradient>
<linearGradient id="paint6_linear_656_7719" x1="8.61001" y1="49.5215" x2="8.61001" y2="51.7009" gradientUnits="userSpaceOnUse">
<stop stop-color="#C4C4C4"/>
<stop offset="0.0001" stop-color="#18A0FB"/>
<stop offset="1" stop-color="#426BFF"/>
</linearGradient>
<linearGradient id="paint7_linear_656_7719" x1="2.55071" y1="15.6172" x2="2.55071" y2="55.0165" gradientUnits="userSpaceOnUse">
<stop stop-color="#C4C4C4"/>
<stop offset="0.0001" stop-color="#18A0FB"/>
<stop offset="1" stop-color="#426BFF"/>
</linearGradient>
<linearGradient id="paint8_linear_656_7719" x1="8.61001" y1="43.4702" x2="8.61001" y2="46.6317" gradientUnits="userSpaceOnUse">
<stop stop-color="#C4C4C4"/>
<stop offset="0.0001" stop-color="#18A0FB"/>
<stop offset="1" stop-color="#426BFF"/>
</linearGradient>
<linearGradient id="paint9_linear_656_7719" x1="8.61001" y1="48.8882" x2="8.61001" y2="49.0546" gradientUnits="userSpaceOnUse">
<stop stop-color="#C4C4C4"/>
<stop offset="0.0001" stop-color="#18A0FB"/>
<stop offset="1" stop-color="#426BFF"/>
</linearGradient>
<linearGradient id="paint10_linear_656_7719" x1="29.097" y1="8.13721" x2="29.097" y2="15.1624" gradientUnits="userSpaceOnUse">
<stop stop-color="#C4C4C4"/>
<stop offset="0.0001" stop-color="#18A0FB"/>
<stop offset="1" stop-color="#426BFF"/>
</linearGradient>
<linearGradient id="paint11_linear_656_7719" x1="35.1603" y1="15.6172" x2="35.1603" y2="55.0084" gradientUnits="userSpaceOnUse">
<stop stop-color="#C4C4C4"/>
<stop offset="0.0001" stop-color="#18A0FB"/>
<stop offset="1" stop-color="#426BFF"/>
</linearGradient>
<linearGradient id="paint12_linear_656_7719" x1="8.61608" y1="9.41162" x2="8.61608" y2="54.9839" gradientUnits="userSpaceOnUse">
<stop stop-color="#C4C4C4"/>
<stop offset="0.0001" stop-color="#18A0FB"/>
<stop offset="1" stop-color="#426BFF"/>
</linearGradient>
<linearGradient id="paint13_linear_656_7719" x1="6.55031" y1="0" x2="6.55031" y2="7.68669" gradientUnits="userSpaceOnUse">
<stop stop-color="#C4C4C4"/>
<stop offset="0.0001" stop-color="#18A0FB"/>
<stop offset="1" stop-color="#426BFF"/>
</linearGradient>
<linearGradient id="paint14_linear_656_7719" x1="9.76461" y1="0" x2="9.76461" y2="7.68669" gradientUnits="userSpaceOnUse">
<stop stop-color="#C4C4C4"/>
<stop offset="0.0001" stop-color="#18A0FB"/>
<stop offset="1" stop-color="#426BFF"/>
</linearGradient>
<linearGradient id="paint15_linear_656_7719" x1="12.987" y1="0" x2="12.987" y2="7.68669" gradientUnits="userSpaceOnUse">
<stop stop-color="#C4C4C4"/>
<stop offset="0.0001" stop-color="#18A0FB"/>
<stop offset="1" stop-color="#426BFF"/>
</linearGradient>
<linearGradient id="paint16_linear_656_7719" x1="16.1932" y1="0" x2="16.1932" y2="7.68669" gradientUnits="userSpaceOnUse">
<stop stop-color="#C4C4C4"/>
<stop offset="0.0001" stop-color="#18A0FB"/>
<stop offset="1" stop-color="#426BFF"/>
</linearGradient>
<linearGradient id="paint17_linear_656_7719" x1="3.33602" y1="0" x2="3.33602" y2="7.71104" gradientUnits="userSpaceOnUse">
<stop stop-color="#C4C4C4"/>
<stop offset="0.0001" stop-color="#18A0FB"/>
<stop offset="1" stop-color="#426BFF"/>
</linearGradient>
<linearGradient id="paint18_linear_656_7719" x1="41.9115" y1="0" x2="41.9115" y2="3.08036" gradientUnits="userSpaceOnUse">
<stop stop-color="#C4C4C4"/>
<stop offset="0.0001" stop-color="#18A0FB"/>
<stop offset="1" stop-color="#426BFF"/>
</linearGradient>
<linearGradient id="paint19_linear_656_7719" x1="44.9939" y1="-0.00195313" x2="44.9939" y2="1.11623" gradientUnits="userSpaceOnUse">
<stop stop-color="#C4C4C4"/>
<stop offset="0.0001" stop-color="#18A0FB"/>
<stop offset="1" stop-color="#426BFF"/>
</linearGradient>
<linearGradient id="paint20_linear_656_7719" x1="54.7727" y1="5.27637" x2="54.7727" y2="7.68708" gradientUnits="userSpaceOnUse">
<stop stop-color="#C4C4C4"/>
<stop offset="0.0001" stop-color="#18A0FB"/>
<stop offset="1" stop-color="#426BFF"/>
</linearGradient>
<linearGradient id="paint21_linear_656_7719" x1="35.4829" y1="0" x2="35.4829" y2="7.68669" gradientUnits="userSpaceOnUse">
<stop stop-color="#C4C4C4"/>
<stop offset="0.0001" stop-color="#18A0FB"/>
<stop offset="1" stop-color="#426BFF"/>
</linearGradient>
<linearGradient id="paint22_linear_656_7719" x1="38.6972" y1="0" x2="38.6972" y2="7.68669" gradientUnits="userSpaceOnUse">
<stop stop-color="#C4C4C4"/>
<stop offset="0.0001" stop-color="#18A0FB"/>
<stop offset="1" stop-color="#426BFF"/>
</linearGradient>
<linearGradient id="paint23_linear_656_7719" x1="19.4095" y1="0" x2="19.4095" y2="7.68669" gradientUnits="userSpaceOnUse">
<stop stop-color="#C4C4C4"/>
<stop offset="0.0001" stop-color="#18A0FB"/>
<stop offset="1" stop-color="#426BFF"/>
</linearGradient>
<linearGradient id="paint24_linear_656_7719" x1="32.2687" y1="0" x2="32.2687" y2="7.68669" gradientUnits="userSpaceOnUse">
<stop stop-color="#C4C4C4"/>
<stop offset="0.0001" stop-color="#18A0FB"/>
<stop offset="1" stop-color="#426BFF"/>
</linearGradient>
<linearGradient id="paint25_linear_656_7719" x1="29.0747" y1="0" x2="29.0747" y2="7.68688" gradientUnits="userSpaceOnUse">
<stop stop-color="#C4C4C4"/>
<stop offset="0.0001" stop-color="#18A0FB"/>
<stop offset="1" stop-color="#426BFF"/>
</linearGradient>
<linearGradient id="paint26_linear_656_7719" x1="22.6258" y1="0" x2="22.6258" y2="7.68669" gradientUnits="userSpaceOnUse">
<stop stop-color="#C4C4C4"/>
<stop offset="0.0001" stop-color="#18A0FB"/>
<stop offset="1" stop-color="#426BFF"/>
</linearGradient>
<linearGradient id="paint27_linear_656_7719" x1="25.8279" y1="0" x2="25.8279" y2="7.68676" gradientUnits="userSpaceOnUse">
<stop stop-color="#C4C4C4"/>
<stop offset="0.0001" stop-color="#18A0FB"/>
<stop offset="1" stop-color="#426BFF"/>
</linearGradient>
<clipPath id="clip0_656_7719">
<rect width="58.198" height="55" fill="white"/>
</clipPath>
</defs>
</svg>
