<svg fill="none" height="55" viewBox="0 0 59 55" width="59" xmlns="http://www.w3.org/2000/svg" xmlns:xlink="http://www.w3.org/1999/xlink"><linearGradient id="a"><stop offset="0" stop-color="#c4c4c4"/><stop offset=".0001" stop-color="#18a0fb"/><stop offset="1" stop-color="#426bff"/></linearGradient><linearGradient id="b" gradientUnits="userSpaceOnUse" x1="45.9887" x2="45.9887" xlink:href="#a" y1="34.4302" y2="41.5628"/><linearGradient id="c" gradientUnits="userSpaceOnUse" x1="57.5446" x2="57.5446" xlink:href="#a" y1="29.915" y2="55.0003"/><linearGradient id="d" gradientUnits="userSpaceOnUse" x1=".653409" x2=".653409" xlink:href="#a" y1=".11377" y2="55.0001"/><linearGradient id="e" gradientUnits="userSpaceOnUse" x1="57.5446" x2="57.5446" xlink:href="#a" y1=".235352" y2="55"/><linearGradient id="f" gradientUnits="userSpaceOnUse" x1="47.6077" x2="47.6077" xlink:href="#a" y1=".525879" y2="7.65847"/><linearGradient id="g" gradientUnits="userSpaceOnUse" x1="8.61001" x2="8.61001" xlink:href="#a" y1="16.3882" y2="17.7965"/><linearGradient id="h" gradientUnits="userSpaceOnUse" x1="8.61001" x2="8.61001" xlink:href="#a" y1="49.5215" y2="51.7009"/><linearGradient id="i" gradientUnits="userSpaceOnUse" x1="2.55071" x2="2.55071" xlink:href="#a" y1="15.6172" y2="55.0165"/><linearGradient id="j" gradientUnits="userSpaceOnUse" x1="8.61001" x2="8.61001" xlink:href="#a" y1="43.4702" y2="46.6317"/><linearGradient id="k" gradientUnits="userSpaceOnUse" x1="8.61001" x2="8.61001" xlink:href="#a" y1="48.8882" y2="49.0546"/><linearGradient id="l" gradientUnits="userSpaceOnUse" x1="29.097" x2="29.097" xlink:href="#a" y1="8.13721" y2="15.1624"/><linearGradient id="m" gradientUnits="userSpaceOnUse" x1="35.1603" x2="35.1603" xlink:href="#a" y1="15.6172" y2="55.0084"/><linearGradient id="n" gradientUnits="userSpaceOnUse" x1="8.61608" x2="8.61608" xlink:href="#a" y1="9.41162" y2="54.9839"/><linearGradient id="o" gradientUnits="userSpaceOnUse" x1="6.55031" x2="6.55031" xlink:href="#a" y1="0" y2="7.68669"/><linearGradient id="p" gradientUnits="userSpaceOnUse" x1="9.76461" x2="9.76461" xlink:href="#a" y1="0" y2="7.68669"/><linearGradient id="q" gradientUnits="userSpaceOnUse" x1="12.987" x2="12.987" xlink:href="#a" y1="0" y2="7.68669"/><linearGradient id="r" gradientUnits="userSpaceOnUse" x1="16.1932" x2="16.1932" xlink:href="#a" y1="0" y2="7.68669"/><linearGradient id="s" gradientUnits="userSpaceOnUse" x1="3.33602" x2="3.33602" xlink:href="#a" y1="0" y2="7.71104"/><linearGradient id="t" gradientUnits="userSpaceOnUse" x1="41.9115" x2="41.9115" xlink:href="#a" y1="0" y2="3.08036"/><linearGradient id="u" gradientUnits="userSpaceOnUse" x1="44.9939" x2="44.9939" xlink:href="#a" y1="-.001953" y2="1.11623"/><linearGradient id="v" gradientUnits="userSpaceOnUse" x1="54.7727" x2="54.7727" xlink:href="#a" y1="5.27637" y2="7.68708"/><linearGradient id="w" gradientUnits="userSpaceOnUse" x1="35.4829" x2="35.4829" xlink:href="#a" y1="0" y2="7.68669"/><linearGradient id="x" gradientUnits="userSpaceOnUse" x1="38.6972" x2="38.6972" xlink:href="#a" y1="0" y2="7.68669"/><linearGradient id="y" gradientUnits="userSpaceOnUse" x1="19.4095" x2="19.4095" xlink:href="#a" y1="0" y2="7.68669"/><linearGradient id="z" gradientUnits="userSpaceOnUse" x1="32.2687" x2="32.2687" xlink:href="#a" y1="0" y2="7.68669"/><linearGradient id="A" gradientUnits="userSpaceOnUse" x1="29.0747" x2="29.0747" xlink:href="#a" y1="0" y2="7.68688"/><linearGradient id="B" gradientUnits="userSpaceOnUse" x1="22.6258" x2="22.6258" xlink:href="#a" y1="0" y2="7.68669"/><linearGradient id="C" gradientUnits="userSpaceOnUse" x1="25.8279" x2="25.8279" xlink:href="#a" y1="0" y2="7.68676"/><clipPath id="D"><path d="m0 0h58.198v55h-58.198z"/></clipPath><g clip-path="url(#D)"><path d="m37.8734 41.5628h6.392c7.642 0 10.2882-3.6526 10.2882-4.5901 0-2.2728-5.3937-3.7176-11.2257-1.2663-5.4911 2.3093-6.7045 5.8564-5.4545 5.8564z" fill="url(#b)"/><path d="m58.1981 55.0003v-24.4319c0-.1732-.0689-.3394-.1914-.462-.1226-.1225-.2888-.1914-.4621-.1914s-.3394.0689-.462.1914c-.1225.1226-.1914.2888-.1914.462v24.4319z" fill="url(#c)"/><path d="m1.30682 55.0001v-54.232921c0-.173295-.06884-.339492-.19138-.46203-.122539-.122538-.288736-.191379-.462031-.191379s-.339492.068841-.46203.191379c-.1225379.122538-.191379.288735-.191379.46203v54.232921z" fill="url(#d)"/><path d="m58.1981 55v-54.111239c0-.173295-.0689-.339492-.1914-.46203-.1226-.122538-.2888-.191379-.4621-.191379s-.3394.068841-.462.191379c-.1225.122538-.1914.288735-.1914.46203v54.111239z" fill="url(#e)"/><path d="m39.4927 7.65847h6.392c7.6421 0 10.2882-3.65259 10.2882-4.5901 0-2.272723-5.3937-3.717528-11.2257-1.26623-5.4951 2.3052-6.7045 5.85633-5.4545 5.85633z" fill="url(#f)"/><path d="m11.6234 16.3882h-6.02678v1.4083h6.02678z" fill="url(#g)"/><path d="m11.6234 49.5215h-6.02678v2.1794h6.02678z" fill="url(#h)"/><path d="m3.38878 49.5133h-.25974v-.4708h.25974v-7.0008h-.25974v-23.4497c.00146-.1099.02524-.2184.06989-.3188.04465-.1005.10924-.1908.18985-.2656v-2.3904h-.86445c-.21527 0-.42172.0855-.57395.2377-.15222.1522-.23773.3587-.23773.574v38.5876h1.41639v-2.504c.00146-.1099.02524-.2184.06989-.3189.04465-.1004.10924-.1908.18985-.2655z" fill="url(#i)"/><path d="m11.6234 43.4702h-6.02678v3.1615h6.02678z" fill="url(#j)"/><path d="m11.6234 48.8882h-6.02678v.1664h6.02678z" fill="url(#k)"/><path d="m55.6696 8.13721h-53.14527c-.21527 0-.42172.08551-.57395.23774-.15222.15222-.23773.35867-.23773.57395v5.4018c0 .2153.08551.4217.23773.5739.15223.1523.35868.2378.57395.2378h.86445v-5.0974c0-.2928.11631-.57358.32333-.78061.20702-.20702.4878-.32332.78057-.32332s.57355.1163.78057.32332c.20702.20703.32333.48781.32333.78061v4.0584h6.02682v-4.0584c.017-.28176.141-.54635.3465-.7398.2055-.19344.4771-.30116.7594-.30116.2822 0 .5538.10772.7594.30116.2055.19345.3294.45804.3465.7398v5.0811h41.8344c.2153 0 .4218-.0855.574-.2377s.2377-.3587.2377-.5739v-5.4059c-.0053-.21173-.0931-.41301-.2448-.56087-.1516-.14786-.3551-.23059-.5669-.23052z" fill="url(#l)"/><path d="m55.6696 15.6172h-41.8344v2.1794h40.4343c.2152 0 .4217.0855.5739.2377s.2378.3587.2378.574v23.4496h-41.246v7.009h41.2297v.4464h-41.2297v2.1794h40.4343c.2152 0 .4217.0855.5739.2377s.2378.3587.2378.574v2.504h1.4042v-38.5957c-.0043-.2132-.0922-.4161-.2449-.565-.1526-.1488-.3577-.2316-.5709-.2305z" fill="url(#m)"/><path d="m12.7313 9.41167c-.1733 0-.3395.06884-.462.19138s-.1914.28874-.1914.46205v4.517h-6.93179v-4.517c0-.17331-.06884-.33951-.19138-.46205-.12253-.12254-.28873-.19138-.46203-.19138-.17329 0-.33949.06884-.46203.19138-.12253.12254-.19138.28874-.19138.46205v44.9188h1.30682v-6.5463h6.93179v6.5463h1.315v-44.9188c0-.08651-.0172-.17215-.0505-.25196-.0334-.07981-.0822-.1522-.1438-.21298-.0615-.06079-.1345-.10874-.2147-.1411s-.1661-.04846-.2526-.04739zm-.6534 6.52593v4.0585h-6.93179v-4.0585zm-6.93179 20.2923v-4.0585h6.93179v4.0585zm6.93179 1.3514v4.0585h-6.93179v-4.0585zm-6.93179-6.737v-4.0584h6.93179v4.0584zm0-5.418v-4.0585h6.93179v4.0585zm0 21.668v-4.0747h6.93179v4.0585z" fill="url(#n)"/><path d="m6.55031 0c-.1407 0-.28003.0277133-.41002.0815576-.12999.0538444-.2481.1327654-.34759.2322564-.0995.099491-.17842.217605-.23226.347596-.05384.129992-.08156.269316-.08156.41002v6.61526h2.14286v-6.61526c0-.284162-.11288-.556684-.31382-.757616-.20093-.200932-.47345-.313814-.75761-.313814z" fill="url(#o)"/><path d="m9.76461 0c-.28417 0-.55669.112882-.75762.313814s-.31381.473454-.31381.757616v6.61526h2.14282v-6.61526c0-.284162-.1128-.556684-.3138-.757616-.2009-.200932-.4734-.313814-.75759-.313814z" fill="url(#p)"/><path d="m12.987 0c-.2841 0-.5567.112882-.7576.313814s-.3138.473454-.3138.757616v6.61526h2.1428v-6.61526c0-.284162-.1128-.556684-.3138-.757616-.2009-.200932-.4734-.313814-.7576-.313814z" fill="url(#q)"/><path d="m16.1932 0c-.2842 0-.5567.112882-.7576.313814-.201.200932-.3138.473454-.3138.757616v6.61526h2.1428v-6.61526c0-.284162-.1129-.556684-.3138-.757616-.2009-.200932-.4734-.313814-.7576-.313814z" fill="url(#r)"/><path d="m3.33602 0c-.28416 0-.55669.112882-.75762.313814s-.31381.473454-.31381.757616v6.63961c.08561-.01633.17258-.02448.25974-.02435h1.88311v-6.61526c0-.284162-.11288-.556684-.31381-.757616-.20093-.200932-.47345-.313814-.75761-.313814z" fill="url(#s)"/><path d="m42.983 1.65584v-.58441c0-.284162-.1129-.556684-.3139-.757616-.2009-.200932-.4734-.313814-.7576-.313814-.2841 0-.5567.112882-.7576.313814s-.3138.473454-.3138.757616v2.00893c.6725-.53492 1.3893-1.01149 2.1429-1.42452z" fill="url(#t)"/><path d="m44.5942.872728c.4423-.186688.8888-.357142 1.3392-.507305-.1434-.164579-.3338-.281398-.5455-.3348151-.2117-.0534172-.4346-.0408826-.639.0359252-.2044.0768079-.3804.2142229-.5045.3938449-.1242.179623-.1904.392879-.19.611212v.04464c.1826-.08522.3571-.162333.5398-.243502z" fill="url(#u)"/><path d="m54.3831 6.44114c-.207.13393-.4342.26786-.6818.40584v.8401h1.9683c.0581-.00417.1164-.00417.1745 0v-2.41071c-.4416.44201-.9317.83275-1.461 1.16477z" fill="url(#v)"/><path d="m35.4829 0c-.2841 0-.5567.112882-.7576.313814s-.3138.473454-.3138.757616v6.61526h2.1429v-6.61526c0-.284162-.1129-.556684-.3139-.757616-.2009-.200932-.4734-.313814-.7576-.313814z" fill="url(#w)"/><path d="m38.1696 7.46753c-.1745-.89691.4059-2.15097 1.599-3.40909v-2.98701c0-.284162-.1128-.556684-.3138-.757616-.2009-.200932-.4734-.313814-.7576-.313814-.2841 0-.5567.112882-.7576.313814s-.3138.473454-.3138.757616v6.61526h.6047c-.0246-.0718-.0449-.14498-.0609-.21916z" fill="url(#x)"/><path d="m19.4075 0c-.2842 0-.5567.112882-.7576.313814-.201.200932-.3138.473454-.3138.757616v6.61526h2.1469v-6.61526c-.0011-.284535-.1149-.557047-.3165-.757863-.2015-.200816-.4745-.31356903-.759-.313567z" fill="url(#y)"/><path d="m32.2687 0c-.1407 0-.28.0277133-.41.0815576-.13.0538444-.2481.1327654-.3476.2322564s-.1784.217605-.2323.347596c-.0538.129992-.0815.269316-.0815.41002v6.61526h2.1428v-6.61526c0-.284162-.1129-.556684-.3138-.757616-.2009-.200932-.4734-.313814-.7576-.313814z" fill="url(#z)"/><path d="m29.0544.00019219c-.2807.0053159-.548.12054081-.7446.32089881-.1965.200359-.3066.46985-.3066.750529v6.61526h2.1429v-6.61526c0-.142425-.0284-.283427-.0835-.414759s-.1358-.250359-.2375-.35012c-.1016-.099761-.2221-.178255-.3545-.23089-.1323-.0526353-.2738-.07835627-.4162-.07565881z" fill="url(#A)"/><path d="m22.6258 0c-.2841 0-.5567.112882-.7576.313814s-.3138.473454-.3138.757616v6.61526h2.1428v-6.61526c0-.284162-.1128-.556684-.3138-.757616-.2009-.200932-.4734-.313814-.7576-.313814z" fill="url(#B)"/><path d="m25.8401.00006919c-.1417-.0016106-.2824.02491361-.4138.07803641-.1314.0531224-.2509.1317884-.3517.2314404s-.1808.21831-.2354.349102-.0827.271117-.0827.412852v6.61526h2.1428v-6.61526c0-.282066-.1112-.552759-.3095-.753344-.1983-.200586-.4677-.31488155-.7497-.31808681z" fill="url(#C)"/></g></svg>