<svg fill="none" height="32" viewBox="0 0 32 32" width="32" xmlns="http://www.w3.org/2000/svg"><g stroke="#272e39" stroke-linecap="round" stroke-linejoin="round" stroke-width="2"><path d="m27 10h-22c-.55229 0-1 .4477-1 1v4c0 .5523.44771 1 1 1h22c.5523 0 1-.4477 1-1v-4c0-.5523-.4477-1-1-1z"/><path d="m26 16v9c0 .2652-.1054.5196-.2929.7071s-.4419.2929-.7071.2929h-18c-.26522 0-.51957-.1054-.70711-.2929-.18753-.1875-.29289-.4419-.29289-.7071v-9"/><path d="m16 10v16"/><path d="m21.6569 8.58578c-1.4143 1.41421-5.6569 1.41421-5.6569 1.41421s0-4.24264 1.4142-5.65685c.5627-.56208 1.3256-.8777 2.121-.87747.7953.00022 1.558.31628 2.1204.87868s.8785 1.32511.8787 2.12046c.0003.79536-.3154 1.55825-.8774 2.12097z"/><path d="m10.3432 8.58578c1.4142 1.41421 5.6568 1.41421 5.6568 1.41421s0-4.24264-1.4142-5.65685c-.5627-.56208-1.3256-.8777-2.121-.87747-.7953.00022-1.558.31628-2.1204.87868-.56242.5624-.87848 1.32511-.8787 2.12046-.00023.79536.31539 1.55825.8775 2.12097z"/></g></svg>