<svg width="12" height="12" viewBox="0 0 12 12" fill="none" xmlns="http://www.w3.org/2000/svg">
    <path fill-rule="evenodd" clip-rule="evenodd"
        d="M3.5625 1.125C3.04473 1.125 2.625 1.54473 2.625 2.0625C2.625 2.58027 3.04473 3 3.5625 3H5.29405C5.11934 2.38683 4.88747 1.94919 4.63542 1.65513C4.31289 1.27885 3.94958 1.125 3.5625 1.125ZM1.5 2.0625C1.5 2.40008 1.5811 2.71873 1.72489 3H1.3125C0.587626 3 0 3.58763 0 4.3125V5.8125C0 6.33607 0.306572 6.78805 0.75 6.99869V10.6875C0.75 11.4124 1.33763 12 2.0625 12H9.9375C10.6624 12 11.25 11.4124 11.25 10.6875V6.99869C11.6934 6.78805 12 6.33607 12 5.8125V4.3125C12 3.58763 11.4124 3 10.6875 3H10.2751C10.4189 2.71873 10.5 2.40008 10.5 2.0625C10.5 0.923415 9.5766 0 8.4375 0C7.69957 0 7.03164 0.314899 6.51042 0.922995C6.31856 1.14682 6.1483 1.40792 6 1.70478C5.8517 1.40792 5.68144 1.14682 5.48958 0.922995C4.96836 0.314899 4.30042 0 3.5625 0C2.42341 0 1.5 0.923415 1.5 2.0625ZM6.70595 3H8.4375C8.9553 3 9.375 2.58027 9.375 2.0625C9.375 1.54473 8.9553 1.125 8.4375 1.125C8.05042 1.125 7.68712 1.27885 7.36458 1.65513C7.11253 1.94919 6.88066 2.38683 6.70595 3ZM1.3125 4.125C1.20895 4.125 1.125 4.20895 1.125 4.3125V5.8125C1.125 5.91605 1.20895 6 1.3125 6H5.4375V4.125H1.3125ZM6.5625 4.125V6H10.6875C10.7911 6 10.875 5.91605 10.875 5.8125V4.3125C10.875 4.20895 10.7911 4.125 10.6875 4.125H6.5625ZM6.5625 7.125H10.125V10.6875C10.125 10.7911 10.0411 10.875 9.9375 10.875H6.5625V7.125ZM5.4375 7.125V10.875H2.0625C1.95895 10.875 1.875 10.7911 1.875 10.6875V7.125H5.4375Z"
        fill="#18A0FB" />
</svg>
