<svg fill="none" height="22" viewBox="0 0 22 22" width="22" xmlns="http://www.w3.org/2000/svg"><g fill="#64748b" opacity=".6"><path d="m21.5258 9.26884c-.0505-.32825-.1262-.94688-.808-.94688-.6565 0-.7701.58075-.8458.92163-.5934 2.87851-3.1689 4.98691-6.1358 5.01211-.0127 0-.0253 0-.0379 0-3.0048 0-5.54242-2.0705-6.1863-5.04998-.61863-2.82802.88376-5.76967 3.5603-6.96905.2399-.11363.505-.17675.7701-.2525.2778-.07575.5681-.1515.8333-.27775.2903-.13888.6186-.50501.6186-.78276 0-.227251-.2651-.441878-.505-.618629-.0379-.037875-.0884-.063125-.1263-.101001-.101-.07575-.2398-.088375-.3661-.101-.0379 0-.0757 0-.101-.0126254-3.09314-.3913776-6.18628.5555034-8.5093 2.5881454-2.32301 2.04526-3.6738966 4.99953-3.68652172 8.10535-.01262508 3.3835 1.50238172 6.5145 4.16628172 8.585 1.93163 1.5024 4.24202 2.2978 6.61554 2.2978.8838 0 1.7801-.1137 2.6765-.3409 2.5882-.6565 4.8354-2.222 6.3126-4.4188 1.5023-2.2094 2.1336-4.9238 1.7548-7.63816zm-13.58454 4.10316c1.48976 1.6034 3.76224 2.5124 6.07264 2.4493 2.2094-.0632 4.2421-1.0353 5.7571-2.7397-.6439 3.8002-4.8733 7.0953-9.0648 7.0196-2.39882-.0505-4.63346-.9722-6.29997-2.5756-1.67913-1.6286-2.67652-3.8632-2.81539-6.2999-.16413-2.97949 1.06051-5.08788 2.12101-6.32514 1.27514-1.51501 3.05527-2.60077 4.89854-3.01739-2.10839 1.89376-2.6639 4.05265-2.7649 5.56766-.12625 2.19676.63126 4.35567 2.09577 5.92117z"/><path d="m12.0444 6.49133c-.3535 0-.7197 0-1.0732 0-.3282 0-.5681.07575-.7322.23988-.1389.13887-.202.32825-.202.56812 0 .47976.3409.77013.909.77013h1.0858.404l.0126.03788c-.1768.17675-.3661.3535-.5429.51763-.505.49238-1.0353.99738-1.515 1.52763-.202.2146-.3535.6691-.2525.9595.0884.2651.5555.4671.8206.4798.4924.0252.9974.0252 1.4898.0252h.8332.8333.0631c.7828 0 .9469-.4292.9595-.7954 0-.2398-.0631-.4166-.202-.5555-.1641-.1641-.4166-.2398-.7449-.2398-.3408 0-.6943 0-1.0857 0h-.3788c.1768-.1768.3535-.34092.5177-.51768.5555-.54287 1.0731-1.0605 1.5655-1.59076.1893-.202.3787-.66913.2525-.92163-.1389-.27775-.5682-.47975-.8712-.505-.707-.01263-1.4392 0-2.1462 0z"/><path d="m17.3722 1.56753h1.1363.4292l.0253.0505c-.1768.17675-.3535.3535-.5429.51763-.5177.505-1.0605 1.01001-1.5529 1.55288-.202.21463-.3535.65651-.2525.90901.101.26513.5176.49238.7954.505.5302.02525 1.0731.02525 1.616.02525.4166 0 .8332 0 1.2372-.01262h.4924c.2904 0 .5176-.07575.6691-.23988.1389-.13887.202-.34088.1894-.58075-.0126-.34088-.1641-.73226-.8585-.73226-.3787 0-.7449 0-1.1615 0h-.3661c.0252-.02525.0505-.0505.0757-.07575.1137-.12625.202-.22725.2904-.31562.1768-.17676.3409-.34088.5176-.51763.404-.39138.8207-.80801 1.1994-1.23726.202-.22725.303-.66913.2273-.921632-.0758-.239876-.4924-.4545027-.7702-.4671278-.909-.0378753-1.8432-.02525019-2.7522-.02525019-.2147 0-.4419 0-.6565 0-.2525 0-.4545.06312539-.5934.18937599-.1515.138876-.2273.328252-.2273.580754 0 .505.303.78276.8333.79538z"/></g></svg>