<svg width="26" height="26" viewBox="0 0 32 32" fill="none" xmlns="http://www.w3.org/2000/svg">
<g clip-path="url(#clip0_520_6116)">
<path d="M25.851 5.48938H6.10632V23.4468H25.851V5.48938Z" fill="white"/>
<path fill-rule="evenodd" clip-rule="evenodd" d="M31.9681 16C31.9681 24.8249 24.8142 31.9787 15.9893 31.9787C7.16453 31.9787 0.0106201 24.8249 0.0106201 16C0.0106201 7.17522 7.16453 0.0213013 15.9893 0.0213013C24.8142 0.0213013 31.9681 7.17522 31.9681 16ZM11.4614 22.3587H8.36041C7.70879 22.3587 7.38692 22.3587 7.19066 22.2332C6.97868 22.0958 6.84915 21.8681 6.83345 21.6168C6.82166 21.3853 6.98262 21.1026 7.30449 20.5374L14.9613 7.04119C15.2871 6.46809 15.452 6.18153 15.66 6.07556C15.8837 5.96173 16.1507 5.96173 16.3744 6.07556C16.5825 6.18153 16.7473 6.46809 17.0731 7.04119L18.6472 9.78894L18.6552 9.80296C19.0071 10.4178 19.1856 10.7296 19.2635 11.0568C19.3498 11.414 19.3498 11.7909 19.2635 12.1481C19.185 12.4778 19.0083 12.7918 18.6511 13.416L14.6292 20.5256L14.6188 20.5438C14.2646 21.1637 14.0851 21.4779 13.8363 21.7149C13.5654 21.9741 13.2396 22.1624 12.8824 22.2685C12.5566 22.3587 12.1916 22.3587 11.4614 22.3587ZM19.2925 22.3587H23.7359C24.3915 22.3587 24.7213 22.3587 24.9176 22.2294C25.1296 22.0919 25.263 21.8602 25.2749 21.6092C25.2862 21.3851 25.1287 21.1134 24.8202 20.581C24.8096 20.5629 24.7989 20.5444 24.7881 20.5257L22.5623 16.7181L22.537 16.6752C22.2242 16.1463 22.0664 15.8793 21.8636 15.776C21.64 15.6622 21.3768 15.6622 21.1532 15.776C20.949 15.882 20.7842 16.1607 20.4584 16.722L18.2405 20.5296L18.2329 20.5427C17.9083 21.1032 17.746 21.3832 17.7577 21.613C17.7734 21.8643 17.903 22.0958 18.1149 22.2332C18.3073 22.3587 18.637 22.3587 19.2925 22.3587Z" fill="#E84142"/>
</g>
<defs>
<clipPath id="clip0_520_6116">
<rect width="31.9787" height="32" fill="white"/>
</clipPath>
</defs>
</svg>
