<svg width="48" height="41" viewBox="0 0 48 41" fill="none" xmlns="http://www.w3.org/2000/svg">
<path d="M25.9684 3.743L24.0007 5.69187L22.0235 3.73826C19.9815 1.71805 17.3119 0.43393 14.443 0.0918258C11.5741 -0.250278 8.67207 0.369456 6.20222 1.85164C3.73238 3.33383 1.83785 5.5926 0.822453 8.26572C-0.192941 10.9388 -0.270371 13.8714 0.60258 16.5932H4.45388C3.54406 14.6347 3.35983 12.4224 3.9334 10.3432C4.50698 8.26407 5.80187 6.45019 7.59174 5.21866C9.3816 3.98714 11.5526 3.41631 13.7252 3.60596C15.8979 3.7956 17.9339 4.73365 19.4776 6.25615L22.7362 9.47345C22.9057 9.64115 23.1075 9.77368 23.3296 9.86322C23.5517 9.95277 23.7897 9.99753 24.0296 9.99488C24.2695 9.99223 24.5064 9.94222 24.7265 9.84779C24.9465 9.75336 25.1452 9.61641 25.3109 9.445L28.5119 6.25615C30.0566 4.73367 32.0934 3.79557 34.2667 3.6056C36.4401 3.41562 38.6119 3.98585 40.4031 5.21672C42.1943 6.4476 43.4912 8.26095 44.0672 10.3402C44.6432 12.4195 44.4619 14.6326 43.5548 16.5932H47.4061C48.2721 13.8708 48.189 10.94 47.1702 8.26965C46.1514 5.59931 44.2558 3.34366 41.7864 1.86346C39.317 0.38326 36.4165 -0.235989 33.5489 0.10475C30.6813 0.445489 28.0122 1.72653 25.9684 3.743ZM22.729 40.48L6.94943 24.8914H11.6598C11.7822 24.8914 11.9045 24.8842 12.0245 24.8748L24.0007 36.7079L35.9698 24.889H41.0617L25.2725 40.48C24.9351 40.813 24.4777 41 24.0007 41C23.5238 41 23.0664 40.813 22.729 40.48ZM17.8099 10.4645C17.6589 10.1666 17.4262 9.91663 17.1384 9.74306C16.8506 9.56949 16.5192 9.47929 16.1821 9.48275C15.8449 9.48621 15.5155 9.58318 15.2314 9.76263C14.9473 9.94207 14.72 10.1968 14.5752 10.4977L10.52 18.9618H1.80476C1.32746 18.9618 0.869704 19.1491 0.5322 19.4826C0.194696 19.816 0.00508779 20.2683 0.00508779 20.7399C0.00508779 21.2115 0.194696 21.6638 0.5322 21.9973C0.869704 22.3307 1.32746 22.5181 1.80476 22.5181H11.6598C12.0006 22.5182 12.3344 22.4226 12.6225 22.2426C12.9105 22.0625 13.1408 21.8053 13.2867 21.501L16.2477 15.3224L22.3906 27.4614C22.5287 27.7352 22.736 27.9692 22.9924 28.1407C23.2487 28.3122 23.5456 28.4155 23.8541 28.4405C24.1627 28.4656 24.4726 28.4115 24.7539 28.2836C25.0351 28.1557 25.2782 27.9582 25.4597 27.7103L31.9337 18.8527L34.6452 21.9111C34.8138 22.1021 35.0218 22.2553 35.2552 22.3604C35.4886 22.4655 35.7421 22.5201 35.9986 22.5205H46.1967C46.674 22.5205 47.1318 22.3331 47.4693 21.9996C47.8068 21.6662 47.9964 21.2139 47.9964 20.7423C47.9964 20.2707 47.8068 19.8184 47.4693 19.4849C47.1318 19.1515 46.674 18.9641 46.1967 18.9641H36.8144L33.1527 14.8317C32.9746 14.6305 32.7528 14.4716 32.504 14.3667C32.2551 14.2619 31.9856 14.2138 31.7153 14.2262C31.4451 14.2385 31.1811 14.3108 30.9431 14.4378C30.705 14.5648 30.499 14.7432 30.3404 14.9597L24.2815 23.2483L17.8123 10.4645H17.8099Z" fill="#C51AB4"/>
</svg>
