<svg width="32" height="32" viewBox="0 0 32 32" fill="none" xmlns="http://www.w3.org/2000/svg">
<circle opacity="0.1" cx="16" cy="16" r="16" fill="#18A0FB"/>
<path d="M21.5 15V11C21.5 10.8674 21.4473 10.7402 21.3536 10.6464C21.2598 10.5527 21.1326 10.5 21 10.5H11C10.8674 10.5 10.7402 10.5527 10.6464 10.6464C10.5527 10.7402 10.5 10.8674 10.5 11V15C10.1022 15 9.72064 15.158 9.43934 15.4393C9.15804 15.7206 9 16.1022 9 16.5V21.5H10.125V20.5H21.875V21.5H23V16.5C23 16.1022 22.842 15.7206 22.5607 15.4393C22.2794 15.158 21.8978 15 21.5 15ZM15.5 15H11.75V14C11.75 13.8674 11.8027 13.7402 11.8964 13.6464C11.9902 13.5527 12.1174 13.5 12.25 13.5H15C15.1326 13.5 15.2598 13.5527 15.3536 13.6464C15.4473 13.7402 15.5 13.8674 15.5 14V15ZM16.5 14C16.5 13.8674 16.5527 13.7402 16.6464 13.6464C16.7402 13.5527 16.8674 13.5 17 13.5H19.75C19.8826 13.5 20.0098 13.5527 20.1036 13.6464C20.1973 13.7402 20.25 13.8674 20.25 14V15H16.5V14Z" fill="#18A0FB"/>
</svg>
