<svg width="14" height="12" viewBox="0 0 14 12" fill="none" xmlns="http://www.w3.org/2000/svg">
<path d="M12.5 5V1C12.5 0.867392 12.4473 0.740215 12.3536 0.646447C12.2598 0.552679 12.1326 0.5 12 0.5H2C1.86739 0.5 1.74021 0.552679 1.64645 0.646447C1.55268 0.740215 1.5 0.867392 1.5 1V5C1.10218 5 0.720644 5.15804 0.43934 5.43934C0.158035 5.72064 0 6.10218 0 6.5V11.5H1.125V10.5H12.875V11.5H14V6.5C14 6.10218 13.842 5.72064 13.5607 5.43934C13.2794 5.15804 12.8978 5 12.5 5ZM6.5 5H2.75V4C2.75 3.86739 2.80268 3.74021 2.89645 3.64645C2.99021 3.55268 3.11739 3.5 3.25 3.5H6C6.13261 3.5 6.25979 3.55268 6.35355 3.64645C6.44732 3.74021 6.5 3.86739 6.5 4V5ZM7.5 4C7.5 3.86739 7.55268 3.74021 7.64645 3.64645C7.74021 3.55268 7.86739 3.5 8 3.5H10.75C10.8826 3.5 11.0098 3.55268 11.1036 3.64645C11.1973 3.74021 11.25 3.86739 11.25 4V5H7.5V4Z" fill="#18A0FB"/>
</svg>
