<svg width="24" height="24" viewBox="0 0 24 24" fill="none" xmlns="http://www.w3.org/2000/svg">
<path d="M23.844 10.267C23.7881 9.90341 23.7042 9.21816 22.949 9.21816C22.2218 9.21816 22.0959 9.86146 22.012 10.239C21.3547 13.4276 18.5019 15.763 15.2154 15.791C15.2015 15.791 15.1875 15.791 15.1735 15.791C11.8451 15.791 9.03421 13.4975 8.32099 10.1971C7.63574 7.06452 9.29992 3.80608 12.2647 2.47753C12.5304 2.35167 12.8241 2.28175 13.1177 2.19784C13.4254 2.11393 13.7471 2.03002 14.0407 1.89018C14.3624 1.73634 14.726 1.33079 14.726 1.02312C14.726 0.771399 14.4323 0.533659 14.1666 0.337873C14.1246 0.295919 14.0687 0.267949 14.0267 0.225995C13.9149 0.142087 13.761 0.128102 13.6212 0.114118C13.5792 0.114118 13.5373 0.114118 13.5093 0.100133C10.0831 -0.333393 6.65681 0.71546 4.08362 2.967C1.51044 5.23252 0.0140714 8.50494 8.67117e-05 11.9452C-0.013898 15.6931 1.66427 19.1613 4.61504 21.4548C6.7547 23.119 9.3139 24 11.943 24C12.922 24 13.9149 23.8741 14.9078 23.6224C17.7746 22.8952 20.2639 21.1611 21.9001 18.7278C23.5643 16.2804 24.2636 13.2737 23.844 10.267ZM8.79647 14.812C10.4467 16.5881 12.9639 17.595 15.5231 17.5251C17.9704 17.4552 20.222 16.3783 21.9001 14.4904C21.1869 18.6998 16.502 22.3498 11.8591 22.2659C9.20202 22.21 6.72673 21.1891 4.88075 19.413C3.02078 17.609 1.91599 15.1337 1.76216 12.4346C1.58036 9.13425 2.93688 6.79881 4.11159 5.42831C5.52405 3.75014 7.49589 2.54746 9.53766 2.08596C7.20221 4.18367 6.58688 6.57505 6.47501 8.25322C6.33516 10.6866 7.17424 13.0779 8.79647 14.812Z" fill="#64748B"/>
<path d="M13.3415 7.19042C12.95 7.19042 12.5444 7.19042 12.1528 7.19042C11.7892 7.19042 11.5235 7.27433 11.3417 7.45613C11.1879 7.60996 11.118 7.81973 11.118 8.08544C11.118 8.61686 11.4956 8.93851 12.1249 8.93851C12.5304 8.93851 12.936 8.93851 13.3276 8.93851C13.4814 8.93851 13.6212 8.93851 13.7751 8.93851L13.7891 8.98046C13.5933 9.17625 13.3835 9.37203 13.1877 9.55384C12.6283 10.0992 12.041 10.6586 11.5096 11.246C11.2858 11.4837 11.118 11.9872 11.2299 12.3088C11.3278 12.6025 11.8452 12.8263 12.1389 12.8402C12.6843 12.8682 13.2437 12.8682 13.7891 12.8682C14.0967 12.8682 14.4044 12.8682 14.7121 12.8682C15.0197 12.8682 15.3274 12.8682 15.635 12.8682C15.663 12.8682 15.677 12.8682 15.705 12.8682C16.572 12.8682 16.7538 12.3927 16.7678 11.9872C16.7678 11.7215 16.6979 11.5257 16.544 11.3718C16.3622 11.19 16.0826 11.1061 15.7189 11.1061C15.3414 11.1061 14.9498 11.1061 14.5163 11.1061H14.0967C14.2925 10.9104 14.4883 10.7286 14.6701 10.5328C15.2854 9.93142 15.8588 9.35805 16.4042 8.77069C16.614 8.54694 16.8237 8.0295 16.6839 7.74981C16.5301 7.44214 16.0546 7.21839 15.7189 7.19042C14.9358 7.17643 14.1247 7.19042 13.3415 7.19042Z" fill="#64748B"/>
<path d="M19.2431 1.73634C19.6626 1.73634 20.0821 1.73634 20.5017 1.73634H20.9772L21.0051 1.79228C20.8093 1.98807 20.6136 2.18385 20.4038 2.36565C19.8304 2.92504 19.2291 3.48443 18.6837 4.08577C18.4599 4.32351 18.2921 4.81298 18.404 5.09267C18.5159 5.38635 18.9773 5.63807 19.285 5.65206C19.8724 5.68003 20.4737 5.68003 21.0751 5.68003C21.5366 5.68003 21.998 5.68003 22.4456 5.66604H22.991C23.3126 5.66604 23.5643 5.58214 23.7322 5.40033C23.886 5.2465 23.9559 5.02275 23.9419 4.75704C23.9279 4.37945 23.7601 3.94593 22.991 3.94593C22.5714 3.94593 22.1659 3.94593 21.7044 3.94593H21.2988C21.3268 3.91796 21.3547 3.88999 21.3827 3.86202C21.5086 3.72217 21.6065 3.61029 21.7044 3.5124C21.9002 3.31661 22.082 3.13481 22.2777 2.93903C22.7253 2.5055 23.1867 2.044 23.6063 1.56852C23.83 1.3168 23.9419 0.827335 23.858 0.547641C23.7741 0.281932 23.3126 0.0441917 23.0049 0.030207C21.998 -0.0117472 20.9632 0.00223755 19.9563 0.00223755C19.7185 0.00223755 19.4668 0.00223755 19.2291 0.00223755C18.9494 0.00223755 18.7256 0.0721611 18.5718 0.212008C18.404 0.36584 18.3201 0.57561 18.3201 0.855305C18.3201 1.41469 18.6557 1.72236 19.2431 1.73634Z" fill="#64748B"/>
</svg>
