<svg width="32" height="32" viewBox="0 0 32 32" fill="none" xmlns="http://www.w3.org/2000/svg">
<circle opacity="0.1" cx="16" cy="16" r="16" fill="#18A0FB"/>
<g clip-path="url(#clip0_1851_11272)">
<path d="M15.752 8.06602C15.8275 8.02288 15.913 8.00018 16 8.00018C16.087 8.00018 16.1725 8.02288 16.248 8.06602L19.998 10.209C20.0745 10.2527 20.1381 10.3159 20.1824 10.3921C20.2266 10.4683 20.25 10.5549 20.25 10.643V14.638L23.748 16.638C23.8242 16.6816 23.8877 16.7444 23.9319 16.8203C23.9761 16.8961 23.9996 16.9822 24 17.07V21.356C24 21.4442 23.9766 21.5307 23.9324 21.6069C23.8881 21.6831 23.8245 21.7463 23.748 21.79L19.998 23.933C19.9225 23.9762 19.837 23.9989 19.75 23.9989C19.663 23.9989 19.5775 23.9762 19.502 23.933L16 21.933L12.498 23.934C12.4225 23.9772 12.337 23.9999 12.25 23.9999C12.163 23.9999 12.0775 23.9772 12.002 23.934L8.252 21.791C8.17547 21.7473 8.11186 21.6841 8.06761 21.6079C8.02335 21.5317 8.00003 21.4452 8 21.357V17.071C8.00003 16.9829 8.02335 16.8963 8.06761 16.8201C8.11186 16.7439 8.17547 16.6807 8.252 16.637L11.75 14.638V10.643C11.75 10.5549 11.7734 10.4683 11.8176 10.3921C11.8619 10.3159 11.9255 10.2527 12.002 10.209L15.752 8.06602ZM12.25 15.504L9.508 17.071L12.25 18.638L14.992 17.071L12.25 15.504ZM15.5 17.933L12.75 19.504V22.638L15.5 21.067V17.933ZM16.5 21.067L19.25 22.638V19.504L16.5 17.933V21.067ZM17.008 17.071L19.75 18.638L22.492 17.071L19.75 15.504L17.008 17.071ZM19.25 14.638V11.504L16.5 13.076V16.21L19.25 14.638V14.638ZM15.5 16.21V13.076L12.75 11.504V14.638L15.5 16.21ZM13.258 10.643L16 12.21L18.742 10.643L16 9.07602L13.258 10.643ZM23 17.933L20.25 19.504V22.638L23 21.067V17.933ZM11.75 22.638V19.504L9 17.933V21.067L11.75 22.638Z" fill="#18A0FB"/>
</g>
<defs>
<clipPath id="clip0_1851_11272">
<rect width="16" height="16" fill="white" transform="translate(8 8)"/>
</clipPath>
</defs>
</svg>
