<svg fill="none" height="12" viewBox="0 0 12 12" width="12" xmlns="http://www.w3.org/2000/svg"><path clip-rule="evenodd" d="m6 1.125c-2.69239 0-4.875 2.18261-4.875 4.875 0 2.69242 2.18261 4.875 4.875 4.875 2.69242 0 4.875-2.18258 4.875-4.875 0-2.69239-2.18258-4.875-4.875-4.875zm-6 4.875c0-3.31371 2.68629-6 6-6 3.31373 0 6 2.68629 6 6 0 3.31373-2.68627 6-6 6-3.31371 0-6-2.68627-6-6zm6.75 2.25c0 .41422-.33578.75-.75.75-.41421 0-.75-.33578-.75-.75 0-.41423.33579-.75.75-.75.41422 0 .75.33577.75.75zm-1.55938-3.68594c.06038-.12078.14212-.22443.25421-.29916.10857-.07237.2786-.1399.55517-.1399.20981 0 .41468.06492.55313.16875.12342.09256.19687.21382.19687.39375 0 .13246-.03061.19786-.05788.23876-.03401.05103-.09269.10745-.20728.18386-.05729.03819-.11893.07531-.19418.12046l-.0046.00276-.00002.00001c-.07027.04217-.15326.09196-.23481.14632-.16667.11113-.3658.26567-.51928.49592-.17231.25849-.10244.60772.15606.78004.25849.1723.60773.10243.78003-.15606.03402-.05105.0927-.10748.20728-.18387.05729-.03819.11893-.07531.19418-.12046l.00466-.0028.00004-.00002c.07024-.04215.1532-.09192.23471-.14627.16665-.11111.36579-.26562.51927-.49585.16027-.24034.24682-.52651.24682-.8628 0-.57007-.2703-1.01131-.64688-1.29375-.36156-.27117-.81294-.39375-1.22812-.39375-.47343 0-.8659.11997-1.17921.32885-.30979.20652-.5093.47787-.63641.73209-.13893.27786-.02631.61575.25156.75468.27786.13893.61575.0263.75468-.25156z" fill="#64748b" fill-rule="evenodd"/></svg>