<svg width="20" height="20" viewBox="0 0 20 20" fill="none" xmlns="http://www.w3.org/2000/svg">
<path d="M0.917809 0.625H1.79687V0.905C3.02062 1.17875 3.19656 2.31469 3.26562 2.74875C3.29843 2.95406 3.365 3.35563 3.4475 3.8475H18.7537C19.3594 3.8475 19.4272 4.41344 19.3481 4.72656L17.5525 12.6538C17.4737 12.9669 17.1422 13.2225 16.8172 13.2225H3.39718C3.07406 13.2225 2.81062 13.4853 2.81062 13.8084C2.81062 14.1316 3.07406 14.3944 3.39718 14.3944H18.0453C18.2007 14.3944 18.3497 14.4561 18.4596 14.566C18.5695 14.6759 18.6312 14.8249 18.6312 14.9803C18.6312 15.1357 18.5695 15.2847 18.4596 15.3946C18.3497 15.5045 18.2007 15.5662 18.0453 15.5662H17.2859C17.6526 15.7687 17.9582 16.0657 18.1711 16.4264C18.3839 16.7872 18.4961 17.1984 18.4959 17.6172H17.91C17.91 18.5875 17.1225 19.375 16.1522 19.375C15.1819 19.375 14.3944 18.5875 14.3944 17.6172H13.8084C13.8084 17.1983 13.9206 16.7871 14.1335 16.4264C14.3463 16.0657 14.6521 15.7687 15.0187 15.5662H6.73937C7.10606 15.7687 7.41177 16.0657 7.62464 16.4264C7.83751 16.7871 7.94975 17.1983 7.94968 17.6172H7.36375C7.35506 18.0777 7.16602 18.5165 6.83725 18.8391C6.50848 19.1617 6.06625 19.3425 5.60562 19.3425C5.145 19.3425 4.70276 19.1617 4.37399 18.8391C4.04523 18.5165 3.85618 18.0777 3.8475 17.6172H3.26156C3.26152 17.1984 3.37375 16.7872 3.58656 16.4265C3.79936 16.0658 4.10497 15.7688 4.47156 15.5662H3.39656C2.93043 15.566 2.48347 15.3807 2.15387 15.0511C1.82427 14.7215 1.63899 14.2746 1.63875 13.8084C1.63879 13.5776 1.6843 13.3489 1.7727 13.1357C1.86109 12.9224 1.99062 12.7286 2.15391 12.5653C2.3172 12.4021 2.51103 12.2727 2.72435 12.1843C2.93768 12.096 3.1663 12.0506 3.39718 12.0506H3.615L2.86562 7.39125C2.65687 6.16062 2.20687 3.50219 2.10125 2.84094C2.04812 2.50687 1.99656 2.27219 1.79687 2.14062V2.3825H0.917809C0.840281 2.38225 0.765991 2.35137 0.711142 2.29658C0.65629 2.24178 0.625326 2.16753 0.624996 2.09V0.918125C0.62516 0.840488 0.656054 0.766074 0.710922 0.711147C0.765791 0.65622 0.840172 0.625248 0.917809 0.625ZM16.1522 18.4963C16.3852 18.496 16.6087 18.4033 16.7735 18.2385C16.9383 18.0737 17.031 17.8503 17.0312 17.6172H15.2734C15.2737 17.8502 15.3663 18.0736 15.5311 18.2384C15.6958 18.4032 15.9192 18.4959 16.1522 18.4963ZM5.60531 18.4963C5.83843 18.4961 6.06196 18.4034 6.22683 18.2386C6.3917 18.0738 6.48444 17.8503 6.48468 17.6172H4.72625C4.72666 17.8502 4.81941 18.0736 4.98417 18.2383C5.14894 18.4031 5.37229 18.4958 5.60531 18.4963ZM6.32625 5.31063C6.31593 5.2312 6.27745 5.15812 6.21781 5.10467C6.15817 5.05122 6.08132 5.02095 6.00125 5.01937H4.14593C3.98468 5.01937 3.8725 5.14937 3.89781 5.30906L4.08156 6.4875C4.10593 6.64687 4.25875 6.77719 4.42031 6.77719H6.19C6.22726 6.77817 6.2643 6.77108 6.29856 6.75639C6.33282 6.74169 6.36349 6.71976 6.38847 6.69208C6.41344 6.6644 6.43212 6.63165 6.44323 6.59606C6.45434 6.56047 6.4576 6.52291 6.45281 6.48594L6.32625 5.31063ZM6.64156 8.24031C6.63106 8.16097 6.59253 8.088 6.53292 8.03458C6.47332 7.98117 6.39658 7.95083 6.31656 7.94906H4.60312C4.44156 7.94906 4.32968 8.07906 4.35406 8.23875L4.4925 9.12438C4.51718 9.28375 4.66968 9.41406 4.83125 9.41406H6.47406C6.51129 9.41494 6.54828 9.40778 6.58249 9.39305C6.6167 9.37832 6.64733 9.35638 6.67228 9.32873C6.69723 9.30108 6.71592 9.26836 6.72707 9.23283C6.73822 9.19729 6.74156 9.15976 6.73687 9.12281L6.64156 8.24031ZM17.8544 6.49281L18.1512 5.30375C18.19 5.14687 18.0894 5.01937 17.9278 5.01937H15.7219C15.56 5.01937 15.4141 5.15031 15.3969 5.31063L15.2706 6.48625C15.2659 6.52317 15.2693 6.56067 15.2804 6.59619C15.2915 6.6317 15.3102 6.6644 15.3351 6.69205C15.36 6.71969 15.3906 6.74164 15.4248 6.75639C15.459 6.77113 15.4959 6.77834 15.5331 6.7775H17.4897C17.6509 6.7775 17.8153 6.64906 17.8544 6.49281ZM16.8322 9.41406C16.9934 9.41406 17.1578 9.28594 17.1966 9.12969L17.4203 8.23375C17.4594 8.07687 17.3594 7.94938 17.1978 7.94938H15.4075C15.2459 7.94938 15.0997 8.08031 15.0825 8.24063L14.9875 9.12313C14.9828 9.16006 14.9861 9.19758 14.9972 9.23312C15.0083 9.26866 15.0269 9.30137 15.0519 9.32903C15.0768 9.35669 15.1074 9.37864 15.1416 9.39337C15.1758 9.4081 15.2128 9.41526 15.25 9.41438H16.8322V9.41406ZM14.9669 12.0509H16.1747C16.3369 12.0509 16.5003 11.9228 16.5394 11.7666L16.7631 10.8706C16.8019 10.7137 16.7019 10.5863 16.54 10.5863H15.1244C14.9628 10.5863 14.8166 10.7172 14.7987 10.8775L14.7044 11.76C14.6996 11.7969 14.7029 11.8344 14.714 11.8699C14.7251 11.9055 14.7438 11.9382 14.7687 11.9658C14.7937 11.9934 14.8243 12.0154 14.8585 12.0301C14.8927 12.0447 14.9297 12.0519 14.9669 12.0509ZM11.3756 11.7578C11.376 11.8356 11.407 11.91 11.4621 11.9649C11.5171 12.0199 11.5916 12.0508 11.6694 12.0509H13.1978C13.2778 12.0493 13.3546 12.019 13.4142 11.9655C13.4738 11.9121 13.5122 11.8391 13.5225 11.7597L13.6175 10.8772C13.6223 10.8403 13.6191 10.8027 13.6081 10.7672C13.597 10.7316 13.5784 10.6989 13.5535 10.6712C13.5286 10.6435 13.4979 10.6215 13.4637 10.6068C13.4295 10.5921 13.3925 10.585 13.3553 10.5859H11.6694C11.5916 10.5859 11.5169 10.6168 11.4619 10.6718C11.4068 10.7267 11.3758 10.8013 11.3756 10.8791V11.7578ZM11.3756 9.12125C11.376 9.199 11.407 9.27346 11.4621 9.32838C11.5171 9.3833 11.5916 9.41421 11.6694 9.41438H13.4812C13.6425 9.41438 13.7881 9.28344 13.8062 9.12313L13.9006 8.24063C13.9054 8.20371 13.9022 8.1662 13.8911 8.13066C13.88 8.09512 13.8614 8.06239 13.8365 8.03473C13.8116 8.00706 13.781 7.98511 13.7468 7.97038C13.7126 7.95564 13.6756 7.94848 13.6384 7.94938H11.6694C11.5916 7.94937 11.5169 7.98024 11.4619 8.03519C11.4068 8.09015 11.3758 8.1647 11.3756 8.2425V9.12125ZM11.3756 6.48438C11.376 6.56212 11.407 6.63658 11.4621 6.6915C11.5171 6.74642 11.5916 6.77734 11.6694 6.7775H13.7637C13.8438 6.77592 13.9207 6.74565 13.9803 6.6922C14.04 6.63875 14.0784 6.56567 14.0887 6.48625L14.215 5.31063C14.2197 5.27369 14.2164 5.23617 14.2053 5.20063C14.1942 5.16509 14.1756 5.13238 14.1506 5.10472C14.1257 5.07706 14.0951 5.05511 14.0609 5.04038C14.0267 5.02565 13.9897 5.01849 13.9525 5.01937H11.6691C11.5913 5.01937 11.5166 5.05024 11.4616 5.10519C11.4065 5.16015 11.3755 5.2347 11.3753 5.3125V6.48438H11.3756ZM8.20093 11.7597C8.21131 11.8391 8.2498 11.9121 8.30943 11.9656C8.36907 12.019 8.44588 12.0493 8.52593 12.0509H9.90718C9.9849 12.0508 10.0594 12.0198 10.1144 11.9649C10.1694 11.91 10.2004 11.8355 10.2006 11.7578V10.8787C10.2005 10.801 10.1695 10.7265 10.1145 10.6716C10.0595 10.6166 9.98493 10.5857 9.90718 10.5856H8.36843C8.20718 10.5856 8.08843 10.7166 8.10593 10.8769L8.20093 11.7597ZM7.91781 9.12281C7.92818 9.20221 7.96668 9.27525 8.02631 9.32869C8.08594 9.38213 8.16275 9.41242 8.24281 9.41406H9.90718C9.9849 9.4139 10.0594 9.38297 10.1144 9.32804C10.1694 9.27312 10.2004 9.19866 10.2006 9.12094V8.24188C10.2005 8.16413 10.1695 8.08962 10.1145 8.03468C10.0595 7.97973 9.98493 7.94883 9.90718 7.94875H8.08531C7.92375 7.94875 7.80531 8.07969 7.82312 8.24L7.91781 9.12281ZM7.63468 6.48625C7.64506 6.56565 7.68355 6.63869 7.74319 6.69213C7.80282 6.74557 7.87963 6.77586 7.95968 6.7775H9.90718C9.9849 6.77734 10.0594 6.74641 10.1144 6.69148C10.1694 6.63656 10.2004 6.56209 10.2006 6.48438V5.3125C10.2005 5.23476 10.1695 5.16025 10.1145 5.1053C10.0595 5.05036 9.98493 5.01946 9.90718 5.01937H7.77062C7.60906 5.01937 7.49062 5.15031 7.50781 5.31063L7.63468 6.48625ZM5.37468 12.0509V12.0487L5.37718 12.0509H6.75718C6.76625 12.0509 6.77406 12.0466 6.78312 12.0453C6.78468 12.0347 6.78468 12.0241 6.78656 12.0128L6.80031 12.0416C6.7965 12.0426 6.79264 12.0434 6.78875 12.0441C6.93281 12.0275 7.03593 11.9084 7.01937 11.7597L6.925 10.8772C6.9145 10.7978 6.87597 10.7249 6.81636 10.6715C6.75676 10.618 6.68001 10.5877 6.6 10.5859H5.01375C4.85218 10.5859 4.74093 10.7159 4.76531 10.8756L4.90375 11.7613C4.92781 11.9206 5.08031 12.0509 5.24187 12.0509H5.37468Z" fill="white"/>
</svg>
