<svg width="24" height="24" viewBox="0 0 24 24" fill="none" xmlns="http://www.w3.org/2000/svg">
<path fill-rule="evenodd" clip-rule="evenodd" d="M3 2C3.55228 2 4 2.44772 4 3V20H21C21.5523 20 22 20.4477 22 21C22 21.5523 21.5523 22 21 22H3C2.44772 22 2 21.5523 2 21V3C2 2.44772 2.44772 2 3 2Z" fill="#64748B"/>
<path fill-rule="evenodd" clip-rule="evenodd" d="M21.2204 2.02456C21.6763 2.12757 22 2.5326 22 2.99998V17C22 17.5523 21.5523 18 21 18H7C6.65342 18 6.33156 17.8205 6.14935 17.5257C5.96714 17.2309 5.95058 16.8628 6.10557 16.5528L10.1056 8.55276C10.2452 8.27354 10.5072 8.07553 10.8139 8.01744C11.1207 7.95935 11.4369 8.04784 11.669 8.25668L15.6731 11.8604L20.0971 2.57004C20.2981 2.14807 20.7645 1.92156 21.2204 2.02456ZM20 7.42592L16.9029 13.9299C16.7672 14.2148 16.505 14.419 16.1955 14.4807C15.886 14.5424 15.5656 14.4544 15.331 14.2433L11.3071 10.6218L8.61803 16H20V7.42592Z" fill="#64748B"/>
</svg>
