<svg fill="none" height="16" viewBox="0 0 12 16" width="12" xmlns="http://www.w3.org/2000/svg"><path clip-rule="evenodd" d="m5.42148 11.033c.31951.3195.83756.3195 1.15708 0l4.09084-4.09087c.3196-.31952.3196-.83757 0-1.15709-.3195-.31951-.83745-.31951-1.15698 0l-2.69422 2.69419v-7.29746c0-.451867-.36632-.818184-.81818-.818184-.45187 0-.81818.366317-.81818.818184v7.29746l-2.69419-2.69419c-.31952-.31951-.83757-.31951-1.15708 0-.31952.31952-.31952.83757 0 1.15709zm-4.05783 2.4216c-.451862 0-.818179.3663-.818179.8182 0 .4518.366317.8182.818179.8182h9.27275c.4518 0 .8182-.3664.8182-.8182 0-.4519-.3664-.8182-.8182-.8182z" fill="#fff" fill-rule="evenodd"/></svg>