<svg width="32" height="32" viewBox="0 0 32 32" fill="none" xmlns="http://www.w3.org/2000/svg">
<circle opacity="0.1" cx="16" cy="16" r="16" fill="url(#paint0_linear_3227_14137)"/>
<path d="M22.8725 14.6118L22.8683 14.5795C22.8607 14.5391 22.847 14.5 22.8277 14.4637L20.8001 11.2C20.8001 11.2 20.5416 10.88 20.4801 10.88H11.8401L9.24173 14.353L9.21101 14.385L9.20685 14.4C9.1849 14.4353 9.16687 14.4728 9.15309 14.512L9.14253 14.543C9.11259 14.6424 9.11404 14.7486 9.14669 14.847L9.15885 14.8819C9.17517 14.9232 9.19533 14.961 9.21901 14.9946L15.5009 22.952L15.5137 22.9702C15.546 23.0118 15.5854 23.0486 15.6334 23.0822L15.6699 23.105C15.7057 23.1274 15.7432 23.1453 15.7976 23.1651L15.8331 23.177C15.8945 23.1926 15.948 23.2 16.0001 23.2C16.0529 23.2 16.1044 23.193 16.1739 23.175L16.2165 23.16C16.258 23.1453 16.2955 23.127 16.3406 23.0992L16.3688 23.0816C16.4171 23.0474 16.4558 23.0102 16.4772 22.9811L22.7672 15.0154C22.8228 14.9412 22.8591 14.8543 22.8728 14.7626L22.8776 14.7213L22.8801 14.6886L22.8725 14.6118ZM19.4997 14.4L20.395 12.7798L21.2897 14.4H19.4997ZM18.9627 15.36H21.0869L17.5464 19.8448L18.9627 15.36ZM18.4373 13.9142L17.1441 12.16H19.4065L18.4373 13.9142ZM14.2952 15.36H17.706L16.0001 20.7606L14.2952 15.36ZM14.6334 14.4L16.0001 12.5453L17.3668 14.4H14.6334ZM13.6709 13.769L13.0782 12.16H14.8565L13.6709 13.769ZM14.4545 19.8451L10.9137 15.36H13.0382L14.4545 19.8451ZM12.0529 12.791L12.6459 14.4H10.8673L12.0529 12.791Z" fill="url(#paint1_linear_3227_14137)"/>
<defs>
<linearGradient id="paint0_linear_3227_14137" x1="-19.04" y1="14.3333" x2="25.4997" y2="36.1234" gradientUnits="userSpaceOnUse">
<stop stop-color="#18A0FB"/>
<stop offset="1" stop-color="#B800E7"/>
</linearGradient>
<linearGradient id="paint1_linear_3227_14137" x1="0.934467" y1="16.3983" x2="19.2124" y2="26.3849" gradientUnits="userSpaceOnUse">
<stop stop-color="#18A0FB"/>
<stop offset="1" stop-color="#B800E7"/>
</linearGradient>
</defs>
</svg>
