<svg fill="none" height="16" viewBox="0 0 16 16" width="16" xmlns="http://www.w3.org/2000/svg"><path d="m13.6572 13.6573c3.1243-3.1243 3.1243-8.18979 0-11.31407-3.1243-3.124287-8.18974-3.124287-11.31403 0-3.12428 3.12428-3.12428 8.18977 0 11.31407 3.12429 3.1242 8.18973 3.1242 11.31403 0z" fill="#fee475"/><path d="m13.5125 13.5126c3.0444-3.0444 3.0444-7.98032 0-11.0247-3.0444-3.04439-7.9803-3.04439-11.02469 0-3.044384 3.04438-3.044384 7.9803 0 11.0247 3.04439 3.0444 7.98029 3.0444 11.02469 0z" fill="#fed425"/><g fill="#fff"><path d="m13.528 2.50378-11.02409 11.02362c.74514.741 1.63228 1.3238 2.6082 1.7135l10.12889-10.12892c-.3898-.97575-.9724-1.86284-1.713-2.6082z"/><path d="m15.5996 9.73572-5.86376 5.86378c1.42966-.3277 2.73796-1.0516 3.77516-2.0887 1.0371-1.0371 1.7609-2.3455 2.0886-3.77508z"/><path d="m4.17208 1.21008-2.96175 2.96176c-.330691.58367-.584 1.2079-.753543 1.85696l5.572253-5.572257c-.64906.169543-1.27329.422852-1.85696.753537z"/><path d="m12.501 1.63672-10.86404 10.86408c.12644.1784.25977.3521.40091.519l10.98223-10.98217c-.1669-.14115-.3407-.27402-.5191-.40091z"/><path d="m8.15346 13.7931c3.11964 0 5.64854-2.5289 5.64854-5.64856 0-3.11962-2.5289-5.64857-5.64854-5.64857-3.11962 0-5.64858 2.52895-5.64858 5.64857 0 3.11966 2.52896 5.64856 5.64858 5.64856z"/></g><path d="m11.9944 11.9944c2.2059-2.20592 2.2059-5.7824 0-7.9883-2.20591-2.20591-5.78239-2.2059-7.98829 0-2.20591 2.20591-2.20591 5.78238 0 7.9883 2.2059 2.2059 5.78238 2.2059 7.98829 0z" fill="#feb724"/><path d="m2.65827 8.30685c-.00013-1.09869.32021-2.17356.92177-3.09293.60157-.91937 1.45823-1.64331 2.46504-2.08313 1.00682-.43983 2.12006-.57643 3.20334-.39308s2.08958.6787 2.89558 1.42535c-.5162-.55808-1.1397-1.00621-1.8332-1.31753-.69357-.31132-1.4428-.47942-2.20285-.49424-.76004-.01481-1.51526.12396-2.22039.40802-.70512.28405-1.34564.70753-1.88318 1.24507s-.96102 1.17806-1.24507 1.88318c-.28406.70513-.42283 1.46035-.40802 2.22039.01482.76005.18292 1.50928.49424 2.20285.31132.6935.75945 1.317 1.31753 1.8332-.96896-1.0426-1.50668-2.4138-1.50479-3.83715z" fill="#fb9d12"/><path d="m7.99977.306672c4.36773 0 7.91383 3.499668 7.99613 7.846668 0-.05103.0036-.1016.0036-.1531.0001-1.05054-.2068-2.0908-.6088-3.06139s-.9912-1.8525-1.7341-2.59537c-.7428-.74286-1.6247-1.33215-2.5952-1.734202-.9706-.402054-2.01086-.60900367-3.0614-.60903386-1.05054-.00003018-2.09081.20685986-3.0614.60885786s-1.85249.991228-2.59536 1.734058c-1.50029 1.5002-2.34317903 3.53495-2.34324 5.65662 0 .0515.00275854.10207.00367806.1531.08229644-4.34654 3.62840194-7.846208 7.99609194-7.846208z" fill="#fff"/></svg>