<svg width="32" height="32" viewBox="0 0 32 32" fill="none" xmlns="http://www.w3.org/2000/svg">
<circle opacity="0.1" cx="16" cy="16" r="16" fill="white"/>
<path fill-rule="evenodd" clip-rule="evenodd" d="M14.0349 10.0587C13.8392 10.1802 13.7805 10.2753 13.7666 10.4932C13.7595 10.6045 13.769 10.7509 13.7877 10.8186C13.8184 10.9296 13.8087 10.9741 13.6904 11.2693C13.4352 11.9061 13.157 12.7738 13.0222 13.3532L12.9592 13.6241L13.2549 13.6019C13.4175 13.5897 13.7249 13.5663 13.938 13.5498C14.1512 13.5333 14.7252 13.5197 15.2137 13.5194C16.1386 13.519 16.6239 13.556 17.3029 13.6791C17.6048 13.7338 17.6922 13.7386 17.8336 13.7083C18.0524 13.6613 18.3336 13.6877 18.4939 13.7703C18.8506 13.954 19.0489 14.3976 18.9618 14.8172C18.9278 14.9808 18.9343 15.0287 19.0531 15.4911C19.3018 16.4587 19.4816 17.5058 19.5279 18.2576L19.5504 18.6209H20.396C20.8611 18.6209 21.4003 18.6033 21.5943 18.5818C21.9432 18.5432 22.2335 18.5372 22.6415 18.5605C22.9069 18.5756 23.0449 18.5044 23.1525 18.2972C23.2186 18.1701 23.2247 18.1273 23.2036 17.9427C23.1623 17.5815 23.1742 17.4857 23.3017 17.1515C23.5456 16.5127 23.7273 15.5908 23.804 14.6036C23.8218 14.3746 23.8364 13.7838 23.8364 13.2908C23.8364 12.4034 23.8372 12.3927 23.9168 12.2217C24.133 11.7572 23.9144 11.3922 23.4165 11.3862C23.2246 11.3839 23.1708 11.3668 22.7061 11.1604C21.864 10.7864 20.6439 10.4886 19.2021 10.305C18.0929 10.1638 17.3213 10.1179 15.9565 10.1118C14.8446 10.1068 14.6648 10.0992 14.5558 10.0522C14.3888 9.98015 14.1566 9.98306 14.0349 10.0587ZM13.6635 13.9561C12.1477 14.087 10.3398 14.387 9.29076 14.6816C8.97773 14.7695 8.90943 14.778 8.67513 14.759C8.37621 14.7348 8.27342 14.7688 8.12967 14.9396C7.96423 15.1363 7.95741 15.3558 8.10742 15.6562C8.17844 15.7984 8.1787 15.8039 8.12935 16.1367C7.93978 17.4147 7.98619 18.8912 8.25036 19.9866C8.34304 20.371 8.50355 20.885 8.61167 21.1439C8.67794 21.3025 8.68524 21.36 8.66932 21.5961C8.65259 21.8437 8.65746 21.8758 8.72709 21.9766C8.8905 22.213 9.1187 22.2849 9.45204 22.2049C9.60367 22.1686 9.65757 22.1702 9.85263 22.2173C10.2988 22.325 10.75 22.3707 11.5482 22.3892C13.6649 22.4383 16.2998 22.0605 17.9103 21.4771C18.2108 21.3682 18.4048 21.3182 18.5931 21.301C18.9086 21.2723 19.0835 21.1861 19.1821 21.0106C19.2721 20.8506 19.2695 20.6493 19.1749 20.4456C19.0636 20.2059 19.0536 20.1058 19.1058 19.7592C19.1342 19.571 19.1532 19.2108 19.1531 18.8631C19.1529 17.9027 19.0255 16.9986 18.7137 15.7467C18.5359 15.0327 18.5334 15.0163 18.5709 14.8059C18.6162 14.552 18.582 14.3805 18.4561 14.2309C18.3325 14.0841 18.1708 14.0475 17.8646 14.0972C17.6468 14.1326 17.5792 14.1311 17.3736 14.0861C16.7813 13.9566 16.4715 13.9316 15.3267 13.9208C14.5357 13.9133 14.0364 13.9239 13.6635 13.9561Z" fill="#CBD5E1"/>
</svg>
