<svg fill="none" height="24" viewBox="0 0 24 24" width="24" xmlns="http://www.w3.org/2000/svg" xmlns:xlink="http://www.w3.org/1999/xlink"><linearGradient id="a"><stop offset="0" stop-color="#c4c4c4"/><stop offset=".0001" stop-color="#18a0fb"/><stop offset="1" stop-color="#426bff"/></linearGradient><linearGradient id="b" gradientUnits="userSpaceOnUse" x1="12" x2="12" xlink:href="#a" y1="1" y2="23"/><linearGradient id="c" gradientUnits="userSpaceOnUse" x1="12" x2="12" xlink:href="#a" y1="14" y2="19"/><g clip-rule="evenodd" fill-rule="evenodd"><path d="m8 7c0-2.20914 1.79088-4 4-4 2.2091 0 4 1.79086 4 4v3h-8zm-2 3v-3c0-3.31371 2.68632-6 6-6 3.3137 0 6 2.68629 6 6v3h2c1.1046 0 2 .8954 2 2v9c0 1.1046-.8954 2-2 2h-16c-1.10457 0-2-.8954-2-2v-9c0-1.1046.89543-2 2-2zm11 2h-10-3v9h16v-9z" fill="url(#b)"/><path d="m12 14c.5523 0 1 .4477 1 1v3c0 .5523-.4477 1-1 1s-1-.4477-1-1v-3c0-.5523.4477-1 1-1z" fill="url(#c)"/></g></svg>