<svg width="42" height="42" viewBox="0 0 42 42" fill="none" xmlns="http://www.w3.org/2000/svg">
<path d="M39.3399 1.12C37.9063 0.873065 36.4546 0.74596 34.9999 0.739999C30.0367 0.73593 25.1769 2.15915 20.9999 4.84C16.8122 2.19434 11.9532 0.806061 6.99993 0.839999C5.54522 0.84596 4.09353 0.973065 2.65992 1.22C2.19034 1.30096 1.76509 1.54692 1.46075 1.91358C1.15642 2.28025 0.992998 2.74353 0.999925 3.22V27.22C0.995642 27.5139 1.05618 27.8051 1.17723 28.0729C1.29827 28.3407 1.47686 28.5785 1.70027 28.7695C1.92369 28.9604 2.18644 29.0998 2.46984 29.1777C2.75323 29.2555 3.05031 29.27 3.33993 29.22C6.20596 28.7238 9.14233 28.8061 11.9761 29.4622C14.8098 30.1182 17.4836 31.3347 19.8399 33.04L20.0799 33.18H20.2999C20.5217 33.2724 20.7596 33.32 20.9999 33.32C21.2402 33.32 21.4781 33.2724 21.6999 33.18H21.9199L22.1599 33.04C24.4998 31.2966 27.166 30.0407 30.0002 29.3467C32.8345 28.6527 35.7792 28.5348 38.6599 29C38.9495 29.05 39.2466 29.0355 39.53 28.9577C39.8134 28.8798 40.0762 28.7404 40.2996 28.5495C40.523 28.3585 40.7016 28.1207 40.8226 27.8529C40.9437 27.5851 41.0042 27.2939 40.9999 27V3C40.9791 2.54431 40.8031 2.10942 40.5012 1.76747C40.1993 1.42553 39.7895 1.19707 39.3399 1.12ZM18.9999 27.7C15.2997 25.7534 11.181 24.7374 6.99993 24.74C6.33993 24.74 5.67992 24.74 4.99993 24.74V4.74C5.66604 4.70161 6.33381 4.70161 6.99993 4.74C11.2667 4.73528 15.4404 5.98738 18.9999 8.34V27.7ZM36.9999 24.82C36.3199 24.82 35.6599 24.82 34.9999 24.82C30.8189 24.8174 26.7002 25.8334 22.9999 27.78V8.34C26.5595 5.98738 30.7332 4.73528 34.9999 4.74C35.666 4.70161 36.3338 4.70161 36.9999 4.74V24.82ZM39.3399 33.12C37.9063 32.8731 36.4546 32.746 34.9999 32.74C30.0367 32.7359 25.1769 34.1591 20.9999 36.84C16.823 34.1591 11.9632 32.7359 6.99993 32.74C5.54522 32.746 4.09353 32.8731 2.65992 33.12C2.39958 33.1613 2.14997 33.2537 1.92545 33.3918C1.70093 33.5299 1.50593 33.7111 1.35166 33.9248C1.19739 34.1386 1.0869 34.3807 1.02653 34.6373C0.966169 34.8939 0.957127 35.1599 0.999925 35.42C1.10156 35.9394 1.40491 36.3973 1.84351 36.6934C2.28211 36.9896 2.8202 37.0998 3.33993 37C6.20596 36.5038 9.14233 36.5861 11.9761 37.2422C14.8098 37.8982 17.4836 39.1147 19.8399 40.82C20.1786 41.0612 20.5841 41.1908 20.9999 41.1908C21.4157 41.1908 21.8212 41.0612 22.1599 40.82C24.5163 39.1147 27.1901 37.8982 30.0238 37.2422C32.8575 36.5861 35.7939 36.5038 38.6599 37C39.1796 37.0998 39.7177 36.9896 40.1563 36.6934C40.5949 36.3973 40.8983 35.9394 40.9999 35.42C41.0427 35.1599 41.0337 34.8939 40.9733 34.6373C40.913 34.3807 40.8025 34.1386 40.6482 33.9248C40.4939 33.7111 40.2989 33.5299 40.0744 33.3918C39.8499 33.2537 39.6003 33.1613 39.3399 33.12Z" fill="url(#paint0_linear_576_6200)"/>
<defs>
<linearGradient id="paint0_linear_576_6200" x1="20.9999" y1="0.73999" x2="20.9999" y2="41.1908" gradientUnits="userSpaceOnUse">
<stop stop-color="#C4C4C4"/>
<stop offset="0.0001" stop-color="#18A0FB"/>
<stop offset="1" stop-color="#426BFF"/>
</linearGradient>
</defs>
</svg>
