<svg width="48" height="48" viewBox="0 0 48 48" fill="none" xmlns="http://www.w3.org/2000/svg">
<path d="M42.3399 4.12C40.9063 3.87307 39.4546 3.74596 37.9999 3.74C33.0367 3.73593 28.1769 5.15915 23.9999 7.84C19.8122 5.19434 14.9532 3.80606 9.99993 3.84C8.54522 3.84596 7.09353 3.97307 5.65992 4.22C5.19034 4.30096 4.76509 4.54692 4.46075 4.91358C4.15642 5.28025 3.993 5.74353 3.99993 6.22V30.22C3.99564 30.5139 4.05618 30.8051 4.17723 31.0729C4.29827 31.3407 4.47686 31.5785 4.70027 31.7695C4.92369 31.9604 5.18644 32.0998 5.46984 32.1777C5.75323 32.2555 6.05031 32.27 6.33993 32.22C9.20596 31.7238 12.1423 31.8061 14.9761 32.4622C17.8098 33.1182 20.4836 34.3347 22.8399 36.04L23.0799 36.18H23.2999C23.5217 36.2724 23.7596 36.32 23.9999 36.32C24.2402 36.32 24.4781 36.2724 24.6999 36.18H24.9199L25.1599 36.04C27.4998 34.2966 30.166 33.0407 33.0002 32.3467C35.8345 31.6527 38.7792 31.5348 41.6599 32C41.9495 32.05 42.2466 32.0355 42.53 31.9577C42.8134 31.8798 43.0762 31.7404 43.2996 31.5495C43.523 31.3585 43.7016 31.1207 43.8226 30.8529C43.9437 30.5851 44.0042 30.2939 43.9999 30V6C43.9791 5.54431 43.8031 5.10942 43.5012 4.76747C43.1993 4.42553 42.7895 4.19707 42.3399 4.12ZM21.9999 30.7C18.2997 28.7534 14.181 27.7374 9.99993 27.74C9.33993 27.74 8.67993 27.74 7.99993 27.74V7.74C8.66604 7.70161 9.33381 7.70161 9.99993 7.74C14.2667 7.73528 18.4404 8.98738 21.9999 11.34V30.7ZM39.9999 27.82C39.3199 27.82 38.6599 27.82 37.9999 27.82C33.8189 27.8174 29.7002 28.8334 25.9999 30.78V11.34C29.5595 8.98738 33.7332 7.73528 37.9999 7.74C38.666 7.70161 39.3338 7.70161 39.9999 7.74V27.82ZM42.3399 36.12C40.9063 35.8731 39.4546 35.746 37.9999 35.74C33.0367 35.7359 28.1769 37.1591 23.9999 39.84C19.823 37.1591 14.9632 35.7359 9.99993 35.74C8.54522 35.746 7.09353 35.8731 5.65992 36.12C5.39958 36.1613 5.14997 36.2537 4.92545 36.3918C4.70093 36.5299 4.50593 36.7111 4.35166 36.9248C4.19739 37.1386 4.0869 37.3807 4.02653 37.6373C3.96617 37.8939 3.95713 38.1599 3.99993 38.42C4.10156 38.9394 4.40491 39.3973 4.84351 39.6934C5.28211 39.9896 5.8202 40.0998 6.33993 40C9.20596 39.5038 12.1423 39.5861 14.9761 40.2422C17.8098 40.8982 20.4836 42.1147 22.8399 43.82C23.1786 44.0612 23.5841 44.1908 23.9999 44.1908C24.4157 44.1908 24.8212 44.0612 25.1599 43.82C27.5163 42.1147 30.1901 40.8982 33.0238 40.2422C35.8575 39.5861 38.7939 39.5038 41.6599 40C42.1796 40.0998 42.7177 39.9896 43.1563 39.6934C43.5949 39.3973 43.8983 38.9394 43.9999 38.42C44.0427 38.1599 44.0337 37.8939 43.9733 37.6373C43.913 37.3807 43.8025 37.1386 43.6482 36.9248C43.4939 36.7111 43.2989 36.5299 43.0744 36.3918C42.8499 36.2537 42.6003 36.1613 42.3399 36.12V36.12Z" fill="url(#paint0_linear_576_6199)"/>
<defs>
<linearGradient id="paint0_linear_576_6199" x1="23.9999" y1="3.73999" x2="23.9999" y2="44.1908" gradientUnits="userSpaceOnUse">
<stop stop-color="#C4C4C4"/>
<stop offset="0.0001" stop-color="#18A0FB"/>
<stop offset="1" stop-color="#426BFF"/>
</linearGradient>
</defs>
</svg>
