<svg width="20" height="20" viewBox="0 0 20 20" fill="none" xmlns="http://www.w3.org/2000/svg">
<circle opacity="0.1" cx="10" cy="10" r="10" fill="white"/>
<path fill-rule="evenodd" clip-rule="evenodd" d="M8.77183 6.28666C8.64949 6.36264 8.61281 6.42206 8.60414 6.55828C8.59972 6.62782 8.60565 6.71931 8.61734 6.76164C8.63647 6.83097 8.63046 6.85882 8.55652 7.04331C8.39701 7.4413 8.2231 7.98365 8.13889 8.34575L8.09951 8.51504L8.2843 8.50119C8.38592 8.49358 8.57806 8.47893 8.71127 8.46861C8.84449 8.45832 9.20326 8.44978 9.50855 8.44962C10.0866 8.44936 10.39 8.47253 10.8143 8.54941C11.003 8.5836 11.0576 8.58661 11.146 8.56766C11.2828 8.53831 11.4585 8.55484 11.5587 8.60643C11.7816 8.72128 11.9055 8.99851 11.8511 9.26072C11.8299 9.363 11.8339 9.39293 11.9082 9.68195C12.0636 10.2867 12.176 10.9411 12.205 11.411L12.219 11.6381H12.7475C13.0382 11.6381 13.3752 11.6271 13.4965 11.6137C13.7145 11.5895 13.8959 11.5858 14.1509 11.6003C14.3168 11.6097 14.4031 11.5653 14.4703 11.4358C14.5116 11.3563 14.5155 11.3296 14.5023 11.2142C14.4764 10.9884 14.4839 10.9286 14.5636 10.7197C14.716 10.3204 14.8296 9.74425 14.8775 9.12726C14.8886 8.9841 14.8977 8.61489 14.8977 8.30676C14.8977 7.75214 14.8982 7.74545 14.948 7.63856C15.0831 7.34827 14.9465 7.12011 14.6353 7.11637C14.5154 7.11494 14.4818 7.10424 14.1913 6.97523C13.665 6.74149 12.9024 6.55535 12.0013 6.44063C11.3081 6.35238 10.8258 6.32368 9.97279 6.31986C9.27786 6.31678 9.16548 6.31199 9.09736 6.2826C8.993 6.23759 8.8479 6.23941 8.77183 6.28666ZM8.53971 8.72255C7.59232 8.80438 6.46239 8.99185 5.80673 9.17597C5.61108 9.23091 5.56839 9.23628 5.42196 9.22439C5.23513 9.20923 5.17088 9.23051 5.08105 9.33728C4.97764 9.46016 4.97338 9.59737 5.06714 9.78511C5.11152 9.87398 5.11168 9.87745 5.08084 10.0854C4.96236 10.8842 4.99137 11.807 5.15647 12.4916C5.2144 12.7319 5.31472 13.0532 5.38229 13.215C5.42371 13.3141 5.42827 13.35 5.41832 13.4975C5.40787 13.6523 5.41092 13.6724 5.45443 13.7354C5.55656 13.8831 5.69919 13.9281 5.90753 13.8781C6.00229 13.8554 6.03598 13.8564 6.15789 13.8858C6.43678 13.9531 6.71873 13.9817 7.21764 13.9933C8.54058 14.0239 10.1874 13.7878 11.1939 13.4232C11.3818 13.3551 11.503 13.3239 11.6207 13.3131C11.8179 13.2952 11.9272 13.2413 11.9888 13.1316C12.0451 13.0316 12.0434 12.9058 11.9843 12.7785C11.9148 12.6287 11.9085 12.5661 11.9411 12.3495C11.9588 12.2319 11.9708 12.0067 11.9707 11.7895C11.9706 11.1892 11.8909 10.6241 11.6961 9.84168C11.5849 9.39545 11.5834 9.3852 11.6068 9.25366C11.6351 9.09497 11.6137 8.98781 11.535 8.89432C11.4578 8.80254 11.3567 8.77969 11.1654 8.81078C11.0292 8.83288 10.987 8.83193 10.8585 8.80383C10.4883 8.72287 10.2947 8.70723 9.57919 8.70047C9.08484 8.69579 8.77275 8.70243 8.53971 8.72255Z" fill="#CBD5E1"/>
</svg>
