<svg width="36" height="42" viewBox="0 0 36 42" fill="none" xmlns="http://www.w3.org/2000/svg">
<path fill-rule="evenodd" clip-rule="evenodd" d="M18 0C10.8992 0 5.14286 5.87627 5.14286 13.125V20.8615C5.14286 20.991 5.10529 21.1177 5.03488 21.2255L0.655406 27.9316C0.228034 28.586 0 29.3549 0 30.1413C0 32.3416 1.74716 34.125 3.90237 34.125H32.0976C34.253 34.125 36 32.3416 36 30.1413C36 29.3549 35.7719 28.586 35.3445 27.9316L30.9651 21.2255C30.8947 21.1177 30.8571 20.991 30.8571 20.8615V13.125C30.8571 5.87627 25.1007 0 18 0ZM9 13.125C9 8.05087 13.0294 3.9375 18 3.9375C22.9706 3.9375 27 8.05087 27 13.125V20.8615C27 21.7684 27.2631 22.655 27.7557 23.4096L32.1351 30.1156C32.1403 30.1232 32.1429 30.1321 32.1429 30.1413C32.1429 30.1472 32.1416 30.1542 32.1416 30.1542L32.14 30.1586C32.14 30.1586 32.1351 30.1683 32.1295 30.1738C32.1241 30.1796 32.1146 30.1846 32.1146 30.1846C32.1146 30.1846 32.1074 30.1875 32.0976 30.1875H3.90237C3.89258 30.1875 3.88535 30.1846 3.88535 30.1846C3.88535 30.1846 3.87589 30.1796 3.87039 30.1738C3.86491 30.1683 3.85989 30.1586 3.85989 30.1586C3.85989 30.1586 3.85714 30.1513 3.85714 30.1413C3.85714 30.1321 3.85979 30.1232 3.86473 30.1156L8.24423 23.4096C8.73702 22.655 9 21.7684 9 20.8615V13.125Z" fill="#CBD5E1"/>
<path d="M23.1032 37.4049C22.7874 39.9953 20.623 42 18 42C15.3769 42 13.2125 39.9953 12.8967 37.4049C12.8529 37.0453 13.1449 36.75 13.5 36.75H22.5C22.855 36.75 23.1469 37.0453 23.1032 37.4049Z" fill="#CBD5E1"/>
</svg>
