<svg width="41" height="41" viewBox="0 0 41 41" fill="none" xmlns="http://www.w3.org/2000/svg">
<circle cx="20.7792" cy="20.7793" r="19.5" fill="#151526" stroke="#1E212C"/>
<g opacity="0.38">
<path d="M26.7792 21.7793H21.7792V26.7793C21.7792 27.3293 21.3292 27.7793 20.7792 27.7793C20.2292 27.7793 19.7792 27.3293 19.7792 26.7793V21.7793H14.7792C14.2292 21.7793 13.7792 21.3293 13.7792 20.7793C13.7792 20.2293 14.2292 19.7793 14.7792 19.7793H19.7792V14.7793C19.7792 14.2293 20.2292 13.7793 20.7792 13.7793C21.3292 13.7793 21.7792 14.2293 21.7792 14.7793V19.7793H26.7792C27.3292 19.7793 27.7792 20.2293 27.7792 20.7793C27.7792 21.3293 27.3292 21.7793 26.7792 21.7793Z" fill="#18A0FB"/>
</g>
</svg>
