<svg width="16" height="13" viewBox="0 0 16 13" fill="none" xmlns="http://www.w3.org/2000/svg">
<path fill-rule="evenodd" clip-rule="evenodd" d="M6.03492 0.0586589C5.83918 0.180216 5.7805 0.275292 5.76662 0.493249C5.75954 0.604504 5.76904 0.750896 5.78774 0.818618C5.81835 0.92955 5.80873 0.974117 5.69043 1.26929C5.43521 1.90608 5.15696 2.77384 5.02222 3.3532L4.95922 3.62406L5.25488 3.60191C5.41748 3.58973 5.72489 3.56628 5.93804 3.54978C6.15118 3.53331 6.72522 3.51965 7.21368 3.51939C8.13857 3.51897 8.62392 3.55605 9.30289 3.67906C9.60481 3.73376 9.69223 3.73858 9.83362 3.70825C10.0524 3.6613 10.3336 3.68774 10.4939 3.77029C10.8506 3.95405 11.0489 4.39761 10.9618 4.81716C10.9278 4.98079 10.9343 5.02869 11.0531 5.49111C11.3018 6.45866 11.4816 7.50575 11.5279 8.25761L11.5504 8.62092H12.396C12.8611 8.62092 13.4003 8.60332 13.5943 8.58185C13.9432 8.54319 14.2335 8.53725 14.6415 8.56047C14.9069 8.57555 15.0449 8.50444 15.1525 8.29723C15.2186 8.17009 15.2247 8.12733 15.2036 7.94273C15.1623 7.58152 15.1742 7.4857 15.3017 7.15151C15.5456 6.51269 15.7273 5.59081 15.804 4.60362C15.8218 4.37456 15.8364 3.78382 15.8364 3.29081C15.8364 2.40342 15.8372 2.39273 15.9168 2.22169C16.133 1.75723 15.9144 1.39217 15.4165 1.3862C15.2246 1.3839 15.1708 1.36679 14.7061 1.16036C13.864 0.786388 12.6439 0.488566 11.2021 0.305003C10.0929 0.16381 9.32126 0.117887 7.95646 0.111784C6.84458 0.106843 6.66477 0.0991887 6.55577 0.0521676C6.38881 -0.0198496 6.15664 -0.016943 6.03492 0.0586589ZM5.66353 3.95608C4.14772 4.087 2.33983 4.38696 1.29076 4.68155C0.977731 4.76946 0.909428 4.77805 0.67513 4.75903C0.37621 4.73477 0.273416 4.76881 0.129672 4.93965C-0.0357737 5.13626 -0.0425879 5.3558 0.107421 5.65617C0.178437 5.79837 0.178696 5.80392 0.129349 6.13668C-0.0602208 7.41475 -0.0138133 8.8912 0.250357 9.98664C0.343043 10.371 0.503548 10.885 0.611671 11.1439C0.677939 11.3025 0.685238 11.36 0.669317 11.5961C0.652588 11.8437 0.657465 11.8758 0.727092 11.9766C0.890503 12.213 1.1187 12.2849 1.45204 12.2049C1.60367 12.1686 1.65757 12.1702 1.85263 12.2173C2.29884 12.325 2.74997 12.3707 3.54823 12.3892C5.66492 12.4383 8.29985 12.0605 9.91029 11.4771C10.2108 11.3682 10.4048 11.3182 10.5931 11.301C10.9086 11.2723 11.0835 11.1861 11.1821 11.0106C11.2721 10.8506 11.2695 10.6493 11.1749 10.4456C11.0636 10.2059 11.0536 10.1058 11.1058 9.75925C11.1342 9.571 11.1532 9.21075 11.1531 8.86313C11.1529 7.90272 11.0255 6.9986 10.7137 5.74669C10.5359 5.03272 10.5334 5.01632 10.5709 4.80585C10.6162 4.55195 10.582 4.3805 10.4561 4.23091C10.3325 4.08407 10.1708 4.04751 9.86459 4.09724C9.64679 4.1326 9.57917 4.13109 9.37361 4.08613C8.7813 3.9566 8.47153 3.93157 7.32671 3.92075C6.53575 3.91326 6.03641 3.92388 5.66353 3.95608Z" fill="#2ADF9E"/>
</svg>
