<svg fill="none" height="14" viewBox="0 0 14 14" width="14" xmlns="http://www.w3.org/2000/svg"><path d="m6.52665 9.19331c-.02867.03168-.05539.06508-.08.1-.02523.03717-.04541.07752-.06.12-.01922.03779-.0327.07824-.04.12-.00327.04439-.00327.08895 0 .13334-.00225.08745.01601.17421.05333.25333.02994.08272.07771.15782.13993.22012.06221.0622.13734.1099.22007.1399.0798.0352.16609.0535.25334.0535.08724 0 .17353-.0183.25333-.0535.08273-.03.15786-.0777.22008-.1399.06221-.0623.10998-.1374.13992-.22012.0296-.08106.04319-.1671.04-.25333.00051-.08774-.01631-.17472-.04949-.25594-.03317-.08123-.08206-.1551-.14384-.2174-.06198-.06248-.13571-.11208-.21695-.14592-.08124-.03385-.16838-.05128-.25639-.05128s-.17514.01743-.25638.05128c-.08124.03384-.15498.08344-.21695.14592zm.47333-8.859997c-1.31854 0-2.60747.390993-3.7038 1.123537-1.09633.73254-1.95081 1.77373-2.455394 2.99191-.504584 1.21817-.636607 2.55861-.379372 3.85182s.892176 2.48112 1.824526 3.41342c.93235.9324 2.12023 1.5673 3.41344 1.8245 1.29321.2573 2.63365.1253 3.85183-.3793 1.21819-.5046 2.25939-1.3591 2.99189-2.4554.7326-1.09635 1.1235-2.38528 1.1235-3.70382 0-.87548-.1724-1.74239-.5074-2.55122-.3351-.80884-.8261-1.54377-1.4452-2.16283-.619-.61905-1.354-1.11012-2.16279-1.445147-.80884-.335032-1.67575-.50747-2.55123-.50747zm0 11.999987c-1.05483 0-2.08598-.3128-2.96304-.8988-.87706-.5861-1.56065-1.419-1.96431-2.39354-.40367-.97454-.50929-2.0469-.3035-3.08146.20579-1.03457.71374-1.98488 1.45962-2.73076s1.69619-1.25383 2.73075-1.45962c1.03457-.20578 2.10692-.10017 3.08146.3035s1.80754 1.08726 2.39354 1.96432.8988 1.90821.8988 2.96304c0 1.41449-.5619 2.77104-1.5621 3.77122-1.00017 1.0002-2.35673 1.5621-3.77122 1.5621zm0-8.66665c-.35129-.00023-.69644.09208-1.00072.26762-.30429.17555-.55697.42815-.73261.73238-.04824.07587-.08062.16073-.09522.24945-.01459.08872-.01109.17947.01031.2668.02139.08733.06022.16944.11417.24137.05394.07193.12188.13221.19972.17721.07784.04499.16399.07378.25324.08462.08926.01084.17979.00352.26614-.02154.08635-.02505.16674-.06731.23634-.12423.06959-.05693.12696-.12735.16863-.20702.05874-.10173.14332-.18614.24517-.24468.10185-.05853.21736-.08912.33483-.08865.17681 0 .34638.07024.47141.19526.12502.12503.19526.29459.19526.47141 0 .17681-.07024.34638-.19526.4714-.12503.12502-.2946.19526-.47141.19526s-.34638.07024-.4714.19526c-.12503.12503-.19526.2946-.19526.47141v.66667c0 .17681.07023.34638.19526.4714.12502.12502.29459.19526.4714.19526s.34638-.07024.47141-.19526c.12502-.12502.19526-.29459.19526-.4714v-.12c.44091-.15999.81157-.46985 1.04718-.87542.23561-.40558.32118-.88106.24175-1.34332-.07943-.46227-.3188-.88192-.67627-1.18559s-.8103-.47204-1.27933-.47567z" fill="#18a0fb"/></svg>