<svg fill="none" height="16" viewBox="0 0 16 16" width="16" xmlns="http://www.w3.org/2000/svg"><path clip-rule="evenodd" d="m7.72498 1.72657c-1.79442 0-3.40559.78773-4.50552 2.03818l1.31353 1.31353c.17177.17177.05012.46546-.19279.46546h-3.976907c-.150582 0-.2726558-.12207-.2726558-.27266v-3.97691c0-.24291.2936948-.364559.4654568-.1928l1.504866 1.50488c1.39639-1.54414 3.41641-2.5156128 5.66402-2.5156128 3.90682 0 7.12742 2.9340128 7.58002 6.7192728.0536.44856-.2665.85567-.715.90931-.4486.05365-.8558-.26649-.9094-.71505-.3554-2.97261-2.887-5.2776-5.95562-5.2776zm-6.864961 6.00423c.448551-.05364.855661.2665.909311.71505.3555 2.97255 2.887 5.27765 5.95565 5.27765 1.79444 0 3.40562-.7878 4.50552-2.0382l-1.3134-1.3136c-.1718-.1717-.0502-.46544.1928-.46544h3.9768c.1506 0 .2727.12214.2727.27264v3.977c0 .2429-.2937.3645-.4655.1927l-1.5048-1.5048c-1.3965 1.5441-3.41653 2.5156-5.66412 2.5156-3.9069 0-7.127322-2.934-7.580019-6.71929-.0536366-.44855.266505-.85567.715058-.90931z" fill="#fff" fill-rule="evenodd"/></svg>