<svg fill="none" height="40" viewBox="0 0 40 40" width="40" xmlns="http://www.w3.org/2000/svg"><rect fill="#fff" fill-opacity=".1" height="40" rx="20" width="40"/><path d="m27.9 20.66c-.1603-.1825-.2487-.4171-.2487-.66s.0884-.4775.2487-.66l1.28-1.44c.1411-.1573.2287-.3553.2502-.5655.0216-.2102-.024-.4218-.1302-.6045l-2-3.46c-.1051-.1825-.2651-.3271-.4572-.4133-.1922-.0862-.4066-.1096-.6128-.0667l-1.88.38c-.2392.0494-.4882.0096-.7001-.112s-.3719-.3165-.4499-.548l-.61-1.83c-.0671-.1986-.1949-.3711-.3654-.4932-.1704-.122-.3749-.18735-.5846-.18681h-4c-.218-.01139-.4338.04891-.6144.17171s-.316.3013-.3856.5083l-.56 1.83c-.078.2315-.238.4264-.4499.548-.2118.1216-.4609.1614-.7001.112l-1.93-.38c-.1954-.0276-.3947.0032-.5726.0886-.178.0854-.3267.2216-.4274.3914l-2 3.46c-.10882.1806-.15776.3911-.1398.6012s.1019.4092.2398.5688l1.27 1.44c.1603.1825.2488.4171.2488.66s-.0885.4775-.2488.66l-1.27 1.44c-.1379.1595-.22184.3586-.2398.5688-.01796.2101.03098.4205.1398.6012l2 3.46c.1051.1825.2651.3271.4573.4133.1921.0862.4065.1095.6127.0667l1.88-.38c.2392-.0494.4883-.0096.7001.112.2119.1216.3719.3165.4499.548l.61 1.83c.0696.207.205.3855.3856.5083s.3964.1831.6144.1717h4c.2097.0005.4142-.0648.5846-.1869.1705-.122.2983-.2945.3654-.4931l.61-1.83c.078-.2315.238-.4264.4499-.548s.4609-.1614.7001-.112l1.88.38c.2062.0428.4206.0195.6128-.0667.1921-.0862.3521-.2308.4572-.4133l2-3.46c.1062-.1827.1518-.3943.1302-.6045-.0215-.2102-.1091-.4082-.2502-.5655zm-1.49 1.34.8.9-1.28 2.22-1.18-.24c-.7202-.1472-1.4694-.0249-2.1054.3438s-1.1144.958-1.3446 1.6562l-.38 1.12h-2.56l-.36-1.14c-.2301-.6982-.7086-1.2875-1.3446-1.6562s-1.3852-.491-2.1054-.3438l-1.18.24-1.3-2.21.8-.9c.492-.55.764-1.2621.764-2s-.272-1.45-.764-2l-.8-.9 1.28-2.2 1.18.24c.7202.1472 1.4694.0249 2.1054-.3438s1.1145-.9581 1.3446-1.6562l.38-1.13h2.56l.38 1.14c.2302.6981.7086 1.2875 1.3446 1.6562s1.3852.491 2.1054.3438l1.18-.24 1.28 2.22-.8.9c-.4864.5487-.755 1.2567-.755 1.99s.2686 1.4412.755 1.99zm-6.77-6c-.7911 0-1.5645.2346-2.2223.6741s-1.1704 1.0642-1.4732 1.7952c-.3028.7309-.382 1.5351-.2276 2.311.1543.776.5353 1.4887 1.0947 2.0481s1.2721.9404 2.0481 1.0947c.7759.1544 1.5801.0752 2.3111-.2276.7309-.3027 1.3556-.8154 1.7951-1.4732s.6741-1.4312.6741-2.2223c0-1.0609-.4214-2.0783-1.1716-2.8284-.7501-.7502-1.7675-1.1716-2.8284-1.1716zm0 6c-.3955 0-.7822-.1173-1.1111-.3371-.3289-.2197-.5853-.5321-.7366-.8975-.1514-.3655-.191-.7676-.1139-1.1556.0772-.388.2677-.7443.5474-1.024s.6361-.4702 1.024-.5474c.388-.0772.7901-.0375 1.1556.1138.3654.1514.6778.4077.8976.7366.2197.3289.337.7156.337 1.1112 0 .5304-.2107 1.0391-.5858 1.4142-.375.3751-.8837.5858-1.4142.5858z" fill="#f1f5f9"/></svg>