<svg fill="none" height="24" viewBox="0 0 24 24" width="24" xmlns="http://www.w3.org/2000/svg"><linearGradient id="a" gradientUnits="userSpaceOnUse" x1="12" x2="12" y1=".074707" y2="23.5082"><stop offset="0" stop-color="#c4c4c4"/><stop offset=".0001" stop-color="#18a0fb"/><stop offset="1" stop-color="#426bff"/></linearGradient><path clip-rule="evenodd" d="m12.8.199594c-.5203-.1665154-1.0797-.1665163-1.6-.000001l-7.87504 2.519997c-1.08722.34791-1.82496 1.35858-1.82496 2.50011v5.2801c0 2.3491.47885 4.7736 1.9548 7.0232 1.47467 2.2478 3.87774 4.2189 7.5478 5.782.636.271 1.3588.271 1.9948 0 3.67-1.5631 6.0732-3.5342 7.5478-5.782 1.476-2.2496 1.9548-4.6741 1.9548-7.0232v-5.2801c0-1.14153-.7377-2.1522-1.8249-2.50011zm-.9143 2.142956c.0743-.02379.1543-.02379.2286 0l7.875 2.52c.1552.04969.2607.19408.2607.35715v5.2801c0 2.0375-.4121 3.9995-1.5861 5.789-1.1752 1.7914-3.1815 3.5123-6.5482 4.9463-.0727.0308-.1587.0308-.2314 0-3.36673-1.434-5.37289-3.1549-6.54825-4.9463-1.17408-1.7895-1.58605-3.7515-1.58605-5.789v-5.2801c0-.16307.10539-.30746.26072-.35715zm2.3643 7.40727c0 .83278-.4525 1.55998-1.125 1.94898v3.676c0 .6214-.5037 1.125-1.125 1.125s-1.125-.5036-1.125-1.125v-3.676c-.6725-.389-1.125-1.1162-1.125-1.94898 0-1.24265 1.0074-2.25 2.25-2.25s2.25 1.00735 2.25 2.25z" fill="url(#a)" fill-rule="evenodd"/></svg>