<svg width="28" height="26" viewBox="0 0 28 26" fill="none" xmlns="http://www.w3.org/2000/svg">
<path d="M27.7447 8.22369L27.7363 8.15905C27.7211 8.07815 27.6937 8.00003 27.6551 7.92737L23.6 1.40001C23.6 1.40001 23.0829 0.76001 22.96 0.76001H5.68002L0.483216 7.70593L0.421776 7.76993L0.413456 7.80001C0.369556 7.87053 0.333502 7.94565 0.305936 8.02401L0.284816 8.08609C0.224939 8.28478 0.227844 8.49711 0.293136 8.69409L0.317456 8.76385C0.350096 8.84641 0.390416 8.92193 0.437776 8.98913L13.0016 24.904L13.0272 24.9405C13.0919 25.0237 13.1706 25.0973 13.2666 25.1645L13.3395 25.2099C13.4112 25.2547 13.4861 25.2906 13.5949 25.3302L13.6659 25.3539C13.7888 25.3853 13.8957 25.4 14 25.4C14.1056 25.4 14.2087 25.3859 14.3475 25.3501L14.4327 25.32C14.5159 25.2906 14.5907 25.2541 14.681 25.1984L14.7373 25.1632C14.8339 25.0947 14.9114 25.0205 14.9543 24.9622L27.5341 9.03073C27.6453 8.88232 27.7179 8.70857 27.7453 8.52513L27.7549 8.44257L27.76 8.37729L27.7447 8.22369ZM20.9991 7.80001L22.7898 4.55969L24.5792 7.80001H20.9991ZM19.9251 9.72001H24.1735L17.0925 18.6896L19.9251 9.72001ZM18.8743 6.82849L16.288 3.32001H20.8128L18.8743 6.82849ZM10.5901 9.72001H17.4119L14 20.5213L10.5901 9.72001ZM11.2666 7.80001L14 4.09057L16.7335 7.80001H11.2666ZM9.34146 6.53793L8.15618 3.32001H11.7127L9.34146 6.53793ZM10.9088 18.6902L3.82722 9.72001H8.07618L10.9088 18.6902ZM6.10562 4.58209L7.29154 7.80001H3.73442L6.10562 4.58209Z" fill="white"/>
</svg>
