<svg width="32" height="32" viewBox="0 0 32 32" fill="none" xmlns="http://www.w3.org/2000/svg">
<g opacity="0.15">
<path d="M25.9993 11H5.99927C5.44698 11 4.99927 11.4477 4.99927 12V26C4.99927 26.5523 5.44698 27 5.99927 27H25.9993C26.5516 27 26.9993 26.5523 26.9993 26V12C26.9993 11.4477 26.5516 11 25.9993 11Z" stroke="white" stroke-width="2" stroke-linecap="round" stroke-linejoin="round"/>
<path d="M11.4993 11V6.5C11.4993 5.30653 11.9734 4.16193 12.8173 3.31802C13.6612 2.47411 14.8058 2 15.9993 2C17.1927 2 18.3373 2.47411 19.1812 3.31802C20.0252 4.16193 20.4993 5.30653 20.4993 6.5V11" stroke="white" stroke-width="2" stroke-linecap="round" stroke-linejoin="round"/>
<path d="M15.9298 23.144C15.2578 23.144 14.6138 23.056 13.9978 22.88C13.3818 22.696 12.8858 22.46 12.5098 22.172L13.1698 20.708C13.5298 20.964 13.9538 21.176 14.4418 21.344C14.9378 21.504 15.4378 21.584 15.9418 21.584C16.3258 21.584 16.6338 21.548 16.8658 21.476C17.1058 21.396 17.2818 21.288 17.3938 21.152C17.5058 21.016 17.5618 20.86 17.5618 20.684C17.5618 20.46 17.4738 20.284 17.2978 20.156C17.1218 20.02 16.8898 19.912 16.6018 19.832C16.3138 19.744 15.9938 19.664 15.6418 19.592C15.2978 19.512 14.9498 19.416 14.5978 19.304C14.2538 19.192 13.9378 19.048 13.6498 18.872C13.3618 18.696 13.1258 18.464 12.9418 18.176C12.7658 17.888 12.6778 17.52 12.6778 17.072C12.6778 16.592 12.8058 16.156 13.0618 15.764C13.3258 15.364 13.7178 15.048 14.2378 14.816C14.7658 14.576 15.4258 14.456 16.2178 14.456C16.7458 14.456 17.2658 14.52 17.7778 14.648C18.2898 14.768 18.7418 14.952 19.1338 15.2L18.5338 16.676C18.1418 16.452 17.7498 16.288 17.3578 16.184C16.9658 16.072 16.5818 16.016 16.2058 16.016C15.8298 16.016 15.5218 16.06 15.2818 16.148C15.0418 16.236 14.8698 16.352 14.7658 16.496C14.6618 16.632 14.6098 16.792 14.6098 16.976C14.6098 17.192 14.6978 17.368 14.8738 17.504C15.0498 17.632 15.2818 17.736 15.5698 17.816C15.8578 17.896 16.1738 17.976 16.5178 18.056C16.8698 18.136 17.2178 18.228 17.5618 18.332C17.9138 18.436 18.2338 18.576 18.5218 18.752C18.8098 18.928 19.0418 19.16 19.2178 19.448C19.4018 19.736 19.4938 20.1 19.4938 20.54C19.4938 21.012 19.3618 21.444 19.0978 21.836C18.8338 22.228 18.4378 22.544 17.9098 22.784C17.3898 23.024 16.7298 23.144 15.9298 23.144Z" fill="white"/>
</g>
</svg>
