<svg width="18" height="16" viewBox="0 0 18 16" fill="none" xmlns="http://www.w3.org/2000/svg">
<path d="M9.87325 0.884862C8.99912 -0.717708 8.29496 0.217124 8.05215 0.884862C5.68472 5.1341 0.804165 13.8511 0.221412 14.7252C-0.361341 15.5994 0.342819 15.9393 0.767743 16H5.50261C6.37674 16 6.95949 15.393 7.1416 15.0894C8.41637 12.9041 11.1116 8.24211 11.6944 7.0766C12.2771 5.91109 12.0586 4.89128 11.8765 4.52706L9.87325 0.884862Z" fill="#E84142"/>
<path d="M15.5187 10.7187C14.3532 8.53342 13.6437 9.89806 13.1512 10.7187C12.6049 11.6293 11.3666 13.7053 10.7838 14.7252C10.2011 15.745 11.0266 15.9999 11.5122 15.9999H17.1577C18.1775 15.9999 17.9468 15.1501 17.704 14.7252L15.5187 10.7187Z" fill="#E84142"/>
</svg>
