<?xml version="1.0" encoding="UTF-8"?>
<svg xmlns="http://www.w3.org/2000/svg" xmlns:xlink="http://www.w3.org/1999/xlink" width="26px" height="26px" viewBox="0 0 26 26" version="1.1">
<defs>
<linearGradient id="linear0" gradientUnits="userSpaceOnUse" x1="131.93" y1="228.33" x2="741.56" y2="926.2" gradientTransform="matrix(0.0240741,0,0,0.0240741,0,0)">
<stop offset="0" style="stop-color:rgb(9.411765%,62.745098%,98.431373%);stop-opacity:1;"/>
<stop offset="1" style="stop-color:rgb(72.156863%,0%,90.588235%);stop-opacity:1;"/>
</linearGradient>
<linearGradient id="linear1" gradientUnits="userSpaceOnUse" x1="243.8" y1="130.6" x2="853.44" y2="828.47" gradientTransform="matrix(0.0240741,0,0,0.0240741,0,0)">
<stop offset="0" style="stop-color:rgb(9.411765%,62.745098%,98.431373%);stop-opacity:1;"/>
<stop offset="1" style="stop-color:rgb(72.156863%,0%,90.588235%);stop-opacity:1;"/>
</linearGradient>
<linearGradient id="linear2" gradientUnits="userSpaceOnUse" x1="215.22" y1="155.57" x2="824.85" y2="853.44" gradientTransform="matrix(0.0240741,0,0,0.0240741,0,0)">
<stop offset="0" style="stop-color:rgb(9.411765%,62.745098%,98.431373%);stop-opacity:1;"/>
<stop offset="1" style="stop-color:rgb(72.156863%,0%,90.588235%);stop-opacity:1;"/>
</linearGradient>
<linearGradient id="linear3" gradientUnits="userSpaceOnUse" x1="104.81" y1="252.02" x2="714.44" y2="949.89" gradientTransform="matrix(0.0240741,0,0,0.0240741,0,0)">
<stop offset="0" style="stop-color:rgb(9.411765%,62.745098%,98.431373%);stop-opacity:1;"/>
<stop offset="1" style="stop-color:rgb(72.156863%,0%,90.588235%);stop-opacity:1;"/>
</linearGradient>
</defs>
<g id="surface1">
<path style=" stroke:none;fill-rule:nonzero;fill:rgb(2.352941%,2.352941%,8.627451%);fill-opacity:1;" d="M 22.988281 13 C 22.988281 18.515625 18.515625 22.988281 13 22.988281 C 7.484375 22.988281 3.011719 18.515625 3.011719 13 C 3.011719 7.484375 7.484375 3.011719 13 3.011719 C 18.515625 3.011719 22.988281 7.484375 22.988281 13 Z M 22.988281 13 "/>
<path style=" stroke:none;fill-rule:nonzero;fill:url(#linear0);" d="M 18.425781 13.378906 L 18.816406 14.992188 C 18.847656 15.128906 18.816406 15.273438 18.730469 15.386719 C 18.644531 15.496094 18.507812 15.5625 18.367188 15.5625 L 7.632812 15.5625 C 7.488281 15.5625 7.355469 15.496094 7.269531 15.386719 C 7.183594 15.273438 7.148438 15.128906 7.183594 14.992188 L 7.574219 13.378906 L 6.09375 15.632812 L 6.09375 18.414062 L 7.117188 18.414062 L 7.117188 17.214844 L 18.882812 17.214844 L 18.882812 18.414062 L 19.90625 18.414062 L 19.90625 15.632812 Z M 18.425781 13.378906 "/>
<path style=" stroke:none;fill-rule:nonzero;fill:url(#linear1);" d="M 17.671875 9.328125 L 8.328125 9.328125 C 8.015625 9.328125 7.761719 9.582031 7.757812 9.894531 L 7.757812 12.929688 L 9.066406 12.929688 L 9.066406 11.765625 C 9.066406 11.546875 9.238281 11.375 9.457031 11.375 L 11.679688 11.375 C 11.894531 11.375 12.070312 11.546875 12.070312 11.765625 L 12.070312 12.929688 L 13.929688 12.929688 L 13.929688 11.765625 C 13.929688 11.546875 14.105469 11.375 14.320312 11.375 L 16.542969 11.375 C 16.761719 11.375 16.933594 11.546875 16.933594 11.765625 L 16.933594 12.929688 L 18.242188 12.929688 L 18.242188 9.894531 C 18.238281 9.582031 17.984375 9.328125 17.671875 9.328125 Z M 17.671875 9.328125 "/>
<path style=" stroke:none;fill-rule:nonzero;fill:url(#linear2);" d="M 5.753906 15.53125 L 6.21875 14.820312 C 6.0625 14.226562 5.980469 13.613281 5.980469 13 C 5.980469 9.125 9.125 5.980469 13 5.980469 C 16.875 5.980469 20.019531 9.125 20.019531 13 C 20.019531 13.613281 19.9375 14.226562 19.777344 14.820312 L 20.246094 15.53125 L 20.246094 16.035156 C 20.648438 15.074219 20.855469 14.042969 20.855469 13 C 20.855469 8.664062 17.335938 5.144531 13 5.144531 C 8.664062 5.144531 5.144531 8.664062 5.144531 13 C 5.144531 14.042969 5.351562 15.074219 5.753906 16.035156 Z M 5.753906 15.53125 "/>
<path style=" stroke:none;fill-rule:nonzero;fill:url(#linear3);" d="M 18.542969 17.558594 L 18.335938 17.558594 C 17.003906 19.117188 15.050781 20.019531 13 20.019531 C 10.949219 20.019531 8.996094 19.117188 7.664062 17.558594 L 7.457031 17.558594 L 7.457031 18.5625 C 10.523438 21.617188 15.476562 21.617188 18.542969 18.5625 Z M 18.542969 17.558594 "/>
</g>
</svg>
