<svg fill="none" height="32" viewBox="0 0 33 32" width="33" xmlns="http://www.w3.org/2000/svg"><linearGradient id="a" gradientUnits="userSpaceOnUse" x1="8.14624" x2="25.6782" y1="24.7659" y2="7.23395"><stop offset="0" stop-color="#9945ff"/><stop offset=".2" stop-color="#7962e7"/><stop offset="1" stop-color="#00d18c"/></linearGradient><clipPath id="b"><path d="m.912109 0h32v32h-32z"/></clipPath><clipPath id="c"><path d="m.912109 0h31.9787v32h-31.9787z"/></clipPath><g clip-path="url(#b)"><path d="m16.9121 32c8.8366 0 16-7.1634 16-16 0-8.83656-7.1634-16-16-16-8.83655 0-15.999991 7.16344-15.999991 16 0 8.8366 7.163441 16 15.999991 16z" fill="#f1f5f9"/><path d="m10.7859 20.4102c.0605-.0663.1343-.1193.2165-.1554.082-.0359.1704-.0546.2598-.055l14.6624.0121c.0625 0 .1236.0182.176.0523.0523.0342.0936.0828.1188.14.0252.0571.0332.1204.0231.1821-.0102.0616-.038.119-.0802.1651l-3.1225 3.4382c-.0603.0663-.1338.1193-.2159.1556-.082.0362-.1707.0549-.2604.0548l-14.66192-.0121c-.0624-.0002-.1234-.0185-.17562-.0527-.05221-.0341-.0934-.0827-.11856-.1398s-.03322-.1203-.0232-.1819.03769-.1189.07966-.1651zm15.3751-2.8618c.0422.0461.07.1035.0802.1652.0101.0616.0021.1249-.0231.1821s-.0665.1058-.1188.1399c-.0524.0342-.1135.0523-.176.0524l-14.6619.0121c-.0897 0-.1784-.0187-.2604-.0549-.0821-.0363-.1556-.0892-.216-.1556l-3.12158-3.4399c-.04197-.0462-.06965-.1037-.07967-.1654-.01015-.0615-.00217-.1248.02298-.1819.02514-.0571.06635-.1057.11862-.1398.05232-.0341.11334-.0524.1758-.0528l14.66235-.0117c.0897-.0002.1785.0184.2605.0547.0821.0362.1556.0893.2158.1557zm-15.3751-9.7381c.0603-.06644.1338-.11949.2158-.15574.0821-.03625.1708-.05489.2605-.05471l14.6624.01213c.0624.00007.1235.01828.1758.05241s.0935.08272.1187.13985c.0251.05702.0332.12013.0231.18164-.0101.0615-.0378.11875-.0799.16477l-3.1225 3.43815c-.0603.0663-.1338.1193-.2159.1556-.082.0362-.1707.0549-.2604.0549l-14.66192-.0122c-.0625 0-.12365-.0182-.17595-.0524s-.09348-.083-.1185-.1403c-.02494-.057-.03286-.1201-.0228-.1816.01007-.0614.03768-.1187.07953-.1648z" fill="url(#a)"/><g clip-path="url(#c)"><path d="m26.7631 5.48938h-19.74467v17.95742h19.74467z" fill="#fff"/><path clip-rule="evenodd" d="m32.8802 16c0 8.8249-7.1539 15.9787-15.9787 15.9787-8.82486 0-15.978771-7.1538-15.978771-15.9787 0-8.82484 7.153911-15.9787598 15.978771-15.9787598 8.8248 0 15.9787 7.1539198 15.9787 15.9787598zm-20.5067 6.3587h-3.10098c-.65162 0-.97349 0-1.16975-.1255-.21198-.1375-.34151-.3652-.35721-.6164-.01179-.2315.14917-.5142.47104-1.0795l7.6568-13.49617c.3258-.5731.4907-.85966.6987-.96563.2238-.11383.4907-.11383.7144 0 .2081.10597.373.39253.6987.96563l1.5741 2.74775.008.01402c.3519.6148.5304.9266.6083 1.2539.0863.3572.0863.734 0 1.0912-.0785.3297-.2551.6438-.6124 1.2679l-4.0219 7.1096-.0104.0183c-.3542.6198-.5337.934-.7825 1.1711-.2709.2591-.5967.4474-.9539.5536-.3258.0902-.6908.0902-1.421.0902zm7.8311 0h4.4434c.6556 0 .9854 0 1.1818-.1294.2119-.1374.3453-.3691.3572-.6202.0113-.224-.1462-.4957-.4547-1.0281-.0106-.0182-.0213-.0366-.0321-.0554l-2.2258-3.8076-.0253-.0428c-.3128-.5289-.4706-.796-.6734-.8992-.2236-.1139-.4868-.1139-.7104 0-.2042.1059-.369.3846-.6948.946l-2.2179 3.8076-.0076.0131c-.3246.5604-.4869.8405-.4752 1.0702.0157.2513.1453.4828.3572.6203.1924.1255.5221.1255 1.1776.1255z" fill="#e84142" fill-rule="evenodd"/></g></g></svg>