<?xml version="1.0" encoding="UTF-8"?>
<svg xmlns="http://www.w3.org/2000/svg" xmlns:xlink="http://www.w3.org/1999/xlink" width="26px" height="26px" viewBox="0 0 26 26" version="1.1">
<g id="surface1">
<path style=" stroke:none;fill-rule:nonzero;fill:rgb(80%,80%,80%);fill-opacity:1;" d="M 22.988281 13 C 22.988281 18.515625 18.515625 22.988281 13 22.988281 C 7.484375 22.988281 3.011719 18.515625 3.011719 13 C 3.011719 7.484375 7.484375 3.011719 13 3.011719 C 18.515625 3.011719 22.988281 7.484375 22.988281 13 Z M 22.988281 13 "/>
<path style=" stroke:none;fill-rule:nonzero;fill:rgb(50.196078%,50.196078%,50.196078%);fill-opacity:1;" d="M 9.976562 12.273438 L 18.792969 10.71875 L 18.792969 11.980469 C 18.792969 15.179688 16.199219 18.226562 13 18.792969 L 10.730469 19.191406 L 8.679688 19.554688 L 7.207031 19.8125 C 7.210938 19.390625 7.308594 18.972656 7.496094 18.59375 C 7.679688 18.210938 7.941406 17.863281 8.261719 17.582031 C 8.671875 17.214844 9.179688 16.949219 9.726562 16.851562 L 13 16.273438 C 14.359375 16.035156 15.527344 14.996094 16.023438 13.726562 L 7.207031 15.28125 L 7.207031 14.019531 C 7.207031 10.824219 9.800781 7.773438 13 7.207031 L 15.269531 6.808594 L 17.320312 6.445312 L 18.792969 6.1875 C 18.789062 6.609375 18.691406 7.027344 18.503906 7.40625 C 18.320312 7.789062 18.058594 8.136719 17.738281 8.417969 C 17.328125 8.785156 16.820312 9.050781 16.273438 9.148438 L 13 9.726562 C 11.640625 9.964844 10.472656 11.003906 9.976562 12.273438 Z M 9.976562 12.273438 "/>
<path style=" stroke:none;fill-rule:nonzero;fill:rgb(50.196078%,50.196078%,50.196078%);fill-opacity:1;" d="M 20.855469 13 C 20.855469 17.332031 17.332031 20.851562 13 20.851562 C 11.796875 20.855469 10.609375 20.578125 9.527344 20.042969 L 12.292969 19.554688 C 12.527344 19.582031 12.765625 19.59375 13 19.59375 C 16.636719 19.59375 19.597656 16.636719 19.597656 13 C 19.597656 12.492188 19.539062 11.988281 19.421875 11.492188 C 19.199219 10.542969 18.765625 9.65625 18.160156 8.894531 C 18.480469 8.609375 18.753906 8.273438 18.964844 7.894531 C 20.183594 9.316406 20.855469 11.128906 20.855469 13 Z M 20.855469 13 "/>
<path style=" stroke:none;fill-rule:nonzero;fill:rgb(50.196078%,50.196078%,50.196078%);fill-opacity:1;" d="M 16.472656 5.957031 L 13.710938 6.445312 C 13.472656 6.417969 13.238281 6.40625 13 6.40625 C 9.363281 6.40625 6.40625 9.363281 6.40625 13 C 6.40625 13.503906 6.464844 14.007812 6.578125 14.503906 C 6.800781 15.453125 7.234375 16.339844 7.84375 17.105469 C 7.519531 17.390625 7.246094 17.726562 7.035156 18.105469 C 5.816406 16.683594 5.144531 14.871094 5.144531 13 C 5.144531 8.667969 8.667969 5.148438 13 5.148438 C 14.203125 5.144531 15.390625 5.421875 16.472656 5.957031 Z M 16.472656 5.957031 "/>
</g>
</svg>
