<svg fill="none" height="16" viewBox="0 0 18 16" width="18" xmlns="http://www.w3.org/2000/svg"><g fill="#e84142"><path d="m9.87325.884862c-.87413-1.60257-1.57829-.667738-1.8211 0-2.36743 4.249238-7.247985 12.966238-7.830738 13.840338-.582753.8742.121407 1.2141.546331 1.2748h4.734867c.87413 0 1.45688-.607 1.63899-.9106 1.27477-2.1853 3.97-6.84729 4.5528-8.0128.5827-1.16551.3642-2.18532.1821-2.54954z"/><path d="m15.5187 10.7187c-1.1655-2.18528-1.875-.82064-2.3675 0-.5463.9106-1.7846 2.9866-2.3674 4.0065-.5827 1.0198.2428 1.2747.7284 1.2747h5.6455c1.0198 0 .7891-.8498.5463-1.2747z"/></g></svg>