<svg fill="none" height="6" viewBox="0 0 32 6" width="32" xmlns="http://www.w3.org/2000/svg"><path clip-rule="evenodd" d="m1.64441.369818c-.25969.158305-1.112011 1.085682-1.417175 1.541832-.2140967.32011-.2463081.41068-.21891278.61596.03827838.28721.23974078.5207.51463178.59663.334561.09238.513386.01607.828556-.35345.16174-.18964.39366-.45628.51538-.5925l.22123-.24781.50625.33462c.27839.18401.55353.36271.61133.39711.09532.05666.08137.12246-.14893.70271-.34744.8754-.33074 1.20883.07274 1.45489.25038.15261.50288.15956.73868.02027.20334-.12009.29334-.28065.56642-1.01026.17444-.46622.20915-.51719.32918-.4836.07381.02057.38754.1032.69714.18351l.56292.14604-.02201.69264c-.02521.79509.04265 1.07899.30197 1.26369.21328.15186.60507.16581.80103.02852.20134-.14098.32624-.41931.32675-.72798.00025-.14792.01801-.45483.03946-.682l.03903-.41306.72316-.03878c.39774-.02133.73142-.03046.74155-.02033.01014.01007.08663.28741.17007.61621.08337.32881.19683.68526.25206.79203.25819.49937 1.00178.49893 1.26018-.00069.1152-.22273.1027-.36402-.1002-1.13409-.0866-.32868-.1216-.56986-.0872-.6007.0316-.02833.3373-.15843.6794-.28909l.6219-.23755.0974.15005c.5857.90229.7405 1.09731.9537 1.20151.4776.23349.988-.10413.9885-.65385.0002-.15875-.0683-.33012-.2251-.56292-.3066-.45553-.5453-.86746-.5171-.89298.0128-.01157.2047-.16587.4265-.34288.4907-.3916.6278-.58862.6283-.903231.0004-.190767-.0438-.285024-.2122-.453462-.1757-.17563-.2594-.212657-.4805-.212657-.2268 0-.3354.051163-.7099.334311-1.5253 1.153229-2.8492 1.663739-4.58412 1.767689-1.80246.10802-3.78362-.51057-5.19592-1.622331-.66618-.524452-.91743-.595005-1.29615-.364021zm16.44469.097009c-.1685.168438-.2126.262695-.2123.453462.0005.314481.1375.511381.6283.903731.2218.17732.4108.34126.42.36434.0091.02301-.1528.30597-.3597.62871-.4179.65174-.466.88554-.2538 1.23361.0859.14091.198.22053.3787.26926.4163.11208.6409-.03959 1.1122-.75081.2165-.3268.4135-.60107.4378-.60945s.3256.09469.6696.22904c.6227.24312.6254.24512.6148.45034-.0058.1134-.0733.42638-.1499.69564-.1208.424-.1294.52314-.0642.74061.1774.59213 1.007.66362 1.2925.1114.0552-.10677.1687-.46322.2521-.79203.0834-.3288.1599-.60614.17-.61621.0102-.01013.3438-.001.7416.02033l.7231.03878.0391.41306c.0214.22717.0392.53408.0394.682.0005.30867.1254.587.3268.72798.1959.13729.5877.12334.801-.02852.2593-.1847.3272-.4686.302-1.26369l-.022-.69264.5629-.14604c.3096-.08031.6211-.16237.6921-.18226.1125-.03159.1522.02295.3064.42106.3019.77908.3998.95677.5891 1.06854.2407.14217.4918.13635.7438-.01726.4035-.24606.4202-.57949.0727-1.45489-.2303-.58025-.2442-.64605-.1489-.70271.0578-.0344.333-.2131.6114-.39711l.5062-.33462.2212.24781c.1217.13622.3537.40286.5154.5925.3152.36952.494.44583.8286.35345.2749-.07593.4763-.30942.5146-.59663.0274-.20547-.0049-.29603-.2207-.61877-.3148-.47104-1.2163-1.441137-1.4528-1.563415-.3785-.195708-.6058-.125593-1.2587.388414-1.4123 1.111761-3.3935 1.730351-5.196 1.622331-1.7349-.10395-3.0588-.61446-4.5841-1.767689-.3745-.283148-.4831-.334311-.7099-.334311-.2211 0-.3048.037027-.4804.212657z" fill="#9d00e7" fill-rule="evenodd"/></svg>