<svg fill="none" height="24" viewBox="0 0 24 24" width="24" xmlns="http://www.w3.org/2000/svg"><path clip-rule="evenodd" d="m16.7584 1.50001c-.2762-.47829-.8877-.642163-1.366-.36602l-6.6962 3.86601h-5.6962c-1.10456 0-2 .89541-2 2v14c0 1.1046.89544 2 2 2h18c1.1046 0 2-.8954 2-2v-.75-3.75-5-3.25-1.25c0-1.10458-.8954-2-2-2h-2.2209zm4.2416 6.74802v-1.24803h-18v14h18v-.748c0-.0007 0-.0013 0-.002v-2.75h-3.375c-1.9555 0-3.625-1.5216-3.625-3.5s1.6695-3.5 3.625-3.5h3.375v-2.25c0-.00066 0-.00132 0-.00197zm0 4.25197h-3.375c-.944 0-1.625.717-1.625 1.5s.681 1.5 1.625 1.5h3.375zm-4.5346-7.50742-3.7493-.00407 2.8102-1.62247z" fill="#fff" fill-rule="evenodd"/></svg>