<svg width="33" height="32" viewBox="0 0 33 32" fill="none" xmlns="http://www.w3.org/2000/svg">
    <circle opacity="0.1" cx="16.5" cy="16" r="16" fill="white" />
    <path fill-rule="evenodd" clip-rule="evenodd"
        d="M14.5349 10.0587C14.3392 10.1802 14.2805 10.2753 14.2666 10.4932C14.2595 10.6045 14.269 10.7509 14.2877 10.8186C14.3184 10.9296 14.3087 10.9741 14.1904 11.2693C13.9352 11.9061 13.657 12.7738 13.5222 13.3532L13.4592 13.6241L13.7549 13.6019C13.9175 13.5897 14.2249 13.5663 14.438 13.5498C14.6512 13.5333 15.2252 13.5197 15.7137 13.5194C16.6386 13.519 17.1239 13.556 17.8029 13.6791C18.1048 13.7338 18.1922 13.7386 18.3336 13.7083C18.5524 13.6613 18.8336 13.6877 18.9939 13.7703C19.3506 13.954 19.5489 14.3976 19.4618 14.8172C19.4278 14.9808 19.4343 15.0287 19.5531 15.4911C19.8018 16.4587 19.9816 17.5058 20.0279 18.2576L20.0504 18.6209H20.896C21.3611 18.6209 21.9003 18.6033 22.0943 18.5818C22.4432 18.5432 22.7335 18.5372 23.1415 18.5605C23.4069 18.5756 23.5449 18.5044 23.6525 18.2972C23.7186 18.1701 23.7247 18.1273 23.7036 17.9427C23.6623 17.5815 23.6742 17.4857 23.8017 17.1515C24.0456 16.5127 24.2273 15.5908 24.304 14.6036C24.3218 14.3746 24.3364 13.7838 24.3364 13.2908C24.3364 12.4034 24.3372 12.3927 24.4168 12.2217C24.633 11.7572 24.4144 11.3922 23.9165 11.3862C23.7246 11.3839 23.6708 11.3668 23.2061 11.1604C22.364 10.7864 21.1439 10.4886 19.7021 10.305C18.5929 10.1638 17.8213 10.1179 16.4565 10.1118C15.3446 10.1068 15.1648 10.0992 15.0558 10.0522C14.8888 9.98015 14.6566 9.98306 14.5349 10.0587ZM14.1635 13.9561C12.6477 14.087 10.8398 14.387 9.79076 14.6816C9.47773 14.7695 9.40943 14.778 9.17513 14.759C8.87621 14.7348 8.77342 14.7688 8.62967 14.9396C8.46423 15.1363 8.45741 15.3558 8.60742 15.6562C8.67844 15.7984 8.6787 15.8039 8.62935 16.1367C8.43978 17.4147 8.48619 18.8912 8.75036 19.9866C8.84304 20.371 9.00355 20.885 9.11167 21.1439C9.17794 21.3025 9.18524 21.36 9.16932 21.5961C9.15259 21.8437 9.15746 21.8758 9.22709 21.9766C9.3905 22.213 9.6187 22.2849 9.95204 22.2049C10.1037 22.1686 10.1576 22.1702 10.3526 22.2173C10.7988 22.325 11.25 22.3707 12.0482 22.3892C14.1649 22.4383 16.7998 22.0605 18.4103 21.4771C18.7108 21.3682 18.9048 21.3182 19.0931 21.301C19.4086 21.2723 19.5835 21.1861 19.6821 21.0106C19.7721 20.8506 19.7695 20.6493 19.6749 20.4456C19.5636 20.2059 19.5536 20.1058 19.6058 19.7592C19.6342 19.571 19.6532 19.2108 19.6531 18.8631C19.6529 17.9027 19.5255 16.9986 19.2137 15.7467C19.0359 15.0327 19.0334 15.0163 19.0709 14.8059C19.1162 14.552 19.082 14.3805 18.9561 14.2309C18.8325 14.0841 18.6708 14.0475 18.3646 14.0972C18.1468 14.1326 18.0792 14.1311 17.8736 14.0861C17.2813 13.9566 16.9715 13.9316 15.8267 13.9208C15.0357 13.9133 14.5364 13.9239 14.1635 13.9561Z"
        fill="#CBD5E1" />
</svg>
