<svg width="33" height="32" viewBox="0 0 33 32" fill="none" xmlns="http://www.w3.org/2000/svg">
    <circle opacity="0.1" cx="16.5" cy="16" r="16" fill="url(#paint0_linear_4970_15348)" />
    <path
        d="M23.3725 14.6118L23.3683 14.5795C23.3607 14.5391 23.347 14.5 23.3277 14.4637L21.3001 11.2C21.3001 11.2 21.0416 10.88 20.9801 10.88H12.3401L9.74173 14.353L9.71101 14.385L9.70685 14.4C9.6849 14.4353 9.66687 14.4728 9.65309 14.512L9.64253 14.543C9.61259 14.6424 9.61404 14.7486 9.64669 14.847L9.65885 14.8819C9.67517 14.9232 9.69533 14.961 9.71901 14.9946L16.0009 22.952L16.0137 22.9702C16.046 23.0118 16.0854 23.0486 16.1334 23.0822L16.1699 23.105C16.2057 23.1274 16.2432 23.1453 16.2976 23.1651L16.3331 23.177C16.3945 23.1926 16.448 23.2 16.5001 23.2C16.5529 23.2 16.6044 23.193 16.6739 23.175L16.7165 23.16C16.758 23.1453 16.7955 23.127 16.8406 23.0992L16.8688 23.0816C16.9171 23.0474 16.9558 23.0102 16.9772 22.9811L23.2672 15.0154C23.3228 14.9412 23.3591 14.8543 23.3728 14.7626L23.3776 14.7213L23.3801 14.6886L23.3725 14.6118ZM19.9997 14.4L20.895 12.7798L21.7897 14.4H19.9997ZM19.4627 15.36H21.5869L18.0464 19.8448L19.4627 15.36ZM18.9373 13.9142L17.6441 12.16H19.9065L18.9373 13.9142ZM14.7952 15.36H18.206L16.5001 20.7606L14.7952 15.36ZM15.1334 14.4L16.5001 12.5453L17.8668 14.4H15.1334ZM14.1709 13.769L13.5782 12.16H15.3565L14.1709 13.769ZM14.9545 19.8451L11.4137 15.36H13.5382L14.9545 19.8451ZM12.5529 12.791L13.1459 14.4H11.3673L12.5529 12.791Z"
        fill="url(#paint1_linear_4970_15348)" />
    <defs>
        <linearGradient id="paint0_linear_4970_15348" x1="-18.54" y1="14.3333" x2="25.9997"
            y2="36.1234" gradientUnits="userSpaceOnUse">
            <stop stop-color="#18A0FB" />
            <stop offset="1" stop-color="#B800E7" />
        </linearGradient>
        <linearGradient id="paint1_linear_4970_15348" x1="1.43447" y1="16.3983" x2="19.7124"
            y2="26.3849" gradientUnits="userSpaceOnUse">
            <stop stop-color="#18A0FB" />
            <stop offset="1" stop-color="#B800E7" />
        </linearGradient>
    </defs>
</svg>
