<svg fill="none" height="48" viewBox="0 0 103 48" width="103" xmlns="http://www.w3.org/2000/svg">
    <linearGradient id="a" gradientUnits="userSpaceOnUse" x1="51.3799" x2="51.3799" y1="0" y2="48">
        <stop offset="0" stop-color="#c4c4c4" />
        <stop offset=".0001" stop-color="#18a0fb" />
        <stop offset="1" stop-color="#426bff" />
    </linearGradient>
    <clipPath id="b">
        <path d="m0 0h102.745v48h-102.745z" />
    </clipPath>
    <g clip-path="url(#b)">
        <path
            d="m4.77201 44.5341v3.4659h-4.183581v-4.1189c.684441.4271 1.475141.6534 2.281951.653zm95.11739 0h-1.916v3.4659h4.1836v-4.1189c-.68.4246-1.466.6507-2.2676.653zm2.8706-16.799v-.531c0-.7613-.303-1.4913-.841-2.0297-.538-.5383-1.268-.8407-2.0296-.8407h-97.01902c-.76127 0-1.49136.3024-2.029664.8407-.538301.5384-.840716 1.2684-.840716 2.0297v.531zm-102.76 1.2774v11.2375c0 .7613.302415 1.4914.840716 2.0297.538304.5383 1.268394.8407 2.029664.8407h97.01902c.7616 0 1.4916-.3024 2.0296-.8407s.841-1.2684.841-2.0297v-11.2375zm43.8523-14.2946c-5.4179-1.9949-18.9374-1.9949-24.348 0-2.5188.9257-7.3697 7.1258-4.5998 7.42 9.2211.9903 23.6232.7965 33.5404 0 2.7628-.2225-2.081-6.4943-4.5926-7.42zm45.7611-14.71784867h-76.4814c-3.32551-.00000055-6.51493 1.32056867-8.86711 3.67138867-2.35217 2.35083-3.674559 5.53949-3.676461 8.86506v11.0438c.686471-.4186 1.478091-.6327 2.281951-.6172h3.04261c.73005-1.2703 1.78138-2.3262 3.04849-3.0618 1.26712-.7356 2.70542-1.1249 4.17052-1.1289h.3301c.4055-.6955.8688-1.3556 1.385-1.9734.6476-.8018 1.3683-1.5417 2.1528-2.2102h-3.8679c-3.0866-.0038-6.06502 1.1365-8.35999 3.2005v-5.2528c.0019-2.2167.8833-4.34196 2.45069-5.90936 1.56739-1.56739 3.6927-2.44878 5.9093-2.45068h76.4814c2.2166.0019 4.3419.88329 5.9093 2.45068 1.5674 1.5674 2.4488 3.69266 2.4507 5.90936v5.2528c-2.295-2.064-5.2734-3.2043-8.36-3.2005h-4.729c1.4306 1.1748 2.6449 2.5907 3.588 4.1836h1.1625c1.4684.0024 2.9103.3909 4.1811 1.1264 1.2708.7356 2.3259 1.7923 3.0595 3.0643h3.0498c.8027-.002 1.5887.2245 2.2677.653v-11.0796c-.001-1.6497-.327-3.28299-.96-4.80636s-1.5608-2.90691-2.7293-4.0714-2.5552-2.08705-4.0807-2.714867c-1.5255-.627812-3.1599-.94854066-4.8096-.94382167zm-36.1668 16.79894867c.6476-.8018 1.3683-1.5417 2.1527-2.2102h-9.3287c1.432 1.1733 2.6465 2.5894 3.588 4.1836h2.2102c.4006-.6969.8617-1.3572 1.3778-1.9734zm29.0052-2.0811c-5.4179-1.9949-18.9374-1.9949-24.3552 0-2.5116.9257-7.3626 7.1258-4.5926 7.42 9.2139.9903 23.6232.7965 33.5404 0 2.7628-.2225-2.081-6.4943-4.5926-7.42z"
            fill="url(#a)" />
    </g>
</svg>