<svg fill="none" height="48" viewBox="0 0 103 48" width="103" xmlns="http://www.w3.org/2000/svg" xmlns:xlink="http://www.w3.org/1999/xlink"><linearGradient id="a"><stop offset="0" stop-color="#c4c4c4"/><stop offset=".0001" stop-color="#18a0fb"/><stop offset="1" stop-color="#426bff"/></linearGradient><linearGradient id="b" gradientUnits="userSpaceOnUse" x1="3.87225" x2="3.87225" xlink:href="#a" y1="18.7026" y2="48.0001"/><linearGradient id="c" gradientUnits="userSpaceOnUse" x1="87.3829" x2="87.3829" xlink:href="#a" y1="0" y2="47.9934"/><linearGradient id="d" gradientUnits="userSpaceOnUse" x1="40.1095" x2="40.1095" xlink:href="#a" y1="24.9458" y2="45.8981"/><linearGradient id="e" gradientUnits="userSpaceOnUse" x1="84.4668" x2="84.4668" xlink:href="#a" y1="15.625" y2="25.3371"/><clipPath id="f"><path d="m0 0h102.377v48h-102.377z"/></clipPath><g clip-path="url(#f)"><path d="m7.7445 36.0615h-2.30941v-1.4003h2.30941v-7.9635h-2.30941v-5.4085c-.03448-.6975-.33584-1.3551-.8417-1.8366-.50586-.4814-1.17748-.75-1.87585-.75-.69836 0-1.36998.2686-1.875841.75-.50586.4815-.8072199 1.1391-.841699 1.8366v26.7109h5.43509v-7.2999h2.30941z" fill="url(#b)"/><path d="m99.6632.00000813c-.3575-.00087529-.7117.06890447-1.0422.20533087-.3305.136426-.6308.33681-.8837.589639-.2528.252832-.4532.553122-.5896.883632-.1364.3305-.2062.68471-.2053 1.04226v23.96353h-24.5542v7.9635h24.5542v1.4002h-24.5542v4.6454h24.5542v7.2999h5.4346v-45.27253c.001-.35699-.068-.71066-.204-1.04073s-.336-.63007-.588-.882809c-.252-.252742-.552-.453264-.882-.590082-.329-.1368171-.683-.20724193-1.0398-.20724087z" fill="url(#c)"/><path d="m71.061 42.8371s-.584 5.6608-22.7757 1.5861c-17.221-3.1655-21.0634 4.7516-39.15383-1.3273v-18.1501h61.95603z" fill="url(#d)"/><path d="m73.6624 25.337 12.6089-.0597c6.7955 0 9.6225-5.0767 9.6093-6.3243 0-3.0394-7.2999-4.8976-15.0378-1.533-7.2799 3.1522-8.8527 7.9369-7.1804 7.917z" fill="url(#e)"/></g></svg>