<svg width="24" height="24" viewBox="0 0 24 24" fill="none" xmlns="http://www.w3.org/2000/svg">
<path fill-rule="evenodd" clip-rule="evenodd" d="M8.1489 3.45615C8.14598 3.45795 8.14261 3.46015 8.1388 3.46281C6.39006 4.68486 5.25 6.70948 5.25 9.00022C5.25 11.3969 6.49822 13.5027 8.38536 14.702C9.16173 15.1954 9.77787 16.087 9.73742 17.1629L9.73694 17.1755L9.49224 22.1801C9.46191 22.8007 8.93424 23.2792 8.31366 23.2487C7.69308 23.2184 7.21459 22.6907 7.24492 22.0702L7.48913 17.0744C7.49214 16.9481 7.41499 16.7513 7.17857 16.601C4.66917 15.0064 3 12.1986 3 9.00022C3 5.94369 4.52472 3.24343 6.84999 1.61851C7.67375 1.04286 8.63931 1.09829 9.35962 1.55959C10.0524 2.00326 10.5 2.80021 10.5 3.69444V7.92301C10.5 8.04724 10.5615 8.16343 10.6643 8.23323L11.7893 8.99724C11.9165 9.08361 12.0835 9.08361 12.2107 8.99724L13.3357 8.23323C13.4385 8.16343 13.5 8.04726 13.5 7.92301V3.69444C13.5 2.80021 13.9476 2.00326 14.6404 1.55959C15.3608 1.09829 16.3263 1.04286 17.15 1.61851C19.4753 3.24343 21 5.94369 21 9.00022C21 12.1986 19.3308 15.0064 16.8215 16.601C16.5851 16.7513 16.5078 16.9481 16.511 17.0744L16.755 22.0702C16.7854 22.6907 16.3069 23.2184 15.6864 23.2487C15.0657 23.2792 14.5381 22.8007 14.5078 22.1801L14.2625 17.1629C14.2221 16.087 14.8383 15.1954 15.6147 14.702C17.5018 13.5027 18.75 11.3969 18.75 9.00022C18.75 6.70948 17.61 4.68486 15.8611 3.46281C15.8574 3.46015 15.8541 3.45795 15.8511 3.45615C15.8151 3.48087 15.75 3.55696 15.75 3.69444V7.92301C15.75 8.79271 15.3192 9.60597 14.5998 10.0946L13.4748 10.8586C12.5845 11.4632 11.4155 11.4632 10.5252 10.8586L9.40024 10.0946C8.68076 9.60597 8.25 8.79271 8.25 7.92301V3.69444C8.25 3.55696 8.18496 3.48087 8.1489 3.45615ZM8.16419 3.44823C8.16495 3.44802 8.16419 3.44826 8.16419 3.44823V3.44823Z" fill="#64748B"/>
</svg>
