<svg width="12" height="12" viewBox="0 0 12 12" fill="none" xmlns="http://www.w3.org/2000/svg">
<path fill-rule="evenodd" clip-rule="evenodd" d="M7.92077 1.12513C7.918 1.12523 7.91535 1.12629 7.91327 1.12813L2.46452 6.42838C2.43776 6.45447 2.4194 6.48797 2.41182 6.52458C2.40423 6.56118 2.40776 6.59922 2.42195 6.6338C2.43613 6.66838 2.46034 6.69794 2.49144 6.71866C2.52255 6.73939 2.55914 6.75035 2.59652 6.75013H5.06252C5.15481 6.75015 5.24568 6.77287 5.32711 6.8163C5.40854 6.85973 5.47803 6.92252 5.52947 6.99915C5.5809 7.07578 5.61268 7.16389 5.62202 7.2557C5.63136 7.34751 5.61797 7.44021 5.58302 7.52563L4.29827 10.6666L9.53477 5.57188C9.56149 5.54583 9.57983 5.5124 9.58744 5.47587C9.59505 5.43933 9.59159 5.40136 9.57749 5.36681C9.5634 5.33226 9.53931 5.3027 9.50832 5.28191C9.47733 5.26112 9.44084 5.25006 9.40352 5.25013H6.93752C6.84343 5.25014 6.75083 5.22654 6.66821 5.1815C6.5856 5.13645 6.5156 5.0714 6.46463 4.9923C6.41366 4.9132 6.38336 4.82258 6.37648 4.72873C6.3696 4.63489 6.38638 4.54081 6.42527 4.45513L7.93127 1.14163L7.93352 1.13713C7.9331 1.13466 7.93207 1.13234 7.93052 1.13038C7.92936 1.12857 7.92783 1.12704 7.92602 1.12588L7.92002 1.12513H7.92077ZM7.12802 0.322629C7.318 0.138215 7.56638 0.0258824 7.83032 0.00500624C8.09426 -0.01587 8.35721 0.0560194 8.57382 0.208275C8.79042 0.36053 8.9471 0.583604 9.01683 0.83902C9.08656 1.09444 9.06497 1.36618 8.95577 1.60738L7.81127 4.12513H9.40352C10.581 4.12513 11.163 5.55688 10.3185 6.37813L4.81352 11.7346C4.63862 11.9048 4.40428 12 4.16027 12.0001H3.93377C3.77997 12.0001 3.62853 11.9623 3.49281 11.8899C3.35709 11.8176 3.24125 11.7129 3.15551 11.5853C3.06977 11.4576 3.01676 11.3108 3.00115 11.1578C2.98555 11.0047 3.00783 10.8502 3.06602 10.7079L4.22477 7.87513H2.59652C1.41902 7.87513 0.837025 6.44338 1.68152 5.62213L7.12727 0.321879L7.12802 0.322629Z" fill="#7962E7"/>
</svg>
