<svg width="10" height="12" viewBox="0 0 10 12" fill="none" xmlns="http://www.w3.org/2000/svg">
    <path fill-rule="evenodd" clip-rule="evenodd"
        d="M6.92065 1.12513C6.91788 1.12523 6.91523 1.12629 6.91315 1.12813L1.4644 6.42838C1.43764 6.45447 1.41928 6.48797 1.4117 6.52458C1.40411 6.56118 1.40764 6.59922 1.42182 6.6338C1.43601 6.66838 1.46021 6.69794 1.49132 6.71866C1.52243 6.73939 1.55902 6.75035 1.5964 6.75013H4.0624C4.15469 6.75015 4.24556 6.77287 4.32699 6.8163C4.40842 6.85973 4.47791 6.92252 4.52934 6.99915C4.58077 7.07578 4.61256 7.16389 4.6219 7.2557C4.63124 7.34751 4.61785 7.44021 4.5829 7.52563L3.29815 10.6666L8.53465 5.57188C8.56137 5.54583 8.57971 5.5124 8.58732 5.47587C8.59493 5.43933 8.59146 5.40136 8.57737 5.36681C8.56328 5.33226 8.53919 5.3027 8.5082 5.28191C8.47721 5.26112 8.44072 5.25006 8.4034 5.25013H5.9374C5.8433 5.25014 5.75071 5.22654 5.66809 5.1815C5.58547 5.13645 5.51548 5.0714 5.46451 4.9923C5.41354 4.9132 5.38323 4.82258 5.37636 4.72873C5.36948 4.63489 5.38626 4.54081 5.42515 4.45513L6.93115 1.14163L6.9334 1.13713C6.93298 1.13466 6.93195 1.13234 6.9304 1.13038C6.92924 1.12857 6.92771 1.12704 6.9259 1.12588L6.9199 1.12513H6.92065ZM6.1279 0.322629C6.31788 0.138215 6.56626 0.0258824 6.8302 0.00500624C7.09414 -0.01587 7.35709 0.0560194 7.57369 0.208275C7.7903 0.36053 7.94698 0.583604 8.01671 0.83902C8.08644 1.09444 8.06484 1.36618 7.95565 1.60738L6.81115 4.12513H8.4034C9.5809 4.12513 10.1629 5.55688 9.3184 6.37813L3.8134 11.7346C3.6385 11.9048 3.40416 12 3.16015 12.0001H2.93365C2.77985 12.0001 2.62841 11.9623 2.49269 11.8899C2.35697 11.8176 2.24113 11.7129 2.15539 11.5853C2.06965 11.4576 2.01664 11.3108 2.00103 11.1578C1.98542 11.0047 2.0077 10.8502 2.0659 10.7079L3.22465 7.87513H1.5964C0.418903 7.87513 -0.163097 6.44338 0.681403 5.62213L6.12715 0.321879L6.1279 0.322629Z"
        fill="#7962E7" />
</svg>
