<svg fill="none" height="24" viewBox="0 0 24 24" width="24" xmlns="http://www.w3.org/2000/svg"><path d="m21 16h-14c-.26522 0-.51957-.1054-.70711-.2929-.18753-.1875-.29289-.4419-.29289-.7071s.10536-.5196.29289-.7071c.18754-.1875.44189-.2929.70711-.2929h10.44c.6687 0 1.3182-.2233 1.8454-.6346.5272-.4112.9019-.9868 1.0646-1.6354l1.65-6.49c.0375-.14759.0407-.30179.0095-.45083s-.096-.28899-.1895-.40917c-.0973-.12327-.2222-.2219-.3646-.28792-.1425-.06602-.2985-.09756-.4554-.09208h-14.24c-.20631-.58355-.58807-1.089-1.09293-1.44706-.50487-.35806-1.10813-.5512-1.72707-.55294h-.94c-.26522 0-.51957.10536-.70711.29289-.18753.18754-.29289.44189-.29289.70711s.10536.51957.29289.70711c.18754.18753.44189.29289.70711.29289h.94c.22843-.00666.45226.06513.63421.20341.18194.13828.31104.33471.36579.55659l.06.48 1.73 6.76c-.79565.0358-1.54449.3862-2.08178.9741-.53729.588-.81902 1.3653-.78322 2.1609s.38621 1.5445.97414 2.0818 1.36521.819 2.16086.7832h.18c-.16446.4531-.21731.9392-.15407 1.4171s.24072.9335.51739 1.3283c.27667.3947.6444.717 1.07203.9395.42764.2225.9026.3386 1.38465.3386.4821 0 .957-.1161 1.3846-.3386.4277-.2225.7954-.5448 1.0721-.9395.2767-.3948.4541-.8504.5174-1.3283.0632-.4779.0104-.964-.1541-1.4171h2.36c-.1645.4531-.2173.9392-.1541 1.4171.0633.4779.2407.9335.5174 1.3283.2767.3947.6444.717 1.0721.9395.4276.2225.9025.3386 1.3846.3386s.957-.1161 1.3846-.3386c.4277-.2225.7954-.5448 1.0721-.9395.2767-.3948.4541-.8504.5174-1.3283.0632-.4779.0104-.964-.1541-1.4171h.18c.2652 0 .5196-.1054.7071-.2929s.2929-.4419.2929-.7071-.1054-.5196-.2929-.7071-.4419-.2929-.7071-.2929zm-1.28-10-1.31 5.24c-.0548.2219-.1838.4183-.3658.5566-.1819.1383-.4058.2101-.6342.2034h-8.63l-1.5-6zm-9.72 14c-.19778 0-.39112-.0586-.55557-.1685s-.29262-.2661-.36831-.4488-.09549-.3838-.05691-.5778c.03859-.194.13383-.3722.27368-.512.13986-.1399.31804-.2351.51202-.2737s.39509-.0188.57779.0569.3389.2039.4488.3683c.1099.1645.1685.3578.1685.5556 0 .2652-.1054.5196-.2929.7071s-.4419.2929-.7071.2929zm8 0c-.1978 0-.3911-.0586-.5556-.1685-.1644-.1099-.2926-.2661-.3683-.4488s-.0955-.3838-.0569-.5778.1338-.3722.2737-.512c.1398-.1399.318-.2351.512-.2737s.3951-.0188.5778.0569.3389.2039.4488.3683c.1099.1645.1685.3578.1685.5556 0 .2652-.1054.5196-.2929.7071s-.4419.2929-.7071.2929z" fill="#64748b" opacity=".6"/></svg>