<svg fill="none" height="48" viewBox="0 0 101 48" width="101" xmlns="http://www.w3.org/2000/svg"><linearGradient id="a" gradientUnits="userSpaceOnUse" x1="50.5105" x2="50.5105" y1="0" y2="48.0002"><stop offset="0" stop-color="#c4c4c4"/><stop offset=".0001" stop-color="#18a0fb"/><stop offset="1" stop-color="#426bff"/></linearGradient><path d="m97.9038 33.0785c0 .3755-.1479.7356-.4112 1.0011s-.6205.4146-.9929.4146h-95.09556c-.3724 0-.729548-.1491-.992876-.4146s-.411264-.6256-.411264-1.0011v-9.7755c0-.3755.147936-.7356.411264-1.0011s.620476-.4147.992876-.4147h95.07456c.3724 0 .7295.1492.9928.4147.2634.2655.4113.6256.4113 1.0011zm-1.4041 2.2793h-95.09556c-.3724 0-.729548.1492-.992876.4147s-.411264.6256-.411264 1.001v9.7685c0 .3755.147936.7356.411264 1.0011s.620476.4146.992876.4146h1.10225v-7.2343c0-.3755.14794-.7356.41127-1.0011s.62048-.4146.99288-.4146h90.06176c.3724 0 .7295.1491.9928.4146.2634.2655.4113.6256.4113 1.0011v7.2768h1.0812c.3724 0 .7295-.1492.9929-.4147.2633-.2655.4112-.6255.4112-1.001v-9.7756c.0001-.3718-.145-.7287-.4038-.9936-.2587-.2649-.6105-.4165-.9792-.4221zm4.5213-34.18256c0-.15611-.031-.310666-.091-.454631-.06-.143966-.147-.274457-.258-.383853-.11-.109395-.241-.195501-.385-.2532884-.144-.0577872-.2976-.086097-.4525-.08327568-.1536-.00093318-.3059.02877158-.4481.08740538-.1422.0586337-.2715.1450397-.3805.2542457s-.1954.239058-.2544.382084c-.059.143027-.0894.296403-.0894.451313v45.64286c0 .3135.1235.6142.3434.8359s.5181.3462.829.3462c.3095-.0019.6065-.1272.8245-.3487s.341-.5211.341-.8334zm-23.7229 9.26586c-9.829 4.1693-12.0055 10.5684-9.7518 10.5684h11.4297c13.6693 0 18.4013-6.6044 18.4013-8.282 0-4.09849-9.6184-6.70342-20.0792-2.2864z" fill="url(#a)"/></svg>