<svg fill="none" height="24" viewBox="0 0 24 24" width="24" xmlns="http://www.w3.org/2000/svg"><path d="m12.59 13.0001-2.3 2.29c-.0937.093-.1681.2036-.2189.3254-.0508.1219-.0769.2526-.0769.3846s.0261.2627.0769.3846c.0508.1218.1252.2324.2189.3254.093.0937.2036.1681.3254.2189.1219.0508.2526.0769.3846.0769s.2627-.0261.3846-.0769c.1218-.0508.2324-.1252.3254-.2189l4-4c.091-.0951.1624-.2072.21-.33.1-.2435.1-.5165 0-.76-.0476-.1228-.119-.2349-.21-.33l-4-4c-.0932-.09324-.2039-.1672-.3258-.21766-.1218-.05046-.2523-.07643-.3842-.07643s-.2624.02597-.3842.07643c-.1219.05046-.2326.12442-.3258.21766s-.1672.20393-.2177.32575c-.0504.12182-.07639.25239-.07639.38425s.02599.26243.07639.38425c.0505.12182.1245.23251.2177.32575l2.3 2.29h-9.59c-.26522 0-.51957.1054-.70711.2929-.18753.1875-.29289.4419-.29289.7071s.10536.5196.29289.7071c.18754.1875.44189.2929.70711.2929zm-.59-11c-1.8689-.00834-3.70276.50721-5.29353 1.48819-1.59078.98098-2.87482 2.38812-3.70647 4.06181-.11935.23869-.13899.51502-.05459.7682.08439.25317.2659.46245.50459.5818s.51502.13899.7682.05459c.25317-.08439.46245-.2659.5818-.50459.63219-1.27668 1.59383-2.36138 2.78555-3.14201s2.57025-1.22887 3.99325-1.2984c1.4229-.06952 2.8386.24219 4.1007.90292 1.2622.66073 2.325 1.64652 3.0786 2.85549.7537 1.20896 1.1708 2.5972 1.2083 4.0214.0375 1.4241-.3059 2.8324-.9949 4.0794-.6889 1.247-1.6984 2.2874-2.924 3.0136-1.2256.7263-2.6229 1.1121-4.0475 1.1176-1.4911.0065-2.95385-.4076-4.22031-1.1948-1.26646-.7871-2.28534-1.9153-2.93969-3.2552-.11935-.2387-.32863-.4202-.5818-.5046-.25318-.0844-.52951-.0647-.7682.0546s-.4202.3286-.50459.5818c-.0844.2532-.06476.5295.05459.7682.79283 1.5955 1.99752 2.9502 3.48947 3.924 1.49195.9739 3.21698 1.5314 4.99663 1.615 1.7797.0836 3.5494-.3098 5.126-1.1395 1.5767-.8297 2.9031-2.0655 3.842-3.5797.9389-1.5141 1.4562-3.2517 1.4984-5.0328s-.3922-3.54121-1.2583-5.09817c-.866-1.55696-2.1324-2.85426-3.6679-3.75772-1.5356-.90347-3.2847-1.38027-5.0663-1.38111z" fill="#64748b" opacity=".6"/></svg>