<svg width="103" height="48" viewBox="0 0 103 48" fill="none" xmlns="http://www.w3.org/2000/svg">
<g clip-path="url(#clip0_531_6695)">
<path d="M7.7445 36.0613H5.43509V34.6611H7.7445V26.6976H5.43509V21.289C5.40061 20.5915 5.09925 19.934 4.59339 19.4525C4.08753 18.971 3.41591 18.7025 2.71754 18.7025C2.01918 18.7025 1.34756 18.971 0.841699 19.4525C0.335839 19.934 0.0344791 20.5915 0 21.289L0 48H5.43509V40.7001H7.7445V36.0613Z" fill="#18A0FB"/>
<path d="M99.6632 8.13341e-06C99.3056 -0.000867157 98.9514 0.0689126 98.6209 0.205339C98.2904 0.341765 97.9901 0.542149 97.7373 0.794978C97.4844 1.04781 97.2841 1.3481 97.1476 1.67861C97.0112 2.00911 96.9414 2.36332 96.9423 2.72087V26.6844H72.3882V34.6479H96.9423V36.0481H72.3882V40.6935H96.9423V47.9934H102.377V2.72087C102.378 2.36388 102.309 2.01021 102.173 1.68014C102.037 1.35007 101.837 1.05007 101.585 0.797331C101.333 0.544589 101.033 0.344067 100.703 0.207249C100.374 0.0704319 100.02 7.06636e-06 99.6632 8.13341e-06Z" fill="#18A0FB"/>
<path d="M71.0611 42.837C71.0611 42.837 70.4771 48.4977 48.2855 44.4231C31.0644 41.2576 27.222 49.1746 9.13159 43.0958V24.9457H71.0876L71.0611 42.837Z" fill="#18A0FB"/>
<path d="M73.6624 25.3372L86.2713 25.2774C93.0668 25.2774 95.8938 20.2007 95.8806 18.9531C95.8806 15.9137 88.5807 14.0555 80.8428 17.4201C73.5629 20.5723 71.9901 25.3571 73.6624 25.3372Z" fill="#18A0FB"/>
</g>
<defs>
<clipPath id="clip0_531_6695">
<rect width="102.377" height="48" fill="white"/>
</clipPath>
</defs>
</svg>
