<svg fill="none" height="48" viewBox="0 0 103 48" width="103" xmlns="http://www.w3.org/2000/svg">
    <clipPath id="a">
        <path d="m0 0h102.377v48h-102.377z" />
    </clipPath>
    <g clip-path="url(#a)" fill="#18a0fb">
        <path
            d="m7.7445 36.0613h-2.30941v-1.4002h2.30941v-7.9635h-2.30941v-5.4086c-.03448-.6975-.33584-1.355-.8417-1.8365s-1.17748-.75-1.87585-.75c-.69836 0-1.36998.2685-1.875841.75-.50586.4815-.8072199 1.139-.841699 1.8365v26.711h5.43509v-7.2999h2.30941z" />
        <path
            d="m99.6632.00000813c-.3576-.00087529-.7118.06890447-1.0423.20533087-.3305.136426-.6308.33681-.8836.589639-.2529.252832-.4532.553122-.5897.883632-.1364.3305-.2062.68471-.2053 1.04226v23.96353h-24.5541v7.9635h24.5541v1.4002h-24.5541v4.6454h24.5541v7.2999h5.4347v-45.27253c.001-.35699-.068-.71066-.204-1.04073s-.336-.63007-.588-.882809c-.252-.252742-.552-.453264-.882-.590082-.329-.1368171-.683-.20724193-1.0398-.20724087z" />
        <path
            d="m71.0611 42.837s-.584 5.6607-22.7756 1.5861c-17.2211-3.1655-21.0635 4.7515-39.15391-1.3273v-18.1501h61.95601z" />
        <path
            d="m73.6624 25.3372 12.6089-.0598c6.7955 0 9.6225-5.0767 9.6093-6.3243 0-3.0394-7.2999-4.8976-15.0378-1.533-7.2799 3.1522-8.8527 7.937-7.1804 7.9171z" />
    </g>
</svg>