<svg width="12" height="12" viewBox="0 0 12 12" fill="none" xmlns="http://www.w3.org/2000/svg">
<path d="M6.375 0.5625C6.375 0.25184 6.12316 0 5.8125 0C5.50184 0 5.25 0.25184 5.25 0.5625V4.4545L3.29344 2.49793C3.07377 2.27826 2.71761 2.27826 2.49794 2.49793C2.27827 2.7176 2.27827 3.07376 2.49794 3.29343L4.45451 5.25H0.5625C0.25184 5.25 0 5.50184 0 5.8125C0 6.12316 0.25184 6.375 0.5625 6.375H4.45452L2.49795 8.33158C2.27828 8.55125 2.27828 8.9074 2.49795 9.12707C2.71762 9.34674 3.07377 9.34674 3.29344 9.12707L5.25 7.17051V11.0625C5.25 11.3732 5.50184 11.625 5.8125 11.625C6.12316 11.625 6.375 11.3732 6.375 11.0625V7.17049L8.33157 9.12706C8.55124 9.34673 8.9074 9.34673 9.12707 9.12706C9.34674 8.90739 9.34674 8.55124 9.12707 8.33157L7.1705 6.375H11.0625C11.3732 6.375 11.625 6.12316 11.625 5.8125C11.625 5.50184 11.3732 5.25 11.0625 5.25H7.17051L9.12707 3.29344C9.34674 3.07377 9.34674 2.71761 9.12707 2.49794C8.9074 2.27827 8.55125 2.27827 8.33158 2.49794L6.375 4.45452V0.5625Z" fill="white"/>
</svg>
