<svg fill="none" height="20" viewBox="0 0 20 20" width="20" xmlns="http://www.w3.org/2000/svg"><path clip-rule="evenodd" d="m10 .3125c.175-.000112.3466.048768.4953.141109.1486.092341.2685.224456.346.381391l2.3525 4.76875 5.2625.765c.1731.02514.3357.09819.4693.2109.1338.1127.2334.26057.2874.42689.0541.16632.0606.34446.0188.51427s-.1303.32454-.2555.44669l-3.8075 3.7125.8987 5.24c.0296.1724.0105.3496-.0554.5117-.0658.1622-.1757.3025-.3172.4054s-.309.1641-.4835.1768c-.1745.0126-.349-.0238-.5039-.1052l-4.7075-2.475-4.70748 2.475c-.15476.0813-.32916.1177-.50351.105-.17434-.0126-.34169-.0737-.48314-.1763-.14144-.1028-.25136-.243-.31732-.4049-.06598-.1619-.08539-.3389-.05603-.5113l.9-5.2425-3.81-3.7112c-.12554-.1221-.214374-.27691-.256432-.44691-.04206-.17-.035663-.34838.018465-.51493s.153823-.31461.287787-.4274c.13397-.11279.29684-.1858.47018-.21076l5.2625-.76375 2.35375-4.76875c.07748-.156935.19734-.28905.34601-.381391.14868-.092341.32023-.141221.49522-.141109zm0 3.05625-1.73123 3.50625c-.06723.13612-.16651.25389-.28931.34316-.12281.08928-.26546.14739-.41569.16934l-3.87125.5625 2.8 2.73c.10894.1061.19045.2371.23749.3817.04703.1446.0582.2984.03251.4483l-.66 3.855 3.46125-1.82c.13454-.0708.28426-.1076.43623-.1076.152 0 .3017.0368.4363.1076l3.4625 1.82-.6625-3.855c-.0257-.1499-.0145-.3037.0325-.4483.0471-.1446.1286-.2756.2375-.3817l2.8-2.72875-3.87-.5625c-.1503-.02195-.2929-.08006-.4157-.16934-.1228-.08927-.2221-.20704-.2893-.34316l-1.7313-3.50875z" fill="#f0b90a" fill-rule="evenodd"/></svg>
