<svg fill="none" height="19" viewBox="0 0 20 19" width="20" xmlns="http://www.w3.org/2000/svg"><path clip-rule="evenodd" d="m10.0001.3125c.1751-.000112.3466.048768.4953.141109s.2685.224456.346.381391l2.3525 4.76875 5.2625.765c.1731.02514.3356.09819.4694.2109.1337.1127.2332.26057.2874.42689.0541.16632.0606.34446.0187.51427s-.1304.32454-.2555.44669l-3.8075 3.7125.8988 5.24c.0296.1724.0104.3496-.0554.5117-.0659.1622-.1758.3025-.3173.4054s-.309.1641-.4835.1768c-.1745.0126-.349-.0238-.5038-.1052l-4.7076-2.475-4.70745 2.475c-.15478.0813-.32918.1177-.50351.105-.17435-.0126-.34169-.0737-.48314-.1763-.14145-.1028-.25136-.243-.31734-.4049-.06597-.1619-.08537-.3389-.05601-.5113l.9-5.2425-3.81-3.7112c-.125547-.1221-.214381-.27691-.256441-.44691-.042059-.17-.035662-.34838.018466-.51493.054129-.16655.153824-.31461.287785-.4274.13397-.11279.29685-.1858.47019-.21076l5.2625-.76375 2.35375-4.76875c.07747-.156935.19732-.28905.346-.381391.14867-.092341.32022-.141221.4952-.141109z" fill="#f0b90a" fill-rule="evenodd"/></svg>