<svg fill="none" height="135" viewBox="0 0 154 135" width="154" xmlns="http://www.w3.org/2000/svg">
    <filter id="a" color-interpolation-filters="sRGB" height="85.6851"
        width="85.6851" x="46.5364" y="25.7915">
        <feFlood flood-opacity="0" result="BackgroundImageFix" />
        <feColorMatrix in="SourceAlpha" result="hardAlpha" values="0 0 0 0 0 0 0 0 0 0 0 0 0 0 0 0 0 0 127 0" />
        <feOffset dy="3" />
        <feGaussianBlur stdDeviation="2" />
        <feColorMatrix values="0 0 0 0 0 0 0 0 0 0 0 0 0 0 0 0 0 0 0.12 0" />
        <feBlend in2="BackgroundImageFix" result="effect1_dropShadow_1695_10984" />
        <feBlend in="SourceGraphic" in2="effect1_dropShadow_1695_10984" result="shape" />
    </filter>
    <path
        d="m128.836 28.1779c4.443.4319 13.737-.9998 15.366-10.1824 1.63-9.1826 5.986-11.7251 7.961-11.84853"
        stroke="#f3603f" stroke-linecap="round" stroke-width="2" />
    <circle cx="89.3791" cy="65.634" fill="#2adf9e" r="44.4235" />
    <g filter="url(#a)">
        <circle cx="89.3789" cy="65.634" r="38.3425" stroke="#fff" stroke-opacity=".7" />
    </g>
    <path
        d="m109.12 55.9156c0 1.2096-.474 2.3775-1.337 3.2117l-20.0652 19.4371c-.9062.8342-2.1144 1.3347-3.3658 1.3347-1.2513 0-2.4596-.5005-3.3226-1.3347l-10.054-9.7185c-.863-.8343-1.3377-2.0022-1.3377-3.2118s.5178-2.3357 1.3808-3.2117c.9062-.8342 2.0712-1.293 3.3226-1.3347 1.2514 0 2.4164.4588 3.3226 1.293l6.6883 6.4652 16.742-16.1837c.907-.8342 2.072-1.2931 3.323-1.2931 1.251.0418 2.416.5006 3.323 1.3765.863.8342 1.38 1.9604 1.38 3.17z"
        fill="#fff" />
    <path d="m122.641 110.057c4.147 1.198 12.165 5.751 11.059 14.376" stroke="#f7b23b"
        stroke-linecap="round" stroke-linejoin="round" stroke-width="2" />
    <path
        d="m1 97.8848c6.36402 2.3972 20.0839 4.1162 24.0511-8.1823m0 0c.5786-3.3886.0001-10.0915-6.9425-9.794-1.3224 3.2647-1.7853 9.794 6.9425 9.794zm0 0c2.8928.5372 9.6205.0248 13.3893-6.3227"
        stroke="#6e89fa" stroke-linecap="round" stroke-linejoin="round" stroke-width="2" />
    <circle cx="101.992" cy="130.742" fill="#637bfe" r="4.25809" />
    <circle cx="142.246" cy="63.3128" r="3.75809" stroke="#c05efd" />
    <circle cx="74.6532" cy="4.66297" fill="#2adf9e" r="4.66297" />
    <circle cx="87.8923" cy="12.5334" fill="#f3603f" r="2.46256" />
    <circle cx="33.6161" cy="48.6984" r="3.8156" stroke="#f7b23b" />
    <circle cx="43.5293" cy="116.747" r="4.24534" stroke="#2adf9e" />
    <circle fill="#2adf9e" r="2.26703" transform="matrix(-1 0 0 1 88.752 125.859)" />
</svg>