<svg fill="none" height="24" viewBox="0 0 24 24" width="24" xmlns="http://www.w3.org/2000/svg"><g opacity=".6" stroke="#64748b" stroke-linecap="round" stroke-linejoin="round" stroke-width="2"><path d="m8.25012 12.6443 8.42978 7.4182c.0975.0858.2157.1448.3429.1712.1272.0265.2591.0194.3827-.0205.1237-.0398.2348-.1112.3226-.2069.0878-.0958.1493-.2127.1783-.3393l3.5263-15.38747c.0305-.13304.0241-.27188-.0185-.40155-.0426-.12968-.1198-.24527-.2232-.33433-.1034-.08905-.2292-.1482-.3638-.17106-.1345-.02286-.2728-.00856-.3998.04135l-17.30223 6.79726c-.15079.0593-.27834.1657-.36358.3035-.08523.1378-.12356.2995-.10924.4609.01431.1613.0805.3137.18865.4344.10815.1206.25246.203.41133.2347z"/><path d="m8.25 12.6443 12.7605-9.21596"/><path d="m12.46 16.3491-2.92967 2.9297c-.10489.1049-.23853.1763-.38401.2053-.14549.0289-.29629.0141-.43333-.0427-.13705-.0568-.25418-.1529-.33659-.2762-.08241-.1234-.1264-.2684-.1264-.4167v-6.1042"/></g></svg>