<svg fill="none" height="20" viewBox="0 0 23 20" width="23" xmlns="http://www.w3.org/2000/svg"><path d="m22.9914 1.95021c.0001-.17664-.0466-.35014-.1353-.50286-.0888-.15271-.2164-.27918-.3699-.36651-.1536-.087338-.3275-.132424-.5041-.13067-.1767.001755-.3497.05029-.5014.14066-.5853.34838-1.2155.61518-1.873.793-.9391-.80577-2.1367-1.246701-3.374-1.242194-1.3575.001562-2.6611.530594-3.6358 1.475384s-1.544 2.23138-1.5879 3.5881c-2.67598-.42674-5.10132-1.82348-6.81351-3.92386-.10316-.12517-.23491-.22369-.38414-.28726-.14922-.06357-.31155-.09032-.47328-.07799-.16164.01331-.3176.06579-.4544.15291-.13681.08711-.25033.20624-.33076.34709-.41247.71981-.64937 1.52675-.69145 2.3553s.11184 1.65535.44926 2.41325l-.00195.00195c-.15165.0934-.27681.22415-.36349.37974-.08669.1556-.13201.33083-.13163.50894-.00183.14692.00698.29379.02637.43945.10214 1.25826.65979 2.43606 1.56836 3.31246-.06163.1175-.09925.246-.11065.3781-.01141.1321.00364.2652.04424.3915.39612 1.2341 1.2385 2.276 2.36231 2.9218-1.14176.4415-2.37458.5955-3.58985.4483-.22492-.0282-.45277.0208-.64615.1391s-.34082.2988-.41813.5119c-.077313.2131-.079906.4461-.00736.6609.07255.2148.21594.3985.40664.5211 2.0901 1.3462 4.52368 2.0619 7.00977 2.0615 2.8193.0317 5.57-.8692 7.8242-2.5625 2.2543-1.6934 3.8858-4.0843 4.6406-6.80079.3531-1.18337.5333-2.41153.5352-3.64644 0-.06543 0-.13281-.001-.20019.5221-.56307.9266-1.2247 1.1897-1.94611.2631-.7214.3795-1.48807.3425-2.25506zm-3.3066 3.21191c-.1652.19534-.2488.44679-.2334.70215.0097.165.0088.331.0088.4873-.0021 1.04354-.155 2.0813-.4541 3.08106-.6165 2.31137-1.9909 4.34907-3.903 5.78657-1.912 1.4376-4.2512 2.1919-6.6429 2.1421-.85912.0003-1.71528-.1007-2.55078-.3007 1.06541-.3434 2.06159-.8727 2.94238-1.5635.16223-.1278.28095-.3026.33989-.5004.05894-.1979.05519-.4092-.01071-.6049-.06591-.1957-.19075-.3661-.3574-.488-.16664-.1219-.36693-.1893-.57338-.1929-.83117-.0129-1.62487-.3479-2.21387-.9345.14942-.0283.29786-.0635.44532-.1055.21601-.0615.40505-.1939.53666-.3759.13162-.1819.19816-.4029.18892-.6273-.00925-.2244-.09375-.4392-.23989-.6097-.14615-.1706-.34543-.2869-.56577-.3305-.48246-.0952-.93645-.3005-1.32668-.5998-.39023-.29925-.70619-.68449-.92332-1.12574.18073.02466.36261.03998.54492.0459.21659.00327.4286-.06243.60538-.1876s.30917-.30332.37802-.50869c.06598-.20724.06259-.43034-.00967-.63547-.07225-.20514-.20943-.38111-.39072-.50125-.43985-.29303-.80015-.69058-1.04864-1.15705-.24849-.46646-.3774-.98728-.37519-1.51579 0-.0664.00195-.13281.00586-.19824 2.24126 2.09025 5.14832 3.32244 8.20897 3.47949.1545.00608.3084-.02302.45-.0851.1416-.06209.2672-.15554.3674-.2733.0992-.1189.1694-.2592.2052-.40985.0357-.15064.036-.30753.0008-.45831-.0572-.23864-.0863-.48313-.0869-.72852.0009-.85547.3412-1.67564.9461-2.28054s1.425-.94513 2.2805-.94603c.4401-.00118.8757.08889 1.2793.26454s.7663.43305 1.0654.75597c.1154.12408.2605.21659.4217.26873s.333.06218.4992.02916c.4108-.07995.8157-.18761 1.2119-.32226-.2702.55297-.6156 1.06594-1.0263 1.52437z" fill="#64748b"/></svg>