<svg width="24" height="5" viewBox="0 0 24 5" fill="none" xmlns="http://www.w3.org/2000/svg">
<path fill-rule="evenodd" clip-rule="evenodd" d="M1.23331 0.0938919C1.03854 0.212621 0.399299 0.908153 0.170426 1.25027C0.00985371 1.49035 -0.0143048 1.55828 0.00624166 1.71223C0.0349505 1.92764 0.186047 2.10276 0.392216 2.15971C0.643136 2.22899 0.777252 2.17176 1.01363 1.89462C1.13494 1.75239 1.30888 1.55241 1.40017 1.45024L1.56609 1.26439L1.94578 1.51535C2.15457 1.65336 2.36093 1.78738 2.40427 1.81318C2.47576 1.85568 2.4653 1.90503 2.29258 2.34022C2.032 2.99677 2.04452 3.24684 2.34714 3.43139C2.53492 3.54585 2.72429 3.55105 2.90114 3.44658C3.05364 3.35652 3.12115 3.2361 3.32596 2.6889C3.45679 2.33923 3.48282 2.301 3.57284 2.32619C3.6282 2.34162 3.8635 2.40359 4.0957 2.46382L4.51789 2.57336L4.50138 3.09284C4.48247 3.68915 4.53337 3.90208 4.72786 4.0406C4.88782 4.1545 5.18166 4.16496 5.32863 4.06199C5.47963 3.95626 5.57331 3.74751 5.57369 3.51601C5.57388 3.40507 5.5872 3.17488 5.60329 3.00451L5.63256 2.69471L6.17493 2.66563C6.47323 2.64963 6.72349 2.64278 6.73109 2.65038C6.73869 2.65794 6.79606 2.86593 6.85864 3.11254C6.92117 3.35914 7.00627 3.62648 7.04769 3.70656C7.24133 4.08109 7.79904 4.08076 7.99283 3.70604C8.07919 3.539 8.06985 3.43303 7.91768 2.85547C7.85271 2.60896 7.82644 2.42808 7.85229 2.40495C7.87598 2.3837 8.10527 2.28613 8.36182 2.18814L8.82825 2.00997L8.90128 2.12251C9.34055 2.79923 9.4567 2.94549 9.61656 3.02364C9.97477 3.19876 10.3576 2.94554 10.358 2.53325C10.3581 2.41419 10.3067 2.28566 10.1891 2.11106C9.95915 1.76942 9.78019 1.46047 9.8013 1.44133C9.81087 1.43265 9.95483 1.31693 10.1212 1.18417C10.4892 0.890468 10.592 0.742702 10.5924 0.506745C10.5927 0.36367 10.5595 0.292977 10.4332 0.166649C10.3015 0.034926 10.2387 0.00715564 10.0729 0.00715564C9.90281 0.00715564 9.82133 0.0455279 9.54048 0.257889C8.39649 1.12281 7.40355 1.50569 6.10236 1.58365C4.75051 1.66467 3.26465 1.20073 2.20542 0.366907C1.70578 -0.0264315 1.51735 -0.0793461 1.23331 0.0938919ZM13.5668 0.166649C13.4405 0.292977 13.4073 0.36367 13.4076 0.506745C13.408 0.742608 13.5107 0.89028 13.8788 1.18455C14.0452 1.31753 14.1869 1.44049 14.1938 1.4578C14.2006 1.47506 14.0792 1.68728 13.9241 1.92933C13.6106 2.41813 13.5745 2.59348 13.7337 2.85454C13.7981 2.96022 13.8822 3.01994 14.0177 3.05648C14.33 3.14054 14.4984 3.02679 14.8518 2.49338C15.0142 2.24827 15.162 2.04257 15.1802 2.03629C15.1984 2.03 15.4244 2.10731 15.6824 2.20807C16.1495 2.39041 16.1515 2.39191 16.1436 2.54582C16.1392 2.63087 16.0885 2.86561 16.0311 3.06755C15.9405 3.38555 15.9341 3.45991 15.9829 3.62301C16.116 4.06711 16.7382 4.12073 16.9523 3.70656C16.9937 3.62648 17.0788 3.35914 17.1414 3.11254C17.2039 2.86593 17.2613 2.65794 17.2689 2.65038C17.2765 2.64278 17.5268 2.64963 17.8251 2.66563L18.3675 2.69471L18.3967 3.00451C18.4128 3.17488 18.4261 3.40507 18.4263 3.51601C18.4267 3.74751 18.5204 3.95626 18.6714 4.06199C18.8184 4.16496 19.1122 4.1545 19.2722 4.0406C19.4666 3.90208 19.5175 3.68915 19.4986 3.09284L19.4821 2.57336L19.9043 2.46382C20.1365 2.40359 20.3701 2.34205 20.4234 2.32713C20.5078 2.30344 20.5375 2.34434 20.6532 2.64292C20.8796 3.22723 20.9531 3.36051 21.095 3.44433C21.2756 3.55096 21.4639 3.5466 21.6529 3.43139C21.9555 3.24684 21.968 2.99677 21.7074 2.34022C21.5347 1.90503 21.5243 1.85568 21.5957 1.81318C21.6391 1.78738 21.8454 1.65336 22.0542 1.51535L22.4339 1.26439L22.5998 1.45024C22.6911 1.55241 22.8651 1.75239 22.9864 1.89462C23.2228 2.17176 23.3569 2.22899 23.6078 2.15971C23.814 2.10276 23.9651 1.92764 23.9938 1.71223C24.0143 1.55814 23.9901 1.49021 23.8283 1.24816C23.5921 0.894877 22.916 0.167306 22.7387 0.0755971C22.4548 -0.0711838 22.2843 -0.0185976 21.7946 0.366907C20.7354 1.20073 19.2495 1.66467 17.8977 1.58365C16.5965 1.50569 15.6035 1.12281 14.4595 0.257889C14.1787 0.0455279 14.0972 0.00715564 13.9271 0.00715564C13.7613 0.00715564 13.6985 0.034926 13.5668 0.166649Z" fill="#2ADF9E"/>
</svg>
