<svg width="14" height="15" viewBox="0 0 14 15" fill="none" xmlns="http://www.w3.org/2000/svg">
    <path fill-rule="evenodd" clip-rule="evenodd"
        d="M10.0278 0.81799C9.85207 0.513616 9.46287 0.409329 9.1585 0.585059L4.89719 3.04531H1.27227C0.56935 3.04531 -0.000488281 3.61513 -0.000488281 4.31807V13.2274C-0.000488281 13.9303 0.56935 14.5001 1.27227 14.5001H12.7271C13.43 14.5001 13.9998 13.9303 13.9998 13.2274V12.7643C13.9999 12.7596 14 12.7548 14 12.7501V5.11354C14 5.1088 13.9999 5.10406 13.9998 5.09934V4.31807C13.9998 3.61514 13.43 3.04531 12.7271 3.04531H11.3138L10.0278 0.81799ZM9.84137 3.04058L7.45539 3.03799L9.24375 2.00549L9.84137 3.04058ZM1.27227 4.31807H12.7271V6.54541H10.5791C9.33471 6.54541 8.27227 7.51373 8.27227 8.77274C8.27227 10.0317 9.33471 11.0001 10.5791 11.0001H12.7271V13.2274H1.27227V4.31807ZM10.5791 7.81817C9.97841 7.81817 9.54503 8.27445 9.54503 8.77274C9.54503 9.27102 9.97841 9.72731 10.5791 9.72731H12.7269V7.81817H10.5791Z"
        fill="url(#paint0_linear_1317_9770)" />
    <defs>
        <linearGradient id="paint0_linear_1317_9770" x1="6.99975" y1="0.499695" x2="6.99975"
            y2="14.5001" gradientUnits="userSpaceOnUse">
            <stop offset="0.0001" stop-color="#18A0FB" />
            <stop offset="1" stop-color="#426BFF" />
        </linearGradient>
    </defs>
</svg>
